<?xml version="1.0" encoding="UTF-8" standalone="no"?>
<!-- Created with Inkscape (http://www.inkscape.org/) -->

<svg
   xmlns:dc="http://purl.org/dc/elements/1.1/"
   xmlns:cc="http://creativecommons.org/ns#"
   xmlns:rdf="http://www.w3.org/1999/02/22-rdf-syntax-ns#"
   xmlns:svg="http://www.w3.org/2000/svg"
   xmlns="http://www.w3.org/2000/svg"
   xmlns:sodipodi="http://sodipodi.sourceforge.net/DTD/sodipodi-0.dtd"
   xmlns:inkscape="http://www.inkscape.org/namespaces/inkscape"
   id="svg2985"
   version="1.1"
   inkscape:version="0.48.3.1 r9886"
   width="1052.5"
   height="393.75"
   xml:space="preserve"
   sodipodi:docname="009.svg"><metadata
     id="metadata2991"><rdf:RDF><cc:Work
         rdf:about=""><dc:format>image/svg+xml</dc:format><dc:type
           rdf:resource="http://purl.org/dc/dcmitype/StillImage" /><dc:title /></cc:Work></rdf:RDF></metadata><defs
     id="defs2989" /><sodipodi:namedview
     pagecolor="#ffffff"
     bordercolor="#666666"
     borderopacity="1"
     objecttolerance="10"
     gridtolerance="10"
     guidetolerance="10"
     inkscape:pageopacity="0"
     inkscape:pageshadow="2"
     inkscape:window-width="1366"
     inkscape:window-height="692"
     id="namedview2987"
     showgrid="false"
     inkscape:zoom="0.65882353"
     inkscape:cx="526.25"
     inkscape:cy="371.875"
     inkscape:window-x="0"
     inkscape:window-y="24"
     inkscape:window-maximized="1"
     inkscape:current-layer="g2995" /><g
     id="g2993"
     inkscape:groupmode="layer"
     inkscape:label="netkit-lab_nat"
     transform="matrix(0,1.25,1.25,0,0,-350)"><g
       id="g2995"
       transform="scale(0.12,0.12)"><path
         d="m 3031.784,5282.5517 c 0,-69.9278 56.7339,-125.3422 125.3423,-125.3422 68.6083,0 125.3422,55.4144 125.3422,125.3422 0,68.6084 -56.7339,124.0229 -125.3422,124.0229 -68.6084,0 -125.3423,-55.4145 -125.3423,-124.0229"
         style="fill:#ccffcc;fill-opacity:1;fill-rule:evenodd;stroke:none"
         id="path3011"
         inkscape:connector-curvature="0" /><path
         d="m 3031.784,5282.5517 c 0,-69.9278 56.7339,-125.3422 125.3423,-125.3422 68.6083,0 125.3422,55.4144 125.3422,125.3422 0,68.6084 -56.7339,124.0229 -125.3422,124.0229 -68.6084,0 -125.3423,-55.4145 -125.3423,-124.0229 z"
         style="fill:none;stroke:#000000;stroke-width:8.24620152;stroke-linecap:round;stroke-linejoin:round;stroke-miterlimit:10;stroke-opacity:1;stroke-dasharray:none"
         id="path3013"
         inkscape:connector-curvature="0" /><path
         d="m 3654.5372,1730.7478 c 0,-68.6085 56.7338,-125.3423 125.3422,-125.3423 68.6084,0 125.3423,56.7338 125.3423,125.3423 0,68.6084 -56.7339,125.3422 -125.3423,125.3422 -68.6084,0 -125.3422,-56.7338 -125.3422,-125.3422"
         style="fill:#ccffcc;fill-opacity:1;fill-rule:evenodd;stroke:none"
         id="path3015"
         inkscape:connector-curvature="0" /><path
         d="m 3654.5372,1730.7478 c 0,-68.6085 56.7338,-125.3423 125.3422,-125.3423 68.6084,0 125.3423,56.7338 125.3423,125.3423 0,68.6084 -56.7339,125.3422 -125.3423,125.3422 -68.6084,0 -125.3422,-56.7338 -125.3422,-125.3422 z"
         style="fill:none;stroke:#000000;stroke-width:8.24620152;stroke-linecap:round;stroke-linejoin:round;stroke-miterlimit:10;stroke-opacity:1;stroke-dasharray:none"
         id="path3017"
         inkscape:connector-curvature="0" /><path
         d="m 3564.8185,4347.1026 c 0,-68.6084 56.7339,-124.0229 125.3422,-124.0229 69.9279,0 125.3423,55.4145 125.3423,124.0229 0,69.9278 -55.4144,125.3422 -125.3423,125.3422 -68.6083,0 -125.3422,-55.4144 -125.3422,-125.3422"
         style="fill:#ccffcc;fill-opacity:1;fill-rule:evenodd;stroke:none"
         id="path3019"
         inkscape:connector-curvature="0" /><path
         d="m 3564.8185,4347.1026 c 0,-68.6084 56.7339,-124.0229 125.3422,-124.0229 69.9279,0 125.3423,55.4145 125.3423,124.0229 0,69.9278 -55.4144,125.3422 -125.3423,125.3422 -68.6083,0 -125.3422,-55.4144 -125.3422,-125.3422 z"
         style="fill:none;stroke:#000000;stroke-width:8.24620152;stroke-linecap:round;stroke-linejoin:round;stroke-miterlimit:10;stroke-opacity:1;stroke-dasharray:none"
         id="path3021"
         inkscape:connector-curvature="0" /><path
         d="m 3564.8185,2663.5582 c 0,-68.6086 56.7339,-125.3423 125.3422,-125.3423 69.9279,0 125.3423,56.7337 125.3423,125.3423 0,69.9277 -55.4144,125.3422 -125.3423,125.3422 -68.6083,0 -125.3422,-55.4145 -125.3422,-125.3422"
         style="fill:#ccffcc;fill-opacity:1;fill-rule:evenodd;stroke:none"
         id="path3023"
         inkscape:connector-curvature="0" /><path
         d="m 3564.8185,2663.5582 c 0,-68.6086 56.7339,-125.3423 125.3422,-125.3423 69.9279,0 125.3423,56.7337 125.3423,125.3423 0,69.9277 -55.4144,125.3422 -125.3423,125.3422 -68.6083,0 -125.3422,-55.4145 -125.3422,-125.3422 z"
         style="fill:none;stroke:#000000;stroke-width:8.24620152;stroke-linecap:round;stroke-linejoin:round;stroke-miterlimit:10;stroke-opacity:1;stroke-dasharray:none"
         id="path3025"
         inkscape:connector-curvature="0" /><path
         d="m 3717.8681,1900.9494 -14.5134,638.5859 21.1102,1.3194 14.5134,-639.9053 -21.1102,0 z m 72.5664,94.9962 -62.0114,-117.4259 -67.2889,114.7872 c -2.6388,5.2775 -1.3194,11.8744 3.9581,14.5133 5.2776,3.9581 11.8746,1.3194 15.8327,-3.9583 l 56.7339,-97.635 -18.4715,0 52.7756,100.2738 c 2.639,5.2776 9.2358,7.9164 14.5134,3.9583 5.2776,-2.6388 6.597,-9.2358 3.9581,-14.5134"
         style="fill:#000000;fill-opacity:1;fill-rule:nonzero;stroke:none"
         id="path3027"
         inkscape:connector-curvature="0" /><path
         d="m 3633.427,4486.9582 -423.5249,663.6542 18.4714,11.8747 423.525,-663.6544 -18.4715,-11.8745 z m 13.1938,118.7452 7.9164,-131.9391 -116.1065,63.3308 c -5.2776,2.6388 -7.9164,9.2357 -5.2776,14.5133 3.9582,5.2776 10.5551,7.9163 15.8326,3.9581 l 98.9545,-52.7757 -15.8327,-10.555 -6.5969,112.1482 c -1.3195,6.5971 3.9581,11.8746 9.2358,11.8746 6.5968,0 11.8744,-3.9582 11.8744,-10.5552"
         style="fill:#000000;fill-opacity:1;fill-rule:nonzero;stroke:none"
         id="path3029"
         inkscape:connector-curvature="0" /><path
         d="m 4029.2446,5282.5517 c 0,-69.9278 56.7339,-125.3422 125.3422,-125.3422 69.9279,0 125.3422,55.4144 125.3422,125.3422 0,68.6084 -55.4143,124.0229 -125.3422,124.0229 -68.6083,0 -125.3422,-55.4145 -125.3422,-124.0229"
         style="fill:#ccffcc;fill-opacity:1;fill-rule:evenodd;stroke:none"
         id="path3031"
         inkscape:connector-curvature="0" /><path
         d="m 4029.2446,5282.5517 c 0,-69.9278 56.7339,-125.3422 125.3422,-125.3422 69.9279,0 125.3422,55.4144 125.3422,125.3422 0,68.6084 -55.4143,124.0229 -125.3422,124.0229 -68.6083,0 -125.3422,-55.4145 -125.3422,-124.0229 z"
         style="fill:none;stroke:#000000;stroke-width:8.24620152;stroke-linecap:round;stroke-linejoin:round;stroke-miterlimit:10;stroke-opacity:1;stroke-dasharray:none"
         id="path3033"
         inkscape:connector-curvature="0" /><path
         d="m 3654.5372,1730.7478 c 0,-68.6085 56.7338,-125.3423 125.3422,-125.3423 68.6084,0 125.3423,56.7338 125.3423,125.3423 0,68.6084 -56.7339,125.3422 -125.3423,125.3422 -68.6084,0 -125.3422,-56.7338 -125.3422,-125.3422"
         style="fill:#ccffcc;fill-opacity:1;fill-rule:evenodd;stroke:none"
         id="path3035"
         inkscape:connector-curvature="0" /><path
         d="m 3654.5372,1730.7478 c 0,-68.6085 56.7338,-125.3423 125.3422,-125.3423 68.6084,0 125.3423,56.7338 125.3423,125.3423 0,68.6084 -56.7339,125.3422 -125.3423,125.3422 -68.6084,0 -125.3422,-56.7338 -125.3422,-125.3422 z"
         style="fill:none;stroke:#000000;stroke-width:8.24620152;stroke-linecap:round;stroke-linejoin:round;stroke-miterlimit:10;stroke-opacity:1;stroke-dasharray:none"
         id="path3037"
         inkscape:connector-curvature="0" /><path
         d="m 3936.8872,4347.1026 c 0,-68.6084 55.4144,-124.0229 124.0228,-124.0229 69.9277,0 125.3423,55.4145 125.3423,124.0229 0,69.9278 -55.4146,125.3422 -125.3423,125.3422 -68.6084,0 -124.0228,-55.4144 -124.0228,-125.3422"
         style="fill:#ccffcc;fill-opacity:1;fill-rule:evenodd;stroke:none"
         id="path3039"
         inkscape:connector-curvature="0" /><path
         d="m 3936.8872,4347.1026 c 0,-68.6084 55.4144,-124.0229 124.0228,-124.0229 69.9277,0 125.3423,55.4145 125.3423,124.0229 0,69.9278 -55.4146,125.3422 -125.3423,125.3422 -68.6084,0 -124.0228,-55.4144 -124.0228,-125.3422 z"
         style="fill:none;stroke:#000000;stroke-width:8.24620152;stroke-linecap:round;stroke-linejoin:round;stroke-miterlimit:10;stroke-opacity:1;stroke-dasharray:none"
         id="path3041"
         inkscape:connector-curvature="0" /><path
         d="m 3936.8872,2663.5582 c 0,-68.6086 55.4144,-125.3423 124.0228,-125.3423 69.9277,0 125.3423,56.7337 125.3423,125.3423 0,69.9277 -55.4146,125.3422 -125.3423,125.3422 -68.6084,0 -124.0228,-55.4145 -124.0228,-125.3422"
         style="fill:#ccffcc;fill-opacity:1;fill-rule:evenodd;stroke:none"
         id="path3043"
         inkscape:connector-curvature="0" /><path
         d="m 3936.8872,2663.5582 c 0,-68.6086 55.4144,-125.3423 124.0228,-125.3423 69.9277,0 125.3423,56.7337 125.3423,125.3423 0,69.9277 -55.4146,125.3422 -125.3423,125.3422 -68.6084,0 -124.0228,-55.4145 -124.0228,-125.3422 z"
         style="fill:none;stroke:#000000;stroke-width:8.24620152;stroke-linecap:round;stroke-linejoin:round;stroke-miterlimit:10;stroke-opacity:1;stroke-dasharray:none"
         id="path3045"
         inkscape:connector-curvature="0" /><path
         d="m 2690.0614,5282.5517 c 0,-69.9278 55.4146,-125.3422 125.3423,-125.3422 68.6084,0 124.0228,55.4144 124.0228,125.3422 0,68.6084 -55.4144,124.0229 -124.0228,124.0229 -69.9277,0 -125.3423,-55.4145 -125.3423,-124.0229"
         style="fill:#ccffcc;fill-opacity:1;fill-rule:evenodd;stroke:none"
         id="path3047"
         inkscape:connector-curvature="0" /><path
         d="m 2690.0614,5282.5517 c 0,-69.9278 55.4146,-125.3422 125.3423,-125.3422 68.6084,0 124.0228,55.4144 124.0228,125.3422 0,68.6084 -55.4144,124.0229 -124.0228,124.0229 -69.9277,0 -125.3423,-55.4145 -125.3423,-124.0229 z"
         style="fill:none;stroke:#000000;stroke-width:8.24620152;stroke-linecap:round;stroke-linejoin:round;stroke-miterlimit:10;stroke-opacity:1;stroke-dasharray:none"
         id="path3049"
         inkscape:connector-curvature="0" /><path
         d="m 3219.1378,4347.1026 c 0,-68.6084 55.4144,-124.0229 125.3422,-124.0229 68.6084,0 124.023,55.4145 124.023,124.0229 0,69.9278 -55.4146,125.3422 -124.023,125.3422 -69.9278,0 -125.3422,-55.4144 -125.3422,-125.3422"
         style="fill:#ccffcc;fill-opacity:1;fill-rule:evenodd;stroke:none"
         id="path3051"
         inkscape:connector-curvature="0" /><path
         d="m 3219.1378,4347.1026 c 0,-68.6084 55.4144,-124.0229 125.3422,-124.0229 68.6084,0 124.023,55.4145 124.023,124.0229 0,69.9278 -55.4146,125.3422 -124.023,125.3422 -69.9278,0 -125.3422,-55.4144 -125.3422,-125.3422 z"
         style="fill:none;stroke:#000000;stroke-width:8.24620152;stroke-linecap:round;stroke-linejoin:round;stroke-miterlimit:10;stroke-opacity:1;stroke-dasharray:none"
         id="path3053"
         inkscape:connector-curvature="0" /><path
         d="m 3315.4534,1730.7478 c 0,-68.6085 55.4145,-125.3423 125.3422,-125.3423 68.6085,0 124.0229,56.7338 124.0229,125.3423 0,68.6084 -55.4144,125.3422 -124.0229,125.3422 -69.9277,0 -125.3422,-56.7338 -125.3422,-125.3422"
         style="fill:#ccffcc;fill-opacity:1;fill-rule:evenodd;stroke:none"
         id="path3055"
         inkscape:connector-curvature="0" /><path
         d="m 3315.4534,1730.7478 c 0,-68.6085 55.4145,-125.3423 125.3422,-125.3423 68.6085,0 124.0229,56.7338 124.0229,125.3423 0,68.6084 -55.4144,125.3422 -124.0229,125.3422 -69.9277,0 -125.3422,-56.7338 -125.3422,-125.3422 z"
         style="fill:none;stroke:#000000;stroke-width:8.24620152;stroke-linecap:round;stroke-linejoin:round;stroke-miterlimit:10;stroke-opacity:1;stroke-dasharray:none"
         id="path3057"
         inkscape:connector-curvature="0" /><path
         d="m 3282.4685,47.205814 686.084,0 0,1683.544586 -686.084,0 0,-1683.544586 z"
         style="fill:#ccffcc;fill-opacity:1;fill-rule:evenodd;stroke:none"
         id="path3067"
         inkscape:connector-curvature="0" /><path
         d="m 3282.4685,47.205814 686.084,0 0,1683.544586 -686.084,0 0,-1683.544586 z"
         style="fill:none;stroke:#000000;stroke-width:8.24620152;stroke-linecap:round;stroke-linejoin:miter;stroke-miterlimit:8;stroke-opacity:1;stroke-dasharray:none"
         id="path3069"
         inkscape:connector-curvature="0" /><g
         id="g3071"
         transform="matrix(10.994931,0,0,10.994931,-81.981611,-1215.3495)"><text
   transform="matrix(0,1,0.99946029,0,346.56,157.791)"
   id="text3073"><tspan
     style="font-size:24.01296043px;font-variant:normal;font-weight:normal;writing-mode:lr-tb;fill:#000000;fill-opacity:1;fill-rule:nonzero;stroke:none;font-family:Verdana;-inkscape-font-specification:Verdana"
     x="0 15.244427 29.765949 42.245983 51.724903"
     y="0"
     sodipodi:role="line"
     id="tspan3075">host1</tspan></text>

</g><path
         d="m 2658.3961,5282.5517 686.0839,0 0,1683.5446 -686.0839,0 0,-1683.5446 z"
         style="fill:#ccffcc;fill-opacity:1;fill-rule:evenodd;stroke:none"
         id="path3077"
         inkscape:connector-curvature="0" /><path
         d="m 2658.3961,5282.5517 686.0839,0 0,1683.5446 -686.0839,0 0,-1683.5446 z"
         style="fill:none;stroke:#000000;stroke-width:8.24620152;stroke-linecap:round;stroke-linejoin:miter;stroke-miterlimit:8;stroke-opacity:1;stroke-dasharray:none"
         id="path3079"
         inkscape:connector-curvature="0" /><g
         id="g3081"
         transform="matrix(10.994931,0,0,10.994931,-81.981611,-1215.3495)"><text
   transform="matrix(0,1,0.99946029,0,289.8,621.951)"
   id="text3083"><tspan
     style="font-size:24.01296043px;font-variant:normal;font-weight:normal;writing-mode:lr-tb;fill:#000000;fill-opacity:1;fill-rule:nonzero;stroke:none;font-family:Verdana;-inkscape-font-specification:Verdana"
     x="0 12.480049 26.767105 36.972885 51.137699 65.424759 75.630539"
     y="0"
     sodipodi:role="line"
     id="tspan3085">server1</tspan></text>

</g><path
         d="m 3905.2217,5282.5517 686.084,0 0,1683.5446 -686.084,0 0,-1683.5446 z"
         style="fill:#ccffcc;fill-opacity:1;fill-rule:evenodd;stroke:none"
         id="path3087"
         inkscape:connector-curvature="0" /><path
         d="m 3905.2217,5282.5517 684.7646,0 0,1683.5446 -684.7646,0 0,-1683.5446 z"
         style="fill:none;stroke:#000000;stroke-width:8.24620152;stroke-linecap:round;stroke-linejoin:miter;stroke-miterlimit:8;stroke-opacity:1;stroke-dasharray:none"
         id="path3089"
         inkscape:connector-curvature="0" /><g
         id="g3091"
         transform="matrix(10.994931,0,0,10.994931,-81.981611,-1215.3495)"><text
   transform="matrix(0,1,0.99946029,0,403.2,621.951)"
   id="text3093"><tspan
     style="font-size:24.01296043px;font-variant:normal;font-weight:normal;writing-mode:lr-tb;fill:#000000;fill-opacity:1;fill-rule:nonzero;stroke:none;font-family:Verdana;-inkscape-font-specification:Verdana"
     x="0 12.480049 26.767105 36.972885 51.137699 65.424759 75.630539"
     y="0"
     sodipodi:role="line"
     id="tspan3095">server2</tspan></text>

</g><path
         d="m 3219.1378,2663.5582 c 0,-68.6086 55.4144,-125.3423 125.3422,-125.3423 68.6084,0 124.023,56.7337 124.023,125.3423 0,69.9277 -55.4146,125.3422 -124.023,125.3422 -69.9278,0 -125.3422,-55.4145 -125.3422,-125.3422"
         style="fill:#ccffcc;fill-opacity:1;fill-rule:evenodd;stroke:none"
         id="path3097"
         inkscape:connector-curvature="0" /><path
         d="m 3219.1378,2663.5582 c 0,-68.6086 55.4144,-125.3423 125.3422,-125.3423 68.6084,0 124.023,56.7337 124.023,125.3423 0,69.9277 -55.4146,125.3422 -124.023,125.3422 -69.9278,0 -125.3422,-55.4145 -125.3422,-125.3422 z"
         style="fill:none;stroke:#000000;stroke-width:8.24620152;stroke-linecap:round;stroke-linejoin:round;stroke-miterlimit:10;stroke-opacity:1;stroke-dasharray:none"
         id="path3099"
         inkscape:connector-curvature="0" /><path
         d="m 2938.1072,2663.5582 1372.1679,0 0,1683.5444 -1372.1679,0 0,-1683.5444 z"
         style="fill:#ccffcc;fill-opacity:1;fill-rule:evenodd;stroke:none"
         id="path3101"
         inkscape:connector-curvature="0" /><path
         d="m 2938.1072,2663.5582 1372.1679,0 0,1683.5444 -1372.1679,0 0,-1683.5444 z"
         style="fill:none;stroke:#000000;stroke-width:8.24620152;stroke-linecap:round;stroke-linejoin:miter;stroke-miterlimit:8;stroke-opacity:1;stroke-dasharray:none"
         id="path3103"
         inkscape:connector-curvature="0" /><g
         id="g3105"
         transform="matrix(10.994931,0,0,10.994931,-81.981611,-1215.3495)"><text
   transform="matrix(0,1,0.99946029,0,346.56,378.591)"
   id="text3107"><tspan
     style="font-size:24.01296043px;font-variant:normal;font-weight:normal;writing-mode:lr-tb;fill:#000000;fill-opacity:1;fill-rule:nonzero;stroke:none;font-family:Verdana;-inkscape-font-specification:Verdana"
     x="0 17.998783 34.448463 49.203327 57.613789 72.612595 87.254112"
     y="0"
     sodipodi:role="line"
     id="tspan3109">NAT box</tspan></text>

</g><path
         d="m 3380.1036,1854.7706 -91.038,661.0156 22.4296,2.6388 89.7187,-661.0155 -21.1103,-2.6389 z m -130.6198,560.7418 47.4981,124.0229 80.4829,-106.8709 c 2.6388,-3.9582 2.6388,-11.8745 -2.6388,-14.5132 -5.2775,-3.9582 -11.8745,-2.6388 -15.8327,1.3193 l -67.289,91.0381 18.4716,2.6387 -40.9012,-105.5513 c -1.3194,-5.2776 -7.9164,-7.9163 -14.5134,-6.5969 -5.2775,2.6387 -7.9163,9.2356 -5.2775,14.5133"
         style="fill:#000000;fill-opacity:1;fill-rule:nonzero;stroke:none"
         id="path3111"
         inkscape:connector-curvature="0" /><path
         d="m 3273.2328,4467.1673 -515.8824,666.293 18.4715,13.194 514.563,-666.2931 -17.1521,-13.1939 z m -500.0497,559.4223 -21.1103,130.6199 122.7035,-51.4563 c 5.2777,-2.6389 7.9164,-9.2357 5.2777,-14.5134 -1.3194,-6.597 -7.9164,-9.2357 -13.194,-6.597 l -104.2319,44.8594 14.5132,11.8745 17.1521,-112.1484 c 1.3194,-5.2775 -2.6388,-11.8744 -9.2357,-11.8744 -5.2775,-1.3194 -11.8746,2.6387 -11.8746,9.2357"
         style="fill:#000000;fill-opacity:1;fill-rule:nonzero;stroke:none"
         id="path3113"
         inkscape:connector-curvature="0" /><path
         d="m 3455.309,1875.8809 -91.0382,661.0155 22.4298,3.9583 89.7187,-662.335 -21.1103,-2.6388 z m 62.0114,102.9126 -47.4981,-124.0229 -80.4829,106.8708 c -3.9582,5.2777 -2.6388,11.8746 2.6387,15.8327 3.9582,2.6388 11.8745,2.6388 14.5133,-2.6387 l 68.6084,-91.0381 -19.7908,-2.6389 42.2205,105.5514 c 1.3194,6.5971 7.9163,9.2358 13.194,6.5971 6.5969,-2.6388 9.2357,-9.2358 6.5969,-14.5134"
         style="fill:#000000;fill-opacity:1;fill-rule:nonzero;stroke:none"
         id="path3115"
         inkscape:connector-curvature="0" /><path
         d="m 3368.2292,4484.3195 -515.8826,666.2929 18.4716,13.194 514.563,-666.2931 -17.152,-13.1938 z m 2.6387,120.0645 19.7908,-130.6197 -121.384,51.4563 c -5.2777,2.6388 -7.9164,9.2357 -6.597,14.5133 2.6387,6.5969 9.2358,9.2358 14.5133,6.5969 l 104.232,-44.8593 -14.5134,-11.8746 -17.152,112.1484 c -1.3194,5.2777 2.6388,11.8745 9.2357,11.8745 5.2775,1.3195 10.5552,-2.6387 11.8746,-9.2358"
         style="fill:#000000;fill-opacity:1;fill-rule:nonzero;stroke:none"
         id="path3117"
         inkscape:connector-curvature="0" /><path
         d="m 3839.2521,1878.5197 179.4374,663.6543 22.4297,-6.597 -180.7568,-662.3349 -21.1103,5.2776 z m 97.6351,69.9279 -92.3575,-94.9963 -31.6655,129.3004 c -2.6387,6.597 1.3194,11.8745 7.9164,13.1939 5.2776,1.3194 11.8746,-1.3194 13.194,-7.9164 l 26.3878,-109.5095 -18.4715,5.2776 79.1635,80.4828 c 3.9582,3.9583 11.8746,3.9583 15.8328,0 3.9582,-3.9581 3.9582,-10.555 0,-15.8325"
         style="fill:#000000;fill-opacity:1;fill-rule:nonzero;stroke:none"
         id="path3119"
         inkscape:connector-curvature="0" /><path
         d="m 4072.7845,4488.2776 84.4411,670.2513 22.4296,-2.6388 -85.7604,-670.2513 -21.1103,2.6388 z m 87.08,84.441 -79.1636,-108.1902 -48.8175,124.023 c -2.6388,5.2776 0,11.8745 5.2776,14.5132 5.2775,2.6388 11.8745,-1.3193 14.5132,-6.5969 l 42.2206,-104.2319 -19.7909,1.3193 67.2891,91.0381 c 3.9581,5.2776 10.555,6.597 15.8326,2.6388 5.2776,-2.6388 5.2776,-10.5552 2.6389,-14.5134"
         style="fill:#000000;fill-opacity:1;fill-rule:nonzero;stroke:none"
         id="path3121"
         inkscape:connector-curvature="0" /><g
         id="g3123"
         transform="scale(8.33333,8.33333)"><text
   transform="matrix(0,1,0.99944031,0,456.48,104.151)"
   id="text3125"><tspan
     style="font-size:20.05122185px;font-variant:normal;font-weight:normal;writing-mode:lr-tb;fill:#ff0000;fill-opacity:1;fill-rule:nonzero;stroke:none;font-family:Wingdings;-inkscape-font-specification:Wingdings"
     x="0"
     y="0"
     id="tspan3127" /></text>

</g><g
         id="g3139"
         transform="scale(8.33333,8.33333)"><text
   transform="matrix(0,1,0.99944031,0,184.92,104.151)"
   id="text3141"><tspan
     style="font-size:20.05122185px;font-variant:normal;font-weight:normal;writing-mode:lr-tb;fill:#ff0000;fill-opacity:1;fill-rule:nonzero;stroke:none;font-family:Wingdings;-inkscape-font-specification:Wingdings"
     x="0"
     y="0"
     id="tspan3143" /></text>

</g><g
         id="g3145"
         transform="scale(8.33333,8.33333)" /></g></g></svg>