<?xml version="1.0" encoding="UTF-8" standalone="no"?>
<!-- Created with Inkscape (http://www.inkscape.org/) -->

<svg
   xmlns:dc="http://purl.org/dc/elements/1.1/"
   xmlns:cc="http://creativecommons.org/ns#"
   xmlns:rdf="http://www.w3.org/1999/02/22-rdf-syntax-ns#"
   xmlns:svg="http://www.w3.org/2000/svg"
   xmlns="http://www.w3.org/2000/svg"
   xmlns:sodipodi="http://sodipodi.sourceforge.net/DTD/sodipodi-0.dtd"
   xmlns:inkscape="http://www.inkscape.org/namespaces/inkscape"
   id="svg2985"
   version="1.1"
   inkscape:version="0.48.3.1 r9886"
   width="810.5"
   height="242.75"
   xml:space="preserve"
   sodipodi:docname="netkit-lab_nat.pdf"><metadata
     id="metadata2991"><rdf:RDF><cc:Work
         rdf:about=""><dc:format>image/svg+xml</dc:format><dc:type
           rdf:resource="http://purl.org/dc/dcmitype/StillImage" /><dc:title></dc:title></cc:Work></rdf:RDF></metadata><defs
     id="defs2989" /><sodipodi:namedview
     pagecolor="#ffffff"
     bordercolor="#666666"
     borderopacity="1"
     objecttolerance="10"
     gridtolerance="10"
     guidetolerance="10"
     inkscape:pageopacity="0"
     inkscape:pageshadow="2"
     inkscape:window-width="1366"
     inkscape:window-height="692"
     id="namedview2987"
     showgrid="false"
     inkscape:zoom="0.65882353"
     inkscape:cx="526.25"
     inkscape:cy="189.73214"
     inkscape:window-x="0"
     inkscape:window-y="24"
     inkscape:window-maximized="1"
     inkscape:current-layer="g2995" /><g
     id="g2993"
     inkscape:groupmode="layer"
     inkscape:label="netkit-lab_nat"
     transform="matrix(0,1.25,1.25,0,0,-501)"><g
       id="g2995"
       transform="scale(0.12,0.12)"><path
         d="m 4405.7143,4034.4438 c 0,-53 42,-95 94,-95 53,0 95,42 95,95 0,52 -42,94 -95,94 -52,0 -94,-42 -94,-94"
         style="fill:#ccffcc;fill-opacity:1;fill-rule:evenodd;stroke:none"
         id="path3011"
         inkscape:connector-curvature="0" /><path
         d="m 4405.7143,4034.4438 c 0,-53 42,-95 94,-95 53,0 95,42 95,95 0,52 -42,94 -95,94 -52,0 -94,-42 -94,-94 z"
         style="fill:none;stroke:#000000;stroke-width:6.25;stroke-linecap:round;stroke-linejoin:round;stroke-miterlimit:10;stroke-opacity:1;stroke-dasharray:none"
         id="path3013"
         inkscape:connector-curvature="0" /><path
         d="m 3695.7143,4034.4438 c 0,-53 43,-95 95,-95 52,0 95,42 95,95 0,52 -43,94 -95,94 -52,0 -95,-42 -95,-94"
         style="fill:#ccffcc;fill-opacity:1;fill-rule:evenodd;stroke:none"
         id="path3015"
         inkscape:connector-curvature="0" /><path
         d="m 3695.7143,4034.4438 c 0,-53 43,-95 95,-95 52,0 95,42 95,95 0,52 -43,94 -95,94 -52,0 -95,-42 -95,-94 z"
         style="fill:none;stroke:#000000;stroke-width:6.25;stroke-linecap:round;stroke-linejoin:round;stroke-miterlimit:10;stroke-opacity:1;stroke-dasharray:none"
         id="path3017"
         inkscape:connector-curvature="0" /><path
         d="m 4167.7143,1342.4438 c 0,-52 43,-95 95,-95 52,0 95,43 95,95 0,52 -43,95 -95,95 -52,0 -95,-43 -95,-95"
         style="fill:#ccffcc;fill-opacity:1;fill-rule:evenodd;stroke:none"
         id="path3019"
         inkscape:connector-curvature="0" /><path
         d="m 4167.7143,1342.4438 c 0,-52 43,-95 95,-95 52,0 95,43 95,95 0,52 -43,95 -95,95 -52,0 -95,-43 -95,-95 z"
         style="fill:none;stroke:#000000;stroke-width:6.25;stroke-linecap:round;stroke-linejoin:round;stroke-miterlimit:10;stroke-opacity:1;stroke-dasharray:none"
         id="path3021"
         inkscape:connector-curvature="0" /><path
         d="m 4099.7143,3325.4438 c 0,-52 43,-94 95,-94 53,0 95,42 95,94 0,53 -42,95 -95,95 -52,0 -95,-42 -95,-95"
         style="fill:#ccffcc;fill-opacity:1;fill-rule:evenodd;stroke:none"
         id="path3023"
         inkscape:connector-curvature="0" /><path
         d="m 4099.7143,3325.4438 c 0,-52 43,-94 95,-94 53,0 95,42 95,94 0,53 -42,95 -95,95 -52,0 -95,-42 -95,-95 z"
         style="fill:none;stroke:#000000;stroke-width:6.25;stroke-linecap:round;stroke-linejoin:round;stroke-miterlimit:10;stroke-opacity:1;stroke-dasharray:none"
         id="path3025"
         inkscape:connector-curvature="0" /><path
         d="m 4099.7143,2049.4438 c 0,-52 43,-95 95,-95 53,0 95,43 95,95 0,53 -42,95 -95,95 -52,0 -95,-42 -95,-95"
         style="fill:#ccffcc;fill-opacity:1;fill-rule:evenodd;stroke:none"
         id="path3027"
         inkscape:connector-curvature="0" /><path
         d="m 4099.7143,2049.4438 c 0,-52 43,-95 95,-95 53,0 95,43 95,95 0,53 -42,95 -95,95 -52,0 -95,-42 -95,-95 z"
         style="fill:none;stroke:#000000;stroke-width:6.25;stroke-linecap:round;stroke-linejoin:round;stroke-miterlimit:10;stroke-opacity:1;stroke-dasharray:none"
         id="path3029"
         inkscape:connector-curvature="0" /><path
         d="m 3436.7143,4034.4438 c 0,-53 42,-95 95,-95 52,0 94,42 94,95 0,52 -42,94 -94,94 -53,0 -95,-42 -95,-94"
         style="fill:#ccffcc;fill-opacity:1;fill-rule:evenodd;stroke:none"
         id="path3031"
         inkscape:connector-curvature="0" /><path
         d="m 3436.7143,4034.4438 c 0,-53 42,-95 95,-95 52,0 94,42 94,95 0,52 -42,94 -94,94 -53,0 -95,-42 -95,-94 z"
         style="fill:none;stroke:#000000;stroke-width:6.25;stroke-linecap:round;stroke-linejoin:round;stroke-miterlimit:10;stroke-opacity:1;stroke-dasharray:none"
         id="path3033"
         inkscape:connector-curvature="0" /><path
         d="m 3837.7143,3325.4438 c 0,-52 42,-94 95,-94 52,0 94,42 94,94 0,53 -42,95 -94,95 -53,0 -95,-42 -95,-95"
         style="fill:#ccffcc;fill-opacity:1;fill-rule:evenodd;stroke:none"
         id="path3035"
         inkscape:connector-curvature="0" /><path
         d="m 3837.7143,3325.4438 c 0,-52 42,-94 95,-94 52,0 94,42 94,94 0,53 -42,95 -94,95 -53,0 -95,-42 -95,-95 z"
         style="fill:none;stroke:#000000;stroke-width:6.25;stroke-linecap:round;stroke-linejoin:round;stroke-miterlimit:10;stroke-opacity:1;stroke-dasharray:none"
         id="path3037"
         inkscape:connector-curvature="0" /><path
         d="m 3910.7143,1342.4438 c 0,-52 42,-95 95,-95 52,0 94,43 94,95 0,52 -42,95 -94,95 -53,0 -95,-43 -95,-95"
         style="fill:#ccffcc;fill-opacity:1;fill-rule:evenodd;stroke:none"
         id="path3039"
         inkscape:connector-curvature="0" /><path
         d="m 3910.7143,1342.4438 c 0,-52 42,-95 95,-95 52,0 94,43 94,95 0,52 -42,95 -94,95 -53,0 -95,-43 -95,-95 z"
         style="fill:none;stroke:#000000;stroke-width:6.25;stroke-linecap:round;stroke-linejoin:round;stroke-miterlimit:10;stroke-opacity:1;stroke-dasharray:none"
         id="path3041"
         inkscape:connector-curvature="0" /><path
         d="m 3885.7143,66.445781 520,0 0,1276.000019 -520,0 0,-1276.000019 z"
         style="fill:#ccffcc;fill-opacity:1;fill-rule:evenodd;stroke:none"
         id="path3051"
         inkscape:connector-curvature="0" /><path
         d="m 3885.7143,66.445781 520,0 0,1276.000019 -520,0 0,-1276.000019 z"
         style="fill:none;stroke:#000000;stroke-width:6.25;stroke-linecap:round;stroke-linejoin:miter;stroke-miterlimit:8;stroke-opacity:1;stroke-dasharray:none"
         id="path3053"
         inkscape:connector-curvature="0" /><g
         id="g3055"
         transform="matrix(8.33333,0,0,8.33333,1335.7143,-890.47619)"><text
           transform="matrix(0,1,0.99946029,0,346.56,157.791)"
           id="text3057"><tspan
             style="font-size:24.01296043px;font-variant:normal;font-weight:normal;writing-mode:lr-tb;fill:#000000;fill-opacity:1;fill-rule:nonzero;stroke:none;font-family:Verdana;-inkscape-font-specification:Verdana"
             x="0 15.244427 29.765949 42.245983 51.724903"
             y="0"
             sodipodi:role="line"
             id="tspan3059">host1</tspan></text>
</g><path
         d="m 3412.7143,4034.4438 520,0 0,1276 -520,0 0,-1276 z"
         style="fill:#ccffcc;fill-opacity:1;fill-rule:evenodd;stroke:none"
         id="path3061"
         inkscape:connector-curvature="0" /><path
         d="m 3412.7143,4034.4438 520,0 0,1276 -520,0 0,-1276 z"
         style="fill:none;stroke:#000000;stroke-width:6.25;stroke-linecap:round;stroke-linejoin:miter;stroke-miterlimit:8;stroke-opacity:1;stroke-dasharray:none"
         id="path3063"
         inkscape:connector-curvature="0" /><g
         id="g3065"
         transform="matrix(8.33333,0,0,8.33333,1335.7143,-890.47619)"><text
           transform="matrix(0,1,0.99946029,0,289.8,621.951)"
           id="text3067"><tspan
             style="font-size:24.01296043px;font-variant:normal;font-weight:normal;writing-mode:lr-tb;fill:#000000;fill-opacity:1;fill-rule:nonzero;stroke:none;font-family:Verdana;-inkscape-font-specification:Verdana"
             x="0 12.480049 26.767105 36.972885 51.137699 65.424759 75.630539"
             y="0"
             sodipodi:role="line"
             id="tspan3069">server1</tspan></text>
</g><path
         d="m 4357.7143,4034.4438 520,0 0,1276 -520,0 0,-1276 z"
         style="fill:#ccffcc;fill-opacity:1;fill-rule:evenodd;stroke:none"
         id="path3071"
         inkscape:connector-curvature="0" /><path
         d="m 4357.7143,4034.4438 519,0 0,1276 -519,0 0,-1276 z"
         style="fill:none;stroke:#000000;stroke-width:6.25;stroke-linecap:round;stroke-linejoin:miter;stroke-miterlimit:8;stroke-opacity:1;stroke-dasharray:none"
         id="path3073"
         inkscape:connector-curvature="0" /><g
         id="g3075"
         transform="matrix(8.33333,0,0,8.33333,1335.7143,-890.47619)"><text
           transform="matrix(0,1,0.99946029,0,403.2,621.951)"
           id="text3077"><tspan
             style="font-size:24.01296043px;font-variant:normal;font-weight:normal;writing-mode:lr-tb;fill:#000000;fill-opacity:1;fill-rule:nonzero;stroke:none;font-family:Verdana;-inkscape-font-specification:Verdana"
             x="0 12.480049 26.767105 36.972885 51.137699 65.424759 75.630539"
             y="0"
             sodipodi:role="line"
             id="tspan3079">server2</tspan></text>
</g><path
         d="m 3837.7143,2049.4438 c 0,-52 42,-95 95,-95 52,0 94,43 94,95 0,53 -42,95 -94,95 -53,0 -95,-42 -95,-95"
         style="fill:#ccffcc;fill-opacity:1;fill-rule:evenodd;stroke:none"
         id="path3081"
         inkscape:connector-curvature="0" /><path
         d="m 3837.7143,2049.4438 c 0,-52 42,-95 95,-95 52,0 94,43 94,95 0,53 -42,95 -94,95 -53,0 -95,-42 -95,-95 z"
         style="fill:none;stroke:#000000;stroke-width:6.25;stroke-linecap:round;stroke-linejoin:round;stroke-miterlimit:10;stroke-opacity:1;stroke-dasharray:none"
         id="path3083"
         inkscape:connector-curvature="0" /><path
         d="m 3624.7143,2049.4438 1040,0 0,1276 -1040,0 0,-1276 z"
         style="fill:#ccffcc;fill-opacity:1;fill-rule:evenodd;stroke:none"
         id="path3085"
         inkscape:connector-curvature="0" /><path
         d="m 3624.7143,2049.4438 1040,0 0,1276 -1040,0 0,-1276 z"
         style="fill:none;stroke:#000000;stroke-width:6.25;stroke-linecap:round;stroke-linejoin:miter;stroke-miterlimit:8;stroke-opacity:1;stroke-dasharray:none"
         id="path3087"
         inkscape:connector-curvature="0" /><g
         id="g3089"
         transform="matrix(8.33333,0,0,8.33333,1335.7143,-890.47619)"><text
           transform="matrix(0,1,0.99946029,0,346.56,378.591)"
           id="text3091"><tspan
             style="font-size:24.01296043px;font-variant:normal;font-weight:normal;writing-mode:lr-tb;fill:#000000;fill-opacity:1;fill-rule:nonzero;stroke:none;font-family:Verdana;-inkscape-font-specification:Verdana"
             x="0 17.998783 34.448463 49.203327 57.613789 72.612595 87.254112"
             y="0"
             sodipodi:role="line"
             id="tspan3093">NAT box</tspan></text>
</g><path
         d="m 3959.7143,1436.4438 -69,501 17,2 68,-501 -16,-2 z m -99,425 36,94 61,-81 c 2,-3 2,-9 -2,-11 -4,-3 -9,-2 -12,1 l -51,69 14,2 -31,-80 c -1,-4 -6,-6 -11,-5 -4,2 -6,7 -4,11"
         style="fill:#000000;fill-opacity:1;fill-rule:nonzero;stroke:none"
         id="path3095"
         inkscape:connector-curvature="0" /><path
         d="m 3878.7143,3416.4438 -391,505 14,10 390,-505 -13,-10 z m -379,424 -16,99 93,-39 c 4,-2 6,-7 4,-11 -1,-5 -6,-7 -10,-5 l -79,34 11,9 13,-85 c 1,-4 -2,-9 -7,-9 -4,-1 -9,2 -9,7"
         style="fill:#000000;fill-opacity:1;fill-rule:nonzero;stroke:none"
         id="path3097"
         inkscape:connector-curvature="0" /><path
         d="m 4016.7143,1452.4438 -69,501 17,3 68,-502 -16,-2 z m 47,78 -36,-94 -61,81 c -3,4 -2,9 2,12 3,2 9,2 11,-2 l 52,-69 -15,-2 32,80 c 1,5 6,7 10,5 5,-2 7,-7 5,-11"
         style="fill:#000000;fill-opacity:1;fill-rule:nonzero;stroke:none"
         id="path3099"
         inkscape:connector-curvature="0" /><path
         d="m 3950.7143,3429.4438 -391,505 14,10 390,-505 -13,-10 z m 2,91 15,-99 -92,39 c -4,2 -6,7 -5,11 2,5 7,7 11,5 l 79,-34 -11,-9 -13,85 c -1,4 2,9 7,9 4,1 8,-2 9,-7"
         style="fill:#000000;fill-opacity:1;fill-rule:nonzero;stroke:none"
         id="path3101"
         inkscape:connector-curvature="0" /><path
         d="m 4252.7143,1453.4438 -48,502 16,1 49,-502 -17,-1 z m 50,76 -40,-93 -57,83 c -3,4 -2,9 2,12 4,2 9,2 11,-2 l 49,-71 -14,-1 34,78 c 2,5 7,6 11,5 4,-2 6,-7 4,-11"
         style="fill:#000000;fill-opacity:1;fill-rule:nonzero;stroke:none"
         id="path3103"
         inkscape:connector-curvature="0" /><path
         d="m 4151.7143,3431.4438 -321,503 14,9 321,-503 -14,-9 z m 10,90 6,-100 -88,48 c -4,2 -6,7 -4,11 3,4 8,6 12,3 l 75,-40 -12,-8 -5,85 c -1,5 3,9 7,9 5,0 9,-3 9,-8"
         style="fill:#000000;fill-opacity:1;fill-rule:nonzero;stroke:none"
         id="path3105"
         inkscape:connector-curvature="0" /><path
         d="m 4514.7143,3438.4438 0,501 17,0 0,-501 -17,0 z m 57,71 -49,-88 -49,88 c -2,4 0,9 4,11 4,2 9,1 11,-3 l 42,-75 -15,0 42,75 c 2,4 7,5 11,3 4,-2 5,-7 3,-11"
         style="fill:#000000;fill-opacity:1;fill-rule:nonzero;stroke:none"
         id="path3107"
         inkscape:connector-curvature="0" /><path
         d="m 4623.7143,3374.4438 -216,219"
         style="fill:none;stroke:#ff0000;stroke-width:66.66670227;stroke-linecap:butt;stroke-linejoin:round;stroke-miterlimit:10;stroke-opacity:1;stroke-dasharray:none"
         id="path3109"
         inkscape:connector-curvature="0" /><path
         d="m 4357.7143,3485.4438 c 0,-88 71,-160 159,-160 88,0 159,72 159,160 0,88 -71,159 -159,159 -88,0 -159,-71 -159,-159 z"
         style="fill:none;stroke:#ff0000;stroke-width:66.66670227;stroke-linecap:round;stroke-linejoin:round;stroke-miterlimit:10;stroke-opacity:1;stroke-dasharray:none"
         id="path3111"
         inkscape:connector-curvature="0" /><g
         id="g3113"
         transform="scale(8.33333,8.33333)"><text
           transform="matrix(0,1,0.99944031,0,184.92,104.151)"
           id="text3115"><tspan
             style="font-size:20.05122185px;font-variant:normal;font-weight:normal;writing-mode:lr-tb;fill:#ff0000;fill-opacity:1;fill-rule:nonzero;stroke:none;font-family:Wingdings;-inkscape-font-specification:Wingdings"
             x="0"
             y="0"
             id="tspan3117"></tspan></text>
</g><g
         id="g3177"
         transform="scale(8.33333,8.33333)"><text
           transform="matrix(0,1,0.99944031,0,456.48,104.151)"
           id="text3179"><tspan
             style="font-size:20.05122185px;font-variant:normal;font-weight:normal;writing-mode:lr-tb;fill:#ff0000;fill-opacity:1;fill-rule:nonzero;stroke:none;font-family:Wingdings;-inkscape-font-specification:Wingdings"
             x="0"
             y="0"
             id="tspan3181"></tspan></text>
</g></g></g></svg>