<?xml version="1.0" encoding="UTF-8" standalone="no"?>
<!-- Created with Inkscape (http://www.inkscape.org/) -->

<svg
   xmlns:dc="http://purl.org/dc/elements/1.1/"
   xmlns:cc="http://creativecommons.org/ns#"
   xmlns:rdf="http://www.w3.org/1999/02/22-rdf-syntax-ns#"
   xmlns:svg="http://www.w3.org/2000/svg"
   xmlns="http://www.w3.org/2000/svg"
   xmlns:sodipodi="http://sodipodi.sourceforge.net/DTD/sodipodi-0.dtd"
   xmlns:inkscape="http://www.inkscape.org/namespaces/inkscape"
   id="svg3246"
   version="1.1"
   inkscape:version="0.48.3.1 r9886"
   width="811.5"
   height="255.75"
   xml:space="preserve"
   sodipodi:docname="netkit-lab_nat.pdf"><metadata
     id="metadata3252"><rdf:RDF><cc:Work
         rdf:about=""><dc:format>image/svg+xml</dc:format><dc:type
           rdf:resource="http://purl.org/dc/dcmitype/StillImage" /><dc:title></dc:title></cc:Work></rdf:RDF></metadata><defs
     id="defs3250" /><sodipodi:namedview
     pagecolor="#ffffff"
     bordercolor="#666666"
     borderopacity="1"
     objecttolerance="10"
     gridtolerance="10"
     guidetolerance="10"
     inkscape:pageopacity="0"
     inkscape:pageshadow="2"
     inkscape:window-width="1366"
     inkscape:window-height="692"
     id="namedview3248"
     showgrid="false"
     inkscape:zoom="0.31731092"
     inkscape:cx="526.25"
     inkscape:cy="371.875"
     inkscape:window-x="0"
     inkscape:window-y="24"
     inkscape:window-maximized="1"
     inkscape:current-layer="g3256" /><g
     id="g3254"
     inkscape:groupmode="layer"
     inkscape:label="netkit-lab_nat"
     transform="matrix(0,1.25,1.25,0,0,-488)"><g
       id="g3256"
       transform="scale(0.12,0.12)"><path
         d="m 3944.6229,3333.5047 c 0,-52 42,-94 94,-94 53,0 95,42 95,94 0,53 -42,95 -95,95 -52,0 -94,-42 -94,-95"
         style="fill:#ccffcc;fill-opacity:1;fill-rule:evenodd;stroke:none"
         id="path3272"
         inkscape:connector-curvature="0" /><path
         d="m 3944.6229,3333.5047 c 0,-52 42,-94 94,-94 53,0 95,42 95,94 0,53 -42,95 -95,95 -52,0 -94,-42 -94,-95 z"
         style="fill:none;stroke:#000000;stroke-width:6.25;stroke-linecap:round;stroke-linejoin:round;stroke-miterlimit:10;stroke-opacity:1;stroke-dasharray:none"
         id="path3274"
         inkscape:connector-curvature="0" /><path
         d="m 4393.6229,4042.5047 c 0,-53 42,-95 94,-95 53,0 95,42 95,95 0,52 -42,94 -95,94 -52,0 -94,-42 -94,-94"
         style="fill:#ccffcc;fill-opacity:1;fill-rule:evenodd;stroke:none"
         id="path3276"
         inkscape:connector-curvature="0" /><path
         d="m 4393.6229,4042.5047 c 0,-53 42,-95 94,-95 53,0 95,42 95,95 0,52 -42,94 -95,94 -52,0 -94,-42 -94,-94 z"
         style="fill:none;stroke:#000000;stroke-width:6.25;stroke-linecap:round;stroke-linejoin:round;stroke-miterlimit:10;stroke-opacity:1;stroke-dasharray:none"
         id="path3278"
         inkscape:connector-curvature="0" /><path
         d="m 3683.6229,4042.5047 c 0,-53 43,-95 95,-95 52,0 95,42 95,95 0,52 -43,94 -95,94 -52,0 -95,-42 -95,-94"
         style="fill:#ccffcc;fill-opacity:1;fill-rule:evenodd;stroke:none"
         id="path3280"
         inkscape:connector-curvature="0" /><path
         d="m 3683.6229,4042.5047 c 0,-53 43,-95 95,-95 52,0 95,42 95,95 0,52 -43,94 -95,94 -52,0 -95,-42 -95,-94 z"
         style="fill:none;stroke:#000000;stroke-width:6.25;stroke-linecap:round;stroke-linejoin:round;stroke-miterlimit:10;stroke-opacity:1;stroke-dasharray:none"
         id="path3282"
         inkscape:connector-curvature="0" /><path
         d="m 3424.6229,4042.5047 c 0,-53 42,-95 95,-95 52,0 94,42 94,95 0,52 -42,94 -94,94 -53,0 -95,-42 -95,-94"
         style="fill:#ccffcc;fill-opacity:1;fill-rule:evenodd;stroke:none"
         id="path3284"
         inkscape:connector-curvature="0" /><path
         d="m 3424.6229,4042.5047 c 0,-53 42,-95 95,-95 52,0 94,42 94,95 0,52 -42,94 -94,94 -53,0 -95,-42 -95,-94 z"
         style="fill:none;stroke:#000000;stroke-width:6.25;stroke-linecap:round;stroke-linejoin:round;stroke-miterlimit:10;stroke-opacity:1;stroke-dasharray:none"
         id="path3286"
         inkscape:connector-curvature="0" /><path
         d="m 3707.6229,3333.5047 c 0,-52 43,-94 95,-94 52,0 95,42 95,94 0,53 -43,95 -95,95 -52,0 -95,-42 -95,-95"
         style="fill:#ccffcc;fill-opacity:1;fill-rule:evenodd;stroke:none"
         id="path3288"
         inkscape:connector-curvature="0" /><path
         d="m 3707.6229,3333.5047 c 0,-52 43,-94 95,-94 52,0 95,42 95,94 0,53 -43,95 -95,95 -52,0 -95,-42 -95,-95 z"
         style="fill:none;stroke:#000000;stroke-width:6.25;stroke-linecap:round;stroke-linejoin:round;stroke-miterlimit:10;stroke-opacity:1;stroke-dasharray:none"
         id="path3290"
         inkscape:connector-curvature="0" /><path
         d="m 3898.6229,1350.5047 c 0,-52 42,-95 95,-95 52,0 94,43 94,95 0,52 -42,95 -94,95 -53,0 -95,-43 -95,-95"
         style="fill:#ccffcc;fill-opacity:1;fill-rule:evenodd;stroke:none"
         id="path3292"
         inkscape:connector-curvature="0" /><path
         d="m 3898.6229,1350.5047 c 0,-52 42,-95 95,-95 52,0 94,43 94,95 0,52 -42,95 -94,95 -53,0 -95,-43 -95,-95 z"
         style="fill:none;stroke:#000000;stroke-width:6.25;stroke-linecap:round;stroke-linejoin:round;stroke-miterlimit:10;stroke-opacity:1;stroke-dasharray:none"
         id="path3294"
         inkscape:connector-curvature="0" /><path
         d="m 3873.6229,74.506746 520,0 0,1275.999954 -520,0 0,-1275.999954 z"
         style="fill:#ccffcc;fill-opacity:1;fill-rule:evenodd;stroke:none"
         id="path3304"
         inkscape:connector-curvature="0" /><path
         d="m 3873.6229,74.506746 520,0 0,1275.999954 -520,0 0,-1275.999954 z"
         style="fill:none;stroke:#000000;stroke-width:6.25;stroke-linecap:round;stroke-linejoin:miter;stroke-miterlimit:8;stroke-opacity:1;stroke-dasharray:none"
         id="path3306"
         inkscape:connector-curvature="0" /><g
         id="g3308"
         transform="matrix(8.33333,0,0,8.33333,1323.6229,-882.41525)"><text
           transform="matrix(0,1,0.99946029,0,346.56,157.791)"
           id="text3310"><tspan
             style="font-size:24.01296043px;font-variant:normal;font-weight:normal;writing-mode:lr-tb;fill:#000000;fill-opacity:1;fill-rule:nonzero;stroke:none;font-family:Verdana;-inkscape-font-specification:Verdana"
             x="0 15.244427 29.765949 42.245983 51.724903"
             y="0"
             sodipodi:role="line"
             id="tspan3312">host1</tspan></text>
</g><path
         d="m 3400.6229,4042.5047 520,0 0,1276 -520,0 0,-1276 z"
         style="fill:#ccffcc;fill-opacity:1;fill-rule:evenodd;stroke:none"
         id="path3314"
         inkscape:connector-curvature="0" /><path
         d="m 3400.6229,4042.5047 520,0 0,1276 -520,0 0,-1276 z"
         style="fill:none;stroke:#000000;stroke-width:6.25;stroke-linecap:round;stroke-linejoin:miter;stroke-miterlimit:8;stroke-opacity:1;stroke-dasharray:none"
         id="path3316"
         inkscape:connector-curvature="0" /><g
         id="g3318"
         transform="matrix(8.33333,0,0,8.33333,1323.6229,-882.41525)"><text
           transform="matrix(0,1,0.99946029,0,289.8,621.951)"
           id="text3320"><tspan
             style="font-size:24.01296043px;font-variant:normal;font-weight:normal;writing-mode:lr-tb;fill:#000000;fill-opacity:1;fill-rule:nonzero;stroke:none;font-family:Verdana;-inkscape-font-specification:Verdana"
             x="0 12.480049 26.767105 36.972885 51.137699 65.424759 75.630539"
             y="0"
             sodipodi:role="line"
             id="tspan3322">server1</tspan></text>
</g><path
         d="m 4345.6229,4042.5047 520,0 0,1276 -520,0 0,-1276 z"
         style="fill:#ccffcc;fill-opacity:1;fill-rule:evenodd;stroke:none"
         id="path3324"
         inkscape:connector-curvature="0" /><path
         d="m 4345.6229,4042.5047 519,0 0,1276 -519,0 0,-1276 z"
         style="fill:none;stroke:#000000;stroke-width:6.25;stroke-linecap:round;stroke-linejoin:miter;stroke-miterlimit:8;stroke-opacity:1;stroke-dasharray:none"
         id="path3326"
         inkscape:connector-curvature="0" /><g
         id="g3328"
         transform="matrix(8.33333,0,0,8.33333,1323.6229,-882.41525)"><text
           transform="matrix(0,1,0.99946029,0,403.2,621.951)"
           id="text3330"><tspan
             style="font-size:24.01296043px;font-variant:normal;font-weight:normal;writing-mode:lr-tb;fill:#000000;fill-opacity:1;fill-rule:nonzero;stroke:none;font-family:Verdana;-inkscape-font-specification:Verdana"
             x="0 12.480049 26.767105 36.972885 51.137699 65.424759 75.630539"
             y="0"
             sodipodi:role="line"
             id="tspan3332">server2</tspan></text>
</g><path
         d="m 3825.6229,2057.5047 c 0,-52 42,-95 95,-95 52,0 94,43 94,95 0,53 -42,95 -94,95 -53,0 -95,-42 -95,-95"
         style="fill:#ccffcc;fill-opacity:1;fill-rule:evenodd;stroke:none"
         id="path3334"
         inkscape:connector-curvature="0" /><path
         d="m 3825.6229,2057.5047 c 0,-52 42,-95 95,-95 52,0 94,43 94,95 0,53 -42,95 -94,95 -53,0 -95,-42 -95,-95 z"
         style="fill:none;stroke:#000000;stroke-width:6.25;stroke-linecap:round;stroke-linejoin:round;stroke-miterlimit:10;stroke-opacity:1;stroke-dasharray:none"
         id="path3336"
         inkscape:connector-curvature="0" /><path
         d="m 3612.6229,2057.5047 1040,0 0,1276 -1040,0 0,-1276 z"
         style="fill:#ccffcc;fill-opacity:1;fill-rule:evenodd;stroke:none"
         id="path3338"
         inkscape:connector-curvature="0" /><path
         d="m 3612.6229,2057.5047 1040,0 0,1276 -1040,0 0,-1276 z"
         style="fill:none;stroke:#000000;stroke-width:6.25;stroke-linecap:round;stroke-linejoin:miter;stroke-miterlimit:8;stroke-opacity:1;stroke-dasharray:none"
         id="path3340"
         inkscape:connector-curvature="0" /><g
         id="g3342"
         transform="matrix(8.33333,0,0,8.33333,1323.6229,-882.41525)"><text
           transform="matrix(0,1,0.99946029,0,346.56,378.591)"
           id="text3344"><tspan
             style="font-size:24.01296043px;font-variant:normal;font-weight:normal;writing-mode:lr-tb;fill:#000000;fill-opacity:1;fill-rule:nonzero;stroke:none;font-family:Verdana;-inkscape-font-specification:Verdana"
             x="0 17.998783 34.448463 49.203327 57.613789 72.612595 87.254112"
             y="0"
             sodipodi:role="line"
             id="tspan3346">NAT box</tspan></text>
</g><path
         d="m 3947.6229,1444.5047 -69,501 17,2 68,-501 -16,-2 z m -99,425 36,94 61,-81 c 2,-3 2,-9 -2,-11 -4,-3 -9,-2 -12,1 l -51,69 14,2 -31,-80 c -1,-4 -6,-6 -11,-5 -4,2 -6,7 -4,11"
         style="fill:#000000;fill-opacity:1;fill-rule:nonzero;stroke:none"
         id="path3348"
         inkscape:connector-curvature="0" /><path
         d="m 3748.6229,3424.5047 -277,503 15,8 276,-503 -14,-8 z m -278,421 0,101 86,-53 c 4,-3 5,-8 2,-12 -2,-4 -7,-5 -11,-3 l -73,46 13,7 0,-86 c 0,-4 -4,-8 -9,-8 -4,0 -8,4 -8,8"
         style="fill:#000000;fill-opacity:1;fill-rule:nonzero;stroke:none"
         id="path3350"
         inkscape:connector-curvature="0" /><path
         d="m 4004.6229,1460.5047 -69,501 17,3 68,-502 -16,-2 z m 47,78 -36,-94 -61,81 c -3,4 -2,9 2,12 3,2 9,2 11,-2 l 52,-69 -15,-2 32,80 c 1,5 6,7 10,5 5,-2 7,-7 5,-11"
         style="fill:#000000;fill-opacity:1;fill-rule:nonzero;stroke:none"
         id="path3352"
         inkscape:connector-curvature="0" /><path
         d="m 3833.6229,3438.5047 -286,505 14,8 287,-504 -15,-9 z m 15,90 1,-100 -86,52 c -4,2 -5,8 -3,12 3,3 8,5 12,2 l 73,-44 -13,-7 -1,85 c 0,5 4,9 9,9 4,0 8,-4 8,-9"
         style="fill:#000000;fill-opacity:1;fill-rule:nonzero;stroke:none"
         id="path3354"
         inkscape:connector-curvature="0" /><path
         d="m 4162.6229,3623.5047 -343,318 12,12 343,-318 -12,-12 z m -13,90 31,-96 -97,24 c -5,1 -8,6 -7,10 2,5 6,8 11,7 l 83,-21 -10,-11 -27,82 c -1,4 1,9 6,10 4,2 9,0 10,-5"
         style="fill:#000000;fill-opacity:1;fill-rule:nonzero;stroke:none"
         id="path3356"
         inkscape:connector-curvature="0" /><g
         id="g3358"
         transform="scale(8.33333,8.33333)"><text
           transform="matrix(0,1,0.99944031,0,184.92,104.151)"
           id="text3360"><tspan
             style="font-size:20.05122185px;font-variant:normal;font-weight:normal;writing-mode:lr-tb;fill:#ff0000;fill-opacity:1;fill-rule:nonzero;stroke:none;font-family:Wingdings;-inkscape-font-specification:Wingdings"
             x="0"
             y="0"
             id="tspan3362"></tspan></text>
</g><g
         id="g3422"
         transform="scale(8.33333,8.33333)"><text
           transform="matrix(0,1,0.99944031,0,456.48,104.151)"
           id="text3424"><tspan
             style="font-size:20.05122185px;font-variant:normal;font-weight:normal;writing-mode:lr-tb;fill:#ff0000;fill-opacity:1;fill-rule:nonzero;stroke:none;font-family:Wingdings;-inkscape-font-specification:Wingdings"
             x="0"
             y="0"
             id="tspan3426"></tspan></text>
</g><path
         d="m 3985.6229,3437.5047 -398,537 13,10 399,-538 -14,-9 z m 4,91 13,-100 -92,41 c -4,2 -6,7 -4,11 2,5 7,6 11,5 l 78,-36 -11,-9 -11,85 c -1,5 2,9 7,10 4,0 9,-3 9,-7"
         style="fill:#000000;fill-opacity:1;fill-rule:nonzero;stroke:none"
         id="path3488"
         inkscape:connector-curvature="0" /><path
         d="m 4270.6229,3536.5047 -217,219"
         style="fill:none;stroke:#ff0000;stroke-width:66.66670227;stroke-linecap:butt;stroke-linejoin:round;stroke-miterlimit:10;stroke-opacity:1;stroke-dasharray:none"
         id="path3490"
         inkscape:connector-curvature="0" /><path
         d="m 4003.6229,3647.5047 c 0,-88 71,-160 159,-160 88,0 160,72 160,160 0,88 -72,159 -160,159 -88,0 -159,-71 -159,-159 z"
         style="fill:none;stroke:#ff0000;stroke-width:66.66670227;stroke-linecap:round;stroke-linejoin:round;stroke-miterlimit:10;stroke-opacity:1;stroke-dasharray:none"
         id="path3492"
         inkscape:connector-curvature="0" /><path
         d="m 4502.6229,3446.5047 0,501 17,0 0,-501 -17,0 z m 57,71 -49,-88 -49,88 c -2,4 0,9 4,11 4,2 9,1 11,-3 l 42,-75 -15,0 42,75 c 2,4 7,5 11,3 4,-2 5,-7 3,-11"
         style="fill:#000000;fill-opacity:1;fill-rule:nonzero;stroke:none"
         id="path3494"
         inkscape:connector-curvature="0" /><path
         d="m 4611.6229,3382.5047 -216,219"
         style="fill:none;stroke:#ff0000;stroke-width:66.66670227;stroke-linecap:butt;stroke-linejoin:round;stroke-miterlimit:10;stroke-opacity:1;stroke-dasharray:none"
         id="path3496"
         inkscape:connector-curvature="0" /><path
         d="m 4345.6229,3493.5047 c 0,-88 71,-160 159,-160 88,0 159,72 159,160 0,88 -71,159 -159,159 -88,0 -159,-71 -159,-159 z"
         style="fill:none;stroke:#ff0000;stroke-width:66.66670227;stroke-linecap:round;stroke-linejoin:round;stroke-miterlimit:10;stroke-opacity:1;stroke-dasharray:none"
         id="path3498"
         inkscape:connector-curvature="0" /></g></g></svg>