<?xml version="1.0" encoding="UTF-8" standalone="no"?>
<!-- Created with Inkscape (http://www.inkscape.org/) -->

<svg
   xmlns:dc="http://purl.org/dc/elements/1.1/"
   xmlns:cc="http://creativecommons.org/ns#"
   xmlns:rdf="http://www.w3.org/1999/02/22-rdf-syntax-ns#"
   xmlns:svg="http://www.w3.org/2000/svg"
   xmlns="http://www.w3.org/2000/svg"
   xmlns:sodipodi="http://sodipodi.sourceforge.net/DTD/sodipodi-0.dtd"
   xmlns:inkscape="http://www.inkscape.org/namespaces/inkscape"
   id="svg3616"
   version="1.1"
   inkscape:version="0.48.3.1 r9886"
   width="802.5"
   height="236.75"
   xml:space="preserve"
   sodipodi:docname="netkit-lab_nat.pdf"><metadata
     id="metadata3622"><rdf:RDF><cc:Work
         rdf:about=""><dc:format>image/svg+xml</dc:format><dc:type
           rdf:resource="http://purl.org/dc/dcmitype/StillImage" /><dc:title></dc:title></cc:Work></rdf:RDF></metadata><defs
     id="defs3620" /><sodipodi:namedview
     pagecolor="#ffffff"
     bordercolor="#666666"
     borderopacity="1"
     objecttolerance="10"
     gridtolerance="10"
     guidetolerance="10"
     inkscape:pageopacity="0"
     inkscape:pageshadow="2"
     inkscape:window-width="1366"
     inkscape:window-height="692"
     id="namedview3618"
     showgrid="false"
     inkscape:zoom="0.31731092"
     inkscape:cx="526.25"
     inkscape:cy="371.875"
     inkscape:window-x="0"
     inkscape:window-y="24"
     inkscape:window-maximized="1"
     inkscape:current-layer="g3626" /><g
     id="g3624"
     inkscape:groupmode="layer"
     inkscape:label="netkit-lab_nat"
     transform="matrix(0,1.25,1.25,0,0,-507)"><g
       id="g3626"
       transform="scale(0.12,0.12)"><path
         d="m 3487.6525,4042.5047 c 0,-53 42,-95 95,-95 52,0 94,42 94,95 0,52 -42,94 -94,94 -53,0 -95,-42 -95,-94"
         style="fill:#ccffcc;fill-opacity:1;fill-rule:evenodd;stroke:none"
         id="path3642"
         inkscape:connector-curvature="0" /><path
         d="m 3487.6525,4042.5047 c 0,-53 42,-95 95,-95 52,0 94,42 94,95 0,52 -42,94 -94,94 -53,0 -95,-42 -95,-94 z"
         style="fill:none;stroke:#000000;stroke-width:6.25;stroke-linecap:round;stroke-linejoin:round;stroke-miterlimit:10;stroke-opacity:1;stroke-dasharray:none"
         id="path3644"
         inkscape:connector-curvature="0" /><path
         d="m 3487.6525,3333.5047 c 0,-52 42,-94 95,-94 52,0 94,42 94,94 0,53 -42,95 -94,95 -53,0 -95,-42 -95,-95"
         style="fill:#ccffcc;fill-opacity:1;fill-rule:evenodd;stroke:none"
         id="path3646"
         inkscape:connector-curvature="0" /><path
         d="m 3487.6525,3333.5047 c 0,-52 42,-94 95,-94 52,0 94,42 94,94 0,53 -42,95 -94,95 -53,0 -95,-42 -95,-95 z"
         style="fill:none;stroke:#000000;stroke-width:6.25;stroke-linecap:round;stroke-linejoin:round;stroke-miterlimit:10;stroke-opacity:1;stroke-dasharray:none"
         id="path3648"
         inkscape:connector-curvature="0" /><path
         d="m 3961.6525,1350.5047 c 0,-52 42,-95 95,-95 52,0 94,43 94,95 0,52 -42,95 -94,95 -53,0 -95,-43 -95,-95"
         style="fill:#ccffcc;fill-opacity:1;fill-rule:evenodd;stroke:none"
         id="path3650"
         inkscape:connector-curvature="0" /><path
         d="m 3961.6525,1350.5047 c 0,-52 42,-95 95,-95 52,0 94,43 94,95 0,52 -42,95 -94,95 -53,0 -95,-43 -95,-95 z"
         style="fill:none;stroke:#000000;stroke-width:6.25;stroke-linecap:round;stroke-linejoin:round;stroke-miterlimit:10;stroke-opacity:1;stroke-dasharray:none"
         id="path3652"
         inkscape:connector-curvature="0" /><g
         id="g3654"
         transform="scale(8.33333,8.33333)" /><path
         d="m 3582.6525,2057.5047 c 0,-52 42,-95 94,-95 53,0 95,43 95,95 0,53 -42,95 -95,95 -52,0 -94,-42 -94,-95"
         style="fill:#ccffcc;fill-opacity:1;fill-rule:evenodd;stroke:none"
         id="path3662"
         inkscape:connector-curvature="0" /><path
         d="m 3582.6525,2057.5047 c 0,-52 42,-95 94,-95 53,0 95,43 95,95 0,53 -42,95 -95,95 -52,0 -94,-42 -94,-95 z"
         style="fill:none;stroke:#000000;stroke-width:6.25;stroke-linecap:round;stroke-linejoin:round;stroke-miterlimit:10;stroke-opacity:1;stroke-dasharray:none"
         id="path3664"
         inkscape:connector-curvature="0" /><path
         d="m 3972.6525,1440.5047 -333,504 14,9 332,-504 -13,-9 z m -328,422 -7,101 89,-47 c 4,-2 6,-7 4,-11 -3,-4 -8,-6 -12,-3 l -76,39 12,8 7,-85 c 0,-5 -3,-9 -8,-9 -4,-1 -8,3 -9,7"
         style="fill:#000000;fill-opacity:1;fill-rule:nonzero;stroke:none"
         id="path3666"
         inkscape:connector-curvature="0" /><path
         d="m 3534.6525,3429.5047 0,501 16,0 0,-501 -16,0 z m -41,430 49,88 49,-88 c 2,-4 1,-9 -3,-11 -4,-2 -9,-1 -12,3 l -41,75 14,0 -41,-75 c -3,-4 -8,-5 -12,-3 -4,2 -5,7 -3,11"
         style="fill:#000000;fill-opacity:1;fill-rule:nonzero;stroke:none"
         id="path3668"
         inkscape:connector-curvature="0" /><path
         d="m 4570.6525,4042.5047 c 0,-53 43,-95 95,-95 52,0 95,42 95,95 0,52 -43,94 -95,94 -52,0 -95,-42 -95,-94"
         style="fill:#ccffcc;fill-opacity:1;fill-rule:evenodd;stroke:none"
         id="path3670"
         inkscape:connector-curvature="0" /><path
         d="m 4570.6525,4042.5047 c 0,-53 43,-95 95,-95 52,0 95,42 95,95 0,52 -43,94 -95,94 -52,0 -95,-42 -95,-94 z"
         style="fill:none;stroke:#000000;stroke-width:6.25;stroke-linecap:round;stroke-linejoin:round;stroke-miterlimit:10;stroke-opacity:1;stroke-dasharray:none"
         id="path3672"
         inkscape:connector-curvature="0" /><path
         d="m 4570.6525,3333.5047 c 0,-52 43,-94 95,-94 52,0 95,42 95,94 0,53 -43,95 -95,95 -52,0 -95,-42 -95,-95"
         style="fill:#ccffcc;fill-opacity:1;fill-rule:evenodd;stroke:none"
         id="path3674"
         inkscape:connector-curvature="0" /><path
         d="m 4570.6525,3333.5047 c 0,-52 43,-94 95,-94 52,0 95,42 95,94 0,53 -43,95 -95,95 -52,0 -95,-42 -95,-95 z"
         style="fill:none;stroke:#000000;stroke-width:6.25;stroke-linecap:round;stroke-linejoin:round;stroke-miterlimit:10;stroke-opacity:1;stroke-dasharray:none"
         id="path3676"
         inkscape:connector-curvature="0" /><path
         d="m 4220.6525,1350.5047 c 0,-52 43,-95 95,-95 52,0 95,43 95,95 0,52 -43,95 -95,95 -52,0 -95,-43 -95,-95"
         style="fill:#ccffcc;fill-opacity:1;fill-rule:evenodd;stroke:none"
         id="path3678"
         inkscape:connector-curvature="0" /><path
         d="m 4220.6525,1350.5047 c 0,-52 43,-95 95,-95 52,0 95,43 95,95 0,52 -43,95 -95,95 -52,0 -95,-43 -95,-95 z"
         style="fill:none;stroke:#000000;stroke-width:6.25;stroke-linecap:round;stroke-linejoin:round;stroke-miterlimit:10;stroke-opacity:1;stroke-dasharray:none"
         id="path3680"
         inkscape:connector-curvature="0" /><path
         d="m 4599.6525,2057.5047 c 0,-52 43,-95 95,-95 52,0 95,43 95,95 0,53 -43,95 -95,95 -52,0 -95,-42 -95,-95"
         style="fill:#ccffcc;fill-opacity:1;fill-rule:evenodd;stroke:none"
         id="path3682"
         inkscape:connector-curvature="0" /><path
         d="m 4599.6525,2057.5047 c 0,-52 43,-95 95,-95 52,0 95,43 95,95 0,53 -43,95 -95,95 -52,0 -95,-42 -95,-95 z"
         style="fill:none;stroke:#000000;stroke-width:6.25;stroke-linecap:round;stroke-linejoin:round;stroke-miterlimit:10;stroke-opacity:1;stroke-dasharray:none"
         id="path3684"
         inkscape:connector-curvature="0" /><path
         d="m 4354.6525,1449.5047 332,504 14,-9 -332,-504 -14,9 z m 259,467 90,47 -8,-101 c 0,-4 -4,-8 -9,-7 -4,0 -8,4 -8,9 l 7,85 12,-8 -76,-39 c -4,-3 -9,-1 -11,3 -2,4 -1,9 3,11"
         style="fill:#000000;fill-opacity:1;fill-rule:nonzero;stroke:none"
         id="path3686"
         inkscape:connector-curvature="0" /><path
         d="m 4694.6525,3429.5047 0,501 17,0 0,-501 -17,0 z m -40,430 48,88 49,-88 c 3,-4 1,-9 -3,-11 -4,-2 -9,-1 -11,3 l -42,75 15,0 -42,-75 c -2,-4 -7,-5 -11,-3 -4,2 -6,7 -3,11"
         style="fill:#000000;fill-opacity:1;fill-rule:nonzero;stroke:none"
         id="path3688"
         inkscape:connector-curvature="0" /><path
         d="m 4408.6525,4042.5047 520,0 0,1276 -520,0 0,-1276 z"
         style="fill:#ccffcc;fill-opacity:1;fill-rule:evenodd;stroke:none"
         id="path3690"
         inkscape:connector-curvature="0" /><path
         d="m 4408.6525,4042.5047 519,0 0,1276 -519,0 0,-1276 z"
         style="fill:none;stroke:#000000;stroke-width:6.25;stroke-linecap:round;stroke-linejoin:miter;stroke-miterlimit:8;stroke-opacity:1;stroke-dasharray:none"
         id="path3692"
         inkscape:connector-curvature="0" /><g
         id="g3694"
         transform="matrix(8.33333,0,0,8.33333,1386.6525,-882.41525)"><text
           transform="matrix(0,1,0.99946029,0,403.2,621.951)"
           id="text3696"><tspan
             style="font-size:24.01296043px;font-variant:normal;font-weight:normal;writing-mode:lr-tb;fill:#000000;fill-opacity:1;fill-rule:nonzero;stroke:none;font-family:Verdana;-inkscape-font-specification:Verdana"
             x="0 12.480049 26.767105 36.972885 51.137699 65.424759 75.630539"
             y="0"
             sodipodi:role="line"
             id="tspan3698">server2</tspan></text>
</g><path
         d="m 3936.6525,74.506746 520,0 0,1275.999954 -520,0 0,-1275.999954 z"
         style="fill:#ccffcc;fill-opacity:1;fill-rule:evenodd;stroke:none"
         id="path3700"
         inkscape:connector-curvature="0" /><path
         d="m 3936.6525,74.506746 520,0 0,1275.999954 -520,0 0,-1275.999954 z"
         style="fill:none;stroke:#000000;stroke-width:6.25;stroke-linecap:round;stroke-linejoin:miter;stroke-miterlimit:8;stroke-opacity:1;stroke-dasharray:none"
         id="path3702"
         inkscape:connector-curvature="0" /><g
         id="g3704"
         transform="matrix(8.33333,0,0,8.33333,1386.6525,-882.41525)"><text
           transform="matrix(0,1,0.99946029,0,346.56,157.791)"
           id="text3706"><tspan
             style="font-size:24.01296043px;font-variant:normal;font-weight:normal;writing-mode:lr-tb;fill:#000000;fill-opacity:1;fill-rule:nonzero;stroke:none;font-family:Verdana;-inkscape-font-specification:Verdana"
             x="0 15.244427 29.765949 42.245983 51.724903"
             y="0"
             sodipodi:role="line"
             id="tspan3708">host1</tspan></text>
</g><path
         d="m 4289.6525,1463.5047 333,504 13,-9 -332,-504 -14,9 z m 87,28 -89,-47 7,101 c 1,4 5,8 9,8 5,-1 8,-5 8,-9 l -7,-86 -12,8 76,40 c 4,2 9,0 12,-4 2,-4 0,-9 -4,-11"
         style="fill:#000000;fill-opacity:1;fill-rule:nonzero;stroke:none"
         id="path3710"
         inkscape:connector-curvature="0" /><path
         d="m 4620.6525,3446.5047 0,501 17,0 0,-501 -17,0 z m 57,71 -48,-88 -49,88 c -3,4 -1,9 3,11 4,2 9,1 11,-3 l 42,-75 -15,0 42,75 c 2,4 7,5 11,3 4,-2 6,-7 3,-11"
         style="fill:#000000;fill-opacity:1;fill-rule:nonzero;stroke:none"
         id="path3712"
         inkscape:connector-curvature="0" /><path
         d="m 4043.6525,1454.5047 -333,504 14,9 332,-504 -13,-9 z m 8,91 8,-101 -89,47 c -4,2 -6,7 -4,11 2,4 7,6 11,4 l 76,-40 -12,-8 -6,86 c -1,4 3,8 7,9 5,0 9,-4 9,-8"
         style="fill:#000000;fill-opacity:1;fill-rule:nonzero;stroke:none"
         id="path3714"
         inkscape:connector-curvature="0" /><path
         d="m 3614.6525,3446.5047 0,501 17,0 0,-501 -17,0 z m 57,71 -49,-88 -49,88 c -2,4 0,9 4,11 4,2 9,1 11,-3 l 42,-75 -15,0 42,75 c 2,4 7,5 11,3 4,-2 5,-7 3,-11"
         style="fill:#000000;fill-opacity:1;fill-rule:nonzero;stroke:none"
         id="path3716"
         inkscape:connector-curvature="0" /><path
         d="m 3746.6525,4042.5047 c 0,-53 43,-95 95,-95 52,0 95,42 95,95 0,52 -43,94 -95,94 -52,0 -95,-42 -95,-94"
         style="fill:#ccffcc;fill-opacity:1;fill-rule:evenodd;stroke:none"
         id="path3718"
         inkscape:connector-curvature="0" /><path
         d="m 3746.6525,4042.5047 c 0,-53 43,-95 95,-95 52,0 95,42 95,95 0,52 -43,94 -95,94 -52,0 -95,-42 -95,-94 z"
         style="fill:none;stroke:#000000;stroke-width:6.25;stroke-linecap:round;stroke-linejoin:round;stroke-miterlimit:10;stroke-opacity:1;stroke-dasharray:none"
         id="path3720"
         inkscape:connector-curvature="0" /><path
         d="m 3896.6525,3533.5047 -265,436 14,8 265,-436 -14,-8 z m 12,90 4,-101 -88,50 c -4,3 -5,8 -3,12 3,4 8,5 12,3 l 74,-43 -12,-7 -4,86 c 0,4 4,8 8,8 5,0 9,-3 9,-8"
         style="fill:#000000;fill-opacity:1;fill-rule:nonzero;stroke:none"
         id="path3722"
         inkscape:connector-curvature="0" /><path
         d="m 3463.6525,4042.5047 520,0 0,1276 -520,0 0,-1276 z"
         style="fill:#ccffcc;fill-opacity:1;fill-rule:evenodd;stroke:none"
         id="path3724"
         inkscape:connector-curvature="0" /><path
         d="m 3463.6525,4042.5047 520,0 0,1276 -520,0 0,-1276 z"
         style="fill:none;stroke:#000000;stroke-width:6.25;stroke-linecap:round;stroke-linejoin:miter;stroke-miterlimit:8;stroke-opacity:1;stroke-dasharray:none"
         id="path3726"
         inkscape:connector-curvature="0" /><g
         id="g3728"
         transform="matrix(8.33333,0,0,8.33333,1386.6525,-882.41525)"><text
           transform="matrix(0,1,0.99946029,0,289.8,621.951)"
           id="text3730"><tspan
             style="font-size:24.01296043px;font-variant:normal;font-weight:normal;writing-mode:lr-tb;fill:#000000;fill-opacity:1;fill-rule:nonzero;stroke:none;font-family:Verdana;-inkscape-font-specification:Verdana"
             x="0 12.480049 26.767105 36.972885 51.137699 65.424759 75.630539"
             y="0"
             sodipodi:role="line"
             id="tspan3732">server1</tspan></text>
</g><path
         d="m 4367.6525,3475.5047 -471,466 11,12 472,-467 -12,-11 z m -10,90 28,-97 -97,28 c -4,1 -7,5 -6,10 2,4 6,7 11,6 l 82,-24 -10,-10 -24,82 c -1,5 1,10 6,11 4,1 9,-1 10,-6"
         style="fill:#000000;fill-opacity:1;fill-rule:nonzero;stroke:none"
         id="path3734"
         inkscape:connector-curvature="0" /><g
         id="g3736"
         transform="scale(8.33333,8.33333)"><text
           transform="matrix(0,1,0.9994503,0,180.84,104.151)"
           id="text3738"><tspan
             style="font-size:17.04937172px;font-variant:normal;font-weight:normal;writing-mode:lr-tb;fill:#ff0000;fill-opacity:1;fill-rule:nonzero;stroke:none;font-family:Wingdings;-inkscape-font-specification:Wingdings"
             x="0"
             y="0"
             id="tspan3740"></tspan></text>
</g><g
         id="g3828"
         transform="scale(8.33333,8.33333)"><text
           transform="matrix(0,1,0.9994503,0,455.16,104.151)"
           id="text3830"><tspan
             style="font-size:17.04937172px;font-variant:normal;font-weight:normal;writing-mode:lr-tb;fill:#ff0000;fill-opacity:1;fill-rule:nonzero;stroke:none;font-family:Wingdings;-inkscape-font-specification:Wingdings"
             x="0"
             y="0"
             id="tspan3832"></tspan></text>
</g><g
         id="g3892"
         transform="scale(8.33333,8.33333)" /><path
         d="m 4437.6525,3420.5047 -217,219"
         style="fill:none;stroke:#ff0000;stroke-width:66.66670227;stroke-linecap:butt;stroke-linejoin:round;stroke-miterlimit:10;stroke-opacity:1;stroke-dasharray:none"
         id="path3922"
         inkscape:connector-curvature="0" /><path
         d="m 4170.6525,3530.5047 c 0,-88 72,-159 160,-159 88,0 159,71 159,159 0,88 -71,160 -159,160 -88,0 -160,-72 -160,-160 z"
         style="fill:none;stroke:#ff0000;stroke-width:66.66670227;stroke-linecap:round;stroke-linejoin:round;stroke-miterlimit:10;stroke-opacity:1;stroke-dasharray:none"
         id="path3924"
         inkscape:connector-curvature="0" /><path
         d="m 3449.6525,2058.5047 2,1272 514,0 194,-705 235,708 520,0 0,-1275 -1418,0"
         style="fill:#ccffcc;fill-opacity:1;fill-rule:evenodd;stroke:none"
         id="path3926"
         inkscape:connector-curvature="0" /><path
         d="m 3449.6525,2058.5047 2,1272 514,0 194,-705 235,708 520,0 0,-1275 -1418,0"
         style="fill:none;stroke:#000000;stroke-width:6.25;stroke-linecap:round;stroke-linejoin:round;stroke-miterlimit:10;stroke-opacity:1;stroke-dasharray:none"
         id="path3928"
         inkscape:connector-curvature="0" /><path
         d="m 3637.6525,2451.5047 300,0 0,491 -300,0 0,-491 z"
         style="fill:#ccffcc;fill-opacity:1;fill-rule:evenodd;stroke:none"
         id="path3930"
         inkscape:connector-curvature="0" /><g
         id="g3932"
         transform="matrix(8.33333,0,0,8.33333,1386.6525,-882.41525)"><text
           transform="matrix(0,1,0.99946029,0,297.48,407.271)"
           id="text3934"><tspan
             style="font-size:24.01296043px;font-variant:normal;font-weight:normal;writing-mode:lr-tb;fill:#000000;fill-opacity:1;fill-rule:nonzero;stroke:none;font-family:Tahoma;-inkscape-font-specification:Tahoma"
             x="0 15.936665 30.345964"
             y="0"
             sodipodi:role="line"
             id="tspan3936">NAT</tspan></text>
</g><path
         d="m 4480.6525,2477.5047 300,0 0,439 -300,0 0,-439 z"
         style="fill:#ccffcc;fill-opacity:1;fill-rule:evenodd;stroke:none"
         id="path3938"
         inkscape:connector-curvature="0" /><g
         id="g3940"
         transform="matrix(8.33333,0,0,8.33333,1386.6525,-882.41525)"><text
           transform="matrix(0,1,0.99946029,0,398.52,410.511)"
           id="text3942"><tspan
             style="font-size:24.01296043px;font-variant:normal;font-weight:normal;writing-mode:lr-tb;fill:#000000;fill-opacity:1;fill-rule:nonzero;stroke:none;font-family:Tahoma;-inkscape-font-specification:Tahoma"
             x="0 13.326305 26.407001"
             y="0"
             sodipodi:role="line"
             id="tspan3944">box</tspan></text>
</g><path
         d="m 3990.6525,3442.5047 -217,218"
         style="fill:none;stroke:#ff0000;stroke-width:66.66670227;stroke-linecap:butt;stroke-linejoin:round;stroke-miterlimit:10;stroke-opacity:1;stroke-dasharray:none"
         id="path3946"
         inkscape:connector-curvature="0" /><path
         d="m 3723.6525,3552.5047 c 0,-88 72,-159 160,-159 88,0 159,71 159,159 0,88 -71,159 -159,159 -88,0 -160,-71 -160,-159 z"
         style="fill:none;stroke:#ff0000;stroke-width:66.66670227;stroke-linecap:round;stroke-linejoin:round;stroke-miterlimit:10;stroke-opacity:1;stroke-dasharray:none"
         id="path3948"
         inkscape:connector-curvature="0" /></g></g></svg>