<?xml version="1.0" encoding="UTF-8" standalone="no"?>
<!DOCTYPE svg PUBLIC "-//W3C//DTD SVG 20010904//EN" "http://www.w3.org/TR/2001/REC-SVG-20010904/DTD/svg10.dtd">
<svg xmlns="http://www.w3.org/2000/svg" width="363" height="258" xmlns:xlink="http://www.w3.org/1999/xlink"><source><![CDATA[Station->Access Point: Authentication Request (1)
Access Point->Station: Challange Text (2)
Station->Access Point: Challange Response (Encrypted challange text) (3)
Access Point->Station: Confirm Success (3)]]></source><desc>Created with Raphaël 2.1.0</desc><defs><path id="raphael-marker-block" d="M5,0 0,2.5 5,5z" stroke-linecap="round"/><marker refY="2.5" refX="2.5" orient="auto" markerWidth="5" markerHeight="5" id="raphael-marker-endblock55"><use stroke="none" fill="#000" stroke-width="1.0000" transform="rotate(180 2.5 2.5) scale(1,1)" xlink:href="#raphael-marker-block"/></marker></defs><rect stroke-width="2" style="" stroke="#000000" fill="none" ry="0" rx="0" r="0" height="33" width="53" y="20" x="10"/><rect style="" stroke="none" fill="#ffffff" ry="0" rx="0" r="0" height="13" width="33" y="30" x="20"/><text fill="#000000" stroke="none" font="10px &quot;Arial&quot;" text-anchor="middle" y="36.5" x="36.5" style="text-anchor: middle; font: 10px &quot;Arial&quot;;"><tspan dy="3.5">Station</tspan></text><rect stroke-width="2" style="" stroke="#000000" fill="none" ry="0" rx="0" r="0" height="33" width="53" y="205" x="10"/><rect style="" stroke="none" fill="#ffffff" ry="0" rx="0" r="0" height="13" width="33" y="215" x="20"/><text fill="#000000" stroke="none" font="10px &quot;Arial&quot;" text-anchor="middle" y="221.5" x="36.5" style="text-anchor: middle; font: 10px &quot;Arial&quot;;"><tspan dy="3.5">Station</tspan></text><path stroke-width="2" d="M36.5,53L36.5,205" stroke="#000000" fill="none" style=""/><rect stroke-width="2" style="" stroke="#000000" fill="none" ry="0" rx="0" r="0" height="33" width="81.015625" y="20" x="252.0078125"/><rect style="" stroke="none" fill="#ffffff" ry="0" rx="0" r="0" height="13" width="61.015625" y="30" x="262.0078125"/><text fill="#000000" stroke="none" font="10px &quot;Arial&quot;" text-anchor="middle" y="36.5" x="293.0078125" style="text-anchor: middle; font: 10px &quot;Arial&quot;;"><tspan dy="3.5">Access Point</tspan></text><rect stroke-width="2" style="" stroke="#000000" fill="none" ry="0" rx="0" r="0" height="33" width="81.015625" y="205" x="252.0078125"/><rect style="" stroke="none" fill="#ffffff" ry="0" rx="0" r="0" height="13" width="61.015625" y="215" x="262.0078125"/><text fill="#000000" stroke="none" font="10px &quot;Arial&quot;" text-anchor="middle" y="221.5" x="293.0078125" style="text-anchor: middle; font: 10px &quot;Arial&quot;;"><tspan dy="3.5">Access Point</tspan></text><path stroke-width="2" d="M292.515625,53L292.515625,205" stroke="#000000" fill="none" style=""/><rect style="" stroke="none" fill="#ffffff" ry="0" rx="0" r="0" height="13" width="125.015625" y="73" x="101.5078125"/><text fill="#000000" stroke="none" font="10px &quot;Arial&quot;" text-anchor="middle" y="79.5" x="164.5078125" style="text-anchor: middle; font: 10px &quot;Arial&quot;;"><tspan dy="3.5">Authentication Request (1)</tspan></text><path stroke-dasharray="0" marker-end="url(#raphael-marker-endblock55)" stroke-width="2" d="M36.5,91C36.5,91,251.777054682374,91,287.5164094636275,91" stroke="#000000" fill="none" style=""/><rect style="" stroke="none" fill="#ffffff" ry="0" rx="0" r="0" height="13" width="84.015625" y="106" x="122.5078125"/><text fill="#000000" stroke="none" font="10px &quot;Arial&quot;" text-anchor="middle" y="112.5" x="164.5078125" style="text-anchor: middle; font: 10px &quot;Arial&quot;;"><tspan dy="3.5">Challange Text (2)</tspan></text><path stroke-dasharray="0" marker-end="url(#raphael-marker-endblock55)" stroke-width="2" d="M292.515625,124C292.515625,124,77.238570317626,124,41.4992155363725,124" stroke="#000000" fill="none" style=""/><rect style="" stroke="none" fill="#ffffff" ry="0" rx="0" r="0" height="13" width="236.015625" y="139" x="46.5078125"/><text fill="#000000" stroke="none" font="10px &quot;Arial&quot;" text-anchor="middle" y="145.5" x="164.5078125" style="text-anchor: middle; font: 10px &quot;Arial&quot;;"><tspan dy="3.5">Challange Response (Encrypted challange text) (3)</tspan></text><path stroke-dasharray="0" marker-end="url(#raphael-marker-endblock55)" stroke-width="2" d="M36.5,157C36.5,157,251.777054682374,157,287.5164094636275,157" stroke="#000000" fill="none" style=""/><rect style="" stroke="none" fill="#ffffff" ry="0" rx="0" r="0" height="13" width="92.015625" y="172" x="118.5078125"/><text fill="#000000" stroke="none" font="10px &quot;Arial&quot;" text-anchor="middle" y="178.5" x="164.5078125" style="text-anchor: middle; font: 10px &quot;Arial&quot;;"><tspan dy="3.5">Confirm Success (3)</tspan></text><path stroke-dasharray="0" marker-end="url(#raphael-marker-endblock55)" stroke-width="2" d="M292.515625,190C292.515625,190,77.238570317626,190,41.4992155363725,190" stroke="#000000" fill="none" style=""/></svg>