<?xml version="1.0" encoding="UTF-8" standalone="no"?>
<!-- Created with Inkscape (http://www.inkscape.org/) -->

<svg
   xmlns:dc="http://purl.org/dc/elements/1.1/"
   xmlns:cc="http://creativecommons.org/ns#"
   xmlns:rdf="http://www.w3.org/1999/02/22-rdf-syntax-ns#"
   xmlns:svg="http://www.w3.org/2000/svg"
   xmlns="http://www.w3.org/2000/svg"
   xmlns:sodipodi="http://sodipodi.sourceforge.net/DTD/sodipodi-0.dtd"
   xmlns:inkscape="http://www.inkscape.org/namespaces/inkscape"
   width="471.74219"
   height="167.52667"
   id="svg2"
   version="1.1"
   inkscape:version="0.48.4 r9939"
   sodipodi:docname="001.svg">
  <defs
     id="defs4">
    <clipPath
       id="clipPath3005"
       clipPathUnits="userSpaceOnUse">
      <path
         id="path3007"
         d="m 0,841.98 595.2,0 L 595.2,0 0,0 0,841.98 z"
         inkscape:connector-curvature="0" />
    </clipPath>
    <clipPath
       id="clipPath2999"
       clipPathUnits="userSpaceOnUse">
      <path
         id="path3001"
         clip-rule="evenodd"
         d="m 588.84,0.11053 -582.84,0 0,841.86 582.84,0 0,-841.86 z"
         inkscape:connector-curvature="0" />
    </clipPath>
  </defs>
  <sodipodi:namedview
     id="base"
     pagecolor="#ffffff"
     bordercolor="#666666"
     borderopacity="1.0"
     inkscape:pageopacity="0.0"
     inkscape:pageshadow="2"
     inkscape:zoom="1.4"
     inkscape:cx="224.59288"
     inkscape:cy="86.868211"
     inkscape:document-units="px"
     inkscape:current-layer="layer1"
     showgrid="false"
     inkscape:window-width="954"
     inkscape:window-height="1028"
     inkscape:window-x="0"
     inkscape:window-y="0"
     inkscape:window-maximized="0"
     fit-margin-top="10"
     fit-margin-left="10"
     fit-margin-right="10"
     fit-margin-bottom="10">
    <sodipodi:guide
       position="-131.33937,-666.23426"
       orientation="0,744.09448"
       id="guide4121" />
    <sodipodi:guide
       position="612.75511,-666.23426"
       orientation="-1052.3622,0"
       id="guide4123" />
    <sodipodi:guide
       position="612.75511,386.12794"
       orientation="0,-744.09448"
       id="guide4125" />
    <sodipodi:guide
       position="-131.33937,386.12794"
       orientation="1052.3622,0"
       id="guide4127" />
    <sodipodi:guide
       position="-131.33937,-666.23426"
       orientation="0,744.09448"
       id="guide4129" />
    <sodipodi:guide
       position="612.75511,-666.23426"
       orientation="-1052.3622,0"
       id="guide4131" />
    <sodipodi:guide
       position="612.75511,386.12794"
       orientation="0,-744.09448"
       id="guide4133" />
    <sodipodi:guide
       position="-131.33937,386.12794"
       orientation="1052.3622,0"
       id="guide4135" />
  </sodipodi:namedview>
  <metadata
     id="metadata7">
    <rdf:RDF>
      <cc:Work
         rdf:about="">
        <dc:format>image/svg+xml</dc:format>
        <dc:type
           rdf:resource="http://purl.org/dc/dcmitype/StillImage" />
        <dc:title></dc:title>
      </cc:Work>
    </rdf:RDF>
  </metadata>
  <g
     inkscape:label="Layer 1"
     inkscape:groupmode="layer"
     id="layer1"
     transform="translate(-131.33937,-218.60125)">
    <g
       id="g3059"
       transform="matrix(0.63328901,0,0,0.61784462,104.48265,147.19114)">
      <g
         id="g3061"
         transform="translate(486.656,287.878)">
        <path
           inkscape:connector-curvature="0"
           d="m 0,0 0.474,68.401 -209.612,0 0,-134.979 23.112,0"
           style="fill:none;stroke:#000000;stroke-width:3.10800004;stroke-linecap:round;stroke-linejoin:round;stroke-miterlimit:10;stroke-opacity:1;stroke-dasharray:none"
           id="path3063" />
        <g
           id="g3065"
           transform="translate(97.724,53.335)">
          <path
             inkscape:connector-curvature="0"
             d="m 0,0 -112.362,0 0,-59.532"
             style="fill:none;stroke:#000000;stroke-width:3.10800004;stroke-linecap:round;stroke-linejoin:round;stroke-miterlimit:10;stroke-opacity:1;stroke-dasharray:none"
             id="path3067" />
          <g
             id="g3069"
             transform="translate(0,-99.928)">
            <path
               inkscape:connector-curvature="0"
               d="M 0,0 -33.78,0"
               style="fill:none;stroke:#000000;stroke-width:3.10800004;stroke-linecap:round;stroke-linejoin:round;stroke-miterlimit:10;stroke-opacity:1;stroke-dasharray:none"
               id="path3071" />
            <g
               id="g3073"
               transform="translate(-83.086,-39.971)">
              <path
                 inkscape:connector-curvature="0"
                 d="M 0,0 -44.388,0"
                 style="fill:none;stroke:#000000;stroke-width:3.10800004;stroke-linecap:round;stroke-linejoin:round;stroke-miterlimit:10;stroke-opacity:1;stroke-dasharray:none"
                 id="path3075" />
            </g>
          </g>
        </g>
      </g>
    </g>
    <g
       id="g3077"
       transform="matrix(0,0.62553241,0.62553241,0,294.01334,306.40165)">
      <path
         inkscape:connector-curvature="0"
         d="M 0,0 7.02,0.48 3.54,7.2 0.48,0.48"
         style="fill:#000000;fill-opacity:1;fill-rule:nonzero;stroke:none"
         id="path3079" />
    </g>
    <g
       id="g3081"
       transform="matrix(0,0.62553241,0.62553241,0,572.98828,375.27277)">
      <path
         inkscape:connector-curvature="0"
         d="m 0,0 -154.38,0.48 0,-151.98 154.86,0 0,151.98"
         style="fill:#ffffff;fill-opacity:1;fill-rule:nonzero;stroke:none"
         id="path3083" />
    </g>
    <g
       id="g3085"
       transform="matrix(0.63328901,0,0,0.61784462,104.48265,147.19114)">
      <g
         id="g3087"
         transform="translate(739.767,369.156)">
        <path
           inkscape:connector-curvature="0"
           d="m 0,0 0.474,-156.301 -150.112,0 0,156.787 150.112,0"
           style="fill:none;stroke:#000000;stroke-width:1.77600002;stroke-linecap:round;stroke-linejoin:round;stroke-miterlimit:10;stroke-opacity:1;stroke-dasharray:none"
           id="path3089" />
      </g>
    </g>
    <g
       id="g3091"
       transform="matrix(0,0.62553241,0.62553241,0,294.01334,257.00961)">
      <path
         inkscape:connector-curvature="0"
         d="M 0,0 7.02,0.48 3.54,7.2 0.42,0.48"
         style="fill:#000000;fill-opacity:1;fill-rule:nonzero;stroke:none"
         id="path3093" />
    </g>
    <g
       id="g3095"
       transform="matrix(0,0.62553241,0.62553241,0,294.01334,331.09767)">
      <path
         inkscape:connector-curvature="0"
         d="M 0,0 7.02,0.48 3.54,7.2 0.48,0.48"
         style="fill:#000000;fill-opacity:1;fill-rule:nonzero;stroke:none"
         id="path3097" />
    </g>
    <g
       id="g3099"
       transform="matrix(0,0.62553241,0.62553241,0,420.57043,318.74966)">
      <path
         inkscape:connector-curvature="0"
         d="M 0,0 7.02,0.42 3.54,7.2 0.48,0.42"
         style="fill:#000000;fill-opacity:1;fill-rule:nonzero;stroke:none"
         id="path3101" />
    </g>
    <g
       id="g3103"
       transform="matrix(0,0.62553241,0.62553241,0,420.57043,269.62034)">
      <path
         inkscape:connector-curvature="0"
         d="M 0,0 6.6,0.42 3.12,7.2 0,0.42"
         style="fill:#000000;fill-opacity:1;fill-rule:nonzero;stroke:none"
         id="path3105" />
    </g>
    <g
       id="g3107"
       transform="matrix(0,0.62553241,0.62553241,0,473.45357,294.05364)">
      <path
         inkscape:connector-curvature="0"
         d="M 0,0 6.6,0 3.54,6.72 0,0"
         style="fill:#000000;fill-opacity:1;fill-rule:nonzero;stroke:none"
         id="path3109" />
    </g>
    <g
       id="g3111"
       transform="matrix(0,0.62553241,0.62553241,0,473.45357,355.79369)">
      <path
         inkscape:connector-curvature="0"
         d="M 0,0 6.6,0 3.54,6.72 0,0"
         style="fill:#000000;fill-opacity:1;fill-rule:nonzero;stroke:none"
         id="path3113" />
    </g>
    <g
       id="g3115"
       transform="matrix(0,0.62553241,0.62553241,0,294.01334,281.70563)">
      <path
         inkscape:connector-curvature="0"
         d="M 0,0 7.02,0.48 3.54,7.2 0.42,0.48"
         style="fill:#000000;fill-opacity:1;fill-rule:nonzero;stroke:none"
         id="path3117" />
    </g>
    <g
       id="g3119"
       transform="matrix(0,0.62553241,0.62553241,0,393.84831,344.57164)">
      <path
         inkscape:connector-curvature="0"
         d="m 0,0 -154.44,0 0,-151.5 154.86,0 0,151.5"
         style="fill:#ffffff;fill-opacity:1;fill-rule:nonzero;stroke:none"
         id="path3121" />
    </g>
    <g
       id="g3123"
       transform="matrix(0.63328901,0,0,0.61784462,104.48265,147.19114)">
      <g
         id="g3125"
         transform="translate(456.906,319.466)">
        <path
           inkscape:connector-curvature="0"
           d="m 0,0 0,-156.361 -149.638,0 0,156.786 149.638,0"
           style="fill:none;stroke:#000000;stroke-width:1.77600002;stroke-linecap:round;stroke-linejoin:round;stroke-miterlimit:10;stroke-opacity:1;stroke-dasharray:none"
           id="path3127" />
      </g>
    </g>
    <text
       id="text3129"
       x="325.80258"
       y="299.00787"
       style="font-size:7.50638914px">
      <tspan
         style="font-size:8.23269463px;font-variant:normal;font-weight:normal;font-stretch:normal;writing-mode:lr-tb;fill:#000000;fill-opacity:1;fill-rule:nonzero;stroke:none;font-family:Arial;-inkscape-font-specification:ArialMT"
         x="325.80258 331.99356 336.75864 341.26111 343.21143 347.45291 349.70621 354.47128 357.28604"
         y="299.00787"
         sodipodi:role="line"
         id="tspan3131">Registers</tspan>
      <tspan
         style="font-size:8.23269463px;font-variant:normal;font-weight:normal;font-stretch:normal;writing-mode:lr-tb;fill:#000000;fill-opacity:1;fill-rule:nonzero;stroke:none;font-family:Arial;-inkscape-font-specification:ArialMT"
         x="302.72058 308.64236 313.40744 318.21039 319.86023 324.10172 326.61761 331.12009 333.93484 336.18811"
         y="311.35608"
         sodipodi:role="line"
         id="tspan3133">Register #</tspan>
      <tspan
         style="font-size:8.23269463px;font-variant:normal;font-weight:normal;font-stretch:normal;writing-mode:lr-tb;fill:#000000;fill-opacity:1;fill-rule:nonzero;stroke:none;font-family:Arial;-inkscape-font-specification:ArialMT"
         x="302.72058 308.63907 313.40414 315.6673"
         y="261.96402"
         sodipodi:role="line"
         id="tspan3135">Data</tspan>
      <tspan
         style="font-size:8.23269463px;font-variant:normal;font-weight:normal;font-stretch:normal;writing-mode:lr-tb;fill:#000000;fill-opacity:1;fill-rule:nonzero;stroke:none;font-family:Arial;-inkscape-font-specification:ArialMT"
         x="302.72058 308.64236 313.40744 318.21039 319.86023 324.10172 326.61761 331.12009 333.93484 336.18811"
         y="286.65964"
         sodipodi:role="line"
         id="tspan3137">Register #</tspan>
    </text>
    <g
       id="g3139"
       transform="matrix(0.63328901,0,0,0.61784462,104.48265,147.19114)">
      <g
         id="g3141"
         transform="translate(301.934,261.271)">
        <path
           inkscape:connector-curvature="0"
           d="M 0,0 -24.416,0"
           style="fill:none;stroke:#000000;stroke-width:3.10800004;stroke-linecap:round;stroke-linejoin:round;stroke-miterlimit:10;stroke-opacity:1;stroke-dasharray:none"
           id="path3143" />
      </g>
    </g>
    <text
       id="text3145"
       x="515.90186"
       y="325.05502"
       style="font-size:7.50638914px">
      <tspan
         style="font-size:8.23269463px;font-variant:normal;font-weight:normal;font-stretch:normal;writing-mode:lr-tb;fill:#000000;fill-opacity:1;fill-rule:nonzero;stroke:none;font-family:Arial;-inkscape-font-specification:ArialMT"
         x="515.90186 522.0929 526.85797 529.11127"
         y="325.05502"
         sodipodi:role="line"
         id="tspan3147">Data</tspan>
    </text>
    <text
       id="text3149"
       x="508.32043"
       y="334.96347"
       style="font-size:7.50638914px">
      <tspan
         style="font-size:8.23269463px;font-variant:normal;font-weight:normal;font-stretch:normal;writing-mode:lr-tb;fill:#000000;fill-opacity:1;fill-rule:nonzero;stroke:none;font-family:Arial;-inkscape-font-specification:ArialMT"
         x="508.32043 515.36432 520.12775 527.17163 531.67413 534.48889"
         y="334.96347"
         sodipodi:role="line"
         id="tspan3151">memory</tspan>
      <tspan
         style="font-size:8.23269463px;font-variant:normal;font-weight:normal;font-stretch:normal;writing-mode:lr-tb;fill:#000000;fill-opacity:1;fill-rule:nonzero;stroke:none;font-family:Arial;-inkscape-font-specification:ArialMT"
         x="481.86057 487.49005 492.29303 496.75842 499.57318 504.37616 508.57977"
         y="299.008"
         sodipodi:role="line"
         id="tspan3153">Address</tspan>
      <tspan
         style="font-size:8.23269463px;font-variant:normal;font-weight:normal;font-stretch:normal;writing-mode:lr-tb;fill:#000000;fill-opacity:1;fill-rule:nonzero;stroke:none;font-family:Arial;-inkscape-font-specification:ArialMT"
         x="481.86057 488.06061 492.56305 495.10779"
         y="360.74826"
         sodipodi:role="line"
         id="tspan3155">Data</tspan>
    </text>
    <g
       id="g3157"
       transform="matrix(0.63328901,0,0,0.61784462,104.48265,147.19114)">
      <g
         id="g3159"
         transform="translate(277.103,301.242)">
        <path
           inkscape:connector-curvature="0"
           d="M 0,0 24.831,0"
           style="fill:none;stroke:#000000;stroke-width:3.10800004;stroke-linecap:round;stroke-linejoin:round;stroke-miterlimit:10;stroke-opacity:1;stroke-dasharray:none"
           id="path3161" />
      </g>
    </g>
    <text
       id="text3163"
       x="302.72043"
       y="336.05188"
       style="font-size:7.50638914px">
      <tspan
         style="font-size:8.23269463px;font-variant:normal;font-weight:normal;font-stretch:normal;writing-mode:lr-tb;fill:#000000;fill-opacity:1;fill-rule:nonzero;stroke:none;font-family:Arial;-inkscape-font-specification:ArialMT"
         x="302.72043 308.64221 313.40729 318.21027 319.86008 324.10156 326.61749 331.11993 333.93469 336.18799"
         y="336.05188"
         sodipodi:role="line"
         id="tspan3165">Register #</tspan>
    </text>
    <g
       id="g3167"
       transform="matrix(0.63328901,0,0,0.61784462,104.48265,147.19114)">
      <g
         id="g3169"
         transform="translate(301.045,181.328)">
        <path
           inkscape:connector-curvature="0"
           d="m 0,0 -23.527,0 0,-47.99 492.473,0 0,158.123 -29.75,0"
           style="fill:none;stroke:#000000;stroke-width:3.10800004;stroke-linecap:round;stroke-linejoin:round;stroke-miterlimit:10;stroke-opacity:1;stroke-dasharray:none"
           id="path3171" />
      </g>
    </g>
    <g
       id="g3173"
       transform="matrix(0,0.62553241,0.62553241,0,279.97639,310.53016)">
      <path
         inkscape:connector-curvature="0"
         d="M 0,0 0.42,0.84 0,1.32 l 0,0.42 -0.42,0.48 0,0.42 -0.48,0.48 -0.42,0 -0.42,0.42 -2.22,0 -0.42,-0.42 -0.48,0 -0.42,-0.48 -0.42,-0.42 0,-0.48 -0.42,-0.42 0,-2.22 0.42,-0.48 0,-0.42 0.42,-0.48 0.42,0 0.48,-0.42 0.42,0 0.42,-0.48 0.9,0 0.9,0.48 0.42,0 0.42,0.42 0.48,0 0,0.48 0.42,0.42 0,0.48 0.42,0.9 0,0.42"
         style="fill:#000000;fill-opacity:1;fill-rule:nonzero;stroke:none"
         id="path3175" />
    </g>
    <g
       id="g3177"
       transform="matrix(0,0.62553241,0.62553241,0,279.97639,298.18215)">
      <path
         inkscape:connector-curvature="0"
         d="M 0,0 0.42,0.84 0,1.32 l 0,0.42 -0.42,0.48 0,0.42 -0.48,0.48 -0.42,0 -0.42,0.42 -2.22,0 -0.42,-0.42 -0.48,0 -0.42,-0.48 -0.42,-0.42 0,-0.48 -0.48,-0.42 0,-2.22 0.48,-0.48 0,-0.42 0.42,-0.48 0.42,0 0.48,-0.42 0.42,0 0.42,-0.48 0.9,0 0.9,0.48 0.42,0 0.42,0.42 0.48,0 0,0.48 0.42,0.42 0,0.48 0.42,0.9 0,0.42"
         style="fill:#000000;fill-opacity:1;fill-rule:nonzero;stroke:none"
         id="path3179" />
    </g>
    <path
       inkscape:connector-curvature="0"
       d="m 141.89637,274.57456 0,43.3494 15.72588,0 0,-43.3494 -15.72588,0 z"
       style="fill:#ffffff;fill-opacity:1;fill-rule:nonzero;stroke:none"
       id="path3181" />
    <g
       id="g3183"
       transform="matrix(0.63328901,0,0,0.61784462,104.48265,147.19114)">
      <g
         id="g3185"
         transform="translate(83.907,276.336)">
        <path
           inkscape:connector-curvature="0"
           d="M -24.831,0 0,0 l 0,-70.162 -24.831,0 0,70.162 z"
           style="fill:none;stroke:#000000;stroke-width:1.77600002;stroke-linecap:round;stroke-linejoin:round;stroke-miterlimit:10;stroke-opacity:1;stroke-dasharray:none"
           id="path3187" />
      </g>
    </g>
    <text
       id="text3189"
       x="143.54745"
       y="299.00787"
       style="font-size:7.50638914px">
      <tspan
         style="font-size:8.23269463px;font-variant:normal;font-weight:normal;font-stretch:normal;writing-mode:lr-tb;fill:#000000;fill-opacity:1;fill-rule:nonzero;stroke:none;font-family:Arial;-inkscape-font-specification:ArialMT"
         x="143.54745 149.17697"
         y="299.00787"
         sodipodi:role="line"
         id="tspan3191">PC</tspan>
    </text>
    <path
       inkscape:connector-curvature="0"
       d="m 172.25971,247.96441 0,96.60723 95.03089,0 0,-96.60723 -95.03089,0 z"
       style="fill:#ffffff;fill-opacity:1;fill-rule:nonzero;stroke:none"
       id="path3193" />
    <g
       id="g3195"
       transform="matrix(0.63328901,0,0,0.61784462,104.48265,147.19114)">
      <g
         id="g3197"
         transform="translate(257.072,319.466)">
        <path
           inkscape:connector-curvature="0"
           d="M -150.053,0 0,0 l 0,-156.361 -150.053,0 0,156.361 z"
           style="fill:none;stroke:#000000;stroke-width:1.77600002;stroke-linecap:round;stroke-linejoin:round;stroke-miterlimit:10;stroke-opacity:1;stroke-dasharray:none"
           id="path3199" />
      </g>
    </g>
    <text
       id="text3201"
       x="224.5414"
       y="299.00787"
       style="font-size:7.50638914px">
      <tspan
         style="font-size:8.23269463px;font-variant:normal;font-weight:normal;font-stretch:normal;writing-mode:lr-tb;fill:#000000;fill-opacity:1;fill-rule:nonzero;stroke:none;font-family:Arial;-inkscape-font-specification:ArialMT"
         x="224.5414 226.79469 231.59764 235.80125 238.05455 240.86931 245.63438 249.87587 252.12917 254.07948 258.88245"
         y="299.00787"
         sodipodi:role="line"
         id="tspan3203">Instruction</tspan>
    </text>
    <g
       id="g3205"
       transform="matrix(0.63328901,0,0,0.61784462,104.48265,147.19114)">
      <g
         id="g3207"
         transform="translate(83.907,241.285)">
        <path
           inkscape:connector-curvature="0"
           d="M 0,0 18.194,0"
           style="fill:none;stroke:#000000;stroke-width:3.10800004;stroke-linecap:round;stroke-linejoin:round;stroke-miterlimit:10;stroke-opacity:1;stroke-dasharray:none"
           id="path3209" />
      </g>
    </g>
    <g
       id="g3211"
       transform="matrix(0,0.62553241,0.62553241,0,167.45562,294.05364)">
      <path
         inkscape:connector-curvature="0"
         d="M 0,0 7.02,0.48 3.54,7.2 0.42,0.48"
         style="fill:#000000;fill-opacity:1;fill-rule:nonzero;stroke:none"
         id="path3213" />
    </g>
    <g
       id="g3215"
       transform="matrix(0.63328901,0,0,0.61784462,104.48265,147.19114)">
      <g
         id="g3217"
         transform="translate(256.657,241.285)">
        <path
           inkscape:connector-curvature="0"
           d="M 0,0 20.446,0"
           style="fill:none;stroke:#000000;stroke-width:3.10800004;stroke-linecap:round;stroke-linejoin:round;stroke-miterlimit:10;stroke-opacity:1;stroke-dasharray:none"
           id="path3219" />
      </g>
    </g>
    <g
       id="g3221"
       transform="matrix(0.63328901,0,0,0.61784462,104.48265,147.19114)">
      <g
         id="g3223"
         transform="translate(506.627,174.221)">
        <path
           inkscape:connector-curvature="0"
           d="m 0,0 0.474,54.186 13.749,12.878 -13.749,12.878 0,54.186 43.084,-40.882 0,-51.938 L 0.474,0"
           style="fill:none;stroke:#000000;stroke-width:1.77600002;stroke-linecap:round;stroke-linejoin:round;stroke-miterlimit:10;stroke-opacity:1;stroke-dasharray:none"
           id="path3225" />
      </g>
    </g>
    <text
       id="text3227"
       x="432.33417"
       y="289.00787"
       style="font-size:7.50638914px">
      <tspan
         style="font-size:8.23269463px;font-variant:normal;font-weight:normal;font-stretch:normal;writing-mode:lr-tb;fill:#000000;fill-opacity:1;fill-rule:nonzero;stroke:none;font-family:Arial;-inkscape-font-specification:ArialMT"
         x="432.33417 437.92664 442.72958"
         y="289.00787"
         sodipodi:role="line"
         id="tspan3229">ALU</tspan>
    </text>
    <g
       id="g3231"
       transform="matrix(0,0.62553241,0.62553241,0,279.97639,335.22618)">
      <path
         inkscape:connector-curvature="0"
         d="M 0,0 0.42,0.42 0,1.32 l 0,0.42 -0.42,0.48 0,0.42 -0.48,0 -0.42,0.48 -0.42,0 -0.9,0.42 -0.9,0 -0.42,-0.42 -0.42,0 -0.42,-0.48 -0.48,0 -0.42,-0.42 0,-0.48 -0.42,-0.42 0,-2.22 0.42,-0.48 0,-0.42 0.42,-0.48 0.48,-0.42 0.42,0 0.42,-0.48 2.22,0 0.42,0.48 0.42,0 0.48,0.42 0,0.48 0.42,0.42 0,0.48 0.42,0.42 0,0.48"
         style="fill:#000000;fill-opacity:1;fill-rule:nonzero;stroke:none"
         id="path3233" />
    </g>
    <g
       id="g3235"
       transform="matrix(0,0.62553241,0.62553241,0,462.45671,298.18215)">
      <path
         inkscape:connector-curvature="0"
         d="M 0,0 0.42,0.48 0,1.38 0,1.8 l -0.42,0.48 -0.48,0 0,0.42 -0.42,0.48 -0.42,0 -0.9,0.42 -0.9,0 -0.42,-0.42 -0.42,0 -0.9,-0.9 -0.42,0 -0.48,-0.48 0,-3.12 0.9,-0.9 0.42,-0.48 0.48,0 0.42,-0.42 2.22,0 0.42,0.42 0.42,0 0,0.48 0.48,0.42 0.42,0.48 0,0.42 0.42,0.48 0,0.42"
         style="fill:#000000;fill-opacity:1;fill-rule:nonzero;stroke:none"
         id="path3237" />
    </g>
    <g
       id="g3239"
       transform="matrix(0,0.62553241,0.62553241,0,460.20479,234.52798)">
      <path
         inkscape:connector-curvature="0"
         d="M 0,0 0.42,7.2 -6.18,3.6 0.42,0.48"
         style="fill:#000000;fill-opacity:1;fill-rule:nonzero;stroke:none"
         id="path3241" />
    </g>
    <g
       id="g3243"
       transform="matrix(0.63328901,0,0,0.61784462,104.48265,147.19114)">
      <g
         id="g3245"
         transform="translate(565.238,241.285)">
        <path
           inkscape:connector-curvature="0"
           d="M 0,0 0,-101.264"
           style="fill:none;stroke:#000000;stroke-width:3.10800004;stroke-linecap:round;stroke-linejoin:round;stroke-miterlimit:10;stroke-opacity:1;stroke-dasharray:none"
           id="path3247" />
        <g
           id="g3249"
           transform="translate(-64.359,39.971)">
          <path
             inkscape:connector-curvature="0"
             d="M 0,0 -1.363,0 C -15.112,0 -28.861,0 -42.61,0 l -0.889,0"
             style="fill:none;stroke:#000000;stroke-width:3.10800004;stroke-linecap:round;stroke-linejoin:round;stroke-miterlimit:10;stroke-opacity:1;stroke-dasharray:none"
             id="path3251" />
        </g>
      </g>
    </g>
    <g
       id="g3253"
       transform="matrix(0,0.62553241,0.62553241,0,403.41896,322.87817)">
      <path
         inkscape:connector-curvature="0"
         d="M 0,0 0.42,0.42 0,0.9 0,1.32 -0.42,1.8 -0.9,2.22 l 0,0.48 -0.42,0.42 -1.32,0 -0.42,0.48 -0.48,-0.48 -0.84,0 L -4.86,2.7 -5.28,2.22 -5.7,1.8 -6.12,1.32 l 0,-2.7 0.42,-0.42 0.42,-0.48 0.9,-0.9 3.06,0 0.42,0.48 0,0.42 0.9,0.9 0,0.48 0.42,0.42 0,0.48"
         style="fill:#000000;fill-opacity:1;fill-rule:nonzero;stroke:none"
         id="path3255" />
    </g>
    <g
       id="g3257"
       transform="matrix(0,0.62553241,0.62553241,0,410.73769,325.88073)">
      <path
         inkscape:connector-curvature="0"
         d="M 0,0 0.48,6.72 -6.12,3.6 0.48,0"
         style="fill:#000000;fill-opacity:1;fill-rule:nonzero;stroke:none"
         id="path3259" />
    </g>
    <text
       id="text3261"
       x="175.63727"
       y="315.44684"
       style="font-size:7.50638914px">
      <tspan
         style="font-size:8.23269463px;font-variant:normal;font-weight:normal;font-stretch:normal;writing-mode:lr-tb;fill:#000000;fill-opacity:1;fill-rule:nonzero;stroke:none;font-family:Arial;-inkscape-font-specification:ArialMT"
         x="175.63727 177.89056 182.65564 186.86502 189.1183 191.95282 196.75578 200.96515 203.21844 205.13913 209.64159"
         y="315.44684"
         sodipodi:role="line"
         id="tspan3263">Instruction</tspan>
    </text>
    <text
       id="text3265"
       x="181.26707"
       y="325.35529"
       style="font-size:7.50638914px">
      <tspan
         style="font-size:8.23269463px;font-variant:normal;font-weight:normal;font-stretch:normal;writing-mode:lr-tb;fill:#000000;fill-opacity:1;fill-rule:nonzero;stroke:none;font-family:Arial;-inkscape-font-specification:ArialMT"
         x="181.26707 188.31096 193.0744 200.1183 204.58371 207.39847"
         y="325.35529"
         sodipodi:role="line"
         id="tspan3267">memory</tspan>
      <tspan
         style="font-size:8.23269463px;font-variant:normal;font-weight:normal;font-stretch:normal;writing-mode:lr-tb;fill:#000000;fill-opacity:1;fill-rule:nonzero;stroke:none;font-family:Arial;-inkscape-font-specification:ArialMT"
         x="175.90018 181.52969 186.29477 191.09773 193.91249 198.67757 202.88118"
         y="298.7077"
         sodipodi:role="line"
         id="tspan3269">Address</tspan>
    </text>
  </g>
</svg>
