<?xml version="1.0" encoding="UTF-8" standalone="no"?>
<!-- Created with Inkscape (http://www.inkscape.org/) -->

<svg
   xmlns:dc="http://purl.org/dc/elements/1.1/"
   xmlns:cc="http://creativecommons.org/ns#"
   xmlns:rdf="http://www.w3.org/1999/02/22-rdf-syntax-ns#"
   xmlns:svg="http://www.w3.org/2000/svg"
   xmlns="http://www.w3.org/2000/svg"
   xmlns:sodipodi="http://sodipodi.sourceforge.net/DTD/sodipodi-0.dtd"
   xmlns:inkscape="http://www.inkscape.org/namespaces/inkscape"
   width="929.62842"
   height="352.02499"
   id="svg4527"
   version="1.1"
   inkscape:version="0.48.4 r9939"
   sodipodi:docname="New document 11">
  <defs
     id="defs4529">
    <clipPath
       id="clipPath4717"
       clipPathUnits="userSpaceOnUse">
      <path
         id="path4719"
         d="m 180.9,257.931 42.3,0 0,95.58 -42.3,0 0,-95.58 z"
         inkscape:connector-curvature="0" />
    </clipPath>
    <clipPath
       id="clipPath4599"
       clipPathUnits="userSpaceOnUse">
      <path
         id="path4601"
         d="m 403.5,180.951 43.02,0 0,67.74 -43.02,0 0,-67.74 z"
         inkscape:connector-curvature="0" />
    </clipPath>
    <clipPath
       id="clipPath4555"
       clipPathUnits="userSpaceOnUse">
      <path
         id="path4557"
         d="m 0,841.98 595.2,0 L 595.2,0 0,0 0,841.98 z"
         inkscape:connector-curvature="0" />
    </clipPath>
    <clipPath
       id="clipPath4549"
       clipPathUnits="userSpaceOnUse">
      <path
         id="path4551"
         clip-rule="evenodd"
         d="m 588.84,0.11053 -582.84,0 0,841.86 582.84,0 0,-841.86 z"
         inkscape:connector-curvature="0" />
    </clipPath>
  </defs>
  <sodipodi:namedview
     id="base"
     pagecolor="#ffffff"
     bordercolor="#666666"
     borderopacity="1.0"
     inkscape:pageopacity="0.0"
     inkscape:pageshadow="2"
     inkscape:zoom="0.7"
     inkscape:cx="480.46236"
     inkscape:cy="338.30203"
     inkscape:document-units="px"
     inkscape:current-layer="layer1"
     showgrid="false"
     fit-margin-top="10"
     fit-margin-left="10"
     fit-margin-right="10"
     fit-margin-bottom="10"
     inkscape:window-width="954"
     inkscape:window-height="1028"
     inkscape:window-x="0"
     inkscape:window-y="0"
     inkscape:window-maximized="0" />
  <metadata
     id="metadata4532">
    <rdf:RDF>
      <cc:Work
         rdf:about="">
        <dc:format>image/svg+xml</dc:format>
        <dc:type
           rdf:resource="http://purl.org/dc/dcmitype/StillImage" />
        <dc:title></dc:title>
      </cc:Work>
    </rdf:RDF>
  </metadata>
  <g
     inkscape:label="Layer 1"
     inkscape:groupmode="layer"
     id="layer1"
     transform="translate(124.08631,-356.71218)">
    <g
       id="g4579"
       transform="matrix(0,1.25,1.25,0,3.95952,453.56218)">
      <path
         inkscape:connector-curvature="0"
         d="m 0,0 0,-28.14 174.6,0 0,206.1 -192.3,0"
         style="fill:none;stroke:#000000;stroke-width:0.88099998;stroke-linecap:round;stroke-linejoin:round;stroke-miterlimit:10;stroke-opacity:1;stroke-dasharray:none"
         id="path4581" />
    </g>
    <g
       id="g4583"
       transform="matrix(0,1.25,1.25,0,3.80952,459.63718)">
      <path
         inkscape:connector-curvature="0"
         d="M 0,0 -4.8,13.92 -9.66,0"
         style="fill:#000000;fill-opacity:1;fill-rule:evenodd;stroke:none"
         id="path4585" />
    </g>
    <g
       id="g4587"
       transform="matrix(0,1.25,1.25,0,232.40952,431.66218)">
      <path
         inkscape:connector-curvature="0"
         d="M 0,0 -13.86,-4.8 0,-9.6"
         style="fill:#000000;fill-opacity:1;fill-rule:evenodd;stroke:none"
         id="path4589" />
    </g>
    <g
       id="g4591"
       transform="matrix(0,1.25,1.25,0,152.38452,671.88718)">
      <path
         inkscape:connector-curvature="0"
         d="m 0,0 c -11.64,0 -21,-14.94 -21,-33.3 0,-18.42 9.36,-33.3 21,-33.3 11.64,0 21.06,14.88 21.06,33.3 C 21.06,-14.94 11.64,0 0,0"
         style="fill:#ffffff;fill-opacity:1;fill-rule:evenodd;stroke:none"
         id="path4593" />
    </g>
    <g
       id="g4595"
       transform="matrix(0,1.25,1.25,0,-157.72923,140.58718)">
      <g
         id="g4597"
         clip-path="url(#clipPath4599)">
        <g
           id="g4603"
           transform="translate(425.04,248.091)">
          <path
             inkscape:connector-curvature="0"
             d="m 0,0 c -11.64,0 -21,-14.94 -21,-33.3 0,-18.42 9.36,-33.3 21,-33.3 11.64,0 21.06,14.88 21.06,33.3 C 21.06,-14.94 11.64,0 0,0 z"
             style="fill:none;stroke:#000000;stroke-width:0.88099998;stroke-linecap:round;stroke-linejoin:round;stroke-miterlimit:10;stroke-opacity:1;stroke-dasharray:none"
             id="path4605" />
        </g>
      </g>
    </g>
    <text
       id="text4607"
       x="467.00888"
       y="498.86218"
       style="font-size:15px">
      <tspan
         style="font-size:15.34662437px;font-variant:normal;font-weight:bold;font-stretch:normal;writing-mode:lr-tb;fill:#000000;fill-opacity:1;fill-rule:nonzero;stroke:none;font-family:Arial;-inkscape-font-specification:Arial-BoldMT"
         x="467.00888 477.24817 488.33148 492.57178 501.53726 505.77753 514.31335"
         y="498.86218"
         sodipodi:role="line"
         id="tspan4609">PC + 4</tspan>
    </text>
    <text
       id="text4611"
       x="451.40903"
       y="516.3374"
       style="font-size:15px">
      <tspan
         style="font-size:15.34662437px;font-variant:normal;font-weight:normal;font-stretch:normal;writing-mode:lr-tb;fill:#000000;fill-opacity:1;fill-rule:nonzero;stroke:none;font-family:Arial;-inkscape-font-specification:ArialMT"
         x="451.40903 456.54248 460.74438 469.30014 474.43359 487.24036 491.51746 495.71936 504.26743 508.55679 516.25311 524.8089"
         y="516.3374"
         sodipodi:role="line"
         id="tspan4613">(form fetch)</tspan>
    </text>
    <text
       id="text4615"
       x="28.783895"
       y="591.78717"
       style="font-size:15px">
      <tspan
         style="font-size:15.34662437px;font-variant:normal;font-weight:normal;font-stretch:normal;writing-mode:lr-tb;fill:#000000;fill-opacity:1;fill-rule:nonzero;stroke:none;font-family:Arial;-inkscape-font-specification:ArialMT"
         x="28.783895 43.335564 48.510448 51.883633 56.085541 64.633614"
         y="591.78717"
         sodipodi:role="line"
         id="tspan4617">Write</tspan>
      <tspan
         style="font-size:15.34662437px;font-variant:normal;font-weight:normal;font-stretch:normal;writing-mode:lr-tb;fill:#000000;fill-opacity:1;fill-rule:nonzero;stroke:none;font-family:Arial;-inkscape-font-specification:ArialMT"
         x="28.783895 39.91787 48.504307 52.706215 61.254284"
         y="609.41278"
         sodipodi:role="line"
         id="tspan4619">Data</tspan>
    </text>
    <g
       id="g4621"
       transform="matrix(0,1.25,1.25,0,261.28452,449.13718)">
      <path
         inkscape:connector-curvature="0"
         d="M 0,0 42,0 55.98,31.5 69.84,0 111.78,0 87.36,73.44 24.48,73.44 0,0 z"
         style="fill:none;stroke:#000000;stroke-width:0.58700001;stroke-linecap:round;stroke-linejoin:round;stroke-miterlimit:10;stroke-opacity:1;stroke-dasharray:none"
         id="path4623" />
    </g>
    <text
       id="text4625"
       x="28.783895"
       y="487.01218"
       style="font-size:15px">
      <tspan
         style="font-size:15.34662437px;font-variant:normal;font-weight:normal;font-stretch:normal;writing-mode:lr-tb;fill:#000000;fill-opacity:1;fill-rule:nonzero;stroke:none;font-family:Arial;-inkscape-font-specification:ArialMT"
         x="28.783895 39.897923 48.464405 57.030895 60.471603 68.17868 72.380585 80.947075 86.091263"
         y="487.01218"
         sodipodi:role="line"
         id="tspan4627">Register</tspan>
      <tspan
         style="font-size:15.34662437px;font-variant:normal;font-weight:normal;font-stretch:normal;writing-mode:lr-tb;fill:#000000;fill-opacity:1;fill-rule:nonzero;stroke:none;font-family:Arial;-inkscape-font-specification:ArialMT"
         x="28.783895 39.890247 48.449059 57.007874 65.566689 69.768593 78.327408"
         y="504.63779"
         sodipodi:role="line"
         id="tspan4629">Read 2</tspan>
      <tspan
         style="font-size:15.34662437px;font-variant:normal;font-weight:normal;font-stretch:normal;writing-mode:lr-tb;fill:#000000;fill-opacity:1;fill-rule:nonzero;stroke:none;font-family:Arial;-inkscape-font-specification:ArialMT"
         x="28.783895 39.897923 48.464405 57.030895 60.471603 68.17868 72.380585 80.947075 86.091263"
         y="447.78775"
         sodipodi:role="line"
         id="tspan4631">Register</tspan>
      <tspan
         style="font-size:15.34662437px;font-variant:normal;font-weight:normal;font-stretch:normal;writing-mode:lr-tb;fill:#000000;fill-opacity:1;fill-rule:nonzero;stroke:none;font-family:Arial;-inkscape-font-specification:ArialMT"
         x="28.783895 39.890247 48.449059 57.007874 65.566689 69.768593 78.327408"
         y="465.41333"
         sodipodi:role="line"
         id="tspan4633">Read 1</tspan>
      <tspan
         style="font-size:15.34662437px;font-variant:normal;font-weight:normal;font-stretch:normal;writing-mode:lr-tb;fill:#000000;fill-opacity:1;fill-rule:nonzero;stroke:none;font-family:Arial;-inkscape-font-specification:ArialMT"
         x="28.783895 43.335564 48.510448 51.883633 56.085541 64.633614"
         y="552.56378"
         sodipodi:role="line"
         id="tspan4635">Write</tspan>
      <tspan
         style="font-size:15.34662437px;font-variant:normal;font-weight:normal;font-stretch:normal;writing-mode:lr-tb;fill:#000000;fill-opacity:1;fill-rule:nonzero;stroke:none;font-family:Arial;-inkscape-font-specification:ArialMT"
         x="28.783895 39.897923 48.464405 57.030895 60.471603 68.17868 72.380585 80.947075 86.091263"
         y="570.18933"
         sodipodi:role="line"
         id="tspan4637">Register</tspan>
      <tspan
         style="font-size:15.34662437px;font-variant:normal;font-weight:normal;font-stretch:normal;writing-mode:lr-tb;fill:#000000;fill-opacity:1;fill-rule:nonzero;stroke:none;font-family:Arial;-inkscape-font-specification:ArialMT"
         x="26.534081 35.072941 43.611805 47.813709 56.35257 59.765663"
         y="686.06403"
         sodipodi:role="line"
         id="tspan4639">16 bit</tspan>
    </text>
    <text
       id="text4641"
       x="317.6839"
       y="498.41217"
       style="font-size:15px">
      <tspan
         style="font-size:15.34662437px;font-variant:normal;font-weight:normal;font-stretch:normal;writing-mode:lr-tb;fill:#000000;fill-opacity:1;fill-rule:nonzero;stroke:none;font-family:Arial;-inkscape-font-specification:ArialMT"
         x="317.6839 327.05914 335.59033 340.69922"
         y="498.41217"
         sodipodi:role="line"
         id="tspan4643">Zero</tspan>
      <tspan
         style="font-size:15.34662437px;font-variant:normal;font-weight:normal;font-stretch:normal;writing-mode:lr-tb;fill:#000000;fill-opacity:1;fill-rule:nonzero;stroke:none;font-family:Arial;-inkscape-font-specification:ArialMT"
         x="157.48354 166.02089 174.5582 178.8353 187.37263 190.78418"
         y="686.06305"
         sodipodi:role="line"
         id="tspan4645">32 bit</tspan>
      <tspan
         style="font-size:15.34662437px;font-variant:normal;font-weight:normal;font-stretch:normal;writing-mode:lr-tb;fill:#000000;fill-opacity:1;fill-rule:nonzero;stroke:none;font-family:Arial;-inkscape-font-specification:ArialMT"
         x="-115.51756 -111.31567 -102.76758 -95.051323 -90.849396 -85.696007 -77.1203 -69.404045 -65.202118 -61.75222 -53.176514"
         y="485.28775"
         sodipodi:role="line"
         id="tspan4647">Instruction</tspan>
    </text>
    <text
       id="text4649"
       x="292.78229"
       y="549.78772"
       style="font-size:15px">
      <tspan
         style="font-size:18.37937546px;font-variant:normal;font-weight:bold;font-stretch:normal;writing-mode:lr-tb;fill:#000000;fill-opacity:1;fill-rule:nonzero;stroke:none;font-family:Arial;-inkscape-font-specification:Arial-BoldMT"
         x="292.78229 305.97867 317.23236"
         y="549.78772"
         sodipodi:role="line"
         id="tspan4651">ALU</tspan>
      <tspan
         style="font-size:18.37937546px;font-variant:normal;font-weight:bold;font-stretch:normal;writing-mode:lr-tb;fill:#000000;fill-opacity:1;fill-rule:nonzero;stroke:none;font-family:Arial;-inkscape-font-specification:Arial-BoldMT"
         x="61.332668 74.609909 84.836197 96.073341 101.19017 111.41646 117.54414 127.77042 134.92735 140.10481 151.34198 156.45879 161.57561"
         y="532.31262"
         sodipodi:role="line"
         id="tspan4653">Register File</tspan>
    </text>
    <path
       inkscape:connector-curvature="0"
       d="m 204.65952,623.96218 0,-192.15 -183.45,0 0,192.15 183.45,0 z m 0,-192.15 z"
       style="fill:none;stroke:#000000;stroke-width:1.10124993;stroke-linecap:round;stroke-linejoin:miter;stroke-miterlimit:10;stroke-opacity:1;stroke-dasharray:none"
       id="path4655" />
    <g
       id="g4657"
       transform="matrix(0,1.25,1.25,0,-70.59048,492.78718)">
      <path
         inkscape:connector-curvature="0"
         d="M 0,0 0.06,59.64"
         style="fill:none;stroke:#000000;stroke-width:0.88099998;stroke-linecap:round;stroke-linejoin:round;stroke-miterlimit:10;stroke-opacity:1;stroke-dasharray:none"
         id="path4659" />
    </g>
    <g
       id="g4661"
       transform="matrix(0,1.25,1.25,0,3.80952,498.93718)">
      <path
         inkscape:connector-curvature="0"
         d="M 0,0 -4.74,13.92 -9.6,0"
         style="fill:#000000;fill-opacity:1;fill-rule:evenodd;stroke:none"
         id="path4663" />
    </g>
    <text
       id="text4665"
       x="95.383896"
       y="668.58716"
       style="font-size:15px">
      <tspan
         style="font-size:15.34662437px;font-variant:normal;font-weight:normal;font-stretch:normal;writing-mode:lr-tb;fill:#000000;fill-opacity:1;fill-rule:nonzero;stroke:none;font-family:Arial;-inkscape-font-specification:ArialMT"
         x="95.383896 105.61549 109.01784 117.54596 126.07407"
         y="668.58716"
         sodipodi:role="line"
         id="tspan4667">Sign</tspan>
      <tspan
         style="font-size:15.34662437px;font-variant:normal;font-weight:normal;font-stretch:normal;writing-mode:lr-tb;fill:#000000;fill-opacity:1;fill-rule:nonzero;stroke:none;font-family:Arial;-inkscape-font-specification:ArialMT"
         x="77.009384 87.245583 94.820671 99.087036 107.61976 116.15248 123.8258 127.23274 135.76547"
         y="686.28796"
         sodipodi:role="line"
         id="tspan4669">Extension</tspan>
    </text>
    <text
       id="text4671"
       x="140.60889"
       y="559.53717"
       style="font-size:15px">
      <tspan
         style="font-size:15.34662437px;font-variant:normal;font-weight:normal;font-stretch:normal;writing-mode:lr-tb;fill:#000000;fill-opacity:1;fill-rule:nonzero;stroke:none;font-family:Arial;-inkscape-font-specification:ArialMT"
         x="140.60889 151.7045 160.25256 168.80064 173.08235 181.63042 190.17848 194.3804"
         y="559.53717"
         sodipodi:role="line"
         id="tspan4673">Content</tspan>
      <tspan
         style="font-size:15.34662437px;font-variant:normal;font-weight:normal;font-stretch:normal;writing-mode:lr-tb;fill:#000000;fill-opacity:1;fill-rule:nonzero;stroke:none;font-family:Arial;-inkscape-font-specification:ArialMT"
         x="144.88446 155.99388 164.55577 173.11765 177.31955 181.59666"
         y="577.16278"
         sodipodi:role="line"
         id="tspan4675">Reg. 2</tspan>
    </text>
    <text
       id="text4677"
       x="140.60889"
       y="472.23718"
       style="font-size:15px">
      <tspan
         style="font-size:15.34662437px;font-variant:normal;font-weight:normal;font-stretch:normal;writing-mode:lr-tb;fill:#000000;fill-opacity:1;fill-rule:nonzero;stroke:none;font-family:Arial;-inkscape-font-specification:ArialMT"
         x="140.60889 151.7045 160.25256 168.80064 173.08235 181.63042 190.17848"
         y="472.23718"
         sodipodi:role="line"
         id="tspan4679">Content</tspan>
      <tspan
         style="font-size:15.34662437px;font-variant:normal;font-weight:normal;font-stretch:normal;writing-mode:lr-tb;fill:#000000;fill-opacity:1;fill-rule:nonzero;stroke:none;font-family:Arial;-inkscape-font-specification:ArialMT"
         x="144.88446 155.99388 164.55577 173.11765 177.31955 181.59666"
         y="489.86279"
         sodipodi:role="line"
         id="tspan4681">Reg. 1</tspan>
    </text>
    <g
       id="g4683"
       transform="matrix(0,1.25,1.25,0,370.55952,470.73718)">
      <path
         inkscape:connector-curvature="0"
         d="m 0,0 17.64,0 0,-13.98"
         style="fill:none;stroke:#000000;stroke-width:0.88099998;stroke-linecap:round;stroke-linejoin:round;stroke-miterlimit:10;stroke-opacity:1;stroke-dasharray:none"
         id="path4685" />
    </g>
    <g
       id="g4687"
       transform="matrix(0,1.25,1.25,0,376.63452,471.03718)">
      <path
         inkscape:connector-curvature="0"
         d="M 0,0 -13.92,-4.86 0,-9.66"
         style="fill:#000000;fill-opacity:1;fill-rule:evenodd;stroke:none"
         id="path4689" />
    </g>
    <path
       inkscape:connector-curvature="0"
       d="m 222.05952,558.33718 0,8.775 8.85,0 0,-8.775 -8.85,0 z"
       style="fill:#ffffff;fill-opacity:1;fill-rule:nonzero;stroke:none"
       id="path4691" />
    <g
       id="g4693"
       transform="matrix(0,1.25,1.25,0,580.18452,518.96218)">
      <path
         inkscape:connector-curvature="0"
         d="M 0,0 -41.88,0 -55.8,31.38 -69.72,0 l -42,0 24.48,73.32 62.88,0 L 0,0 z"
         style="fill:none;stroke:#000000;stroke-width:0.58700001;stroke-linecap:round;stroke-linejoin:round;stroke-miterlimit:10;stroke-opacity:1;stroke-dasharray:none"
         id="path4695" />
    </g>
    <g
       id="g4697"
       transform="matrix(0,1.25,1.25,0,523.33452,492.78718)">
      <path
         inkscape:connector-curvature="0"
         d="M 0,0 0.06,31.68"
         style="fill:none;stroke:#000000;stroke-width:0.88099998;stroke-linecap:round;stroke-linejoin:round;stroke-miterlimit:10;stroke-opacity:1;stroke-dasharray:none"
         id="path4699" />
    </g>
    <g
       id="g4701"
       transform="matrix(0,1.25,1.25,0,562.78452,498.93718)">
      <path
         inkscape:connector-curvature="0"
         d="M 0,0 -4.74,13.92 -9.6,0"
         style="fill:#000000;fill-opacity:1;fill-rule:evenodd;stroke:none"
         id="path4703" />
    </g>
    <g
       id="g4705"
       transform="matrix(0,1.25,1.25,0,204.58452,562.61218)">
      <path
         inkscape:connector-curvature="0"
         d="M 0,0 0.12,31.68"
         style="fill:none;stroke:#000000;stroke-width:0.88099998;stroke-linecap:round;stroke-linejoin:round;stroke-miterlimit:10;stroke-opacity:1;stroke-dasharray:none"
         id="path4707" />
    </g>
    <g
       id="g4709"
       transform="matrix(0,1.25,1.25,0,244.03452,568.76218)">
      <path
         inkscape:connector-curvature="0"
         d="M 0,0 -4.74,13.98 -9.6,0"
         style="fill:#000000;fill-opacity:1;fill-rule:evenodd;stroke:none"
         id="path4711" />
    </g>
    <g
       id="g4713"
       transform="matrix(0,1.25,1.25,0,-157.72923,140.58718)">
      <g
         id="g4715"
         clip-path="url(#clipPath4717)">
        <g
           id="g4721"
           transform="translate(201.54,352.911)">
          <path
             inkscape:connector-curvature="0"
             d="m 0,0 c -11.64,0 -21,-21.18 -21,-47.22 0,-26.1 9.36,-47.22 21,-47.22 11.64,0 21.06,21.12 21.06,47.22 C 21.06,-21.18 11.64,0 0,0 z"
             style="fill:#ffffff;fill-opacity:1;fill-rule:evenodd;stroke:#000000;stroke-width:0.88099998;stroke-linecap:round;stroke-linejoin:round;stroke-miterlimit:10;stroke-opacity:1;stroke-dasharray:none"
             id="path4723" />
        </g>
      </g>
    </g>
    <text
       id="text4725"
       x="698.3089"
       y="418.08719"
       style="font-size:15px">
      <tspan
         style="font-size:15.34662437px;font-variant:normal;font-weight:normal;font-stretch:normal;writing-mode:lr-tb;fill:#000000;fill-opacity:1;fill-rule:nonzero;stroke:none;font-family:Arial;-inkscape-font-specification:ArialMT"
         x="698.3089 708.55432 713.67395 722.21588 730.75781 738.44031 746.98224 751.25934 760.64532 769.18726 774.30688 782.84888 791.39075 795.66632"
         y="418.08719"
         sodipodi:role="line"
         id="tspan4727">Branch Target</tspan>
      <tspan
         style="font-size:15.34662437px;font-variant:normal;font-weight:normal;font-stretch:normal;writing-mode:lr-tb;fill:#000000;fill-opacity:1;fill-rule:nonzero;stroke:none;font-family:Arial;-inkscape-font-specification:ArialMT"
         x="718.70917 728.96686 737.52106 746.07526 751.20715 759.76135 767.45618"
         y="435.71277"
         sodipodi:role="line"
         id="tspan4729">Address</tspan>
    </text>
    <text
       id="text4731"
       x="194.45889"
       y="389.21219"
       style="font-size:15px">
      <tspan
         style="font-size:15.34662437px;font-variant:normal;font-weight:normal;font-stretch:normal;writing-mode:lr-tb;fill:#000000;fill-opacity:1;fill-rule:nonzero;stroke:none;font-family:Arial;-inkscape-font-specification:ArialMT"
         x="194.45889 203.00543 208.12967 216.67619 220.09697 224.37714 228.57904 237.12558 245.67212 249.87402 254.15419"
         y="389.21219"
         sodipodi:role="line"
         id="tspan4733">2-bit Left</tspan>
      <tspan
         style="font-size:15.34662437px;font-variant:normal;font-weight:normal;font-stretch:normal;writing-mode:lr-tb;fill:#000000;fill-opacity:1;fill-rule:nonzero;stroke:none;font-family:Arial;-inkscape-font-specification:ArialMT"
         x="202.18439 212.36687 220.91493 224.36179 228.57443 232.78709 241.33516"
         y="406.91296"
         sodipodi:role="line"
         id="tspan4735">Shifter</tspan>
    </text>
    <g
       id="g4737"
       transform="matrix(0,1.25,1.25,0,283.18452,392.43718)">
      <path
         inkscape:connector-curvature="0"
         d="M 0,0 0.06,223.8"
         style="fill:none;stroke:#000000;stroke-width:0.88099998;stroke-linecap:round;stroke-linejoin:round;stroke-miterlimit:10;stroke-opacity:1;stroke-dasharray:none"
         id="path4739" />
    </g>
    <g
       id="g4741"
       transform="matrix(0,1.25,1.25,0,562.78452,398.58718)">
      <path
         inkscape:connector-curvature="0"
         d="M 0,0 -4.74,13.92 -9.6,0"
         style="fill:#000000;fill-opacity:1;fill-rule:evenodd;stroke:none"
         id="path4743" />
    </g>
    <path
       inkscape:connector-curvature="0"
       d="m 222.05952,471.03718 0,8.775 8.85,0 0,-8.775 -8.85,0 z"
       style="fill:#ffffff;fill-opacity:1;fill-rule:nonzero;stroke:none"
       id="path4745" />
    <g
       id="g4747"
       transform="matrix(0,1.25,1.25,0,204.58452,475.31218)">
      <path
         inkscape:connector-curvature="0"
         d="M 0,0 0.12,31.68"
         style="fill:none;stroke:#000000;stroke-width:0.88099998;stroke-linecap:round;stroke-linejoin:round;stroke-miterlimit:10;stroke-opacity:1;stroke-dasharray:none"
         id="path4749" />
    </g>
    <g
       id="g4751"
       transform="matrix(0,1.25,1.25,0,244.03452,481.46218)">
      <path
         inkscape:connector-curvature="0"
         d="M 0,0 -4.74,13.98 -9.6,0"
         style="fill:#000000;fill-opacity:1;fill-rule:evenodd;stroke:none"
         id="path4753" />
    </g>
    <text
       id="text4755"
       x="594.58386"
       y="423.71219"
       style="font-size:15px">
      <tspan
         style="font-size:18.37937546px;font-variant:normal;font-weight:bold;font-stretch:normal;writing-mode:lr-tb;fill:#000000;fill-opacity:1;fill-rule:nonzero;stroke:none;font-family:Arial;-inkscape-font-specification:Arial-BoldMT"
         x="594.58386 607.78027 619.01929 630.25824 640.48639"
         y="423.71219"
         sodipodi:role="line"
         id="tspan4757">Adder</tspan>
    </text>
    <g
       id="g4759"
       transform="matrix(0,1.25,1.25,0,671.83452,449.13718)">
      <path
         inkscape:connector-curvature="0"
         d="M 0,0 0.06,31.68"
         style="fill:none;stroke:#000000;stroke-width:0.88099998;stroke-linecap:round;stroke-linejoin:round;stroke-miterlimit:10;stroke-opacity:1;stroke-dasharray:none"
         id="path4761" />
    </g>
    <g
       id="g4763"
       transform="matrix(0,1.25,1.25,0,711.28452,455.28718)">
      <path
         inkscape:connector-curvature="0"
         d="M 0,0 -4.86,13.92 -9.6,0"
         style="fill:#000000;fill-opacity:1;fill-rule:evenodd;stroke:none"
         id="path4765" />
    </g>
    <text
       id="text4767"
       x="-26.791105"
       y="664.31219"
       style="font-size:15px">
      <tspan
         style="font-size:15.34662437px;font-variant:normal;font-weight:normal;font-stretch:normal;writing-mode:lr-tb;fill:#000000;fill-opacity:1;fill-rule:nonzero;stroke:none;font-family:Arial;-inkscape-font-specification:ArialMT"
         x="-26.791105 -22.589199 -14.031921 -5.4746432 -0.33966276 8.2176161"
         y="664.31219"
         sodipodi:role="line"
         id="tspan4769">[15-0]</tspan>
      <tspan
         style="font-size:15.34662437px;font-variant:normal;font-weight:normal;font-stretch:normal;writing-mode:lr-tb;fill:#000000;fill-opacity:1;fill-rule:nonzero;stroke:none;font-family:Arial;-inkscape-font-specification:ArialMT"
         x="-31.141872 -26.938433 -18.381155 -9.8238764 -4.6888967 3.8683822 12.425661"
         y="446.06171"
         sodipodi:role="line"
         id="tspan4771">[25-21]</tspan>
      <tspan
         style="font-size:15.34662437px;font-variant:normal;font-weight:normal;font-stretch:normal;writing-mode:lr-tb;fill:#000000;fill-opacity:1;fill-rule:nonzero;stroke:none;font-family:Arial;-inkscape-font-specification:ArialMT"
         x="-31.141872 -26.938433 -18.381155 -9.8238764 -4.6888967 3.8683822 12.425661"
         y="485.28613"
         sodipodi:role="line"
         id="tspan4773">[20-16]</tspan>
    </text>
    <text
       id="text4775"
       x="115.40918"
       y="420.18573"
       style="font-size:15px">
      <tspan
         style="font-size:15.34662437px;font-style:italic;font-variant:normal;font-weight:bold;font-stretch:normal;writing-mode:lr-tb;fill:#ff0000;fill-opacity:1;fill-rule:nonzero;stroke:none;font-family:Arial;-inkscape-font-specification:Arial-BoldItalicMT"
         x="115.40918 129.96085"
         y="420.18573"
         sodipodi:role="line"
         id="tspan4777">WR</tspan>
    </text>
    <path
       inkscape:connector-curvature="0"
       d="m 107.38452,405.48718 0,11.55 2.325,0 0,-11.55 -2.325,0 z"
       style="fill:#ff0000;fill-opacity:1;fill-rule:nonzero;stroke:none"
       id="path4779" />
    <g
       id="g4781"
       transform="matrix(0,1.25,1.25,0,103.70952,416.88718)">
      <path
         inkscape:connector-curvature="0"
         d="M 0,0 11.94,3.84 0,7.74"
         style="fill:#ff0000;fill-opacity:1;fill-rule:evenodd;stroke:none"
         id="path4783" />
    </g>
  </g>
</svg>
