<?xml version="1.0" encoding="UTF-8" standalone="no"?>
<!-- Created with Inkscape (http://www.inkscape.org/) -->

<svg
   xmlns:dc="http://purl.org/dc/elements/1.1/"
   xmlns:cc="http://creativecommons.org/ns#"
   xmlns:rdf="http://www.w3.org/1999/02/22-rdf-syntax-ns#"
   xmlns:svg="http://www.w3.org/2000/svg"
   xmlns="http://www.w3.org/2000/svg"
   xmlns:sodipodi="http://sodipodi.sourceforge.net/DTD/sodipodi-0.dtd"
   xmlns:inkscape="http://www.inkscape.org/namespaces/inkscape"
   width="864.9057"
   height="271.88425"
   id="svg13429"
   version="1.1"
   inkscape:version="0.48.4 r9939"
   sodipodi:docname="New document 32">
  <defs
     id="defs13431">
    <clipPath
       id="clipPath13457"
       clipPathUnits="userSpaceOnUse">
      <path
         id="path13459"
         d="m 0,841.98 595.2,0 L 595.2,0 0,0 0,841.98 z"
         inkscape:connector-curvature="0" />
    </clipPath>
    <clipPath
       id="clipPath13451"
       clipPathUnits="userSpaceOnUse">
      <path
         id="path13453"
         clip-rule="evenodd"
         d="m 588.84,0.11053 -582.84,0 0,841.86 582.84,0 0,-841.86 z"
         inkscape:connector-curvature="0" />
    </clipPath>
  </defs>
  <sodipodi:namedview
     id="base"
     pagecolor="#ffffff"
     bordercolor="#666666"
     borderopacity="1.0"
     inkscape:pageopacity="0.0"
     inkscape:pageshadow="2"
     inkscape:zoom="0.98994949"
     inkscape:cx="286.68245"
     inkscape:cy="136.97144"
     inkscape:document-units="px"
     inkscape:current-layer="layer1"
     showgrid="false"
     fit-margin-top="10"
     fit-margin-left="10"
     fit-margin-right="10"
     fit-margin-bottom="10"
     inkscape:window-width="954"
     inkscape:window-height="1028"
     inkscape:window-x="0"
     inkscape:window-y="0"
     inkscape:window-maximized="0" />
  <metadata
     id="metadata13434">
    <rdf:RDF>
      <cc:Work
         rdf:about="">
        <dc:format>image/svg+xml</dc:format>
        <dc:type
           rdf:resource="http://purl.org/dc/dcmitype/StillImage" />
        <dc:title></dc:title>
      </cc:Work>
    </rdf:RDF>
  </metadata>
  <g
     inkscape:label="Layer 1"
     inkscape:groupmode="layer"
     id="layer1"
     transform="translate(-19.445401,-458.10147)">
    <path
       inkscape:connector-curvature="0"
       d="m 244.87737,468.62647 0,39.9 69.9,0 0,-39.9 -69.9,0 z"
       style="fill:#99ffcc;fill-opacity:1;fill-rule:nonzero;stroke:none"
       id="path13479" />
    <path
       inkscape:connector-curvature="0"
       d="m 244.35237,509.05147 0,-40.95 70.875,0 0,40.95 -70.875,0 z m 0,-40.95 z m 0.975,40.425 -0.45,-0.525 69.9,0 -0.525,0.525 0,-39.9 0.525,0.45 -69.9,0 0.45,-0.45"
       style="fill:#000000;fill-opacity:1;fill-rule:nonzero;stroke:none"
       id="path13481" />
    <text
       id="text13483"
       x="269.02676"
       y="497.05148"
       style="font-size:15px">
      <tspan
         style="font-size:24.30000114px;font-variant:normal;font-weight:bold;font-stretch:normal;writing-mode:lr-tb;fill:#000000;fill-opacity:1;fill-rule:nonzero;stroke:none;font-family:Arial;-inkscape-font-specification:Arial-BoldMT"
         x="269.02676 275.77972"
         y="497.05148"
         sodipodi:role="line"
         id="tspan13485">IF</tspan>
    </text>
    <path
       inkscape:connector-curvature="0"
       d="m 314.77737,468.62647 0,39.9 69.9,0 0,-39.9 -69.9,0 z"
       style="fill:#99ffcc;fill-opacity:1;fill-rule:nonzero;stroke:none"
       id="path13487" />
    <path
       inkscape:connector-curvature="0"
       d="m 314.25237,509.05147 0,-40.95 70.875,0 0,40.95 -70.875,0 z m 0,-40.95 z m 0.975,40.425 -0.45,-0.525 69.9,0 -0.525,0.525 0,-39.9 0.525,0.45 -69.9,0 0.45,-0.45"
       style="fill:#000000;fill-opacity:1;fill-rule:nonzero;stroke:none"
       id="path13489" />
    <text
       id="text13491"
       x="337.57675"
       y="497.05148"
       style="font-size:15px">
      <tspan
         style="font-size:24.30000114px;font-variant:normal;font-weight:bold;font-stretch:normal;writing-mode:lr-tb;fill:#000000;fill-opacity:1;fill-rule:nonzero;stroke:none;font-family:Arial;-inkscape-font-specification:Arial-BoldMT"
         x="337.57675 344.32971"
         y="497.05148"
         sodipodi:role="line"
         id="tspan13493">ID</tspan>
    </text>
    <path
       inkscape:connector-curvature="0"
       d="m 384.67737,468.62647 0,39.9 69.825,0 0,-39.9 -69.825,0 z"
       style="fill:#99ffcc;fill-opacity:1;fill-rule:nonzero;stroke:none"
       id="path13495" />
    <path
       inkscape:connector-curvature="0"
       d="m 384.15237,509.05147 0,-40.95 70.875,0 0,40.95 -70.875,0 z m 0,-40.95 z m 0.975,40.425 -0.45,-0.525 69.825,0 -0.45,0.525 0,-39.9 0.45,0.45 -69.825,0 0.45,-0.45"
       style="fill:#000000;fill-opacity:1;fill-rule:nonzero;stroke:none"
       id="path13497" />
    <text
       id="text13499"
       x="403.35175"
       y="497.05148"
       style="font-size:15px">
      <tspan
         style="font-size:24.30000114px;font-variant:normal;font-weight:bold;font-stretch:normal;writing-mode:lr-tb;fill:#000000;fill-opacity:1;fill-rule:nonzero;stroke:none;font-family:Arial;-inkscape-font-specification:Arial-BoldMT"
         x="403.35175 419.55255"
         y="497.05148"
         sodipodi:role="line"
         id="tspan13501">EX</tspan>
    </text>
    <path
       inkscape:connector-curvature="0"
       d="m 454.50237,468.62647 0,39.9 69.9,0 0,-39.9 -69.9,0 z"
       style="fill:#99ffcc;fill-opacity:1;fill-rule:nonzero;stroke:none"
       id="path13503" />
    <path
       inkscape:connector-curvature="0"
       d="m 454.05237,509.05147 0,-40.95 70.875,0 0,40.95 -70.875,0 z m 0,-40.95 z m 0.975,40.425 -0.525,-0.525 69.9,0 -0.45,0.525 0,-39.9 0.45,0.45 -69.9,0 0.525,-0.45"
       style="fill:#000000;fill-opacity:1;fill-rule:nonzero;stroke:none"
       id="path13505" />
    <text
       id="text13507"
       x="471.22675"
       y="497.05148"
       style="font-size:15px">
      <tspan
         style="font-size:24.30000114px;font-variant:normal;font-weight:bold;font-stretch:normal;writing-mode:lr-tb;fill:#000000;fill-opacity:1;fill-rule:nonzero;stroke:none;font-family:Arial;-inkscape-font-specification:Arial-BoldMT"
         x="471.22675 491.47595"
         y="497.05148"
         sodipodi:role="line"
         id="tspan13509">ME</tspan>
    </text>
    <path
       inkscape:connector-curvature="0"
       d="m 524.40237,468.62647 0,39.9 69.9,0 0,-39.9 -69.9,0 z"
       style="fill:#99ffcc;fill-opacity:1;fill-rule:nonzero;stroke:none"
       id="path13511" />
    <path
       inkscape:connector-curvature="0"
       d="m 523.95237,509.05147 0,-40.95 70.875,0 0,40.95 -70.875,0 z m 0,-40.95 z m 0.975,40.425 -0.525,-0.525 69.9,0 -0.52625,0.525 0,-39.9 0.52625,0.45 -69.9,0 0.525,-0.45"
       style="fill:#000000;fill-opacity:1;fill-rule:nonzero;stroke:none"
       id="path13513" />
    <text
       id="text13515"
       x="539.10175"
       y="497.05148"
       style="font-size:15px">
      <tspan
         style="font-size:24.30000114px;font-variant:normal;font-weight:bold;font-stretch:normal;writing-mode:lr-tb;fill:#000000;fill-opacity:1;fill-rule:nonzero;stroke:none;font-family:Arial;-inkscape-font-specification:Arial-BoldMT"
         x="539.10175 562.05554"
         y="497.05148"
         sodipodi:role="line"
         id="tspan13517">WB</tspan>
    </text>
    <path
       inkscape:connector-curvature="0"
       d="m 314.77737,517.97647 0,39.975 69.9,0 0,-39.975 -69.9,0 z"
       style="fill:#99ffcc;fill-opacity:1;fill-rule:nonzero;stroke:none"
       id="path13519" />
    <path
       inkscape:connector-curvature="0"
       d="m 314.25237,558.40147 0,-40.95 70.875,0 0,40.95 -70.875,0 z m 0,-40.95 z m 0.975,40.5 -0.45,-0.525 69.9,0 -0.525,0.525 0,-39.975 0.525,0.525 -69.9,0 0.45,-0.525"
       style="fill:#000000;fill-opacity:1;fill-rule:nonzero;stroke:none"
       id="path13521" />
    <text
       id="text13523"
       x="338.92676"
       y="546.47644"
       style="font-size:15px">
      <tspan
         style="font-size:24.30000114px;font-variant:normal;font-weight:bold;font-stretch:normal;writing-mode:lr-tb;fill:#000000;fill-opacity:1;fill-rule:nonzero;stroke:none;font-family:Arial;-inkscape-font-specification:Arial-BoldMT"
         x="338.92676 345.67972"
         y="546.47644"
         sodipodi:role="line"
         id="tspan13525">IF</tspan>
    </text>
    <path
       inkscape:connector-curvature="0"
       d="m 384.67737,517.97647 0,39.975 69.825,0 0,-39.975 -69.825,0 z"
       style="fill:#99ffcc;fill-opacity:1;fill-rule:nonzero;stroke:none"
       id="path13527" />
    <path
       inkscape:connector-curvature="0"
       d="m 384.15237,558.40147 0,-40.95 70.875,0 0,40.95 -70.875,0 z m 0,-40.95 z m 0.975,40.5 -0.45,-0.525 69.825,0 -0.45,0.525 0,-39.975 0.45,0.525 -69.825,0 0.45,-0.525"
       style="fill:#000000;fill-opacity:1;fill-rule:nonzero;stroke:none"
       id="path13529" />
    <text
       id="text13531"
       x="407.40176"
       y="546.47644"
       style="font-size:15px">
      <tspan
         style="font-size:24.30000114px;font-variant:normal;font-weight:bold;font-stretch:normal;writing-mode:lr-tb;fill:#000000;fill-opacity:1;fill-rule:nonzero;stroke:none;font-family:Arial;-inkscape-font-specification:Arial-BoldMT"
         x="407.40176 414.15472"
         y="546.47644"
         sodipodi:role="line"
         id="tspan13533">ID</tspan>
    </text>
    <path
       inkscape:connector-curvature="0"
       d="m 454.50237,517.97647 0,39.975 69.9,0 0,-39.975 -69.9,0 z"
       style="fill:#99ffcc;fill-opacity:1;fill-rule:nonzero;stroke:none"
       id="path13535" />
    <path
       inkscape:connector-curvature="0"
       d="m 454.05237,558.40147 0,-40.95 70.875,0 0,40.95 -70.875,0 z m 0,-40.95 z m 0.975,40.5 -0.525,-0.525 69.9,0 -0.45,0.525 0,-39.975 0.45,0.525 -69.9,0 0.525,-0.525"
       style="fill:#000000;fill-opacity:1;fill-rule:nonzero;stroke:none"
       id="path13537" />
    <text
       id="text13539"
       x="473.25174"
       y="546.47644"
       style="font-size:15px">
      <tspan
         style="font-size:24.30000114px;font-variant:normal;font-weight:bold;font-stretch:normal;writing-mode:lr-tb;fill:#000000;fill-opacity:1;fill-rule:nonzero;stroke:none;font-family:Arial;-inkscape-font-specification:Arial-BoldMT"
         x="473.25174 489.45255"
         y="546.47644"
         sodipodi:role="line"
         id="tspan13541">EX</tspan>
    </text>
    <path
       inkscape:connector-curvature="0"
       d="m 524.40237,517.97647 0,39.975 69.9,0 0,-39.975 -69.9,0 z"
       style="fill:#99ffcc;fill-opacity:1;fill-rule:nonzero;stroke:none"
       id="path13543" />
    <path
       inkscape:connector-curvature="0"
       d="m 523.95237,558.40147 0,-40.95 70.875,0 0,40.95 -70.875,0 z m 0,-40.95 z m 0.975,40.5 -0.525,-0.525 69.9,0 -0.52625,0.525 0,-39.975 0.52625,0.525 -69.9,0 0.525,-0.525"
       style="fill:#000000;fill-opacity:1;fill-rule:nonzero;stroke:none"
       id="path13545" />
    <text
       id="text13547"
       x="541.12677"
       y="546.47644"
       style="font-size:15px">
      <tspan
         style="font-size:24.30000114px;font-variant:normal;font-weight:bold;font-stretch:normal;writing-mode:lr-tb;fill:#000000;fill-opacity:1;fill-rule:nonzero;stroke:none;font-family:Arial;-inkscape-font-specification:Arial-BoldMT"
         x="541.12677 561.37592"
         y="546.47644"
         sodipodi:role="line"
         id="tspan13549">ME</tspan>
    </text>
    <path
       inkscape:connector-curvature="0"
       d="m 594.30237,517.97647 0,39.975 69.9,0 0,-39.975 -69.9,0 z"
       style="fill:#99ffcc;fill-opacity:1;fill-rule:nonzero;stroke:none"
       id="path13551" />
    <path
       inkscape:connector-curvature="0"
       d="m 593.77612,558.40147 0,-40.95 70.95,0 0,40.95 -70.95,0 z m 0,-40.95 z m 1.05125,40.5 -0.525,-0.525 69.9,0 -0.525,0.525 0,-39.975 0.525,0.525 -69.9,0 0.525,-0.525"
       style="fill:#000000;fill-opacity:1;fill-rule:nonzero;stroke:none"
       id="path13553" />
    <text
       id="text13555"
       x="609.00177"
       y="546.47644"
       style="font-size:15px">
      <tspan
         style="font-size:24.30000114px;font-variant:normal;font-weight:bold;font-stretch:normal;writing-mode:lr-tb;fill:#000000;fill-opacity:1;fill-rule:nonzero;stroke:none;font-family:Arial;-inkscape-font-specification:Arial-BoldMT"
         x="609.00177 631.95551"
         y="546.47644"
         sodipodi:role="line"
         id="tspan13557">WB</tspan>
    </text>
    <path
       inkscape:connector-curvature="0"
       d="m 384.67737,567.40147 0,39.9 69.825,0 0,-39.9 -69.825,0 z"
       style="fill:#99ffcc;fill-opacity:1;fill-rule:nonzero;stroke:none"
       id="path13559" />
    <path
       inkscape:connector-curvature="0"
       d="m 384.15237,607.82647 0,-40.95 70.875,0 0,40.95 -70.875,0 z m 0,-40.95 z m 0.975,40.425 -0.45,-0.45 69.825,0 -0.45,0.45 0,-39.9 0.45,0.525 -69.825,0 0.45,-0.525"
       style="fill:#000000;fill-opacity:1;fill-rule:nonzero;stroke:none"
       id="path13561" />
    <text
       id="text13563"
       x="408.75174"
       y="595.82648"
       style="font-size:15px">
      <tspan
         style="font-size:24.30000114px;font-variant:normal;font-weight:bold;font-stretch:normal;writing-mode:lr-tb;fill:#000000;fill-opacity:1;fill-rule:nonzero;stroke:none;font-family:Arial;-inkscape-font-specification:Arial-BoldMT"
         x="408.75174 415.50473"
         y="595.82648"
         sodipodi:role="line"
         id="tspan13565">IF</tspan>
    </text>
    <path
       inkscape:connector-curvature="0"
       d="m 454.50237,567.40147 0,39.9 69.9,0 0,-39.9 -69.9,0 z"
       style="fill:#99ffcc;fill-opacity:1;fill-rule:nonzero;stroke:none"
       id="path13567" />
    <path
       inkscape:connector-curvature="0"
       d="m 454.05237,607.82647 0,-40.95 70.875,0 0,40.95 -70.875,0 z m 0,-40.95 z m 0.975,40.425 -0.525,-0.45 69.9,0 -0.45,0.45 0,-39.9 0.45,0.525 -69.9,0 0.525,-0.525"
       style="fill:#000000;fill-opacity:1;fill-rule:nonzero;stroke:none"
       id="path13569" />
    <text
       id="text13571"
       x="477.30176"
       y="595.82648"
       style="font-size:15px">
      <tspan
         style="font-size:24.30000114px;font-variant:normal;font-weight:bold;font-stretch:normal;writing-mode:lr-tb;fill:#000000;fill-opacity:1;fill-rule:nonzero;stroke:none;font-family:Arial;-inkscape-font-specification:Arial-BoldMT"
         x="477.30176 484.05472"
         y="595.82648"
         sodipodi:role="line"
         id="tspan13573">ID</tspan>
    </text>
    <path
       inkscape:connector-curvature="0"
       d="m 524.40237,567.40147 0,39.9 69.9,0 0,-39.9 -69.9,0 z"
       style="fill:#99ffcc;fill-opacity:1;fill-rule:nonzero;stroke:none"
       id="path13575" />
    <path
       inkscape:connector-curvature="0"
       d="m 523.95237,607.82647 0,-40.95 70.875,0 0,40.95 -70.875,0 z m 0,-40.95 z m 0.975,40.425 -0.525,-0.45 69.9,0 -0.52625,0.45 0,-39.9 0.52625,0.525 -69.9,0 0.525,-0.525"
       style="fill:#000000;fill-opacity:1;fill-rule:nonzero;stroke:none"
       id="path13577" />
    <text
       id="text13579"
       x="543.15173"
       y="595.82648"
       style="font-size:15px">
      <tspan
         style="font-size:24.30000114px;font-variant:normal;font-weight:bold;font-stretch:normal;writing-mode:lr-tb;fill:#000000;fill-opacity:1;fill-rule:nonzero;stroke:none;font-family:Arial;-inkscape-font-specification:Arial-BoldMT"
         x="543.15173 559.35254"
         y="595.82648"
         sodipodi:role="line"
         id="tspan13581">EX</tspan>
    </text>
    <path
       inkscape:connector-curvature="0"
       d="m 594.30237,567.40147 0,39.9 69.9,0 0,-39.9 -69.9,0 z"
       style="fill:#99ffcc;fill-opacity:1;fill-rule:nonzero;stroke:none"
       id="path13583" />
    <path
       inkscape:connector-curvature="0"
       d="m 593.77612,607.82647 0,-40.95 70.95,0 0,40.95 -70.95,0 z m 0,-40.95 z m 1.05125,40.425 -0.525,-0.45 69.9,0 -0.525,0.45 0,-39.9 0.525,0.525 -69.9,0 0.525,-0.525"
       style="fill:#000000;fill-opacity:1;fill-rule:nonzero;stroke:none"
       id="path13585" />
    <text
       id="text13587"
       x="611.02673"
       y="595.82648"
       style="font-size:15px">
      <tspan
         style="font-size:24.30000114px;font-variant:normal;font-weight:bold;font-stretch:normal;writing-mode:lr-tb;fill:#000000;fill-opacity:1;fill-rule:nonzero;stroke:none;font-family:Arial;-inkscape-font-specification:Arial-BoldMT"
         x="611.02673 631.27594"
         y="595.82648"
         sodipodi:role="line"
         id="tspan13589">ME</tspan>
    </text>
    <path
       inkscape:connector-curvature="0"
       d="m 664.20237,567.40147 0,39.9 69.9,0 0,-39.9 -69.9,0 z"
       style="fill:#99ffcc;fill-opacity:1;fill-rule:nonzero;stroke:none"
       id="path13591" />
    <path
       inkscape:connector-curvature="0"
       d="m 663.67737,607.82647 0,-40.95 70.95,0 0,40.95 -70.95,0 z m 0,-40.95 z m 1.04875,40.425 -0.52375,-0.45 69.89875,0 -0.52375,0.45 0,-39.9 0.52375,0.525 -69.89875,0 0.52375,-0.525"
       style="fill:#000000;fill-opacity:1;fill-rule:nonzero;stroke:none"
       id="path13593" />
    <text
       id="text13595"
       x="678.90173"
       y="595.82648"
       style="font-size:15px">
      <tspan
         style="font-size:24.30000114px;font-variant:normal;font-weight:bold;font-stretch:normal;writing-mode:lr-tb;fill:#000000;fill-opacity:1;fill-rule:nonzero;stroke:none;font-family:Arial;-inkscape-font-specification:Arial-BoldMT"
         x="678.90173 701.85553"
         y="595.82648"
         sodipodi:role="line"
         id="tspan13597">WB</tspan>
    </text>
    <path
       inkscape:connector-curvature="0"
       d="m 454.50237,616.82647 0,39.9 69.9,0 0,-39.9 -69.9,0 z"
       style="fill:#99ffcc;fill-opacity:1;fill-rule:nonzero;stroke:none"
       id="path13599" />
    <path
       inkscape:connector-curvature="0"
       d="m 454.05237,657.25147 0,-40.95 70.875,0 0,40.95 -70.875,0 z m 0,-40.95 z m 0.975,40.425 -0.525,-0.525 69.9,0 -0.45,0.525 0,-39.9 0.45,0.45 -69.9,0 0.525,-0.45"
       style="fill:#000000;fill-opacity:1;fill-rule:nonzero;stroke:none"
       id="path13601" />
    <text
       id="text13603"
       x="478.65176"
       y="645.25146"
       style="font-size:15px">
      <tspan
         style="font-size:24.30000114px;font-variant:normal;font-weight:bold;font-stretch:normal;writing-mode:lr-tb;fill:#000000;fill-opacity:1;fill-rule:nonzero;stroke:none;font-family:Arial;-inkscape-font-specification:Arial-BoldMT"
         x="478.65176 485.40472"
         y="645.25146"
         sodipodi:role="line"
         id="tspan13605">IF</tspan>
    </text>
    <path
       inkscape:connector-curvature="0"
       d="m 524.40237,616.82647 0,39.9 69.9,0 0,-39.9 -69.9,0 z"
       style="fill:#99ffcc;fill-opacity:1;fill-rule:nonzero;stroke:none"
       id="path13607" />
    <path
       inkscape:connector-curvature="0"
       d="m 523.95237,657.25147 0,-40.95 70.875,0 0,40.95 -70.875,0 z m 0,-40.95 z m 0.975,40.425 -0.525,-0.525 69.9,0 -0.52625,0.525 0,-39.9 0.52625,0.45 -69.9,0 0.525,-0.45"
       style="fill:#000000;fill-opacity:1;fill-rule:nonzero;stroke:none"
       id="path13609" />
    <text
       id="text13611"
       x="547.20172"
       y="645.25146"
       style="font-size:15px">
      <tspan
         style="font-size:24.30000114px;font-variant:normal;font-weight:bold;font-stretch:normal;writing-mode:lr-tb;fill:#000000;fill-opacity:1;fill-rule:nonzero;stroke:none;font-family:Arial;-inkscape-font-specification:Arial-BoldMT"
         x="547.20172 553.95471"
         y="645.25146"
         sodipodi:role="line"
         id="tspan13613">ID</tspan>
    </text>
    <path
       inkscape:connector-curvature="0"
       d="m 594.30237,616.82647 0,39.9 69.9,0 0,-39.9 -69.9,0 z"
       style="fill:#99ffcc;fill-opacity:1;fill-rule:nonzero;stroke:none"
       id="path13615" />
    <path
       inkscape:connector-curvature="0"
       d="m 593.77612,657.25147 0,-40.95 70.95,0 0,40.95 -70.95,0 z m 0,-40.95 z m 1.05125,40.425 -0.525,-0.525 69.9,0 -0.525,0.525 0,-39.9 0.525,0.45 -69.9,0 0.525,-0.45"
       style="fill:#000000;fill-opacity:1;fill-rule:nonzero;stroke:none"
       id="path13617" />
    <text
       id="text13619"
       x="613.05176"
       y="645.25146"
       style="font-size:15px">
      <tspan
         style="font-size:24.30000114px;font-variant:normal;font-weight:bold;font-stretch:normal;writing-mode:lr-tb;fill:#000000;fill-opacity:1;fill-rule:nonzero;stroke:none;font-family:Arial;-inkscape-font-specification:Arial-BoldMT"
         x="613.05176 629.25256"
         y="645.25146"
         sodipodi:role="line"
         id="tspan13621">EX</tspan>
    </text>
    <path
       inkscape:connector-curvature="0"
       d="m 664.20237,616.82647 0,39.9 69.9,0 0,-39.9 -69.9,0 z"
       style="fill:#99ffcc;fill-opacity:1;fill-rule:nonzero;stroke:none"
       id="path13623" />
    <path
       inkscape:connector-curvature="0"
       d="m 663.67737,657.25147 0,-40.95 70.95,0 0,40.95 -70.95,0 z m 0,-40.95 z m 1.04875,40.425 -0.52375,-0.525 69.89875,0 -0.52375,0.525 0,-39.9 0.52375,0.45 -69.89875,0 0.52375,-0.45"
       style="fill:#000000;fill-opacity:1;fill-rule:nonzero;stroke:none"
       id="path13625" />
    <text
       id="text13627"
       x="680.92676"
       y="645.25146"
       style="font-size:15px">
      <tspan
         style="font-size:24.30000114px;font-variant:normal;font-weight:bold;font-stretch:normal;writing-mode:lr-tb;fill:#000000;fill-opacity:1;fill-rule:nonzero;stroke:none;font-family:Arial;-inkscape-font-specification:Arial-BoldMT"
         x="680.92676 701.17596"
         y="645.25146"
         sodipodi:role="line"
         id="tspan13629">ME</tspan>
    </text>
    <path
       inkscape:connector-curvature="0"
       d="m 734.10112,616.82647 0,39.9 69.9,0 0,-39.9 -69.9,0 z"
       style="fill:#99ffcc;fill-opacity:1;fill-rule:nonzero;stroke:none"
       id="path13631" />
    <path
       inkscape:connector-curvature="0"
       d="m 733.57737,657.25147 0,-40.95 70.95,0 0,40.95 -70.95,0 z m 0,-40.95 z m 1.05,40.425 -0.52625,-0.525 69.90125,0 -0.52625,0.525 0,-39.9 0.52625,0.45 -69.90125,0 0.52625,-0.45"
       style="fill:#000000;fill-opacity:1;fill-rule:nonzero;stroke:none"
       id="path13633" />
    <text
       id="text13635"
       x="748.80176"
       y="645.25146"
       style="font-size:15px">
      <tspan
         style="font-size:24.30000114px;font-variant:normal;font-weight:bold;font-stretch:normal;writing-mode:lr-tb;fill:#000000;fill-opacity:1;fill-rule:nonzero;stroke:none;font-family:Arial;-inkscape-font-specification:Arial-BoldMT"
         x="748.80176 771.75555"
         y="645.25146"
         sodipodi:role="line"
         id="tspan13637">WB</tspan>
    </text>
    <path
       inkscape:connector-curvature="0"
       d="m 524.40237,666.17647 0,39.975 69.9,0 0,-39.975 -69.9,0 z"
       style="fill:#99ffcc;fill-opacity:1;fill-rule:nonzero;stroke:none"
       id="path13639" />
    <path
       inkscape:connector-curvature="0"
       d="m 523.95237,706.67647 0,-40.95 70.875,0 0,40.95 -70.875,0 z m 0,-40.95 z m 0.975,40.425 -0.525,-0.525 69.9,0 -0.52625,0.525 0,-39.975 0.52625,0.525 -69.9,0 0.525,-0.525"
       style="fill:#000000;fill-opacity:1;fill-rule:nonzero;stroke:none"
       id="path13641" />
    <text
       id="text13643"
       x="548.55176"
       y="694.67645"
       style="font-size:15px">
      <tspan
         style="font-size:24.30000114px;font-variant:normal;font-weight:bold;font-stretch:normal;writing-mode:lr-tb;fill:#000000;fill-opacity:1;fill-rule:nonzero;stroke:none;font-family:Arial;-inkscape-font-specification:Arial-BoldMT"
         x="548.55176 555.30475"
         y="694.67645"
         sodipodi:role="line"
         id="tspan13645">IF</tspan>
    </text>
    <path
       inkscape:connector-curvature="0"
       d="m 594.30237,666.17647 0,39.975 69.9,0 0,-39.975 -69.9,0 z"
       style="fill:#99ffcc;fill-opacity:1;fill-rule:nonzero;stroke:none"
       id="path13647" />
    <path
       inkscape:connector-curvature="0"
       d="m 593.77612,706.67647 0,-40.95 70.95,0 0,40.95 -70.95,0 z m 0,-40.95 z m 1.05125,40.425 -0.525,-0.525 69.9,0 -0.525,0.525 0,-39.975 0.525,0.525 -69.9,0 0.525,-0.525"
       style="fill:#000000;fill-opacity:1;fill-rule:nonzero;stroke:none"
       id="path13649" />
    <text
       id="text13651"
       x="617.10175"
       y="694.67645"
       style="font-size:15px">
      <tspan
         style="font-size:24.30000114px;font-variant:normal;font-weight:bold;font-stretch:normal;writing-mode:lr-tb;fill:#000000;fill-opacity:1;fill-rule:nonzero;stroke:none;font-family:Arial;-inkscape-font-specification:Arial-BoldMT"
         x="617.10175 623.85474"
         y="694.67645"
         sodipodi:role="line"
         id="tspan13653">ID</tspan>
    </text>
    <path
       inkscape:connector-curvature="0"
       d="m 664.20237,666.17647 0,39.975 69.9,0 0,-39.975 -69.9,0 z"
       style="fill:#99ffcc;fill-opacity:1;fill-rule:nonzero;stroke:none"
       id="path13655" />
    <path
       inkscape:connector-curvature="0"
       d="m 663.67737,706.67647 0,-40.95 70.95,0 0,40.95 -70.95,0 z m 0,-40.95 z m 1.04875,40.425 -0.52375,-0.525 69.89875,0 -0.52375,0.525 0,-39.975 0.52375,0.525 -69.89875,0 0.52375,-0.525"
       style="fill:#000000;fill-opacity:1;fill-rule:nonzero;stroke:none"
       id="path13657" />
    <text
       id="text13659"
       x="682.95172"
       y="694.67645"
       style="font-size:15px">
      <tspan
         style="font-size:24.30000114px;font-variant:normal;font-weight:bold;font-stretch:normal;writing-mode:lr-tb;fill:#000000;fill-opacity:1;fill-rule:nonzero;stroke:none;font-family:Arial;-inkscape-font-specification:Arial-BoldMT"
         x="682.95172 699.15259"
         y="694.67645"
         sodipodi:role="line"
         id="tspan13661">EX</tspan>
    </text>
    <path
       inkscape:connector-curvature="0"
       d="m 734.10112,666.17647 0,39.975 69.9,0 0,-39.975 -69.9,0 z"
       style="fill:#99ffcc;fill-opacity:1;fill-rule:nonzero;stroke:none"
       id="path13663" />
    <path
       inkscape:connector-curvature="0"
       d="m 733.57737,706.67647 0,-40.95 70.95,0 0,40.95 -70.95,0 z m 0,-40.95 z m 1.05,40.425 -0.52625,-0.525 69.90125,0 -0.52625,0.525 0,-39.975 0.52625,0.525 -69.90125,0 0.52625,-0.525"
       style="fill:#000000;fill-opacity:1;fill-rule:nonzero;stroke:none"
       id="path13665" />
    <text
       id="text13667"
       x="750.82672"
       y="694.67645"
       style="font-size:15px">
      <tspan
         style="font-size:24.30000114px;font-variant:normal;font-weight:bold;font-stretch:normal;writing-mode:lr-tb;fill:#000000;fill-opacity:1;fill-rule:nonzero;stroke:none;font-family:Arial;-inkscape-font-specification:Arial-BoldMT"
         x="750.82672 771.07593"
         y="694.67645"
         sodipodi:role="line"
         id="tspan13669">ME</tspan>
    </text>
    <path
       inkscape:connector-curvature="0"
       d="m 804.00237,666.17647 0,39.975 69.9,0 0,-39.975 -69.9,0 z"
       style="fill:#99ffcc;fill-opacity:1;fill-rule:nonzero;stroke:none"
       id="path13671" />
    <path
       inkscape:connector-curvature="0"
       d="m 803.47612,706.67647 0,-40.95 70.875,0 0,40.95 -70.875,0 z m 0,-40.95 z m 1.05125,40.425 -0.525,-0.525 69.9,0 -0.525,0.525 0,-39.975 0.525,0.525 -69.9,0 0.525,-0.525"
       style="fill:#000000;fill-opacity:1;fill-rule:nonzero;stroke:none"
       id="path13673" />
    <text
       id="text13675"
       x="818.70172"
       y="694.67645"
       style="font-size:15px">
      <tspan
         style="font-size:24.30000114px;font-variant:normal;font-weight:bold;font-stretch:normal;writing-mode:lr-tb;fill:#000000;fill-opacity:1;fill-rule:nonzero;stroke:none;font-family:Arial;-inkscape-font-specification:Arial-BoldMT"
         x="818.70172 841.65552"
         y="694.67645"
         sodipodi:role="line"
         id="tspan13677">WB</tspan>
    </text>
    <text
       id="text13679"
       x="28.651749"
       y="488.50146"
       style="font-size:15px">
      <tspan
         style="font-size:18.89999962px;font-variant:normal;font-weight:bold;font-stretch:normal;writing-mode:lr-tb;fill:#000000;fill-opacity:1;fill-rule:nonzero;stroke:none;font-family:Courier New;-inkscape-font-specification:CourierNewPS-BoldMT"
         x="28.651749 39.953949 51.256149 62.55835 85.166527 96.468735 107.77093 119.07313 130.37723 141.67941 152.98163 164.28381 175.58791 186.89011"
         y="488.50146"
         sodipodi:role="line"
         id="tspan13681">sub $2, $1, $3</tspan>
      <tspan
         style="font-size:18.89999962px;font-variant:normal;font-weight:bold;font-stretch:normal;writing-mode:lr-tb;fill:#000000;fill-opacity:1;fill-rule:nonzero;stroke:none;font-family:Courier New;-inkscape-font-specification:CourierNewPS-BoldMT"
         x="28.651749 39.953949 51.256149 62.55835 73.856773 85.158966 96.461166 107.76337 119.06557 130.36398 141.66618 152.9684 164.27058 175.56902 186.87122"
         y="547.52618"
         sodipodi:role="line"
         id="tspan13683">and $12, $2, $5</tspan>
      <tspan
         style="font-size:18.89999962px;font-variant:normal;font-weight:bold;font-stretch:normal;writing-mode:lr-tb;fill:#000000;fill-opacity:1;fill-rule:nonzero;stroke:none;font-family:Courier New;-inkscape-font-specification:CourierNewPS-BoldMT"
         x="28.651749 39.950169 51.248589 73.856773 85.15519 96.453613 107.75203 119.05045 130.35454 141.65297 152.95139 164.2498 175.55389 186.85231"
         y="604.15057"
         sodipodi:role="line"
         id="tspan13685">or $13, $6, $2</tspan>
      <tspan
         style="font-size:18.89999962px;font-variant:normal;font-weight:bold;font-stretch:normal;writing-mode:lr-tb;fill:#000000;fill-opacity:1;fill-rule:nonzero;stroke:none;font-family:Courier New;-inkscape-font-specification:CourierNewPS-BoldMT"
         x="28.651749 39.953949 51.256149 62.55835 73.856773 85.158966 96.461166 107.76337 119.06557 130.36398 141.66618 152.9684 164.27058 175.56902 186.87122"
         y="660.32513"
         sodipodi:role="line"
         id="tspan13687">add $14, $2, $2</tspan>
      <tspan
         style="font-size:18.89999962px;font-variant:normal;font-weight:bold;font-stretch:normal;writing-mode:lr-tb;fill:#000000;fill-opacity:1;fill-rule:nonzero;stroke:none;font-family:Courier New;-inkscape-font-specification:CourierNewPS-BoldMT"
         x="28.651749 39.953949 51.256149 73.82653 85.128731 96.430931 107.73312 119.03532 130.33752 141.63972 152.94193 164.24414 175.54633 186.84853"
         y="716.94952"
         sodipodi:role="line"
         id="tspan13689">sw $15,100($2)</tspan>
    </text>
    <g
       id="g13691"
       transform="matrix(0,1.25,1.25,0,577.05237,490.22647)">
      <path
         inkscape:connector-curvature="0"
         d="m 0,0 -3.48,-0.84 34.32,-105.54 3.3,0.84 L 0,0"
         style="fill:#ff0000;fill-opacity:1;fill-rule:evenodd;stroke:none"
         id="path13693" />
    </g>
    <g
       id="g13695"
       transform="matrix(0,1.25,1.25,0,443.02737,524.12647)">
      <path
         inkscape:connector-curvature="0"
         d="m 0,0 10.62,-14.7 0.3,18 L 0,0"
         style="fill:#ff0000;fill-opacity:1;fill-rule:evenodd;stroke:none"
         id="path13697" />
    </g>
    <g
       id="g13699"
       transform="matrix(0,1.25,1.25,0,577.95237,489.85147)">
      <path
         inkscape:connector-curvature="0"
         d="M 0,0 -2.52,-2.34 69.9,-51.36 72.42,-49.08 0,0"
         style="fill:#ff0000;fill-opacity:1;fill-rule:evenodd;stroke:none"
         id="path13701" />
    </g>
    <g
       id="g13703"
       transform="matrix(0,1.25,1.25,0,510.82737,573.25147)">
      <path
         inkscape:connector-curvature="0"
         d="M 0,0 19.02,-6 7.92,7.98 0,0"
         style="fill:#ff0000;fill-opacity:1;fill-rule:evenodd;stroke:none"
         id="path13705" />
    </g>
    <g
       id="g13707"
       transform="matrix(0,1.25,1.25,0,578.62612,478.67647)">
      <path
         inkscape:connector-curvature="0"
         d="m 0,0 -0.18,-3.48 115.62,-3.9 0.18,3.48 L 0,0"
         style="fill:#ff0000;fill-opacity:1;fill-rule:evenodd;stroke:none"
         id="path13709" />
    </g>
    <g
       id="g13711"
       transform="matrix(0,1.25,1.25,0,564.45237,621.92647)">
      <path
         inkscape:connector-curvature="0"
         d="M 0,0 20.94,4.98 0.66,11.34 0,0"
         style="fill:#ff0000;fill-opacity:1;fill-rule:evenodd;stroke:none"
         id="path13713" />
    </g>
    <g
       id="g13715"
       transform="matrix(0,1.25,1.25,0,578.92737,490.82647)">
      <path
         inkscape:connector-curvature="0"
         d="M 0,0 1.32,-2.82 147.48,41.16 146.16,43.98 0,0"
         style="fill:#339966;fill-opacity:1;fill-rule:evenodd;stroke:none"
         id="path13717" />
    </g>
    <g
       id="g13719"
       transform="matrix(0,1.25,1.25,0,626.32737,676.15147)">
      <path
         inkscape:connector-curvature="0"
         d="M 0,0 15.42,9.9 -3.9,9.3 0,0"
         style="fill:#339966;fill-opacity:1;fill-rule:evenodd;stroke:none"
         id="path13721" />
    </g>
  </g>
</svg>
