<?xml version="1.0" encoding="UTF-8" standalone="no"?>
<!-- Created with Inkscape (http://www.inkscape.org/) -->

<svg
   xmlns:dc="http://purl.org/dc/elements/1.1/"
   xmlns:cc="http://creativecommons.org/ns#"
   xmlns:rdf="http://www.w3.org/1999/02/22-rdf-syntax-ns#"
   xmlns:svg="http://www.w3.org/2000/svg"
   xmlns="http://www.w3.org/2000/svg"
   xmlns:sodipodi="http://sodipodi.sourceforge.net/DTD/sodipodi-0.dtd"
   xmlns:inkscape="http://www.inkscape.org/namespaces/inkscape"
   width="1002.855"
   height="356.26102"
   id="svg14674"
   version="1.1"
   inkscape:version="0.48.4 r9939"
   sodipodi:docname="New document 37">
  <defs
     id="defs14676">
    <clipPath
       id="clipPath14702"
       clipPathUnits="userSpaceOnUse">
      <path
         id="path14704"
         d="m 0,841.98 595.2,0 L 595.2,0 0,0 0,841.98 z"
         inkscape:connector-curvature="0" />
    </clipPath>
    <clipPath
       id="clipPath14696"
       clipPathUnits="userSpaceOnUse">
      <path
         id="path14698"
         clip-rule="evenodd"
         d="m 588.84,0.11053 -582.84,0 0,841.86 582.84,0 0,-841.86 z"
         inkscape:connector-curvature="0" />
    </clipPath>
  </defs>
  <sodipodi:namedview
     id="base"
     pagecolor="#ffffff"
     bordercolor="#666666"
     borderopacity="1.0"
     inkscape:pageopacity="0.0"
     inkscape:pageshadow="2"
     inkscape:zoom="0.49497475"
     inkscape:cx="441.33624"
     inkscape:cy="258.76795"
     inkscape:document-units="px"
     inkscape:current-layer="layer1"
     showgrid="false"
     fit-margin-top="10"
     fit-margin-left="10"
     fit-margin-right="10"
     fit-margin-bottom="10"
     inkscape:window-width="954"
     inkscape:window-height="1028"
     inkscape:window-x="0"
     inkscape:window-y="0"
     inkscape:window-maximized="0" />
  <metadata
     id="metadata14679">
    <rdf:RDF>
      <cc:Work
         rdf:about="">
        <dc:format>image/svg+xml</dc:format>
        <dc:type
           rdf:resource="http://purl.org/dc/dcmitype/StillImage" />
        <dc:title></dc:title>
      </cc:Work>
    </rdf:RDF>
  </metadata>
  <g
     inkscape:label="Layer 1"
     inkscape:groupmode="layer"
     id="layer1"
     transform="translate(66.545451,-432.35861)">
    <path
       inkscape:connector-curvature="0"
       d="m 144.58452,442.88361 0,39.975 65.325,0 0,-39.975 -65.325,0 z"
       style="fill:#99ffcc;fill-opacity:1;fill-rule:nonzero;stroke:none"
       id="path14732" />
    <path
       inkscape:connector-curvature="0"
       d="m 144.13452,483.38361 0,-41.025 66.225,0 0,41.025 -66.225,0 z m 0,-41.025 z m 0.975,40.5 -0.525,-0.525 65.325,0 -0.525,0.525 0,-39.975 0.525,0.525 -65.325,0 0.525,-0.525"
       style="fill:#000000;fill-opacity:1;fill-rule:nonzero;stroke:none"
       id="path14734" />
    <text
       id="text14736"
       x="166.48389"
       y="471.30862"
       style="font-size:15px">
      <tspan
         style="font-size:24.30000114px;font-variant:normal;font-weight:bold;font-stretch:normal;writing-mode:lr-tb;fill:#000000;fill-opacity:1;fill-rule:nonzero;stroke:none;font-family:Arial;-inkscape-font-specification:Arial-BoldMT"
         x="166.48389 173.23686"
         y="471.30862"
         sodipodi:role="line"
         id="tspan14738">IF</tspan>
    </text>
    <path
       inkscape:connector-curvature="0"
       d="m 209.90952,442.88361 0,39.975 65.1,0 0,-39.975 -65.1,0 z"
       style="fill:#99ffcc;fill-opacity:1;fill-rule:nonzero;stroke:none"
       id="path14740" />
    <path
       inkscape:connector-curvature="0"
       d="m 209.38452,483.38361 0,-41.025 66.075,0 0,41.025 -66.075,0 z m 0,-41.025 z m 0.975,40.5 -0.45,-0.525 65.1,0 -0.525,0.525 0,-39.975 0.525,0.525 -65.1,0 0.45,-0.525"
       style="fill:#000000;fill-opacity:1;fill-rule:nonzero;stroke:none"
       id="path14742" />
    <text
       id="text14744"
       x="230.30888"
       y="471.30862"
       style="font-size:15px">
      <tspan
         style="font-size:24.30000114px;font-variant:normal;font-weight:bold;font-stretch:normal;writing-mode:lr-tb;fill:#000000;fill-opacity:1;fill-rule:nonzero;stroke:none;font-family:Arial;-inkscape-font-specification:Arial-BoldMT"
         x="230.30888 237.06186"
         y="471.30862"
         sodipodi:role="line"
         id="tspan14746">ID</tspan>
    </text>
    <path
       inkscape:connector-curvature="0"
       d="m 275.00952,442.88361 0,39.975 65.25,0 0,-39.975 -65.25,0 z"
       style="fill:#99ffcc;fill-opacity:1;fill-rule:nonzero;stroke:none"
       id="path14748" />
    <path
       inkscape:connector-curvature="0"
       d="m 274.48452,483.38361 0,-41.025 66.3,0 0,41.025 -66.3,0 z m 0,-41.025 z m 0.975,40.5 -0.45,-0.525 65.25,0 -0.525,0.525 0,-39.975 0.525,0.525 -65.25,0 0.45,-0.525"
       style="fill:#000000;fill-opacity:1;fill-rule:nonzero;stroke:none"
       id="path14750" />
    <text
       id="text14752"
       x="291.4339"
       y="471.30862"
       style="font-size:15px">
      <tspan
         style="font-size:24.30000114px;font-variant:normal;font-weight:bold;font-stretch:normal;writing-mode:lr-tb;fill:#000000;fill-opacity:1;fill-rule:nonzero;stroke:none;font-family:Arial;-inkscape-font-specification:Arial-BoldMT"
         x="291.4339 307.6347"
         y="471.30862"
         sodipodi:role="line"
         id="tspan14754">EX</tspan>
    </text>
    <path
       inkscape:connector-curvature="0"
       d="m 340.25952,442.88361 0,39.975 65.25,0 0,-39.975 -65.25,0 z"
       style="fill:#99ffcc;fill-opacity:1;fill-rule:nonzero;stroke:none"
       id="path14756" />
    <path
       inkscape:connector-curvature="0"
       d="m 339.73452,483.38361 0,-41.025 66.3,0 0,41.025 -66.3,0 z m 0,-41.025 z m 1.05,40.5 -0.525,-0.525 65.25,0 -0.525,0.525 0,-39.975 0.525,0.525 -65.25,0 0.525,-0.525"
       style="fill:#000000;fill-opacity:1;fill-rule:nonzero;stroke:none"
       id="path14758" />
    <text
       id="text14760"
       x="354.65891"
       y="471.30862"
       style="font-size:15px">
      <tspan
         style="font-size:24.30000114px;font-variant:normal;font-weight:bold;font-stretch:normal;writing-mode:lr-tb;fill:#000000;fill-opacity:1;fill-rule:nonzero;stroke:none;font-family:Arial;-inkscape-font-specification:Arial-BoldMT"
         x="354.65891 374.90808"
         y="471.30862"
         sodipodi:role="line"
         id="tspan14762">ME</tspan>
    </text>
    <path
       inkscape:connector-curvature="0"
       d="m 405.50952,442.88361 0,39.975 65.1,0 0,-39.975 -65.1,0 z"
       style="fill:#99ffcc;fill-opacity:1;fill-rule:nonzero;stroke:none"
       id="path14764" />
    <path
       inkscape:connector-curvature="0"
       d="m 404.98452,483.38361 0,-41.025 66.15,0 0,41.025 -66.15,0 z m 0,-41.025 z m 1.05,40.5 -0.525,-0.525 65.1,0 -0.525,0.525 0,-39.975 0.525,0.525 -65.1,0 0.525,-0.525"
       style="fill:#000000;fill-opacity:1;fill-rule:nonzero;stroke:none"
       id="path14766" />
    <text
       id="text14768"
       x="417.8089"
       y="471.30862"
       style="font-size:15px">
      <tspan
         style="font-size:24.30000114px;font-variant:normal;font-weight:bold;font-stretch:normal;writing-mode:lr-tb;fill:#000000;fill-opacity:1;fill-rule:nonzero;stroke:none;font-family:Arial;-inkscape-font-specification:Arial-BoldMT"
         x="417.8089 440.76266"
         y="471.30862"
         sodipodi:role="line"
         id="tspan14770">WB</tspan>
    </text>
    <path
       inkscape:connector-curvature="0"
       d="m 209.90952,485.40861 0,39.9 65.1,0 0,-39.9 -65.1,0 z"
       style="fill:#dddddd;fill-opacity:1;fill-rule:nonzero;stroke:none"
       id="path14772" />
    <path
       inkscape:connector-curvature="0"
       d="m 209.38452,525.83361 0,-40.95 66.075,0 0,40.95 -66.075,0 z m 0,-40.95 z m 0.975,40.425 -0.45,-0.45 65.1,0 -0.525,0.45 0,-39.9 0.525,0.45 -65.1,0 0.45,-0.45"
       style="fill:#000000;fill-opacity:1;fill-rule:nonzero;stroke:none"
       id="path14774" />
    <text
       id="text14776"
       x="231.65889"
       y="513.83362"
       style="font-size:15px">
      <tspan
         style="font-size:24.30000114px;font-variant:normal;font-weight:bold;font-stretch:normal;writing-mode:lr-tb;fill:#000000;fill-opacity:1;fill-rule:nonzero;stroke:none;font-family:Arial;-inkscape-font-specification:Arial-BoldMT"
         x="231.65889 238.41187"
         y="513.83362"
         sodipodi:role="line"
         id="tspan14778">IF</tspan>
    </text>
    <path
       inkscape:connector-curvature="0"
       d="m 275.00952,485.40861 0,39.9 65.25,0 0,-39.9 -65.25,0 z"
       style="fill:#dddddd;fill-opacity:1;fill-rule:nonzero;stroke:none"
       id="path14780" />
    <path
       inkscape:connector-curvature="0"
       d="m 274.48452,525.83361 0,-40.95 66.3,0 0,40.95 -66.3,0 z m 0,-40.95 z m 0.975,40.425 -0.45,-0.45 65.25,0 -0.525,0.45 0,-39.9 0.525,0.45 -65.25,0 0.45,-0.45"
       style="fill:#000000;fill-opacity:1;fill-rule:nonzero;stroke:none"
       id="path14782" />
    <text
       id="text14784"
       x="295.48389"
       y="513.83362"
       style="font-size:15px">
      <tspan
         style="font-size:24.30000114px;font-variant:normal;font-weight:bold;font-stretch:normal;writing-mode:lr-tb;fill:#000000;fill-opacity:1;fill-rule:nonzero;stroke:none;font-family:Arial;-inkscape-font-specification:Arial-BoldMT"
         x="295.48389 302.23685"
         y="513.83362"
         sodipodi:role="line"
         id="tspan14786">ID</tspan>
    </text>
    <path
       inkscape:connector-curvature="0"
       d="m 340.25952,485.40861 0,39.9 65.25,0 0,-39.9 -65.25,0 z"
       style="fill:#dddddd;fill-opacity:1;fill-rule:nonzero;stroke:none"
       id="path14788" />
    <path
       inkscape:connector-curvature="0"
       d="m 339.73452,525.83361 0,-40.95 66.3,0 0,40.95 -66.3,0 z m 0,-40.95 z m 1.05,40.425 -0.525,-0.45 65.25,0 -0.525,0.45 0,-39.9 0.525,0.45 -65.25,0 0.525,-0.45"
       style="fill:#000000;fill-opacity:1;fill-rule:nonzero;stroke:none"
       id="path14790" />
    <text
       id="text14792"
       x="356.6839"
       y="513.83362"
       style="font-size:15px">
      <tspan
         style="font-size:24.30000114px;font-variant:normal;font-weight:bold;font-stretch:normal;writing-mode:lr-tb;fill:#000000;fill-opacity:1;fill-rule:nonzero;stroke:none;font-family:Arial;-inkscape-font-specification:Arial-BoldMT"
         x="356.6839 372.8847"
         y="513.83362"
         sodipodi:role="line"
         id="tspan14794">EX</tspan>
    </text>
    <path
       inkscape:connector-curvature="0"
       d="m 405.50952,485.40861 0,39.9 65.1,0 0,-39.9 -65.1,0 z"
       style="fill:#dddddd;fill-opacity:1;fill-rule:nonzero;stroke:none"
       id="path14796" />
    <path
       inkscape:connector-curvature="0"
       d="m 404.98452,525.83361 0,-40.95 66.15,0 0,40.95 -66.15,0 z m 0,-40.95 z m 1.05,40.425 -0.525,-0.45 65.1,0 -0.525,0.45 0,-39.9 0.525,0.45 -65.1,0 0.525,-0.45"
       style="fill:#000000;fill-opacity:1;fill-rule:nonzero;stroke:none"
       id="path14798" />
    <text
       id="text14800"
       x="419.83389"
       y="513.83362"
       style="font-size:15px">
      <tspan
         style="font-size:24.30000114px;font-variant:normal;font-weight:bold;font-stretch:normal;writing-mode:lr-tb;fill:#000000;fill-opacity:1;fill-rule:nonzero;stroke:none;font-family:Arial;-inkscape-font-specification:Arial-BoldMT"
         x="419.83389 440.08307"
         y="513.83362"
         sodipodi:role="line"
         id="tspan14802">ME</tspan>
    </text>
    <path
       inkscape:connector-curvature="0"
       d="m 470.60952,485.40861 0,39.9 65.25,0 0,-39.9 -65.25,0 z"
       style="fill:#dddddd;fill-opacity:1;fill-rule:nonzero;stroke:none"
       id="path14804" />
    <path
       inkscape:connector-curvature="0"
       d="m 470.08452,525.83361 0,-40.95 66.3,0 0,40.95 -66.3,0 z m 0,-40.95 z m 1.05,40.425 -0.525,-0.45 65.24875,0 -0.52375,0.45 0,-39.9 0.52375,0.45 -65.24875,0 0.525,-0.45"
       style="fill:#000000;fill-opacity:1;fill-rule:nonzero;stroke:none"
       id="path14806" />
    <text
       id="text14808"
       x="483.0589"
       y="513.83362"
       style="font-size:15px">
      <tspan
         style="font-size:24.30000114px;font-variant:normal;font-weight:bold;font-stretch:normal;writing-mode:lr-tb;fill:#000000;fill-opacity:1;fill-rule:nonzero;stroke:none;font-family:Arial;-inkscape-font-specification:Arial-BoldMT"
         x="483.0589 506.01266"
         y="513.83362"
         sodipodi:role="line"
         id="tspan14810">WB</tspan>
    </text>
    <path
       inkscape:connector-curvature="0"
       d="m 275.00952,528.00861 0,39.975 65.25,0 0,-39.975 -65.25,0 z"
       style="fill:#dddddd;fill-opacity:1;fill-rule:nonzero;stroke:none"
       id="path14812" />
    <path
       inkscape:connector-curvature="0"
       d="m 274.48452,568.50861 0,-40.95 66.3,0 0,40.95 -66.3,0 z m 0,-40.95 z m 0.975,40.425 -0.45,-0.45 65.25,0 -0.525,0.45 0,-39.975 0.525,0.525 -65.25,0 0.45,-0.525"
       style="fill:#000000;fill-opacity:1;fill-rule:nonzero;stroke:none"
       id="path14814" />
    <text
       id="text14816"
       x="296.83389"
       y="556.50861"
       style="font-size:15px">
      <tspan
         style="font-size:24.30000114px;font-variant:normal;font-weight:bold;font-stretch:normal;writing-mode:lr-tb;fill:#000000;fill-opacity:1;fill-rule:nonzero;stroke:none;font-family:Arial;-inkscape-font-specification:Arial-BoldMT"
         x="296.83389 303.58685"
         y="556.50861"
         sodipodi:role="line"
         id="tspan14818">IF</tspan>
    </text>
    <path
       inkscape:connector-curvature="0"
       d="m 340.25952,528.00861 0,39.975 65.25,0 0,-39.975 -65.25,0 z"
       style="fill:#dddddd;fill-opacity:1;fill-rule:nonzero;stroke:none"
       id="path14820" />
    <path
       inkscape:connector-curvature="0"
       d="m 339.73452,568.50861 0,-40.95 66.3,0 0,40.95 -66.3,0 z m 0,-40.95 z m 1.05,40.425 -0.525,-0.45 65.25,0 -0.525,0.45 0,-39.975 0.525,0.525 -65.25,0 0.525,-0.525"
       style="fill:#000000;fill-opacity:1;fill-rule:nonzero;stroke:none"
       id="path14822" />
    <text
       id="text14824"
       x="360.73389"
       y="556.50861"
       style="font-size:15px">
      <tspan
         style="font-size:24.30000114px;font-variant:normal;font-weight:bold;font-stretch:normal;writing-mode:lr-tb;fill:#000000;fill-opacity:1;fill-rule:nonzero;stroke:none;font-family:Arial;-inkscape-font-specification:Arial-BoldMT"
         x="360.73389 367.48688"
         y="556.50861"
         sodipodi:role="line"
         id="tspan14826">ID</tspan>
    </text>
    <path
       inkscape:connector-curvature="0"
       d="m 405.50952,528.00861 0,39.975 65.1,0 0,-39.975 -65.1,0 z"
       style="fill:#dddddd;fill-opacity:1;fill-rule:nonzero;stroke:none"
       id="path14828" />
    <path
       inkscape:connector-curvature="0"
       d="m 404.98452,568.50861 0,-40.95 66.15,0 0,40.95 -66.15,0 z m 0,-40.95 z m 1.05,40.425 -0.525,-0.45 65.1,0 -0.525,0.45 0,-39.975 0.525,0.525 -65.1,0 0.525,-0.525"
       style="fill:#000000;fill-opacity:1;fill-rule:nonzero;stroke:none"
       id="path14830" />
    <text
       id="text14832"
       x="421.85889"
       y="556.50861"
       style="font-size:15px">
      <tspan
         style="font-size:24.30000114px;font-variant:normal;font-weight:bold;font-stretch:normal;writing-mode:lr-tb;fill:#000000;fill-opacity:1;fill-rule:nonzero;stroke:none;font-family:Arial;-inkscape-font-specification:Arial-BoldMT"
         x="421.85889 438.05969"
         y="556.50861"
         sodipodi:role="line"
         id="tspan14834">EX</tspan>
    </text>
    <path
       inkscape:connector-curvature="0"
       d="m 470.60952,528.00861 0,39.975 65.25,0 0,-39.975 -65.25,0 z"
       style="fill:#dddddd;fill-opacity:1;fill-rule:nonzero;stroke:none"
       id="path14836" />
    <path
       inkscape:connector-curvature="0"
       d="m 470.08452,568.50861 0,-40.95 66.3,0 0,40.95 -66.3,0 z m 0,-40.95 z m 1.05,40.425 -0.525,-0.45 65.24875,0 -0.52375,0.45 0,-39.975 0.52375,0.525 -65.24875,0 0.525,-0.525"
       style="fill:#000000;fill-opacity:1;fill-rule:nonzero;stroke:none"
       id="path14838" />
    <text
       id="text14840"
       x="485.08389"
       y="556.50861"
       style="font-size:15px">
      <tspan
         style="font-size:24.30000114px;font-variant:normal;font-weight:bold;font-stretch:normal;writing-mode:lr-tb;fill:#000000;fill-opacity:1;fill-rule:nonzero;stroke:none;font-family:Arial;-inkscape-font-specification:Arial-BoldMT"
         x="485.08389 505.33307"
         y="556.50861"
         sodipodi:role="line"
         id="tspan14842">ME</tspan>
    </text>
    <path
       inkscape:connector-curvature="0"
       d="m 535.85827,528.00861 0,39.975 65.25,0 0,-39.975 -65.25,0 z"
       style="fill:#dddddd;fill-opacity:1;fill-rule:nonzero;stroke:none"
       id="path14844" />
    <path
       inkscape:connector-curvature="0"
       d="m 535.33452,568.50861 0,-40.95 66.3,0 0,40.95 -66.3,0 z m 0,-40.95 z m 1.04875,40.425 -0.525,-0.45 65.25,0 -0.44875,0.45 0,-39.975 0.44875,0.525 -65.25,0 0.525,-0.525"
       style="fill:#000000;fill-opacity:1;fill-rule:nonzero;stroke:none"
       id="path14846" />
    <text
       id="text14848"
       x="548.3089"
       y="556.50861"
       style="font-size:15px">
      <tspan
         style="font-size:24.30000114px;font-variant:normal;font-weight:bold;font-stretch:normal;writing-mode:lr-tb;fill:#000000;fill-opacity:1;fill-rule:nonzero;stroke:none;font-family:Arial;-inkscape-font-specification:Arial-BoldMT"
         x="548.3089 571.2627"
         y="556.50861"
         sodipodi:role="line"
         id="tspan14850">WB</tspan>
    </text>
    <path
       inkscape:connector-curvature="0"
       d="m 340.25952,570.53361 0,39.975 65.25,0 0,-39.975 -65.25,0 z"
       style="fill:#dddddd;fill-opacity:1;fill-rule:nonzero;stroke:none"
       id="path14852" />
    <path
       inkscape:connector-curvature="0"
       d="m 339.73452,611.03361 0,-41.025 66.3,0 0,41.025 -66.3,0 z m 0,-41.025 z m 1.05,40.5 -0.525,-0.525 65.25,0 -0.525,0.525 0,-39.975 0.525,0.525 -65.25,0 0.525,-0.525"
       style="fill:#000000;fill-opacity:1;fill-rule:nonzero;stroke:none"
       id="path14854" />
    <text
       id="text14856"
       x="362.08389"
       y="599.03363"
       style="font-size:15px">
      <tspan
         style="font-size:24.30000114px;font-variant:normal;font-weight:bold;font-stretch:normal;writing-mode:lr-tb;fill:#000000;fill-opacity:1;fill-rule:nonzero;stroke:none;font-family:Arial;-inkscape-font-specification:Arial-BoldMT"
         x="362.08389 368.83685"
         y="599.03363"
         sodipodi:role="line"
         id="tspan14858">IF</tspan>
    </text>
    <path
       inkscape:connector-curvature="0"
       d="m 405.50952,570.53361 0,39.975 65.1,0 0,-39.975 -65.1,0 z"
       style="fill:#dddddd;fill-opacity:1;fill-rule:nonzero;stroke:none"
       id="path14860" />
    <path
       inkscape:connector-curvature="0"
       d="m 404.98452,611.03361 0,-41.025 66.15,0 0,41.025 -66.15,0 z m 0,-41.025 z m 1.05,40.5 -0.525,-0.525 65.1,0 -0.525,0.525 0,-39.975 0.525,0.525 -65.1,0 0.525,-0.525"
       style="fill:#000000;fill-opacity:1;fill-rule:nonzero;stroke:none"
       id="path14862" />
    <text
       id="text14864"
       x="425.90891"
       y="599.03363"
       style="font-size:15px">
      <tspan
         style="font-size:24.30000114px;font-variant:normal;font-weight:bold;font-stretch:normal;writing-mode:lr-tb;fill:#000000;fill-opacity:1;fill-rule:nonzero;stroke:none;font-family:Arial;-inkscape-font-specification:Arial-BoldMT"
         x="425.90891 432.66187"
         y="599.03363"
         sodipodi:role="line"
         id="tspan14866">ID</tspan>
    </text>
    <path
       inkscape:connector-curvature="0"
       d="m 470.60952,570.53361 0,39.975 65.25,0 0,-39.975 -65.25,0 z"
       style="fill:#dddddd;fill-opacity:1;fill-rule:nonzero;stroke:none"
       id="path14868" />
    <path
       inkscape:connector-curvature="0"
       d="m 470.08452,611.03361 0,-41.025 66.3,0 0,41.025 -66.3,0 z m 0,-41.025 z m 1.05,40.5 -0.525,-0.525 65.24875,0 -0.52375,0.525 0,-39.975 0.52375,0.525 -65.24875,0 0.525,-0.525"
       style="fill:#000000;fill-opacity:1;fill-rule:nonzero;stroke:none"
       id="path14870" />
    <text
       id="text14872"
       x="487.10889"
       y="599.03363"
       style="font-size:15px">
      <tspan
         style="font-size:24.30000114px;font-variant:normal;font-weight:bold;font-stretch:normal;writing-mode:lr-tb;fill:#000000;fill-opacity:1;fill-rule:nonzero;stroke:none;font-family:Arial;-inkscape-font-specification:Arial-BoldMT"
         x="487.10889 503.30969"
         y="599.03363"
         sodipodi:role="line"
         id="tspan14874">EX</tspan>
    </text>
    <path
       inkscape:connector-curvature="0"
       d="m 535.85827,570.53361 0,39.975 65.25,0 0,-39.975 -65.25,0 z"
       style="fill:#dddddd;fill-opacity:1;fill-rule:nonzero;stroke:none"
       id="path14876" />
    <path
       inkscape:connector-curvature="0"
       d="m 535.33452,611.03361 0,-41.025 66.3,0 0,41.025 -66.3,0 z m 0,-41.025 z m 1.04875,40.5 -0.525,-0.525 65.25,0 -0.44875,0.525 0,-39.975 0.44875,0.525 -65.25,0 0.525,-0.525"
       style="fill:#000000;fill-opacity:1;fill-rule:nonzero;stroke:none"
       id="path14878" />
    <text
       id="text14880"
       x="550.33386"
       y="599.03363"
       style="font-size:15px">
      <tspan
         style="font-size:24.30000114px;font-variant:normal;font-weight:bold;font-stretch:normal;writing-mode:lr-tb;fill:#000000;fill-opacity:1;fill-rule:nonzero;stroke:none;font-family:Arial;-inkscape-font-specification:Arial-BoldMT"
         x="550.33386 570.58307"
         y="599.03363"
         sodipodi:role="line"
         id="tspan14882">ME</tspan>
    </text>
    <path
       inkscape:connector-curvature="0"
       d="m 601.10827,570.53361 0,39.975 65.1,0 0,-39.975 -65.1,0 z"
       style="fill:#dddddd;fill-opacity:1;fill-rule:nonzero;stroke:none"
       id="path14884" />
    <path
       inkscape:connector-curvature="0"
       d="m 600.65952,611.03361 0,-41.025 66.075,0 0,41.025 -66.075,0 z m 0,-41.025 z m 0.97375,40.5 -0.525,-0.525 65.10125,0 -0.45,0.525 0,-39.975 0.45,0.525 -65.10125,0 0.525,-0.525"
       style="fill:#000000;fill-opacity:1;fill-rule:nonzero;stroke:none"
       id="path14886" />
    <text
       id="text14888"
       x="613.40887"
       y="599.03363"
       style="font-size:15px">
      <tspan
         style="font-size:24.30000114px;font-variant:normal;font-weight:bold;font-stretch:normal;writing-mode:lr-tb;fill:#000000;fill-opacity:1;fill-rule:nonzero;stroke:none;font-family:Arial;-inkscape-font-specification:Arial-BoldMT"
         x="613.40887 636.36267"
         y="599.03363"
         sodipodi:role="line"
         id="tspan14890">WB</tspan>
    </text>
    <path
       inkscape:connector-curvature="0"
       d="m 405.50952,613.05861 0,39.975 65.1,0 0,-39.975 -65.1,0 z"
       style="fill:#99ffcc;fill-opacity:1;fill-rule:nonzero;stroke:none"
       id="path14892" />
    <path
       inkscape:connector-curvature="0"
       d="m 404.98452,653.48361 0,-40.95 66.15,0 0,40.95 -66.15,0 z m 0,-40.95 z m 1.05,40.5 -0.525,-0.525 65.1,0 -0.525,0.525 0,-39.975 0.525,0.45 -65.1,0 0.525,-0.45"
       style="fill:#000000;fill-opacity:1;fill-rule:nonzero;stroke:none"
       id="path14894" />
    <text
       id="text14896"
       x="427.25888"
       y="641.48358"
       style="font-size:15px">
      <tspan
         style="font-size:24.30000114px;font-variant:normal;font-weight:bold;font-stretch:normal;writing-mode:lr-tb;fill:#000000;fill-opacity:1;fill-rule:nonzero;stroke:none;font-family:Arial;-inkscape-font-specification:Arial-BoldMT"
         x="427.25888 434.01187"
         y="641.48358"
         sodipodi:role="line"
         id="tspan14898">IF</tspan>
    </text>
    <path
       inkscape:connector-curvature="0"
       d="m 470.60952,613.05861 0,39.975 65.25,0 0,-39.975 -65.25,0 z"
       style="fill:#99ffcc;fill-opacity:1;fill-rule:nonzero;stroke:none"
       id="path14900" />
    <path
       inkscape:connector-curvature="0"
       d="m 470.08452,653.48361 0,-40.95 66.3,0 0,40.95 -66.3,0 z m 0,-40.95 z m 1.05,40.5 -0.525,-0.525 65.24875,0 -0.52375,0.525 0,-39.975 0.52375,0.45 -65.24875,0 0.525,-0.45"
       style="fill:#000000;fill-opacity:1;fill-rule:nonzero;stroke:none"
       id="path14902" />
    <text
       id="text14904"
       x="491.15891"
       y="641.48358"
       style="font-size:15px">
      <tspan
         style="font-size:24.30000114px;font-variant:normal;font-weight:bold;font-stretch:normal;writing-mode:lr-tb;fill:#000000;fill-opacity:1;fill-rule:nonzero;stroke:none;font-family:Arial;-inkscape-font-specification:Arial-BoldMT"
         x="491.15891 497.91187"
         y="641.48358"
         sodipodi:role="line"
         id="tspan14906">ID</tspan>
    </text>
    <path
       inkscape:connector-curvature="0"
       d="m 535.85827,613.05861 0,39.975 65.25,0 0,-39.975 -65.25,0 z"
       style="fill:#99ffcc;fill-opacity:1;fill-rule:nonzero;stroke:none"
       id="path14908" />
    <path
       inkscape:connector-curvature="0"
       d="m 535.33452,653.48361 0,-40.95 66.3,0 0,40.95 -66.3,0 z m 0,-40.95 z m 1.04875,40.5 -0.525,-0.525 65.25,0 -0.44875,0.525 0,-39.975 0.44875,0.45 -65.25,0 0.525,-0.45"
       style="fill:#000000;fill-opacity:1;fill-rule:nonzero;stroke:none"
       id="path14910" />
    <text
       id="text14912"
       x="552.35889"
       y="641.48358"
       style="font-size:15px">
      <tspan
         style="font-size:24.30000114px;font-variant:normal;font-weight:bold;font-stretch:normal;writing-mode:lr-tb;fill:#000000;fill-opacity:1;fill-rule:nonzero;stroke:none;font-family:Arial;-inkscape-font-specification:Arial-BoldMT"
         x="552.35889 568.55969"
         y="641.48358"
         sodipodi:role="line"
         id="tspan14914">EX</tspan>
    </text>
    <path
       inkscape:connector-curvature="0"
       d="m 601.10827,613.05861 0,39.975 65.1,0 0,-39.975 -65.1,0 z"
       style="fill:#99ffcc;fill-opacity:1;fill-rule:nonzero;stroke:none"
       id="path14916" />
    <path
       inkscape:connector-curvature="0"
       d="m 600.65952,653.48361 0,-40.95 66.075,0 0,40.95 -66.075,0 z m 0,-40.95 z m 0.97375,40.5 -0.525,-0.525 65.10125,0 -0.45,0.525 0,-39.975 0.45,0.45 -65.10125,0 0.525,-0.45"
       style="fill:#000000;fill-opacity:1;fill-rule:nonzero;stroke:none"
       id="path14918" />
    <text
       id="text14920"
       x="615.4339"
       y="641.48358"
       style="font-size:15px">
      <tspan
         style="font-size:24.30000114px;font-variant:normal;font-weight:bold;font-stretch:normal;writing-mode:lr-tb;fill:#000000;fill-opacity:1;fill-rule:nonzero;stroke:none;font-family:Arial;-inkscape-font-specification:Arial-BoldMT"
         x="615.4339 635.68311"
         y="641.48358"
         sodipodi:role="line"
         id="tspan14922">ME</tspan>
    </text>
    <path
       inkscape:connector-curvature="0"
       d="m 666.20952,613.05861 0,39.975 65.325,0 0,-39.975 -65.325,0 z"
       style="fill:#99ffcc;fill-opacity:1;fill-rule:nonzero;stroke:none"
       id="path14924" />
    <path
       inkscape:connector-curvature="0"
       d="m 665.75952,653.48361 0,-40.95 66.225,0 0,40.95 -66.225,0 z m 0,-40.95 z m 0.97375,40.5 -0.52375,-0.525 65.325,0 -0.52625,0.525 0,-39.975 0.52625,0.45 -65.325,0 0.52375,-0.45"
       style="fill:#000000;fill-opacity:1;fill-rule:nonzero;stroke:none"
       id="path14926" />
    <text
       id="text14928"
       x="678.65887"
       y="641.48358"
       style="font-size:15px">
      <tspan
         style="font-size:24.30000114px;font-variant:normal;font-weight:bold;font-stretch:normal;writing-mode:lr-tb;fill:#000000;fill-opacity:1;fill-rule:nonzero;stroke:none;font-family:Arial;-inkscape-font-specification:Arial-BoldMT"
         x="678.65887 701.61267"
         y="641.48358"
         sodipodi:role="line"
         id="tspan14930">WB</tspan>
    </text>
    <text
       id="text14932"
       x="-57.016106"
       y="468.00861"
       style="font-size:15px">
      <tspan
         style="font-size:18.89999962px;font-variant:normal;font-weight:bold;font-stretch:normal;writing-mode:lr-tb;fill:#000000;fill-opacity:1;fill-rule:nonzero;stroke:none;font-family:Courier New;-inkscape-font-specification:CourierNewPS-BoldMT"
         x="-57.016106 -45.713905 -34.411705 -23.109505 -0.50132686 10.800878 22.103077 33.405277 44.70937 56.011562 67.313766 78.615959 89.920052 101.22226"
         y="468.00861"
         sodipodi:role="line"
         id="tspan14934">sub $2, $1, $3</tspan>
      <tspan
         style="font-size:18.89999962px;font-variant:normal;font-weight:bold;font-stretch:normal;writing-mode:lr-tb;fill:#000000;fill-opacity:1;fill-rule:nonzero;stroke:none;font-family:Courier New;-inkscape-font-specification:CourierNewPS-BoldMT"
         x="-57.016106 -45.713905 -34.411705 -23.109505 -11.811084 -0.50888473 10.793315 22.095514 33.397713 44.696133 55.998337 67.300537 78.602737 89.901161 101.20335"
         y="637.95929"
         sodipodi:role="line"
         id="tspan14936">and $12, $2, $5</tspan>
      <tspan
         style="font-size:18.89999962px;font-variant:normal;font-weight:bold;font-stretch:normal;writing-mode:lr-tb;fill:#000000;fill-opacity:1;fill-rule:nonzero;stroke:none;font-family:Courier New;-inkscape-font-specification:CourierNewPS-BoldMT"
         x="-57.016106 -45.717686 -34.419266 -11.811084 -0.51266605 10.785757 22.084175 33.382599 44.68668 55.985107 67.283524 78.581947 89.88604 101.18446"
         y="686.55878"
         sodipodi:role="line"
         id="tspan14938">or $13, $6, $2</tspan>
      <tspan
         style="font-size:18.89999962px;font-variant:normal;font-weight:bold;font-stretch:normal;writing-mode:lr-tb;fill:#000000;fill-opacity:1;fill-rule:nonzero;stroke:none;font-family:Courier New;-inkscape-font-specification:CourierNewPS-BoldMT"
         x="-57.016106 -45.713905 -34.411705 -23.109505 -11.811084 -0.50888473 10.793315 22.095514 33.397713 44.696133 55.998337 67.300537 78.602737 89.901161 101.20335"
         y="726.68347"
         sodipodi:role="line"
         id="tspan14940">add $14, $2, $2</tspan>
      <tspan
         style="font-size:18.89999962px;font-variant:normal;font-weight:bold;font-stretch:normal;writing-mode:lr-tb;fill:#000000;fill-opacity:1;fill-rule:nonzero;stroke:none;font-family:Courier New;-inkscape-font-specification:CourierNewPS-BoldMT"
         x="-57.016106 -45.713905 -34.411705 -11.841325 -0.53912574 10.763074 22.065273 33.367474 44.669678 55.97187 67.274078 78.576279 89.878471 101.18068"
         y="775.58344"
         sodipodi:role="line"
         id="tspan14942">sw $15,100($2)</tspan>
    </text>
    <g
       id="g14944"
       transform="matrix(0,1.25,1.25,0,456.43452,462.08361)">
      <path
         inkscape:connector-curvature="0"
         d="m 0,0 1.14,-2.7 125.82,40.98 -1.2,2.64 L 0,0"
         style="fill:#339966;fill-opacity:1;fill-rule:evenodd;stroke:none"
         id="path14946" />
    </g>
    <g
       id="g14948"
       transform="matrix(0,1.25,1.25,0,500.53452,621.53361)">
      <path
         inkscape:connector-curvature="0"
         d="M 0,0 13.32,9.24 -3.3,8.7 0,0"
         style="fill:#339966;fill-opacity:1;fill-rule:evenodd;stroke:none"
         id="path14950" />
    </g>
    <path
       inkscape:connector-curvature="0"
       d="m 470.23452,655.50861 0,39.975 65.1,0 0,-39.975 -65.1,0 z"
       style="fill:#99ffcc;fill-opacity:1;fill-rule:nonzero;stroke:none"
       id="path14952" />
    <path
       inkscape:connector-curvature="0"
       d="m 469.78452,696.00861 0,-40.95 66.075,0 0,40.95 -66.075,0 z m 0,-40.95 z m 0.975,40.425 -0.525,-0.45 65.1,0 -0.45,0.45 0,-39.975 0.45,0.525 -65.1,0 0.525,-0.525"
       style="fill:#000000;fill-opacity:1;fill-rule:nonzero;stroke:none"
       id="path14954" />
    <text
       id="text14956"
       x="491.98389"
       y="684.00861"
       style="font-size:15px">
      <tspan
         style="font-size:24.30000114px;font-variant:normal;font-weight:bold;font-stretch:normal;writing-mode:lr-tb;fill:#000000;fill-opacity:1;fill-rule:nonzero;stroke:none;font-family:Arial;-inkscape-font-specification:Arial-BoldMT"
         x="491.98389 498.73685"
         y="684.00861"
         sodipodi:role="line"
         id="tspan14958">IF</tspan>
    </text>
    <path
       inkscape:connector-curvature="0"
       d="m 535.33452,655.50861 0,39.975 65.325,0 0,-39.975 -65.325,0 z"
       style="fill:#99ffcc;fill-opacity:1;fill-rule:nonzero;stroke:none"
       id="path14960" />
    <path
       inkscape:connector-curvature="0"
       d="m 534.88452,696.00861 0,-40.95 66.225,0 0,40.95 -66.225,0 z m 0,-40.95 z m 0.97375,40.425 -0.52375,-0.45 65.325,0 -0.525,0.45 0,-39.975 0.525,0.525 -65.325,0 0.52375,-0.525"
       style="fill:#000000;fill-opacity:1;fill-rule:nonzero;stroke:none"
       id="path14962" />
    <text
       id="text14964"
       x="555.88391"
       y="684.00861"
       style="font-size:15px">
      <tspan
         style="font-size:24.30000114px;font-variant:normal;font-weight:bold;font-stretch:normal;writing-mode:lr-tb;fill:#000000;fill-opacity:1;fill-rule:nonzero;stroke:none;font-family:Arial;-inkscape-font-specification:Arial-BoldMT"
         x="555.88391 562.63684"
         y="684.00861"
         sodipodi:role="line"
         id="tspan14966">ID</tspan>
    </text>
    <path
       inkscape:connector-curvature="0"
       d="m 600.65952,655.50861 0,39.975 65.25,0 0,-39.975 -65.25,0 z"
       style="fill:#99ffcc;fill-opacity:1;fill-rule:nonzero;stroke:none"
       id="path14968" />
    <path
       inkscape:connector-curvature="0"
       d="m 600.13452,696.00861 0,-40.95 66.3,0 0,40.95 -66.3,0 z m 0,-40.95 z m 0.97375,40.425 -0.44875,-0.45 65.25,0 -0.52625,0.45 0,-39.975 0.52625,0.525 -65.25,0 0.44875,-0.525"
       style="fill:#000000;fill-opacity:1;fill-rule:nonzero;stroke:none"
       id="path14970" />
    <text
       id="text14972"
       x="617.08386"
       y="684.00861"
       style="font-size:15px">
      <tspan
         style="font-size:24.30000114px;font-variant:normal;font-weight:bold;font-stretch:normal;writing-mode:lr-tb;fill:#000000;fill-opacity:1;fill-rule:nonzero;stroke:none;font-family:Arial;-inkscape-font-specification:Arial-BoldMT"
         x="617.08386 633.28473"
         y="684.00861"
         sodipodi:role="line"
         id="tspan14974">EX</tspan>
    </text>
    <path
       inkscape:connector-curvature="0"
       d="m 665.90952,655.50861 0,39.975 65.1,0 0,-39.975 -65.1,0 z"
       style="fill:#99ffcc;fill-opacity:1;fill-rule:nonzero;stroke:none"
       id="path14976" />
    <path
       inkscape:connector-curvature="0"
       d="m 665.38327,696.00861 0,-40.95 66.15,0 0,40.95 -66.15,0 z m 0,-40.95 z m 1.05125,40.425 -0.525,-0.45 65.09875,0 -0.525,0.45 0,-39.975 0.525,0.525 -65.09875,0 0.525,-0.525"
       style="fill:#000000;fill-opacity:1;fill-rule:nonzero;stroke:none"
       id="path14978" />
    <text
       id="text14980"
       x="680.23389"
       y="684.00861"
       style="font-size:15px">
      <tspan
         style="font-size:24.30000114px;font-variant:normal;font-weight:bold;font-stretch:normal;writing-mode:lr-tb;fill:#000000;fill-opacity:1;fill-rule:nonzero;stroke:none;font-family:Arial;-inkscape-font-specification:Arial-BoldMT"
         x="680.23389 700.48309"
         y="684.00861"
         sodipodi:role="line"
         id="tspan14982">ME</tspan>
    </text>
    <path
       inkscape:connector-curvature="0"
       d="m 731.00827,655.50861 0,39.975 65.25,0 0,-39.975 -65.25,0 z"
       style="fill:#99ffcc;fill-opacity:1;fill-rule:nonzero;stroke:none"
       id="path14984" />
    <path
       inkscape:connector-curvature="0"
       d="m 730.48327,696.00861 0,-40.95 66.3,0 0,40.95 -66.3,0 z m 0,-40.95 z m 1.05125,40.425 -0.52625,-0.45 65.25125,0 -0.525,0.45 0,-39.975 0.525,0.525 -65.25125,0 0.52625,-0.525"
       style="fill:#000000;fill-opacity:1;fill-rule:nonzero;stroke:none"
       id="path14986" />
    <text
       id="text14988"
       x="743.38391"
       y="684.00861"
       style="font-size:15px">
      <tspan
         style="font-size:24.30000114px;font-variant:normal;font-weight:bold;font-stretch:normal;writing-mode:lr-tb;fill:#000000;fill-opacity:1;fill-rule:nonzero;stroke:none;font-family:Arial;-inkscape-font-specification:Arial-BoldMT"
         x="743.38391 766.33765"
         y="684.00861"
         sodipodi:role="line"
         id="tspan14990">WB</tspan>
    </text>
    <path
       inkscape:connector-curvature="0"
       d="m 535.03452,696.00861 0,39.975 65.1,0 0,-39.975 -65.1,0 z"
       style="fill:#99ffcc;fill-opacity:1;fill-rule:nonzero;stroke:none"
       id="path14992" />
    <path
       inkscape:connector-curvature="0"
       d="m 534.50827,736.50861 0,-41.025 66.15,0 0,41.025 -66.15,0 z m 0,-41.025 z m 1.05,40.5 -0.52375,-0.525 65.1,0 -0.52625,0.525 0,-39.975 0.52625,0.525 -65.1,0 0.52375,-0.525"
       style="fill:#000000;fill-opacity:1;fill-rule:nonzero;stroke:none"
       id="path14994" />
    <text
       id="text14996"
       x="556.78387"
       y="724.50861"
       style="font-size:15px">
      <tspan
         style="font-size:24.30000114px;font-variant:normal;font-weight:bold;font-stretch:normal;writing-mode:lr-tb;fill:#000000;fill-opacity:1;fill-rule:nonzero;stroke:none;font-family:Arial;-inkscape-font-specification:Arial-BoldMT"
         x="556.78387 563.53687"
         y="724.50861"
         sodipodi:role="line"
         id="tspan14998">IF</tspan>
    </text>
    <path
       inkscape:connector-curvature="0"
       d="m 600.13452,696.00861 0,39.975 65.25,0 0,-39.975 -65.25,0 z"
       style="fill:#99ffcc;fill-opacity:1;fill-rule:nonzero;stroke:none"
       id="path15000" />
    <path
       inkscape:connector-curvature="0"
       d="m 599.60827,736.50861 0,-41.025 66.3,0 0,41.025 -66.3,0 z m 0,-41.025 z m 1.05125,40.5 -0.525,-0.525 65.24875,0 -0.525,0.525 0,-39.975 0.525,0.525 -65.24875,0 0.525,-0.525"
       style="fill:#000000;fill-opacity:1;fill-rule:nonzero;stroke:none"
       id="path15002" />
    <text
       id="text15004"
       x="620.6839"
       y="724.50861"
       style="font-size:15px">
      <tspan
         style="font-size:24.30000114px;font-variant:normal;font-weight:bold;font-stretch:normal;writing-mode:lr-tb;fill:#000000;fill-opacity:1;fill-rule:nonzero;stroke:none;font-family:Arial;-inkscape-font-specification:Arial-BoldMT"
         x="620.6839 627.43689"
         y="724.50861"
         sodipodi:role="line"
         id="tspan15006">ID</tspan>
    </text>
    <path
       inkscape:connector-curvature="0"
       d="m 665.38327,696.00861 0,39.975 65.25,0 0,-39.975 -65.25,0 z"
       style="fill:#99ffcc;fill-opacity:1;fill-rule:nonzero;stroke:none"
       id="path15008" />
    <path
       inkscape:connector-curvature="0"
       d="m 664.85827,736.50861 0,-41.025 66.3,0 0,41.025 -66.3,0 z m 0,-41.025 z m 1.05125,40.5 -0.52625,-0.525 65.25,0 -0.44875,0.525 0,-39.975 0.44875,0.525 -65.25,0 0.52625,-0.525"
       style="fill:#000000;fill-opacity:1;fill-rule:nonzero;stroke:none"
       id="path15010" />
    <text
       id="text15012"
       x="681.88391"
       y="724.50861"
       style="font-size:15px">
      <tspan
         style="font-size:24.30000114px;font-variant:normal;font-weight:bold;font-stretch:normal;writing-mode:lr-tb;fill:#000000;fill-opacity:1;fill-rule:nonzero;stroke:none;font-family:Arial;-inkscape-font-specification:Arial-BoldMT"
         x="681.88391 698.08472"
         y="724.50861"
         sodipodi:role="line"
         id="tspan15014">EX</tspan>
    </text>
    <path
       inkscape:connector-curvature="0"
       d="m 730.63327,696.00861 0,39.975 65.1,0 0,-39.975 -65.1,0 z"
       style="fill:#99ffcc;fill-opacity:1;fill-rule:nonzero;stroke:none"
       id="path15016" />
    <path
       inkscape:connector-curvature="0"
       d="m 730.18452,736.50861 0,-41.025 66.075,0 0,41.025 -66.075,0 z m 0,-41.025 z m 0.97375,40.5 -0.525,-0.525 65.10125,0 -0.45,0.525 0,-39.975 0.45,0.525 -65.10125,0 0.525,-0.525"
       style="fill:#000000;fill-opacity:1;fill-rule:nonzero;stroke:none"
       id="path15018" />
    <text
       id="text15020"
       x="744.95886"
       y="724.50861"
       style="font-size:15px">
      <tspan
         style="font-size:24.30000114px;font-variant:normal;font-weight:bold;font-stretch:normal;writing-mode:lr-tb;fill:#000000;fill-opacity:1;fill-rule:nonzero;stroke:none;font-family:Arial;-inkscape-font-specification:Arial-BoldMT"
         x="744.95886 765.20807"
         y="724.50861"
         sodipodi:role="line"
         id="tspan15022">ME</tspan>
    </text>
    <path
       inkscape:connector-curvature="0"
       d="m 795.73452,696.00861 0,39.975 65.25,0 0,-39.975 -65.25,0 z"
       style="fill:#99ffcc;fill-opacity:1;fill-rule:nonzero;stroke:none"
       id="path15024" />
    <path
       inkscape:connector-curvature="0"
       d="m 795.28452,736.50861 0,-41.025 66.225,0 0,41.025 -66.225,0 z m 0,-41.025 z m 0.975,40.5 -0.525,-0.525 65.25,0 -0.45125,0.525 0,-39.975 0.45125,0.525 -65.25,0 0.525,-0.525"
       style="fill:#000000;fill-opacity:1;fill-rule:nonzero;stroke:none"
       id="path15026" />
    <text
       id="text15028"
       x="808.1839"
       y="724.50861"
       style="font-size:15px">
      <tspan
         style="font-size:24.30000114px;font-variant:normal;font-weight:bold;font-stretch:normal;writing-mode:lr-tb;fill:#000000;fill-opacity:1;fill-rule:nonzero;stroke:none;font-family:Arial;-inkscape-font-specification:Arial-BoldMT"
         x="808.1839 831.1377"
         y="724.50861"
         sodipodi:role="line"
         id="tspan15030">WB</tspan>
    </text>
    <path
       inkscape:connector-curvature="0"
       d="m 599.75827,736.50861 0,39.975 65.1,0 0,-39.975 -65.1,0 z"
       style="fill:#99ffcc;fill-opacity:1;fill-rule:nonzero;stroke:none"
       id="path15032" />
    <path
       inkscape:connector-curvature="0"
       d="m 599.30827,776.93361 0,-40.95 66.075,0 0,40.95 -66.075,0 z m 0,-40.95 z m 0.97625,40.5 -0.52625,-0.525 65.1,0 -0.44875,0.525 0,-39.975 0.44875,0.45 -65.1,0 0.52625,-0.45"
       style="fill:#000000;fill-opacity:1;fill-rule:nonzero;stroke:none"
       id="path15034" />
    <text
       id="text15036"
       x="621.50891"
       y="764.93359"
       style="font-size:15px">
      <tspan
         style="font-size:24.30000114px;font-variant:normal;font-weight:bold;font-stretch:normal;writing-mode:lr-tb;fill:#000000;fill-opacity:1;fill-rule:nonzero;stroke:none;font-family:Arial;-inkscape-font-specification:Arial-BoldMT"
         x="621.50891 628.26184"
         y="764.93359"
         sodipodi:role="line"
         id="tspan15038">IF</tspan>
    </text>
    <path
       inkscape:connector-curvature="0"
       d="m 664.85827,736.50861 0,39.975 65.325,0 0,-39.975 -65.325,0 z"
       style="fill:#99ffcc;fill-opacity:1;fill-rule:nonzero;stroke:none"
       id="path15040" />
    <path
       inkscape:connector-curvature="0"
       d="m 664.40952,776.93361 0,-40.95 66.225,0 0,40.95 -66.225,0 z m 0,-40.95 z m 0.97375,40.5 -0.525,-0.525 65.32625,0 -0.525,0.525 0,-39.975 0.525,0.45 -65.32625,0 0.525,-0.45"
       style="fill:#000000;fill-opacity:1;fill-rule:nonzero;stroke:none"
       id="path15042" />
    <text
       id="text15044"
       x="685.40887"
       y="764.93359"
       style="font-size:15px">
      <tspan
         style="font-size:24.30000114px;font-variant:normal;font-weight:bold;font-stretch:normal;writing-mode:lr-tb;fill:#000000;fill-opacity:1;fill-rule:nonzero;stroke:none;font-family:Arial;-inkscape-font-specification:Arial-BoldMT"
         x="685.40887 692.16187"
         y="764.93359"
         sodipodi:role="line"
         id="tspan15046">ID</tspan>
    </text>
    <path
       inkscape:connector-curvature="0"
       d="m 730.18452,736.50861 0,39.975 65.25,0 0,-39.975 -65.25,0 z"
       style="fill:#99ffcc;fill-opacity:1;fill-rule:nonzero;stroke:none"
       id="path15048" />
    <path
       inkscape:connector-curvature="0"
       d="m 729.65952,776.93361 0,-40.95 66.3,0 0,40.95 -66.3,0 z m 0,-40.95 z m 0.97375,40.5 -0.44875,-0.525 65.25,0 -0.52625,0.525 0,-39.975 0.52625,0.45 -65.25,0 0.44875,-0.45"
       style="fill:#000000;fill-opacity:1;fill-rule:nonzero;stroke:none"
       id="path15050" />
    <text
       id="text15052"
       x="746.60889"
       y="764.93359"
       style="font-size:15px">
      <tspan
         style="font-size:24.30000114px;font-variant:normal;font-weight:bold;font-stretch:normal;writing-mode:lr-tb;fill:#000000;fill-opacity:1;fill-rule:nonzero;stroke:none;font-family:Arial;-inkscape-font-specification:Arial-BoldMT"
         x="746.60889 762.80969"
         y="764.93359"
         sodipodi:role="line"
         id="tspan15054">EX</tspan>
    </text>
    <path
       inkscape:connector-curvature="0"
       d="m 795.43452,736.50861 0,39.975 65.1,0 0,-39.975 -65.1,0 z"
       style="fill:#99ffcc;fill-opacity:1;fill-rule:nonzero;stroke:none"
       id="path15056" />
    <path
       inkscape:connector-curvature="0"
       d="m 794.90827,776.93361 0,-40.95 66.075,0 0,40.95 -66.075,0 z m 0,-40.95 z m 1.05125,40.5 -0.525,-0.525 65.09875,0 -0.52375,0.525 0,-39.975 0.52375,0.45 -65.09875,0 0.525,-0.45"
       style="fill:#000000;fill-opacity:1;fill-rule:nonzero;stroke:none"
       id="path15058" />
    <text
       id="text15060"
       x="809.75891"
       y="764.93359"
       style="font-size:15px">
      <tspan
         style="font-size:24.30000114px;font-variant:normal;font-weight:bold;font-stretch:normal;writing-mode:lr-tb;fill:#000000;fill-opacity:1;fill-rule:nonzero;stroke:none;font-family:Arial;-inkscape-font-specification:Arial-BoldMT"
         x="809.75891 830.00806"
         y="764.93359"
         sodipodi:role="line"
         id="tspan15062">ME</tspan>
    </text>
    <path
       inkscape:connector-curvature="0"
       d="m 860.53327,736.50861 0,39.975 65.25,0 0,-39.975 -65.25,0 z"
       style="fill:#99ffcc;fill-opacity:1;fill-rule:nonzero;stroke:none"
       id="path15064" />
    <path
       inkscape:connector-curvature="0"
       d="m 860.00952,776.93361 0,-40.95 66.3,0 0,40.95 -66.3,0 z m 0,-40.95 z m 0.975,40.5 -0.45125,-0.525 65.25125,0 -0.525,0.525 0,-39.975 0.525,0.45 -65.25125,0 0.45125,-0.45"
       style="fill:#000000;fill-opacity:1;fill-rule:nonzero;stroke:none"
       id="path15066" />
    <text
       id="text15068"
       x="872.90887"
       y="764.93359"
       style="font-size:15px">
      <tspan
         style="font-size:24.30000114px;font-variant:normal;font-weight:bold;font-stretch:normal;writing-mode:lr-tb;fill:#000000;fill-opacity:1;fill-rule:nonzero;stroke:none;font-family:Arial;-inkscape-font-specification:Arial-BoldMT"
         x="872.90887 895.86267"
         y="764.93359"
         sodipodi:role="line"
         id="tspan15070">WB</tspan>
    </text>
    <text
       id="text15072"
       x="-57.016106"
       y="508.95862"
       style="font-size:15px">
      <tspan
         style="font-size:18.89999962px;font-variant:normal;font-weight:bold;font-stretch:normal;writing-mode:lr-tb;fill:#000000;fill-opacity:1;fill-rule:nonzero;stroke:none;font-family:Courier New;-inkscape-font-specification:CourierNewPS-BoldMT"
         x="-57.016106 -45.693115 -34.370125"
         y="508.95862"
         sodipodi:role="line"
         id="tspan15074">nop</tspan>
      <tspan
         style="font-size:18.89999962px;font-variant:normal;font-weight:bold;font-stretch:normal;writing-mode:lr-tb;fill:#000000;fill-opacity:1;fill-rule:nonzero;stroke:none;font-family:Courier New;-inkscape-font-specification:CourierNewPS-BoldMT"
         x="-57.016106 -45.693115 -34.370125"
         y="549.45941"
         sodipodi:role="line"
         id="tspan15076">nop</tspan>
      <tspan
         style="font-size:18.89999962px;font-variant:normal;font-weight:bold;font-stretch:normal;writing-mode:lr-tb;fill:#000000;fill-opacity:1;fill-rule:nonzero;stroke:none;font-family:Courier New;-inkscape-font-specification:CourierNewPS-BoldMT"
         x="-57.016106 -45.693115 -34.370125"
         y="597.53534"
         sodipodi:role="line"
         id="tspan15078">nop</tspan>
    </text>
    <g
       id="g15080"
       transform="matrix(0,1.25,1.25,0,455.68452,460.05861)">
      <path
         inkscape:connector-curvature="0"
         d="M 0,0 1.44,-5.34 156.12,76.38 154.68,81.66 0,0"
         style="fill:#339966;fill-opacity:1;fill-rule:evenodd;stroke:none"
         id="path15082" />
    </g>
    <g
       id="g15084"
       transform="matrix(0,1.25,1.25,0,543.65827,656.18361)">
      <path
         inkscape:connector-curvature="0"
         d="M 0,0 16.32,18.48 -4.08,17.28 0,0"
         style="fill:#339966;fill-opacity:1;fill-rule:evenodd;stroke:none"
         id="path15086" />
    </g>
    <g
       id="g15088"
       transform="matrix(0,1.25,1.25,0,458.83452,456.00861)">
      <path
         inkscape:connector-curvature="0"
         d="m 0,0 1.68,-7.86 181.44,120.72 -1.68,7.8 L 0,0"
         style="fill:#339966;fill-opacity:1;fill-rule:evenodd;stroke:none"
         id="path15090" />
    </g>
    <g
       id="g15092"
       transform="matrix(0,1.25,1.25,0,588.80827,686.03361)">
      <path
         inkscape:connector-curvature="0"
         d="M 0,0 19.2,27.24 -4.8,25.56 0,0"
         style="fill:#339966;fill-opacity:1;fill-rule:evenodd;stroke:none"
         id="path15094" />
    </g>
  </g>
</svg>
