<?xml version="1.0" encoding="UTF-8" standalone="no"?>
<!-- Created with Inkscape (http://www.inkscape.org/) -->

<svg
   xmlns:dc="http://purl.org/dc/elements/1.1/"
   xmlns:cc="http://creativecommons.org/ns#"
   xmlns:rdf="http://www.w3.org/1999/02/22-rdf-syntax-ns#"
   xmlns:svg="http://www.w3.org/2000/svg"
   xmlns="http://www.w3.org/2000/svg"
   xmlns:sodipodi="http://sodipodi.sourceforge.net/DTD/sodipodi-0.dtd"
   xmlns:inkscape="http://www.inkscape.org/namespaces/inkscape"
   width="991.05682"
   height="249.03569"
   id="svg15886"
   version="1.1"
   inkscape:version="0.48.4 r9939"
   sodipodi:docname="016.svg">
  <defs
     id="defs15888">
    <clipPath
       id="clipPath15914"
       clipPathUnits="userSpaceOnUse">
      <path
         id="path15916"
         d="m 0,841.98 595.2,0 L 595.2,0 0,0 0,841.98 z"
         inkscape:connector-curvature="0" />
    </clipPath>
    <clipPath
       id="clipPath15908"
       clipPathUnits="userSpaceOnUse">
      <path
         id="path15910"
         clip-rule="evenodd"
         d="m 588.84,0.11053 -582.84,0 0,841.86 582.84,0 0,-841.86 z"
         inkscape:connector-curvature="0" />
    </clipPath>
  </defs>
  <sodipodi:namedview
     id="base"
     pagecolor="#ffffff"
     bordercolor="#666666"
     borderopacity="1.0"
     inkscape:pageopacity="0.0"
     inkscape:pageshadow="2"
     inkscape:zoom="0.7"
     inkscape:cx="465.32"
     inkscape:cy="70.340196"
     inkscape:document-units="px"
     inkscape:current-layer="layer1"
     showgrid="false"
     fit-margin-top="10"
     fit-margin-left="10"
     fit-margin-right="10"
     fit-margin-bottom="10"
     inkscape:window-width="954"
     inkscape:window-height="1028"
     inkscape:window-x="0"
     inkscape:window-y="0"
     inkscape:window-maximized="0" />
  <metadata
     id="metadata15891">
    <rdf:RDF>
      <cc:Work
         rdf:about="">
        <dc:format>image/svg+xml</dc:format>
        <dc:type
           rdf:resource="http://purl.org/dc/dcmitype/StillImage" />
        <dc:title></dc:title>
      </cc:Work>
    </rdf:RDF>
  </metadata>
  <g
     inkscape:label="Layer 1"
     inkscape:groupmode="layer"
     id="layer1"
     transform="translate(56.511615,-332.00147)">
    <path
       inkscape:connector-curvature="0"
       d="m 151.52023,342.52647 0,39.975 64.35,0 0,-39.975 -64.35,0 z"
       style="fill:#99ffcc;fill-opacity:1;fill-rule:nonzero;stroke:none"
       id="path15936" />
    <path
       inkscape:connector-curvature="0"
       d="m 150.99523,382.95147 0,-40.95 65.4,0 0,40.95 -65.4,0 z m 0,-40.95 z m 0.975,40.5 -0.45,-0.525 64.35,0 -0.45,0.525 0,-39.975 0.45,0.45 -64.35,0 0.45,-0.45"
       style="fill:#000000;fill-opacity:1;fill-rule:nonzero;stroke:none"
       id="path15938" />
    <text
       id="text15940"
       x="172.89461"
       y="370.95148"
       style="font-size:15px">
      <tspan
         style="font-size:24.30000114px;font-variant:normal;font-weight:bold;font-stretch:normal;writing-mode:lr-tb;fill:#000000;fill-opacity:1;fill-rule:nonzero;stroke:none;font-family:Arial;-inkscape-font-specification:Arial-BoldMT"
         x="172.89461 179.64758"
         y="370.95148"
         sodipodi:role="line"
         id="tspan15942">IF</tspan>
    </text>
    <path
       inkscape:connector-curvature="0"
       d="m 215.72023,342.52647 0,39.975 64.275,0 0,-39.975 -64.275,0 z"
       style="fill:#99ffcc;fill-opacity:1;fill-rule:nonzero;stroke:none"
       id="path15944" />
    <path
       inkscape:connector-curvature="0"
       d="m 215.19523,382.95147 0,-40.95 65.325,0 0,40.95 -65.325,0 z m 0,-40.95 z m 1.05,40.5 -0.525,-0.525 64.275,0 -0.525,0.525 0,-39.975 0.525,0.45 -64.275,0 0.525,-0.45"
       style="fill:#000000;fill-opacity:1;fill-rule:nonzero;stroke:none"
       id="path15946" />
    <text
       id="text15948"
       x="235.74461"
       y="370.95148"
       style="font-size:15px">
      <tspan
         style="font-size:24.30000114px;font-variant:normal;font-weight:bold;font-stretch:normal;writing-mode:lr-tb;fill:#000000;fill-opacity:1;fill-rule:nonzero;stroke:none;font-family:Arial;-inkscape-font-specification:Arial-BoldMT"
         x="235.74461 242.49757"
         y="370.95148"
         sodipodi:role="line"
         id="tspan15950">ID</tspan>
    </text>
    <path
       inkscape:connector-curvature="0"
       d="m 280.14523,342.52647 0,39.975 64.275,0 0,-39.975 -64.275,0 z"
       style="fill:#99ffcc;fill-opacity:1;fill-rule:nonzero;stroke:none"
       id="path15952" />
    <path
       inkscape:connector-curvature="0"
       d="m 279.62023,382.95147 0,-40.95 65.325,0 0,40.95 -65.325,0 z m 0,-40.95 z m 1.05,40.5 -0.525,-0.525 64.275,0 -0.525,0.525 0,-39.975 0.525,0.45 -64.275,0 0.525,-0.45"
       style="fill:#000000;fill-opacity:1;fill-rule:nonzero;stroke:none"
       id="path15954" />
    <text
       id="text15956"
       x="296.1196"
       y="370.95148"
       style="font-size:15px">
      <tspan
         style="font-size:24.30000114px;font-variant:normal;font-weight:bold;font-stretch:normal;writing-mode:lr-tb;fill:#000000;fill-opacity:1;fill-rule:nonzero;stroke:none;font-family:Arial;-inkscape-font-specification:Arial-BoldMT"
         x="296.1196 312.32043"
         y="370.95148"
         sodipodi:role="line"
         id="tspan15958">EX</tspan>
    </text>
    <path
       inkscape:connector-curvature="0"
       d="m 344.42023,342.52647 0,39.975 64.425,0 0,-39.975 -64.425,0 z"
       style="fill:#99ffcc;fill-opacity:1;fill-rule:nonzero;stroke:none"
       id="path15960" />
    <path
       inkscape:connector-curvature="0"
       d="m 343.89523,382.95147 0,-40.95 65.475,0 0,40.95 -65.475,0 z m 0,-40.95 z m 1.05,40.5 -0.525,-0.525 64.425,0 -0.525,0.525 0,-39.975 0.525,0.45 -64.425,0 0.525,-0.45"
       style="fill:#000000;fill-opacity:1;fill-rule:nonzero;stroke:none"
       id="path15962" />
    <text
       id="text15964"
       x="358.44461"
       y="370.95148"
       style="font-size:15px">
      <tspan
         style="font-size:24.30000114px;font-variant:normal;font-weight:bold;font-stretch:normal;writing-mode:lr-tb;fill:#000000;fill-opacity:1;fill-rule:nonzero;stroke:none;font-family:Arial;-inkscape-font-specification:Arial-BoldMT"
         x="358.44461 378.69379"
         y="370.95148"
         sodipodi:role="line"
         id="tspan15966">ME</tspan>
    </text>
    <path
       inkscape:connector-curvature="0"
       d="m 408.84523,342.52647 0,39.975 64.275,0 0,-39.975 -64.275,0 z"
       style="fill:#99ffcc;fill-opacity:1;fill-rule:nonzero;stroke:none"
       id="path15968" />
    <path
       inkscape:connector-curvature="0"
       d="m 408.32023,382.95147 0,-40.95 65.25,0 0,40.95 -65.25,0 z m 0,-40.95 z m 1.05,40.5 -0.525,-0.525 64.275,0 -0.525,0.525 0,-39.975 0.525,0.45 -64.275,0 0.525,-0.45"
       style="fill:#000000;fill-opacity:1;fill-rule:nonzero;stroke:none"
       id="path15970" />
    <text
       id="text15972"
       x="420.69461"
       y="370.95148"
       style="font-size:15px">
      <tspan
         style="font-size:24.30000114px;font-variant:normal;font-weight:bold;font-stretch:normal;writing-mode:lr-tb;fill:#000000;fill-opacity:1;fill-rule:nonzero;stroke:none;font-family:Arial;-inkscape-font-specification:Arial-BoldMT"
         x="420.69461 443.64838"
         y="370.95148"
         sodipodi:role="line"
         id="tspan15974">WB</tspan>
    </text>
    <path
       inkscape:connector-curvature="0"
       d="m 215.72023,384.45147 0,39.975 64.125,0 0,-39.975 -64.125,0 z"
       style="fill:#99ffcc;fill-opacity:1;fill-rule:nonzero;stroke:none"
       id="path15976" />
    <path
       inkscape:connector-curvature="0"
       d="m 215.19523,424.95147 0,-40.95 65.1,0 0,40.95 -65.1,0 z m 0,-40.95 z m 1.05,40.425 -0.525,-0.45 64.125,0 -0.525,0.45 0,-39.975 0.525,0.525 -64.125,0 0.525,-0.525"
       style="fill:#000000;fill-opacity:1;fill-rule:nonzero;stroke:none"
       id="path15978" />
    <text
       id="text15980"
       x="237.01961"
       y="412.95148"
       style="font-size:15px">
      <tspan
         style="font-size:24.30000114px;font-variant:normal;font-weight:bold;font-stretch:normal;writing-mode:lr-tb;fill:#000000;fill-opacity:1;fill-rule:nonzero;stroke:none;font-family:Arial;-inkscape-font-specification:Arial-BoldMT"
         x="237.01961 243.77258"
         y="412.95148"
         sodipodi:role="line"
         id="tspan15982">IF</tspan>
    </text>
    <path
       inkscape:connector-curvature="0"
       d="m 472.07023,386.47647 0,39.975 64.2,0 0,-39.975 -64.2,0 z"
       style="fill:#99ffcc;fill-opacity:1;fill-rule:nonzero;stroke:none"
       id="path15984" />
    <path
       inkscape:connector-curvature="0"
       d="m 471.54523,426.97647 0,-40.95 65.25,0 0,40.95 -65.25,0 z m 0,-40.95 z m 1.05,40.425 -0.525,-0.45 64.2,0 -0.45125,0.45 0,-39.975 0.45125,0.525 -64.2,0 0.525,-0.525"
       style="fill:#000000;fill-opacity:1;fill-rule:nonzero;stroke:none"
       id="path15986" />
    <text
       id="text15988"
       x="492.01962"
       y="414.97647"
       style="font-size:15px">
      <tspan
         style="font-size:24.30000114px;font-variant:normal;font-weight:bold;font-stretch:normal;writing-mode:lr-tb;fill:#000000;fill-opacity:1;fill-rule:nonzero;stroke:none;font-family:Arial;-inkscape-font-specification:Arial-BoldMT"
         x="492.01962 498.77258"
         y="414.97647"
         sodipodi:role="line"
         id="tspan15990">ID</tspan>
    </text>
    <path
       inkscape:connector-curvature="0"
       d="m 536.27023,386.47647 0,39.975 64.425,0 0,-39.975 -64.425,0 z"
       style="fill:#99ffcc;fill-opacity:1;fill-rule:nonzero;stroke:none"
       id="path15992" />
    <path
       inkscape:connector-curvature="0"
       d="m 535.81898,426.97647 0,-40.95 65.325,0 0,40.95 -65.325,0 z m 0,-40.95 z m 0.975,40.425 -0.52375,-0.45 64.42375,0 -0.52375,0.45 0,-39.975 0.52375,0.525 -64.42375,0 0.52375,-0.525"
       style="fill:#000000;fill-opacity:1;fill-rule:nonzero;stroke:none"
       id="path15994" />
    <text
       id="text15996"
       x="552.31958"
       y="414.97647"
       style="font-size:15px">
      <tspan
         style="font-size:24.30000114px;font-variant:normal;font-weight:bold;font-stretch:normal;writing-mode:lr-tb;fill:#000000;fill-opacity:1;fill-rule:nonzero;stroke:none;font-family:Arial;-inkscape-font-specification:Arial-BoldMT"
         x="552.31958 568.52045"
         y="414.97647"
         sodipodi:role="line"
         id="tspan15998">EX</tspan>
    </text>
    <path
       inkscape:connector-curvature="0"
       d="m 600.69398,386.47647 0,39.975 64.05,0 0,-39.975 -64.05,0 z"
       style="fill:#99ffcc;fill-opacity:1;fill-rule:nonzero;stroke:none"
       id="path16000" />
    <path
       inkscape:connector-curvature="0"
       d="m 600.17023,426.97647 0,-40.95 65.1,0 0,40.95 -65.1,0 z m 0,-40.95 z m 0.975,40.425 -0.45125,-0.45 64.05125,0 -0.52625,0.45 0,-39.975 0.52625,0.525 -64.05125,0 0.45125,-0.525"
       style="fill:#000000;fill-opacity:1;fill-rule:nonzero;stroke:none"
       id="path16002" />
    <text
       id="text16004"
       x="614.49463"
       y="414.97647"
       style="font-size:15px">
      <tspan
         style="font-size:24.30000114px;font-variant:normal;font-weight:bold;font-stretch:normal;writing-mode:lr-tb;fill:#000000;fill-opacity:1;fill-rule:nonzero;stroke:none;font-family:Arial;-inkscape-font-specification:Arial-BoldMT"
         x="614.49463 634.74377"
         y="414.97647"
         sodipodi:role="line"
         id="tspan16006">ME</tspan>
    </text>
    <path
       inkscape:connector-curvature="0"
       d="m 664.74523,386.47647 0,39.975 64.5,0 0,-39.975 -64.5,0 z"
       style="fill:#99ffcc;fill-opacity:1;fill-rule:nonzero;stroke:none"
       id="path16008" />
    <path
       inkscape:connector-curvature="0"
       d="m 664.21898,426.97647 0,-40.95 65.55,0 0,40.95 -65.55,0 z m 0,-40.95 z m 1.05125,40.425 -0.525,-0.45 64.5,0 -0.525,0.45 0,-39.975 0.525,0.525 -64.5,0 0.525,-0.525"
       style="fill:#000000;fill-opacity:1;fill-rule:nonzero;stroke:none"
       id="path16010" />
    <text
       id="text16012"
       x="676.74463"
       y="414.97647"
       style="font-size:15px">
      <tspan
         style="font-size:24.30000114px;font-variant:normal;font-weight:bold;font-stretch:normal;writing-mode:lr-tb;fill:#000000;fill-opacity:1;fill-rule:nonzero;stroke:none;font-family:Arial;-inkscape-font-specification:Arial-BoldMT"
         x="676.74463 699.69836"
         y="414.97647"
         sodipodi:role="line"
         id="tspan16014">WB</tspan>
    </text>
    <path
       inkscape:connector-curvature="0"
       d="m 473.94523,428.50147 0,39.975 64.275,0 0,-39.975 -64.275,0 z"
       style="fill:#99ffcc;fill-opacity:1;fill-rule:nonzero;stroke:none"
       id="path16016" />
    <path
       inkscape:connector-curvature="0"
       d="m 473.42023,469.00147 0,-40.95 65.25,0 0,40.95 -65.25,0 z m 0,-40.95 z m 1.05,40.425 -0.525,-0.45 64.275,0 -0.52625,0.45 0,-39.975 0.52625,0.525 -64.275,0 0.525,-0.525"
       style="fill:#000000;fill-opacity:1;fill-rule:nonzero;stroke:none"
       id="path16018" />
    <text
       id="text16020"
       x="495.2446"
       y="457.00146"
       style="font-size:15px">
      <tspan
         style="font-size:24.30000114px;font-variant:normal;font-weight:bold;font-stretch:normal;writing-mode:lr-tb;fill:#000000;fill-opacity:1;fill-rule:nonzero;stroke:none;font-family:Arial;-inkscape-font-specification:Arial-BoldMT"
         x="495.2446 501.99759"
         y="457.00146"
         sodipodi:role="line"
         id="tspan16022">IF</tspan>
    </text>
    <path
       inkscape:connector-curvature="0"
       d="m 538.22023,428.50147 0,39.975 64.425,0 0,-39.975 -64.425,0 z"
       style="fill:#99ffcc;fill-opacity:1;fill-rule:nonzero;stroke:none"
       id="path16024" />
    <path
       inkscape:connector-curvature="0"
       d="m 537.69398,469.00147 0,-40.95 65.4,0 0,40.95 -65.4,0 z m 0,-40.95 z m 0.975,40.425 -0.44875,-0.45 64.42375,0 -0.52375,0.45 0,-39.975 0.52375,0.525 -64.42375,0 0.44875,-0.525"
       style="fill:#000000;fill-opacity:1;fill-rule:nonzero;stroke:none"
       id="path16026" />
    <text
       id="text16028"
       x="558.24463"
       y="457.00146"
       style="font-size:15px">
      <tspan
         style="font-size:24.30000114px;font-variant:normal;font-weight:bold;font-stretch:normal;writing-mode:lr-tb;fill:#000000;fill-opacity:1;fill-rule:nonzero;stroke:none;font-family:Arial;-inkscape-font-specification:Arial-BoldMT"
         x="558.24463 564.99756"
         y="457.00146"
         sodipodi:role="line"
         id="tspan16030">ID</tspan>
    </text>
    <path
       inkscape:connector-curvature="0"
       d="m 602.64398,428.50147 0,39.975 64.2,0 0,-39.975 -64.2,0 z"
       style="fill:#99ffcc;fill-opacity:1;fill-rule:nonzero;stroke:none"
       id="path16032" />
    <path
       inkscape:connector-curvature="0"
       d="m 602.12023,469.00147 0,-40.95 65.25,0 0,40.95 -65.25,0 z m 0,-40.95 z m 0.97375,40.425 -0.45,-0.45 64.2,0 -0.525,0.45 0,-39.975 0.525,0.525 -64.2,0 0.45,-0.525"
       style="fill:#000000;fill-opacity:1;fill-rule:nonzero;stroke:none"
       id="path16034" />
    <text
       id="text16036"
       x="618.54462"
       y="457.00146"
       style="font-size:15px">
      <tspan
         style="font-size:24.30000114px;font-variant:normal;font-weight:bold;font-stretch:normal;writing-mode:lr-tb;fill:#000000;fill-opacity:1;fill-rule:nonzero;stroke:none;font-family:Arial;-inkscape-font-specification:Arial-BoldMT"
         x="618.54462 634.74542"
         y="457.00146"
         sodipodi:role="line"
         id="tspan16038">EX</tspan>
    </text>
    <path
       inkscape:connector-curvature="0"
       d="m 666.84398,428.50147 0,39.975 64.125,0 0,-39.975 -64.125,0 z"
       style="fill:#99ffcc;fill-opacity:1;fill-rule:nonzero;stroke:none"
       id="path16040" />
    <path
       inkscape:connector-curvature="0"
       d="m 666.31898,469.00147 0,-40.95 65.1,0 0,40.95 -65.1,0 z m 0,-40.95 z m 1.05125,40.425 -0.52625,-0.45 64.12625,0 -0.52625,0.45 0,-39.975 0.52625,0.525 -64.12625,0 0.52625,-0.525"
       style="fill:#000000;fill-opacity:1;fill-rule:nonzero;stroke:none"
       id="path16042" />
    <text
       id="text16044"
       x="680.7196"
       y="457.00146"
       style="font-size:15px">
      <tspan
         style="font-size:24.30000114px;font-variant:normal;font-weight:bold;font-stretch:normal;writing-mode:lr-tb;fill:#000000;fill-opacity:1;fill-rule:nonzero;stroke:none;font-family:Arial;-inkscape-font-specification:Arial-BoldMT"
         x="680.7196 700.96881"
         y="457.00146"
         sodipodi:role="line"
         id="tspan16046">ME</tspan>
    </text>
    <path
       inkscape:connector-curvature="0"
       d="m 730.97023,428.50147 0,39.975 64.425,0 0,-39.975 -64.425,0 z"
       style="fill:#99ffcc;fill-opacity:1;fill-rule:nonzero;stroke:none"
       id="path16048" />
    <path
       inkscape:connector-curvature="0"
       d="m 730.44398,469.00147 0,-40.95 65.4,0 0,40.95 -65.4,0 z m 0,-40.95 z m 0.97625,40.425 -0.45,-0.45 64.42375,0 -0.52375,0.45 0,-39.975 0.52375,0.525 -64.42375,0 0.45,-0.525"
       style="fill:#000000;fill-opacity:1;fill-rule:nonzero;stroke:none"
       id="path16050" />
    <text
       id="text16052"
       x="742.9696"
       y="457.00146"
       style="font-size:15px">
      <tspan
         style="font-size:24.30000114px;font-variant:normal;font-weight:bold;font-stretch:normal;writing-mode:lr-tb;fill:#000000;fill-opacity:1;fill-rule:nonzero;stroke:none;font-family:Arial;-inkscape-font-specification:Arial-BoldMT"
         x="742.9696 765.9234"
         y="457.00146"
         sodipodi:role="line"
         id="tspan16054">WB</tspan>
    </text>
    <path
       inkscape:connector-curvature="0"
       d="m 535.52023,470.05147 0,39.9 64.425,0 0,-39.9 -64.425,0 z"
       style="fill:#99ffcc;fill-opacity:1;fill-rule:nonzero;stroke:none"
       id="path16056" />
    <path
       inkscape:connector-curvature="0"
       d="m 534.99398,510.47647 0,-40.95 65.4,0 0,40.95 -65.4,0 z m 0,-40.95 z m 0.97625,40.425 -0.45,-0.45 64.425,0 -0.525,0.45 0,-39.9 0.525,0.45 -64.425,0 0.45,-0.45"
       style="fill:#000000;fill-opacity:1;fill-rule:nonzero;stroke:none"
       id="path16058" />
    <text
       id="text16060"
       x="556.89459"
       y="498.47647"
       style="font-size:15px">
      <tspan
         style="font-size:24.30000114px;font-variant:normal;font-weight:bold;font-stretch:normal;writing-mode:lr-tb;fill:#000000;fill-opacity:1;fill-rule:nonzero;stroke:none;font-family:Arial;-inkscape-font-specification:Arial-BoldMT"
         x="556.89459 563.64758"
         y="498.47647"
         sodipodi:role="line"
         id="tspan16062">IF</tspan>
    </text>
    <path
       inkscape:connector-curvature="0"
       d="m 599.94523,470.05147 0,39.9 64.2,0 0,-39.9 -64.2,0 z"
       style="fill:#99ffcc;fill-opacity:1;fill-rule:nonzero;stroke:none"
       id="path16064" />
    <path
       inkscape:connector-curvature="0"
       d="m 599.42023,510.47647 0,-40.95 65.25,0 0,40.95 -65.25,0 z m 0,-40.95 z m 0.97375,40.425 -0.44875,-0.45 64.19875,0 -0.44875,0.45 0,-39.9 0.44875,0.45 -64.19875,0 0.44875,-0.45"
       style="fill:#000000;fill-opacity:1;fill-rule:nonzero;stroke:none"
       id="path16066" />
    <text
       id="text16068"
       x="619.89459"
       y="498.47647"
       style="font-size:15px">
      <tspan
         style="font-size:24.30000114px;font-variant:normal;font-weight:bold;font-stretch:normal;writing-mode:lr-tb;fill:#000000;fill-opacity:1;fill-rule:nonzero;stroke:none;font-family:Arial;-inkscape-font-specification:Arial-BoldMT"
         x="619.89459 626.64758"
         y="498.47647"
         sodipodi:role="line"
         id="tspan16070">ID</tspan>
    </text>
    <path
       inkscape:connector-curvature="0"
       d="m 664.14398,470.05147 0,39.9 64.125,0 0,-39.9 -64.125,0 z"
       style="fill:#99ffcc;fill-opacity:1;fill-rule:nonzero;stroke:none"
       id="path16072" />
    <path
       inkscape:connector-curvature="0"
       d="m 663.69523,510.47647 0,-40.95 65.025,0 0,40.95 -65.025,0 z m 0,-40.95 z m 0.97375,40.425 -0.525,-0.45 64.125,0 -0.52375,0.45 0,-39.9 0.52375,0.45 -64.125,0 0.525,-0.45"
       style="fill:#000000;fill-opacity:1;fill-rule:nonzero;stroke:none"
       id="path16074" />
    <text
       id="text16076"
       x="680.04462"
       y="498.47647"
       style="font-size:15px">
      <tspan
         style="font-size:24.30000114px;font-variant:normal;font-weight:bold;font-stretch:normal;writing-mode:lr-tb;fill:#000000;fill-opacity:1;fill-rule:nonzero;stroke:none;font-family:Arial;-inkscape-font-specification:Arial-BoldMT"
         x="680.04462 696.24542"
         y="498.47647"
         sodipodi:role="line"
         id="tspan16078">EX</tspan>
    </text>
    <path
       inkscape:connector-curvature="0"
       d="m 728.26898,470.05147 0,39.9 64.425,0 0,-39.9 -64.425,0 z"
       style="fill:#99ffcc;fill-opacity:1;fill-rule:nonzero;stroke:none"
       id="path16080" />
    <path
       inkscape:connector-curvature="0"
       d="m 727.74523,510.47647 0,-40.95 65.4,0 0,40.95 -65.4,0 z m 0,-40.95 z m 0.975,40.425 -0.45125,-0.45 64.42625,0 -0.52625,0.45 0,-39.9 0.52625,0.45 -64.42625,0 0.45125,-0.45"
       style="fill:#000000;fill-opacity:1;fill-rule:nonzero;stroke:none"
       id="path16082" />
    <text
       id="text16084"
       x="742.29462"
       y="498.47647"
       style="font-size:15px">
      <tspan
         style="font-size:24.30000114px;font-variant:normal;font-weight:bold;font-stretch:normal;writing-mode:lr-tb;fill:#000000;fill-opacity:1;fill-rule:nonzero;stroke:none;font-family:Arial;-inkscape-font-specification:Arial-BoldMT"
         x="742.29462 762.54382"
         y="498.47647"
         sodipodi:role="line"
         id="tspan16086">ME</tspan>
    </text>
    <path
       inkscape:connector-curvature="0"
       d="m 792.69523,470.05147 0,39.9 64.425,0 0,-39.9 -64.425,0 z"
       style="fill:#99ffcc;fill-opacity:1;fill-rule:nonzero;stroke:none"
       id="path16088" />
    <path
       inkscape:connector-curvature="0"
       d="m 792.16898,510.47647 0,-40.95 65.4,0 0,40.95 -65.4,0 z m 0,-40.95 z m 0.97625,40.425 -0.45,-0.45 64.425,0 -0.525,0.45 0,-39.9 0.525,0.45 -64.425,0 0.45,-0.45"
       style="fill:#000000;fill-opacity:1;fill-rule:nonzero;stroke:none"
       id="path16090" />
    <text
       id="text16092"
       x="804.69458"
       y="498.47647"
       style="font-size:15px">
      <tspan
         style="font-size:24.30000114px;font-variant:normal;font-weight:bold;font-stretch:normal;writing-mode:lr-tb;fill:#000000;fill-opacity:1;fill-rule:nonzero;stroke:none;font-family:Arial;-inkscape-font-specification:Arial-BoldMT"
         x="804.69458 827.64838"
         y="498.47647"
         sodipodi:role="line"
         id="tspan16094">WB</tspan>
    </text>
    <path
       inkscape:connector-curvature="0"
       d="m 602.64398,512.35147 0,39.825 64.2,0 0,-39.825 -64.2,0 z"
       style="fill:#99ffcc;fill-opacity:1;fill-rule:nonzero;stroke:none"
       id="path16096" />
    <path
       inkscape:connector-curvature="0"
       d="m 602.12023,552.62647 0,-40.8 65.25,0 0,40.8 -65.25,0 z m 0,-40.8 z m 0.97375,40.35 -0.45,-0.525 64.2,0 -0.525,0.525 0,-39.825 0.525,0.525 -64.2,0 0.45,-0.525"
       style="fill:#000000;fill-opacity:1;fill-rule:nonzero;stroke:none"
       id="path16098" />
    <text
       id="text16100"
       x="623.94458"
       y="540.77649"
       style="font-size:15px">
      <tspan
         style="font-size:24.30000114px;font-variant:normal;font-weight:bold;font-stretch:normal;writing-mode:lr-tb;fill:#000000;fill-opacity:1;fill-rule:nonzero;stroke:none;font-family:Arial;-inkscape-font-specification:Arial-BoldMT"
         x="623.94458 630.69757"
         y="540.77649"
         sodipodi:role="line"
         id="tspan16102">IF</tspan>
    </text>
    <path
       inkscape:connector-curvature="0"
       d="m 666.84398,512.35147 0,39.825 64.125,0 0,-39.825 -64.125,0 z"
       style="fill:#99ffcc;fill-opacity:1;fill-rule:nonzero;stroke:none"
       id="path16104" />
    <path
       inkscape:connector-curvature="0"
       d="m 666.31898,552.62647 0,-40.8 65.1,0 0,40.8 -65.1,0 z m 0,-40.8 z m 1.05125,40.35 -0.52625,-0.525 64.12625,0 -0.52625,0.525 0,-39.825 0.52625,0.525 -64.12625,0 0.52625,-0.525"
       style="fill:#000000;fill-opacity:1;fill-rule:nonzero;stroke:none"
       id="path16106" />
    <text
       id="text16108"
       x="686.79462"
       y="540.77649"
       style="font-size:15px">
      <tspan
         style="font-size:24.30000114px;font-variant:normal;font-weight:bold;font-stretch:normal;writing-mode:lr-tb;fill:#000000;fill-opacity:1;fill-rule:nonzero;stroke:none;font-family:Arial;-inkscape-font-specification:Arial-BoldMT"
         x="686.79462 693.54761"
         y="540.77649"
         sodipodi:role="line"
         id="tspan16110">ID</tspan>
    </text>
    <path
       inkscape:connector-curvature="0"
       d="m 730.97023,512.35147 0,39.825 64.425,0 0,-39.825 -64.425,0 z"
       style="fill:#99ffcc;fill-opacity:1;fill-rule:nonzero;stroke:none"
       id="path16112" />
    <path
       inkscape:connector-curvature="0"
       d="m 730.44398,552.62647 0,-40.8 65.4,0 0,40.8 -65.4,0 z m 0,-40.8 z m 0.97625,40.35 -0.45,-0.525 64.42375,0 -0.52375,0.525 0,-39.825 0.52375,0.525 -64.42375,0 0.45,-0.525"
       style="fill:#000000;fill-opacity:1;fill-rule:nonzero;stroke:none"
       id="path16114" />
    <text
       id="text16116"
       x="747.01959"
       y="540.77649"
       style="font-size:15px">
      <tspan
         style="font-size:24.30000114px;font-variant:normal;font-weight:bold;font-stretch:normal;writing-mode:lr-tb;fill:#000000;fill-opacity:1;fill-rule:nonzero;stroke:none;font-family:Arial;-inkscape-font-specification:Arial-BoldMT"
         x="747.01959 763.2204"
         y="540.77649"
         sodipodi:role="line"
         id="tspan16118">EX</tspan>
    </text>
    <path
       inkscape:connector-curvature="0"
       d="m 795.39398,512.35147 0,39.825 64.425,0 0,-39.825 -64.425,0 z"
       style="fill:#99ffcc;fill-opacity:1;fill-rule:nonzero;stroke:none"
       id="path16120" />
    <path
       inkscape:connector-curvature="0"
       d="m 794.87023,552.62647 0,-40.8 65.4,0 0,40.8 -65.4,0 z m 0,-40.8 z m 0.975,40.35 -0.45125,-0.525 64.425,0 -0.52375,0.525 0,-39.825 0.52375,0.525 -64.425,0 0.45125,-0.525"
       style="fill:#000000;fill-opacity:1;fill-rule:nonzero;stroke:none"
       id="path16122" />
    <text
       id="text16124"
       x="809.41962"
       y="540.77649"
       style="font-size:15px">
      <tspan
         style="font-size:24.30000114px;font-variant:normal;font-weight:bold;font-stretch:normal;writing-mode:lr-tb;fill:#000000;fill-opacity:1;fill-rule:nonzero;stroke:none;font-family:Arial;-inkscape-font-specification:Arial-BoldMT"
         x="809.41962 829.66882"
         y="540.77649"
         sodipodi:role="line"
         id="tspan16126">ME</tspan>
    </text>
    <path
       inkscape:connector-curvature="0"
       d="m 859.81898,512.35147 0,39.825 64.2,0 0,-39.825 -64.2,0 z"
       style="fill:#99ffcc;fill-opacity:1;fill-rule:nonzero;stroke:none"
       id="path16128" />
    <path
       inkscape:connector-curvature="0"
       d="m 859.29523,552.62647 0,-40.8 65.25,0 0,40.8 -65.25,0 z m 0,-40.8 z m 0.975,40.35 -0.45125,-0.525 64.20125,0 -0.45125,0.525 0,-39.825 0.45125,0.525 -64.20125,0 0.45125,-0.525"
       style="fill:#000000;fill-opacity:1;fill-rule:nonzero;stroke:none"
       id="path16130" />
    <text
       id="text16132"
       x="871.66962"
       y="540.77649"
       style="font-size:15px">
      <tspan
         style="font-size:24.30000114px;font-variant:normal;font-weight:bold;font-stretch:normal;writing-mode:lr-tb;fill:#000000;fill-opacity:1;fill-rule:nonzero;stroke:none;font-family:Arial;-inkscape-font-specification:Arial-BoldMT"
         x="871.66962 894.62341"
         y="540.77649"
         sodipodi:role="line"
         id="tspan16134">WB</tspan>
    </text>
    <text
       id="text16136"
       x="-47.305267"
       y="360.40146"
       style="font-size:15px">
      <tspan
         style="font-size:18.89999962px;font-variant:normal;font-weight:bold;font-stretch:normal;writing-mode:lr-tb;fill:#000000;fill-opacity:1;fill-rule:nonzero;stroke:none;font-family:Courier New;-inkscape-font-specification:CourierNewPS-BoldMT"
         x="-47.305267 -36.003067 -24.700869 -13.398668 9.2095089 20.511713 31.813913 43.116112 54.420204 65.722397 77.024605 88.326797 99.63089 110.9331"
         y="360.40146"
         sodipodi:role="line"
         id="tspan16138">sub $2, $1, $3</tspan>
      <tspan
         style="font-size:18.89999962px;font-variant:normal;font-weight:bold;font-stretch:normal;writing-mode:lr-tb;fill:#000000;fill-opacity:1;fill-rule:nonzero;stroke:none;font-family:Courier New;-inkscape-font-specification:CourierNewPS-BoldMT"
         x="-47.305267 -36.003067 -24.700869 -13.398668 -2.1002481 9.201951 20.50415 31.806351 43.108551 54.406967 65.709175 77.011375 88.313568 99.612 110.91419"
         y="418.75143"
         sodipodi:role="line"
         id="tspan16140">and $12, $2, $5</tspan>
      <tspan
         style="font-size:18.89999962px;font-variant:normal;font-weight:bold;font-stretch:normal;writing-mode:lr-tb;fill:#000000;fill-opacity:1;fill-rule:nonzero;stroke:none;font-family:Courier New;-inkscape-font-specification:CourierNewPS-BoldMT"
         x="-47.305267 -36.006847 -24.708427 -2.1002481 9.1981697 20.496593 31.795012 43.093433 54.397518 65.695946 76.994362 88.292778 99.59687 110.89529"
         y="474.70111"
         sodipodi:role="line"
         id="tspan16142">or $13, $6, $2</tspan>
      <tspan
         style="font-size:18.89999962px;font-variant:normal;font-weight:bold;font-stretch:normal;writing-mode:lr-tb;fill:#000000;fill-opacity:1;fill-rule:nonzero;stroke:none;font-family:Courier New;-inkscape-font-specification:CourierNewPS-BoldMT"
         x="-47.305267 -36.003067 -24.700869 -13.398668 -2.1002481 9.201951 20.50415 31.806351 43.108551 54.406967 65.709175 77.011375 88.313568 99.612 110.91419"
         y="519.40149"
         sodipodi:role="line"
         id="tspan16144">add $14, $2, $2</tspan>
      <tspan
         style="font-size:18.89999962px;font-variant:normal;font-weight:bold;font-stretch:normal;writing-mode:lr-tb;fill:#000000;fill-opacity:1;fill-rule:nonzero;stroke:none;font-family:Courier New;-inkscape-font-specification:CourierNewPS-BoldMT"
         x="-47.305267 -36.003067 -24.700869 -2.1304891 9.17171 20.473909 31.77611 43.078308 54.380512 65.682709 76.984909 88.287117 99.58931 110.89152"
         y="568.00098"
         sodipodi:role="line"
         id="tspan16146">sw $15,100($2)</tspan>
    </text>
    <g
       id="g16148"
       transform="matrix(0,1.25,1.25,0,280.29523,406.12647)">
      <path
         inkscape:connector-curvature="0"
         d="m 0,0 c -7.32,0 -13.26,11.1 -13.26,24.78 0,13.68 5.94,24.78 13.26,24.78 7.38,0 13.32,-11.1 13.32,-24.78 C 13.32,11.1 7.38,0 0,0"
         style="fill:#b2b2b2;fill-opacity:1;fill-rule:evenodd;stroke:none"
         id="path16150" />
    </g>
    <path
       inkscape:connector-curvature="0"
       d="m 296.64523,396.90147 0,19.35 28.05,0 0,-19.35 -28.05,0 z"
       style="fill:#b2b2b2;fill-opacity:1;fill-rule:nonzero;stroke:none"
       id="path16152" />
    <text
       id="text16154"
       x="296.64462"
       y="411.97647"
       style="font-size:15px">
      <tspan
         style="font-size:16.20000076px;font-variant:normal;font-weight:bold;font-stretch:normal;writing-mode:lr-tb;fill:#000000;fill-opacity:1;fill-rule:nonzero;stroke:none;font-family:Garamond;-inkscape-font-specification:Garamond-Bold"
         x="296.64462 303.39676 308.46414 316.2207 320.42944"
         y="411.97647"
         sodipodi:role="line"
         id="tspan16156">stall</tspan>
    </text>
    <g
       id="g16158"
       transform="matrix(0,1.25,1.25,0,343.59523,406.12647)">
      <path
         inkscape:connector-curvature="0"
         d="M 0,0 C -7.32,0 -13.26,11.04 -13.26,24.72 -13.26,38.4 -7.32,49.5 0,49.5 7.38,49.5 13.32,38.4 13.32,24.72 13.32,11.04 7.38,0 0,0"
         style="fill:#b2b2b2;fill-opacity:1;fill-rule:evenodd;stroke:none"
         id="path16160" />
    </g>
    <path
       inkscape:connector-curvature="0"
       d="m 359.87023,396.90147 0,19.35 27.9,0 0,-19.35 -27.9,0 z"
       style="fill:#b2b2b2;fill-opacity:1;fill-rule:nonzero;stroke:none"
       id="path16162" />
    <text
       id="text16164"
       x="359.8696"
       y="411.97647"
       style="font-size:15px">
      <tspan
         style="font-size:16.20000076px;font-variant:normal;font-weight:bold;font-stretch:normal;writing-mode:lr-tb;fill:#000000;fill-opacity:1;fill-rule:nonzero;stroke:none;font-family:Garamond;-inkscape-font-specification:Garamond-Bold"
         x="359.8696 366.62177 371.68912 379.44568 383.65445"
         y="411.97647"
         sodipodi:role="line"
         id="tspan16166">stall</tspan>
    </text>
    <g
       id="g16168"
       transform="matrix(0,1.25,1.25,0,406.97023,406.12647)">
      <path
         inkscape:connector-curvature="0"
         d="M 0,0 C -7.32,0 -13.26,11.1 -13.26,24.78 -13.26,38.46 -7.32,49.5 0,49.5 7.38,49.5 13.32,38.46 13.32,24.78 13.32,11.1 7.38,0 0,0"
         style="fill:#b2b2b2;fill-opacity:1;fill-rule:evenodd;stroke:none"
         id="path16170" />
    </g>
    <path
       inkscape:connector-curvature="0"
       d="m 423.39523,396.90147 0,19.35 27.975,0 0,-19.35 -27.975,0 z"
       style="fill:#b2b2b2;fill-opacity:1;fill-rule:nonzero;stroke:none"
       id="path16172" />
    <text
       id="text16174"
       x="423.4696"
       y="411.97647"
       style="font-size:15px">
      <tspan
         style="font-size:16.20000076px;font-variant:normal;font-weight:bold;font-stretch:normal;writing-mode:lr-tb;fill:#000000;fill-opacity:1;fill-rule:nonzero;stroke:none;font-family:Garamond;-inkscape-font-specification:Garamond-Bold"
         x="423.4696 430.22177 435.28912 443.04568 447.25446"
         y="411.97647"
         sodipodi:role="line"
         id="tspan16176">stall</tspan>
    </text>
  </g>
</svg>
