<?xml version="1.0" encoding="UTF-8" standalone="no"?>
<!-- Created with Inkscape (http://www.inkscape.org/) -->

<svg
   xmlns:dc="http://purl.org/dc/elements/1.1/"
   xmlns:cc="http://creativecommons.org/ns#"
   xmlns:rdf="http://www.w3.org/1999/02/22-rdf-syntax-ns#"
   xmlns:svg="http://www.w3.org/2000/svg"
   xmlns="http://www.w3.org/2000/svg"
   xmlns:sodipodi="http://sodipodi.sourceforge.net/DTD/sodipodi-0.dtd"
   xmlns:inkscape="http://www.inkscape.org/namespaces/inkscape"
   width="864.90698"
   height="313.90332"
   id="svg16468"
   version="1.1"
   inkscape:version="0.48.4 r9939"
   sodipodi:docname="New document 46">
  <defs
     id="defs16470">
    <clipPath
       id="clipPath16496"
       clipPathUnits="userSpaceOnUse">
      <path
         id="path16498"
         d="m 0,841.98 595.2,0 L 595.2,0 0,0 0,841.98 z"
         inkscape:connector-curvature="0" />
    </clipPath>
    <clipPath
       id="clipPath16490"
       clipPathUnits="userSpaceOnUse">
      <path
         id="path16492"
         clip-rule="evenodd"
         d="m 588.84,0.11053 -582.84,0 0,841.86 582.84,0 0,-841.86 z"
         inkscape:connector-curvature="0" />
    </clipPath>
  </defs>
  <sodipodi:namedview
     id="base"
     pagecolor="#ffffff"
     bordercolor="#666666"
     borderopacity="1.0"
     inkscape:pageopacity="0.0"
     inkscape:pageshadow="2"
     inkscape:zoom="0.7"
     inkscape:cx="582.40486"
     inkscape:cy="92.838003"
     inkscape:document-units="px"
     inkscape:current-layer="layer1"
     showgrid="false"
     fit-margin-top="10"
     fit-margin-left="10"
     fit-margin-right="10"
     fit-margin-bottom="10"
     inkscape:window-width="954"
     inkscape:window-height="1028"
     inkscape:window-x="0"
     inkscape:window-y="0"
     inkscape:window-maximized="0" />
  <metadata
     id="metadata16473">
    <rdf:RDF>
      <cc:Work
         rdf:about="">
        <dc:format>image/svg+xml</dc:format>
        <dc:type
           rdf:resource="http://purl.org/dc/dcmitype/StillImage" />
        <dc:title></dc:title>
      </cc:Work>
    </rdf:RDF>
  </metadata>
  <g
     inkscape:label="Layer 1"
     inkscape:groupmode="layer"
     id="layer1"
     transform="translate(-19.445401,-264.65386)">
    <path
       inkscape:connector-curvature="0"
       d="m 244.80237,317.1979 0,39.9 70.05,0 0,-39.9 -70.05,0 z"
       style="fill:#99ffcc;fill-opacity:1;fill-rule:nonzero;stroke:none"
       id="path16518" />
    <path
       inkscape:connector-curvature="0"
       d="m 244.35237,357.6229 0,-40.95 70.95,0 0,40.95 -70.95,0 z m 0,-40.95 z m 0.975,40.425 -0.525,-0.45 70.05,0 -0.525,0.45 0,-39.9 0.525,0.45 -70.05,0 0.525,-0.45"
       style="fill:#000000;fill-opacity:1;fill-rule:nonzero;stroke:none"
       id="path16520" />
    <text
       id="text16522"
       x="269.02676"
       y="345.62289"
       style="font-size:15px">
      <tspan
         style="font-size:24.30000114px;font-variant:normal;font-weight:bold;font-stretch:normal;writing-mode:lr-tb;fill:#000000;fill-opacity:1;fill-rule:nonzero;stroke:none;font-family:Arial;-inkscape-font-specification:Arial-BoldMT"
         x="269.02676 275.77972"
         y="345.62289"
         sodipodi:role="line"
         id="tspan16524">IF</tspan>
    </text>
    <path
       inkscape:connector-curvature="0"
       d="m 314.85237,317.1979 0,39.9 69.825,0 0,-39.9 -69.825,0 z"
       style="fill:#99ffcc;fill-opacity:1;fill-rule:nonzero;stroke:none"
       id="path16526" />
    <path
       inkscape:connector-curvature="0"
       d="m 314.32737,357.6229 0,-40.95 70.8,0 0,40.95 -70.8,0 z m 0,-40.95 z m 0.975,40.425 -0.45,-0.45 69.825,0 -0.525,0.45 0,-39.9 0.525,0.45 -69.825,0 0.45,-0.45"
       style="fill:#000000;fill-opacity:1;fill-rule:nonzero;stroke:none"
       id="path16528" />
    <text
       id="text16530"
       x="337.57675"
       y="345.62289"
       style="font-size:15px">
      <tspan
         style="font-size:24.30000114px;font-variant:normal;font-weight:bold;font-stretch:normal;writing-mode:lr-tb;fill:#000000;fill-opacity:1;fill-rule:nonzero;stroke:none;font-family:Arial;-inkscape-font-specification:Arial-BoldMT"
         x="337.57675 344.32971"
         y="345.62289"
         sodipodi:role="line"
         id="tspan16532">ID</tspan>
    </text>
    <path
       inkscape:connector-curvature="0"
       d="m 384.67737,317.1979 0,39.9 69.75,0 0,-39.9 -69.75,0 z"
       style="fill:#99ffcc;fill-opacity:1;fill-rule:nonzero;stroke:none"
       id="path16534" />
    <path
       inkscape:connector-curvature="0"
       d="m 384.15237,357.6229 0,-40.95 70.8,0 0,40.95 -70.8,0 z m 0,-40.95 z m 0.975,40.425 -0.45,-0.45 69.75,0 -0.45,0.45 0,-39.9 0.45,0.45 -69.75,0 0.45,-0.45"
       style="fill:#000000;fill-opacity:1;fill-rule:nonzero;stroke:none"
       id="path16536" />
    <text
       id="text16538"
       x="403.35175"
       y="345.62289"
       style="font-size:15px">
      <tspan
         style="font-size:24.30000114px;font-variant:normal;font-weight:bold;font-stretch:normal;writing-mode:lr-tb;fill:#000000;fill-opacity:1;fill-rule:nonzero;stroke:none;font-family:Arial;-inkscape-font-specification:Arial-BoldMT"
         x="403.35175 419.55255"
         y="345.62289"
         sodipodi:role="line"
         id="tspan16540">EX</tspan>
    </text>
    <path
       inkscape:connector-curvature="0"
       d="m 454.42737,317.1979 0,39.9 70.05,0 0,-39.9 -70.05,0 z"
       style="fill:#99ffcc;fill-opacity:1;fill-rule:nonzero;stroke:none"
       id="path16542" />
    <path
       inkscape:connector-curvature="0"
       d="m 453.97737,357.6229 0,-40.95 70.95,0 0,40.95 -70.95,0 z m 0,-40.95 z m 0.975,40.425 -0.525,-0.45 70.05,0 -0.525,0.45 0,-39.9 0.525,0.45 -70.05,0 0.525,-0.45"
       style="fill:#000000;fill-opacity:1;fill-rule:nonzero;stroke:none"
       id="path16544" />
    <text
       id="text16546"
       x="471.22675"
       y="345.62289"
       style="font-size:15px">
      <tspan
         style="font-size:24.30000114px;font-variant:normal;font-weight:bold;font-stretch:normal;writing-mode:lr-tb;fill:#000000;fill-opacity:1;fill-rule:nonzero;stroke:none;font-family:Arial;-inkscape-font-specification:Arial-BoldMT"
         x="471.22675 491.47595"
         y="345.62289"
         sodipodi:role="line"
         id="tspan16548">ME</tspan>
    </text>
    <path
       inkscape:connector-curvature="0"
       d="m 524.47737,317.1979 0,39.9 69.825,0 0,-39.9 -69.825,0 z"
       style="fill:#99ffcc;fill-opacity:1;fill-rule:nonzero;stroke:none"
       id="path16550" />
    <path
       inkscape:connector-curvature="0"
       d="m 523.95237,357.6229 0,-40.95 70.8,0 0,40.95 -70.8,0 z m 0,-40.95 z m 0.975,40.425 -0.45,-0.45 69.825,0 -0.52625,0.45 0,-39.9 0.52625,0.45 -69.825,0 0.45,-0.45"
       style="fill:#000000;fill-opacity:1;fill-rule:nonzero;stroke:none"
       id="path16552" />
    <text
       id="text16554"
       x="539.10175"
       y="345.62289"
       style="font-size:15px">
      <tspan
         style="font-size:24.30000114px;font-variant:normal;font-weight:bold;font-stretch:normal;writing-mode:lr-tb;fill:#000000;fill-opacity:1;fill-rule:nonzero;stroke:none;font-family:Arial;-inkscape-font-specification:Arial-BoldMT"
         x="539.10175 562.05554"
         y="345.62289"
         sodipodi:role="line"
         id="tspan16556">WB</tspan>
    </text>
    <path
       inkscape:connector-curvature="0"
       d="m 314.85237,366.5479 0,39.975 69.825,0 0,-39.975 -69.825,0 z"
       style="fill:#99ffcc;fill-opacity:1;fill-rule:nonzero;stroke:none"
       id="path16558" />
    <path
       inkscape:connector-curvature="0"
       d="m 314.32737,407.0479 0,-40.95 70.8,0 0,40.95 -70.8,0 z m 0,-40.95 z m 0.975,40.425 -0.45,-0.45 69.825,0 -0.525,0.45 0,-39.975 0.525,0.525 -69.825,0 0.45,-0.525"
       style="fill:#000000;fill-opacity:1;fill-rule:nonzero;stroke:none"
       id="path16560" />
    <text
       id="text16562"
       x="338.92676"
       y="395.04791"
       style="font-size:15px">
      <tspan
         style="font-size:24.30000114px;font-variant:normal;font-weight:bold;font-stretch:normal;writing-mode:lr-tb;fill:#000000;fill-opacity:1;fill-rule:nonzero;stroke:none;font-family:Arial;-inkscape-font-specification:Arial-BoldMT"
         x="338.92676 345.67972"
         y="395.04791"
         sodipodi:role="line"
         id="tspan16564">IF</tspan>
    </text>
    <path
       inkscape:connector-curvature="0"
       d="m 384.67737,366.5479 0,39.975 69.75,0 0,-39.975 -69.75,0 z"
       style="fill:#99ffcc;fill-opacity:1;fill-rule:nonzero;stroke:none"
       id="path16566" />
    <path
       inkscape:connector-curvature="0"
       d="m 384.15237,407.0479 0,-40.95 70.8,0 0,40.95 -70.8,0 z m 0,-40.95 z m 0.975,40.425 -0.45,-0.45 69.75,0 -0.45,0.45 0,-39.975 0.45,0.525 -69.75,0 0.45,-0.525"
       style="fill:#000000;fill-opacity:1;fill-rule:nonzero;stroke:none"
       id="path16568" />
    <text
       id="text16570"
       x="407.40176"
       y="395.04791"
       style="font-size:15px">
      <tspan
         style="font-size:24.30000114px;font-variant:normal;font-weight:bold;font-stretch:normal;writing-mode:lr-tb;fill:#000000;fill-opacity:1;fill-rule:nonzero;stroke:none;font-family:Arial;-inkscape-font-specification:Arial-BoldMT"
         x="407.40176 414.15472"
         y="395.04791"
         sodipodi:role="line"
         id="tspan16572">ID</tspan>
    </text>
    <path
       inkscape:connector-curvature="0"
       d="m 454.42737,366.5479 0,39.975 70.05,0 0,-39.975 -70.05,0 z"
       style="fill:#99ffcc;fill-opacity:1;fill-rule:nonzero;stroke:none"
       id="path16574" />
    <path
       inkscape:connector-curvature="0"
       d="m 453.97737,407.0479 0,-40.95 70.95,0 0,40.95 -70.95,0 z m 0,-40.95 z m 0.975,40.425 -0.525,-0.45 70.05,0 -0.525,0.45 0,-39.975 0.525,0.525 -70.05,0 0.525,-0.525"
       style="fill:#000000;fill-opacity:1;fill-rule:nonzero;stroke:none"
       id="path16576" />
    <text
       id="text16578"
       x="473.25174"
       y="395.04791"
       style="font-size:15px">
      <tspan
         style="font-size:24.30000114px;font-variant:normal;font-weight:bold;font-stretch:normal;writing-mode:lr-tb;fill:#000000;fill-opacity:1;fill-rule:nonzero;stroke:none;font-family:Arial;-inkscape-font-specification:Arial-BoldMT"
         x="473.25174 489.45255"
         y="395.04791"
         sodipodi:role="line"
         id="tspan16580">EX</tspan>
    </text>
    <path
       inkscape:connector-curvature="0"
       d="m 524.47737,366.5479 0,39.975 69.825,0 0,-39.975 -69.825,0 z"
       style="fill:#99ffcc;fill-opacity:1;fill-rule:nonzero;stroke:none"
       id="path16582" />
    <path
       inkscape:connector-curvature="0"
       d="m 523.95237,407.0479 0,-40.95 70.8,0 0,40.95 -70.8,0 z m 0,-40.95 z m 0.975,40.425 -0.45,-0.45 69.825,0 -0.52625,0.45 0,-39.975 0.52625,0.525 -69.825,0 0.45,-0.525"
       style="fill:#000000;fill-opacity:1;fill-rule:nonzero;stroke:none"
       id="path16584" />
    <text
       id="text16586"
       x="541.12677"
       y="395.04791"
       style="font-size:15px">
      <tspan
         style="font-size:24.30000114px;font-variant:normal;font-weight:bold;font-stretch:normal;writing-mode:lr-tb;fill:#000000;fill-opacity:1;fill-rule:nonzero;stroke:none;font-family:Arial;-inkscape-font-specification:Arial-BoldMT"
         x="541.12677 561.37592"
         y="395.04791"
         sodipodi:role="line"
         id="tspan16588">ME</tspan>
    </text>
    <path
       inkscape:connector-curvature="0"
       d="m 594.30237,366.5479 0,39.975 69.975,0 0,-39.975 -69.975,0 z"
       style="fill:#99ffcc;fill-opacity:1;fill-rule:nonzero;stroke:none"
       id="path16590" />
    <path
       inkscape:connector-curvature="0"
       d="m 593.77612,407.0479 0,-40.95 70.95,0 0,40.95 -70.95,0 z m 0,-40.95 z m 0.97625,40.425 -0.45,-0.45 69.975,0 -0.525,0.45 0,-39.975 0.525,0.525 -69.975,0 0.45,-0.525"
       style="fill:#000000;fill-opacity:1;fill-rule:nonzero;stroke:none"
       id="path16592" />
    <text
       id="text16594"
       x="609.00177"
       y="395.04791"
       style="font-size:15px">
      <tspan
         style="font-size:24.30000114px;font-variant:normal;font-weight:bold;font-stretch:normal;writing-mode:lr-tb;fill:#000000;fill-opacity:1;fill-rule:nonzero;stroke:none;font-family:Arial;-inkscape-font-specification:Arial-BoldMT"
         x="609.00177 631.95551"
         y="395.04791"
         sodipodi:role="line"
         id="tspan16596">WB</tspan>
    </text>
    <path
       inkscape:connector-curvature="0"
       d="m 384.67737,415.9729 0,39.975 69.75,0 0,-39.975 -69.75,0 z"
       style="fill:#99ffcc;fill-opacity:1;fill-rule:nonzero;stroke:none"
       id="path16598" />
    <path
       inkscape:connector-curvature="0"
       d="m 384.15237,456.4729 0,-41.025 70.8,0 0,41.025 -70.8,0 z m 0,-41.025 z m 0.975,40.5 -0.45,-0.525 69.75,0 -0.45,0.525 0,-39.975 0.45,0.525 -69.75,0 0.45,-0.525"
       style="fill:#000000;fill-opacity:1;fill-rule:nonzero;stroke:none"
       id="path16600" />
    <text
       id="text16602"
       x="408.75174"
       y="444.4729"
       style="font-size:15px">
      <tspan
         style="font-size:24.30000114px;font-variant:normal;font-weight:bold;font-stretch:normal;writing-mode:lr-tb;fill:#000000;fill-opacity:1;fill-rule:nonzero;stroke:none;font-family:Arial;-inkscape-font-specification:Arial-BoldMT"
         x="408.75174 415.50473"
         y="444.4729"
         sodipodi:role="line"
         id="tspan16604">IF</tspan>
    </text>
    <path
       inkscape:connector-curvature="0"
       d="m 454.42737,415.9729 0,39.975 70.05,0 0,-39.975 -70.05,0 z"
       style="fill:#99ffcc;fill-opacity:1;fill-rule:nonzero;stroke:none"
       id="path16606" />
    <path
       inkscape:connector-curvature="0"
       d="m 453.97737,456.4729 0,-41.025 70.95,0 0,41.025 -70.95,0 z m 0,-41.025 z m 0.975,40.5 -0.525,-0.525 70.05,0 -0.525,0.525 0,-39.975 0.525,0.525 -70.05,0 0.525,-0.525"
       style="fill:#000000;fill-opacity:1;fill-rule:nonzero;stroke:none"
       id="path16608" />
    <text
       id="text16610"
       x="477.30176"
       y="444.4729"
       style="font-size:15px">
      <tspan
         style="font-size:24.30000114px;font-variant:normal;font-weight:bold;font-stretch:normal;writing-mode:lr-tb;fill:#000000;fill-opacity:1;fill-rule:nonzero;stroke:none;font-family:Arial;-inkscape-font-specification:Arial-BoldMT"
         x="477.30176 484.05472"
         y="444.4729"
         sodipodi:role="line"
         id="tspan16612">ID</tspan>
    </text>
    <path
       inkscape:connector-curvature="0"
       d="m 524.47737,415.9729 0,39.975 69.825,0 0,-39.975 -69.825,0 z"
       style="fill:#99ffcc;fill-opacity:1;fill-rule:nonzero;stroke:none"
       id="path16614" />
    <path
       inkscape:connector-curvature="0"
       d="m 523.95237,456.4729 0,-41.025 70.8,0 0,41.025 -70.8,0 z m 0,-41.025 z m 0.975,40.5 -0.45,-0.525 69.825,0 -0.52625,0.525 0,-39.975 0.52625,0.525 -69.825,0 0.45,-0.525"
       style="fill:#000000;fill-opacity:1;fill-rule:nonzero;stroke:none"
       id="path16616" />
    <text
       id="text16618"
       x="543.15173"
       y="444.4729"
       style="font-size:15px">
      <tspan
         style="font-size:24.30000114px;font-variant:normal;font-weight:bold;font-stretch:normal;writing-mode:lr-tb;fill:#000000;fill-opacity:1;fill-rule:nonzero;stroke:none;font-family:Arial;-inkscape-font-specification:Arial-BoldMT"
         x="543.15173 559.35254"
         y="444.4729"
         sodipodi:role="line"
         id="tspan16620">EX</tspan>
    </text>
    <path
       inkscape:connector-curvature="0"
       d="m 594.30237,415.9729 0,39.975 69.975,0 0,-39.975 -69.975,0 z"
       style="fill:#99ffcc;fill-opacity:1;fill-rule:nonzero;stroke:none"
       id="path16622" />
    <path
       inkscape:connector-curvature="0"
       d="m 593.77612,456.4729 0,-41.025 70.95,0 0,41.025 -70.95,0 z m 0,-41.025 z m 0.97625,40.5 -0.45,-0.525 69.975,0 -0.525,0.525 0,-39.975 0.525,0.525 -69.975,0 0.45,-0.525"
       style="fill:#000000;fill-opacity:1;fill-rule:nonzero;stroke:none"
       id="path16624" />
    <text
       id="text16626"
       x="611.02673"
       y="444.4729"
       style="font-size:15px">
      <tspan
         style="font-size:24.30000114px;font-variant:normal;font-weight:bold;font-stretch:normal;writing-mode:lr-tb;fill:#000000;fill-opacity:1;fill-rule:nonzero;stroke:none;font-family:Arial;-inkscape-font-specification:Arial-BoldMT"
         x="611.02673 631.27594"
         y="444.4729"
         sodipodi:role="line"
         id="tspan16628">ME</tspan>
    </text>
    <path
       inkscape:connector-curvature="0"
       d="m 664.27737,415.9729 0,39.975 69.825,0 0,-39.975 -69.825,0 z"
       style="fill:#99ffcc;fill-opacity:1;fill-rule:nonzero;stroke:none"
       id="path16630" />
    <path
       inkscape:connector-curvature="0"
       d="m 663.75237,456.4729 0,-41.025 70.8,0 0,41.025 -70.8,0 z m 0,-41.025 z m 0.97375,40.5 -0.44875,-0.525 69.82375,0 -0.52375,0.525 0,-39.975 0.52375,0.525 -69.82375,0 0.44875,-0.525"
       style="fill:#000000;fill-opacity:1;fill-rule:nonzero;stroke:none"
       id="path16632" />
    <text
       id="text16634"
       x="678.97675"
       y="444.4729"
       style="font-size:15px">
      <tspan
         style="font-size:24.30000114px;font-variant:normal;font-weight:bold;font-stretch:normal;writing-mode:lr-tb;fill:#000000;fill-opacity:1;fill-rule:nonzero;stroke:none;font-family:Arial;-inkscape-font-specification:Arial-BoldMT"
         x="678.97675 701.93054"
         y="444.4729"
         sodipodi:role="line"
         id="tspan16636">WB</tspan>
    </text>
    <path
       inkscape:connector-curvature="0"
       d="m 454.42737,465.3979 0,39.975 70.05,0 0,-39.975 -70.05,0 z"
       style="fill:#99ffcc;fill-opacity:1;fill-rule:nonzero;stroke:none"
       id="path16638" />
    <path
       inkscape:connector-curvature="0"
       d="m 453.97737,505.8979 0,-41.025 70.95,0 0,41.025 -70.95,0 z m 0,-41.025 z m 0.975,40.5 -0.525,-0.525 70.05,0 -0.525,0.525 0,-39.975 0.525,0.525 -70.05,0 0.525,-0.525"
       style="fill:#000000;fill-opacity:1;fill-rule:nonzero;stroke:none"
       id="path16640" />
    <text
       id="text16642"
       x="478.65176"
       y="493.89789"
       style="font-size:15px">
      <tspan
         style="font-size:24.30000114px;font-variant:normal;font-weight:bold;font-stretch:normal;writing-mode:lr-tb;fill:#000000;fill-opacity:1;fill-rule:nonzero;stroke:none;font-family:Arial;-inkscape-font-specification:Arial-BoldMT"
         x="478.65176 485.40472"
         y="493.89789"
         sodipodi:role="line"
         id="tspan16644">IF</tspan>
    </text>
    <path
       inkscape:connector-curvature="0"
       d="m 524.47737,465.3979 0,39.975 69.825,0 0,-39.975 -69.825,0 z"
       style="fill:#99ffcc;fill-opacity:1;fill-rule:nonzero;stroke:none"
       id="path16646" />
    <path
       inkscape:connector-curvature="0"
       d="m 523.95237,505.8979 0,-41.025 70.8,0 0,41.025 -70.8,0 z m 0,-41.025 z m 0.975,40.5 -0.45,-0.525 69.825,0 -0.52625,0.525 0,-39.975 0.52625,0.525 -69.825,0 0.45,-0.525"
       style="fill:#000000;fill-opacity:1;fill-rule:nonzero;stroke:none"
       id="path16648" />
    <text
       id="text16650"
       x="547.20172"
       y="493.89789"
       style="font-size:15px">
      <tspan
         style="font-size:24.30000114px;font-variant:normal;font-weight:bold;font-stretch:normal;writing-mode:lr-tb;fill:#000000;fill-opacity:1;fill-rule:nonzero;stroke:none;font-family:Arial;-inkscape-font-specification:Arial-BoldMT"
         x="547.20172 553.95471"
         y="493.89789"
         sodipodi:role="line"
         id="tspan16652">ID</tspan>
    </text>
    <path
       inkscape:connector-curvature="0"
       d="m 594.30237,465.3979 0,39.975 69.975,0 0,-39.975 -69.975,0 z"
       style="fill:#99ffcc;fill-opacity:1;fill-rule:nonzero;stroke:none"
       id="path16654" />
    <path
       inkscape:connector-curvature="0"
       d="m 593.77612,505.8979 0,-41.025 70.95,0 0,41.025 -70.95,0 z m 0,-41.025 z m 0.97625,40.5 -0.45,-0.525 69.975,0 -0.525,0.525 0,-39.975 0.525,0.525 -69.975,0 0.45,-0.525"
       style="fill:#000000;fill-opacity:1;fill-rule:nonzero;stroke:none"
       id="path16656" />
    <text
       id="text16658"
       x="613.05176"
       y="493.89789"
       style="font-size:15px">
      <tspan
         style="font-size:24.30000114px;font-variant:normal;font-weight:bold;font-stretch:normal;writing-mode:lr-tb;fill:#000000;fill-opacity:1;fill-rule:nonzero;stroke:none;font-family:Arial;-inkscape-font-specification:Arial-BoldMT"
         x="613.05176 629.25256"
         y="493.89789"
         sodipodi:role="line"
         id="tspan16660">EX</tspan>
    </text>
    <path
       inkscape:connector-curvature="0"
       d="m 664.27737,465.3979 0,39.975 69.825,0 0,-39.975 -69.825,0 z"
       style="fill:#99ffcc;fill-opacity:1;fill-rule:nonzero;stroke:none"
       id="path16662" />
    <path
       inkscape:connector-curvature="0"
       d="m 663.75237,505.8979 0,-41.025 70.8,0 0,41.025 -70.8,0 z m 0,-41.025 z m 0.97375,40.5 -0.44875,-0.525 69.82375,0 -0.52375,0.525 0,-39.975 0.52375,0.525 -69.82375,0 0.44875,-0.525"
       style="fill:#000000;fill-opacity:1;fill-rule:nonzero;stroke:none"
       id="path16664" />
    <text
       id="text16666"
       x="681.00177"
       y="493.89789"
       style="font-size:15px">
      <tspan
         style="font-size:24.30000114px;font-variant:normal;font-weight:bold;font-stretch:normal;writing-mode:lr-tb;fill:#000000;fill-opacity:1;fill-rule:nonzero;stroke:none;font-family:Arial;-inkscape-font-specification:Arial-BoldMT"
         x="681.00177 701.25092"
         y="493.89789"
         sodipodi:role="line"
         id="tspan16668">ME</tspan>
    </text>
    <path
       inkscape:connector-curvature="0"
       d="m 734.10112,465.3979 0,39.975 69.975,0 0,-39.975 -69.975,0 z"
       style="fill:#99ffcc;fill-opacity:1;fill-rule:nonzero;stroke:none"
       id="path16670" />
    <path
       inkscape:connector-curvature="0"
       d="m 733.57737,505.8979 0,-41.025 71.025,0 0,41.025 -71.025,0 z m 0,-41.025 z m 0.97375,40.5 -0.45,-0.525 69.975,0 -0.52375,0.525 0,-39.975 0.52375,0.525 -69.975,0 0.45,-0.525"
       style="fill:#000000;fill-opacity:1;fill-rule:nonzero;stroke:none"
       id="path16672" />
    <text
       id="text16674"
       x="748.80176"
       y="493.89789"
       style="font-size:15px">
      <tspan
         style="font-size:24.30000114px;font-variant:normal;font-weight:bold;font-stretch:normal;writing-mode:lr-tb;fill:#000000;fill-opacity:1;fill-rule:nonzero;stroke:none;font-family:Arial;-inkscape-font-specification:Arial-BoldMT"
         x="748.80176 771.75555"
         y="493.89789"
         sodipodi:role="line"
         id="tspan16676">WB</tspan>
    </text>
    <path
       inkscape:connector-curvature="0"
       d="m 524.47737,514.8229 0,39.975 69.825,0 0,-39.975 -69.825,0 z"
       style="fill:#99ffcc;fill-opacity:1;fill-rule:nonzero;stroke:none"
       id="path16678" />
    <path
       inkscape:connector-curvature="0"
       d="m 523.95237,555.3229 0,-41.025 70.8,0 0,41.025 -70.8,0 z m 0,-41.025 z m 0.975,40.5 -0.45,-0.525 69.825,0 -0.52625,0.525 0,-39.975 0.52625,0.525 -69.825,0 0.45,-0.525"
       style="fill:#000000;fill-opacity:1;fill-rule:nonzero;stroke:none"
       id="path16680" />
    <text
       id="text16682"
       x="548.55176"
       y="543.24792"
       style="font-size:15px">
      <tspan
         style="font-size:24.30000114px;font-variant:normal;font-weight:bold;font-stretch:normal;writing-mode:lr-tb;fill:#000000;fill-opacity:1;fill-rule:nonzero;stroke:none;font-family:Arial;-inkscape-font-specification:Arial-BoldMT"
         x="548.55176 555.30475"
         y="543.24792"
         sodipodi:role="line"
         id="tspan16684">IF</tspan>
    </text>
    <path
       inkscape:connector-curvature="0"
       d="m 594.30237,514.8229 0,39.975 69.975,0 0,-39.975 -69.975,0 z"
       style="fill:#99ffcc;fill-opacity:1;fill-rule:nonzero;stroke:none"
       id="path16686" />
    <path
       inkscape:connector-curvature="0"
       d="m 593.77612,555.3229 0,-41.025 70.95,0 0,41.025 -70.95,0 z m 0,-41.025 z m 0.97625,40.5 -0.45,-0.525 69.975,0 -0.525,0.525 0,-39.975 0.525,0.525 -69.975,0 0.45,-0.525"
       style="fill:#000000;fill-opacity:1;fill-rule:nonzero;stroke:none"
       id="path16688" />
    <text
       id="text16690"
       x="617.10175"
       y="543.24792"
       style="font-size:15px">
      <tspan
         style="font-size:24.30000114px;font-variant:normal;font-weight:bold;font-stretch:normal;writing-mode:lr-tb;fill:#000000;fill-opacity:1;fill-rule:nonzero;stroke:none;font-family:Arial;-inkscape-font-specification:Arial-BoldMT"
         x="617.10175 623.85474"
         y="543.24792"
         sodipodi:role="line"
         id="tspan16692">ID</tspan>
    </text>
    <path
       inkscape:connector-curvature="0"
       d="m 664.27737,514.8229 0,39.975 69.825,0 0,-39.975 -69.825,0 z"
       style="fill:#99ffcc;fill-opacity:1;fill-rule:nonzero;stroke:none"
       id="path16694" />
    <path
       inkscape:connector-curvature="0"
       d="m 663.75237,555.3229 0,-41.025 70.8,0 0,41.025 -70.8,0 z m 0,-41.025 z m 0.97375,40.5 -0.44875,-0.525 69.82375,0 -0.52375,0.525 0,-39.975 0.52375,0.525 -69.82375,0 0.44875,-0.525"
       style="fill:#000000;fill-opacity:1;fill-rule:nonzero;stroke:none"
       id="path16696" />
    <text
       id="text16698"
       x="683.02673"
       y="543.24792"
       style="font-size:15px">
      <tspan
         style="font-size:24.30000114px;font-variant:normal;font-weight:bold;font-stretch:normal;writing-mode:lr-tb;fill:#000000;fill-opacity:1;fill-rule:nonzero;stroke:none;font-family:Arial;-inkscape-font-specification:Arial-BoldMT"
         x="683.02673 699.22754"
         y="543.24792"
         sodipodi:role="line"
         id="tspan16700">EX</tspan>
    </text>
    <path
       inkscape:connector-curvature="0"
       d="m 734.10112,514.8229 0,39.975 69.975,0 0,-39.975 -69.975,0 z"
       style="fill:#99ffcc;fill-opacity:1;fill-rule:nonzero;stroke:none"
       id="path16702" />
    <path
       inkscape:connector-curvature="0"
       d="m 733.57737,555.3229 0,-41.025 71.025,0 0,41.025 -71.025,0 z m 0,-41.025 z m 0.97375,40.5 -0.45,-0.525 69.975,0 -0.52375,0.525 0,-39.975 0.52375,0.525 -69.975,0 0.45,-0.525"
       style="fill:#000000;fill-opacity:1;fill-rule:nonzero;stroke:none"
       id="path16704" />
    <text
       id="text16706"
       x="750.82672"
       y="543.24792"
       style="font-size:15px">
      <tspan
         style="font-size:24.30000114px;font-variant:normal;font-weight:bold;font-stretch:normal;writing-mode:lr-tb;fill:#000000;fill-opacity:1;fill-rule:nonzero;stroke:none;font-family:Arial;-inkscape-font-specification:Arial-BoldMT"
         x="750.82672 771.07593"
         y="543.24792"
         sodipodi:role="line"
         id="tspan16708">ME</tspan>
    </text>
    <path
       inkscape:connector-curvature="0"
       d="m 804.07612,514.8229 0,39.975 69.825,0 0,-39.975 -69.825,0 z"
       style="fill:#99ffcc;fill-opacity:1;fill-rule:nonzero;stroke:none"
       id="path16710" />
    <path
       inkscape:connector-curvature="0"
       d="m 803.55237,555.3229 0,-41.025 70.8,0 0,41.025 -70.8,0 z m 0,-41.025 z m 1.05,40.5 -0.52625,-0.525 69.82625,0 -0.525,0.525 0,-39.975 0.525,0.525 -69.82625,0 0.52625,-0.525"
       style="fill:#000000;fill-opacity:1;fill-rule:nonzero;stroke:none"
       id="path16712" />
    <text
       id="text16714"
       x="818.77673"
       y="543.24792"
       style="font-size:15px">
      <tspan
         style="font-size:24.30000114px;font-variant:normal;font-weight:bold;font-stretch:normal;writing-mode:lr-tb;fill:#000000;fill-opacity:1;fill-rule:nonzero;stroke:none;font-family:Arial;-inkscape-font-specification:Arial-BoldMT"
         x="818.77673 841.73053"
         y="543.24792"
         sodipodi:role="line"
         id="tspan16716">WB</tspan>
    </text>
    <text
       id="text16718"
       x="28.651749"
       y="337.07291"
       style="font-size:15px">
      <tspan
         style="font-size:18.89999962px;font-variant:normal;font-weight:bold;font-stretch:normal;writing-mode:lr-tb;fill:#000000;fill-opacity:1;fill-rule:nonzero;stroke:none;font-family:Courier New;-inkscape-font-specification:CourierNewPS-BoldMT"
         x="28.651749 39.953949 51.256149 62.55835 85.166527 96.468727 107.77093 119.07313 130.37723 141.67941 152.98161 164.28381 175.58791 186.89011"
         y="337.07291"
         sodipodi:role="line"
         id="tspan16720">sub $2, $1, $3</tspan>
      <tspan
         style="font-size:18.89999962px;font-variant:normal;font-weight:bold;font-stretch:normal;writing-mode:lr-tb;fill:#000000;fill-opacity:1;fill-rule:nonzero;stroke:none;font-family:Courier New;-inkscape-font-specification:CourierNewPS-BoldMT"
         x="28.651749 39.953949 51.256149 62.55835 73.856766 85.158966 96.461166 107.76337 119.06557 130.36398 141.66618 152.9684 164.27058 175.56902 186.87122"
         y="396.0976"
         sodipodi:role="line"
         id="tspan16722">and $12, $2, $5</tspan>
      <tspan
         style="font-size:18.89999962px;font-variant:normal;font-weight:bold;font-stretch:normal;writing-mode:lr-tb;fill:#000000;fill-opacity:1;fill-rule:nonzero;stroke:none;font-family:Courier New;-inkscape-font-specification:CourierNewPS-BoldMT"
         x="28.651749 39.950169 51.248589 73.856766 85.15519 96.453613 107.75203 119.05045 130.35454 141.65295 152.95139 164.2498 175.55389 186.85231"
         y="452.72198"
         sodipodi:role="line"
         id="tspan16724">or $13, $6, $2</tspan>
      <tspan
         style="font-size:18.89999962px;font-variant:normal;font-weight:bold;font-stretch:normal;writing-mode:lr-tb;fill:#000000;fill-opacity:1;fill-rule:nonzero;stroke:none;font-family:Courier New;-inkscape-font-specification:CourierNewPS-BoldMT"
         x="28.651749 39.953949 51.256149 62.55835 73.856766 85.158966 96.461166 107.76337 119.06557 130.36398 141.66618 152.9684 164.27058 175.56902 186.87122"
         y="508.89658"
         sodipodi:role="line"
         id="tspan16726">add $14, $2, $2</tspan>
      <tspan
         style="font-size:18.89999962px;font-variant:normal;font-weight:bold;font-stretch:normal;writing-mode:lr-tb;fill:#000000;fill-opacity:1;fill-rule:nonzero;stroke:none;font-family:Courier New;-inkscape-font-specification:CourierNewPS-BoldMT"
         x="28.651749 39.953949 51.256149 73.82653 85.128731 96.430923 107.73312 119.03532 130.33752 141.63972 152.94193 164.24413 175.54633 186.84853"
         y="565.521"
         sodipodi:role="line"
         id="tspan16728">sw $15,100($2)</tspan>
    </text>
    <g
       id="g16730"
       transform="matrix(0,1.1242639,1.1242639,0,494.1867,339.06714)"
       style="fill:#ff6600">
      <path
         inkscape:connector-curvature="0"
         d="m 0,0 1.02,-2.7 110.1,41.22 -0.96,2.64 L 0,0"
         style="fill:#ff6600;fill-opacity:1;fill-rule:evenodd;stroke:none"
         id="path16732" />
    </g>
    <g
       id="g16734"
       transform="matrix(0,1.1242639,1.1242639,0,493.71451,339.26951)"
       style="fill:#ff6600">
      <path
         inkscape:connector-curvature="0"
         d="m 0,0 0.24,0.54 0.96,-2.7 -0.48,0.24 110.1,41.22 -0.24,-0.54 -1.02,2.7 0.54,-0.24 L 0,0 z m 109.8,42 c 0.24,0.06 0.48,-0.06 0.54,-0.24 l 1.02,-2.7 c 0,-0.12 0,-0.24 -0.06,-0.3 0,-0.12 -0.12,-0.18 -0.18,-0.24 L 1.02,-2.64 c -0.24,-0.12 -0.48,0 -0.54,0.24 l -1.02,2.64 c -0.06,0.12 0,0.24 0,0.3 0.06,0.12 0.12,0.18 0.24,0.24"
         style="fill:#ff6600;fill-opacity:1;fill-rule:nonzero;stroke:none"
         id="path16736" />
    </g>
    <g
       id="g16738"
       transform="matrix(0,1.1242639,1.1242639,0,534.0531,464.66991)"
       style="fill:#ff6600">
      <path
         inkscape:connector-curvature="0"
         d="M 0,0 11.64,9.3 -2.94,8.76 0,0"
         style="fill:#ff6600;fill-opacity:1;fill-rule:evenodd;stroke:none"
         id="path16740" />
    </g>
    <g
       id="g16742"
       transform="matrix(0,1.1242639,1.1242639,0,534.18801,465.07464)"
       style="fill:#ff6600">
      <path
         inkscape:connector-curvature="0"
         d="M 0,0 -0.66,0.18 10.98,9.54 11.28,8.82 -3.3,8.22 -2.88,8.76 0,0 z M -3.66,8.52 C -3.72,8.64 -3.72,8.76 -3.6,8.88 -3.54,8.94 -3.42,9 -3.3,9 l 14.52,0.6 c 0.18,0 0.36,-0.12 0.42,-0.24 0.06,-0.18 0,-0.36 -0.12,-0.48 l -11.64,-9.3 c -0.12,-0.06 -0.24,-0.12 -0.36,-0.06 -0.12,0 -0.24,0.12 -0.3,0.24"
         style="fill:#ff6600;fill-opacity:1;fill-rule:nonzero;stroke:none"
         id="path16744" />
    </g>
    <g
       id="g16746"
       transform="matrix(0,1.1350863,1.1350863,0,437.47036,336.75913)"
       style="fill:#ff6600">
      <path
         inkscape:connector-curvature="0"
         d="m 0,0 0.42,-1.86 40.5,28.14 -0.36,1.8 L 0,0"
         style="fill:#ff6600;fill-opacity:1;fill-rule:evenodd;stroke:none"
         id="path16748" />
    </g>
    <g
       id="g16750"
       transform="matrix(0,1.1350863,1.1350863,0,436.31257,337.5764)"
       style="fill:#ff6600">
      <path
         inkscape:connector-curvature="0"
         d="M 0,0 0.48,1.26 0.84,-0.6 -1.02,0.18 39.48,28.26 39,27.06 38.64,28.86 40.5,28.08 0,0 z m 39.12,30.12 c 0.36,0.24 0.78,0.24 1.14,0.12 0.42,-0.18 0.66,-0.48 0.78,-0.9 l 0.36,-1.8 c 0.06,-0.48 -0.12,-0.96 -0.54,-1.26 L 0.36,-1.8 C 0,-2.04 -0.42,-2.1 -0.78,-1.92 -1.14,-1.8 -1.44,-1.44 -1.5,-1.08 l -0.36,1.86 c -0.12,0.48 0.06,0.96 0.48,1.2"
         style="fill:#ff6600;fill-opacity:1;fill-rule:nonzero;stroke:none"
         id="path16752" />
    </g>
    <g
       id="g16754"
       transform="matrix(0,1.1350863,1.1350863,0,464.91674,383.34308)"
       style="fill:#ff6600">
      <path
         inkscape:connector-curvature="0"
         d="M 0,0 4.32,6.36 C -1.6788983,4.6594602 -1.1638189,6.4010037 0,0"
         style="fill:#ff6600;fill-opacity:1;fill-rule:evenodd;stroke:none"
         id="path16756"
         sodipodi:nodetypes="ccc" />
    </g>
    <g
       id="g16758"
       transform="matrix(0,1.1350863,1.1350863,0,465.18917,384.70518)"
       style="fill:#ff6600">
      <path
         inkscape:connector-curvature="0"
         d="M 0,0 -2.22,0.48 1.85,5.9942857 3.18,4.92 -2.16,4.5 -0.79428571,5.5114286 z M -4.6585714,4.1271429 C -4.8257142,4.4985715 -5.17,4.9657144 -4.99,5.4085715 c 0.097143,0.4542857 0.2185714,0.4199999 1.8285714,0.622857 l 6.09,0.6814286 c 0.48,0.06 0.8885714,-0.1800014 1.14,-0.1714314 C 4.3085714,6.1214257 4.38,5.8199971 4.14,5.4599971 L -0.18,-0.9 c -0.3,-0.42 -0.78,-0.6 -1.26,-0.54 -0.48,0.12 -0.84,0.54 -0.96,1.02"
         style="fill:#ff6600;fill-opacity:1;fill-rule:nonzero;stroke:none"
         id="path16760"
         sodipodi:nodetypes="cccccccccccccccc" />
    </g>
    <g
       id="g16762"
       transform="matrix(0,1.1242639,1.1242639,0,508.95953,340.28135)"
       style="fill:#ff6600">
      <path
         inkscape:connector-curvature="0"
         d="m 0,0 0.66,-1.8 69.36,28.08 -0.6,1.8 L 0,0"
         style="fill:#ff6600;fill-opacity:1;fill-rule:evenodd;stroke:none"
         id="path16764" />
    </g>
    <g
       id="g16766"
       transform="matrix(0,1.1242639,1.1242639,0,507.67787,340.82099)"
       style="fill:#ff6600">
      <path
         inkscape:connector-curvature="0"
         d="M 0,0 0.66,1.56 1.32,-0.3 -0.3,0.48 69.12,28.56 68.4,27 67.8,28.86 69.36,28.14 0,0 z m 68.46,30.36 c 0.3,0.12 0.66,0.12 0.96,0 0.3,-0.12 0.54,-0.42 0.66,-0.72 l 0.66,-1.8 c 0.18,-0.66 -0.12,-1.32 -0.72,-1.56 L 0.66,-1.8 C 0.3,-1.92 0,-1.92 -0.3,-1.8 c -0.3,0.18 -0.54,0.42 -0.66,0.72 l -0.66,1.86 c -0.18,0.6 0.12,1.26 0.72,1.5"
         style="fill:#ff6600;fill-opacity:1;fill-rule:nonzero;stroke:none"
         id="path16768" />
    </g>
    <g
       id="g16770"
       transform="matrix(0,1.1242639,1.1242639,0,536.21168,419.40704)"
       style="fill:#ff6600">
      <path
         inkscape:connector-curvature="0"
         d="M 0,0 7.38,6.3 -1.8,5.94 0,0"
         style="fill:#ff6600;fill-opacity:1;fill-rule:evenodd;stroke:none"
         id="path16772" />
    </g>
    <g
       id="g16774"
       transform="matrix(0,1.1242639,1.1242639,0,536.61642,420.75616)"
       style="fill:#ff6600">
      <path
         inkscape:connector-curvature="0"
         d="M 0,0 -1.98,0.54 5.34,6.9 6.18,4.74 -2.94,4.38 -1.86,5.94 0,0 z m -4.2,5.22 c -0.06,0.36 0,0.72 0.18,1.02 0.24,0.36 0.6,0.54 0.96,0.54 L 6.12,7.2 C 6.6,7.2 7.08,6.9 7.26,6.42 7.5,5.94 7.32,5.4 6.96,5.04 l -7.32,-6.36 c -0.36,-0.24 -0.78,-0.36 -1.14,-0.24 -0.42,0.12 -0.72,0.42 -0.84,0.84"
         style="fill:#ff6600;fill-opacity:1;fill-rule:nonzero;stroke:none"
         id="path16776" />
    </g>
    <text
       id="text16778"
       x="503.02676"
       y="286.44791"
       style="font-size:15px">
      <tspan
         style="font-size:16.20000076px;font-variant:normal;font-weight:bold;font-stretch:normal;writing-mode:lr-tb;fill:#00654d;fill-opacity:1;fill-rule:nonzero;stroke:none;font-family:Arial;-inkscape-font-specification:Arial-BoldMT"
         x="503.02676 516.52136 527.32672 540.82135 545.32495 556.13037 566.93573 571.51385 581.41205 590.41925 595.81384 387.00235 397.80612 408.60992 413.11191 423.91568 434.71945 439.29596 449.19254 458.19812 463.59109"
         y="286.44791"
         sodipodi:role="line"
         id="tspan16780">MEM/EX pathEX/EX path</tspan>
      <tspan
         style="font-size:16.20000076px;font-variant:normal;font-weight:bold;font-stretch:normal;writing-mode:lr-tb;fill:#00654d;fill-opacity:1;fill-rule:nonzero;stroke:none;font-family:Arial;-inkscape-font-specification:Arial-BoldMT"
         x="613.12683 626.62952 637.44299 650.94568 655.4574 659.96912 671.67358 676.25171 686.15802 695.17334 700.57605"
         y="345.84845"
         sodipodi:role="line"
         id="tspan16782">MEM/ID path</tspan>
    </text>
  </g>
</svg>
