<?xml version="1.0" encoding="UTF-8" standalone="no"?>
<!-- Created with Inkscape (http://www.inkscape.org/) -->

<svg
   xmlns:dc="http://purl.org/dc/elements/1.1/"
   xmlns:cc="http://creativecommons.org/ns#"
   xmlns:rdf="http://www.w3.org/1999/02/22-rdf-syntax-ns#"
   xmlns:svg="http://www.w3.org/2000/svg"
   xmlns="http://www.w3.org/2000/svg"
   xmlns:sodipodi="http://sodipodi.sourceforge.net/DTD/sodipodi-0.dtd"
   xmlns:inkscape="http://www.inkscape.org/namespaces/inkscape"
   width="866.15002"
   height="373.625"
   id="svg18310"
   version="1.1"
   inkscape:version="0.48.4 r9939"
   sodipodi:docname="New document 52">
  <defs
     id="defs18312">
    <clipPath
       id="clipPath18338"
       clipPathUnits="userSpaceOnUse">
      <path
         id="path18340"
         d="m 0,841.98 595.2,0 L 595.2,0 0,0 0,841.98 z"
         inkscape:connector-curvature="0" />
    </clipPath>
    <clipPath
       id="clipPath18332"
       clipPathUnits="userSpaceOnUse">
      <path
         id="path18334"
         clip-rule="evenodd"
         d="m 588.84,0.11053 -582.84,0 0,841.86 582.84,0 0,-841.86 z"
         inkscape:connector-curvature="0" />
    </clipPath>
  </defs>
  <sodipodi:namedview
     id="base"
     pagecolor="#ffffff"
     bordercolor="#666666"
     borderopacity="1.0"
     inkscape:pageopacity="0.0"
     inkscape:pageshadow="2"
     inkscape:zoom="0.7"
     inkscape:cx="393.15161"
     inkscape:cy="271.44691"
     inkscape:document-units="px"
     inkscape:current-layer="layer1"
     showgrid="false"
     fit-margin-top="10"
     fit-margin-left="10"
     fit-margin-right="10"
     fit-margin-bottom="10"
     inkscape:window-width="954"
     inkscape:window-height="1028"
     inkscape:window-x="0"
     inkscape:window-y="0"
     inkscape:window-maximized="0" />
  <metadata
     id="metadata18315">
    <rdf:RDF>
      <cc:Work
         rdf:about="">
        <dc:format>image/svg+xml</dc:format>
        <dc:type
           rdf:resource="http://purl.org/dc/dcmitype/StillImage" />
        <dc:title></dc:title>
      </cc:Work>
    </rdf:RDF>
  </metadata>
  <g
     inkscape:label="Layer 1"
     inkscape:groupmode="layer"
     id="layer1"
     transform="translate(31.46191,-303.36931)">
    <g
       id="g18362"
       transform="matrix(0,1.25,1.25,0,339.36309,490.06931)">
      <path
         inkscape:connector-curvature="0"
         d="M 0,0 15.54,0.12 15,-0.42 l 0,3.3 c 0,0.3 0.24,0.54 0.54,0.54 l 98.22,0 -0.54,-0.54 0,2.88 1.08,0 0,-2.88 c 0,-0.3 -0.24,-0.54 -0.54,-0.54 l -98.22,0 0.54,0.54 0,-3.3 c 0,-0.3 -0.24,-0.54 -0.54,-0.54 L 0,-1.08"
         style="fill:#ff3300;fill-opacity:1;fill-rule:nonzero;stroke:none"
         id="path18364" />
    </g>
    <path
       inkscape:connector-curvature="0"
       d="m 338.01309,414.01931 0,42.375 1.35,0 0,-42.375 -1.35,0 z"
       style="fill:#ff3300;fill-opacity:1;fill-rule:nonzero;stroke:none"
       id="path18366" />
    <g
       id="g18368"
       transform="matrix(0,1.25,1.25,0,458.53809,515.71931)">
      <path
         inkscape:connector-curvature="0"
         d="M 0,0 0,4.2 -4.02,2.34 0,0.42 0,0"
         style="fill:#eb7500;fill-opacity:1;fill-rule:evenodd;stroke:none"
         id="path18370" />
    </g>
    <g
       id="g18372"
       transform="matrix(0,1.25,1.25,0,458.53809,433.44431)">
      <path
         inkscape:connector-curvature="0"
         d="M 0,0 0,4.2 -4.32,2.34 0,0.42 0,0"
         style="fill:#eb7500;fill-opacity:1;fill-rule:evenodd;stroke:none"
         id="path18374" />
    </g>
    <g
       id="g18376"
       transform="matrix(0,1.25,1.25,0,461.61309,514.36931)">
      <path
         inkscape:connector-curvature="0"
         d="m 0,0 8.88,0.42 -0.48,-0.54 0,11.58 c 0,0.3 0.24,0.54 0.54,0.54 l 56.22,0 -0.54,-0.54 0,10.26 1.08,0 0,-10.26 c 0,-0.3 -0.24,-0.54 -0.54,-0.54 l -56.22,0 0.54,0.54 0,-11.58 c 0,-0.3 -0.24,-0.54 -0.54,-0.54 L 0.06,-1.08"
         style="fill:#ff3300;fill-opacity:1;fill-rule:nonzero;stroke:none"
         id="path18378" />
    </g>
    <g
       id="g18380"
       transform="matrix(0,1.25,1.25,0,234.06309,438.46931)">
      <path
         inkscape:connector-curvature="0"
         d="M 0,0 4.32,0 2.28,4.2 0.3,0 0,0"
         style="fill:#000000;fill-opacity:1;fill-rule:evenodd;stroke:none"
         id="path18382" />
    </g>
    <g
       id="g18384"
       transform="matrix(0,1.25,1.25,0,-2.03691,470.71931)">
      <path
         inkscape:connector-curvature="0"
         d="m 0,0 -43.98,0.3 0,-15.36 43.98,0 L 0,0.3 0,0"
         style="fill:#ffffff;fill-opacity:1;fill-rule:evenodd;stroke:none"
         id="path18386" />
    </g>
    <g
       id="g18388"
       transform="matrix(0,1.25,1.25,0,-2.56191,470.71931)">
      <path
         inkscape:connector-curvature="0"
         d="m 0,0 -43.98,0.24 0.48,0.48 0,-15.36 -0.48,0.42 43.98,0 -0.48,-0.42 0,15.36 0.96,0 0,-15.36 c 0,-0.3 -0.24,-0.48 -0.48,-0.48 l -43.98,0 c -0.3,0 -0.48,0.18 -0.48,0.48 l 0,15.36 c 0,0.12 0.06,0.24 0.12,0.36 0.12,0.06 0.24,0.12 0.36,0.12 L 0,0.9"
         style="fill:#000000;fill-opacity:1;fill-rule:nonzero;stroke:none"
         id="path18390" />
    </g>
    <text
       id="text18392"
       x="-18.162535"
       y="447.69431"
       style="font-size:15px">
      <tspan
         style="font-size:10.80000019px;font-variant:normal;font-weight:normal;font-stretch:normal;writing-mode:lr-tb;fill:#000000;fill-opacity:1;fill-rule:nonzero;stroke:none;font-family:Arial;-inkscape-font-specification:ArialMT"
         x="-18.162535 -11.262415"
         y="447.69431"
         sodipodi:role="line"
         id="tspan18394">PC</tspan>
    </text>
    <g
       id="g18396"
       transform="matrix(0,1.25,1.25,0,77.98809,504.39431)">
      <path
         inkscape:connector-curvature="0"
         d="m 0,0 -98.04,0 0.48,0.48 0,-51.9 -0.48,0.42 98.04,0 -0.42,-0.42 0,51.9 0.9,0 0,-51.9 C 0.48,-51.72 0.3,-51.9 0,-51.9 l -98.04,0 c -0.3,0 -0.48,0.18 -0.48,0.48 l 0,51.9 c 0,0.3 0.18,0.48 0.48,0.48 L 0,0.96"
         style="fill:#000000;fill-opacity:1;fill-rule:nonzero;stroke:none"
         id="path18398" />
    </g>
    <g
       id="g18400"
       transform="matrix(0,1.25,1.25,0,705.36309,500.34431)">
      <path
         inkscape:connector-curvature="0"
         d="m 0,0 -98.04,0 0.48,0.48 0,-51.78 -0.48,0.42 98.34,0 -0.48,-0.42 0,51.78 0.96,0 0,-51.78 c 0,-0.3 -0.24,-0.48 -0.48,-0.48 l -98.34,0 c -0.3,0 -0.48,0.18 -0.48,0.48 l 0,51.78 c 0,0.24 0.18,0.48 0.48,0.48 L 0,0.96"
         style="fill:#000000;fill-opacity:1;fill-rule:nonzero;stroke:none"
         id="path18402" />
    </g>
    <g
       id="g18404"
       transform="matrix(0,1.25,1.25,0,234.06309,375.76931)">
      <path
         inkscape:connector-curvature="0"
         d="M 0,0 4.14,0 2.28,4.2 0.24,0 0,0"
         style="fill:#000000;fill-opacity:1;fill-rule:evenodd;stroke:none"
         id="path18406" />
    </g>
    <g
       id="g18408"
       transform="matrix(0,1.25,1.25,0,234.06309,469.81931)">
      <path
         inkscape:connector-curvature="0"
         d="M 0,0 4.32,0 2.34,4.2 0.3,0 0,0"
         style="fill:#000000;fill-opacity:1;fill-rule:evenodd;stroke:none"
         id="path18410" />
    </g>
    <g
       id="g18412"
       transform="matrix(0,1.25,1.25,0,445.71309,458.19431)">
      <path
         inkscape:connector-curvature="0"
         d="M 0,0 4.32,0 2.04,4.2 0,0"
         style="fill:#000000;fill-opacity:1;fill-rule:evenodd;stroke:none"
         id="path18414" />
    </g>
    <g
       id="g18416"
       transform="matrix(0,1.25,1.25,0,445.71309,477.61931)">
      <path
         inkscape:connector-curvature="0"
         d="M 0,0 4.32,0 2.28,4.2 0,0"
         style="fill:#ff3300;fill-opacity:1;fill-rule:evenodd;stroke:none"
         id="path18418" />
    </g>
    <g
       id="g18420"
       transform="matrix(0,1.25,1.25,0,499.18809,477.61931)">
      <path
         inkscape:connector-curvature="0"
         d="M 0,0 4.32,0.42 2.28,4.62 0,0.42 0,0"
         style="fill:#000000;fill-opacity:1;fill-rule:evenodd;stroke:none"
         id="path18422" />
    </g>
    <g
       id="g18424"
       transform="matrix(0,1.25,1.25,0,501.21184,479.11931)">
      <path
         inkscape:connector-curvature="0"
         d="m 0,0 0.3,-24.12 1.62,0 L 1.62,0"
         style="fill:#000000;fill-opacity:1;fill-rule:nonzero;stroke:none"
         id="path18426" />
    </g>
    <g
       id="g18428"
       transform="matrix(0,1.25,1.25,0,787.41309,436.29431)">
      <path
         inkscape:connector-curvature="0"
         d="M 0,0 4.32,0 2.4,4.2 0.42,0 0,0"
         style="fill:#000000;fill-opacity:1;fill-rule:evenodd;stroke:none"
         id="path18430" />
    </g>
    <g
       id="g18432"
       transform="matrix(0,1.25,1.25,0,787.41309,475.59431)">
      <path
         inkscape:connector-curvature="0"
         d="M 0,0 4.32,0 2.04,4.2 0,0"
         style="fill:#000000;fill-opacity:1;fill-rule:evenodd;stroke:none"
         id="path18434" />
    </g>
    <g
       id="g18436"
       transform="matrix(0,1.25,1.25,0,-1.96191,441.99431)">
      <path
         inkscape:connector-curvature="0"
         d="M 0,0 0.3,9.3 1.92,9.24 1.62,-0.06"
         style="fill:#000000;fill-opacity:1;fill-rule:nonzero;stroke:none"
         id="path18438" />
    </g>
    <g
       id="g18440"
       transform="matrix(0,1.25,1.25,0,7.63809,440.49431)">
      <path
         inkscape:connector-curvature="0"
         d="M 0,0 4.32,0.36 2.28,4.14 0,0.36 0,0"
         style="fill:#000000;fill-opacity:1;fill-rule:evenodd;stroke:none"
         id="path18442" />
    </g>
    <g
       id="g18444"
       transform="matrix(0,1.25,1.25,0,792.96309,438.84431)">
      <path
         inkscape:connector-curvature="0"
         d="m 0,0 -0.96,0.42 -1.32,0.3 -0.96,0.36 c -2.197,1.005 -4.714,4.218 -4.32,6.78 l 0,1.2 0.24,1.32 0.72,0.96 1.32,1.92 0.96,0.66 1.08,0.66 0.96,0.66 1.32,0.3 33.72,0 1.2,-0.3 c 2.654,-1.443 5.006,-2.889 5.4,-6.18 L 39.36,6.9 39,5.58 38.7,4.32 38.04,3.24 36.96,2.7 36.3,1.62 35.04,1.08 33.96,0.72 32.76,0.42 0.36,0.42 0,0"
         style="fill:#ffffff;fill-opacity:1;fill-rule:evenodd;stroke:none"
         id="path18446" />
    </g>
    <g
       id="g18448"
       transform="matrix(0,1.25,1.25,0,792.43684,438.61931)">
      <path
         inkscape:connector-curvature="0"
         d="m 0,0 -0.96,0.42 0.06,-0.06 -1.32,0.3 c -0.06,0 -0.06,0 -0.12,0 l -0.9,0.42 -1.14,0.54 C -4.44,1.68 -4.44,1.68 -4.5,1.74 L -5.46,2.82 -5.4,2.76 -6.06,3.3 C -6.12,3.36 -6.12,3.36 -6.18,3.42 L -6.84,4.5 -7.56,5.76 c 0,0 0,0.06 0,0.12 l -0.3,1.32 c 0,0.06 0,0.06 0,0.12 l 0,2.16 c 0,0 0,0.06 0,0.12 l 0.3,1.32 c 0,0.06 0,0.12 0.06,0.18 l 1.32,1.92 0.72,0.9 c 0,0.06 0.06,0.12 0.06,0.12 l 0.96,0.66 1.14,0.72 0.9,0.66 c 0.06,0 0.12,0.06 0.18,0.06 l 1.32,0.3 c 0.06,0 0.06,0 0.12,0 l 33.72,0 c 0.06,0 0.06,0 0.12,0 l 1.2,-0.3 c 0.06,0 0.12,0 0.18,-0.06 l 1.08,-0.66 1.14,-0.66 c 0.06,-0.06 0.12,-0.06 0.12,-0.12 l 0.66,-0.66 1.08,-0.9 c 0,-0.06 0.06,-0.06 0.06,-0.06 l 0.66,-0.96 C 39.3,12 39.3,11.94 39.36,11.88 l 0.24,-0.9 0.42,-1.38 c 0,0 0,-0.06 0,-0.12 l 0,-2.16 c 0,-0.06 0,-0.12 0,-0.12 L 39.6,5.82 39.36,4.68 C 39.36,4.62 39.3,4.56 39.3,4.5 L 38.64,3.42 C 38.58,3.36 38.52,3.3 38.4,3.24 L 37.32,2.7 37.56,2.88 36.84,1.8 C 36.78,1.74 36.72,1.68 36.66,1.62 L 35.46,1.08 34.32,0.66 33.06,0.36 c -0.06,0 -0.06,0 -0.12,0 l -32.4,0 0,0.96 32.4,0 -0.12,0 1.2,0.24 1.02,0.42 1.2,0.48 -0.18,-0.18 0.66,1.08 c 0.06,0.12 0.12,0.18 0.18,0.18 L 37.98,4.08 37.8,3.9 38.46,4.98 38.4,4.86 l 0.3,1.26 0.42,1.32 -0.06,-0.12 0,2.16 0.06,-0.12 -0.42,1.32 -0.24,0.96 0.06,-0.12 -0.72,0.9 0.12,-0.06 -1.14,0.96 -0.66,0.66 0.12,-0.06 -1.26,0.66 -1.08,0.72 0.18,-0.06 -1.26,0.24 0.12,0 -33.72,0 0.12,0 -1.38,-0.24 0.18,0.06 -0.96,-0.72 -1.08,-0.6 -0.9,-0.72 0.06,0.12 -0.66,-0.96 -0.66,-0.9 -0.66,-0.96 0.06,0.18 -0.24,-1.38 0,0.12 0,-2.16 0,0.12 0.24,-1.38 -0.06,0.12 0.66,-1.2 L -5.4,3.9 -5.46,4.02 -4.8,3.48 c 0,0 0.06,0 0.06,-0.06 l 0.96,-1.08 -0.18,0.12 1.08,-0.48 0.96,-0.42 -0.12,0 1.38,-0.24 c 0,0 0.06,0 0.06,-0.06 L 0.36,0.9"
         style="fill:#000000;fill-opacity:1;fill-rule:nonzero;stroke:none"
         id="path18450" />
    </g>
    <g
       id="g18452"
       transform="matrix(0,1.25,1.25,0,451.63809,460.74431)">
      <path
         inkscape:connector-curvature="0"
         d="m 0,0 -1.32,0.42 -0.96,0 -1.38,0.66 c -2.7,1.765 -3.166,2.292 -3.9,5.4 l 0,2.58 c 0.331,2.748 2.512,5.392 5.28,5.82 l 0.96,0.36 1.32,0.3 31.44,0 1.2,-0.3 c 2.656,-0.52 5.584,-2.16 5.94,-5.1 L 39,9.06 39.24,7.86 C 38.774,5.048 37.895,2.115 34.92,1.08 l -1.2,-0.66 -1.08,0 L 31.44,0 0,0"
         style="fill:#ffffff;fill-opacity:1;fill-rule:evenodd;stroke:none"
         id="path18454" />
    </g>
    <g
       id="g18456"
       transform="matrix(0,1.25,1.25,0,451.11309,460.59431)">
      <path
         inkscape:connector-curvature="0"
         d="m 0,0 -1.38,0.36 0.18,0 -0.96,0 c -0.06,0 -0.18,0 -0.24,0.06 L -3.72,1.08 -4.68,1.62 C -4.74,1.68 -4.74,1.68 -4.8,1.74 L -5.46,2.4 -6.54,3.3 C -6.6,3.36 -6.6,3.42 -6.66,3.48 l -0.54,1.08 -0.42,0.96 0,0.06 -0.3,1.2 c 0,0.06 0,0.12 0,0.12 l 0,2.58 c 0,0 0,0.06 0.06,0.12 l 0.24,1.08 0.42,1.26 c 0,0 0,0 0.06,0.06 l 0.54,0.96 c 0,0 0.06,0.06 0.06,0.12 l 1.08,0.9 0.66,0.66 c 0,0.06 0.06,0.06 0.06,0.06 l 0.96,0.66 c 0.06,0.06 0.12,0.12 0.18,0.12 l 1.32,0.24 -0.06,0 0.9,0.36 c 0.06,0.06 0.06,0.06 0.12,0.06 l 1.38,0.24 c 0,0.06 0.06,0.06 0.06,0.06 l 31.44,0 c 0.06,0 0.06,0 0.12,-0.06 l 1.2,-0.24 1.14,-0.42 1.14,-0.24 c 0.06,0 0.12,-0.06 0.18,-0.06 l 1.08,-0.72 0.96,-0.66 c 0,-0.06 0.06,-0.06 0.12,-0.12 l 0.66,-0.96 0.66,-0.9 c 0.06,-0.06 0.06,-0.12 0.06,-0.18 l 0.3,-1.2 0.36,-1.02 0.3,-1.32 c 0,-0.06 0,-0.12 0,-0.18 L 39.6,6.84 39.18,5.52 38.88,4.62 c 0,-0.06 0,-0.06 -0.06,-0.12 L 38.16,3.42 37.5,2.46 C 37.44,2.4 37.38,2.34 37.38,2.34 L 36.42,1.68 36.36,1.62 35.28,1.08 34.08,0.42 C 34.02,0.36 33.96,0.36 33.84,0.36 l -1.08,0 0.18,0 L 31.68,0 c 0,-0.06 -0.06,-0.06 -0.12,-0.06 l -31.44,0 0,0.96 31.44,0 -0.18,0 1.26,0.36 c 0.06,0.06 0.06,0.06 0.12,0.06 l 1.08,0 -0.24,-0.06 1.26,0.66 1.08,0.54 -0.06,0 0.96,0.66 -0.12,-0.12 0.66,0.9 0.66,1.08 -0.06,-0.12 0.3,0.96 0.36,1.2 0.3,1.32 0,-0.18 -0.24,1.14 -0.48,1.14 -0.24,1.2 0.06,-0.18 -1.32,1.92 0.12,-0.12 -0.96,0.66 -1.08,0.66 0.18,-0.06 -1.32,0.3 -0.96,0.42 -1.26,0.24 0.12,0 -31.44,0 0.12,0 -1.38,-0.24 0.12,0 -0.96,-0.42 c -0.06,0 -0.06,0 -0.12,0 l -1.32,-0.3 0.18,0.12 -0.96,-0.72 0.06,0.06 -0.66,-0.66 -1.08,-0.96 0.06,0.12 -0.54,-0.96 0.06,0.12 -0.42,-1.2 -0.24,-1.08 0,0.12 0,-2.58 0,0.12 0.24,-1.2 0,0.06 0.36,-0.9 0.54,-1.08 -0.06,0.12 1.08,-0.96 0.66,-0.66 -0.06,0.06 0.9,-0.54 1.32,-0.66 -0.18,0.06 0.96,0 c 0,0 0.06,0 0.12,-0.06 L 0.24,0.9"
         style="fill:#000000;fill-opacity:1;fill-rule:nonzero;stroke:none"
         id="path18458" />
    </g>
    <g
       id="g18460"
       transform="matrix(0,1.25,1.25,0,451.63809,550.29431)">
      <path
         inkscape:connector-curvature="0"
         d="m 0,0 -0.96,0.42 -1.32,0 -0.96,0.66 -1.32,0.54 -0.72,0.66 -0.9,0.96 -0.72,1.08 -0.36,0.96 -0.3,1.2 0,2.58 c 0.372,2.767 2.534,5.214 5.28,5.82 l 1.32,0.36 0.96,0.3 31.44,0 1.32,-0.3 c 3.436,-0.676 4.625,-2.126 6.24,-5.1 l 0.42,-1.08 0,-1.2 C 39.76,5.371 37.275,2.102 35.1,1.08 L 34.02,0.42 32.76,0.42 31.44,0 0,0"
         style="fill:#ffffff;fill-opacity:1;fill-rule:evenodd;stroke:none"
         id="path18462" />
    </g>
    <g
       id="g18464"
       transform="matrix(0,1.25,1.25,0,451.11309,550.06931)">
      <path
         inkscape:connector-curvature="0"
         d="m 0,0 -0.96,0.42 0.18,-0.06 -1.32,0 c -0.12,0 -0.18,0.06 -0.3,0.12 l -0.9,0.66 0.06,-0.06 -1.32,0.54 c -0.06,0 -0.12,0.06 -0.18,0.12 l -1.62,1.62 c 0,0 -0.06,0 -0.06,0.06 L -7.08,4.5 c -0.06,0 -0.06,0.06 -0.06,0.06 l -0.42,0.96 0,0.06 -0.3,1.2 c 0,0.06 0,0.12 0,0.12 l 0,2.58 c 0,0 0,0.06 0.06,0.12 l 0.24,1.08 0.42,1.26 c 0,0 0.06,0.06 0.06,0.12 l 0.66,0.9 c 0,0.06 0.06,0.06 0.06,0.06 l 1.62,1.62 c 0.06,0.06 0.06,0.06 0.12,0.12 l 1.38,0.66 c 0,0 0,0 0.06,0.06 l 0.96,0.24 1.32,0.42 0.96,0.24 c 0.06,0.06 0.06,0.06 0.12,0.06 l 31.44,0 c 0.06,0 0.06,0 0.12,-0.06 l 1.32,-0.24 1.26,-0.42 1.08,-0.24 c 0.06,-0.06 0.06,-0.06 0.12,-0.12 l 1.92,-1.32 c 0,-0.06 0.06,-0.06 0.12,-0.12 l 0.66,-0.96 0.66,-0.9 0.72,-1.26 c 0,-0.06 0,-0.06 0,-0.06 l 0.42,-1.08 c 0,-0.06 0.06,-0.12 0.06,-0.18 l 0,-2.58 c 0,-0.06 -0.06,-0.12 -0.06,-0.12 L 39.6,5.52 c 0,0 0,-0.06 -0.06,-0.12 L 38.88,4.5 38.22,3.42 37.56,2.46 C 37.5,2.4 37.44,2.34 37.44,2.34 L 36.48,1.68 35.52,1.08 34.44,0.42 C 34.38,0.36 34.26,0.36 34.2,0.36 l -1.26,0 0.18,0 L 31.74,0 c 0,-0.06 -0.06,-0.06 -0.12,-0.06 l -31.44,0 0,0.96 31.44,0 -0.12,0 1.32,0.36 c 0.06,0.06 0.12,0.06 0.12,0.06 l 1.26,0 -0.24,-0.06 1.08,0.66 0.9,0.54 0.96,0.66 -0.12,-0.12 0.66,0.9 0.66,1.14 0.72,0.9 -0.12,-0.12 0.42,1.26 0,-0.18 0,2.58 0,-0.18 -0.36,1.08 0,-0.06 -0.66,1.14 -1.32,1.92 0.12,-0.12 -0.96,0.66 -0.96,0.72 0.18,-0.12 -1.14,0.3 -1.14,0.42 -1.38,0.24 0.12,0 -31.44,0 0.12,0 -0.9,-0.24 -1.38,-0.42 -0.96,-0.3 0.12,0.06 -1.38,-0.66 0.12,0.06 -1.62,-1.62 0.06,0.06 -0.66,-0.96 0.06,0.18 -0.42,-1.2 -0.24,-1.08 0,0.12 0,-2.58 0,0.12 0.24,-1.2 0,0.06 L -6.24,4.92 -6.3,4.98 -5.64,3.9 -5.7,4.02 -4.08,2.4 -4.2,2.46 -2.88,1.92 c 0.06,0 0.06,0 0.12,0 l 0.9,-0.72 -0.24,0.12 1.32,0 c 0.06,0 0.12,0 0.18,-0.06 L 0.36,0.84"
         style="fill:#000000;fill-opacity:1;fill-rule:nonzero;stroke:none"
         id="path18466" />
    </g>
    <g
       id="g18468"
       transform="matrix(0,1.25,1.25,0,234.06309,407.11931)">
      <path
         inkscape:connector-curvature="0"
         d="M 0,0 4.2,0 2.28,4.2 0.3,0 0,0"
         style="fill:#000000;fill-opacity:1;fill-rule:evenodd;stroke:none"
         id="path18470" />
    </g>
    <g
       id="g18472"
       transform="matrix(0,1.25,1.25,0,294.21309,487.21931)">
      <path
         inkscape:connector-curvature="0"
         d="m 0,0 -98.46,0 0.42,0.48 0,-43.98 -0.42,0.48 98.46,0 -0.48,-0.48 0,43.98 0.96,0 0,-43.98 c 0,-0.24 -0.24,-0.48 -0.48,-0.48 l -98.46,0 c -0.3,0 -0.48,0.24 -0.48,0.48 l 0,43.98 c 0,0.24 0.18,0.48 0.48,0.48 L 0,0.96"
         style="fill:#000000;fill-opacity:1;fill-rule:nonzero;stroke:none"
         id="path18474" />
    </g>
    <g
       id="g18476"
       transform="matrix(0,1.25,1.25,0,235.78809,473.71931)">
      <path
         inkscape:connector-curvature="0"
         d="m 0,0 0,-42.66 -0.78,0.84 145.68,0 -0.78,-0.84 0,513 0.78,-0.84 -156.9,0 0.84,0.84 0,-9.06 -1.62,0 0,9.06 c 0,0.42 0.36,0.78 0.78,0.78 l 156.9,0 c 0.48,0 0.84,-0.36 0.84,-0.78 l 0,-513 c 0,-0.42 -0.36,-0.78 -0.84,-0.78 l -145.68,0 c -0.48,0 -0.84,0.36 -0.84,0.78 l 0,42.66"
         style="fill:#000000;fill-opacity:1;fill-rule:nonzero;stroke:none"
         id="path18478" />
    </g>
    <g
       id="g18480"
       transform="matrix(0,1.25,1.25,0,235.78809,377.64431)">
      <path
         inkscape:connector-curvature="0"
         d="m 0,0 0.12,-78.66 1.62,0 L 1.56,0"
         style="fill:#000000;fill-opacity:1;fill-rule:nonzero;stroke:none"
         id="path18482" />
    </g>
    <g
       id="g18484"
       transform="matrix(0,1.25,1.25,0,448.93809,479.94431)">
      <path
         inkscape:connector-curvature="0"
         d="m 0,0 0.3,-9.3 1.62,0 -0.3,9.36"
         style="fill:#ff3300;fill-opacity:1;fill-rule:nonzero;stroke:none"
         id="path18486" />
    </g>
    <text
       id="text18488"
       x="456.58746"
       y="474.54431"
       style="font-size:15px">
      <tspan
         style="font-size:10.80000019px;font-variant:normal;font-weight:normal;font-stretch:normal;writing-mode:lr-tb;fill:#000000;fill-opacity:1;fill-rule:nonzero;stroke:none;font-family:Arial;-inkscape-font-specification:ArialMT"
         x="456.58746"
         y="474.54431"
         id="tspan18490">M</tspan>
      <tspan
         style="font-size:10.80000019px;font-variant:normal;font-weight:normal;font-stretch:normal;writing-mode:lr-tb;fill:#000000;fill-opacity:1;fill-rule:nonzero;stroke:none;font-family:Arial;-inkscape-font-specification:ArialMT"
         x="458.61246"
         y="484.81943"
         id="tspan18492">u</tspan>
      <tspan
         style="font-size:10.80000019px;font-variant:normal;font-weight:normal;font-stretch:normal;writing-mode:lr-tb;fill:#000000;fill-opacity:1;fill-rule:nonzero;stroke:none;font-family:Arial;-inkscape-font-specification:ArialMT"
         x="458.61246"
         y="495.09454"
         id="tspan18494">x</tspan>
      <tspan
         style="font-size:10.80000019px;font-variant:normal;font-weight:normal;font-stretch:normal;writing-mode:lr-tb;fill:#000000;fill-opacity:1;fill-rule:nonzero;stroke:none;font-family:Arial;-inkscape-font-specification:ArialMT"
         x="798.43768"
         y="452.56955"
         id="tspan18496">M</tspan>
      <tspan
         style="font-size:10.80000019px;font-variant:normal;font-weight:normal;font-stretch:normal;writing-mode:lr-tb;fill:#000000;fill-opacity:1;fill-rule:nonzero;stroke:none;font-family:Arial;-inkscape-font-specification:ArialMT"
         x="799.93781"
         y="462.91919"
         id="tspan18498">u</tspan>
      <tspan
         style="font-size:10.80000019px;font-variant:normal;font-weight:normal;font-stretch:normal;writing-mode:lr-tb;fill:#000000;fill-opacity:1;fill-rule:nonzero;stroke:none;font-family:Arial;-inkscape-font-specification:ArialMT"
         x="799.93781"
         y="473.71918"
         id="tspan18500">x</tspan>
    </text>
    <g
       id="g18502"
       transform="matrix(0,1.25,1.25,0,137.46309,408.99431)">
      <path
         inkscape:connector-curvature="0"
         d="m 0,0 0.12,78.9 1.62,0 L 1.62,0"
         style="fill:#000000;fill-opacity:1;fill-rule:nonzero;stroke:none"
         id="path18504" />
    </g>
    <g
       id="g18506"
       transform="matrix(0,1.25,1.25,0,352.63809,458.19431)">
      <path
         inkscape:connector-curvature="0"
         d="M 0,0 4.32,0.3 2.04,4.2 0,0.3 0,0"
         style="fill:#000000;fill-opacity:1;fill-rule:evenodd;stroke:none"
         id="path18508" />
    </g>
    <g
       id="g18510"
       transform="matrix(0,1.25,1.25,0,448.11309,459.76931)">
      <path
         inkscape:connector-curvature="0"
         d="m 0,0 0.12,-55.2 1.62,0 L 1.62,0"
         style="fill:#000000;fill-opacity:1;fill-rule:nonzero;stroke:none"
         id="path18512" />
    </g>
    <g
       id="g18514"
       transform="matrix(0,1.25,1.25,0,353.83809,459.76931)">
      <path
         inkscape:connector-curvature="0"
         d="m 0,0 0.24,-47.22 1.62,0 L 1.62,0"
         style="fill:#000000;fill-opacity:1;fill-rule:nonzero;stroke:none"
         id="path18516" />
    </g>
    <g
       id="g18518"
       transform="matrix(0,1.25,1.25,0,625.86184,441.69431)">
      <path
         inkscape:connector-curvature="0"
         d="m 0,0 0,0.66 -0.3,0.3 0,0.24 -0.36,0 0,0.42 -0.3,0.24 -2.04,0 -0.9,-0.9 0,-1.92 0.24,-0.42 0.42,-0.24 0.24,-0.42 2.04,0 0.3,0.42 0,0.24 0.36,0 0,0.42 L 0,-0.66 0,0"
         style="fill:#000000;fill-opacity:1;fill-rule:evenodd;stroke:none"
         id="path18520" />
    </g>
    <text
       id="text18522"
       x="517.78748"
       y="443.49432"
       style="font-size:15px">
      <tspan
         style="font-size:10.80000019px;font-variant:normal;font-weight:normal;font-stretch:normal;writing-mode:lr-tb;fill:#000000;fill-opacity:1;fill-rule:nonzero;stroke:none;font-family:Arial;-inkscape-font-specification:ArialMT"
         x="517.78748 524.68756 530.23553"
         y="443.49432"
         sodipodi:role="line"
         id="tspan18524">ALU</tspan>
    </text>
    <g
       id="g18526"
       transform="matrix(0,1.25,1.25,0,113.98809,591.61931)">
      <path
         inkscape:connector-curvature="0"
         d="m 0,0 -194.58,0.3 0,-16.32 194.82,0 0,16.32 L 0,0"
         style="fill:#00cc99;fill-opacity:1;fill-rule:evenodd;stroke:none"
         id="path18528" />
    </g>
    <g
       id="g18530"
       transform="matrix(0,1.25,1.25,0,113.46309,591.61931)">
      <path
         inkscape:connector-curvature="0"
         d="m 0,0 -194.58,0.24 0.48,0.48 0,-16.32 -0.48,0.48 194.82,0 -0.42,-0.48 0,16.32 0.9,0 0,-16.32 c 0,-0.24 -0.18,-0.48 -0.48,-0.48 l -194.82,0 c -0.24,0 -0.42,0.24 -0.42,0.48 l 0,16.32 c 0,0.12 0,0.24 0.12,0.36 0.06,0.06 0.18,0.12 0.36,0.12 L 0,0.9"
         style="fill:#000000;fill-opacity:1;fill-rule:nonzero;stroke:none"
         id="path18532" />
    </g>
    <g
       id="g18534"
       transform="matrix(0,1.25,1.25,0,436.48809,483.01931)">
      <path
         inkscape:connector-curvature="0"
         d="m 0,0 0,0.54 -0.3,0.42 0,0.24 -0.36,0.42 -0.3,0 0,0.24 -0.42,0 -0.24,0.3 -0.66,0 -0.3,-0.3 -0.42,0 -0.24,-0.24 -0.42,0 0,-0.42 -0.24,-0.24 0,-0.42 -0.42,-0.3 0,-0.66 0.42,-0.24 0,-0.3 0.24,0 0,-0.42 0.42,-0.24 0.24,0 0.42,-0.42 1.2,0 0.42,0.42 0.3,0.24 0.36,0.42 L 0,-0.66 0,0"
         style="fill:#ff3300;fill-opacity:1;fill-rule:evenodd;stroke:none"
         id="path18536" />
    </g>
    <g
       id="g18538"
       transform="matrix(0,1.25,1.25,0,436.48809,482.49431)">
      <path
         inkscape:connector-curvature="0"
         d="M 0,0 0,0.54 0.06,0.3 -0.18,0.72 c -0.06,0.06 -0.06,0.12 -0.06,0.24 l 0,0.24 0.12,-0.3 -0.42,0.42 0.3,-0.12 -0.3,0 c -0.24,0 -0.42,0.18 -0.42,0.42 l 0,0.24 0.42,-0.36 -0.42,0 c -0.06,0 -0.18,0 -0.24,0.12 l -0.3,0.24 0.3,-0.12 -0.66,0 0.24,0.12 -0.24,-0.3 C -1.92,1.5 -2.04,1.5 -2.16,1.5 l -0.42,0 0.3,0.06 -0.24,-0.24 C -2.64,1.26 -2.7,1.2 -2.82,1.2 l -0.42,0 0.42,0.42 0,-0.42 c 0,-0.12 -0.06,-0.18 -0.12,-0.3 l -0.3,-0.24 0.12,0.3 0,-0.42 c 0,-0.12 -0.06,-0.3 -0.18,-0.36 l -0.36,-0.24 0.18,0.3 0,-0.66 -0.18,0.36 0.36,-0.3 c 0.12,-0.06 0.18,-0.18 0.18,-0.3 l 0,-0.3 -0.36,0.42 0.24,0 c 0.24,0 0.42,-0.18 0.42,-0.42 l 0,-0.42 -0.18,0.36 0.42,-0.3 -0.24,0.12 0.24,0 c 0.12,0 0.24,-0.06 0.3,-0.12 l 0.42,-0.42 -0.3,0.12 1.2,0 -0.24,-0.12 0.36,0.42 0.3,0.24 0.66,0.66 L 0,-0.66 0,-0.42 0,0 z m 0.84,-0.42 0,-0.24 c 0,-0.12 -0.06,-0.24 -0.12,-0.3 L 0.42,-1.26 0,-1.62 -0.24,-1.92 -0.66,-2.34 c -0.06,-0.06 -0.18,-0.12 -0.3,-0.12 l -1.2,0 c -0.12,0 -0.18,0.06 -0.3,0.12 l -0.36,0.42 0.24,-0.12 -0.24,0 c -0.06,0 -0.18,0 -0.24,0.06 l -0.42,0.3 c -0.06,0.06 -0.18,0.18 -0.18,0.3 l 0,0.42 0.42,-0.42 -0.24,0 c -0.24,0 -0.42,0.18 -0.42,0.42 l 0,0.3 0.18,-0.36 -0.42,0.24 c -0.12,0.12 -0.18,0.24 -0.18,0.36 l 0,0.66 c 0,0.18 0.06,0.3 0.18,0.36 l 0.42,0.24 -0.18,-0.3 0,0.42 c 0,0.06 0.06,0.18 0.12,0.24 l 0.24,0.3 -0.12,-0.3 0,0.42 c 0,0.18 0.18,0.42 0.42,0.42 l 0.42,0 -0.3,-0.12 0.3,0.24 c 0.06,0.06 0.18,0.12 0.24,0.12 l 0.42,0 -0.3,-0.12 0.3,0.3 c 0.06,0.06 0.18,0.12 0.3,0.12 l 0.66,0 c 0.12,0 0.18,-0.06 0.3,-0.12 l 0.24,-0.3 -0.3,0.12 0.42,0 c 0.24,0 0.42,-0.18 0.42,-0.42 l 0,-0.24 -0.42,0.42 0.3,0 C -0.18,2.04 -0.06,1.98 0,1.92 L 0.42,1.5 C 0.48,1.44 0.54,1.32 0.54,1.2 L 0.54,0.96 0.48,1.14 0.72,0.78 C 0.78,0.66 0.84,0.6 0.84,0.54 L 0.84,0"
         style="fill:#ff3300;fill-opacity:1;fill-rule:nonzero;stroke:none"
         id="path18540" />
    </g>
    <g
       id="g18542"
       transform="matrix(0,1.25,1.25,0,378.81309,591.61931)">
      <path
         inkscape:connector-curvature="0"
         d="m 0,0 -194.58,0.24 0,-16.32 194.82,0 0,16.32 L 0,0"
         style="fill:#00cc99;fill-opacity:1;fill-rule:evenodd;stroke:none"
         id="path18544" />
    </g>
    <g
       id="g18546"
       transform="matrix(0,1.25,1.25,0,378.21309,591.61931)">
      <path
         inkscape:connector-curvature="0"
         d="m 0,0 -194.58,0.24 0.48,0.48 0,-16.32 -0.48,0.48 194.82,0 -0.42,-0.48 0,16.32 0.9,0 0,-16.32 c 0,-0.24 -0.18,-0.48 -0.48,-0.48 l -194.82,0 c -0.24,0 -0.42,0.24 -0.42,0.48 l 0,16.32 c 0,0.12 0,0.24 0.12,0.36 0.06,0.06 0.18,0.12 0.36,0.12 L 0,0.96"
         style="fill:#000000;fill-opacity:1;fill-rule:nonzero;stroke:none"
         id="path18548" />
    </g>
    <g
       id="g18550"
       transform="matrix(0,1.25,1.25,0,87.88809,440.49431)">
      <path
         inkscape:connector-curvature="0"
         d="M 0,0 4.32,0.24 2.28,4.2 0,0.24 0,0"
         style="fill:#000000;fill-opacity:1;fill-rule:evenodd;stroke:none"
         id="path18552" />
    </g>
    <g
       id="g18554"
       transform="matrix(0,1.25,1.25,0,78.66309,441.99431)">
      <path
         inkscape:connector-curvature="0"
         d="M 0,0 0.3,8.64 1.92,8.58 1.62,-0.06"
         style="fill:#000000;fill-opacity:1;fill-rule:nonzero;stroke:none"
         id="path18556" />
    </g>
    <g
       id="g18558"
       transform="matrix(0,1.25,1.25,0,352.63809,375.76931)">
      <path
         inkscape:connector-curvature="0"
         d="M 0,0 4.14,0.3 2.28,4.2 0,0.3 0,0"
         style="fill:#000000;fill-opacity:1;fill-rule:evenodd;stroke:none"
         id="path18560" />
    </g>
    <g
       id="g18562"
       transform="matrix(0,1.25,1.25,0,353.83809,377.11931)">
      <path
         inkscape:connector-curvature="0"
         d="m 0,0 0.66,-47.22 1.62,0 L 1.62,0"
         style="fill:#000000;fill-opacity:1;fill-rule:nonzero;stroke:none"
         id="path18564" />
    </g>
    <g
       id="g18566"
       transform="matrix(0,1.25,1.25,0,352.63809,520.96931)">
      <path
         inkscape:connector-curvature="0"
         d="M 0,0 4.32,0.3 2.4,4.2 0,0.3 0,0"
         style="fill:#000000;fill-opacity:1;fill-rule:evenodd;stroke:none"
         id="path18568" />
    </g>
    <g
       id="g18570"
       transform="matrix(0,1.25,1.25,0,354.21309,524.49431)">
      <path
         inkscape:connector-curvature="0"
         d="m 0,0 0.42,-164.34 c 0,-0.24 -0.12,-0.42 -0.24,-0.6 -0.18,-0.12 -0.36,-0.24 -0.6,-0.24 l -116.28,0 0,1.62 116.28,0 -0.78,-0.78 -0.42,164.28"
         style="fill:#000000;fill-opacity:1;fill-rule:nonzero;stroke:none"
         id="path18572" />
    </g>
    <g
       id="g18574"
       transform="matrix(0,1.25,1.25,0,591.13809,591.61931)">
      <path
         inkscape:connector-curvature="0"
         d="m 0,0 -194.58,0.36 0,-16.44 194.82,0 0,16.44 L 0,0"
         style="fill:#00cc99;fill-opacity:1;fill-rule:evenodd;stroke:none"
         id="path18576" />
    </g>
    <g
       id="g18578"
       transform="matrix(0,1.25,1.25,0,590.53809,591.61931)">
      <path
         inkscape:connector-curvature="0"
         d="m 0,0 -194.58,0.42 0.48,0.42 0,-16.44 -0.48,0.48 194.82,0 -0.42,-0.48 0,16.44 0.9,0 0,-16.44 c 0,-0.24 -0.18,-0.48 -0.48,-0.48 l -194.82,0 c -0.24,0 -0.42,0.24 -0.42,0.48 l 0,16.44 c 0,0.18 0,0.3 0.12,0.36 0.06,0.12 0.18,0.12 0.36,0.12 L 0,0.96"
         style="fill:#000000;fill-opacity:1;fill-rule:nonzero;stroke:none"
         id="path18580" />
    </g>
    <path
       inkscape:connector-curvature="0"
       d="m 723.36184,313.36931 0,35.025 20.55,0 0,-35.025 -20.55,0 z"
       style="fill:#ffffff;fill-opacity:1;fill-rule:nonzero;stroke:none"
       id="path18582" />
    <g
       id="g18584"
       transform="matrix(0,1.25,1.25,0,743.91309,591.61931)">
      <path
         inkscape:connector-curvature="0"
         d="m 0,0 -194.58,0 0,-16.44 194.82,0 L 0.24,0 0,0"
         style="fill:#00cc99;fill-opacity:1;fill-rule:evenodd;stroke:none"
         id="path18586" />
    </g>
    <g
       id="g18588"
       transform="matrix(0,1.25,1.25,0,743.31309,591.61931)">
      <path
         inkscape:connector-curvature="0"
         d="m 0,0 -194.58,0 0.48,0.48 0,-16.44 -0.48,0.48 194.82,0 -0.42,-0.48 0,16.44 0.9,0 0,-16.44 c 0,-0.3 -0.18,-0.48 -0.48,-0.48 l -194.82,0 c -0.24,0 -0.42,0.18 -0.42,0.48 l 0,16.44 c 0,0.24 0.18,0.48 0.42,0.48 L 0,0.96"
         style="fill:#000000;fill-opacity:1;fill-rule:nonzero;stroke:none"
         id="path18590" />
    </g>
    <g
       id="g18592"
       transform="matrix(0,1.25,1.25,0,564.96184,436.29431)">
      <path
         inkscape:connector-curvature="0"
         d="M 0,0 4.32,0.3 2.4,4.2 0.42,0.3 0,0"
         style="fill:#000000;fill-opacity:1;fill-rule:evenodd;stroke:none"
         id="path18594" />
    </g>
    <g
       id="g18596"
       transform="matrix(0,1.25,1.25,0,566.16309,437.79431)">
      <path
         inkscape:connector-curvature="0"
         d="m 0,0 0.42,-22.26 1.62,0 L 1.62,0"
         style="fill:#000000;fill-opacity:1;fill-rule:nonzero;stroke:none"
         id="path18598" />
    </g>
    <g
       id="g18600"
       transform="matrix(0,1.25,1.25,0,717.28684,436.29431)">
      <path
         inkscape:connector-curvature="0"
         d="M 0,0 4.32,0.36 2.4,4.56 0.42,0.36 0,0"
         style="fill:#000000;fill-opacity:1;fill-rule:evenodd;stroke:none"
         id="path18602" />
    </g>
    <g
       id="g18604"
       transform="matrix(0,1.25,1.25,0,789.73809,437.79431)">
      <path
         inkscape:connector-curvature="0"
         d="m 0,0 0.42,-36.66 1.62,0 -0.42,36.72"
         style="fill:#000000;fill-opacity:1;fill-rule:nonzero;stroke:none"
         id="path18606" />
    </g>
    <g
       id="g18608"
       transform="matrix(0,1.25,1.25,0,718.41309,437.79431)">
      <path
         inkscape:connector-curvature="0"
         d="m 0,0 0.42,-9.6 1.62,0.06 -0.42,9.6"
         style="fill:#000000;fill-opacity:1;fill-rule:nonzero;stroke:none"
         id="path18610" />
    </g>
    <g
       id="g18612"
       transform="matrix(0,1.25,1.25,0,717.28684,509.79431)">
      <path
         inkscape:connector-curvature="0"
         d="M 0,0 4.32,0.36 2.04,4.56 0,0.36 0,0"
         style="fill:#000000;fill-opacity:1;fill-rule:evenodd;stroke:none"
         id="path18614" />
    </g>
    <g
       id="g18616"
       transform="matrix(0,1.25,1.25,0,789.81309,479.11931)">
      <path
         inkscape:connector-curvature="0"
         d="m 0,0 0,-9.36 -0.78,0.84 27.36,0 c 0.48,0 0.84,-0.36 0.84,-0.84 l 0,-27.36 -1.62,0 0,27.36 0.78,-0.78 -27.36,0 c -0.48,0 -0.84,0.36 -0.84,0.78 l 0,9.36"
         style="fill:#000000;fill-opacity:1;fill-rule:nonzero;stroke:none"
         id="path18618" />
    </g>
    <g
       id="g18620"
       transform="matrix(0,1.25,1.25,0,718.41309,511.36931)">
      <path
         inkscape:connector-curvature="0"
         d="m 0,0 0.12,-74.04 1.62,0 L 1.62,0"
         style="fill:#000000;fill-opacity:1;fill-rule:nonzero;stroke:none"
         id="path18622" />
    </g>
    <g
       id="g18624"
       transform="matrix(0,1.25,1.25,0,505.86184,386.34431)">
      <path
         inkscape:connector-curvature="0"
         d="m 0,0 34.02,0 -0.3,-0.12 8.34,8.34 c 0.06,0.12 0.18,0.18 0.36,0.12 0.12,0 0.24,0 0.3,-0.12 L 50.58,-0.12 50.22,0 84.36,0 84,-0.78 l -25.74,26.4 0.3,-0.12 -32.76,0 0.36,0.12 -25.8,-26.4 -0.66,0.66 25.74,26.4 c 0.12,0.12 0.24,0.18 0.36,0.18 l 32.76,0 c 0.12,0 0.24,-0.06 0.36,-0.18 l 25.74,-26.4 c 0.18,-0.18 0.18,-0.36 0.12,-0.54 -0.06,-0.18 -0.24,-0.3 -0.42,-0.3 l -34.14,0 c -0.12,0 -0.24,0.06 -0.36,0.18 l -7.8,8.34 0.66,0 -8.34,-8.34 C 34.26,-0.9 34.14,-0.96 34.02,-0.96 L 0,-0.96"
         style="fill:#000000;fill-opacity:1;fill-rule:nonzero;stroke:none"
         id="path18626" />
    </g>
    <g
       id="g18628"
       transform="matrix(0,1.25,1.25,0,451.63809,378.09431)">
      <path
         inkscape:connector-curvature="0"
         d="m 0,0 -0.9,0.42 -1.38,0 -0.96,0.66 -1.08,0.54 -0.9,0.66 -0.72,0.96 -0.66,1.08 -0.66,0.96 -0.3,1.2 0,2.58 c 0.64,2.516 2.617,5.229 5.28,5.82 l 1.38,0.36 1.32,0.3 31.02,0 1.38,-0.3 c 2.483,-0.544 5.857,-2.3 6.18,-5.1 l 0.42,-1.08 0,-1.2 C 39.701,4.877 37.778,2.255 35.1,1.08 l -1.08,-0.66 -1.2,0 L 31.44,0 0,0"
         style="fill:#ffffff;fill-opacity:1;fill-rule:evenodd;stroke:none"
         id="path18630" />
    </g>
    <g
       id="g18632"
       transform="matrix(0,1.25,1.25,0,451.11309,377.86931)">
      <path
         inkscape:connector-curvature="0"
         d="m 0,0 -0.96,0.42 0.24,-0.06 -1.38,0 c -0.12,0 -0.18,0.06 -0.3,0.12 l -0.9,0.66 0.06,-0.06 -1.08,0.54 c -0.06,0 -0.06,0.06 -0.06,0.06 L -5.34,2.34 C -5.4,2.34 -5.4,2.4 -5.46,2.46 L -6.12,3.42 -6.84,4.5 -7.5,5.4 c 0,0.06 -0.06,0.12 -0.06,0.18 l -0.24,1.2 c 0,0.06 -0.06,0.12 -0.06,0.12 l 0,2.58 c 0,0 0.06,0.06 0.06,0.12 l 0.24,1.08 c 0,0 0.06,0.06 0.06,0.12 l 0.66,1.2 0.72,0.96 0.66,0.96 c 0.06,0.06 0.06,0.06 0.12,0.12 l 0.96,0.66 1.08,0.72 c 0.06,0 0.06,0 0.12,0.06 l 0.96,0.24 1.32,0.42 1.38,0.24 c 0.06,0.06 0.06,0.06 0.12,0.06 l 31.02,0 c 0.06,0 0.06,0 0.12,-0.06 l 1.32,-0.24 1.26,-0.42 1.08,-0.24 c 0.06,-0.06 0.12,-0.06 0.12,-0.12 l 1.92,-1.32 1.14,-0.96 c 0,-0.06 0,-0.06 0.06,-0.12 l 0.66,-0.9 c 0.06,-0.06 0.06,-0.12 0.06,-0.18 l 0.3,-1.2 0.36,-1.02 C 40.08,9.6 40.08,9.54 40.08,9.48 l 0,-2.58 c 0,-0.06 0,-0.12 -0.06,-0.12 l -0.36,-1.26 -0.3,-0.9 c 0,-0.06 0,-0.06 -0.06,-0.12 L 38.64,3.42 C 38.64,3.36 38.58,3.36 38.58,3.3 L 37.5,2.34 36.48,1.68 35.52,1.08 34.44,0.42 C 34.38,0.36 34.26,0.36 34.2,0.36 l -1.2,0 0.12,0 L 31.74,0 c 0,-0.06 -0.06,-0.06 -0.12,-0.06 l -31.02,0 0,0.96 31.02,0 -0.12,0 1.32,0.36 c 0.06,0.06 0.12,0.06 0.18,0.06 l 1.2,0 -0.24,-0.06 1.08,0.66 0.9,0.54 0.9,0.6 1.08,0.96 -0.06,-0.12 0.66,1.08 -0.06,-0.12 0.3,0.96 0.36,1.26 0,-0.18 0,2.58 0,-0.18 -0.42,1.14 -0.24,1.2 0.06,-0.18 -0.66,0.96 0.06,-0.06 -1.02,0.9 -0.96,0.66 -0.96,0.72 0.18,-0.12 -1.14,0.3 -1.14,0.42 -1.32,0.24 0.06,0 -31.02,0 0.12,0 -1.32,-0.24 -1.38,-0.42 -0.96,-0.3 0.12,0.06 -1.02,-0.66 -0.96,-0.66 0.12,0.12 -0.66,-0.96 -0.66,-0.9 -0.66,-1.2 0,0.12 -0.24,-1.08 0,0.12 0,-2.58 0,0.12 0.3,-1.2 L -6.72,5.94 -6,4.98 -5.34,3.96 -4.68,3 -4.8,3.12 l 0.96,-0.66 -0.06,0 1.08,-0.54 0.06,0 0.96,-0.72 -0.3,0.12 1.38,0 c 0.06,0 0.12,0 0.18,-0.06 l 0.9,-0.42"
         style="fill:#000000;fill-opacity:1;fill-rule:nonzero;stroke:none"
         id="path18634" />
    </g>
    <text
       id="text18636"
       x="456.58746"
       y="391.89432"
       style="font-size:15px">
      <tspan
         style="font-size:10.80000019px;font-variant:normal;font-weight:normal;font-stretch:normal;writing-mode:lr-tb;fill:#000000;fill-opacity:1;fill-rule:nonzero;stroke:none;font-family:Arial;-inkscape-font-specification:ArialMT"
         x="456.58746"
         y="391.89432"
         id="tspan18638">M</tspan>
      <tspan
         style="font-size:10.80000019px;font-variant:normal;font-weight:normal;font-stretch:normal;writing-mode:lr-tb;fill:#000000;fill-opacity:1;fill-rule:nonzero;stroke:none;font-family:Arial;-inkscape-font-specification:ArialMT"
         x="458.61246"
         y="402.16943"
         id="tspan18640">u</tspan>
      <tspan
         style="font-size:10.80000019px;font-variant:normal;font-weight:normal;font-stretch:normal;writing-mode:lr-tb;fill:#000000;fill-opacity:1;fill-rule:nonzero;stroke:none;font-family:Arial;-inkscape-font-specification:ArialMT"
         x="458.61246"
         y="412.96942"
         id="tspan18642">x</tspan>
    </text>
    <g
       id="g18644"
       transform="matrix(0,1.25,1.25,0,549.28809,630.91931)">
      <path
         inkscape:connector-curvature="0"
         d="m 0,0 0,2.16 -0.42,2.04 -0.66,1.62 -1.2,1.62 -1.08,1.62 -1.62,0.9 -1.62,1.26 -1.8,0.66 -1.86,0.42 -2.04,0.24 -12.54,0 -2.04,-0.24 -1.86,-0.42 -2.04,-0.66 -1.62,-1.26 -1.32,-0.9 -1.38,-1.62 -0.9,-1.62 -0.72,-1.62 -0.66,-2.04 0,-40.62 0.66,-1.86 0.72,-1.92 0.9,-1.62 1.38,-1.32 1.32,-1.2 1.62,-0.96 2.04,-0.66 1.86,-0.72 16.62,0 c 4.242,1.261 8.726,3.76 9.84,8.4 L 0,-38.46 0.24,-36.42 0.24,0.3 0,0"
         style="fill:#ffffff;fill-opacity:1;fill-rule:evenodd;stroke:none"
         id="path18646" />
    </g>
    <g
       id="g18648"
       transform="matrix(0,1.25,1.25,0,549.28809,630.24431)">
      <path
         inkscape:connector-curvature="0"
         d="m 0,0 0,2.16 0,-0.12 -0.42,2.04 0.06,-0.12 -0.66,1.62 0.06,-0.12 -1.26,1.62 -1.08,1.68 0.18,-0.18 -1.62,0.96 -1.68,1.26 0.12,-0.12 -1.74,0.72 0.12,-0.06 -1.92,0.42 -1.98,0.24 -12.48,0 -1.92,-0.24 -1.86,-0.42 -1.98,-0.66 0.18,0.12 -1.62,-1.26 -1.38,-0.96 0.12,0.12 -1.38,-1.62 0.06,0.06 -0.96,-1.62 -0.6,-1.56 -0.66,-1.98 0,0.18 0,-40.62 0,0.18 0.66,-1.86 0.66,-1.92 -0.06,0.12 0.96,-1.62 -0.06,0.12 1.32,-1.38 1.32,-1.2 -0.06,0.06 1.62,-0.9 -0.12,0 2.04,-0.66 1.86,-0.66 -0.18,0 16.62,0 -0.18,0 1.86,0.66 1.74,0.66 -0.06,0 1.62,0.9 1.56,1.2 -0.06,-0.12 1.08,1.38 1.2,1.62 -0.12,-0.18 0.72,1.92 0.36,1.8 0.24,1.98 0,36.66 1.08,0 0,-36.78 -0.24,-2.1 -0.42,-1.92 -0.72,-1.92 c 0,-0.06 0,-0.06 -0.06,-0.12 l -1.2,-1.62 -1.08,-1.38 c -0.06,0 -0.06,-0.06 -0.12,-0.06 l -1.68,-1.26 -1.62,-0.96 c 0,0 -0.06,0 -0.06,-0.06 l -1.74,-0.66 -1.92,-0.66 c -0.06,0 -0.12,-0.06 -0.18,-0.06 l -16.62,0 c -0.06,0 -0.12,0.06 -0.18,0.06 l -1.86,0.66 -2.04,0.66 c 0,0.06 -0.06,0.06 -0.06,0.06 l -1.62,0.96 c -0.06,0 -0.06,0 -0.12,0.06 l -1.38,1.2 -1.32,1.38 c -0.06,0 -0.06,0.06 -0.12,0.12 l -0.9,1.62 c -0.06,0 -0.06,0.06 -0.06,0.06 l -0.66,1.92 -0.66,1.86 c -0.06,0.06 -0.06,0.12 -0.06,0.18 l 0,40.62 c 0,0.06 0,0.12 0,0.18 l 0.72,2.04 0.72,1.68 0.9,1.62 c 0.06,0.06 0.06,0.06 0.06,0.12 l 1.38,1.62 c 0,0 0.06,0.06 0.12,0.06 l 1.32,0.96 1.62,1.2 c 0.06,0.06 0.06,0.06 0.12,0.06 l 2.1,0.72 1.92,0.42 2.1,0.24 12.6,0 2.1,-0.24 1.86,-0.42 c 0.06,0 0.06,0 0.12,-0.06 l 1.74,-0.66 c 0.06,0 0.06,-0.06 0.12,-0.06 l 1.56,-1.2 1.62,-0.9 C -2.52,9.48 -2.46,9.42 -2.4,9.36 l 1.08,-1.62 1.2,-1.62 c 0.06,0 0.06,-0.06 0.06,-0.12 L 0.6,4.38 c 0.06,0 0.06,-0.06 0.06,-0.06 L 1.08,2.28 c 0,-0.06 0,-0.06 0,-0.12 L 1.08,0"
         style="fill:#ff3300;fill-opacity:1;fill-rule:nonzero;stroke:none"
         id="path18650" />
    </g>
    <text
       id="text18652"
       x="501.28745"
       y="605.7193"
       style="font-size:15px">
      <tspan
         style="font-size:10.80000019px;font-variant:normal;font-weight:normal;font-stretch:normal;writing-mode:lr-tb;fill:#eb7500;fill-opacity:1;fill-rule:nonzero;stroke:none;font-family:Arial;-inkscape-font-specification:ArialMT"
         x="501.28745 507.36462 513.06268 516.58783 523.86053 529.55859 533.15826 538.85632 540.87915 546.42712"
         y="605.7193"
         sodipodi:role="line"
         id="tspan18654">Forwarding</tspan>
      <tspan
         style="font-size:10.80000019px;font-variant:normal;font-weight:normal;font-stretch:normal;writing-mode:lr-tb;fill:#eb7500;fill-opacity:1;fill-rule:nonzero;stroke:none;font-family:Arial;-inkscape-font-specification:ArialMT"
         x="517.78772 523.48578 529.10931 531.1322"
         y="618.24408"
         sodipodi:role="line"
         id="tspan18656">unit</tspan>
    </text>
    <g
       id="g18658"
       transform="matrix(0,1.25,1.25,0,445.71309,497.04431)">
      <path
         inkscape:connector-curvature="0"
         d="M 0,0 4.26,0 2.4,4.2 0,0"
         style="fill:#ff3300;fill-opacity:1;fill-rule:evenodd;stroke:none"
         id="path18660" />
    </g>
    <g
       id="g18662"
       transform="matrix(0,1.25,1.25,0,445.71309,559.06931)">
      <path
         inkscape:connector-curvature="0"
         d="M 0,0 4.2,0 2.28,4.2 0,0"
         style="fill:#000000;fill-opacity:1;fill-rule:evenodd;stroke:none"
         id="path18664" />
    </g>
    <g
       id="g18666"
       transform="matrix(0,1.25,1.25,0,445.71309,577.96931)">
      <path
         inkscape:connector-curvature="0"
         d="M 0,0 4.32,0 2.28,4.2 0.42,0 0,0"
         style="fill:#000000;fill-opacity:1;fill-rule:evenodd;stroke:none"
         id="path18668" />
    </g>
    <g
       id="g18670"
       transform="matrix(0,1.25,1.25,0,445.71309,414.84431)">
      <path
         inkscape:connector-curvature="0"
         d="M 0,0 4.32,0 2.04,4.2 0,0"
         style="fill:#ff3300;fill-opacity:1;fill-rule:evenodd;stroke:none"
         id="path18672" />
    </g>
    <g
       id="g18674"
       transform="matrix(0,1.25,1.25,0,445.56309,415.36931)">
      <path
         inkscape:connector-curvature="0"
         d="m 0,0 -0.42,0.54 4.32,0 -0.36,-0.6 -2.28,4.2 0.72,0 L 0,0 z M 1.26,4.5 C 1.32,4.62 1.44,4.74 1.62,4.74 1.8,4.74 1.92,4.68 1.98,4.5 L 4.26,0.36 C 4.32,0.24 4.32,0.06 4.26,-0.06 4.2,-0.18 4.08,-0.24 3.9,-0.24 l -4.32,0 c -0.12,0 -0.24,0.06 -0.3,0.18 -0.12,0.12 -0.12,0.24 -0.06,0.36"
         style="fill:#ff3300;fill-opacity:1;fill-rule:nonzero;stroke:none"
         id="path18676" />
    </g>
    <g
       id="g18678"
       transform="matrix(0,1.25,1.25,0,499.18809,395.11931)">
      <path
         inkscape:connector-curvature="0"
         d="M 0,0 4.2,0.42 2.34,4.62 0.3,0.42 0,0"
         style="fill:#000000;fill-opacity:1;fill-rule:evenodd;stroke:none"
         id="path18680" />
    </g>
    <g
       id="g18682"
       transform="matrix(0,1.25,1.25,0,501.21184,396.99431)">
      <path
         inkscape:connector-curvature="0"
         d="m 0,0 0.12,-24.12 1.62,0 L 1.62,0"
         style="fill:#000000;fill-opacity:1;fill-rule:nonzero;stroke:none"
         id="path18684" />
    </g>
    <g
       id="g18686"
       transform="matrix(0,1.25,1.25,0,445.71309,395.11931)">
      <path
         inkscape:connector-curvature="0"
         d="M 0,0 4.2,0 2.34,4.2 0.3,0 0,0"
         style="fill:#ff3300;fill-opacity:1;fill-rule:evenodd;stroke:none"
         id="path18688" />
    </g>
    <g
       id="g18690"
       transform="matrix(0,1.25,1.25,0,447.21309,498.54431)">
      <path
         inkscape:connector-curvature="0"
         d="m 0,0 0.36,-18.3 1.62,0 -0.36,18.36"
         style="fill:#ff3300;fill-opacity:1;fill-rule:nonzero;stroke:none"
         id="path18692" />
    </g>
    <g
       id="g18694"
       transform="matrix(0,1.25,1.25,0,448.11309,399.01931)">
      <path
         inkscape:connector-curvature="0"
         d="m 0,0 0,-18.36 -0.78,0.84 205.44,0 0,-1.62 -205.44,0 c -0.48,0 -0.84,0.36 -0.84,0.78 l 0,18.36"
         style="fill:#ff3300;fill-opacity:1;fill-rule:nonzero;stroke:none"
         id="path18696" />
    </g>
    <g
       id="g18698"
       transform="matrix(0,1.25,1.25,0,445.71309,375.76931)">
      <path
         inkscape:connector-curvature="0"
         d="M 0,0 4.14,0 2.28,4.2 0,0"
         style="fill:#000000;fill-opacity:1;fill-rule:evenodd;stroke:none"
         id="path18700" />
    </g>
    <g
       id="g18702"
       transform="matrix(0,1.25,1.25,0,448.11309,377.11931)">
      <path
         inkscape:connector-curvature="0"
         d="m 0,0 0.42,-55.2 1.56,0 L 1.62,0"
         style="fill:#000000;fill-opacity:1;fill-rule:nonzero;stroke:none"
         id="path18704" />
    </g>
    <g
       id="g18706"
       transform="matrix(0,1.25,1.25,0,424.63809,502.36931)">
      <path
         inkscape:connector-curvature="0"
         d="m 0,0 0,1.08 -0.24,0.3 0,0.24 -0.42,0 0,0.42 -0.24,0 -0.42,0.3 -1.2,0 -0.42,-0.3 -0.3,0 L -3.6,1.62 -3.9,1.38 -3.9,0.72 -4.26,0.42 -3.9,0 l 0,-0.54 0.3,-0.36 0,-0.3 0.36,0 0.3,-0.42 2.04,0 0.24,0.42 0.42,0.3 0,0.36 L 0,-0.24 0,0.42 0,0"
         style="fill:#ff3300;fill-opacity:1;fill-rule:evenodd;stroke:none"
         id="path18708" />
    </g>
    <g
       id="g18710"
       transform="matrix(0,1.25,1.25,0,114.06309,441.99431)">
      <path
         inkscape:connector-curvature="0"
         d="m 0,0 0.3,18.72 1.62,0 -0.3,-18.78"
         style="fill:#000000;fill-opacity:1;fill-rule:nonzero;stroke:none"
         id="path18712" />
    </g>
    <g
       id="g18714"
       transform="matrix(0,1.25,1.25,0,352.63809,540.31931)">
      <path
         inkscape:connector-curvature="0"
         d="M 0,0 4.32,0.3 2.04,4.2 0,0.3 0,0"
         style="fill:#000000;fill-opacity:1;fill-rule:evenodd;stroke:none"
         id="path18716" />
    </g>
    <g
       id="g18718"
       transform="matrix(0,1.25,1.25,0,354.13809,543.91931)">
      <path
         inkscape:connector-curvature="0"
         d="m 0,0 0,-154.98 c 0,-0.48 -0.36,-0.84 -0.84,-0.84 l -106.32,0 0,1.62 106.32,0 -0.78,-0.78 0,154.98"
         style="fill:#000000;fill-opacity:1;fill-rule:nonzero;stroke:none"
         id="path18720" />
    </g>
    <g
       id="g18722"
       transform="matrix(0,1.25,1.25,0,352.63809,559.06931)">
      <path
         inkscape:connector-curvature="0"
         d="M 0,0 4.2,0.3 1.86,4.2 0,0.3 0,0"
         style="fill:#000000;fill-opacity:1;fill-rule:evenodd;stroke:none"
         id="path18724" />
    </g>
    <g
       id="g18726"
       transform="matrix(0,1.25,1.25,0,137.46309,560.41931)">
      <path
         inkscape:connector-curvature="0"
         d="m 0,0 0.12,173.76 1.62,0 L 1.62,0"
         style="fill:#000000;fill-opacity:1;fill-rule:nonzero;stroke:none"
         id="path18728" />
    </g>
    <g
       id="g18730"
       transform="matrix(0,1.25,1.25,0,352.63809,578.49431)">
      <path
         inkscape:connector-curvature="0"
         d="M 0,0 4.32,0.3 1.86,4.2 0,0.3 0,0"
         style="fill:#000000;fill-opacity:1;fill-rule:evenodd;stroke:none"
         id="path18732" />
    </g>
    <g
       id="g18734"
       transform="matrix(0,1.25,1.25,0,137.46309,563.94431)">
      <path
         inkscape:connector-curvature="0"
         d="M 0,0 0.3,0.3 0,0.54 0,0.96 -0.24,1.2 l 0,0.42 -0.42,0 -0.3,0.3 -0.66,0 -0.42,0.24 -0.24,-0.24 -0.66,0 0,-0.3 -0.3,0 c -0.689,-0.561 -0.938,-1.924 -0.42,-2.7 l 0,-0.24 0.42,0 0.3,-0.3 0.24,-0.42 1.38,0 0.36,0.42 0.3,0 0.42,0.3 L 0,-1.08 0,-0.66 0.3,-0.42 0.3,0 0,0"
         style="fill:#000000;fill-opacity:1;fill-rule:evenodd;stroke:none"
         id="path18736" />
    </g>
    <g
       id="g18738"
       transform="matrix(0,1.25,1.25,0,148.78809,380.94431)">
      <path
         inkscape:connector-curvature="0"
         d="m 0,0 0,0.9 -0.24,0.3 0,0.42 -0.42,0 -0.24,0.24 -0.3,0 -0.42,0.3 -0.66,0 -0.24,-0.3 -0.42,0 -0.66,-0.66 0,-0.3 -0.3,-0.36 0,-1.26 0.3,-0.36 0.42,-0.3 0,-0.24 0.24,0 0.42,-0.42 1.32,0 0.3,0.42 0.24,0 0.42,0.24 0,0.3 0.24,0 0,0.66 L 0.42,0 0,0"
         style="fill:#000000;fill-opacity:1;fill-rule:evenodd;stroke:none"
         id="path18740" />
    </g>
    <g
       id="g18742"
       transform="matrix(0,1.25,1.25,0,159.88809,412.36931)">
      <path
         inkscape:connector-curvature="0"
         d="m 0,0 0,1.38 -0.3,0.24 -0.24,0.42 -0.42,0 -0.3,0.24 -1.32,0 -0.42,-0.24 -0.24,0 0,-0.42 -0.3,0 0,-0.24 -0.36,-0.3 0,-1.32 0.36,-0.3 0,-0.42 0.3,-0.24 0.24,-0.3 0.66,0 0.42,-0.36 0.3,0.36 0.66,0 0.42,0.3 0.24,0 0,0.24 L 0,-0.54 0,0 0.36,0.42 0,0"
         style="fill:#000000;fill-opacity:1;fill-rule:evenodd;stroke:none"
         id="path18744" />
    </g>
    <g
       id="g18746"
       transform="matrix(0,1.25,1.25,0,717.28684,567.31931)">
      <path
         inkscape:connector-curvature="0"
         d="M 0,0 4.2,0.36 2.28,4.14 0.3,0.36 0,0"
         style="fill:#000000;fill-opacity:1;fill-rule:evenodd;stroke:none"
         id="path18748" />
    </g>
    <g
       id="g18750"
       transform="matrix(0,1.25,1.25,0,718.11309,569.19431)">
      <path
         inkscape:connector-curvature="0"
         d="m 0,0 0.12,-101.22 1.62,0.06 L 1.62,0"
         style="fill:#000000;fill-opacity:1;fill-rule:nonzero;stroke:none"
         id="path18752" />
    </g>
    <g
       id="g18754"
       transform="matrix(0,1.25,1.25,0,603.96309,570.16931)">
      <path
         inkscape:connector-curvature="0"
         d="m 0,0 23.76,0 c 0.48,0 0.84,-0.36 0.84,-0.84 l 0,-26.82 -1.62,0 0,26.82 0.78,-0.78 -23.76,0"
         style="fill:#000000;fill-opacity:1;fill-rule:nonzero;stroke:none"
         id="path18756" />
    </g>
    <g
       id="g18758"
       transform="matrix(0,1.25,1.25,0,602.91184,572.56931)">
      <path
         inkscape:connector-curvature="0"
         d="m 0,0 0,0.96 -0.3,0.24 -0.24,0.42 -0.42,0.3 -2.04,0 -0.24,-0.3 0,-0.42 -0.42,0 -0.24,-0.24 0,-2.04 0.24,-0.24 0.42,0 0,-0.3 0.24,-0.42 2.04,0 0.42,0.42 0.24,0.3 L 0,-1.08 0,0"
         style="fill:#000000;fill-opacity:1;fill-rule:evenodd;stroke:none"
         id="path18760" />
    </g>
    <g
       id="g18762"
       transform="matrix(0,1.25,1.25,0,569.01184,614.19431)">
      <path
         inkscape:connector-curvature="0"
         d="m 0,0 0.3,148.98 0.78,-0.84 -36.3,0 0.84,0.84 0,-9.06 -1.62,0 0,9.06 c 0,0.42 0.36,0.78 0.78,0.78 l 36.3,0 c 0.24,0 0.42,-0.06 0.6,-0.24 0.12,-0.12 0.24,-0.36 0.24,-0.54 L 1.62,0"
         style="fill:#000000;fill-opacity:1;fill-rule:nonzero;stroke:none"
         id="path18764" />
    </g>
    <g
       id="g18766"
       transform="matrix(0,1.25,1.25,0,570.51309,612.69431)">
      <path
         inkscape:connector-curvature="0"
         d="M 0,0 4.32,0 2.28,-3.78 0,0"
         style="fill:#000000;fill-opacity:1;fill-rule:evenodd;stroke:none"
         id="path18768" />
    </g>
    <g
       id="g18770"
       transform="matrix(0,1.25,1.25,0,570.51309,597.01931)">
      <path
         inkscape:connector-curvature="0"
         d="M 0,0 4.32,0 2.28,-3.78 0,0"
         style="fill:#000000;fill-opacity:1;fill-rule:evenodd;stroke:none"
         id="path18772" />
    </g>
    <g
       id="g18774"
       transform="matrix(0,1.25,1.25,0,635.16309,436.29431)">
      <path
         inkscape:connector-curvature="0"
         d="M 0,0 4.32,0 2.4,4.14 0.42,0 0,0"
         style="fill:#000000;fill-opacity:1;fill-rule:evenodd;stroke:none"
         id="path18776" />
    </g>
    <g
       id="g18778"
       transform="matrix(0,1.25,1.25,0,636.28684,437.79431)">
      <path
         inkscape:connector-curvature="0"
         d="M 0,0 0.42,-35.76 2.04,-35.7 1.62,0.06"
         style="fill:#000000;fill-opacity:1;fill-rule:nonzero;stroke:none"
         id="path18780" />
    </g>
    <g
       id="g18782"
       transform="matrix(0,1.25,1.25,0,625.86184,514.89431)">
      <path
         inkscape:connector-curvature="0"
         d="M 0,0 0.24,0.24 0,0.66 0,1.2 l -0.42,0 -0.24,0.42 -0.42,0.24 -1.92,0 0,-0.24 -0.36,-0.42 -0.3,0 0,-0.24 -0.42,-0.3 0,-1.32 0.42,-0.3 0,-0.42 0.3,0 0.36,-0.24 0,-0.42 0.3,0 c 1.53,0.1 1.412,-0.384 2.28,0.66 l 0.42,0 0,0.72 0.24,0.24 L 0.24,0 0,0"
         style="fill:#000000;fill-opacity:1;fill-rule:evenodd;stroke:none"
         id="path18784" />
    </g>
    <g
       id="g18786"
       transform="matrix(0,1.25,1.25,0,626.83684,438.84431)">
      <path
         inkscape:connector-curvature="0"
         d="m 0,0 163.26,0 c 0.42,0 0.78,-0.36 0.78,-0.78 l 0,-151.5 c 0,-0.48 -0.36,-0.84 -0.78,-0.84 l -180.42,0 c -0.42,0 -0.78,0.36 -0.78,0.84 l 0,9.54 1.62,0 0,-9.54 -0.84,0.78 180.42,0 -0.84,-0.78 0,151.5 0.84,-0.84 -163.26,0"
         style="fill:#ff3300;fill-opacity:1;fill-rule:nonzero;stroke:none"
         id="path18788" />
    </g>
    <g
       id="g18790"
       transform="matrix(0,1.25,1.25,0,424.63809,657.24431)">
      <path
         inkscape:connector-curvature="0"
         d="m 0,0 0,1.08 -0.3,0.3 0,0.24 -0.42,0 0,0.42 -0.24,0 -0.3,0.3 -1.32,0 -0.42,-0.3 -0.24,0 -0.42,-0.42 -0.3,-0.24 0,-0.66 -0.24,-0.3 0.24,-0.42 0,-0.54 0.3,-0.36 0,-0.3 0.42,0 0.24,-0.42 2.04,0 0.24,0.42 0.42,0.3 0,0.36 L 0,-0.24 0,0.42 0,0"
         style="fill:#ff3300;fill-opacity:1;fill-rule:evenodd;stroke:none"
         id="path18792" />
    </g>
    <g
       id="g18794"
       transform="matrix(0,1.25,1.25,0,674.46184,615.24431)">
      <path
         inkscape:connector-curvature="0"
         d="m 0,0 40.62,0.24 c 0.18,0 0.42,-0.06 0.54,-0.24 0.18,-0.12 0.24,-0.36 0.24,-0.54 l 0,-402.36 c 0,-0.42 -0.36,-0.78 -0.78,-0.78 l -179.76,0 c -0.42,0 -0.78,0.36 -0.78,0.78 l 0,52.2 1.62,0 0,-52.2 -0.84,0.84 179.76,0 -0.84,-0.84 0,402.36 0.84,-0.84 L 0,-1.62"
         style="fill:#000000;fill-opacity:1;fill-rule:nonzero;stroke:none"
         id="path18796" />
    </g>
    <g
       id="g18798"
       transform="matrix(0,1.25,1.25,0,673.41309,618.09431)">
      <path
         inkscape:connector-curvature="0"
         d="m 0,0 0,0.96 -0.42,0.24 0,0.42 -0.24,0 0,0.3 -0.42,0 -0.24,0.24 -1.38,0 -0.24,-0.24 -0.42,0 -0.3,-0.3 -0.36,-0.42 0,-0.54 -0.3,-0.36 0.3,-0.3 0,-0.66 0.36,-0.3 0,-0.36 0.3,0 0.42,-0.3 0.66,0 0.24,-0.42 0.42,0.42 0.54,0 0.42,0.3 0.24,0.36 0,0.3 L 0,-0.42 0,0.3 0,0"
         style="fill:#000000;fill-opacity:1;fill-rule:evenodd;stroke:none"
         id="path18800" />
    </g>
    <text
       transform="matrix(0,-1,1,0,0,0)"
       id="text18802"
       x="-437.04431"
       y="129.81247"
       style="font-size:15px">
      <tspan
         style="font-size:10.80000019px;font-variant:normal;font-weight:normal;font-stretch:normal;writing-mode:lr-tb;fill:#000000;fill-opacity:1;fill-rule:nonzero;stroke:none;font-family:Arial;-inkscape-font-specification:ArialMT"
         x="-437.04431 -434.34216 -428.26932 -423.3942"
         y="129.81247"
         sodipodi:role="line"
         id="tspan18804">Inst</tspan>
      <tspan
         style="font-size:10.80000019px;font-variant:normal;font-weight:normal;font-stretch:normal;writing-mode:lr-tb;fill:#000000;fill-opacity:1;fill-rule:nonzero;stroke:none;font-family:Arial;-inkscape-font-specification:ArialMT"
         x="-420.76978"
         y="129.73795"
         id="tspan18806">r</tspan>
      <tspan
         style="font-size:10.80000019px;font-variant:normal;font-weight:normal;font-stretch:normal;writing-mode:lr-tb;fill:#000000;fill-opacity:1;fill-rule:nonzero;stroke:none;font-family:Arial;-inkscape-font-specification:ArialMT"
         x="-416.94443 -411.09622 -405.69623 -402.76944 -400.74658 -395.04852"
         y="129.81247"
         sodipodi:role="line"
         id="tspan18808">uction</tspan>
    </text>
    <g
       id="g18810"
       transform="matrix(0,1.25,1.25,0,482.31309,609.01931)">
      <path
         inkscape:connector-curvature="0"
         d="M 0,0 4.32,0.3 1.98,4.2 0,0.3 0,0"
         style="fill:#000000;fill-opacity:1;fill-rule:evenodd;stroke:none"
         id="path18812" />
    </g>
    <g
       id="g18814"
       transform="matrix(0,1.25,1.25,0,486.06309,622.66931)">
      <path
         inkscape:connector-curvature="0"
         d="M 0,0 4.32,0.24 2.28,4.2 0.24,0.24 0,0"
         style="fill:#000000;fill-opacity:1;fill-rule:evenodd;stroke:none"
         id="path18816" />
    </g>
    <g
       id="g18818"
       transform="matrix(0,1.25,1.25,0,565.33684,567.99431)">
      <path
         inkscape:connector-curvature="0"
         d="M 0,0 4.32,0.36 2.04,4.14 0,0.36 0,0"
         style="fill:#000000;fill-opacity:1;fill-rule:evenodd;stroke:none"
         id="path18820" />
    </g>
    <text
       id="text18822"
       x="457.11246"
       y="565.29431"
       style="font-size:15px">
      <tspan
         style="font-size:10.80000019px;font-variant:normal;font-weight:normal;font-stretch:normal;writing-mode:lr-tb;fill:#000000;fill-opacity:1;fill-rule:nonzero;stroke:none;font-family:Arial;-inkscape-font-specification:ArialMT"
         x="457.11246"
         y="565.29431"
         id="tspan18824">M</tspan>
      <tspan
         style="font-size:10.80000019px;font-variant:normal;font-weight:normal;font-stretch:normal;writing-mode:lr-tb;fill:#000000;fill-opacity:1;fill-rule:nonzero;stroke:none;font-family:Arial;-inkscape-font-specification:ArialMT"
         x="458.61258"
         y="576.01978"
         id="tspan18826">u</tspan>
      <tspan
         style="font-size:10.80000019px;font-variant:normal;font-weight:normal;font-stretch:normal;writing-mode:lr-tb;fill:#000000;fill-opacity:1;fill-rule:nonzero;stroke:none;font-family:Arial;-inkscape-font-specification:ArialMT"
         x="458.61258"
         y="586.36945"
         id="tspan18828">x</tspan>
    </text>
    <g
       id="g18830"
       transform="matrix(0,1.25,1.25,0,470.23809,569.19431)">
      <path
         inkscape:connector-curvature="0"
         d="m 0,0 0.12,76.44 1.62,0 -0.12,-76.5"
         style="fill:#000000;fill-opacity:1;fill-rule:nonzero;stroke:none"
         id="path18832" />
    </g>
    <text
       id="text18834"
       x="382.33746"
       y="576.91931"
       style="font-size:15px">
      <tspan
         style="font-size:10.80000019px;font-variant:normal;font-weight:normal;font-stretch:normal;writing-mode:lr-tb;fill:#000000;fill-opacity:1;fill-rule:nonzero;stroke:none;font-family:Arial;-inkscape-font-specification:ArialMT"
         x="382.33746 390.13614"
         y="576.91931"
         sodipodi:role="line"
         id="tspan18836">Rd</tspan>
      <tspan
         style="font-size:10.80000019px;font-variant:normal;font-weight:normal;font-stretch:normal;writing-mode:lr-tb;fill:#000000;fill-opacity:1;fill-rule:nonzero;stroke:none;font-family:Arial;-inkscape-font-specification:ArialMT"
         x="628.78699 635.16223 641.91223 644.4632 652.8634 659.31317 667.71344 670.2644 677.46259 683.08612 688.25934 690.28217 695.53204 698.08301 703.63635 706.86127 713.75922"
         y="566.11932"
         sodipodi:role="line"
         id="tspan18838">EX/MEM.RegisterRd</tspan>
      <tspan
         style="font-size:10.80000019px;font-variant:normal;font-weight:normal;font-stretch:normal;writing-mode:lr-tb;fill:#000000;fill-opacity:1;fill-rule:nonzero;stroke:none;font-family:Arial;-inkscape-font-specification:ArialMT"
         x="628.78699 637.18396 643.5592 652.034 654.36029 663.66235 670.56244 672.96545 680.16364 685.93732 691.18616 693.20898 698.38434 700.78735 706.48541 709.71033 716.45813"
         y="610.81946"
         sodipodi:role="line"
         id="tspan18840">MEM/WB.RegisterRd</tspan>
      <tspan
         style="font-size:10.80000019px;font-variant:normal;font-weight:normal;font-stretch:normal;writing-mode:lr-tb;fill:#000000;fill-opacity:1;fill-rule:nonzero;stroke:none;font-family:Arial;-inkscape-font-specification:ArialMT"
         x="382.33746 390.13614"
         y="557.49445"
         sodipodi:role="line"
         id="tspan18842">Rt</tspan>
      <tspan
         style="font-size:10.80000019px;font-variant:normal;font-weight:normal;font-stretch:normal;writing-mode:lr-tb;fill:#000000;fill-opacity:1;fill-rule:nonzero;stroke:none;font-family:Arial;-inkscape-font-specification:ArialMT"
         x="382.33746 390.13614"
         y="538.96918"
         sodipodi:role="line"
         id="tspan18844">Rt</tspan>
      <tspan
         style="font-size:10.80000019px;font-variant:normal;font-weight:normal;font-stretch:normal;writing-mode:lr-tb;fill:#000000;fill-opacity:1;fill-rule:nonzero;stroke:none;font-family:Arial;-inkscape-font-specification:ArialMT"
         x="382.33746 390.13614"
         y="519.91907"
         sodipodi:role="line"
         id="tspan18846">Rs</tspan>
      <tspan
         style="font-size:10.80000019px;font-variant:normal;font-weight:normal;font-stretch:normal;writing-mode:lr-tb;fill:#000000;fill-opacity:1;fill-rule:nonzero;stroke:none;font-family:Arial;-inkscape-font-specification:ArialMT"
         x="221.98772 224.83997 231.28865 234.14095 236.99323 244.26595 247.11823 254.69118 260.23914 266.01282 268.03568 273.28552 276.13782 281.68579 285.36102 292.63373"
         y="576.91931"
         sodipodi:role="line"
         id="tspan18848">IF/ID.RegisterRd</tspan>
      <tspan
         style="font-size:10.80000019px;font-variant:normal;font-weight:normal;font-stretch:normal;writing-mode:lr-tb;fill:#000000;fill-opacity:1;fill-rule:nonzero;stroke:none;font-family:Arial;-inkscape-font-specification:ArialMT"
         x="221.98772 224.83997 231.28865 234.14095 236.99323 244.26595 247.11823 254.69118 260.23914 266.01282 268.03568 273.28552 276.13782 281.68579 285.36102 292.63373"
         y="557.49445"
         sodipodi:role="line"
         id="tspan18850">IF/ID.RegisterRt</tspan>
      <tspan
         style="font-size:10.80000019px;font-variant:normal;font-weight:normal;font-stretch:normal;writing-mode:lr-tb;fill:#000000;fill-opacity:1;fill-rule:nonzero;stroke:none;font-family:Arial;-inkscape-font-specification:ArialMT"
         x="221.98772 224.83997 231.28865 234.14095 236.99323 244.26595 247.11823 254.69118 260.23914 266.01282 268.03568 273.28552 276.13782 281.68579 285.36102 292.63373"
         y="538.96918"
         sodipodi:role="line"
         id="tspan18852">IF/ID.RegisterRt</tspan>
      <tspan
         style="font-size:10.80000019px;font-variant:normal;font-weight:normal;font-stretch:normal;writing-mode:lr-tb;fill:#000000;fill-opacity:1;fill-rule:nonzero;stroke:none;font-family:Arial;-inkscape-font-specification:ArialMT"
         x="221.98772 224.83997 231.28865 234.14095 236.99323 244.26595 247.11823 254.69118 260.23914 266.01282 268.03568 273.28552 276.13782 281.68579 285.36102 292.63373"
         y="519.91907"
         sodipodi:role="line"
         id="tspan18854">IF/ID.RegisterRs</tspan>
    </text>
    <g
       id="g18856"
       transform="matrix(0,1.25,1.25,0,379.63809,579.46931)">
      <path
         inkscape:connector-curvature="0"
         d="m 0,0 0.12,53.16 1.62,0 L 1.62,0"
         style="fill:#000000;fill-opacity:1;fill-rule:nonzero;stroke:none"
         id="path18858" />
    </g>
    <g
       id="g18860"
       transform="matrix(0,1.25,1.25,0,379.11309,560.94431)">
      <path
         inkscape:connector-curvature="0"
         d="m 0,0 0.12,54.54 1.62,0 L 1.62,0"
         style="fill:#000000;fill-opacity:1;fill-rule:nonzero;stroke:none"
         id="path18862" />
    </g>
    <g
       id="g18864"
       transform="matrix(0,1.25,1.25,0,379.63809,522.99431)">
      <path
         inkscape:connector-curvature="0"
         d="m 0,0 0,26.04 c 0,0.42 0.36,0.78 0.78,0.78 l 70.02,0 -0.78,-0.78 0,57.48 1.62,0 0,-57.48 c 0,-0.42 -0.36,-0.84 -0.84,-0.84 l -70.02,0 0.84,0.84 0,-26.04"
         style="fill:#000000;fill-opacity:1;fill-rule:nonzero;stroke:none"
         id="path18866" />
    </g>
    <g
       id="g18868"
       transform="matrix(0,1.25,1.25,0,487.56309,626.04431)">
      <path
         inkscape:connector-curvature="0"
         d="m 0,0 0.36,-67.98 c 0,-0.24 -0.06,-0.42 -0.18,-0.6 -0.18,-0.12 -0.36,-0.24 -0.6,-0.24 l -66.12,-0.24 0.84,0.78 0,-18.48 -1.62,0 0,18.48 c 0,0.48 0.36,0.84 0.78,0.84 L -0.42,-67.2 -1.26,-67.98 -1.62,0"
         style="fill:#000000;fill-opacity:1;fill-rule:nonzero;stroke:none"
         id="path18870" />
    </g>
    <text
       id="text18872"
       x="359.53745"
       y="341.86932"
       style="font-size:15px">
      <tspan
         style="font-size:10.80000019px;font-variant:normal;font-weight:bold;font-stretch:normal;writing-mode:lr-tb;fill:#000000;fill-opacity:1;fill-rule:nonzero;stroke:none;font-family:Arial;-inkscape-font-specification:Arial-BoldMT"
         x="359.53745 362.53879 370.3353 373.33661 380.53915"
         y="341.86932"
         sodipodi:role="line"
         id="tspan18874">ID/EX</tspan>
    </text>
    <path
       inkscape:connector-curvature="0"
       d="m 136.63809,377.94431 0,202.35 2.025,0 0,-202.35 -2.025,0 z"
       style="fill:#000000;fill-opacity:1;fill-rule:nonzero;stroke:none"
       id="path18876" />
    <path
       inkscape:connector-curvature="0"
       d="m 137.83809,579.31931 0,2.025 220.05,0 0,-2.025 -220.05,0 z"
       style="fill:#000000;fill-opacity:1;fill-rule:nonzero;stroke:none"
       id="path18878" />
    <text
       id="text18880"
       x="92.387466"
       y="341.86932"
       style="font-size:15px">
      <tspan
         style="font-size:10.80000019px;font-variant:normal;font-weight:bold;font-stretch:normal;writing-mode:lr-tb;fill:#000000;fill-opacity:1;fill-rule:nonzero;stroke:none;font-family:Arial;-inkscape-font-specification:Arial-BoldMT"
         x="92.387466 95.389862 101.98866 104.99107 107.99346 567.43738 574.64093 581.84454 584.84692 593.84332 601.04694 718.94727 727.9469 735.15051 744.14697 747.14935 757.34448"
         y="341.86932"
         sodipodi:role="line"
         id="tspan18882">IF/IDEX/MEMMEM/WB</tspan>
    </text>
    <text
       id="text18884"
       x="17.56259"
       y="420.16931"
       style="font-size:15px">
      <tspan
         style="font-size:13.5px;font-variant:normal;font-weight:bold;font-stretch:normal;writing-mode:lr-tb;fill:#000000;fill-opacity:1;fill-rule:nonzero;stroke:none;font-family:Arial;-inkscape-font-specification:Arial-BoldMT"
         x="17.56259 28.80674 36.31139 48.311539 56.558689 61.808838 65.560486"
         y="420.16931"
         sodipodi:role="line"
         id="tspan18886">Memoria</tspan>
      <tspan
         style="font-size:13.5px;font-variant:normal;font-weight:bold;font-stretch:normal;writing-mode:lr-tb;fill:#000000;fill-opacity:1;fill-rule:nonzero;stroke:none;font-family:Arial;-inkscape-font-specification:Arial-BoldMT"
         x="17.56259 21.31559 28.82159 33.317089 38.568588 46.817089 53.567089 57.320091 65.568588 73.817093"
         y="436.36932"
         sodipodi:role="line"
         id="tspan18888">Istruzioni</tspan>
      <tspan
         style="font-size:13.5px;font-variant:normal;font-weight:bold;font-stretch:normal;writing-mode:lr-tb;fill:#000000;fill-opacity:1;fill-rule:nonzero;stroke:none;font-family:Arial;-inkscape-font-specification:Arial-BoldMT"
         x="247.43788 257.18491 264.69089 272.93939"
         y="415.44431"
         sodipodi:role="line"
         id="tspan18890">Reg.</tspan>
      <tspan
         style="font-size:13.5px;font-variant:normal;font-weight:bold;font-stretch:normal;writing-mode:lr-tb;fill:#000000;fill-opacity:1;fill-rule:nonzero;stroke:none;font-family:Arial;-inkscape-font-specification:Arial-BoldMT"
         x="644.93726 656.18146 663.6861 675.68622 683.93335 689.18353 692.93518"
         y="421.06976"
         sodipodi:role="line"
         id="tspan18892">Memoria</tspan>
      <tspan
         style="font-size:13.5px;font-variant:normal;font-weight:bold;font-stretch:normal;writing-mode:lr-tb;fill:#000000;fill-opacity:1;fill-rule:nonzero;stroke:none;font-family:Arial;-inkscape-font-specification:Arial-BoldMT"
         x="644.93726 654.68427 662.19025 666.68579"
         y="437.26974"
         sodipodi:role="line"
         id="tspan18894">Dati</tspan>
    </text>
    <g
       id="g18896"
       transform="matrix(0,1.25,1.25,0,329.38809,370.89431)">
      <path
         inkscape:connector-curvature="0"
         d="m 0,0 -0.96,0.42 -1.38,0 -0.9,0.66 -1.08,0.54 -0.96,0.66 -0.66,0.96 -0.72,1.08 -0.66,0.96 -0.24,1.2 0,2.58 c 0.285,2.217 2.895,5.45 5.22,5.76 l 1.38,0.42 1.32,0.3 31.02,0 1.38,-0.3 1.2,-0.42 1.08,-0.24 0.96,-0.66 0.96,-0.72 1.08,-0.9 0.66,-0.96 0.24,-1.2 0.42,-1.08 0,-1.26 C 39.594,4.839 37.761,2.199 35.04,1.08 l -1.08,-0.66 -1.2,0 L 31.38,0 0.36,0"
         style="fill:#ffffff;fill-opacity:1;fill-rule:evenodd;stroke:none"
         id="path18898" />
    </g>
    <g
       id="g18900"
       transform="matrix(0,1.25,1.25,0,328.86309,370.59431)">
      <path
         inkscape:connector-curvature="0"
         d="m 0,0 -0.9,0.36 0.18,0 -1.38,0 c -0.06,0 -0.18,0 -0.24,0.06 L -3.3,1.14 -3.24,1.08 -4.32,1.62 c 0,0 -0.06,0 -0.06,0.06 l -0.96,0.66 c 0,0 -0.06,0.06 -0.12,0.12 L -6.12,3.36 -6.78,4.5 -7.44,5.4 C -7.5,5.46 -7.5,5.52 -7.56,5.58 l -0.24,1.2 c 0,0.06 0,0.06 0,0.12 l 0,2.64 0.24,1.08 c 0.06,0.06 0.06,0.12 0.06,0.12 l 0.66,1.26 0.72,0.96 0.66,0.96 c 0.06,0.06 0.12,0.06 0.12,0.12 l 0.96,0.66 1.08,0.66 c 0.06,0.06 0.12,0.06 0.12,0.06 l 0.96,0.3 1.38,0.42 1.38,0.24 31.08,0 c 0.06,0 0.12,0 0.12,0 l 1.38,-0.24 1.26,-0.42 1.02,-0.3 c 0.06,0 0.12,0 0.18,-0.06 l 0.96,-0.66 0.9,-0.66 1.14,-1.02 c 0,0 0.06,0 0.06,-0.06 L 39.3,12 c 0.06,0 0.06,-0.06 0.12,-0.12 l 0.24,-1.26 0.42,-1.02 c 0,-0.06 0,-0.06 0,-0.12 l 0,-2.58 c 0,-0.06 0,-0.12 0,-0.18 l -0.42,-1.2 -0.3,-0.9 c 0,-0.06 0,-0.12 0,-0.12 L 38.64,3.42 C 38.64,3.36 38.58,3.3 38.58,3.3 L 37.5,2.34 36.54,1.68 35.52,1.08 34.44,0.42 C 34.38,0.36 34.32,0.36 34.2,0.36 l -1.2,0 0.12,0 -1.32,-0.42 c -0.06,0 -0.12,0 -0.18,0 l -31.02,0 0,0.96 31.02,0 -0.12,-0.06 1.38,0.42 c 0,0 0.06,0.06 0.12,0.06 l 1.2,0 -0.24,-0.12 1.08,0.72 0.9,0.48 0.9,0.66 1.08,0.96 -0.06,-0.12 0.66,1.08 -0.06,-0.12 0.3,0.96 0.42,1.2 -0.06,-0.12 0,2.58 0.06,-0.18 -0.42,1.14 -0.3,1.2 0.06,-0.18 -0.66,0.96 0.06,-0.06 -1.02,0.9 -0.96,0.66 -0.9,0.66 0.12,-0.06 -1.08,0.3 -1.2,0.36 -1.32,0.3 0.06,0 -31.02,0 0.12,0 -1.32,-0.3 -1.38,-0.36 -0.9,-0.3 0.12,0.06 -1.08,-0.66 -0.96,-0.66 0.12,0.12 -0.66,-0.96 -0.66,-0.9 -0.66,-1.2 0.06,0.12 -0.3,-1.08 0.06,0.12 0,-2.58 L -6.9,7.02 -6.6,5.76 -6.66,5.94 -6,4.98 -5.34,3.9 -4.68,3 -4.8,3.12 -3.84,2.4 -3.9,2.46 -2.82,1.92 c 0,0 0.06,0 0.06,-0.06 l 0.96,-0.66 -0.3,0.12 1.38,0 c 0.06,0 0.12,-0.06 0.18,-0.06 L 0.42,0.84"
         style="fill:#000000;fill-opacity:1;fill-rule:nonzero;stroke:none"
         id="path18902" />
    </g>
    <path
       inkscape:connector-curvature="0"
       d="m 334.26309,374.26931 0,12.975 8.925,0 0,-12.975 -8.925,0 z"
       style="fill:#ffffff;fill-opacity:1;fill-rule:nonzero;stroke:none"
       id="path18904" />
    <text
       id="text18906"
       x="334.33746"
       y="384.61932"
       style="font-size:15px">
      <tspan
         style="font-size:10.80000019px;font-variant:normal;font-weight:normal;font-stretch:normal;writing-mode:lr-tb;fill:#000000;fill-opacity:1;fill-rule:nonzero;stroke:none;font-family:Arial;-inkscape-font-specification:ArialMT"
         x="334.33746"
         y="384.61932"
         id="tspan18908">M</tspan>
    </text>
    <path
       inkscape:connector-curvature="0"
       d="m 336.28809,384.54431 0,12.975 6.075,0 0,-12.975 -6.075,0 z"
       style="fill:#ffffff;fill-opacity:1;fill-rule:nonzero;stroke:none"
       id="path18910" />
    <text
       id="text18912"
       x="336.36246"
       y="394.89432"
       style="font-size:15px">
      <tspan
         style="font-size:10.80000019px;font-variant:normal;font-weight:normal;font-stretch:normal;writing-mode:lr-tb;fill:#000000;fill-opacity:1;fill-rule:nonzero;stroke:none;font-family:Arial;-inkscape-font-specification:ArialMT"
         x="336.36246"
         y="394.89432"
         id="tspan18914">u</tspan>
    </text>
    <path
       inkscape:connector-curvature="0"
       d="m 336.28809,395.34431 0,12.975 5.4,0 0,-12.975 -5.4,0 z"
       style="fill:#ffffff;fill-opacity:1;fill-rule:nonzero;stroke:none"
       id="path18916" />
    <text
       id="text18918"
       x="336.36246"
       y="405.69431"
       style="font-size:15px">
      <tspan
         style="font-size:10.80000019px;font-variant:normal;font-weight:normal;font-stretch:normal;writing-mode:lr-tb;fill:#000000;fill-opacity:1;fill-rule:nonzero;stroke:none;font-family:Arial;-inkscape-font-specification:ArialMT"
         x="336.36246"
         y="405.69431"
         id="tspan18920">x</tspan>
    </text>
    <g
       id="g18922"
       transform="matrix(0,1.25,1.25,0,328.56309,441.31931)">
      <path
         inkscape:connector-curvature="0"
         d="m 0,0 -0.9,0.36 -1.38,0 -0.9,0.72 -1.08,0.54 -0.96,0.66 C -7.636,6.124 -7.533,4.215 -7.5,9 l 0.24,1.08 0.66,1.26 c 1.899,2.943 3.667,3.563 7.02,4.14 l 31.02,0 1.38,-0.24 1.2,-0.42 1.08,-0.24 0.96,-0.72 0.96,-0.66 1.08,-0.96 0.66,-0.9 L 39,10.08 39.42,9 l 0,-2.52 C 38.296,2.16 37.423,2.705 34.02,0.36 l -1.2,0 L 31.44,0 0.42,0"
         style="fill:#ffffff;fill-opacity:1;fill-rule:evenodd;stroke:none"
         id="path18924" />
    </g>
    <g
       id="g18926"
       transform="matrix(0,1.25,1.25,0,327.96309,441.09431)">
      <path
         inkscape:connector-curvature="0"
         d="m 0,0 -0.9,0.42 0.18,0 -1.38,0 c -0.06,0 -0.18,0 -0.24,0.06 l -0.96,0.66 0.06,0 -1.08,0.54 -0.06,0 -0.96,0.72 C -5.4,2.4 -5.4,2.46 -5.46,2.46 L -6.12,3.42 -6.78,4.5 -7.44,5.46 C -7.5,5.52 -7.5,5.58 -7.56,5.64 l -0.24,1.2 c 0,0 0,0.06 0,0.12 l 0,2.52 c 0,0.06 0,0.12 0,0.12 l 0.24,1.08 c 0.06,0.06 0.06,0.12 0.06,0.12 l 0.66,1.2 0.72,1.02 0.66,0.96 c 0.06,0 0.06,0.06 0.12,0.06 l 0.96,0.72 1.08,0.66 c 0.06,0.06 0.12,0.06 0.12,0.06 l 0.96,0.3 1.32,0.36 1.44,0.3 31.08,0 c 0.06,0 0.06,0 0.12,0 l 1.32,-0.3 1.32,-0.42 1.02,-0.24 c 0.06,0 0.12,0 0.18,-0.06 l 0.9,-0.66 0.96,-0.72 1.14,-0.96 0.06,-0.06 0.66,-0.96 c 0.06,-0.06 0.06,-0.12 0.12,-0.18 l 0.24,-1.2 0.36,-1.02 C 40.08,9.6 40.08,9.54 40.08,9.48 l 0,-2.52 c 0,-0.06 0,-0.12 0,-0.18 l -0.42,-1.2 -0.3,-0.96 c 0,0 0,-0.06 -0.06,-0.12 L 38.64,3.42 38.58,3.36 37.5,2.4 36.48,1.68 35.52,1.14 34.44,0.48 C 34.38,0.42 34.32,0.42 34.2,0.42 l -1.2,0 0.12,0 L 31.8,0 C 31.74,0 31.68,0 31.62,0 L 0.6,0 l 0,0.96 31.02,0 -0.12,-0.06 1.38,0.42 c 0,0 0.06,0 0.12,0 l 1.2,0 -0.24,-0.06 1.08,0.72 0.9,0.48 0.9,0.66 1.08,0.96 -0.06,-0.12 0.66,1.08 -0.06,-0.12 0.3,0.96 0.42,1.2 -0.06,-0.12 0,2.52 0.06,-0.12 -0.42,1.14 -0.3,1.2 0.06,-0.18 -0.66,0.96 0.06,-0.12 -1.02,0.96 -0.96,0.66 -0.9,0.66 0.12,-0.06 -1.08,0.3 -1.2,0.36 -1.32,0.3 0.06,-0.06 -31.02,0 0.12,0.06 -1.32,-0.3 -1.38,-0.42 -0.9,-0.24 0.12,0.06 -1.08,-0.66 -0.96,-0.66 0.12,0.06 -1.32,-1.8 -0.66,-1.2 0.06,0.06 -0.3,-1.08 0,0.12 0,-2.52 0,0.06 0.3,-1.2 L -6.72,6 -6,5.04 -5.34,3.96 -4.68,3 -4.8,3.12 -3.84,2.46 -3.9,2.52 -2.82,1.98 -2.76,1.92 -1.8,1.26 l -0.3,0.06 1.38,0 c 0.06,0 0.12,0 0.18,0 L 0.42,0.9"
         style="fill:#000000;fill-opacity:1;fill-rule:nonzero;stroke:none"
         id="path18928" />
    </g>
    <path
       inkscape:connector-curvature="0"
       d="m 333.43809,444.69431 0,13.05 8.925,0 0,-13.05 -8.925,0 z"
       style="fill:#ffffff;fill-opacity:1;fill-rule:nonzero;stroke:none"
       id="path18930" />
    <text
       id="text18932"
       x="333.43747"
       y="455.11932"
       style="font-size:15px">
      <tspan
         style="font-size:10.80000019px;font-variant:normal;font-weight:normal;font-stretch:normal;writing-mode:lr-tb;fill:#000000;fill-opacity:1;fill-rule:nonzero;stroke:none;font-family:Arial;-inkscape-font-specification:ArialMT"
         x="333.43747"
         y="455.11932"
         id="tspan18934">M</tspan>
    </text>
    <path
       inkscape:connector-curvature="0"
       d="m 335.46309,455.04431 0,12.975 6.075,0 0,-12.975 -6.075,0 z"
       style="fill:#ffffff;fill-opacity:1;fill-rule:nonzero;stroke:none"
       id="path18936" />
    <text
       id="text18938"
       x="335.46246"
       y="465.39432"
       style="font-size:15px">
      <tspan
         style="font-size:10.80000019px;font-variant:normal;font-weight:normal;font-stretch:normal;writing-mode:lr-tb;fill:#000000;fill-opacity:1;fill-rule:nonzero;stroke:none;font-family:Arial;-inkscape-font-specification:ArialMT"
         x="335.46246"
         y="465.39432"
         id="tspan18940">u</tspan>
    </text>
    <path
       inkscape:connector-curvature="0"
       d="m 335.46309,465.84431 0,12.975 5.4,0 0,-12.975 -5.4,0 z"
       style="fill:#ffffff;fill-opacity:1;fill-rule:nonzero;stroke:none"
       id="path18942" />
    <text
       id="text18944"
       x="335.46246"
       y="476.19431"
       style="font-size:15px">
      <tspan
         style="font-size:10.80000019px;font-variant:normal;font-weight:normal;font-stretch:normal;writing-mode:lr-tb;fill:#000000;fill-opacity:1;fill-rule:nonzero;stroke:none;font-family:Arial;-inkscape-font-specification:ArialMT"
         x="335.46246"
         y="476.19431"
         id="tspan18946">x</tspan>
    </text>
    <g
       id="g18948"
       transform="matrix(0,1.25,1.25,0,328.18809,475.06931)">
      <path
         inkscape:connector-curvature="0"
         d="M 0,0 0.42,-18.36 2.04,-18.3 1.62,0"
         style="fill:#ff3300;fill-opacity:1;fill-rule:nonzero;stroke:none"
         id="path18950" />
    </g>
    <g
       id="g18952"
       transform="matrix(0,1.25,1.25,0,329.01309,398.19431)">
      <path
         inkscape:connector-curvature="0"
         d="m 0,0 0,-18.3 -0.84,0.78 205.5,0 0,-1.62 -205.5,0 c -0.42,0 -0.78,0.36 -0.78,0.84 l 0,18.3"
         style="fill:#ff3300;fill-opacity:1;fill-rule:nonzero;stroke:none"
         id="path18954" />
    </g>
    <g
       id="g18956"
       transform="matrix(0,1.25,1.25,0,325.18809,395.11931)">
      <path
         inkscape:connector-curvature="0"
         d="M 0,0 4.32,0.24 2.04,4.14 0,0.24 0,0"
         style="fill:#ff3300;fill-opacity:1;fill-rule:evenodd;stroke:none"
         id="path18958" />
    </g>
    <g
       id="g18960"
       transform="matrix(0,1.25,1.25,0,322.63809,472.89431)">
      <path
         inkscape:connector-curvature="0"
         d="M 0,0 4.32,0.24 2.04,4.2 0,0.24 0,0"
         style="fill:#ff3300;fill-opacity:1;fill-rule:evenodd;stroke:none"
         id="path18962" />
    </g>
    <g
       id="g18964"
       transform="matrix(0,1.25,1.25,0,305.61309,479.79431)">
      <path
         inkscape:connector-curvature="0"
         d="m 0,0 0,1.08 -0.24,0.24 0,0.3 -0.42,0 0,0.42 -0.3,0 -0.36,0.24 -1.26,0 -0.36,-0.24 -0.3,0 L -3.66,1.62 -3.9,1.32 -3.9,0.66 -4.32,0.42 -3.9,0 l 0,-0.54 0.24,-0.42 0,-0.24 0.42,0 0.3,-0.42 1.98,0 0.3,0.42 0.42,0.24 0,0.42 L 0,-0.3 0,0.42 0,0"
         style="fill:#ff3300;fill-opacity:1;fill-rule:evenodd;stroke:none"
         id="path18966" />
    </g>
    <g
       id="g18968"
       transform="matrix(0,1.25,1.25,0,304.78809,656.19431)">
      <path
         inkscape:connector-curvature="0"
         d="m 0,0 0,1.08 -0.24,0.24 0,0.3 -0.42,0 0,0.36 -0.3,0 -0.36,0.3 -1.26,0 -0.36,-0.3 -0.3,0 -0.42,-0.36 -0.24,-0.3 0,-0.66 -0.42,-0.3 0.42,-0.36 0,-0.54 0.24,-0.42 0,-0.3 0.42,0 0.3,-0.36 1.98,0 0.3,0.36 0.42,0.3 0,0.42 L 0,-0.3 0,0.36 0,0"
         style="fill:#ff3300;fill-opacity:1;fill-rule:evenodd;stroke:none"
         id="path18970" />
    </g>
    <path
       inkscape:connector-curvature="0"
       d="m 461.76309,429.24431 0,24.225 1.35,0 0,-24.225 -1.35,0 z"
       style="fill:#ff3300;fill-opacity:1;fill-rule:nonzero;stroke:none"
       id="path18972" />
    <g
       id="g18974"
       transform="matrix(0,1.25,1.25,0,335.61309,425.34431)">
      <path
         inkscape:connector-curvature="0"
         d="M 0,0 0,4.2 -4.32,2.28 0,0.42 0,0"
         style="fill:#eb7500;fill-opacity:1;fill-rule:evenodd;stroke:none"
         id="path18976" />
    </g>
    <g
       id="g18978"
       transform="matrix(0,1.25,1.25,0,335.61309,496.51931)">
      <path
         inkscape:connector-curvature="0"
         d="M 0,0 0,4.2 -4.32,2.28 0,0.42 0,0"
         style="fill:#eb7500;fill-opacity:1;fill-rule:evenodd;stroke:none"
         id="path18980" />
    </g>
    <path
       inkscape:connector-curvature="0"
       d="m 345.06309,630.76931 0,1.35 154.5,0 0,-1.35 -154.5,0 z"
       style="fill:#ff3300;fill-opacity:1;fill-rule:nonzero;stroke:none"
       id="path18982" />
    <text
       id="text18984"
       x="552.28748"
       y="638.94434"
       style="font-size:15px">
      <tspan
         style="font-size:13.5px;font-variant:normal;font-weight:bold;font-stretch:normal;writing-mode:lr-tb;fill:#ff3300;fill-opacity:1;fill-rule:nonzero;stroke:none;font-family:Arial;-inkscape-font-specification:Arial-BoldMT"
         x="552.28748 561.29059 570.29376 574.04541 583.04858 591.97339 595.50098 603.74811 611.25275 615.74689"
         y="638.94434"
         sodipodi:role="line"
         id="tspan18986">EX/EX path</tspan>
      <tspan
         style="font-size:13.5px;font-variant:normal;font-weight:bold;font-stretch:normal;writing-mode:lr-tb;fill:#ff3300;fill-opacity:1;fill-rule:nonzero;stroke:none;font-family:Arial;-inkscape-font-specification:Arial-BoldMT"
         x="336.96246 348.20798 357.21246 368.45795 372.21097 381.21545 390.21994 393.82175 402.07025 409.57626 414.07175"
         y="647.04431"
         sodipodi:role="line"
         id="tspan18988">MEM/EX path</tspan>
      <tspan
         style="font-size:13.5px;font-variant:normal;font-weight:bold;font-stretch:normal;writing-mode:lr-tb;fill:#ff3300;fill-opacity:1;fill-rule:nonzero;stroke:none;font-family:Arial;-inkscape-font-specification:Arial-BoldMT"
         x="223.63805 234.8849 243.89076 255.1376 258.89197 262.6463 272.39465 276.07205 284.3219 291.82925 296.32611"
         y="614.64429"
         sodipodi:role="line"
         id="tspan18990">MEM/ID path</tspan>
      <tspan
         style="font-size:13.5px;font-variant:normal;font-weight:bold;font-stretch:normal;writing-mode:lr-tb;fill:#000000;fill-opacity:1;fill-rule:nonzero;stroke:none;font-family:Arial;-inkscape-font-specification:Arial-BoldMT"
         x="181.41275 194.15944 203.90916 207.7364 215.98759 223.49629 227.99451"
         y="468.76871"
         sodipodi:role="line"
         id="tspan18992">WB path</tspan>
    </text>
  </g>
</svg>
