<?xml version="1.0" encoding="UTF-8" standalone="no"?>
<!-- Created with Inkscape (http://www.inkscape.org/) -->

<svg
   xmlns:dc="http://purl.org/dc/elements/1.1/"
   xmlns:cc="http://creativecommons.org/ns#"
   xmlns:rdf="http://www.w3.org/1999/02/22-rdf-syntax-ns#"
   xmlns:svg="http://www.w3.org/2000/svg"
   xmlns="http://www.w3.org/2000/svg"
   xmlns:sodipodi="http://sodipodi.sourceforge.net/DTD/sodipodi-0.dtd"
   xmlns:inkscape="http://www.inkscape.org/namespaces/inkscape"
   width="991.05682"
   height="283.79819"
   id="svg11619"
   version="1.1"
   inkscape:version="0.48.4 r9939"
   sodipodi:docname="New document 17">
  <defs
     id="defs11621">
    <clipPath
       id="clipPath11647"
       clipPathUnits="userSpaceOnUse">
      <path
         id="path11649"
         d="m 0,841.98 595.2,0 L 595.2,0 0,0 0,841.98 z"
         inkscape:connector-curvature="0" />
    </clipPath>
    <clipPath
       id="clipPath11641"
       clipPathUnits="userSpaceOnUse">
      <path
         id="path11643"
         clip-rule="evenodd"
         d="m 588.84,0.11053 -582.84,0 0,841.86 582.84,0 0,-841.86 z"
         inkscape:connector-curvature="0" />
    </clipPath>
  </defs>
  <sodipodi:namedview
     id="base"
     pagecolor="#ffffff"
     bordercolor="#666666"
     borderopacity="1.0"
     inkscape:pageopacity="0.0"
     inkscape:pageshadow="2"
     inkscape:zoom="0.49497475"
     inkscape:cx="420.63006"
     inkscape:cy="343.55646"
     inkscape:document-units="px"
     inkscape:current-layer="layer1"
     showgrid="false"
     fit-margin-top="10"
     fit-margin-left="10"
     fit-margin-right="10"
     fit-margin-bottom="10"
     inkscape:window-width="954"
     inkscape:window-height="1028"
     inkscape:window-x="0"
     inkscape:window-y="0"
     inkscape:window-maximized="0" />
  <metadata
     id="metadata11624">
    <rdf:RDF>
      <cc:Work
         rdf:about="">
        <dc:format>image/svg+xml</dc:format>
        <dc:type
           rdf:resource="http://purl.org/dc/dcmitype/StillImage" />
        <dc:title></dc:title>
      </cc:Work>
    </rdf:RDF>
  </metadata>
  <g
     inkscape:label="Layer 1"
     inkscape:groupmode="layer"
     id="layer1"
     transform="translate(91.786617,-449.1694)">
    <path
       inkscape:connector-curvature="0"
       d="m 116.17023,492.45504 0,39.975 64.425,0 0,-39.975 -64.425,0 z"
       style="fill:#99ffcc;fill-opacity:1;fill-rule:nonzero;stroke:none"
       id="path11703" />
    <path
       inkscape:connector-curvature="0"
       d="m 115.72023,532.95504 0,-40.95 65.4,0 0,40.95 -65.4,0 z m 0,-40.95 z m 0.975,40.425 -0.525,-0.525 64.425,0 -0.45,0.525 0,-39.975 0.45,0.525 -64.425,0 0.525,-0.525"
       style="fill:#000000;fill-opacity:1;fill-rule:nonzero;stroke:none"
       id="path11705" />
    <text
       id="text11707"
       x="137.6196"
       y="520.95502"
       style="font-size:15px">
      <tspan
         style="font-size:24.30000114px;font-variant:normal;font-weight:bold;font-stretch:normal;writing-mode:lr-tb;fill:#000000;fill-opacity:1;fill-rule:nonzero;stroke:none;font-family:Arial;-inkscape-font-specification:Arial-BoldMT"
         x="137.6196 144.37257"
         y="520.95502"
         sodipodi:role="line"
         id="tspan11709">IF</tspan>
    </text>
    <path
       inkscape:connector-curvature="0"
       d="m 180.44523,492.45504 0,39.975 64.275,0 0,-39.975 -64.275,0 z"
       style="fill:#99ffcc;fill-opacity:1;fill-rule:nonzero;stroke:none"
       id="path11711" />
    <path
       inkscape:connector-curvature="0"
       d="m 179.92023,532.95504 0,-40.95 65.325,0 0,40.95 -65.325,0 z m 0,-40.95 z m 1.05,40.425 -0.525,-0.525 64.275,0 -0.525,0.525 0,-39.975 0.525,0.525 -64.275,0 0.525,-0.525"
       style="fill:#000000;fill-opacity:1;fill-rule:nonzero;stroke:none"
       id="path11713" />
    <text
       id="text11715"
       x="200.4696"
       y="520.95502"
       style="font-size:15px">
      <tspan
         style="font-size:24.30000114px;font-variant:normal;font-weight:bold;font-stretch:normal;writing-mode:lr-tb;fill:#000000;fill-opacity:1;fill-rule:nonzero;stroke:none;font-family:Arial;-inkscape-font-specification:Arial-BoldMT"
         x="200.4696 207.22256"
         y="520.95502"
         sodipodi:role="line"
         id="tspan11717">ID</tspan>
    </text>
    <path
       inkscape:connector-curvature="0"
       d="m 244.87023,492.45504 0,39.975 64.275,0 0,-39.975 -64.275,0 z"
       style="fill:#99ffcc;fill-opacity:1;fill-rule:nonzero;stroke:none"
       id="path11719" />
    <path
       inkscape:connector-curvature="0"
       d="m 244.34523,532.95504 0,-40.95 65.325,0 0,40.95 -65.325,0 z m 0,-40.95 z m 1.05,40.425 -0.525,-0.525 64.275,0 -0.525,0.525 0,-39.975 0.525,0.525 -64.275,0 0.525,-0.525"
       style="fill:#000000;fill-opacity:1;fill-rule:nonzero;stroke:none"
       id="path11721" />
    <text
       id="text11723"
       x="260.8446"
       y="520.95502"
       style="font-size:15px">
      <tspan
         style="font-size:24.30000114px;font-variant:normal;font-weight:bold;font-stretch:normal;writing-mode:lr-tb;fill:#000000;fill-opacity:1;fill-rule:nonzero;stroke:none;font-family:Arial;-inkscape-font-specification:Arial-BoldMT"
         x="260.8446 277.04541"
         y="520.95502"
         sodipodi:role="line"
         id="tspan11725">EX</tspan>
    </text>
    <path
       inkscape:connector-curvature="0"
       d="m 309.14523,492.45504 0,39.975 64.425,0 0,-39.975 -64.425,0 z"
       style="fill:#99ffcc;fill-opacity:1;fill-rule:nonzero;stroke:none"
       id="path11727" />
    <path
       inkscape:connector-curvature="0"
       d="m 308.62023,532.95504 0,-40.95 65.475,0 0,40.95 -65.475,0 z m 0,-40.95 z m 1.05,40.425 -0.525,-0.525 64.425,0 -0.525,0.525 0,-39.975 0.525,0.525 -64.425,0 0.525,-0.525"
       style="fill:#000000;fill-opacity:1;fill-rule:nonzero;stroke:none"
       id="path11729" />
    <text
       id="text11731"
       x="323.16962"
       y="520.95502"
       style="font-size:15px">
      <tspan
         style="font-size:24.30000114px;font-variant:normal;font-weight:bold;font-stretch:normal;writing-mode:lr-tb;fill:#000000;fill-opacity:1;fill-rule:nonzero;stroke:none;font-family:Arial;-inkscape-font-specification:Arial-BoldMT"
         x="323.16962 343.41879"
         y="520.95502"
         sodipodi:role="line"
         id="tspan11733">ME</tspan>
    </text>
    <path
       inkscape:connector-curvature="0"
       d="m 373.57023,492.45504 0,39.975 64.275,0 0,-39.975 -64.275,0 z"
       style="fill:#99ffcc;fill-opacity:1;fill-rule:nonzero;stroke:none"
       id="path11735" />
    <path
       inkscape:connector-curvature="0"
       d="m 373.04523,532.95504 0,-40.95 65.25,0 0,40.95 -65.25,0 z m 0,-40.95 z m 1.05,40.425 -0.525,-0.525 64.275,0 -0.525,0.525 0,-39.975 0.525,0.525 -64.275,0 0.525,-0.525"
       style="fill:#000000;fill-opacity:1;fill-rule:nonzero;stroke:none"
       id="path11737" />
    <text
       id="text11739"
       x="385.41962"
       y="520.95502"
       style="font-size:15px">
      <tspan
         style="font-size:24.30000114px;font-variant:normal;font-weight:bold;font-stretch:normal;writing-mode:lr-tb;fill:#000000;fill-opacity:1;fill-rule:nonzero;stroke:none;font-family:Arial;-inkscape-font-specification:Arial-BoldMT"
         x="385.41962 408.37338"
         y="520.95502"
         sodipodi:role="line"
         id="tspan11741">WB</tspan>
    </text>
    <path
       inkscape:connector-curvature="0"
       d="m 180.44523,534.45504 0,39.975 64.125,0 0,-39.975 -64.125,0 z"
       style="fill:#99ffcc;fill-opacity:1;fill-rule:nonzero;stroke:none"
       id="path11743" />
    <path
       inkscape:connector-curvature="0"
       d="m 179.92023,574.95504 0,-41.025 65.1,0 0,41.025 -65.1,0 z m 0,-41.025 z m 1.05,40.5 -0.525,-0.525 64.125,0 -0.525,0.525 0,-39.975 0.525,0.525 -64.125,0 0.525,-0.525"
       style="fill:#000000;fill-opacity:1;fill-rule:nonzero;stroke:none"
       id="path11745" />
    <text
       id="text11747"
       x="201.7446"
       y="562.95502"
       style="font-size:15px">
      <tspan
         style="font-size:24.30000114px;font-variant:normal;font-weight:bold;font-stretch:normal;writing-mode:lr-tb;fill:#000000;fill-opacity:1;fill-rule:nonzero;stroke:none;font-family:Arial;-inkscape-font-specification:Arial-BoldMT"
         x="201.7446 208.49757"
         y="562.95502"
         sodipodi:role="line"
         id="tspan11749">IF</tspan>
    </text>
    <path
       inkscape:connector-curvature="0"
       d="m 436.79523,536.48004 0,39.975 64.2,0 0,-39.975 -64.2,0 z"
       style="fill:#99ffcc;fill-opacity:1;fill-rule:nonzero;stroke:none"
       id="path11751" />
    <path
       inkscape:connector-curvature="0"
       d="m 436.27023,576.98004 0,-41.025 65.25,0 0,41.025 -65.25,0 z m 0,-41.025 z m 1.05,40.5 -0.525,-0.525 64.2,0 -0.45125,0.525 0,-39.975 0.45125,0.525 -64.2,0 0.525,-0.525"
       style="fill:#000000;fill-opacity:1;fill-rule:nonzero;stroke:none"
       id="path11753" />
    <text
       id="text11755"
       x="456.7446"
       y="564.98004"
       style="font-size:15px">
      <tspan
         style="font-size:24.30000114px;font-variant:normal;font-weight:bold;font-stretch:normal;writing-mode:lr-tb;fill:#000000;fill-opacity:1;fill-rule:nonzero;stroke:none;font-family:Arial;-inkscape-font-specification:Arial-BoldMT"
         x="456.7446 463.49756"
         y="564.98004"
         sodipodi:role="line"
         id="tspan11757">ID</tspan>
    </text>
    <path
       inkscape:connector-curvature="0"
       d="m 500.99523,536.48004 0,39.975 64.425,0 0,-39.975 -64.425,0 z"
       style="fill:#99ffcc;fill-opacity:1;fill-rule:nonzero;stroke:none"
       id="path11759" />
    <path
       inkscape:connector-curvature="0"
       d="m 500.54398,576.98004 0,-41.025 65.325,0 0,41.025 -65.325,0 z m 0,-41.025 z m 0.97625,40.5 -0.525,-0.525 64.425,0 -0.525,0.525 0,-39.975 0.525,0.525 -64.425,0 0.525,-0.525"
       style="fill:#000000;fill-opacity:1;fill-rule:nonzero;stroke:none"
       id="path11761" />
    <text
       id="text11763"
       x="517.04462"
       y="564.98004"
       style="font-size:15px">
      <tspan
         style="font-size:24.30000114px;font-variant:normal;font-weight:bold;font-stretch:normal;writing-mode:lr-tb;fill:#000000;fill-opacity:1;fill-rule:nonzero;stroke:none;font-family:Arial;-inkscape-font-specification:Arial-BoldMT"
         x="517.04462 533.24542"
         y="564.98004"
         sodipodi:role="line"
         id="tspan11765">EX</tspan>
    </text>
    <path
       inkscape:connector-curvature="0"
       d="m 565.42023,536.48004 0,39.975 64.05,0 0,-39.975 -64.05,0 z"
       style="fill:#99ffcc;fill-opacity:1;fill-rule:nonzero;stroke:none"
       id="path11767" />
    <path
       inkscape:connector-curvature="0"
       d="m 564.89523,576.98004 0,-41.025 65.1,0 0,41.025 -65.1,0 z m 0,-41.025 z m 0.975,40.5 -0.45,-0.525 64.05,0 -0.525,0.525 0,-39.975 0.525,0.525 -64.05,0 0.45,-0.525"
       style="fill:#000000;fill-opacity:1;fill-rule:nonzero;stroke:none"
       id="path11769" />
    <text
       id="text11771"
       x="579.2196"
       y="564.98004"
       style="font-size:15px">
      <tspan
         style="font-size:24.30000114px;font-variant:normal;font-weight:bold;font-stretch:normal;writing-mode:lr-tb;fill:#000000;fill-opacity:1;fill-rule:nonzero;stroke:none;font-family:Arial;-inkscape-font-specification:Arial-BoldMT"
         x="579.2196 599.46881"
         y="564.98004"
         sodipodi:role="line"
         id="tspan11773">ME</tspan>
    </text>
    <path
       inkscape:connector-curvature="0"
       d="m 629.47023,536.48004 0,39.975 64.5,0 0,-39.975 -64.5,0 z"
       style="fill:#99ffcc;fill-opacity:1;fill-rule:nonzero;stroke:none"
       id="path11775" />
    <path
       inkscape:connector-curvature="0"
       d="m 628.94523,576.98004 0,-41.025 65.55,0 0,41.025 -65.55,0 z m 0,-41.025 z m 1.04875,40.5 -0.52375,-0.525 64.5,0 -0.52625,0.525 0,-39.975 0.52625,0.525 -64.5,0 0.52375,-0.525"
       style="fill:#000000;fill-opacity:1;fill-rule:nonzero;stroke:none"
       id="path11777" />
    <text
       id="text11779"
       x="641.4696"
       y="564.98004"
       style="font-size:15px">
      <tspan
         style="font-size:24.30000114px;font-variant:normal;font-weight:bold;font-stretch:normal;writing-mode:lr-tb;fill:#000000;fill-opacity:1;fill-rule:nonzero;stroke:none;font-family:Arial;-inkscape-font-specification:Arial-BoldMT"
         x="641.4696 664.4234"
         y="564.98004"
         sodipodi:role="line"
         id="tspan11781">WB</tspan>
    </text>
    <path
       inkscape:connector-curvature="0"
       d="m 438.67023,579.49489 0,39.975 64.275,0 0,-39.975 -64.275,0 z"
       style="fill:#99ffcc;fill-opacity:1;fill-rule:nonzero;stroke:none"
       id="path11783" />
    <path
       inkscape:connector-curvature="0"
       d="m 438.14523,619.99489 0,-41.025 65.25,0 0,41.025 -65.25,0 z m 0,-41.025 z m 1.05,40.5 -0.525,-0.525 64.275,0 -0.52625,0.525 0,-39.975 0.52625,0.525 -64.275,0 0.525,-0.525"
       style="fill:#000000;fill-opacity:1;fill-rule:nonzero;stroke:none"
       id="path11785" />
    <text
       id="text11787"
       x="459.9696"
       y="607.99493"
       style="font-size:15px">
      <tspan
         style="font-size:24.30000114px;font-variant:normal;font-weight:bold;font-stretch:normal;writing-mode:lr-tb;fill:#000000;fill-opacity:1;fill-rule:nonzero;stroke:none;font-family:Arial;-inkscape-font-specification:Arial-BoldMT"
         x="459.9696 466.72256"
         y="607.99493"
         sodipodi:role="line"
         id="tspan11789">IF</tspan>
    </text>
    <path
       inkscape:connector-curvature="0"
       d="m 502.94523,579.49489 0,39.975 64.35,0 0,-39.975 -64.35,0 z"
       style="fill:#99ffcc;fill-opacity:1;fill-rule:nonzero;stroke:none"
       id="path11791" />
    <path
       inkscape:connector-curvature="0"
       d="m 502.41898,619.99489 0,-41.025 65.4,0 0,41.025 -65.4,0 z m 0,-41.025 z m 0.97625,40.5 -0.45,-0.525 64.35,0 -0.45125,0.525 0,-39.975 0.45125,0.525 -64.35,0 0.45,-0.525"
       style="fill:#000000;fill-opacity:1;fill-rule:nonzero;stroke:none"
       id="path11793" />
    <text
       id="text11795"
       x="522.9696"
       y="607.99493"
       style="font-size:15px">
      <tspan
         style="font-size:24.30000114px;font-variant:normal;font-weight:bold;font-stretch:normal;writing-mode:lr-tb;fill:#000000;fill-opacity:1;fill-rule:nonzero;stroke:none;font-family:Arial;-inkscape-font-specification:Arial-BoldMT"
         x="522.9696 529.7226"
         y="607.99493"
         sodipodi:role="line"
         id="tspan11797">ID</tspan>
    </text>
    <path
       inkscape:connector-curvature="0"
       d="m 567.29523,579.49489 0,39.975 64.275,0 0,-39.975 -64.275,0 z"
       style="fill:#99ffcc;fill-opacity:1;fill-rule:nonzero;stroke:none"
       id="path11799" />
    <path
       inkscape:connector-curvature="0"
       d="m 566.84398,619.99489 0,-41.025 65.25,0 0,41.025 -65.25,0 z m 0,-41.025 z m 0.975,40.5 -0.52375,-0.525 64.27375,0 -0.52375,0.525 0,-39.975 0.52375,0.525 -64.27375,0 0.52375,-0.525"
       style="fill:#000000;fill-opacity:1;fill-rule:nonzero;stroke:none"
       id="path11801" />
    <text
       id="text11803"
       x="583.26959"
       y="607.99493"
       style="font-size:15px">
      <tspan
         style="font-size:24.30000114px;font-variant:normal;font-weight:bold;font-stretch:normal;writing-mode:lr-tb;fill:#000000;fill-opacity:1;fill-rule:nonzero;stroke:none;font-family:Arial;-inkscape-font-specification:Arial-BoldMT"
         x="583.26959 599.4704"
         y="607.99493"
         sodipodi:role="line"
         id="tspan11805">EX</tspan>
    </text>
    <path
       inkscape:connector-curvature="0"
       d="m 631.56898,579.49489 0,39.975 64.125,0 0,-39.975 -64.125,0 z"
       style="fill:#99ffcc;fill-opacity:1;fill-rule:nonzero;stroke:none"
       id="path11807" />
    <path
       inkscape:connector-curvature="0"
       d="m 631.04523,619.99489 0,-41.025 65.1,0 0,41.025 -65.1,0 z m 0,-41.025 z m 1.05,40.5 -0.52625,-0.525 64.125,0 -0.52375,0.525 0,-39.975 0.52375,0.525 -64.125,0 0.52625,-0.525"
       style="fill:#000000;fill-opacity:1;fill-rule:nonzero;stroke:none"
       id="path11809" />
    <text
       id="text11811"
       x="645.44458"
       y="607.99493"
       style="font-size:15px">
      <tspan
         style="font-size:24.30000114px;font-variant:normal;font-weight:bold;font-stretch:normal;writing-mode:lr-tb;fill:#000000;fill-opacity:1;fill-rule:nonzero;stroke:none;font-family:Arial;-inkscape-font-specification:Arial-BoldMT"
         x="645.44458 665.69379"
         y="607.99493"
         sodipodi:role="line"
         id="tspan11813">ME</tspan>
    </text>
    <path
       inkscape:connector-curvature="0"
       d="m 695.69398,579.49489 0,39.975 64.425,0 0,-39.975 -64.425,0 z"
       style="fill:#99ffcc;fill-opacity:1;fill-rule:nonzero;stroke:none"
       id="path11815" />
    <path
       inkscape:connector-curvature="0"
       d="m 695.17023,619.99489 0,-41.025 65.4,0 0,41.025 -65.4,0 z m 0,-41.025 z m 0.975,40.5 -0.45125,-0.525 64.425,0 -0.52375,0.525 0,-39.975 0.52375,0.525 -64.425,0 0.45125,-0.525"
       style="fill:#000000;fill-opacity:1;fill-rule:nonzero;stroke:none"
       id="path11817" />
    <text
       id="text11819"
       x="707.69458"
       y="607.99493"
       style="font-size:15px">
      <tspan
         style="font-size:24.30000114px;font-variant:normal;font-weight:bold;font-stretch:normal;writing-mode:lr-tb;fill:#000000;fill-opacity:1;fill-rule:nonzero;stroke:none;font-family:Arial;-inkscape-font-specification:Arial-BoldMT"
         x="707.69458 730.64838"
         y="607.99493"
         sodipodi:role="line"
         id="tspan11821">WB</tspan>
    </text>
    <path
       inkscape:connector-curvature="0"
       d="m 500.24523,621.98004 0,39.975 64.35,0 0,-39.975 -64.35,0 z"
       style="fill:#99ffcc;fill-opacity:1;fill-rule:nonzero;stroke:none"
       id="path11823" />
    <path
       inkscape:connector-curvature="0"
       d="m 499.72023,662.48004 0,-41.025 65.4,0 0,41.025 -65.4,0 z m 0,-41.025 z m 0.97375,40.5 -0.44875,-0.525 64.34875,0 -0.45,0.525 0,-39.975 0.45,0.525 -64.34875,0 0.44875,-0.525"
       style="fill:#000000;fill-opacity:1;fill-rule:nonzero;stroke:none"
       id="path11825" />
    <text
       id="text11827"
       x="521.61963"
       y="650.48004"
       style="font-size:15px">
      <tspan
         style="font-size:24.30000114px;font-variant:normal;font-weight:bold;font-stretch:normal;writing-mode:lr-tb;fill:#000000;fill-opacity:1;fill-rule:nonzero;stroke:none;font-family:Arial;-inkscape-font-specification:Arial-BoldMT"
         x="521.61963 528.37256"
         y="650.48004"
         sodipodi:role="line"
         id="tspan11829">IF</tspan>
    </text>
    <path
       inkscape:connector-curvature="0"
       d="m 564.59398,621.98004 0,39.975 64.275,0 0,-39.975 -64.275,0 z"
       style="fill:#99ffcc;fill-opacity:1;fill-rule:nonzero;stroke:none"
       id="path11831" />
    <path
       inkscape:connector-curvature="0"
       d="m 564.14398,662.48004 0,-41.025 65.25,0 0,41.025 -65.25,0 z m 0,-41.025 z m 0.97625,40.5 -0.52625,-0.525 64.27625,0 -0.525,0.525 0,-39.975 0.525,0.525 -64.27625,0 0.52625,-0.525"
       style="fill:#000000;fill-opacity:1;fill-rule:nonzero;stroke:none"
       id="path11833" />
    <text
       id="text11835"
       x="584.61963"
       y="650.48004"
       style="font-size:15px">
      <tspan
         style="font-size:24.30000114px;font-variant:normal;font-weight:bold;font-stretch:normal;writing-mode:lr-tb;fill:#000000;fill-opacity:1;fill-rule:nonzero;stroke:none;font-family:Arial;-inkscape-font-specification:Arial-BoldMT"
         x="584.61963 591.37256"
         y="650.48004"
         sodipodi:role="line"
         id="tspan11837">ID</tspan>
    </text>
    <path
       inkscape:connector-curvature="0"
       d="m 628.87023,621.98004 0,39.975 64.125,0 0,-39.975 -64.125,0 z"
       style="fill:#99ffcc;fill-opacity:1;fill-rule:nonzero;stroke:none"
       id="path11839" />
    <path
       inkscape:connector-curvature="0"
       d="m 628.34523,662.48004 0,-41.025 65.1,0 0,41.025 -65.1,0 z m 0,-41.025 z m 1.05,40.5 -0.525,-0.525 64.125,0 -0.525,0.525 0,-39.975 0.525,0.525 -64.125,0 0.525,-0.525"
       style="fill:#000000;fill-opacity:1;fill-rule:nonzero;stroke:none"
       id="path11841" />
    <text
       id="text11843"
       x="644.76959"
       y="650.48004"
       style="font-size:15px">
      <tspan
         style="font-size:24.30000114px;font-variant:normal;font-weight:bold;font-stretch:normal;writing-mode:lr-tb;fill:#000000;fill-opacity:1;fill-rule:nonzero;stroke:none;font-family:Arial;-inkscape-font-specification:Arial-BoldMT"
         x="644.76959 660.9704"
         y="650.48004"
         sodipodi:role="line"
         id="tspan11845">EX</tspan>
    </text>
    <path
       inkscape:connector-curvature="0"
       d="m 692.99523,621.98004 0,39.975 64.425,0 0,-39.975 -64.425,0 z"
       style="fill:#99ffcc;fill-opacity:1;fill-rule:nonzero;stroke:none"
       id="path11847" />
    <path
       inkscape:connector-curvature="0"
       d="m 692.47023,662.48004 0,-41.025 65.4,0 0,41.025 -65.4,0 z m 0,-41.025 z m 0.97375,40.5 -0.44875,-0.525 64.425,0 -0.525,0.525 0,-39.975 0.525,0.525 -64.425,0 0.44875,-0.525"
       style="fill:#000000;fill-opacity:1;fill-rule:nonzero;stroke:none"
       id="path11849" />
    <text
       id="text11851"
       x="707.01959"
       y="650.48004"
       style="font-size:15px">
      <tspan
         style="font-size:24.30000114px;font-variant:normal;font-weight:bold;font-stretch:normal;writing-mode:lr-tb;fill:#000000;fill-opacity:1;fill-rule:nonzero;stroke:none;font-family:Arial;-inkscape-font-specification:Arial-BoldMT"
         x="707.01959 727.2688"
         y="650.48004"
         sodipodi:role="line"
         id="tspan11853">ME</tspan>
    </text>
    <path
       inkscape:connector-curvature="0"
       d="m 757.42023,621.98004 0,39.975 64.425,0 0,-39.975 -64.425,0 z"
       style="fill:#99ffcc;fill-opacity:1;fill-rule:nonzero;stroke:none"
       id="path11855" />
    <path
       inkscape:connector-curvature="0"
       d="m 756.89523,662.48004 0,-41.025 65.4,0 0,41.025 -65.4,0 z m 0,-41.025 z m 0.975,40.5 -0.45,-0.525 64.42375,0 -0.52375,0.525 0,-39.975 0.52375,0.525 -64.42375,0 0.45,-0.525"
       style="fill:#000000;fill-opacity:1;fill-rule:nonzero;stroke:none"
       id="path11857" />
    <text
       id="text11859"
       x="769.3446"
       y="650.48004"
       style="font-size:15px">
      <tspan
         style="font-size:24.30000114px;font-variant:normal;font-weight:bold;font-stretch:normal;writing-mode:lr-tb;fill:#000000;fill-opacity:1;fill-rule:nonzero;stroke:none;font-family:Arial;-inkscape-font-specification:Arial-BoldMT"
         x="769.3446 792.2984"
         y="650.48004"
         sodipodi:role="line"
         id="tspan11861">WB</tspan>
    </text>
    <path
       inkscape:connector-curvature="0"
       d="m 567.29523,664.35504 0,39.75 64.275,0 0,-39.75 -64.275,0 z"
       style="fill:#99ffcc;fill-opacity:1;fill-rule:nonzero;stroke:none"
       id="path11863" />
    <path
       inkscape:connector-curvature="0"
       d="m 566.84398,704.63004 0,-40.8 65.25,0 0,40.8 -65.25,0 z m 0,-40.8 z m 0.975,40.275 -0.52375,-0.525 64.27375,0 -0.52375,0.525 0,-39.75 0.52375,0.45 -64.27375,0 0.52375,-0.45"
       style="fill:#000000;fill-opacity:1;fill-rule:nonzero;stroke:none"
       id="path11865" />
    <text
       id="text11867"
       x="588.66962"
       y="692.78003"
       style="font-size:15px">
      <tspan
         style="font-size:24.30000114px;font-variant:normal;font-weight:bold;font-stretch:normal;writing-mode:lr-tb;fill:#000000;fill-opacity:1;fill-rule:nonzero;stroke:none;font-family:Arial;-inkscape-font-specification:Arial-BoldMT"
         x="588.66962 595.42261"
         y="692.78003"
         sodipodi:role="line"
         id="tspan11869">IF</tspan>
    </text>
    <path
       inkscape:connector-curvature="0"
       d="m 631.56898,664.35504 0,39.75 64.125,0 0,-39.75 -64.125,0 z"
       style="fill:#99ffcc;fill-opacity:1;fill-rule:nonzero;stroke:none"
       id="path11871" />
    <path
       inkscape:connector-curvature="0"
       d="m 631.04523,704.63004 0,-40.8 65.1,0 0,40.8 -65.1,0 z m 0,-40.8 z m 1.05,40.275 -0.52625,-0.525 64.125,0 -0.52375,0.525 0,-39.75 0.52375,0.45 -64.125,0 0.52625,-0.45"
       style="fill:#000000;fill-opacity:1;fill-rule:nonzero;stroke:none"
       id="path11873" />
    <text
       id="text11875"
       x="651.51959"
       y="692.78003"
       style="font-size:15px">
      <tspan
         style="font-size:24.30000114px;font-variant:normal;font-weight:bold;font-stretch:normal;writing-mode:lr-tb;fill:#000000;fill-opacity:1;fill-rule:nonzero;stroke:none;font-family:Arial;-inkscape-font-specification:Arial-BoldMT"
         x="651.51959 658.27258"
         y="692.78003"
         sodipodi:role="line"
         id="tspan11877">ID</tspan>
    </text>
    <path
       inkscape:connector-curvature="0"
       d="m 695.69398,664.35504 0,39.75 64.425,0 0,-39.75 -64.425,0 z"
       style="fill:#99ffcc;fill-opacity:1;fill-rule:nonzero;stroke:none"
       id="path11879" />
    <path
       inkscape:connector-curvature="0"
       d="m 695.17023,704.63004 0,-40.8 65.4,0 0,40.8 -65.4,0 z m 0,-40.8 z m 0.975,40.275 -0.45125,-0.525 64.425,0 -0.52375,0.525 0,-39.75 0.52375,0.45 -64.425,0 0.45125,-0.45"
       style="fill:#000000;fill-opacity:1;fill-rule:nonzero;stroke:none"
       id="path11881" />
    <text
       id="text11883"
       x="711.74463"
       y="692.78003"
       style="font-size:15px">
      <tspan
         style="font-size:24.30000114px;font-variant:normal;font-weight:bold;font-stretch:normal;writing-mode:lr-tb;fill:#000000;fill-opacity:1;fill-rule:nonzero;stroke:none;font-family:Arial;-inkscape-font-specification:Arial-BoldMT"
         x="711.74463 727.94543"
         y="692.78003"
         sodipodi:role="line"
         id="tspan11885">EX</tspan>
    </text>
    <path
       inkscape:connector-curvature="0"
       d="m 760.11898,664.35504 0,39.75 64.425,0 0,-39.75 -64.425,0 z"
       style="fill:#99ffcc;fill-opacity:1;fill-rule:nonzero;stroke:none"
       id="path11887" />
    <path
       inkscape:connector-curvature="0"
       d="m 759.59523,704.63004 0,-40.8 65.4,0 0,40.8 -65.4,0 z m 0,-40.8 z m 0.975,40.275 -0.45125,-0.525 64.42625,0 -0.525,0.525 0,-39.75 0.525,0.45 -64.42625,0 0.45125,-0.45"
       style="fill:#000000;fill-opacity:1;fill-rule:nonzero;stroke:none"
       id="path11889" />
    <text
       id="text11891"
       x="774.06958"
       y="692.78003"
       style="font-size:15px">
      <tspan
         style="font-size:24.30000114px;font-variant:normal;font-weight:bold;font-stretch:normal;writing-mode:lr-tb;fill:#000000;fill-opacity:1;fill-rule:nonzero;stroke:none;font-family:Arial;-inkscape-font-specification:Arial-BoldMT"
         x="774.06958 794.31879"
         y="692.78003"
         sodipodi:role="line"
         id="tspan11893">ME</tspan>
    </text>
    <path
       inkscape:connector-curvature="0"
       d="m 824.54523,664.35504 0,39.75 64.2,0 0,-39.75 -64.2,0 z"
       style="fill:#99ffcc;fill-opacity:1;fill-rule:nonzero;stroke:none"
       id="path11895" />
    <path
       inkscape:connector-curvature="0"
       d="m 824.02023,704.63004 0,-40.8 65.25,0 0,40.8 -65.25,0 z m 0,-40.8 z m 0.97375,40.275 -0.44875,-0.525 64.19875,0 -0.44875,0.525 0,-39.75 0.44875,0.45 -64.19875,0 0.44875,-0.45"
       style="fill:#000000;fill-opacity:1;fill-rule:nonzero;stroke:none"
       id="path11897" />
    <text
       id="text11899"
       x="836.39459"
       y="692.78003"
       style="font-size:15px">
      <tspan
         style="font-size:24.30000114px;font-variant:normal;font-weight:bold;font-stretch:normal;writing-mode:lr-tb;fill:#000000;fill-opacity:1;fill-rule:nonzero;stroke:none;font-family:Arial;-inkscape-font-specification:Arial-BoldMT"
         x="836.39459 859.34839"
         y="692.78003"
         sodipodi:role="line"
         id="tspan11901">WB</tspan>
    </text>
    <text
       id="text11903"
       x="-82.580269"
       y="512.33002"
       style="font-size:15px">
      <tspan
         style="font-size:18.89999962px;font-variant:normal;font-weight:bold;font-stretch:normal;writing-mode:lr-tb;fill:#000000;fill-opacity:1;fill-rule:nonzero;stroke:none;font-family:Courier New;-inkscape-font-specification:CourierNewPS-BoldMT"
         x="-82.580269 -71.278069 -59.975868 -48.673668 -26.065493 -14.763288 -3.4610884 7.8411112 19.145203 30.447397 41.749603 53.051796 64.355888 75.658096"
         y="512.33002"
         sodipodi:role="line"
         id="tspan11905">sub $2, $1, $3</tspan>
      <tspan
         style="font-size:18.89999962px;font-variant:normal;font-weight:bold;font-stretch:normal;writing-mode:lr-tb;fill:#000000;fill-opacity:1;fill-rule:nonzero;stroke:none;font-family:Courier New;-inkscape-font-specification:CourierNewPS-BoldMT"
         x="-82.580269 -71.278069 -59.975868 -48.673668 -37.375248 -26.07305 -14.77085 -3.4686511 7.8335485 19.131966 30.43417 41.736374 53.03857 64.336998 75.639191"
         y="570.67999"
         sodipodi:role="line"
         id="tspan11907">and $12, $2, $5</tspan>
      <tspan
         style="font-size:18.89999962px;font-variant:normal;font-weight:bold;font-stretch:normal;writing-mode:lr-tb;fill:#000000;fill-opacity:1;fill-rule:nonzero;stroke:none;font-family:Courier New;-inkscape-font-specification:CourierNewPS-BoldMT"
         x="-82.580269 -71.281853 -59.983429 -37.375248 -26.076832 -14.778408 -3.4799902 7.8184328 19.122515 30.420942 41.71936 53.01778 64.321869 75.620293"
         y="626.70526"
         sodipodi:role="line"
         id="tspan11909">or $13, $6, $2</tspan>
      <tspan
         style="font-size:18.89999962px;font-variant:normal;font-weight:bold;font-stretch:normal;writing-mode:lr-tb;fill:#000000;fill-opacity:1;fill-rule:nonzero;stroke:none;font-family:Courier New;-inkscape-font-specification:CourierNewPS-BoldMT"
         x="-82.580269 -71.278069 -59.975868 -48.673668 -37.375248 -26.07305 -14.77085 -3.4686511 7.8335485 19.131966 30.43417 41.736374 53.03857 64.336998 75.639191"
         y="671.40564"
         sodipodi:role="line"
         id="tspan11911">add $14, $2, $2</tspan>
      <tspan
         style="font-size:18.89999962px;font-variant:normal;font-weight:bold;font-stretch:normal;writing-mode:lr-tb;fill:#000000;fill-opacity:1;fill-rule:nonzero;stroke:none;font-family:Courier New;-inkscape-font-specification:CourierNewPS-BoldMT"
         x="-82.580269 -71.278069 -59.975868 -37.405491 -26.103291 -14.801091 -3.4988921 7.8033075 19.105511 30.407705 41.709911 53.012115 64.314308 75.616516"
         y="719.9314"
         sodipodi:role="line"
         id="tspan11913">sw $15,100($2)</tspan>
    </text>
    <g
       id="g11915"
       transform="matrix(0,1.25,1.25,0,245.02023,556.13004)">
      <path
         inkscape:connector-curvature="0"
         d="m 0,0 c -7.32,0 -13.26,11.1 -13.26,24.78 0,13.68 5.94,24.78 13.26,24.78 7.32,0 13.32,-11.1 13.32,-24.78 C 13.32,11.1 7.32,0 0,0"
         style="fill:#b2b2b2;fill-opacity:1;fill-rule:evenodd;stroke:none"
         id="path11917" />
    </g>
    <path
       inkscape:connector-curvature="0"
       d="m 261.37023,546.90504 0,19.35 28.05,0 0,-19.35 -28.05,0 z"
       style="fill:#b2b2b2;fill-opacity:1;fill-rule:nonzero;stroke:none"
       id="path11919" />
    <text
       id="text11921"
       x="261.3696"
       y="561.90503"
       style="font-size:15px">
      <tspan
         style="font-size:16.20000076px;font-variant:normal;font-weight:bold;font-stretch:normal;writing-mode:lr-tb;fill:#000000;fill-opacity:1;fill-rule:nonzero;stroke:none;font-family:Garamond;-inkscape-font-specification:Garamond-Bold"
         x="261.3696 268.12177 273.18912 280.94568 285.15445"
         y="561.90503"
         sodipodi:role="line"
         id="tspan11923">stall</tspan>
    </text>
    <g
       id="g11925"
       transform="matrix(0,1.25,1.25,0,308.32023,556.13004)">
      <path
         inkscape:connector-curvature="0"
         d="M 0,0 C -7.32,0 -13.26,11.04 -13.26,24.72 -13.26,38.4 -7.32,49.5 0,49.5 7.32,49.5 13.32,38.4 13.32,24.72 13.32,11.04 7.32,0 0,0"
         style="fill:#b2b2b2;fill-opacity:1;fill-rule:evenodd;stroke:none"
         id="path11927" />
    </g>
    <path
       inkscape:connector-curvature="0"
       d="m 324.59523,546.90504 0,19.35 27.9,0 0,-19.35 -27.9,0 z"
       style="fill:#b2b2b2;fill-opacity:1;fill-rule:nonzero;stroke:none"
       id="path11929" />
    <text
       id="text11931"
       x="324.5946"
       y="561.90503"
       style="font-size:15px">
      <tspan
         style="font-size:16.20000076px;font-variant:normal;font-weight:bold;font-stretch:normal;writing-mode:lr-tb;fill:#000000;fill-opacity:1;fill-rule:nonzero;stroke:none;font-family:Garamond;-inkscape-font-specification:Garamond-Bold"
         x="324.5946 331.34677 336.41412 344.17068 348.37943"
         y="561.90503"
         sodipodi:role="line"
         id="tspan11933">stall</tspan>
    </text>
    <g
       id="g11935"
       transform="matrix(0,1.25,1.25,0,371.69523,556.13004)">
      <path
         inkscape:connector-curvature="0"
         d="M 0,0 C -7.32,0 -13.26,11.1 -13.26,24.78 -13.26,38.46 -7.32,49.5 0,49.5 7.32,49.5 13.32,38.46 13.32,24.78 13.32,11.1 7.32,0 0,0"
         style="fill:#b2b2b2;fill-opacity:1;fill-rule:evenodd;stroke:none"
         id="path11937" />
    </g>
    <path
       inkscape:connector-curvature="0"
       d="m 388.12023,546.90504 0,19.35 27.975,0 0,-19.35 -27.975,0 z"
       style="fill:#b2b2b2;fill-opacity:1;fill-rule:nonzero;stroke:none"
       id="path11939" />
    <text
       id="text11941"
       x="388.19461"
       y="561.90503"
       style="font-size:15px">
      <tspan
         style="font-size:16.20000076px;font-variant:normal;font-weight:bold;font-stretch:normal;writing-mode:lr-tb;fill:#000000;fill-opacity:1;fill-rule:nonzero;stroke:none;font-family:Garamond;-inkscape-font-specification:Garamond-Bold"
         x="388.19461 394.94678 400.01413 407.77069 411.97946"
         y="561.90503"
         sodipodi:role="line"
         id="tspan11943">stall</tspan>
    </text>
    <text
       id="text11945"
       x="129.6696"
       y="477.45505"
       style="font-size:15px">
      <tspan
         style="font-size:27px;font-variant:normal;font-weight:bold;font-stretch:normal;writing-mode:lr-tb;fill:#0070c0;fill-opacity:1;fill-rule:nonzero;stroke:none;font-family:Times New Roman;-inkscape-font-specification:TimesNewRomanPS-BoldMT"
         x="129.6696 149.16631 190.8651 210.3618 251.91209 271.40878 320.9079 340.4046 382.10339 401.6001 443.15039 462.64709 512.14624 531.64288 573.34167 592.83838 642.1134 661.61011 710.96069 730.4574 743.96008 779.73511 799.23181 811.23059 840.9306 860.42725 873.92999"
         y="477.45505"
         sodipodi:role="line"
         id="tspan11947">C1C2C3C4C5C6C7C8C9C10C11C12</tspan>
    </text>
  </g>
</svg>
