<?xml version="1.0" encoding="UTF-8" standalone="no"?>
<!-- Created with Inkscape (http://www.inkscape.org/) -->

<svg
   xmlns:dc="http://purl.org/dc/elements/1.1/"
   xmlns:cc="http://creativecommons.org/ns#"
   xmlns:rdf="http://www.w3.org/1999/02/22-rdf-syntax-ns#"
   xmlns:svg="http://www.w3.org/2000/svg"
   xmlns="http://www.w3.org/2000/svg"
   xmlns:sodipodi="http://sodipodi.sourceforge.net/DTD/sodipodi-0.dtd"
   xmlns:inkscape="http://www.inkscape.org/namespaces/inkscape"
   width="935.21429"
   height="344.6875"
   id="svg2"
   version="1.1"
   inkscape:version="0.48.4 r9939"
   sodipodi:docname="New document 1">
  <defs
     id="defs4">
    <clipPath
       id="clipPath3173"
       clipPathUnits="userSpaceOnUse">
      <path
         id="path3175"
         d="m 200.28,276.291 41.34,0 0,93.42 -41.34,0 0,-93.42 z"
         inkscape:connector-curvature="0" />
    </clipPath>
    <clipPath
       id="clipPath3081"
       clipPathUnits="userSpaceOnUse">
      <path
         id="path3083"
         d="m 254.94,167.211 13.38,0 0,44.76 -13.38,0 0,-44.76 z"
         inkscape:connector-curvature="0" />
    </clipPath>
    <clipPath
       id="clipPath3005"
       clipPathUnits="userSpaceOnUse">
      <path
         id="path3007"
         d="m 0,841.98 595.2,0 L 595.2,0 0,0 0,841.98 z"
         inkscape:connector-curvature="0" />
    </clipPath>
    <clipPath
       id="clipPath2999"
       clipPathUnits="userSpaceOnUse">
      <path
         id="path3001"
         clip-rule="evenodd"
         d="m 588.84,0.11053 -582.84,0 0,841.86 582.84,0 0,-841.86 z"
         inkscape:connector-curvature="0" />
    </clipPath>
  </defs>
  <sodipodi:namedview
     id="base"
     pagecolor="#ffffff"
     bordercolor="#666666"
     borderopacity="1.0"
     inkscape:pageopacity="0.0"
     inkscape:pageshadow="2"
     inkscape:zoom="0.7"
     inkscape:cx="215.68322"
     inkscape:cy="417.7817"
     inkscape:document-units="px"
     inkscape:current-layer="layer1"
     showgrid="false"
     fit-margin-top="10"
     fit-margin-left="10"
     fit-margin-right="10"
     fit-margin-bottom="10"
     inkscape:window-width="954"
     inkscape:window-height="1028"
     inkscape:window-x="0"
     inkscape:window-y="0"
     inkscape:window-maximized="0" />
  <metadata
     id="metadata7">
    <rdf:RDF>
      <cc:Work
         rdf:about="">
        <dc:format>image/svg+xml</dc:format>
        <dc:type
           rdf:resource="http://purl.org/dc/dcmitype/StillImage" />
        <dc:title></dc:title>
      </cc:Work>
    </rdf:RDF>
  </metadata>
  <g
     inkscape:label="Layer 1"
     inkscape:groupmode="layer"
     id="layer1"
     transform="translate(24.073734,-400.93719)">
    <g
       id="g3035"
       transform="matrix(0,1.25,1.25,0,87.72738,495.83719)">
      <path
         inkscape:connector-curvature="0"
         d="m 0,0 0,-27.54 170.76,0 0,201.48 -188.1,0"
         style="fill:none;stroke:#000000;stroke-width:0.86000001;stroke-linecap:round;stroke-linejoin:round;stroke-miterlimit:10;stroke-opacity:1;stroke-dasharray:none"
         id="path3037" />
    </g>
    <g
       id="g3039"
       transform="matrix(0,1.25,1.25,0,87.57738,501.76219)">
      <path
         inkscape:connector-curvature="0"
         d="M 0,0 -4.68,13.56 -9.42,0"
         style="fill:#000000;fill-opacity:1;fill-rule:evenodd;stroke:none"
         id="path3041" />
    </g>
    <g
       id="g3043"
       transform="matrix(0,1.25,1.25,0,311.07738,474.46219)">
      <path
         inkscape:connector-curvature="0"
         d="M 0,0 -13.56,-4.74 0,-9.42"
         style="fill:#000000;fill-opacity:1;fill-rule:evenodd;stroke:none"
         id="path3045" />
    </g>
    <g
       id="g3047"
       transform="matrix(0,1.25,1.25,0,232.77738,709.36219)">
      <path
         inkscape:connector-curvature="0"
         d="m 0,0 c -11.4,0 -20.58,-14.58 -20.58,-32.52 0,-17.94 9.18,-32.46 20.58,-32.46 11.34,0 20.58,14.52 20.58,32.46 C 20.58,-14.58 11.34,0 0,0 z"
         style="fill:#ffffff;fill-opacity:1;fill-rule:evenodd;stroke:#000000;stroke-width:0.86000001;stroke-linecap:round;stroke-linejoin:round;stroke-miterlimit:10;stroke-opacity:1;stroke-dasharray:none"
         id="path3049" />
    </g>
    <text
       id="text3051"
       x="540.27673"
       y="539.63721"
       style="font-size:15px">
      <tspan
         style="font-size:15.00587463px;font-variant:normal;font-weight:normal;font-stretch:normal;writing-mode:lr-tb;fill:#000000;fill-opacity:1;fill-rule:nonzero;stroke:none;font-family:Arial;-inkscape-font-specification:ArialMT"
         x="540.27673 550.28265 561.11389 565.242 574.00244 578.13055 586.52789"
         y="539.63721"
         sodipodi:role="line"
         id="tspan3053">PC + 4</tspan>
      <tspan
         style="font-size:15.00587463px;font-variant:normal;font-weight:normal;font-stretch:normal;writing-mode:lr-tb;fill:#000000;fill-opacity:1;fill-rule:nonzero;stroke:none;font-family:Arial;-inkscape-font-specification:ArialMT"
         x="510.87726 515.87573 520.04883 525.0473 533.39209 545.84247 550.00806 554.18121 562.52594 566.6991 574.20355 582.54834 586.71393 595.05872 603.4035 606.73627 610.90942"
         y="556.88794"
         sodipodi:role="line"
         id="tspan3055">(from fetch unit)</tspan>
    </text>
    <text
       id="text3057"
       x="116.97676"
       y="633.53717"
       style="font-size:15px">
      <tspan
         style="font-size:15.00587463px;font-variant:normal;font-weight:normal;font-stretch:normal;writing-mode:lr-tb;fill:#000000;fill-opacity:1;fill-rule:nonzero;stroke:none;font-family:Arial;-inkscape-font-specification:ArialMT"
         x="116.97676 131.14081 136.13626 139.46606 143.6362 151.97797"
         y="633.53717"
         sodipodi:role="line"
         id="tspan3059">Write</tspan>
      <tspan
         style="font-size:15.00587463px;font-variant:normal;font-weight:normal;font-stretch:normal;writing-mode:lr-tb;fill:#000000;fill-opacity:1;fill-rule:nonzero;stroke:none;font-family:Arial;-inkscape-font-specification:ArialMT"
         x="118.55238 129.43314 137.82292 141.95103"
         y="650.78644"
         sodipodi:role="line"
         id="tspan3061">Data</tspan>
    </text>
    <g
       id="g3063"
       transform="matrix(0,1.25,1.25,0,339.27738,491.56219)">
      <path
         inkscape:connector-curvature="0"
         d="M 0,0 41.04,0 54.66,30.78 68.28,0 109.26,0 85.38,71.7 23.94,71.7 0,0 z"
         style="fill:none;stroke:#000000;stroke-width:0.574;stroke-linecap:round;stroke-linejoin:round;stroke-miterlimit:10;stroke-opacity:1;stroke-dasharray:none"
         id="path3065" />
    </g>
    <text
       id="text3067"
       x="106.47675"
       y="531.08722"
       style="font-size:15px">
      <tspan
         style="font-size:15.00587463px;font-variant:normal;font-weight:normal;font-stretch:normal;writing-mode:lr-tb;fill:#000000;fill-opacity:1;fill-rule:nonzero;stroke:none;font-family:Arial;-inkscape-font-specification:ArialMT"
         x="106.47675 117.28398 125.68127 133.99753 137.36934 144.84528 148.9899 157.38718 162.41264"
         y="531.08722"
         sodipodi:role="line"
         id="tspan3069">Register</tspan>
      <tspan
         style="font-size:15.00587463px;font-variant:normal;font-weight:normal;font-stretch:normal;writing-mode:lr-tb;fill:#000000;fill-opacity:1;fill-rule:nonzero;stroke:none;font-family:Arial;-inkscape-font-specification:ArialMT"
         x="110.22672 121.07446 129.43124 137.78801 146.14478 150.2729"
         y="548.33795"
         sodipodi:role="line"
         id="tspan3071">Read 2</tspan>
    </text>
    <text
       id="text3073"
       x="108.42676"
       y="492.68719"
       style="font-size:15px">
      <tspan
         style="font-size:15.00587463px;font-variant:normal;font-weight:normal;font-stretch:normal;writing-mode:lr-tb;fill:#000000;fill-opacity:1;fill-rule:nonzero;stroke:none;font-family:Arial;-inkscape-font-specification:ArialMT"
         x="108.42676 119.29102 127.66429 136.03757 139.39888 146.93184 151.05995"
         y="492.68719"
         sodipodi:role="line"
         id="tspan3075">Registe</tspan>
    </text>
    <g
       id="g3077"
       transform="matrix(0,1.25,1.25,0,-100.58637,160.58719)">
      <g
         id="g3079"
         clip-path="url(#clipPath3081)">
        <text
           transform="matrix(0,1,1,0,265.68,207.9505)"
           id="text3085">
          <tspan
             style="font-size:12.00469971px;font-variant:normal;font-weight:normal;font-stretch:normal;writing-mode:lr-tb;fill:#000000;fill-opacity:1;fill-rule:nonzero;stroke:none;font-family:Arial;-inkscape-font-specification:ArialMT"
             x="0"
             y="0"
             id="tspan3087">r</tspan>
        </text>
      </g>
    </g>
    <text
       id="text3089"
       x="116.00232"
       y="509.93793"
       style="font-size:15px">
      <tspan
         style="font-size:15.00587463px;font-variant:normal;font-weight:normal;font-stretch:normal;writing-mode:lr-tb;fill:#000000;fill-opacity:1;fill-rule:nonzero;stroke:none;font-family:Arial;-inkscape-font-specification:ArialMT"
         x="116.00232 126.80505 135.20233 143.51408 151.91138 156.03949"
         y="509.93793"
         sodipodi:role="line"
         id="tspan3091">Read 1</tspan>
      <tspan
         style="font-size:15.00587463px;font-variant:normal;font-weight:normal;font-stretch:normal;writing-mode:lr-tb;fill:#000000;fill-opacity:1;fill-rule:nonzero;stroke:none;font-family:Arial;-inkscape-font-specification:ArialMT"
         x="106.47659 117.28382 125.68111 133.99736 137.36919 144.84511 148.98973 157.38702 162.41249"
         y="595.06329"
         sodipodi:role="line"
         id="tspan3093">Register</tspan>
      <tspan
         style="font-size:15.00587463px;font-variant:normal;font-weight:normal;font-stretch:normal;writing-mode:lr-tb;fill:#000000;fill-opacity:1;fill-rule:nonzero;stroke:none;font-family:Arial;-inkscape-font-specification:ArialMT"
         x="118.55182 129.42357 134.45804 137.82686 141.95499"
         y="612.3125"
         sodipodi:role="line"
         id="tspan3095">write</tspan>
    </text>
    <text
       id="text3097"
       x="109.77676"
       y="723.16217"
       style="font-size:15px">
      <tspan
         style="font-size:15.00587463px;font-variant:normal;font-weight:normal;font-stretch:normal;writing-mode:lr-tb;fill:#000000;fill-opacity:1;fill-rule:nonzero;stroke:none;font-family:Arial;-inkscape-font-specification:ArialMT"
         x="109.77676 118.12153 126.46629 130.59441 138.93918 142.27199"
         y="723.16217"
         sodipodi:role="line"
         id="tspan3099">16 bit</tspan>
    </text>
    <text
       id="text3101"
       x="394.32675"
       y="539.63721"
       style="font-size:15px">
      <tspan
         style="font-size:15.00587463px;font-variant:normal;font-weight:normal;font-stretch:normal;writing-mode:lr-tb;fill:#000000;fill-opacity:1;fill-rule:nonzero;stroke:none;font-family:Arial;-inkscape-font-specification:ArialMT"
         x="394.32675 403.51935 411.88663 416.90759"
         y="539.63721"
         sodipodi:role="line"
         id="tspan3103">Zero</tspan>
      <tspan
         style="font-size:15.00587463px;font-variant:normal;font-weight:normal;font-stretch:normal;writing-mode:lr-tb;fill:#000000;fill-opacity:1;fill-rule:nonzero;stroke:none;font-family:Arial;-inkscape-font-specification:ArialMT"
         x="237.80196 246.18124 254.56053 258.68866 267.06793 270.36472"
         y="723.16205"
         sodipodi:role="line"
         id="tspan3105">32 bit</tspan>
      <tspan
         style="font-size:15.00587463px;font-variant:normal;font-weight:normal;font-stretch:normal;writing-mode:lr-tb;fill:#000000;fill-opacity:1;fill-rule:nonzero;stroke:none;font-family:Arial;-inkscape-font-specification:ArialMT"
         x="-15.473207 -11.315073 -3.8256395 0.33249494 5.3159389 13.645712 21.220671 25.378805 28.6966 37.093895"
         y="526.81165"
         sodipodi:role="line"
         id="tspan3107">Istruction</tspan>
    </text>
    <text
       id="text3109"
       x="370.02707"
       y="590.03638"
       style="font-size:15px">
      <tspan
         style="font-size:17.97125053px;font-variant:normal;font-weight:bold;font-stretch:normal;writing-mode:lr-tb;fill:#000000;fill-opacity:1;fill-rule:nonzero;stroke:none;font-family:Arial;-inkscape-font-specification:Arial-BoldMT"
         x="370.02707 382.94839 393.87491"
         y="590.03638"
         sodipodi:role="line"
         id="tspan3111">ALU</tspan>
      <tspan
         style="font-size:17.97125053px;font-variant:normal;font-weight:bold;font-stretch:normal;writing-mode:lr-tb;fill:#000000;fill-opacity:1;fill-rule:nonzero;stroke:none;font-family:Arial;-inkscape-font-specification:Arial-BoldMT"
         x="137.07654 150.06078 160.06177 171.05118 176.05618 186.05717 192.0506 202.05159 209.05141 214.07974 225.06917 230.07416 235.07916"
         y="572.93671"
         sodipodi:role="line"
         id="tspan3113">Register File</tspan>
    </text>
    <path
       inkscape:connector-curvature="0"
       d="m 283.92738,662.41219 0,-187.875 -179.4,0 0,187.875 179.4,0 z m 0,-187.875 z"
       style="fill:none;stroke:#000000;stroke-width:1.07500005;stroke-linecap:round;stroke-linejoin:miter;stroke-miterlimit:10;stroke-opacity:1;stroke-dasharray:none"
       id="path3115" />
    <g
       id="g3117"
       transform="matrix(0,1.25,1.25,0,14.90238,534.23719)">
      <path
         inkscape:connector-curvature="0"
         d="M 0,0 0.06,58.38"
         style="fill:none;stroke:#000000;stroke-width:0.86000001;stroke-linecap:round;stroke-linejoin:round;stroke-miterlimit:10;stroke-opacity:1;stroke-dasharray:none"
         id="path3119" />
    </g>
    <g
       id="g3121"
       transform="matrix(0,1.25,1.25,0,87.65238,540.23719)">
      <path
         inkscape:connector-curvature="0"
         d="M 0,0 -4.68,13.68 -9.42,0"
         style="fill:#000000;fill-opacity:1;fill-rule:evenodd;stroke:none"
         id="path3123" />
    </g>
    <text
       id="text3125"
       x="177.05176"
       y="706.06219"
       style="font-size:15px">
      <tspan
         style="font-size:15.00587463px;font-variant:normal;font-weight:normal;font-stretch:normal;writing-mode:lr-tb;fill:#000000;fill-opacity:1;fill-rule:nonzero;stroke:none;font-family:Arial;-inkscape-font-specification:ArialMT"
         x="177.05176 187.04868 190.36797 198.69923 207.0305"
         y="706.06219"
         sodipodi:role="line"
         id="tspan3127">Sign</tspan>
      <tspan
         style="font-size:15.00587463px;font-variant:normal;font-weight:normal;font-stretch:normal;writing-mode:lr-tb;fill:#000000;fill-opacity:1;fill-rule:nonzero;stroke:none;font-family:Arial;-inkscape-font-specification:ArialMT"
         x="159.12724 169.09865 176.56407 180.69818 189.09547 197.40123 204.9762 208.26997 216.57573"
         y="723.31293"
         sodipodi:role="line"
         id="tspan3129">Extension</tspan>
      <tspan
         style="font-size:15.00587463px;font-variant:normal;font-weight:normal;font-stretch:normal;writing-mode:lr-tb;fill:#000000;fill-opacity:1;fill-rule:nonzero;stroke:none;font-family:Arial;-inkscape-font-specification:ArialMT"
         x="221.30258 232.13983 240.4861 248.83237 253.007 261.35327 269.69952 273.87418"
         y="599.41241"
         sodipodi:role="line"
         id="tspan3131">Content</tspan>
      <tspan
         style="font-size:15.00587463px;font-variant:normal;font-weight:normal;font-stretch:normal;writing-mode:lr-tb;fill:#000000;fill-opacity:1;fill-rule:nonzero;stroke:none;font-family:Arial;-inkscape-font-specification:ArialMT"
         x="213.72762 218.74408 227.10686 235.46964 238.82045 246.3429 250.53403 255.55049 263.91327 268.92975 273.05786"
         y="616.66321"
         sodipodi:role="line"
         id="tspan3133">registrer 2</tspan>
      <tspan
         style="font-size:15.00587463px;font-variant:normal;font-weight:normal;font-stretch:normal;writing-mode:lr-tb;fill:#000000;fill-opacity:1;fill-rule:nonzero;stroke:none;font-family:Arial;-inkscape-font-specification:ArialMT"
         x="221.30258 232.13983 240.4861 248.83237 253.007 261.35327 269.69952 273.87418"
         y="514.06354"
         sodipodi:role="line"
         id="tspan3135">Content</tspan>
      <tspan
         style="font-size:15.00587463px;font-variant:normal;font-weight:normal;font-stretch:normal;writing-mode:lr-tb;fill:#000000;fill-opacity:1;fill-rule:nonzero;stroke:none;font-family:Arial;-inkscape-font-specification:ArialMT"
         x="216.27711 221.27557 229.62035 237.9651 241.29791 248.80235 252.97548 261.32025 266.3187 270.44681"
         y="531.31427"
         sodipodi:role="line"
         id="tspan3137">register 1</tspan>
    </text>
    <g
       id="g3139"
       transform="matrix(0,1.25,1.25,0,446.00238,512.63719)">
      <path
         inkscape:connector-curvature="0"
         d="m 0,0 17.28,0 0,-13.68"
         style="fill:none;stroke:#000000;stroke-width:0.86000001;stroke-linecap:round;stroke-linejoin:round;stroke-miterlimit:10;stroke-opacity:1;stroke-dasharray:none"
         id="path3141" />
    </g>
    <g
       id="g3143"
       transform="matrix(0,1.25,1.25,0,451.92738,512.93719)">
      <path
         inkscape:connector-curvature="0"
         d="M 0,0 -13.62,-4.74 0,-9.42"
         style="fill:#000000;fill-opacity:1;fill-rule:evenodd;stroke:none"
         id="path3145" />
    </g>
    <path
       inkscape:connector-curvature="0"
       d="m 300.87738,598.28719 0,8.625 8.625,0 0,-8.625 -8.625,0 z"
       style="fill:#ffffff;fill-opacity:1;fill-rule:nonzero;stroke:none"
       id="path3147" />
    <g
       id="g3149"
       transform="matrix(0,1.25,1.25,0,650.90113,559.81219)">
      <path
         inkscape:connector-curvature="0"
         d="M 0,0 -40.98,0 -54.54,30.66 -68.22,0 l -41.04,0 23.94,71.64 61.5,0 L 0,0 z"
         style="fill:none;stroke:#000000;stroke-width:0.574;stroke-linecap:round;stroke-linejoin:round;stroke-miterlimit:10;stroke-opacity:1;stroke-dasharray:none"
         id="path3151" />
    </g>
    <g
       id="g3153"
       transform="matrix(0,1.25,1.25,0,595.32613,534.23719)">
      <path
         inkscape:connector-curvature="0"
         d="M 0,0 0.06,31.08"
         style="fill:none;stroke:#000000;stroke-width:0.86000001;stroke-linecap:round;stroke-linejoin:round;stroke-miterlimit:10;stroke-opacity:1;stroke-dasharray:none"
         id="path3155" />
    </g>
    <g
       id="g3157"
       transform="matrix(0,1.25,1.25,0,634.02613,540.23719)">
      <path
         inkscape:connector-curvature="0"
         d="M 0,0 -4.68,13.62 -9.42,0"
         style="fill:#000000;fill-opacity:1;fill-rule:evenodd;stroke:none"
         id="path3159" />
    </g>
    <g
       id="g3161"
       transform="matrix(0,1.25,1.25,0,283.85238,602.48719)">
      <path
         inkscape:connector-curvature="0"
         d="M 0,0 0.12,30.96"
         style="fill:none;stroke:#000000;stroke-width:0.86000001;stroke-linecap:round;stroke-linejoin:round;stroke-miterlimit:10;stroke-opacity:1;stroke-dasharray:none"
         id="path3163" />
    </g>
    <g
       id="g3165"
       transform="matrix(0,1.25,1.25,0,322.40238,608.56219)">
      <path
         inkscape:connector-curvature="0"
         d="M 0,0 -4.68,13.62 -9.42,0"
         style="fill:#000000;fill-opacity:1;fill-rule:evenodd;stroke:none"
         id="path3167" />
    </g>
    <g
       id="g3169"
       transform="matrix(0,1.25,1.25,0,-100.58637,160.58719)">
      <g
         id="g3171"
         clip-path="url(#clipPath3173)">
        <g
           id="g3177"
           transform="translate(220.44,369.111)">
          <path
             inkscape:connector-curvature="0"
             d="m 0,0 c -11.34,0 -20.52,-20.7 -20.52,-46.14 0,-25.5 9.18,-46.14 20.52,-46.14 11.34,0 20.58,20.64 20.58,46.14 C 20.58,-20.7 11.34,0 0,0 z"
             style="fill:#ffffff;fill-opacity:1;fill-rule:evenodd;stroke:#000000;stroke-width:0.86000001;stroke-linecap:round;stroke-linejoin:round;stroke-miterlimit:10;stroke-opacity:1;stroke-dasharray:none"
             id="path3179" />
        </g>
      </g>
    </g>
    <text
       id="text3181"
       x="806.07678"
       y="488.4122"
       style="font-size:15px">
      <tspan
         style="font-size:15.00587463px;font-variant:normal;font-weight:normal;font-stretch:normal;writing-mode:lr-tb;fill:#000000;fill-opacity:1;fill-rule:nonzero;stroke:none;font-family:Arial;-inkscape-font-specification:ArialMT"
         x="806.07678 816.0752 821.06165 829.39441 837.79169 845.28412 853.6814 857.80951 866.96759 875.36487 880.35132 888.68408 897.08136 901.20947"
         y="488.4122"
         sodipodi:role="line"
         id="tspan3183">Branch Target</tspan>
      <tspan
         style="font-size:15.00587463px;font-variant:normal;font-weight:normal;font-stretch:normal;writing-mode:lr-tb;fill:#000000;fill-opacity:1;fill-rule:nonzero;stroke:none;font-family:Arial;-inkscape-font-specification:ArialMT"
         x="826.0271 836.01196 844.33124 852.72852 857.75397 866.07324 873.64819"
         y="505.66293"
         sodipodi:role="line"
         id="tspan3185">Address</tspan>
    </text>
    <text
       id="text3187"
       x="408.20175"
       y="475.58719"
       style="font-size:15px">
      <tspan
         style="font-size:15.00587463px;font-variant:normal;font-weight:normal;font-stretch:normal;writing-mode:lr-tb;fill:#000000;fill-opacity:1;fill-rule:nonzero;stroke:none;font-family:Arial;-inkscape-font-specification:ArialMT"
         x="408.20175 417.35684 425.68661 429.81473 437.38968 445.78699 454.11673 458.27487 463.25833 471.65561 474.97339 479.10153 482.41931 490.81659 499.14636 502.46417 509.95358 514.08173 522.479 526.60712"
         y="475.58719"
         sodipodi:role="line"
         id="tspan3189">To control logic of</tspan>
      <tspan
         style="font-size:15.00587463px;font-variant:normal;font-weight:normal;font-stretch:normal;writing-mode:lr-tb;fill:#000000;fill-opacity:1;fill-rule:nonzero;stroke:none;font-family:Arial;-inkscape-font-specification:ArialMT"
         x="406.40106 413.88147 422.27878 430.59952 438.99683 442.3056 446.45474 449.76352 458.16083 466.48157 474.87888 478.18765 482.31577 490.71307 495.73853 504.0593 512.4566 519.93701"
         y="492.83795"
         sodipodi:role="line"
         id="tspan3191">conditional branch</tspan>
    </text>
    <text
       id="text3193"
       x="273.95175"
       y="432.9122"
       style="font-size:15px">
      <tspan
         style="font-size:15.00587463px;font-variant:normal;font-weight:normal;font-stretch:normal;writing-mode:lr-tb;fill:#000000;fill-opacity:1;fill-rule:nonzero;stroke:none;font-family:Arial;-inkscape-font-specification:ArialMT"
         x="273.95175 282.26501 287.23196 295.62924 298.92603 303.06766 307.19577 315.59305 323.91531 328.05695 332.19855"
         y="432.9122"
         sodipodi:role="line"
         id="tspan3195">2-bit Left</tspan>
      <tspan
         style="font-size:15.00587463px;font-variant:normal;font-weight:normal;font-stretch:normal;writing-mode:lr-tb;fill:#000000;fill-opacity:1;fill-rule:nonzero;stroke:none;font-family:Arial;-inkscape-font-specification:ArialMT"
         x="281.45169 291.43811 299.83539 303.14417 307.2933 311.44241 319.83972 324.81415"
         y="450.16293"
         sodipodi:role="line"
         id="tspan3197">Shifter</tspan>
    </text>
    <g
       id="g3199"
       transform="matrix(0,1.25,1.25,0,360.65238,436.06219)">
      <path
         inkscape:connector-curvature="0"
         d="M 0,0 0.12,218.82"
         style="fill:none;stroke:#000000;stroke-width:0.86000001;stroke-linecap:round;stroke-linejoin:round;stroke-miterlimit:10;stroke-opacity:1;stroke-dasharray:none"
         id="path3201" />
    </g>
    <g
       id="g3203"
       transform="matrix(0,1.25,1.25,0,634.02613,442.13719)">
      <path
         inkscape:connector-curvature="0"
         d="M 0,0 -4.68,13.62 -9.42,0"
         style="fill:#000000;fill-opacity:1;fill-rule:evenodd;stroke:none"
         id="path3205" />
    </g>
    <path
       inkscape:connector-curvature="0"
       d="m 300.87738,512.93719 0,8.625 8.625,0 0,-8.625 -8.625,0 z"
       style="fill:#ffffff;fill-opacity:1;fill-rule:nonzero;stroke:none"
       id="path3207" />
    <g
       id="g3209"
       transform="matrix(0,1.25,1.25,0,283.85238,517.13719)">
      <path
         inkscape:connector-curvature="0"
         d="M 0,0 0.06,30.96"
         style="fill:none;stroke:#000000;stroke-width:0.86000001;stroke-linecap:round;stroke-linejoin:round;stroke-miterlimit:10;stroke-opacity:1;stroke-dasharray:none"
         id="path3211" />
    </g>
    <g
       id="g3213"
       transform="matrix(0,1.25,1.25,0,322.40238,523.13719)">
      <path
         inkscape:connector-curvature="0"
         d="M 0,0 -4.62,13.62 -9.36,0"
         style="fill:#000000;fill-opacity:1;fill-rule:evenodd;stroke:none"
         id="path3215" />
    </g>
    <text
       id="text3217"
       x="674.97675"
       y="466.73718"
       style="font-size:15px">
      <tspan
         style="font-size:17.97125053px;font-variant:normal;font-weight:bold;font-stretch:normal;writing-mode:lr-tb;fill:#000000;fill-opacity:1;fill-rule:nonzero;stroke:none;font-family:Arial;-inkscape-font-specification:Arial-BoldMT"
         x="674.97675 687.8999 698.92706 709.85535 719.79529"
         y="466.73718"
         sodipodi:role="line"
         id="tspan3219">Adder</tspan>
    </text>
    <g
       id="g3221"
       transform="matrix(0,1.25,1.25,0,740.45238,491.56219)">
      <path
         inkscape:connector-curvature="0"
         d="M 0,0 0.06,31.08"
         style="fill:none;stroke:#000000;stroke-width:0.86000001;stroke-linecap:round;stroke-linejoin:round;stroke-miterlimit:10;stroke-opacity:1;stroke-dasharray:none"
         id="path3223" />
    </g>
    <g
       id="g3225"
       transform="matrix(0,1.25,1.25,0,779.07613,497.56219)">
      <path
         inkscape:connector-curvature="0"
         d="M 0,0 -4.74,13.62 -9.42,0"
         style="fill:#000000;fill-opacity:1;fill-rule:evenodd;stroke:none"
         id="path3227" />
    </g>
    <text
       id="text3229"
       x="56.136528"
       y="697.86218"
       style="font-size:15px">
      <tspan
         style="font-size:15.00587463px;font-variant:normal;font-weight:normal;font-stretch:normal;writing-mode:lr-tb;fill:#000000;fill-opacity:1;fill-rule:nonzero;stroke:none;font-family:Arial;-inkscape-font-specification:ArialMT"
         x="56.136528 60.303658 68.642426 76.981186 81.97364 90.312408"
         y="697.86218"
         sodipodi:role="line"
         id="tspan3231">[15-0]</tspan>
      <tspan
         style="font-size:15.00587463px;font-variant:normal;font-weight:normal;font-stretch:normal;writing-mode:lr-tb;fill:#000000;fill-opacity:1;fill-rule:nonzero;stroke:none;font-family:Arial;-inkscape-font-specification:ArialMT"
         x="55.986469 60.131092 68.44735 76.844635 81.870102 90.186356 98.583649"
         y="487.4873"
         sodipodi:role="line"
         id="tspan3233">[25-21]</tspan>
      <tspan
         style="font-size:15.00587463px;font-variant:normal;font-weight:normal;font-stretch:normal;writing-mode:lr-tb;fill:#000000;fill-opacity:1;fill-rule:nonzero;stroke:none;font-family:Arial;-inkscape-font-specification:ArialMT"
         x="55.986469 60.131092 68.44735 76.844635 81.870102 90.186356 98.583649"
         y="525.88733"
         sodipodi:role="line"
         id="tspan3235">[20-16]</tspan>
    </text>
    <text
       id="text3237"
       x="196.62717"
       y="463.2868"
       style="font-size:15px">
      <tspan
         style="font-size:15.00587463px;font-style:italic;font-variant:normal;font-weight:bold;font-stretch:normal;writing-mode:lr-tb;fill:#ff0000;fill-opacity:1;fill-rule:nonzero;stroke:none;font-family:Arial;-inkscape-font-specification:Arial-BoldItalicMT"
         x="196.62717 210.87975"
         y="463.2868"
         sodipodi:role="line"
         id="tspan3239">WR</tspan>
    </text>
    <path
       inkscape:connector-curvature="0"
       d="m 188.82738,448.88719 0,11.325 2.25,0 0,-11.325 -2.25,0 z"
       style="fill:#ff0000;fill-opacity:1;fill-rule:nonzero;stroke:none"
       id="path3241" />
    <g
       id="g3243"
       transform="matrix(0,1.25,1.25,0,185.22738,459.98719)">
      <path
         inkscape:connector-curvature="0"
         d="M 0,0 11.64,3.9 0,7.56"
         style="fill:#ff0000;fill-opacity:1;fill-rule:evenodd;stroke:none"
         id="path3245" />
    </g>
    <path
       inkscape:connector-curvature="0"
       d="m 52.345859,495.28035 0,214.22257 2.438042,0 0,-214.22257 -2.438042,0 z"
       style="fill:#000000;fill-opacity:1;fill-rule:nonzero;stroke:none"
       id="path3247" />
    <path
       inkscape:connector-curvature="0"
       d="m 13.70238,532.51219 0,3.3 40.425,0 0,-3.3 -40.425,0 z"
       style="fill:#000000;fill-opacity:1;fill-rule:nonzero;stroke:none"
       id="path3249" />
  </g>
</svg>
