<?xml version="1.0" encoding="UTF-8" standalone="no"?>
<!-- Created with Inkscape (http://www.inkscape.org/) -->

<svg
   xmlns:dc="http://purl.org/dc/elements/1.1/"
   xmlns:cc="http://creativecommons.org/ns#"
   xmlns:rdf="http://www.w3.org/1999/02/22-rdf-syntax-ns#"
   xmlns:svg="http://www.w3.org/2000/svg"
   xmlns="http://www.w3.org/2000/svg"
   xmlns:sodipodi="http://sodipodi.sourceforge.net/DTD/sodipodi-0.dtd"
   xmlns:inkscape="http://www.inkscape.org/namespaces/inkscape"
   width="886.64166"
   height="182.375"
   id="svg7137"
   version="1.1"
   inkscape:version="0.48.4 r9939"
   sodipodi:docname="New document 10">
  <defs
     id="defs7139">
    <clipPath
       id="clipPath7165"
       clipPathUnits="userSpaceOnUse">
      <path
         id="path7167"
         d="m 0,841.98 595.2,0 L 595.2,0 0,0 0,841.98 z"
         inkscape:connector-curvature="0" />
    </clipPath>
    <clipPath
       id="clipPath7159"
       clipPathUnits="userSpaceOnUse">
      <path
         id="path7161"
         clip-rule="evenodd"
         d="m 588.84,0.11053 -582.84,0 0,841.86 582.84,0 0,-841.86 z"
         inkscape:connector-curvature="0" />
    </clipPath>
  </defs>
  <sodipodi:namedview
     id="base"
     pagecolor="#ffffff"
     bordercolor="#666666"
     borderopacity="1.0"
     inkscape:pageopacity="0.0"
     inkscape:pageshadow="2"
     inkscape:zoom="0.35"
     inkscape:cx="215.86425"
     inkscape:cy="28.114287"
     inkscape:document-units="px"
     inkscape:current-layer="layer1"
     showgrid="false"
     fit-margin-top="10"
     fit-margin-left="10"
     fit-margin-right="10"
     fit-margin-bottom="10"
     inkscape:window-width="954"
     inkscape:window-height="1028"
     inkscape:window-x="0"
     inkscape:window-y="0"
     inkscape:window-maximized="0" />
  <metadata
     id="metadata7142">
    <rdf:RDF>
      <cc:Work
         rdf:about="">
        <dc:format>image/svg+xml</dc:format>
        <dc:type
           rdf:resource="http://purl.org/dc/dcmitype/StillImage" />
        <dc:title></dc:title>
      </cc:Work>
    </rdf:RDF>
  </metadata>
  <g
     inkscape:label="Layer 1"
     inkscape:groupmode="layer"
     id="layer1"
     transform="translate(-159.13575,-378.10147)">
    <g
       id="g7187"
       transform="matrix(0,1.25,1.25,0,384.32737,449.90147)">
      <path
         inkscape:connector-curvature="0"
         d="m 0,0 c -7.44,0 -13.44,12 -13.44,26.88 0,14.88 6,26.94 13.44,26.94 7.38,0 13.44,-12.06 13.44,-26.94 C 13.44,12 7.38,0 0,0"
         style="fill:#b2b2b2;fill-opacity:1;fill-rule:evenodd;stroke:none"
         id="path7189" />
    </g>
    <path
       inkscape:connector-curvature="0"
       d="m 402.02737,440.37647 0,19.35 27.975,0 0,-19.35 -27.975,0 z"
       style="fill:#b2b2b2;fill-opacity:1;fill-rule:nonzero;stroke:none"
       id="path7191" />
    <text
       id="text7193"
       x="402.02676"
       y="455.45148"
       style="font-size:15px">
      <tspan
         style="font-size:16.20000076px;font-variant:normal;font-weight:bold;font-stretch:normal;writing-mode:lr-tb;fill:#000000;fill-opacity:1;fill-rule:nonzero;stroke:none;font-family:Garamond;-inkscape-font-specification:Garamond-Bold"
         x="402.02676 408.7789 413.84628 421.60284 425.81158"
         y="455.45148"
         sodipodi:role="line"
         id="tspan7195">stall</tspan>
    </text>
    <path
       inkscape:connector-curvature="0"
       d="m 322.90237,388.62647 0,39.9 64.8,0 0,-39.9 -64.8,0 z"
       style="fill:#99ffcc;fill-opacity:1;fill-rule:nonzero;stroke:none"
       id="path7197" />
    <path
       inkscape:connector-curvature="0"
       d="m 322.37737,429.05147 0,-40.95 65.775,0 0,40.95 -65.775,0 z m 0,-40.95 z m 1.05,40.425 -0.525,-0.45 64.8,0 -0.525,0.45 0,-39.9 0.525,0.45 -64.8,0 0.525,-0.45"
       style="fill:#000000;fill-opacity:1;fill-rule:nonzero;stroke:none"
       id="path7199" />
    <text
       id="text7201"
       x="344.50174"
       y="417.05148"
       style="font-size:15px">
      <tspan
         style="font-size:24.30000114px;font-variant:normal;font-weight:bold;font-stretch:normal;writing-mode:lr-tb;fill:#000000;fill-opacity:1;fill-rule:nonzero;stroke:none;font-family:Arial;-inkscape-font-specification:Arial-BoldMT"
         x="344.50174 351.25473"
         y="417.05148"
         sodipodi:role="line"
         id="tspan7203">IF</tspan>
    </text>
    <path
       inkscape:connector-curvature="0"
       d="m 387.70237,388.62647 0,39.9 64.725,0 0,-39.9 -64.725,0 z"
       style="fill:#99ffcc;fill-opacity:1;fill-rule:nonzero;stroke:none"
       id="path7205" />
    <path
       inkscape:connector-curvature="0"
       d="m 387.17737,429.05147 0,-40.95 65.775,0 0,40.95 -65.775,0 z m 0,-40.95 z m 0.975,40.425 -0.45,-0.45 64.725,0 -0.525,0.45 0,-39.9 0.525,0.45 -64.725,0 0.45,-0.45"
       style="fill:#000000;fill-opacity:1;fill-rule:nonzero;stroke:none"
       id="path7207" />
    <text
       id="text7209"
       x="407.87674"
       y="417.05148"
       style="font-size:15px">
      <tspan
         style="font-size:24.30000114px;font-variant:normal;font-weight:bold;font-stretch:normal;writing-mode:lr-tb;fill:#000000;fill-opacity:1;fill-rule:nonzero;stroke:none;font-family:Arial;-inkscape-font-specification:Arial-BoldMT"
         x="407.87674 414.62973"
         y="417.05148"
         sodipodi:role="line"
         id="tspan7211">ID</tspan>
    </text>
    <path
       inkscape:connector-curvature="0"
       d="m 452.42737,388.62647 0,39.9 64.725,0 0,-39.9 -64.725,0 z"
       style="fill:#99ffcc;fill-opacity:1;fill-rule:nonzero;stroke:none"
       id="path7213" />
    <path
       inkscape:connector-curvature="0"
       d="m 451.90237,429.05147 0,-40.95 65.775,0 0,40.95 -65.775,0 z m 0,-40.95 z m 1.05,40.425 -0.525,-0.45 64.725,0 -0.45,0.45 0,-39.9 0.45,0.45 -64.725,0 0.525,-0.45"
       style="fill:#000000;fill-opacity:1;fill-rule:nonzero;stroke:none"
       id="path7215" />
    <text
       id="text7217"
       x="468.62674"
       y="417.05148"
       style="font-size:15px">
      <tspan
         style="font-size:24.30000114px;font-variant:normal;font-weight:bold;font-stretch:normal;writing-mode:lr-tb;fill:#000000;fill-opacity:1;fill-rule:nonzero;stroke:none;font-family:Arial;-inkscape-font-specification:Arial-BoldMT"
         x="468.62674 484.82755"
         y="417.05148"
         sodipodi:role="line"
         id="tspan7219">EX</tspan>
    </text>
    <path
       inkscape:connector-curvature="0"
       d="m 517.15237,388.62647 0,39.9 64.8,0 0,-39.9 -64.8,0 z"
       style="fill:#99ffcc;fill-opacity:1;fill-rule:nonzero;stroke:none"
       id="path7221" />
    <path
       inkscape:connector-curvature="0"
       d="m 516.70237,429.05147 0,-40.95 65.775,0 0,40.95 -65.775,0 z m 0,-40.95 z m 0.975,40.425 -0.525,-0.45 64.8,0 -0.525,0.45 0,-39.9 0.525,0.45 -64.8,0 0.525,-0.45"
       style="fill:#000000;fill-opacity:1;fill-rule:nonzero;stroke:none"
       id="path7223" />
    <text
       id="text7225"
       x="531.32672"
       y="417.05148"
       style="font-size:15px">
      <tspan
         style="font-size:24.30000114px;font-variant:normal;font-weight:bold;font-stretch:normal;writing-mode:lr-tb;fill:#000000;fill-opacity:1;fill-rule:nonzero;stroke:none;font-family:Arial;-inkscape-font-specification:Arial-BoldMT"
         x="531.32672 551.57593"
         y="417.05148"
         sodipodi:role="line"
         id="tspan7227">ME</tspan>
    </text>
    <path
       inkscape:connector-curvature="0"
       d="m 581.95237,388.62647 0,39.9 64.725,0 0,-39.9 -64.725,0 z"
       style="fill:#99ffcc;fill-opacity:1;fill-rule:nonzero;stroke:none"
       id="path7229" />
    <path
       inkscape:connector-curvature="0"
       d="m 581.42737,429.05147 0,-40.95 65.775,0 0,40.95 -65.775,0 z m 0,-40.95 z m 1.05,40.425 -0.525,-0.45 64.725,0 -0.45,0.45 0,-39.9 0.45,0.45 -64.725,0 0.525,-0.45"
       style="fill:#000000;fill-opacity:1;fill-rule:nonzero;stroke:none"
       id="path7231" />
    <text
       id="text7233"
       x="594.10175"
       y="417.05148"
       style="font-size:15px">
      <tspan
         style="font-size:24.30000114px;font-variant:normal;font-weight:bold;font-stretch:normal;writing-mode:lr-tb;fill:#000000;fill-opacity:1;fill-rule:nonzero;stroke:none;font-family:Arial;-inkscape-font-specification:Arial-BoldMT"
         x="594.10175 617.05554"
         y="417.05148"
         sodipodi:role="line"
         id="tspan7235">WB</tspan>
    </text>
    <text
       id="text7237"
       x="169.30186"
       y="416.15146"
       style="font-size:15px">
      <tspan
         style="font-size:16.20000076px;font-variant:normal;font-weight:bold;font-stretch:normal;writing-mode:lr-tb;fill:#000000;fill-opacity:1;fill-rule:nonzero;stroke:none;font-family:Courier New;-inkscape-font-specification:CourierNewPS-BoldMT"
         x="169.30186 179.05103 188.80019 198.54935 208.39732 218.14648 227.89565 237.64481 247.49278 257.24194 266.99112 276.74026 286.58826 296.3374"
         y="416.15146"
         sodipodi:role="line"
         id="tspan7239">beq $1, $3, L1</tspan>
    </text>
    <path
       inkscape:connector-curvature="0"
       d="m 581.95237,429.05147 0,39.975 64.725,0 0,-39.975 -64.725,0 z"
       style="fill:#99ffcc;fill-opacity:1;fill-rule:nonzero;stroke:none"
       id="path7241" />
    <path
       inkscape:connector-curvature="0"
       d="m 581.42737,469.55147 0,-41.025 65.775,0 0,41.025 -65.775,0 z m 0,-41.025 z m 1.05,40.5 -0.525,-0.525 64.725,0 -0.45,0.525 0,-39.975 0.45,0.525 -64.725,0 0.525,-0.525"
       style="fill:#000000;fill-opacity:1;fill-rule:nonzero;stroke:none"
       id="path7243" />
    <text
       id="text7245"
       x="603.55176"
       y="457.55148"
       style="font-size:15px">
      <tspan
         style="font-size:24.30000114px;font-variant:normal;font-weight:bold;font-stretch:normal;writing-mode:lr-tb;fill:#000000;fill-opacity:1;fill-rule:nonzero;stroke:none;font-family:Arial;-inkscape-font-specification:Arial-BoldMT"
         x="603.55176 610.30475"
         y="457.55148"
         sodipodi:role="line"
         id="tspan7247">IF</tspan>
    </text>
    <path
       inkscape:connector-curvature="0"
       d="m 646.67737,429.05147 0,39.975 64.8,0 0,-39.975 -64.8,0 z"
       style="fill:#99ffcc;fill-opacity:1;fill-rule:nonzero;stroke:none"
       id="path7249" />
    <path
       inkscape:connector-curvature="0"
       d="m 646.22737,469.55147 0,-41.025 65.775,0 0,41.025 -65.775,0 z m 0,-41.025 z m 0.975,40.5 -0.525,-0.525 64.8,0 -0.52625,0.525 0,-39.975 0.52625,0.525 -64.8,0 0.525,-0.525"
       style="fill:#000000;fill-opacity:1;fill-rule:nonzero;stroke:none"
       id="path7251" />
    <text
       id="text7253"
       x="666.92676"
       y="457.55148"
       style="font-size:15px">
      <tspan
         style="font-size:24.30000114px;font-variant:normal;font-weight:bold;font-stretch:normal;writing-mode:lr-tb;fill:#000000;fill-opacity:1;fill-rule:nonzero;stroke:none;font-family:Arial;-inkscape-font-specification:Arial-BoldMT"
         x="666.92676 673.67975"
         y="457.55148"
         sodipodi:role="line"
         id="tspan7255">ID</tspan>
    </text>
    <path
       inkscape:connector-curvature="0"
       d="m 711.47737,429.05147 0,39.975 64.725,0 0,-39.975 -64.725,0 z"
       style="fill:#99ffcc;fill-opacity:1;fill-rule:nonzero;stroke:none"
       id="path7257" />
    <path
       inkscape:connector-curvature="0"
       d="m 710.95112,469.55147 0,-41.025 65.775,0 0,41.025 -65.775,0 z m 0,-41.025 z m 1.05,40.5 -0.52375,-0.525 64.725,0 -0.45125,0.525 0,-39.975 0.45125,0.525 -64.725,0 0.52375,-0.525"
       style="fill:#000000;fill-opacity:1;fill-rule:nonzero;stroke:none"
       id="path7259" />
    <text
       id="text7261"
       x="727.67676"
       y="457.55148"
       style="font-size:15px">
      <tspan
         style="font-size:24.30000114px;font-variant:normal;font-weight:bold;font-stretch:normal;writing-mode:lr-tb;fill:#000000;fill-opacity:1;fill-rule:nonzero;stroke:none;font-family:Arial;-inkscape-font-specification:Arial-BoldMT"
         x="727.67676 743.87756"
         y="457.55148"
         sodipodi:role="line"
         id="tspan7263">EX</tspan>
    </text>
    <path
       inkscape:connector-curvature="0"
       d="m 776.20237,429.05147 0,39.975 64.8,0 0,-39.975 -64.8,0 z"
       style="fill:#99ffcc;fill-opacity:1;fill-rule:nonzero;stroke:none"
       id="path7265" />
    <path
       inkscape:connector-curvature="0"
       d="m 775.75112,469.55147 0,-41.025 65.775,0 0,41.025 -65.775,0 z m 0,-41.025 z m 0.97625,40.5 -0.525,-0.525 64.8,0 -0.525,0.525 0,-39.975 0.525,0.525 -64.8,0 0.525,-0.525"
       style="fill:#000000;fill-opacity:1;fill-rule:nonzero;stroke:none"
       id="path7267" />
    <text
       id="text7269"
       x="790.37677"
       y="457.55148"
       style="font-size:15px">
      <tspan
         style="font-size:24.30000114px;font-variant:normal;font-weight:bold;font-stretch:normal;writing-mode:lr-tb;fill:#000000;fill-opacity:1;fill-rule:nonzero;stroke:none;font-family:Arial;-inkscape-font-specification:Arial-BoldMT"
         x="790.37677 810.62592"
         y="457.55148"
         sodipodi:role="line"
         id="tspan7271">ME</tspan>
    </text>
    <path
       inkscape:connector-curvature="0"
       d="m 841.00237,429.05147 0,39.975 64.725,0 0,-39.975 -64.725,0 z"
       style="fill:#99ffcc;fill-opacity:1;fill-rule:nonzero;stroke:none"
       id="path7273" />
    <path
       inkscape:connector-curvature="0"
       d="m 840.47737,469.55147 0,-41.025 65.775,0 0,41.025 -65.775,0 z m 0,-41.025 z m 1.04875,40.5 -0.52375,-0.525 64.725,0 -0.45,0.525 0,-39.975 0.45,0.525 -64.725,0 0.52375,-0.525"
       style="fill:#000000;fill-opacity:1;fill-rule:nonzero;stroke:none"
       id="path7275" />
    <text
       id="text7277"
       x="853.15173"
       y="457.55148"
       style="font-size:15px">
      <tspan
         style="font-size:24.30000114px;font-variant:normal;font-weight:bold;font-stretch:normal;writing-mode:lr-tb;fill:#000000;fill-opacity:1;fill-rule:nonzero;stroke:none;font-family:Arial;-inkscape-font-specification:Arial-BoldMT"
         x="853.15173 876.10553"
         y="457.55148"
         sodipodi:role="line"
         id="tspan7279">WB</tspan>
    </text>
    <text
       id="text7281"
       x="169.30186"
       y="456.65146"
       style="font-size:15px">
      <tspan
         style="font-size:16.20000076px;font-variant:normal;font-weight:bold;font-stretch:normal;writing-mode:lr-tb;fill:#000000;fill-opacity:1;fill-rule:nonzero;stroke:none;font-family:Courier New;-inkscape-font-specification:CourierNewPS-BoldMT"
         x="169.30186 179.05103 188.80019 198.54935 208.42163 218.17079 227.91995 237.66911 247.41827 257.29056 267.0397 276.78888 286.53802 296.41031 306.15945"
         y="456.65146"
         sodipodi:role="line"
         id="tspan7283">and $12, $2, $5</tspan>
    </text>
    <path
       inkscape:connector-curvature="0"
       d="m 646.67737,469.55147 0,39.975 64.8,0 0,-39.975 -64.8,0 z"
       style="fill:#99ffcc;fill-opacity:1;fill-rule:nonzero;stroke:none"
       id="path7285" />
    <path
       inkscape:connector-curvature="0"
       d="m 646.22737,510.05147 0,-41.025 65.775,0 0,41.025 -65.775,0 z m 0,-41.025 z m 0.975,40.5 -0.525,-0.525 64.8,0 -0.52625,0.525 0,-39.975 0.52625,0.525 -64.8,0 0.525,-0.525"
       style="fill:#000000;fill-opacity:1;fill-rule:nonzero;stroke:none"
       id="path7287" />
    <text
       id="text7289"
       x="668.27673"
       y="497.97647"
       style="font-size:15px">
      <tspan
         style="font-size:24.30000114px;font-variant:normal;font-weight:bold;font-stretch:normal;writing-mode:lr-tb;fill:#000000;fill-opacity:1;fill-rule:nonzero;stroke:none;font-family:Arial;-inkscape-font-specification:Arial-BoldMT"
         x="668.27673 675.02972"
         y="497.97647"
         sodipodi:role="line"
         id="tspan7291">IF</tspan>
    </text>
    <path
       inkscape:connector-curvature="0"
       d="m 711.47737,469.55147 0,39.975 64.725,0 0,-39.975 -64.725,0 z"
       style="fill:#99ffcc;fill-opacity:1;fill-rule:nonzero;stroke:none"
       id="path7293" />
    <path
       inkscape:connector-curvature="0"
       d="m 710.95112,510.05147 0,-41.025 65.775,0 0,41.025 -65.775,0 z m 0,-41.025 z m 1.05,40.5 -0.52375,-0.525 64.725,0 -0.45125,0.525 0,-39.975 0.45125,0.525 -64.725,0 0.52375,-0.525"
       style="fill:#000000;fill-opacity:1;fill-rule:nonzero;stroke:none"
       id="path7295" />
    <text
       id="text7297"
       x="731.72675"
       y="497.97647"
       style="font-size:15px">
      <tspan
         style="font-size:24.30000114px;font-variant:normal;font-weight:bold;font-stretch:normal;writing-mode:lr-tb;fill:#000000;fill-opacity:1;fill-rule:nonzero;stroke:none;font-family:Arial;-inkscape-font-specification:Arial-BoldMT"
         x="731.72675 738.47974"
         y="497.97647"
         sodipodi:role="line"
         id="tspan7299">ID</tspan>
    </text>
    <path
       inkscape:connector-curvature="0"
       d="m 776.20237,469.55147 0,39.975 64.8,0 0,-39.975 -64.8,0 z"
       style="fill:#99ffcc;fill-opacity:1;fill-rule:nonzero;stroke:none"
       id="path7301" />
    <path
       inkscape:connector-curvature="0"
       d="m 775.75112,510.05147 0,-41.025 65.775,0 0,41.025 -65.775,0 z m 0,-41.025 z m 0.97625,40.5 -0.525,-0.525 64.8,0 -0.525,0.525 0,-39.975 0.525,0.525 -64.8,0 0.525,-0.525"
       style="fill:#000000;fill-opacity:1;fill-rule:nonzero;stroke:none"
       id="path7303" />
    <text
       id="text7305"
       x="792.40173"
       y="497.97647"
       style="font-size:15px">
      <tspan
         style="font-size:24.30000114px;font-variant:normal;font-weight:bold;font-stretch:normal;writing-mode:lr-tb;fill:#000000;fill-opacity:1;fill-rule:nonzero;stroke:none;font-family:Arial;-inkscape-font-specification:Arial-BoldMT"
         x="792.40173 808.60254"
         y="497.97647"
         sodipodi:role="line"
         id="tspan7307">EX</tspan>
    </text>
    <path
       inkscape:connector-curvature="0"
       d="m 841.00237,469.55147 0,39.975 64.725,0 0,-39.975 -64.725,0 z"
       style="fill:#99ffcc;fill-opacity:1;fill-rule:nonzero;stroke:none"
       id="path7309" />
    <path
       inkscape:connector-curvature="0"
       d="m 840.47737,510.05147 0,-41.025 65.775,0 0,41.025 -65.775,0 z m 0,-41.025 z m 1.04875,40.5 -0.52375,-0.525 64.725,0 -0.45,0.525 0,-39.975 0.45,0.525 -64.725,0 0.52375,-0.525"
       style="fill:#000000;fill-opacity:1;fill-rule:nonzero;stroke:none"
       id="path7311" />
    <text
       id="text7313"
       x="855.17676"
       y="497.97647"
       style="font-size:15px">
      <tspan
         style="font-size:24.30000114px;font-variant:normal;font-weight:bold;font-stretch:normal;writing-mode:lr-tb;fill:#000000;fill-opacity:1;fill-rule:nonzero;stroke:none;font-family:Arial;-inkscape-font-specification:Arial-BoldMT"
         x="855.17676 875.42596"
         y="497.97647"
         sodipodi:role="line"
         id="tspan7315">ME</tspan>
    </text>
    <path
       inkscape:connector-curvature="0"
       d="m 905.72737,469.55147 0,39.975 64.8,0 0,-39.975 -64.8,0 z"
       style="fill:#99ffcc;fill-opacity:1;fill-rule:nonzero;stroke:none"
       id="path7317" />
    <path
       inkscape:connector-curvature="0"
       d="m 905.27737,510.05147 0,-41.025 65.7,0 0,41.025 -65.7,0 z m 0,-41.025 z m 0.975,40.5 -0.525,-0.525 64.8,0 -0.525,0.525 0,-39.975 0.525,0.525 -64.8,0 0.525,-0.525"
       style="fill:#000000;fill-opacity:1;fill-rule:nonzero;stroke:none"
       id="path7319" />
    <text
       id="text7321"
       x="917.87677"
       y="497.97647"
       style="font-size:15px">
      <tspan
         style="font-size:24.30000114px;font-variant:normal;font-weight:bold;font-stretch:normal;writing-mode:lr-tb;fill:#000000;fill-opacity:1;fill-rule:nonzero;stroke:none;font-family:Arial;-inkscape-font-specification:Arial-BoldMT"
         x="917.87677 940.83051"
         y="497.97647"
         sodipodi:role="line"
         id="tspan7323">WB</tspan>
    </text>
    <text
       id="text7325"
       x="174.47675"
       y="497.07648"
       style="font-size:15px">
      <tspan
         style="font-size:16.20000076px;font-variant:normal;font-weight:bold;font-stretch:normal;writing-mode:lr-tb;fill:#000000;fill-opacity:1;fill-rule:nonzero;stroke:none;font-family:Courier New;-inkscape-font-specification:CourierNewPS-BoldMT"
         x="174.47675 184.22591 193.97507 203.84735 213.59651 223.34567 233.09483 242.84399 252.71628 262.46542 272.2146 281.96375 291.83603 301.58521"
         y="497.07648"
         sodipodi:role="line"
         id="tspan7327">or $13, $6, $2</tspan>
    </text>
    <path
       inkscape:connector-curvature="0"
       d="m 711.47737,510.05147 0,39.9 64.725,0 0,-39.9 -64.725,0 z"
       style="fill:#99ffcc;fill-opacity:1;fill-rule:nonzero;stroke:none"
       id="path7329" />
    <path
       inkscape:connector-curvature="0"
       d="m 710.95112,550.47647 0,-40.95 65.775,0 0,40.95 -65.775,0 z m 0,-40.95 z m 1.05,40.425 -0.52375,-0.45 64.725,0 -0.45125,0.45 0,-39.9 0.45125,0.45 -64.725,0 0.52375,-0.45"
       style="fill:#000000;fill-opacity:1;fill-rule:nonzero;stroke:none"
       id="path7331" />
    <text
       id="text7333"
       x="733.07672"
       y="538.47644"
       style="font-size:15px">
      <tspan
         style="font-size:24.30000114px;font-variant:normal;font-weight:bold;font-stretch:normal;writing-mode:lr-tb;fill:#000000;fill-opacity:1;fill-rule:nonzero;stroke:none;font-family:Arial;-inkscape-font-specification:Arial-BoldMT"
         x="733.07672 739.82971"
         y="538.47644"
         sodipodi:role="line"
         id="tspan7335">IF</tspan>
    </text>
    <path
       inkscape:connector-curvature="0"
       d="m 776.20237,510.05147 0,39.9 64.8,0 0,-39.9 -64.8,0 z"
       style="fill:#99ffcc;fill-opacity:1;fill-rule:nonzero;stroke:none"
       id="path7337" />
    <path
       inkscape:connector-curvature="0"
       d="m 775.75112,550.47647 0,-40.95 65.775,0 0,40.95 -65.775,0 z m 0,-40.95 z m 0.97625,40.425 -0.525,-0.45 64.8,0 -0.525,0.45 0,-39.9 0.525,0.45 -64.8,0 0.525,-0.45"
       style="fill:#000000;fill-opacity:1;fill-rule:nonzero;stroke:none"
       id="path7339" />
    <text
       id="text7341"
       x="796.45172"
       y="538.47644"
       style="font-size:15px">
      <tspan
         style="font-size:24.30000114px;font-variant:normal;font-weight:bold;font-stretch:normal;writing-mode:lr-tb;fill:#000000;fill-opacity:1;fill-rule:nonzero;stroke:none;font-family:Arial;-inkscape-font-specification:Arial-BoldMT"
         x="796.45172 803.20471"
         y="538.47644"
         sodipodi:role="line"
         id="tspan7343">ID</tspan>
    </text>
    <path
       inkscape:connector-curvature="0"
       d="m 841.00237,510.05147 0,39.9 64.725,0 0,-39.9 -64.725,0 z"
       style="fill:#99ffcc;fill-opacity:1;fill-rule:nonzero;stroke:none"
       id="path7345" />
    <path
       inkscape:connector-curvature="0"
       d="m 840.47737,550.47647 0,-40.95 65.775,0 0,40.95 -65.775,0 z m 0,-40.95 z m 1.04875,40.425 -0.52375,-0.45 64.725,0 -0.45,0.45 0,-39.9 0.45,0.45 -64.725,0 0.52375,-0.45"
       style="fill:#000000;fill-opacity:1;fill-rule:nonzero;stroke:none"
       id="path7347" />
    <text
       id="text7349"
       x="857.20172"
       y="538.47644"
       style="font-size:15px">
      <tspan
         style="font-size:24.30000114px;font-variant:normal;font-weight:bold;font-stretch:normal;writing-mode:lr-tb;fill:#000000;fill-opacity:1;fill-rule:nonzero;stroke:none;font-family:Arial;-inkscape-font-specification:Arial-BoldMT"
         x="857.20172 873.40259"
         y="538.47644"
         sodipodi:role="line"
         id="tspan7351">EX</tspan>
    </text>
    <path
       inkscape:connector-curvature="0"
       d="m 905.72737,510.05147 0,39.9 64.8,0 0,-39.9 -64.8,0 z"
       style="fill:#99ffcc;fill-opacity:1;fill-rule:nonzero;stroke:none"
       id="path7353" />
    <path
       inkscape:connector-curvature="0"
       d="m 905.27737,550.47647 0,-40.95 65.7,0 0,40.95 -65.7,0 z m 0,-40.95 z m 0.975,40.425 -0.525,-0.45 64.8,0 -0.525,0.45 0,-39.9 0.525,0.45 -64.8,0 0.525,-0.45"
       style="fill:#000000;fill-opacity:1;fill-rule:nonzero;stroke:none"
       id="path7355" />
    <text
       id="text7357"
       x="919.90173"
       y="538.47644"
       style="font-size:15px">
      <tspan
         style="font-size:24.30000114px;font-variant:normal;font-weight:bold;font-stretch:normal;writing-mode:lr-tb;fill:#000000;fill-opacity:1;fill-rule:nonzero;stroke:none;font-family:Arial;-inkscape-font-specification:Arial-BoldMT"
         x="919.90173 940.15094"
         y="538.47644"
         sodipodi:role="line"
         id="tspan7359">ME</tspan>
    </text>
    <path
       inkscape:connector-curvature="0"
       d="m 970.52737,510.05147 0,39.9 64.72503,0 0,-39.9 -64.72503,0 z"
       style="fill:#99ffcc;fill-opacity:1;fill-rule:nonzero;stroke:none"
       id="path7361" />
    <path
       inkscape:connector-curvature="0"
       d="m 970.00237,550.47647 0,-40.95 65.77503,0 0,40.95 -65.77503,0 z m 0,-40.95 z m 0.97375,40.425 -0.44875,-0.45 64.72503,0 -0.5263,0.45 0,-39.9 0.5263,0.45 -64.72503,0 0.44875,-0.45"
       style="fill:#000000;fill-opacity:1;fill-rule:nonzero;stroke:none"
       id="path7363" />
    <text
       id="text7365"
       x="982.67676"
       y="538.47644"
       style="font-size:15px">
      <tspan
         style="font-size:24.30000114px;font-variant:normal;font-weight:bold;font-stretch:normal;writing-mode:lr-tb;fill:#000000;fill-opacity:1;fill-rule:nonzero;stroke:none;font-family:Arial;-inkscape-font-specification:Arial-BoldMT"
         x="982.67676 1005.6306"
         y="538.47644"
         sodipodi:role="line"
         id="tspan7367">WB</tspan>
    </text>
    <text
       id="text7369"
       x="169.30186"
       y="537.57648"
       style="font-size:15px">
      <tspan
         style="font-size:16.20000076px;font-variant:normal;font-weight:bold;font-stretch:normal;writing-mode:lr-tb;fill:#000000;fill-opacity:1;fill-rule:nonzero;stroke:none;font-family:Courier New;-inkscape-font-specification:CourierNewPS-BoldMT"
         x="169.30186 179.05103 188.80019 198.54935 208.42163 218.17079 227.91995 237.66911 247.41827 257.29056 267.0397 276.78888 286.53802 296.41031 306.15945"
         y="537.57648"
         sodipodi:role="line"
         id="tspan7371">add $14, $2, $2</tspan>
    </text>
    <g
       id="g7373"
       transform="matrix(0,1.25,1.25,0,452.12737,448.40147)">
      <path
         inkscape:connector-curvature="0"
         d="m 0,0 c -7.44,0 -13.44,12 -13.44,26.88 0,14.88 6,26.94 13.44,26.94 7.38,0 13.38,-12.06 13.38,-26.94 C 13.38,12 7.38,0 0,0"
         style="fill:#b2b2b2;fill-opacity:1;fill-rule:evenodd;stroke:none"
         id="path7375" />
    </g>
    <path
       inkscape:connector-curvature="0"
       d="m 469.82737,438.87647 0,19.35 27.975,0 0,-19.35 -27.975,0 z"
       style="fill:#b2b2b2;fill-opacity:1;fill-rule:nonzero;stroke:none"
       id="path7377" />
    <text
       id="text7379"
       x="469.82675"
       y="453.87646"
       style="font-size:15px">
      <tspan
         style="font-size:16.20000076px;font-variant:normal;font-weight:bold;font-stretch:normal;writing-mode:lr-tb;fill:#000000;fill-opacity:1;fill-rule:nonzero;stroke:none;font-family:Garamond;-inkscape-font-specification:Garamond-Bold"
         x="469.82675 476.57892 481.64627 489.40283 493.6116"
         y="453.87646"
         sodipodi:role="line"
         id="tspan7381">stall</tspan>
    </text>
    <g
       id="g7383"
       transform="matrix(0,1.25,1.25,0,516.85237,448.40147)">
      <path
         inkscape:connector-curvature="0"
         d="m 0,0 c -7.44,0 -13.44,12.06 -13.44,26.94 0,14.82 6,26.88 13.44,26.88 7.38,0 13.38,-12.06 13.38,-26.88 C 13.38,12.06 7.38,0 0,0"
         style="fill:#b2b2b2;fill-opacity:1;fill-rule:evenodd;stroke:none"
         id="path7385" />
    </g>
    <path
       inkscape:connector-curvature="0"
       d="m 534.55237,438.87647 0,19.35 27.975,0 0,-19.35 -27.975,0 z"
       style="fill:#b2b2b2;fill-opacity:1;fill-rule:nonzero;stroke:none"
       id="path7387" />
    <text
       id="text7389"
       x="534.62677"
       y="453.87646"
       style="font-size:15px">
      <tspan
         style="font-size:16.20000076px;font-variant:normal;font-weight:bold;font-stretch:normal;writing-mode:lr-tb;fill:#000000;fill-opacity:1;fill-rule:nonzero;stroke:none;font-family:Garamond;-inkscape-font-specification:Garamond-Bold"
         x="534.62677 541.37891 546.44629 554.20282 558.41156"
         y="453.87646"
         sodipodi:role="line"
         id="tspan7391">stall</tspan>
    </text>
  </g>
</svg>
