<?xml version="1.0" encoding="UTF-8" standalone="no"?>
<!-- Created with Inkscape (http://www.inkscape.org/) -->

<svg
   xmlns:dc="http://purl.org/dc/elements/1.1/"
   xmlns:cc="http://creativecommons.org/ns#"
   xmlns:rdf="http://www.w3.org/1999/02/22-rdf-syntax-ns#"
   xmlns:svg="http://www.w3.org/2000/svg"
   xmlns="http://www.w3.org/2000/svg"
   xmlns:sodipodi="http://sodipodi.sourceforge.net/DTD/sodipodi-0.dtd"
   xmlns:inkscape="http://www.inkscape.org/namespaces/inkscape"
   width="758.69171"
   height="182.375"
   id="svg9619"
   version="1.1"
   inkscape:version="0.48.4 r9939"
   sodipodi:docname="New document 19">
  <defs
     id="defs9621">
    <clipPath
       id="clipPath9647"
       clipPathUnits="userSpaceOnUse">
      <path
         id="path9649"
         d="m 0,841.98 595.2,0 L 595.2,0 0,0 0,841.98 z"
         inkscape:connector-curvature="0" />
    </clipPath>
    <clipPath
       id="clipPath9641"
       clipPathUnits="userSpaceOnUse">
      <path
         id="path9643"
         clip-rule="evenodd"
         d="m 588.84,0.11053 -582.84,0 0,841.86 582.84,0 0,-841.86 z"
         inkscape:connector-curvature="0" />
    </clipPath>
  </defs>
  <sodipodi:namedview
     id="base"
     pagecolor="#ffffff"
     bordercolor="#666666"
     borderopacity="1.0"
     inkscape:pageopacity="0.0"
     inkscape:pageshadow="2"
     inkscape:zoom="0.35"
     inkscape:cx="401.15365"
     inkscape:cy="34.282147"
     inkscape:document-units="px"
     inkscape:current-layer="layer1"
     showgrid="false"
     fit-margin-top="10"
     fit-margin-left="10"
     fit-margin-right="10"
     fit-margin-bottom="10"
     inkscape:window-width="954"
     inkscape:window-height="1028"
     inkscape:window-x="0"
     inkscape:window-y="0"
     inkscape:window-maximized="0" />
  <metadata
     id="metadata9624">
    <rdf:RDF>
      <cc:Work
         rdf:about="">
        <dc:format>image/svg+xml</dc:format>
        <dc:type
           rdf:resource="http://purl.org/dc/dcmitype/StillImage" />
        <dc:title></dc:title>
      </cc:Work>
    </rdf:RDF>
  </metadata>
  <g
     inkscape:label="Layer 1"
     inkscape:groupmode="layer"
     id="layer1"
     transform="translate(26.153649,-384.26933)">
    <g
       id="g9669"
       transform="matrix(0,1.25,1.25,0,199.03809,456.06933)">
      <path
         inkscape:connector-curvature="0"
         d="m 0,0 c -7.38,0 -13.44,12.06 -13.44,26.94 0,14.88 6.06,26.88 13.44,26.88 7.44,0 13.44,-12 13.44,-26.88 C 13.44,12.06 7.44,0 0,0"
         style="fill:#b2b2b2;fill-opacity:1;fill-rule:evenodd;stroke:none"
         id="path9671" />
    </g>
    <path
       inkscape:connector-curvature="0"
       d="m 216.73809,446.54433 0,19.425 28.05,0 0,-19.425 -28.05,0 z"
       style="fill:#b2b2b2;fill-opacity:1;fill-rule:nonzero;stroke:none"
       id="path9673" />
    <text
       id="text9675"
       x="216.81245"
       y="461.61932"
       style="font-size:15px">
      <tspan
         style="font-size:16.20000076px;font-variant:normal;font-weight:bold;font-stretch:normal;writing-mode:lr-tb;fill:#000000;fill-opacity:1;fill-rule:nonzero;stroke:none;font-family:Garamond;-inkscape-font-specification:Garamond-Bold"
         x="216.81245 223.56462 228.63197 236.38853 240.59731"
         y="461.61932"
         sodipodi:role="line"
         id="tspan9677">stall</tspan>
    </text>
    <path
       inkscape:connector-curvature="0"
       d="m 137.68809,394.79433 0,39.975 64.725,0 0,-39.975 -64.725,0 z"
       style="fill:#99ffcc;fill-opacity:1;fill-rule:nonzero;stroke:none"
       id="path9679" />
    <path
       inkscape:connector-curvature="0"
       d="m 137.16309,435.21933 0,-40.95 65.775,0 0,40.95 -65.775,0 z m 0,-40.95 z m 1.05,40.5 -0.525,-0.525 64.725,0 -0.525,0.525 0,-39.975 0.525,0.525 -64.725,0 0.525,-0.525"
       style="fill:#000000;fill-opacity:1;fill-rule:nonzero;stroke:none"
       id="path9681" />
    <text
       id="text9683"
       x="159.28746"
       y="423.21933"
       style="font-size:15px">
      <tspan
         style="font-size:24.30000114px;font-variant:normal;font-weight:bold;font-stretch:normal;writing-mode:lr-tb;fill:#000000;fill-opacity:1;fill-rule:nonzero;stroke:none;font-family:Arial;-inkscape-font-specification:Arial-BoldMT"
         x="159.28746 166.04044"
         y="423.21933"
         sodipodi:role="line"
         id="tspan9685">IF</tspan>
    </text>
    <path
       inkscape:connector-curvature="0"
       d="m 202.41309,394.79433 0,39.975 64.8,0 0,-39.975 -64.8,0 z"
       style="fill:#99ffcc;fill-opacity:1;fill-rule:nonzero;stroke:none"
       id="path9687" />
    <path
       inkscape:connector-curvature="0"
       d="m 201.88809,435.21933 0,-40.95 65.775,0 0,40.95 -65.775,0 z m 0,-40.95 z m 1.05,40.5 -0.525,-0.525 64.8,0 -0.525,0.525 0,-39.975 0.525,0.525 -64.8,0 0.525,-0.525"
       style="fill:#000000;fill-opacity:1;fill-rule:nonzero;stroke:none"
       id="path9689" />
    <text
       id="text9691"
       x="222.66246"
       y="423.21933"
       style="font-size:15px">
      <tspan
         style="font-size:24.30000114px;font-variant:normal;font-weight:bold;font-stretch:normal;writing-mode:lr-tb;fill:#000000;fill-opacity:1;fill-rule:nonzero;stroke:none;font-family:Arial;-inkscape-font-specification:Arial-BoldMT"
         x="222.66246 229.41544"
         y="423.21933"
         sodipodi:role="line"
         id="tspan9693">ID</tspan>
    </text>
    <path
       inkscape:connector-curvature="0"
       d="m 267.21309,394.79433 0,39.975 64.725,0 0,-39.975 -64.725,0 z"
       style="fill:#99ffcc;fill-opacity:1;fill-rule:nonzero;stroke:none"
       id="path9695" />
    <path
       inkscape:connector-curvature="0"
       d="m 266.68809,435.21933 0,-40.95 65.775,0 0,40.95 -65.775,0 z m 0,-40.95 z m 0.975,40.5 -0.45,-0.525 64.725,0 -0.525,0.525 0,-39.975 0.525,0.525 -64.725,0 0.45,-0.525"
       style="fill:#000000;fill-opacity:1;fill-rule:nonzero;stroke:none"
       id="path9697" />
    <text
       id="text9699"
       x="283.41248"
       y="423.21933"
       style="font-size:15px">
      <tspan
         style="font-size:24.30000114px;font-variant:normal;font-weight:bold;font-stretch:normal;writing-mode:lr-tb;fill:#000000;fill-opacity:1;fill-rule:nonzero;stroke:none;font-family:Arial;-inkscape-font-specification:Arial-BoldMT"
         x="283.41248 299.61328"
         y="423.21933"
         sodipodi:role="line"
         id="tspan9701">EX</tspan>
    </text>
    <path
       inkscape:connector-curvature="0"
       d="m 331.93809,394.79433 0,39.975 64.8,0 0,-39.975 -64.8,0 z"
       style="fill:#99ffcc;fill-opacity:1;fill-rule:nonzero;stroke:none"
       id="path9703" />
    <path
       inkscape:connector-curvature="0"
       d="m 331.41309,435.21933 0,-40.95 65.775,0 0,40.95 -65.775,0 z m 0,-40.95 z m 1.05,40.5 -0.525,-0.525 64.8,0 -0.525,0.525 0,-39.975 0.525,0.525 -64.8,0 0.525,-0.525"
       style="fill:#000000;fill-opacity:1;fill-rule:nonzero;stroke:none"
       id="path9705" />
    <text
       id="text9707"
       x="346.11246"
       y="423.21933"
       style="font-size:15px">
      <tspan
         style="font-size:24.30000114px;font-variant:normal;font-weight:bold;font-stretch:normal;writing-mode:lr-tb;fill:#000000;fill-opacity:1;fill-rule:nonzero;stroke:none;font-family:Arial;-inkscape-font-specification:Arial-BoldMT"
         x="346.11246 366.36166"
         y="423.21933"
         sodipodi:role="line"
         id="tspan9709">ME</tspan>
    </text>
    <path
       inkscape:connector-curvature="0"
       d="m 396.73809,394.79433 0,39.975 64.725,0 0,-39.975 -64.725,0 z"
       style="fill:#99ffcc;fill-opacity:1;fill-rule:nonzero;stroke:none"
       id="path9711" />
    <path
       inkscape:connector-curvature="0"
       d="m 396.21309,435.21933 0,-40.95 65.775,0 0,40.95 -65.775,0 z m 0,-40.95 z m 0.975,40.5 -0.45,-0.525 64.725,0 -0.525,0.525 0,-39.975 0.525,0.525 -64.725,0 0.45,-0.525"
       style="fill:#000000;fill-opacity:1;fill-rule:nonzero;stroke:none"
       id="path9713" />
    <text
       id="text9715"
       x="408.81247"
       y="423.21933"
       style="font-size:15px">
      <tspan
         style="font-size:24.30000114px;font-variant:normal;font-weight:bold;font-stretch:normal;writing-mode:lr-tb;fill:#000000;fill-opacity:1;fill-rule:nonzero;stroke:none;font-family:Arial;-inkscape-font-specification:Arial-BoldMT"
         x="408.81247 431.76624"
         y="423.21933"
         sodipodi:role="line"
         id="tspan9717">WB</tspan>
    </text>
    <text
       id="text9719"
       x="-15.987535"
       y="422.31934"
       style="font-size:15px">
      <tspan
         style="font-size:16.20000076px;font-variant:normal;font-weight:bold;font-stretch:normal;writing-mode:lr-tb;fill:#000000;fill-opacity:1;fill-rule:nonzero;stroke:none;font-family:Courier New;-inkscape-font-specification:CourierNewPS-BoldMT"
         x="-15.987535 -6.2383752 3.5107846 13.259944 23.107924 32.857082 42.606243 52.355404 62.203384 71.952545 81.701706 91.450867 101.29884 111.048"
         y="422.31934"
         sodipodi:role="line"
         id="tspan9721">beq $1, $3, L1</tspan>
    </text>
    <path
       inkscape:connector-curvature="0"
       d="m 268.71309,435.21933 0,39.975 64.725,0 0,-39.975 -64.725,0 z"
       style="fill:#99ffcc;fill-opacity:1;fill-rule:nonzero;stroke:none"
       id="path9723" />
    <path
       inkscape:connector-curvature="0"
       d="m 268.18809,475.71933 0,-40.95 65.775,0 0,40.95 -65.775,0 z m 0,-40.95 z m 1.05,40.425 -0.525,-0.45 64.725,0 -0.45,0.45 0,-39.975 0.45,0.525 -64.725,0 0.525,-0.525"
       style="fill:#000000;fill-opacity:1;fill-rule:nonzero;stroke:none"
       id="path9725" />
    <text
       id="text9727"
       x="290.31247"
       y="463.71933"
       style="font-size:15px">
      <tspan
         style="font-size:24.30000114px;font-variant:normal;font-weight:bold;font-stretch:normal;writing-mode:lr-tb;fill:#000000;fill-opacity:1;fill-rule:nonzero;stroke:none;font-family:Arial;-inkscape-font-specification:Arial-BoldMT"
         x="290.31247 297.06543"
         y="463.71933"
         sodipodi:role="line"
         id="tspan9729">IF</tspan>
    </text>
    <path
       inkscape:connector-curvature="0"
       d="m 333.43809,435.21933 0,39.975 64.8,0 0,-39.975 -64.8,0 z"
       style="fill:#99ffcc;fill-opacity:1;fill-rule:nonzero;stroke:none"
       id="path9731" />
    <path
       inkscape:connector-curvature="0"
       d="m 332.98809,475.71933 0,-40.95 65.775,0 0,40.95 -65.775,0 z m 0,-40.95 z m 0.975,40.425 -0.525,-0.45 64.8,0 -0.525,0.45 0,-39.975 0.525,0.525 -64.8,0 0.525,-0.525"
       style="fill:#000000;fill-opacity:1;fill-rule:nonzero;stroke:none"
       id="path9733" />
    <text
       id="text9735"
       x="353.68747"
       y="463.71933"
       style="font-size:15px">
      <tspan
         style="font-size:24.30000114px;font-variant:normal;font-weight:bold;font-stretch:normal;writing-mode:lr-tb;fill:#000000;fill-opacity:1;fill-rule:nonzero;stroke:none;font-family:Arial;-inkscape-font-specification:Arial-BoldMT"
         x="353.68747 360.44043"
         y="463.71933"
         sodipodi:role="line"
         id="tspan9737">ID</tspan>
    </text>
    <path
       inkscape:connector-curvature="0"
       d="m 398.23809,435.21933 0,39.975 64.725,0 0,-39.975 -64.725,0 z"
       style="fill:#99ffcc;fill-opacity:1;fill-rule:nonzero;stroke:none"
       id="path9739" />
    <path
       inkscape:connector-curvature="0"
       d="m 397.71309,475.71933 0,-40.95 65.775,0 0,40.95 -65.775,0 z m 0,-40.95 z m 1.05,40.425 -0.525,-0.45 64.725,0 -0.45125,0.45 0,-39.975 0.45125,0.525 -64.725,0 0.525,-0.525"
       style="fill:#000000;fill-opacity:1;fill-rule:nonzero;stroke:none"
       id="path9741" />
    <text
       id="text9743"
       x="414.43747"
       y="463.71933"
       style="font-size:15px">
      <tspan
         style="font-size:24.30000114px;font-variant:normal;font-weight:bold;font-stretch:normal;writing-mode:lr-tb;fill:#000000;fill-opacity:1;fill-rule:nonzero;stroke:none;font-family:Arial;-inkscape-font-specification:Arial-BoldMT"
         x="414.43747 430.63828"
         y="463.71933"
         sodipodi:role="line"
         id="tspan9745">EX</tspan>
    </text>
    <path
       inkscape:connector-curvature="0"
       d="m 462.96309,435.21933 0,39.975 64.8,0 0,-39.975 -64.8,0 z"
       style="fill:#99ffcc;fill-opacity:1;fill-rule:nonzero;stroke:none"
       id="path9747" />
    <path
       inkscape:connector-curvature="0"
       d="m 462.51184,475.71933 0,-40.95 65.775,0 0,40.95 -65.775,0 z m 0,-40.95 z m 0.97625,40.425 -0.525,-0.45 64.79875,0 -0.52375,0.45 0,-39.975 0.52375,0.525 -64.79875,0 0.525,-0.525"
       style="fill:#000000;fill-opacity:1;fill-rule:nonzero;stroke:none"
       id="path9749" />
    <text
       id="text9751"
       x="477.13748"
       y="463.71933"
       style="font-size:15px">
      <tspan
         style="font-size:24.30000114px;font-variant:normal;font-weight:bold;font-stretch:normal;writing-mode:lr-tb;fill:#000000;fill-opacity:1;fill-rule:nonzero;stroke:none;font-family:Arial;-inkscape-font-specification:Arial-BoldMT"
         x="477.13748 497.38666"
         y="463.71933"
         sodipodi:role="line"
         id="tspan9753">ME</tspan>
    </text>
    <path
       inkscape:connector-curvature="0"
       d="m 527.76184,435.21933 0,39.975 64.725,0 0,-39.975 -64.725,0 z"
       style="fill:#99ffcc;fill-opacity:1;fill-rule:nonzero;stroke:none"
       id="path9755" />
    <path
       inkscape:connector-curvature="0"
       d="m 527.23809,475.71933 0,-40.95 65.775,0 0,40.95 -65.775,0 z m 0,-40.95 z m 1.05,40.425 -0.52625,-0.45 64.72625,0 -0.52625,0.45 0,-39.975 0.52625,0.525 -64.72625,0 0.52625,-0.525"
       style="fill:#000000;fill-opacity:1;fill-rule:nonzero;stroke:none"
       id="path9757" />
    <text
       id="text9759"
       x="539.91248"
       y="463.71933"
       style="font-size:15px">
      <tspan
         style="font-size:24.30000114px;font-variant:normal;font-weight:bold;font-stretch:normal;writing-mode:lr-tb;fill:#000000;fill-opacity:1;fill-rule:nonzero;stroke:none;font-family:Arial;-inkscape-font-specification:Arial-BoldMT"
         x="539.91248 562.86621"
         y="463.71933"
         sodipodi:role="line"
         id="tspan9761">WB</tspan>
    </text>
    <text
       id="text9763"
       x="-15.987535"
       y="462.81934"
       style="font-size:15px">
      <tspan
         style="font-size:16.20000076px;font-variant:normal;font-weight:bold;font-stretch:normal;writing-mode:lr-tb;fill:#000000;fill-opacity:1;fill-rule:nonzero;stroke:none;font-family:Courier New;-inkscape-font-specification:CourierNewPS-BoldMT"
         x="-15.987535 -6.2383752 3.5107846 13.259944 23.132225 32.881382 42.630543 52.379704 62.128864 72.001144 81.750305 91.499466 101.24862 111.1209 120.87006"
         y="462.81934"
         sodipodi:role="line"
         id="tspan9765">and $12, $2, $5</tspan>
    </text>
    <path
       inkscape:connector-curvature="0"
       d="m 333.43809,475.71933 0,39.975 64.8,0 0,-39.975 -64.8,0 z"
       style="fill:#99ffcc;fill-opacity:1;fill-rule:nonzero;stroke:none"
       id="path9767" />
    <path
       inkscape:connector-curvature="0"
       d="m 332.98809,516.21933 0,-41.025 65.775,0 0,41.025 -65.775,0 z m 0,-41.025 z m 0.975,40.5 -0.525,-0.525 64.8,0 -0.525,0.525 0,-39.975 0.525,0.525 -64.8,0 0.525,-0.525"
       style="fill:#000000;fill-opacity:1;fill-rule:nonzero;stroke:none"
       id="path9769" />
    <text
       id="text9771"
       x="355.03745"
       y="504.21933"
       style="font-size:15px">
      <tspan
         style="font-size:24.30000114px;font-variant:normal;font-weight:bold;font-stretch:normal;writing-mode:lr-tb;fill:#000000;fill-opacity:1;fill-rule:nonzero;stroke:none;font-family:Arial;-inkscape-font-specification:Arial-BoldMT"
         x="355.03745 361.79044"
         y="504.21933"
         sodipodi:role="line"
         id="tspan9773">IF</tspan>
    </text>
    <path
       inkscape:connector-curvature="0"
       d="m 398.23809,475.71933 0,39.975 64.725,0 0,-39.975 -64.725,0 z"
       style="fill:#99ffcc;fill-opacity:1;fill-rule:nonzero;stroke:none"
       id="path9775" />
    <path
       inkscape:connector-curvature="0"
       d="m 397.71309,516.21933 0,-41.025 65.775,0 0,41.025 -65.775,0 z m 0,-41.025 z m 1.05,40.5 -0.525,-0.525 64.725,0 -0.45125,0.525 0,-39.975 0.45125,0.525 -64.725,0 0.525,-0.525"
       style="fill:#000000;fill-opacity:1;fill-rule:nonzero;stroke:none"
       id="path9777" />
    <text
       id="text9779"
       x="418.48746"
       y="504.21933"
       style="font-size:15px">
      <tspan
         style="font-size:24.30000114px;font-variant:normal;font-weight:bold;font-stretch:normal;writing-mode:lr-tb;fill:#000000;fill-opacity:1;fill-rule:nonzero;stroke:none;font-family:Arial;-inkscape-font-specification:Arial-BoldMT"
         x="418.48746 425.24042"
         y="504.21933"
         sodipodi:role="line"
         id="tspan9781">ID</tspan>
    </text>
    <path
       inkscape:connector-curvature="0"
       d="m 462.96309,475.71933 0,39.975 64.8,0 0,-39.975 -64.8,0 z"
       style="fill:#99ffcc;fill-opacity:1;fill-rule:nonzero;stroke:none"
       id="path9783" />
    <path
       inkscape:connector-curvature="0"
       d="m 462.51184,516.21933 0,-41.025 65.775,0 0,41.025 -65.775,0 z m 0,-41.025 z m 0.97625,40.5 -0.525,-0.525 64.79875,0 -0.52375,0.525 0,-39.975 0.52375,0.525 -64.79875,0 0.525,-0.525"
       style="fill:#000000;fill-opacity:1;fill-rule:nonzero;stroke:none"
       id="path9785" />
    <text
       id="text9787"
       x="479.16245"
       y="504.21933"
       style="font-size:15px">
      <tspan
         style="font-size:24.30000114px;font-variant:normal;font-weight:bold;font-stretch:normal;writing-mode:lr-tb;fill:#000000;fill-opacity:1;fill-rule:nonzero;stroke:none;font-family:Arial;-inkscape-font-specification:Arial-BoldMT"
         x="479.16245 495.36328"
         y="504.21933"
         sodipodi:role="line"
         id="tspan9789">EX</tspan>
    </text>
    <path
       inkscape:connector-curvature="0"
       d="m 527.76184,475.71933 0,39.975 64.725,0 0,-39.975 -64.725,0 z"
       style="fill:#99ffcc;fill-opacity:1;fill-rule:nonzero;stroke:none"
       id="path9791" />
    <path
       inkscape:connector-curvature="0"
       d="m 527.23809,516.21933 0,-41.025 65.775,0 0,41.025 -65.775,0 z m 0,-41.025 z m 1.05,40.5 -0.52625,-0.525 64.72625,0 -0.52625,0.525 0,-39.975 0.52625,0.525 -64.72625,0 0.52625,-0.525"
       style="fill:#000000;fill-opacity:1;fill-rule:nonzero;stroke:none"
       id="path9793" />
    <text
       id="text9795"
       x="541.9375"
       y="504.21933"
       style="font-size:15px">
      <tspan
         style="font-size:24.30000114px;font-variant:normal;font-weight:bold;font-stretch:normal;writing-mode:lr-tb;fill:#000000;fill-opacity:1;fill-rule:nonzero;stroke:none;font-family:Arial;-inkscape-font-specification:Arial-BoldMT"
         x="541.9375 562.18665"
         y="504.21933"
         sodipodi:role="line"
         id="tspan9797">ME</tspan>
    </text>
    <path
       inkscape:connector-curvature="0"
       d="m 592.48809,475.71933 0,39.975 64.8,0 0,-39.975 -64.8,0 z"
       style="fill:#99ffcc;fill-opacity:1;fill-rule:nonzero;stroke:none"
       id="path9799" />
    <path
       inkscape:connector-curvature="0"
       d="m 591.96184,516.21933 0,-41.025 65.775,0 0,41.025 -65.775,0 z m 0,-41.025 z m 1.05125,40.5 -0.525,-0.525 64.79875,0 -0.52375,0.525 0,-39.975 0.52375,0.525 -64.79875,0 0.525,-0.525"
       style="fill:#000000;fill-opacity:1;fill-rule:nonzero;stroke:none"
       id="path9801" />
    <text
       id="text9803"
       x="604.63745"
       y="504.21933"
       style="font-size:15px">
      <tspan
         style="font-size:24.30000114px;font-variant:normal;font-weight:bold;font-stretch:normal;writing-mode:lr-tb;fill:#000000;fill-opacity:1;fill-rule:nonzero;stroke:none;font-family:Arial;-inkscape-font-specification:Arial-BoldMT"
         x="604.63745 627.59125"
         y="504.21933"
         sodipodi:role="line"
         id="tspan9805">WB</tspan>
    </text>
    <text
       id="text9807"
       x="-10.812535"
       y="503.31934"
       style="font-size:15px">
      <tspan
         style="font-size:16.20000076px;font-variant:normal;font-weight:bold;font-stretch:normal;writing-mode:lr-tb;fill:#000000;fill-opacity:1;fill-rule:nonzero;stroke:none;font-family:Courier New;-inkscape-font-specification:CourierNewPS-BoldMT"
         x="-10.812535 -1.0633752 8.6857843 18.558065 28.307226 38.056385 47.805542 57.554703 67.426987 77.176147 86.925301 96.674469 106.54674 116.29591"
         y="503.31934"
         sodipodi:role="line"
         id="tspan9809">or $13, $6, $2</tspan>
    </text>
    <path
       inkscape:connector-curvature="0"
       d="m 398.23809,516.21933 0,39.975 64.725,0 0,-39.975 -64.725,0 z"
       style="fill:#99ffcc;fill-opacity:1;fill-rule:nonzero;stroke:none"
       id="path9811" />
    <path
       inkscape:connector-curvature="0"
       d="m 397.71309,556.64433 0,-40.95 65.775,0 0,40.95 -65.775,0 z m 0,-40.95 z m 1.05,40.5 -0.525,-0.525 64.725,0 -0.45125,0.525 0,-39.975 0.45125,0.525 -64.725,0 0.525,-0.525"
       style="fill:#000000;fill-opacity:1;fill-rule:nonzero;stroke:none"
       id="path9813" />
    <text
       id="text9815"
       x="419.83746"
       y="544.64435"
       style="font-size:15px">
      <tspan
         style="font-size:24.30000114px;font-variant:normal;font-weight:bold;font-stretch:normal;writing-mode:lr-tb;fill:#000000;fill-opacity:1;fill-rule:nonzero;stroke:none;font-family:Arial;-inkscape-font-specification:Arial-BoldMT"
         x="419.83746 426.59045"
         y="544.64435"
         sodipodi:role="line"
         id="tspan9817">IF</tspan>
    </text>
    <path
       inkscape:connector-curvature="0"
       d="m 462.96309,516.21933 0,39.975 64.8,0 0,-39.975 -64.8,0 z"
       style="fill:#99ffcc;fill-opacity:1;fill-rule:nonzero;stroke:none"
       id="path9819" />
    <path
       inkscape:connector-curvature="0"
       d="m 462.51184,556.64433 0,-40.95 65.775,0 0,40.95 -65.775,0 z m 0,-40.95 z m 0.97625,40.5 -0.525,-0.525 64.79875,0 -0.52375,0.525 0,-39.975 0.52375,0.525 -64.79875,0 0.525,-0.525"
       style="fill:#000000;fill-opacity:1;fill-rule:nonzero;stroke:none"
       id="path9821" />
    <text
       id="text9823"
       x="483.21246"
       y="544.64435"
       style="font-size:15px">
      <tspan
         style="font-size:24.30000114px;font-variant:normal;font-weight:bold;font-stretch:normal;writing-mode:lr-tb;fill:#000000;fill-opacity:1;fill-rule:nonzero;stroke:none;font-family:Arial;-inkscape-font-specification:Arial-BoldMT"
         x="483.21246 489.96542"
         y="544.64435"
         sodipodi:role="line"
         id="tspan9825">ID</tspan>
    </text>
    <path
       inkscape:connector-curvature="0"
       d="m 527.76184,516.21933 0,39.975 64.725,0 0,-39.975 -64.725,0 z"
       style="fill:#99ffcc;fill-opacity:1;fill-rule:nonzero;stroke:none"
       id="path9827" />
    <path
       inkscape:connector-curvature="0"
       d="m 527.23809,556.64433 0,-40.95 65.775,0 0,40.95 -65.775,0 z m 0,-40.95 z m 1.05,40.5 -0.52625,-0.525 64.72625,0 -0.52625,0.525 0,-39.975 0.52625,0.525 -64.72625,0 0.52625,-0.525"
       style="fill:#000000;fill-opacity:1;fill-rule:nonzero;stroke:none"
       id="path9829" />
    <text
       id="text9831"
       x="543.96246"
       y="544.64435"
       style="font-size:15px">
      <tspan
         style="font-size:24.30000114px;font-variant:normal;font-weight:bold;font-stretch:normal;writing-mode:lr-tb;fill:#000000;fill-opacity:1;fill-rule:nonzero;stroke:none;font-family:Arial;-inkscape-font-specification:Arial-BoldMT"
         x="543.96246 560.16327"
         y="544.64435"
         sodipodi:role="line"
         id="tspan9833">EX</tspan>
    </text>
    <path
       inkscape:connector-curvature="0"
       d="m 592.48809,516.21933 0,39.975 64.8,0 0,-39.975 -64.8,0 z"
       style="fill:#99ffcc;fill-opacity:1;fill-rule:nonzero;stroke:none"
       id="path9835" />
    <path
       inkscape:connector-curvature="0"
       d="m 591.96184,556.64433 0,-40.95 65.775,0 0,40.95 -65.775,0 z m 0,-40.95 z m 1.05125,40.5 -0.525,-0.525 64.79875,0 -0.52375,0.525 0,-39.975 0.52375,0.525 -64.79875,0 0.525,-0.525"
       style="fill:#000000;fill-opacity:1;fill-rule:nonzero;stroke:none"
       id="path9837" />
    <text
       id="text9839"
       x="606.66248"
       y="544.64435"
       style="font-size:15px">
      <tspan
         style="font-size:24.30000114px;font-variant:normal;font-weight:bold;font-stretch:normal;writing-mode:lr-tb;fill:#000000;fill-opacity:1;fill-rule:nonzero;stroke:none;font-family:Arial;-inkscape-font-specification:Arial-BoldMT"
         x="606.66248 626.91162"
         y="544.64435"
         sodipodi:role="line"
         id="tspan9841">ME</tspan>
    </text>
    <path
       inkscape:connector-curvature="0"
       d="m 657.28684,516.21933 0,39.975 64.725,0 0,-39.975 -64.725,0 z"
       style="fill:#99ffcc;fill-opacity:1;fill-rule:nonzero;stroke:none"
       id="path9843" />
    <path
       inkscape:connector-curvature="0"
       d="m 656.76309,556.64433 0,-40.95 65.775,0 0,40.95 -65.775,0 z m 0,-40.95 z m 0.975,40.5 -0.45125,-0.525 64.72625,0 -0.52625,0.525 0,-39.975 0.52625,0.525 -64.72625,0 0.45125,-0.525"
       style="fill:#000000;fill-opacity:1;fill-rule:nonzero;stroke:none"
       id="path9845" />
    <text
       id="text9847"
       x="669.4375"
       y="544.64435"
       style="font-size:15px">
      <tspan
         style="font-size:24.30000114px;font-variant:normal;font-weight:bold;font-stretch:normal;writing-mode:lr-tb;fill:#000000;fill-opacity:1;fill-rule:nonzero;stroke:none;font-family:Arial;-inkscape-font-specification:Arial-BoldMT"
         x="669.4375 692.39124"
         y="544.64435"
         sodipodi:role="line"
         id="tspan9849">WB</tspan>
    </text>
    <text
       id="text9851"
       x="-15.987535"
       y="543.74432"
       style="font-size:15px">
      <tspan
         style="font-size:16.20000076px;font-variant:normal;font-weight:bold;font-stretch:normal;writing-mode:lr-tb;fill:#000000;fill-opacity:1;fill-rule:nonzero;stroke:none;font-family:Courier New;-inkscape-font-specification:CourierNewPS-BoldMT"
         x="-15.987535 -6.2383752 3.5107846 13.259944 23.132225 32.881382 42.630543 52.379704 62.128864 72.001144 81.750305 91.499466 101.24862 111.1209 120.87006"
         y="543.74432"
         sodipodi:role="line"
         id="tspan9853">add $14, $2, $2</tspan>
    </text>
  </g>
</svg>
