<?xml version="1.0" encoding="UTF-8" standalone="no"?>
<!-- Created with Inkscape (http://www.inkscape.org/) -->

<svg
   xmlns:dc="http://purl.org/dc/elements/1.1/"
   xmlns:cc="http://creativecommons.org/ns#"
   xmlns:rdf="http://www.w3.org/1999/02/22-rdf-syntax-ns#"
   xmlns:svg="http://www.w3.org/2000/svg"
   xmlns="http://www.w3.org/2000/svg"
   xmlns:sodipodi="http://sodipodi.sourceforge.net/DTD/sodipodi-0.dtd"
   xmlns:inkscape="http://www.inkscape.org/namespaces/inkscape"
   width="787.0462"
   height="222.95"
   id="svg10571"
   version="1.1"
   inkscape:version="0.48.4 r9939"
   sodipodi:docname="New document 25">
  <defs
     id="defs10573">
    <clipPath
       id="clipPath10599"
       clipPathUnits="userSpaceOnUse">
      <path
         id="path10601"
         d="m 0,841.98 595.2,0 L 595.2,0 0,0 0,841.98 z"
         inkscape:connector-curvature="0" />
    </clipPath>
    <clipPath
       id="clipPath10593"
       clipPathUnits="userSpaceOnUse">
      <path
         id="path10595"
         clip-rule="evenodd"
         d="m 588.84,0.11053 -582.84,0 0,841.86 582.84,0 0,-841.86 z"
         inkscape:connector-curvature="0" />
    </clipPath>
  </defs>
  <sodipodi:namedview
     id="base"
     pagecolor="#ffffff"
     bordercolor="#666666"
     borderopacity="1.0"
     inkscape:pageopacity="0.0"
     inkscape:pageshadow="2"
     inkscape:zoom="0.35"
     inkscape:cx="448.15224"
     inkscape:cy="293.86786"
     inkscape:document-units="px"
     inkscape:current-layer="layer1"
     showgrid="false"
     fit-margin-top="10"
     fit-margin-left="10"
     fit-margin-right="10"
     fit-margin-bottom="10"
     inkscape:window-width="954"
     inkscape:window-height="1028"
     inkscape:window-x="0"
     inkscape:window-y="0"
     inkscape:window-maximized="0" />
  <metadata
     id="metadata10576">
    <rdf:RDF>
      <cc:Work
         rdf:about="">
        <dc:format>image/svg+xml</dc:format>
        <dc:type
           rdf:resource="http://purl.org/dc/dcmitype/StillImage" />
        <dc:title></dc:title>
      </cc:Work>
    </rdf:RDF>
  </metadata>
  <g
     inkscape:label="Layer 1"
     inkscape:groupmode="layer"
     id="layer1"
     transform="translate(73.152243,-603.28004)">
    <path
       inkscape:connector-curvature="0"
       d="m 120.54523,613.80504 0,39.975 64.725,0 0,-39.975 -64.725,0 z"
       style="fill:#99ffcc;fill-opacity:1;fill-rule:nonzero;stroke:none"
       id="path10659" />
    <path
       inkscape:connector-curvature="0"
       d="m 120.02023,654.30504 0,-41.025 65.775,0 0,41.025 -65.775,0 z m 0,-41.025 z m 1.05,40.5 -0.525,-0.525 64.725,0 -0.525,0.525 0,-39.975 0.525,0.525 -64.725,0 0.525,-0.525"
       style="fill:#000000;fill-opacity:1;fill-rule:nonzero;stroke:none"
       id="path10661" />
    <text
       id="text10663"
       x="142.14461"
       y="642.30505"
       style="font-size:15px">
      <tspan
         style="font-size:24.30000114px;font-variant:normal;font-weight:bold;font-stretch:normal;writing-mode:lr-tb;fill:#000000;fill-opacity:1;fill-rule:nonzero;stroke:none;font-family:Arial;-inkscape-font-specification:Arial-BoldMT"
         x="142.14461 148.89757"
         y="642.30505"
         sodipodi:role="line"
         id="tspan10665">IF</tspan>
    </text>
    <path
       inkscape:connector-curvature="0"
       d="m 185.27023,613.80504 0,39.975 64.8,0 0,-39.975 -64.8,0 z"
       style="fill:#99ffcc;fill-opacity:1;fill-rule:nonzero;stroke:none"
       id="path10667" />
    <path
       inkscape:connector-curvature="0"
       d="m 184.74523,654.30504 0,-41.025 65.775,0 0,41.025 -65.775,0 z m 0,-41.025 z m 1.05,40.5 -0.525,-0.525 64.8,0 -0.525,0.525 0,-39.975 0.525,0.525 -64.8,0 0.525,-0.525"
       style="fill:#000000;fill-opacity:1;fill-rule:nonzero;stroke:none"
       id="path10669" />
    <text
       id="text10671"
       x="205.51961"
       y="642.30505"
       style="font-size:15px">
      <tspan
         style="font-size:24.30000114px;font-variant:normal;font-weight:bold;font-stretch:normal;writing-mode:lr-tb;fill:#000000;fill-opacity:1;fill-rule:nonzero;stroke:none;font-family:Arial;-inkscape-font-specification:Arial-BoldMT"
         x="205.51961 212.27257"
         y="642.30505"
         sodipodi:role="line"
         id="tspan10673">ID</tspan>
    </text>
    <path
       inkscape:connector-curvature="0"
       d="m 250.07023,613.80504 0,39.975 64.725,0 0,-39.975 -64.725,0 z"
       style="fill:#99ffcc;fill-opacity:1;fill-rule:nonzero;stroke:none"
       id="path10675" />
    <path
       inkscape:connector-curvature="0"
       d="m 249.54523,654.30504 0,-41.025 65.775,0 0,41.025 -65.775,0 z m 0,-41.025 z m 0.975,40.5 -0.45,-0.525 64.725,0 -0.525,0.525 0,-39.975 0.525,0.525 -64.725,0 0.45,-0.525"
       style="fill:#000000;fill-opacity:1;fill-rule:nonzero;stroke:none"
       id="path10677" />
    <text
       id="text10679"
       x="266.26962"
       y="642.30505"
       style="font-size:15px">
      <tspan
         style="font-size:24.30000114px;font-variant:normal;font-weight:bold;font-stretch:normal;writing-mode:lr-tb;fill:#000000;fill-opacity:1;fill-rule:nonzero;stroke:none;font-family:Arial;-inkscape-font-specification:Arial-BoldMT"
         x="266.26962 282.47043"
         y="642.30505"
         sodipodi:role="line"
         id="tspan10681">EX</tspan>
    </text>
    <path
       inkscape:connector-curvature="0"
       d="m 314.79523,613.80504 0,39.975 64.8,0 0,-39.975 -64.8,0 z"
       style="fill:#99ffcc;fill-opacity:1;fill-rule:nonzero;stroke:none"
       id="path10683" />
    <path
       inkscape:connector-curvature="0"
       d="m 314.27023,654.30504 0,-41.025 65.775,0 0,41.025 -65.775,0 z m 0,-41.025 z m 1.05,40.5 -0.525,-0.525 64.8,0 -0.525,0.525 0,-39.975 0.525,0.525 -64.8,0 0.525,-0.525"
       style="fill:#000000;fill-opacity:1;fill-rule:nonzero;stroke:none"
       id="path10685" />
    <text
       id="text10687"
       x="328.9696"
       y="642.30505"
       style="font-size:15px">
      <tspan
         style="font-size:24.30000114px;font-variant:normal;font-weight:bold;font-stretch:normal;writing-mode:lr-tb;fill:#000000;fill-opacity:1;fill-rule:nonzero;stroke:none;font-family:Arial;-inkscape-font-specification:Arial-BoldMT"
         x="328.9696 349.21878"
         y="642.30505"
         sodipodi:role="line"
         id="tspan10689">ME</tspan>
    </text>
    <path
       inkscape:connector-curvature="0"
       d="m 379.59523,613.80504 0,39.975 64.725,0 0,-39.975 -64.725,0 z"
       style="fill:#99ffcc;fill-opacity:1;fill-rule:nonzero;stroke:none"
       id="path10691" />
    <path
       inkscape:connector-curvature="0"
       d="m 379.07023,654.30504 0,-41.025 65.775,0 0,41.025 -65.775,0 z m 0,-41.025 z m 0.975,40.5 -0.45,-0.525 64.725,0 -0.525,0.525 0,-39.975 0.525,0.525 -64.725,0 0.45,-0.525"
       style="fill:#000000;fill-opacity:1;fill-rule:nonzero;stroke:none"
       id="path10693" />
    <text
       id="text10695"
       x="391.66962"
       y="642.30505"
       style="font-size:15px">
      <tspan
         style="font-size:24.30000114px;font-variant:normal;font-weight:bold;font-stretch:normal;writing-mode:lr-tb;fill:#000000;fill-opacity:1;fill-rule:nonzero;stroke:none;font-family:Arial;-inkscape-font-specification:Arial-BoldMT"
         x="391.66962 414.62338"
         y="642.30505"
         sodipodi:role="line"
         id="tspan10697">WB</tspan>
    </text>
    <text
       id="text10699"
       x="-63.35527"
       y="640.73004"
       style="font-size:15px">
      <tspan
         style="font-size:18.89999962px;font-variant:normal;font-weight:bold;font-stretch:normal;writing-mode:lr-tb;fill:#000000;fill-opacity:1;fill-rule:nonzero;stroke:none;font-family:Courier New;-inkscape-font-specification:CourierNewPS-BoldMT"
         x="-63.35527 -52.05307 -40.75087 -29.448669 -18.146467 -6.8442683 4.457931 15.76013 27.083124 38.385319 49.687523 60.989719 72.291924 83.594116"
         y="640.73004"
         sodipodi:role="line"
         id="tspan10701">Untaken branch</tspan>
    </text>
    <path
       inkscape:connector-curvature="0"
       d="m 185.27023,654.30504 0,39.975 64.8,0 0,-39.975 -64.8,0 z"
       style="fill:#99ffcc;fill-opacity:1;fill-rule:nonzero;stroke:none"
       id="path10703" />
    <path
       inkscape:connector-curvature="0"
       d="m 184.74523,694.80504 0,-41.025 65.775,0 0,41.025 -65.775,0 z m 0,-41.025 z m 1.05,40.5 -0.525,-0.525 64.8,0 -0.525,0.525 0,-39.975 0.525,0.525 -64.8,0 0.525,-0.525"
       style="fill:#000000;fill-opacity:1;fill-rule:nonzero;stroke:none"
       id="path10705" />
    <text
       id="text10707"
       x="206.8696"
       y="682.73004"
       style="font-size:15px">
      <tspan
         style="font-size:24.30000114px;font-variant:normal;font-weight:bold;font-stretch:normal;writing-mode:lr-tb;fill:#000000;fill-opacity:1;fill-rule:nonzero;stroke:none;font-family:Arial;-inkscape-font-specification:Arial-BoldMT"
         x="206.8696 213.62257"
         y="682.73004"
         sodipodi:role="line"
         id="tspan10709">IF</tspan>
    </text>
    <path
       inkscape:connector-curvature="0"
       d="m 250.07023,654.30504 0,39.975 64.725,0 0,-39.975 -64.725,0 z"
       style="fill:#99ffcc;fill-opacity:1;fill-rule:nonzero;stroke:none"
       id="path10711" />
    <path
       inkscape:connector-curvature="0"
       d="m 249.54523,694.80504 0,-41.025 65.775,0 0,41.025 -65.775,0 z m 0,-41.025 z m 0.975,40.5 -0.45,-0.525 64.725,0 -0.525,0.525 0,-39.975 0.525,0.525 -64.725,0 0.45,-0.525"
       style="fill:#000000;fill-opacity:1;fill-rule:nonzero;stroke:none"
       id="path10713" />
    <text
       id="text10715"
       x="270.31961"
       y="682.73004"
       style="font-size:15px">
      <tspan
         style="font-size:24.30000114px;font-variant:normal;font-weight:bold;font-stretch:normal;writing-mode:lr-tb;fill:#000000;fill-opacity:1;fill-rule:nonzero;stroke:none;font-family:Arial;-inkscape-font-specification:Arial-BoldMT"
         x="270.31961 277.07257"
         y="682.73004"
         sodipodi:role="line"
         id="tspan10717">ID</tspan>
    </text>
    <path
       inkscape:connector-curvature="0"
       d="m 314.79523,654.30504 0,39.975 64.8,0 0,-39.975 -64.8,0 z"
       style="fill:#99ffcc;fill-opacity:1;fill-rule:nonzero;stroke:none"
       id="path10719" />
    <path
       inkscape:connector-curvature="0"
       d="m 314.27023,694.80504 0,-41.025 65.775,0 0,41.025 -65.775,0 z m 0,-41.025 z m 1.05,40.5 -0.525,-0.525 64.8,0 -0.525,0.525 0,-39.975 0.525,0.525 -64.8,0 0.525,-0.525"
       style="fill:#000000;fill-opacity:1;fill-rule:nonzero;stroke:none"
       id="path10721" />
    <text
       id="text10723"
       x="330.9946"
       y="682.73004"
       style="font-size:15px">
      <tspan
         style="font-size:24.30000114px;font-variant:normal;font-weight:bold;font-stretch:normal;writing-mode:lr-tb;fill:#000000;fill-opacity:1;fill-rule:nonzero;stroke:none;font-family:Arial;-inkscape-font-specification:Arial-BoldMT"
         x="330.9946 347.1954"
         y="682.73004"
         sodipodi:role="line"
         id="tspan10725">EX</tspan>
    </text>
    <path
       inkscape:connector-curvature="0"
       d="m 379.59523,654.30504 0,39.975 64.725,0 0,-39.975 -64.725,0 z"
       style="fill:#99ffcc;fill-opacity:1;fill-rule:nonzero;stroke:none"
       id="path10727" />
    <path
       inkscape:connector-curvature="0"
       d="m 379.07023,694.80504 0,-41.025 65.775,0 0,41.025 -65.775,0 z m 0,-41.025 z m 0.975,40.5 -0.45,-0.525 64.725,0 -0.525,0.525 0,-39.975 0.525,0.525 -64.725,0 0.45,-0.525"
       style="fill:#000000;fill-opacity:1;fill-rule:nonzero;stroke:none"
       id="path10729" />
    <text
       id="text10731"
       x="393.69461"
       y="682.73004"
       style="font-size:15px">
      <tspan
         style="font-size:24.30000114px;font-variant:normal;font-weight:bold;font-stretch:normal;writing-mode:lr-tb;fill:#000000;fill-opacity:1;fill-rule:nonzero;stroke:none;font-family:Arial;-inkscape-font-specification:Arial-BoldMT"
         x="393.69461 413.94379"
         y="682.73004"
         sodipodi:role="line"
         id="tspan10733">ME</tspan>
    </text>
    <path
       inkscape:connector-curvature="0"
       d="m 444.32023,654.30504 0,39.975 64.8,0 0,-39.975 -64.8,0 z"
       style="fill:#99ffcc;fill-opacity:1;fill-rule:nonzero;stroke:none"
       id="path10735" />
    <path
       inkscape:connector-curvature="0"
       d="m 443.79523,694.80504 0,-41.025 65.775,0 0,41.025 -65.775,0 z m 0,-41.025 z m 1.04875,40.5 -0.52375,-0.525 64.8,0 -0.52625,0.525 0,-39.975 0.52625,0.525 -64.8,0 0.52375,-0.525"
       style="fill:#000000;fill-opacity:1;fill-rule:nonzero;stroke:none"
       id="path10737" />
    <text
       id="text10739"
       x="456.4696"
       y="682.73004"
       style="font-size:15px">
      <tspan
         style="font-size:24.30000114px;font-variant:normal;font-weight:bold;font-stretch:normal;writing-mode:lr-tb;fill:#000000;fill-opacity:1;fill-rule:nonzero;stroke:none;font-family:Arial;-inkscape-font-specification:Arial-BoldMT"
         x="456.4696 479.42337"
         y="682.73004"
         sodipodi:role="line"
         id="tspan10741">WB</tspan>
    </text>
    <text
       id="text10743"
       x="-63.35527"
       y="681.15503"
       style="font-size:15px">
      <tspan
         style="font-size:18.89999962px;font-variant:normal;font-weight:bold;font-stretch:normal;writing-mode:lr-tb;fill:#000000;fill-opacity:1;fill-rule:nonzero;stroke:none;font-family:Courier New;-inkscape-font-specification:CourierNewPS-BoldMT"
         x="-63.35527 -52.047401 -40.739529 -29.431662 -18.123789 -6.8159204 4.4919486 15.799822 27.107691 38.415562 49.723431 61.0313 72.278694 83.586563 94.894432"
         y="681.15503"
         sodipodi:role="line"
         id="tspan10745">Instruction i+1</tspan>
    </text>
    <path
       inkscape:connector-curvature="0"
       d="m 250.07023,694.80504 0,39.9 64.725,0 0,-39.9 -64.725,0 z"
       style="fill:#99ffcc;fill-opacity:1;fill-rule:nonzero;stroke:none"
       id="path10747" />
    <path
       inkscape:connector-curvature="0"
       d="m 249.54523,735.23004 0,-40.95 65.775,0 0,40.95 -65.775,0 z m 0,-40.95 z m 0.975,40.425 -0.45,-0.45 64.725,0 -0.525,0.45 0,-39.9 0.525,0.45 -64.725,0 0.45,-0.45"
       style="fill:#000000;fill-opacity:1;fill-rule:nonzero;stroke:none"
       id="path10749" />
    <text
       id="text10751"
       x="271.66962"
       y="723.23004"
       style="font-size:15px">
      <tspan
         style="font-size:24.30000114px;font-variant:normal;font-weight:bold;font-stretch:normal;writing-mode:lr-tb;fill:#000000;fill-opacity:1;fill-rule:nonzero;stroke:none;font-family:Arial;-inkscape-font-specification:Arial-BoldMT"
         x="271.66962 278.42258"
         y="723.23004"
         sodipodi:role="line"
         id="tspan10753">IF</tspan>
    </text>
    <path
       inkscape:connector-curvature="0"
       d="m 314.79523,694.80504 0,39.9 64.8,0 0,-39.9 -64.8,0 z"
       style="fill:#99ffcc;fill-opacity:1;fill-rule:nonzero;stroke:none"
       id="path10755" />
    <path
       inkscape:connector-curvature="0"
       d="m 314.27023,735.23004 0,-40.95 65.775,0 0,40.95 -65.775,0 z m 0,-40.95 z m 1.05,40.425 -0.525,-0.45 64.8,0 -0.525,0.45 0,-39.9 0.525,0.45 -64.8,0 0.525,-0.45"
       style="fill:#000000;fill-opacity:1;fill-rule:nonzero;stroke:none"
       id="path10757" />
    <text
       id="text10759"
       x="335.04459"
       y="723.23004"
       style="font-size:15px">
      <tspan
         style="font-size:24.30000114px;font-variant:normal;font-weight:bold;font-stretch:normal;writing-mode:lr-tb;fill:#000000;fill-opacity:1;fill-rule:nonzero;stroke:none;font-family:Arial;-inkscape-font-specification:Arial-BoldMT"
         x="335.04459 341.79758"
         y="723.23004"
         sodipodi:role="line"
         id="tspan10761">ID</tspan>
    </text>
    <path
       inkscape:connector-curvature="0"
       d="m 379.59523,694.80504 0,39.9 64.725,0 0,-39.9 -64.725,0 z"
       style="fill:#99ffcc;fill-opacity:1;fill-rule:nonzero;stroke:none"
       id="path10763" />
    <path
       inkscape:connector-curvature="0"
       d="m 379.07023,735.23004 0,-40.95 65.775,0 0,40.95 -65.775,0 z m 0,-40.95 z m 0.975,40.425 -0.45,-0.45 64.725,0 -0.525,0.45 0,-39.9 0.525,0.45 -64.725,0 0.45,-0.45"
       style="fill:#000000;fill-opacity:1;fill-rule:nonzero;stroke:none"
       id="path10765" />
    <text
       id="text10767"
       x="395.7196"
       y="723.23004"
       style="font-size:15px">
      <tspan
         style="font-size:24.30000114px;font-variant:normal;font-weight:bold;font-stretch:normal;writing-mode:lr-tb;fill:#000000;fill-opacity:1;fill-rule:nonzero;stroke:none;font-family:Arial;-inkscape-font-specification:Arial-BoldMT"
         x="395.7196 411.92041"
         y="723.23004"
         sodipodi:role="line"
         id="tspan10769">EX</tspan>
    </text>
    <path
       inkscape:connector-curvature="0"
       d="m 444.32023,694.80504 0,39.9 64.8,0 0,-39.9 -64.8,0 z"
       style="fill:#99ffcc;fill-opacity:1;fill-rule:nonzero;stroke:none"
       id="path10771" />
    <path
       inkscape:connector-curvature="0"
       d="m 443.79523,735.23004 0,-40.95 65.775,0 0,40.95 -65.775,0 z m 0,-40.95 z m 1.04875,40.425 -0.52375,-0.45 64.8,0 -0.52625,0.45 0,-39.9 0.52625,0.45 -64.8,0 0.52375,-0.45"
       style="fill:#000000;fill-opacity:1;fill-rule:nonzero;stroke:none"
       id="path10773" />
    <text
       id="text10775"
       x="458.4946"
       y="723.23004"
       style="font-size:15px">
      <tspan
         style="font-size:24.30000114px;font-variant:normal;font-weight:bold;font-stretch:normal;writing-mode:lr-tb;fill:#000000;fill-opacity:1;fill-rule:nonzero;stroke:none;font-family:Arial;-inkscape-font-specification:Arial-BoldMT"
         x="458.4946 478.7438"
         y="723.23004"
         sodipodi:role="line"
         id="tspan10777">ME</tspan>
    </text>
    <path
       inkscape:connector-curvature="0"
       d="m 509.12023,694.80504 0,39.9 64.725,0 0,-39.9 -64.725,0 z"
       style="fill:#99ffcc;fill-opacity:1;fill-rule:nonzero;stroke:none"
       id="path10779" />
    <path
       inkscape:connector-curvature="0"
       d="m 508.59398,735.23004 0,-40.95 65.775,0 0,40.95 -65.775,0 z m 0,-40.95 z m 0.97625,40.425 -0.45,-0.45 64.725,0 -0.525,0.45 0,-39.9 0.525,0.45 -64.725,0 0.45,-0.45"
       style="fill:#000000;fill-opacity:1;fill-rule:nonzero;stroke:none"
       id="path10781" />
    <text
       id="text10783"
       x="521.19458"
       y="723.23004"
       style="font-size:15px">
      <tspan
         style="font-size:24.30000114px;font-variant:normal;font-weight:bold;font-stretch:normal;writing-mode:lr-tb;fill:#000000;fill-opacity:1;fill-rule:nonzero;stroke:none;font-family:Arial;-inkscape-font-specification:Arial-BoldMT"
         x="521.19458 544.14838"
         y="723.23004"
         sodipodi:role="line"
         id="tspan10785">WB</tspan>
    </text>
    <text
       id="text10787"
       x="-63.35527"
       y="721.65503"
       style="font-size:15px">
      <tspan
         style="font-size:18.89999962px;font-variant:normal;font-weight:bold;font-stretch:normal;writing-mode:lr-tb;fill:#000000;fill-opacity:1;fill-rule:nonzero;stroke:none;font-family:Courier New;-inkscape-font-specification:CourierNewPS-BoldMT"
         x="-63.35527 -52.047401 -40.739529 -29.431662 -18.123789 -6.8159204 4.4919486 15.799822 27.107691 38.415562 49.723431 61.0313 72.278694 83.586563 94.894432"
         y="721.65503"
         sodipodi:role="line"
         id="tspan10789">Instruction i+2</tspan>
    </text>
    <path
       inkscape:connector-curvature="0"
       d="m 314.79523,735.23004 0,39.975 64.8,0 0,-39.975 -64.8,0 z"
       style="fill:#99ffcc;fill-opacity:1;fill-rule:nonzero;stroke:none"
       id="path10791" />
    <path
       inkscape:connector-curvature="0"
       d="m 314.27023,775.73004 0,-41.025 65.775,0 0,41.025 -65.775,0 z m 0,-41.025 z m 1.05,40.5 -0.525,-0.525 64.8,0 -0.525,0.525 0,-39.975 0.525,0.525 -64.8,0 0.525,-0.525"
       style="fill:#000000;fill-opacity:1;fill-rule:nonzero;stroke:none"
       id="path10793" />
    <text
       id="text10795"
       x="336.39459"
       y="763.73004"
       style="font-size:15px">
      <tspan
         style="font-size:24.30000114px;font-variant:normal;font-weight:bold;font-stretch:normal;writing-mode:lr-tb;fill:#000000;fill-opacity:1;fill-rule:nonzero;stroke:none;font-family:Arial;-inkscape-font-specification:Arial-BoldMT"
         x="336.39459 343.14758"
         y="763.73004"
         sodipodi:role="line"
         id="tspan10797">IF</tspan>
    </text>
    <path
       inkscape:connector-curvature="0"
       d="m 379.59523,735.23004 0,39.975 64.725,0 0,-39.975 -64.725,0 z"
       style="fill:#99ffcc;fill-opacity:1;fill-rule:nonzero;stroke:none"
       id="path10799" />
    <path
       inkscape:connector-curvature="0"
       d="m 379.07023,775.73004 0,-41.025 65.775,0 0,41.025 -65.775,0 z m 0,-41.025 z m 0.975,40.5 -0.45,-0.525 64.725,0 -0.525,0.525 0,-39.975 0.525,0.525 -64.725,0 0.45,-0.525"
       style="fill:#000000;fill-opacity:1;fill-rule:nonzero;stroke:none"
       id="path10801" />
    <text
       id="text10803"
       x="399.76959"
       y="763.73004"
       style="font-size:15px">
      <tspan
         style="font-size:24.30000114px;font-variant:normal;font-weight:bold;font-stretch:normal;writing-mode:lr-tb;fill:#000000;fill-opacity:1;fill-rule:nonzero;stroke:none;font-family:Arial;-inkscape-font-specification:Arial-BoldMT"
         x="399.76959 406.52258"
         y="763.73004"
         sodipodi:role="line"
         id="tspan10805">ID</tspan>
    </text>
    <path
       inkscape:connector-curvature="0"
       d="m 444.32023,735.23004 0,39.975 64.8,0 0,-39.975 -64.8,0 z"
       style="fill:#99ffcc;fill-opacity:1;fill-rule:nonzero;stroke:none"
       id="path10807" />
    <path
       inkscape:connector-curvature="0"
       d="m 443.79523,775.73004 0,-41.025 65.775,0 0,41.025 -65.775,0 z m 0,-41.025 z m 1.04875,40.5 -0.52375,-0.525 64.8,0 -0.52625,0.525 0,-39.975 0.52625,0.525 -64.8,0 0.52375,-0.525"
       style="fill:#000000;fill-opacity:1;fill-rule:nonzero;stroke:none"
       id="path10809" />
    <text
       id="text10811"
       x="460.51959"
       y="763.73004"
       style="font-size:15px">
      <tspan
         style="font-size:24.30000114px;font-variant:normal;font-weight:bold;font-stretch:normal;writing-mode:lr-tb;fill:#000000;fill-opacity:1;fill-rule:nonzero;stroke:none;font-family:Arial;-inkscape-font-specification:Arial-BoldMT"
         x="460.51959 476.7204"
         y="763.73004"
         sodipodi:role="line"
         id="tspan10813">EX</tspan>
    </text>
    <path
       inkscape:connector-curvature="0"
       d="m 509.12023,735.23004 0,39.975 64.725,0 0,-39.975 -64.725,0 z"
       style="fill:#99ffcc;fill-opacity:1;fill-rule:nonzero;stroke:none"
       id="path10815" />
    <path
       inkscape:connector-curvature="0"
       d="m 508.59398,775.73004 0,-41.025 65.775,0 0,41.025 -65.775,0 z m 0,-41.025 z m 0.97625,40.5 -0.45,-0.525 64.725,0 -0.525,0.525 0,-39.975 0.525,0.525 -64.725,0 0.45,-0.525"
       style="fill:#000000;fill-opacity:1;fill-rule:nonzero;stroke:none"
       id="path10817" />
    <text
       id="text10819"
       x="523.2196"
       y="763.73004"
       style="font-size:15px">
      <tspan
         style="font-size:24.30000114px;font-variant:normal;font-weight:bold;font-stretch:normal;writing-mode:lr-tb;fill:#000000;fill-opacity:1;fill-rule:nonzero;stroke:none;font-family:Arial;-inkscape-font-specification:Arial-BoldMT"
         x="523.2196 543.46881"
         y="763.73004"
         sodipodi:role="line"
         id="tspan10821">ME</tspan>
    </text>
    <path
       inkscape:connector-curvature="0"
       d="m 573.84523,735.23004 0,39.975 64.725,0 0,-39.975 -64.725,0 z"
       style="fill:#99ffcc;fill-opacity:1;fill-rule:nonzero;stroke:none"
       id="path10823" />
    <path
       inkscape:connector-curvature="0"
       d="m 573.32023,775.73004 0,-41.025 65.775,0 0,41.025 -65.775,0 z m 0,-41.025 z m 1.04875,40.5 -0.52375,-0.525 64.72375,0 -0.45,0.525 0,-39.975 0.45,0.525 -64.72375,0 0.52375,-0.525"
       style="fill:#000000;fill-opacity:1;fill-rule:nonzero;stroke:none"
       id="path10825" />
    <text
       id="text10827"
       x="585.99463"
       y="763.73004"
       style="font-size:15px">
      <tspan
         style="font-size:24.30000114px;font-variant:normal;font-weight:bold;font-stretch:normal;writing-mode:lr-tb;fill:#000000;fill-opacity:1;fill-rule:nonzero;stroke:none;font-family:Arial;-inkscape-font-specification:Arial-BoldMT"
         x="585.99463 608.94836"
         y="763.73004"
         sodipodi:role="line"
         id="tspan10829">WB</tspan>
    </text>
    <text
       id="text10831"
       x="-63.35527"
       y="762.15503"
       style="font-size:15px">
      <tspan
         style="font-size:18.89999962px;font-variant:normal;font-weight:bold;font-stretch:normal;writing-mode:lr-tb;fill:#000000;fill-opacity:1;fill-rule:nonzero;stroke:none;font-family:Courier New;-inkscape-font-specification:CourierNewPS-BoldMT"
         x="-63.35527 -52.047401 -40.739529 -29.431662 -18.123789 -6.8159204 4.4919486 15.799822 27.107691 38.415562 49.723431 61.0313 72.278694 83.586563 94.894432"
         y="762.15503"
         sodipodi:role="line"
         id="tspan10833">Instruction i+3</tspan>
    </text>
    <path
       inkscape:connector-curvature="0"
       d="m 379.59523,775.73004 0,39.975 64.725,0 0,-39.975 -64.725,0 z"
       style="fill:#99ffcc;fill-opacity:1;fill-rule:nonzero;stroke:none"
       id="path10835" />
    <path
       inkscape:connector-curvature="0"
       d="m 379.07023,816.23004 0,-41.025 65.775,0 0,41.025 -65.775,0 z m 0,-41.025 z m 0.975,40.5 -0.45,-0.525 64.725,0 -0.525,0.525 0,-39.975 0.525,0.525 -64.725,0 0.45,-0.525"
       style="fill:#000000;fill-opacity:1;fill-rule:nonzero;stroke:none"
       id="path10837" />
    <text
       id="text10839"
       x="401.1196"
       y="804.15503"
       style="font-size:15px">
      <tspan
         style="font-size:24.30000114px;font-variant:normal;font-weight:bold;font-stretch:normal;writing-mode:lr-tb;fill:#000000;fill-opacity:1;fill-rule:nonzero;stroke:none;font-family:Arial;-inkscape-font-specification:Arial-BoldMT"
         x="401.1196 407.87256"
         y="804.15503"
         sodipodi:role="line"
         id="tspan10841">IF</tspan>
    </text>
    <path
       inkscape:connector-curvature="0"
       d="m 444.32023,775.73004 0,39.975 64.8,0 0,-39.975 -64.8,0 z"
       style="fill:#99ffcc;fill-opacity:1;fill-rule:nonzero;stroke:none"
       id="path10843" />
    <path
       inkscape:connector-curvature="0"
       d="m 443.79523,816.23004 0,-41.025 65.775,0 0,41.025 -65.775,0 z m 0,-41.025 z m 1.04875,40.5 -0.52375,-0.525 64.8,0 -0.52625,0.525 0,-39.975 0.52625,0.525 -64.8,0 0.52375,-0.525"
       style="fill:#000000;fill-opacity:1;fill-rule:nonzero;stroke:none"
       id="path10845" />
    <text
       id="text10847"
       x="464.56961"
       y="804.15503"
       style="font-size:15px">
      <tspan
         style="font-size:24.30000114px;font-variant:normal;font-weight:bold;font-stretch:normal;writing-mode:lr-tb;fill:#000000;fill-opacity:1;fill-rule:nonzero;stroke:none;font-family:Arial;-inkscape-font-specification:Arial-BoldMT"
         x="464.56961 471.32257"
         y="804.15503"
         sodipodi:role="line"
         id="tspan10849">ID</tspan>
    </text>
    <path
       inkscape:connector-curvature="0"
       d="m 509.12023,775.73004 0,39.975 64.725,0 0,-39.975 -64.725,0 z"
       style="fill:#99ffcc;fill-opacity:1;fill-rule:nonzero;stroke:none"
       id="path10851" />
    <path
       inkscape:connector-curvature="0"
       d="m 508.59398,816.23004 0,-41.025 65.775,0 0,41.025 -65.775,0 z m 0,-41.025 z m 0.97625,40.5 -0.45,-0.525 64.725,0 -0.525,0.525 0,-39.975 0.525,0.525 -64.725,0 0.45,-0.525"
       style="fill:#000000;fill-opacity:1;fill-rule:nonzero;stroke:none"
       id="path10853" />
    <text
       id="text10855"
       x="525.24463"
       y="804.15503"
       style="font-size:15px">
      <tspan
         style="font-size:24.30000114px;font-variant:normal;font-weight:bold;font-stretch:normal;writing-mode:lr-tb;fill:#000000;fill-opacity:1;fill-rule:nonzero;stroke:none;font-family:Arial;-inkscape-font-specification:Arial-BoldMT"
         x="525.24463 541.44543"
         y="804.15503"
         sodipodi:role="line"
         id="tspan10857">EX</tspan>
    </text>
    <path
       inkscape:connector-curvature="0"
       d="m 573.84523,775.73004 0,39.975 64.725,0 0,-39.975 -64.725,0 z"
       style="fill:#99ffcc;fill-opacity:1;fill-rule:nonzero;stroke:none"
       id="path10859" />
    <path
       inkscape:connector-curvature="0"
       d="m 573.32023,816.23004 0,-41.025 65.775,0 0,41.025 -65.775,0 z m 0,-41.025 z m 1.04875,40.5 -0.52375,-0.525 64.72375,0 -0.45,0.525 0,-39.975 0.45,0.525 -64.72375,0 0.52375,-0.525"
       style="fill:#000000;fill-opacity:1;fill-rule:nonzero;stroke:none"
       id="path10861" />
    <text
       id="text10863"
       x="588.01959"
       y="804.15503"
       style="font-size:15px">
      <tspan
         style="font-size:24.30000114px;font-variant:normal;font-weight:bold;font-stretch:normal;writing-mode:lr-tb;fill:#000000;fill-opacity:1;fill-rule:nonzero;stroke:none;font-family:Arial;-inkscape-font-specification:Arial-BoldMT"
         x="588.01959 608.2688"
         y="804.15503"
         sodipodi:role="line"
         id="tspan10865">ME</tspan>
    </text>
    <path
       inkscape:connector-curvature="0"
       d="m 638.56898,775.73004 0,39.975 64.8,0 0,-39.975 -64.8,0 z"
       style="fill:#99ffcc;fill-opacity:1;fill-rule:nonzero;stroke:none"
       id="path10867" />
    <path
       inkscape:connector-curvature="0"
       d="m 638.11898,816.23004 0,-41.025 65.775,0 0,41.025 -65.775,0 z m 0,-41.025 z m 0.97625,40.5 -0.52625,-0.525 64.80125,0 -0.525,0.525 0,-39.975 0.525,0.525 -64.80125,0 0.52625,-0.525"
       style="fill:#000000;fill-opacity:1;fill-rule:nonzero;stroke:none"
       id="path10869" />
    <text
       id="text10871"
       x="650.7196"
       y="804.15503"
       style="font-size:15px">
      <tspan
         style="font-size:24.30000114px;font-variant:normal;font-weight:bold;font-stretch:normal;writing-mode:lr-tb;fill:#000000;fill-opacity:1;fill-rule:nonzero;stroke:none;font-family:Arial;-inkscape-font-specification:Arial-BoldMT"
         x="650.7196 673.6734"
         y="804.15503"
         sodipodi:role="line"
         id="tspan10873">WB</tspan>
    </text>
    <text
       id="text10875"
       x="-63.35527"
       y="802.58002"
       style="font-size:15px">
      <tspan
         style="font-size:18.89999962px;font-variant:normal;font-weight:bold;font-stretch:normal;writing-mode:lr-tb;fill:#000000;fill-opacity:1;fill-rule:nonzero;stroke:none;font-family:Courier New;-inkscape-font-specification:CourierNewPS-BoldMT"
         x="-63.35527 -52.047401 -40.739529 -29.431662 -18.123789 -6.8159204 4.4919486 15.799822 27.107691 38.415562 49.723431 61.0313 72.278694 83.586563 94.894432"
         y="802.58002"
         sodipodi:role="line"
         id="tspan10877">Instruction i+4</tspan>
    </text>
  </g>
</svg>
