<?xml version="1.0" encoding="UTF-8" standalone="no"?>
<!-- Created with Inkscape (http://www.inkscape.org/) -->

<svg
   xmlns:dc="http://purl.org/dc/elements/1.1/"
   xmlns:cc="http://creativecommons.org/ns#"
   xmlns:rdf="http://www.w3.org/1999/02/22-rdf-syntax-ns#"
   xmlns:svg="http://www.w3.org/2000/svg"
   xmlns="http://www.w3.org/2000/svg"
   xmlns:sodipodi="http://sodipodi.sourceforge.net/DTD/sodipodi-0.dtd"
   xmlns:inkscape="http://www.inkscape.org/namespaces/inkscape"
   width="840.79999"
   height="222.875"
   id="svg11185"
   version="1.1"
   inkscape:version="0.48.4 r9939"
   sodipodi:docname="New document 28">
  <defs
     id="defs11187">
    <clipPath
       id="clipPath11213"
       clipPathUnits="userSpaceOnUse">
      <path
         id="path11215"
         d="m 0,841.98 595.2,0 L 595.2,0 0,0 0,841.98 z"
         inkscape:connector-curvature="0" />
    </clipPath>
    <clipPath
       id="clipPath11207"
       clipPathUnits="userSpaceOnUse">
      <path
         id="path11209"
         clip-rule="evenodd"
         d="m 588.84,0.11053 -582.84,0 0,841.86 582.84,0 0,-841.86 z"
         inkscape:connector-curvature="0" />
    </clipPath>
  </defs>
  <sodipodi:namedview
     id="base"
     pagecolor="#ffffff"
     bordercolor="#666666"
     borderopacity="1.0"
     inkscape:pageopacity="0.0"
     inkscape:pageshadow="2"
     inkscape:zoom="0.7"
     inkscape:cx="367.03626"
     inkscape:cy="100.31326"
     inkscape:document-units="px"
     inkscape:current-layer="layer1"
     showgrid="false"
     fit-margin-top="10"
     fit-margin-left="10"
     fit-margin-right="10"
     fit-margin-bottom="10"
     inkscape:window-width="954"
     inkscape:window-height="1028"
     inkscape:window-x="0"
     inkscape:window-y="0"
     inkscape:window-maximized="0" />
  <metadata
     id="metadata11190">
    <rdf:RDF>
      <cc:Work
         rdf:about="">
        <dc:format>image/svg+xml</dc:format>
        <dc:type
           rdf:resource="http://purl.org/dc/dcmitype/StillImage" />
        <dc:title></dc:title>
      </cc:Work>
    </rdf:RDF>
  </metadata>
  <g
     inkscape:label="Layer 1"
     inkscape:groupmode="layer"
     id="layer1"
     transform="translate(141.34763,-478.06575)">
    <g
       id="g11295"
       transform="matrix(0,1.25,1.25,0,-131.34763,551.44075)">
      <path
         inkscape:connector-curvature="0"
         d="M 0,0 C -9.9,0 -17.88,137.88 -17.88,307.92 -17.88,478.02 -9.9,615.9 0,615.9 9.84,615.9 17.82,478.02 17.82,307.92 17.82,137.88 9.84,0 0,0"
         style="fill:#b2b2b2;fill-opacity:1;fill-rule:evenodd;stroke:none"
         id="path11297" />
    </g>
    <path
       inkscape:connector-curvature="0"
       d="m 106.10237,488.59075 0,39.975 64.725,0 0,-39.975 -64.725,0 z"
       style="fill:#99ffcc;fill-opacity:1;fill-rule:nonzero;stroke:none"
       id="path11299" />
    <path
       inkscape:connector-curvature="0"
       d="m 105.57737,529.09075 0,-41.025 65.775,0 0,41.025 -65.775,0 z m 0,-41.025 z m 0.975,40.5 -0.45,-0.525 64.725,0 -0.525,0.525 0,-39.975 0.525,0.525 -64.725,0 0.45,-0.525"
       style="fill:#000000;fill-opacity:1;fill-rule:nonzero;stroke:none"
       id="path11301" />
    <text
       id="text11303"
       x="127.70174"
       y="517.01575"
       style="font-size:15px">
      <tspan
         style="font-size:24.30000114px;font-variant:normal;font-weight:bold;font-stretch:normal;writing-mode:lr-tb;fill:#000000;fill-opacity:1;fill-rule:nonzero;stroke:none;font-family:Arial;-inkscape-font-specification:Arial-BoldMT"
         x="127.70174 134.45471"
         y="517.01575"
         sodipodi:role="line"
         id="tspan11305">IF</tspan>
    </text>
    <path
       inkscape:connector-curvature="0"
       d="m 170.82737,488.59075 0,39.975 64.8,0 0,-39.975 -64.8,0 z"
       style="fill:#99ffcc;fill-opacity:1;fill-rule:nonzero;stroke:none"
       id="path11307" />
    <path
       inkscape:connector-curvature="0"
       d="m 170.30237,529.09075 0,-41.025 65.775,0 0,41.025 -65.775,0 z m 0,-41.025 z m 1.05,40.5 -0.525,-0.525 64.8,0 -0.525,0.525 0,-39.975 0.525,0.525 -64.8,0 0.525,-0.525"
       style="fill:#000000;fill-opacity:1;fill-rule:nonzero;stroke:none"
       id="path11309" />
    <text
       id="text11311"
       x="191.07674"
       y="517.01575"
       style="font-size:15px">
      <tspan
         style="font-size:24.30000114px;font-variant:normal;font-weight:bold;font-stretch:normal;writing-mode:lr-tb;fill:#000000;fill-opacity:1;fill-rule:nonzero;stroke:none;font-family:Arial;-inkscape-font-specification:Arial-BoldMT"
         x="191.07674 197.82971"
         y="517.01575"
         sodipodi:role="line"
         id="tspan11313">ID</tspan>
    </text>
    <path
       inkscape:connector-curvature="0"
       d="m 235.62737,488.59075 0,39.975 64.725,0 0,-39.975 -64.725,0 z"
       style="fill:#99ffcc;fill-opacity:1;fill-rule:nonzero;stroke:none"
       id="path11315" />
    <path
       inkscape:connector-curvature="0"
       d="m 235.10237,529.09075 0,-41.025 65.775,0 0,41.025 -65.775,0 z m 0,-41.025 z m 0.975,40.5 -0.45,-0.525 64.725,0 -0.525,0.525 0,-39.975 0.525,0.525 -64.725,0 0.45,-0.525"
       style="fill:#000000;fill-opacity:1;fill-rule:nonzero;stroke:none"
       id="path11317" />
    <text
       id="text11319"
       x="251.82674"
       y="517.01575"
       style="font-size:15px">
      <tspan
         style="font-size:24.30000114px;font-variant:normal;font-weight:bold;font-stretch:normal;writing-mode:lr-tb;fill:#000000;fill-opacity:1;fill-rule:nonzero;stroke:none;font-family:Arial;-inkscape-font-specification:Arial-BoldMT"
         x="251.82674 268.02756"
         y="517.01575"
         sodipodi:role="line"
         id="tspan11321">EX</tspan>
    </text>
    <path
       inkscape:connector-curvature="0"
       d="m 300.35237,488.59075 0,39.975 64.8,0 0,-39.975 -64.8,0 z"
       style="fill:#99ffcc;fill-opacity:1;fill-rule:nonzero;stroke:none"
       id="path11323" />
    <path
       inkscape:connector-curvature="0"
       d="m 299.82737,529.09075 0,-41.025 65.775,0 0,41.025 -65.775,0 z m 0,-41.025 z m 1.05,40.5 -0.525,-0.525 64.8,0 -0.525,0.525 0,-39.975 0.525,0.525 -64.8,0 0.525,-0.525"
       style="fill:#000000;fill-opacity:1;fill-rule:nonzero;stroke:none"
       id="path11325" />
    <text
       id="text11327"
       x="314.52676"
       y="517.01575"
       style="font-size:15px">
      <tspan
         style="font-size:24.30000114px;font-variant:normal;font-weight:bold;font-stretch:normal;writing-mode:lr-tb;fill:#000000;fill-opacity:1;fill-rule:nonzero;stroke:none;font-family:Arial;-inkscape-font-specification:Arial-BoldMT"
         x="314.52676 334.77594"
         y="517.01575"
         sodipodi:role="line"
         id="tspan11329">ME</tspan>
    </text>
    <path
       inkscape:connector-curvature="0"
       d="m 365.15237,488.59075 0,39.975 64.725,0 0,-39.975 -64.725,0 z"
       style="fill:#99ffcc;fill-opacity:1;fill-rule:nonzero;stroke:none"
       id="path11331" />
    <path
       inkscape:connector-curvature="0"
       d="m 364.62737,529.09075 0,-41.025 65.775,0 0,41.025 -65.775,0 z m 0,-41.025 z m 0.975,40.5 -0.45,-0.525 64.72375,0 -0.52375,0.525 0,-39.975 0.52375,0.525 -64.72375,0 0.45,-0.525"
       style="fill:#000000;fill-opacity:1;fill-rule:nonzero;stroke:none"
       id="path11333" />
    <text
       id="text11335"
       x="377.22675"
       y="517.01575"
       style="font-size:15px">
      <tspan
         style="font-size:24.30000114px;font-variant:normal;font-weight:bold;font-stretch:normal;writing-mode:lr-tb;fill:#000000;fill-opacity:1;fill-rule:nonzero;stroke:none;font-family:Arial;-inkscape-font-specification:Arial-BoldMT"
         x="377.22675 400.18054"
         y="517.01575"
         sodipodi:role="line"
         id="tspan11337">WB</tspan>
    </text>
    <text
       id="text11339"
       x="-74.723129"
       y="515.44073"
       style="font-size:15px">
      <tspan
         style="font-size:18.89999962px;font-variant:normal;font-weight:bold;font-stretch:normal;writing-mode:lr-tb;fill:#000000;fill-opacity:1;fill-rule:nonzero;stroke:none;font-family:Courier New;-inkscape-font-specification:CourierNewPS-BoldMT"
         x="-74.723129 -63.413372 -52.103611 -40.79385 -29.484091 -18.17433 -6.9269381 4.3828192 15.692576 27.002344 38.312099 49.621857"
         y="515.44073"
         sodipodi:role="line"
         id="tspan11341">Taken branch</tspan>
    </text>
    <path
       inkscape:connector-curvature="0"
       d="m 170.82737,529.09075 0,39.9 64.8,0 0,-39.9 -64.8,0 z"
       style="fill:#99ffcc;fill-opacity:1;fill-rule:nonzero;stroke:none"
       id="path11343" />
    <path
       inkscape:connector-curvature="0"
       d="m 170.30237,569.51575 0,-40.95 65.775,0 0,40.95 -65.775,0 z m 0,-40.95 z m 1.05,40.425 -0.525,-0.45 64.8,0 -0.525,0.45 0,-39.9 0.525,0.45 -64.8,0 0.525,-0.45"
       style="fill:#000000;fill-opacity:1;fill-rule:nonzero;stroke:none"
       id="path11345" />
    <text
       id="text11347"
       x="192.42674"
       y="557.51575"
       style="font-size:15px">
      <tspan
         style="font-size:24.30000114px;font-variant:normal;font-weight:bold;font-stretch:normal;writing-mode:lr-tb;fill:#000000;fill-opacity:1;fill-rule:nonzero;stroke:none;font-family:Arial;-inkscape-font-specification:Arial-BoldMT"
         x="192.42674 199.1797"
         y="557.51575"
         sodipodi:role="line"
         id="tspan11349">IF</tspan>
    </text>
    <path
       inkscape:connector-curvature="0"
       d="m 235.62737,529.09075 0,39.9 64.725,0 0,-39.9 -64.725,0 z"
       style="fill:#99ffcc;fill-opacity:1;fill-rule:nonzero;stroke:none"
       id="path11351" />
    <path
       inkscape:connector-curvature="0"
       d="m 235.10237,569.51575 0,-40.95 65.775,0 0,40.95 -65.775,0 z m 0,-40.95 z m 0.975,40.425 -0.45,-0.45 64.725,0 -0.525,0.45 0,-39.9 0.525,0.45 -64.725,0 0.45,-0.45"
       style="fill:#000000;fill-opacity:1;fill-rule:nonzero;stroke:none"
       id="path11353" />
    <text
       id="text11355"
       x="247.10175"
       y="557.51575"
       style="font-size:15px">
      <tspan
         style="font-size:24.30000114px;font-variant:normal;font-weight:bold;font-stretch:normal;writing-mode:lr-tb;fill:#000000;fill-opacity:1;fill-rule:nonzero;stroke:none;font-family:Arial;-inkscape-font-specification:Arial-BoldMT"
         x="247.10175 253.85715 268.70444 275.45984"
         y="557.51575"
         sodipodi:role="line"
         id="tspan11357">idle</tspan>
    </text>
    <path
       inkscape:connector-curvature="0"
       d="m 300.35237,529.09075 0,39.9 64.8,0 0,-39.9 -64.8,0 z"
       style="fill:#99ffcc;fill-opacity:1;fill-rule:nonzero;stroke:none"
       id="path11359" />
    <path
       inkscape:connector-curvature="0"
       d="m 299.82737,569.51575 0,-40.95 65.775,0 0,40.95 -65.775,0 z m 0,-40.95 z m 1.05,40.425 -0.525,-0.45 64.8,0 -0.525,0.45 0,-39.9 0.525,0.45 -64.8,0 0.525,-0.45"
       style="fill:#000000;fill-opacity:1;fill-rule:nonzero;stroke:none"
       id="path11361" />
    <text
       id="text11363"
       x="311.82675"
       y="557.51575"
       style="font-size:15px">
      <tspan
         style="font-size:24.30000114px;font-variant:normal;font-weight:bold;font-stretch:normal;writing-mode:lr-tb;fill:#000000;fill-opacity:1;fill-rule:nonzero;stroke:none;font-family:Arial;-inkscape-font-specification:Arial-BoldMT"
         x="311.82675 318.58215 333.42944 340.18484"
         y="557.51575"
         sodipodi:role="line"
         id="tspan11365">idle</tspan>
    </text>
    <path
       inkscape:connector-curvature="0"
       d="m 365.15237,529.09075 0,39.9 64.725,0 0,-39.9 -64.725,0 z"
       style="fill:#99ffcc;fill-opacity:1;fill-rule:nonzero;stroke:none"
       id="path11367" />
    <path
       inkscape:connector-curvature="0"
       d="m 364.62737,569.51575 0,-40.95 65.775,0 0,40.95 -65.775,0 z m 0,-40.95 z m 0.975,40.425 -0.45,-0.45 64.72375,0 -0.52375,0.45 0,-39.9 0.52375,0.45 -64.72375,0 0.45,-0.45"
       style="fill:#000000;fill-opacity:1;fill-rule:nonzero;stroke:none"
       id="path11369" />
    <text
       id="text11371"
       x="376.55176"
       y="557.51575"
       style="font-size:15px">
      <tspan
         style="font-size:24.30000114px;font-variant:normal;font-weight:bold;font-stretch:normal;writing-mode:lr-tb;fill:#000000;fill-opacity:1;fill-rule:nonzero;stroke:none;font-family:Arial;-inkscape-font-specification:Arial-BoldMT"
         x="376.55176 383.30716 398.15445 404.90985"
         y="557.51575"
         sodipodi:role="line"
         id="tspan11373">idle</tspan>
    </text>
    <path
       inkscape:connector-curvature="0"
       d="m 429.87612,529.09075 0,39.9 64.8,0 0,-39.9 -64.8,0 z"
       style="fill:#99ffcc;fill-opacity:1;fill-rule:nonzero;stroke:none"
       id="path11375" />
    <path
       inkscape:connector-curvature="0"
       d="m 429.35237,569.51575 0,-40.95 65.775,0 0,40.95 -65.775,0 z m 0,-40.95 z m 1.05,40.425 -0.52625,-0.45 64.80125,0 -0.525,0.45 0,-39.9 0.525,0.45 -64.80125,0 0.52625,-0.45"
       style="fill:#000000;fill-opacity:1;fill-rule:nonzero;stroke:none"
       id="path11377" />
    <text
       id="text11379"
       x="441.35175"
       y="557.51575"
       style="font-size:15px">
      <tspan
         style="font-size:24.30000114px;font-variant:normal;font-weight:bold;font-stretch:normal;writing-mode:lr-tb;fill:#000000;fill-opacity:1;fill-rule:nonzero;stroke:none;font-family:Arial;-inkscape-font-specification:Arial-BoldMT"
         x="441.35175 448.10715 462.95444 469.70984"
         y="557.51575"
         sodipodi:role="line"
         id="tspan11381">idle</tspan>
    </text>
    <text
       id="text11383"
       x="-74.723129"
       y="555.94073"
       style="font-size:15px">
      <tspan
         style="font-size:18.89999962px;font-variant:normal;font-weight:bold;font-stretch:normal;writing-mode:lr-tb;fill:#000000;fill-opacity:1;fill-rule:nonzero;stroke:none;font-family:Courier New;-inkscape-font-specification:CourierNewPS-BoldMT"
         x="-74.723129 -63.41526 -52.107391 -40.799522 -29.49165 -18.183781 -6.8759117 4.431962 15.739831 27.047701 38.355568 49.663437 60.910835 72.218704 83.526573"
         y="555.94073"
         sodipodi:role="line"
         id="tspan11385">Instruction i+1</tspan>
    </text>
    <path
       inkscape:connector-curvature="0"
       d="m 235.62737,569.51575 0,39.975 64.725,0 0,-39.975 -64.725,0 z"
       style="fill:#99ffcc;fill-opacity:1;fill-rule:nonzero;stroke:none"
       id="path11387" />
    <path
       inkscape:connector-curvature="0"
       d="m 235.10237,610.01575 0,-41.025 65.775,0 0,41.025 -65.775,0 z m 0,-41.025 z m 0.975,40.5 -0.45,-0.525 64.725,0 -0.525,0.525 0,-39.975 0.525,0.525 -64.725,0 0.45,-0.525"
       style="fill:#000000;fill-opacity:1;fill-rule:nonzero;stroke:none"
       id="path11389" />
    <text
       id="text11391"
       x="257.22675"
       y="598.01575"
       style="font-size:15px">
      <tspan
         style="font-size:24.30000114px;font-variant:normal;font-weight:bold;font-stretch:normal;writing-mode:lr-tb;fill:#000000;fill-opacity:1;fill-rule:nonzero;stroke:none;font-family:Arial;-inkscape-font-specification:Arial-BoldMT"
         x="257.22675 263.97971"
         y="598.01575"
         sodipodi:role="line"
         id="tspan11393">IF</tspan>
    </text>
    <path
       inkscape:connector-curvature="0"
       d="m 300.35237,569.51575 0,39.975 64.8,0 0,-39.975 -64.8,0 z"
       style="fill:#99ffcc;fill-opacity:1;fill-rule:nonzero;stroke:none"
       id="path11395" />
    <path
       inkscape:connector-curvature="0"
       d="m 299.82737,610.01575 0,-41.025 65.775,0 0,41.025 -65.775,0 z m 0,-41.025 z m 1.05,40.5 -0.525,-0.525 64.8,0 -0.525,0.525 0,-39.975 0.525,0.525 -64.8,0 0.525,-0.525"
       style="fill:#000000;fill-opacity:1;fill-rule:nonzero;stroke:none"
       id="path11397" />
    <text
       id="text11399"
       x="320.60175"
       y="598.01575"
       style="font-size:15px">
      <tspan
         style="font-size:24.30000114px;font-variant:normal;font-weight:bold;font-stretch:normal;writing-mode:lr-tb;fill:#000000;fill-opacity:1;fill-rule:nonzero;stroke:none;font-family:Arial;-inkscape-font-specification:Arial-BoldMT"
         x="320.60175 327.35471"
         y="598.01575"
         sodipodi:role="line"
         id="tspan11401">ID</tspan>
    </text>
    <path
       inkscape:connector-curvature="0"
       d="m 365.15237,569.51575 0,39.975 64.725,0 0,-39.975 -64.725,0 z"
       style="fill:#99ffcc;fill-opacity:1;fill-rule:nonzero;stroke:none"
       id="path11403" />
    <path
       inkscape:connector-curvature="0"
       d="m 364.62737,610.01575 0,-41.025 65.775,0 0,41.025 -65.775,0 z m 0,-41.025 z m 0.975,40.5 -0.45,-0.525 64.72375,0 -0.52375,0.525 0,-39.975 0.52375,0.525 -64.72375,0 0.45,-0.525"
       style="fill:#000000;fill-opacity:1;fill-rule:nonzero;stroke:none"
       id="path11405" />
    <text
       id="text11407"
       x="381.27673"
       y="598.01575"
       style="font-size:15px">
      <tspan
         style="font-size:24.30000114px;font-variant:normal;font-weight:bold;font-stretch:normal;writing-mode:lr-tb;fill:#000000;fill-opacity:1;fill-rule:nonzero;stroke:none;font-family:Arial;-inkscape-font-specification:Arial-BoldMT"
         x="381.27673 397.47754"
         y="598.01575"
         sodipodi:role="line"
         id="tspan11409">EX</tspan>
    </text>
    <path
       inkscape:connector-curvature="0"
       d="m 429.87612,569.51575 0,39.975 64.8,0 0,-39.975 -64.8,0 z"
       style="fill:#99ffcc;fill-opacity:1;fill-rule:nonzero;stroke:none"
       id="path11411" />
    <path
       inkscape:connector-curvature="0"
       d="m 429.35237,610.01575 0,-41.025 65.775,0 0,41.025 -65.775,0 z m 0,-41.025 z m 1.05,40.5 -0.52625,-0.525 64.80125,0 -0.525,0.525 0,-39.975 0.525,0.525 -64.80125,0 0.52625,-0.525"
       style="fill:#000000;fill-opacity:1;fill-rule:nonzero;stroke:none"
       id="path11413" />
    <text
       id="text11415"
       x="444.05176"
       y="598.01575"
       style="font-size:15px">
      <tspan
         style="font-size:24.30000114px;font-variant:normal;font-weight:bold;font-stretch:normal;writing-mode:lr-tb;fill:#000000;fill-opacity:1;fill-rule:nonzero;stroke:none;font-family:Arial;-inkscape-font-specification:Arial-BoldMT"
         x="444.05176 464.30093"
         y="598.01575"
         sodipodi:role="line"
         id="tspan11417">ME</tspan>
    </text>
    <path
       inkscape:connector-curvature="0"
       d="m 494.67737,569.51575 0,39.975 64.725,0 0,-39.975 -64.725,0 z"
       style="fill:#99ffcc;fill-opacity:1;fill-rule:nonzero;stroke:none"
       id="path11419" />
    <path
       inkscape:connector-curvature="0"
       d="m 494.15237,610.01575 0,-41.025 65.775,0 0,41.025 -65.775,0 z m 0,-41.025 z m 0.97375,40.5 -0.44875,-0.525 64.72375,0 -0.525,0.525 0,-39.975 0.525,0.525 -64.72375,0 0.44875,-0.525"
       style="fill:#000000;fill-opacity:1;fill-rule:nonzero;stroke:none"
       id="path11421" />
    <text
       id="text11423"
       x="506.75174"
       y="598.01575"
       style="font-size:15px">
      <tspan
         style="font-size:24.30000114px;font-variant:normal;font-weight:bold;font-stretch:normal;writing-mode:lr-tb;fill:#000000;fill-opacity:1;fill-rule:nonzero;stroke:none;font-family:Arial;-inkscape-font-specification:Arial-BoldMT"
         x="506.75174 529.70551"
         y="598.01575"
         sodipodi:role="line"
         id="tspan11425">WB</tspan>
    </text>
    <text
       id="text11427"
       x="-74.723129"
       y="596.44073"
       style="font-size:15px">
      <tspan
         style="font-size:18.89999962px;font-variant:normal;font-weight:bold;font-stretch:normal;writing-mode:lr-tb;fill:#000000;fill-opacity:1;fill-rule:nonzero;stroke:none;font-family:Courier New;-inkscape-font-specification:CourierNewPS-BoldMT"
         x="-74.723129 -63.424709 -52.126289 -40.827869 -29.529448 -18.23103 -6.9326124 4.3903818 15.6888 26.987219 38.285637 49.584064 60.882481"
         y="596.44073"
         sodipodi:role="line"
         id="tspan11429">Branch target</tspan>
    </text>
    <path
       inkscape:connector-curvature="0"
       d="m 300.35237,610.01575 0,39.975 64.8,0 0,-39.975 -64.8,0 z"
       style="fill:#99ffcc;fill-opacity:1;fill-rule:nonzero;stroke:none"
       id="path11431" />
    <path
       inkscape:connector-curvature="0"
       d="m 299.82737,650.51575 0,-41.025 65.775,0 0,41.025 -65.775,0 z m 0,-41.025 z m 1.05,40.5 -0.525,-0.525 64.8,0 -0.525,0.525 0,-39.975 0.525,0.525 -64.8,0 0.525,-0.525"
       style="fill:#000000;fill-opacity:1;fill-rule:nonzero;stroke:none"
       id="path11433" />
    <text
       id="text11435"
       x="321.95175"
       y="638.44073"
       style="font-size:15px">
      <tspan
         style="font-size:24.30000114px;font-variant:normal;font-weight:bold;font-stretch:normal;writing-mode:lr-tb;fill:#000000;fill-opacity:1;fill-rule:nonzero;stroke:none;font-family:Arial;-inkscape-font-specification:Arial-BoldMT"
         x="321.95175 328.70471"
         y="638.44073"
         sodipodi:role="line"
         id="tspan11437">IF</tspan>
    </text>
    <path
       inkscape:connector-curvature="0"
       d="m 365.15237,610.01575 0,39.975 64.725,0 0,-39.975 -64.725,0 z"
       style="fill:#99ffcc;fill-opacity:1;fill-rule:nonzero;stroke:none"
       id="path11439" />
    <path
       inkscape:connector-curvature="0"
       d="m 364.62737,650.51575 0,-41.025 65.775,0 0,41.025 -65.775,0 z m 0,-41.025 z m 0.975,40.5 -0.45,-0.525 64.72375,0 -0.52375,0.525 0,-39.975 0.52375,0.525 -64.72375,0 0.45,-0.525"
       style="fill:#000000;fill-opacity:1;fill-rule:nonzero;stroke:none"
       id="path11441" />
    <text
       id="text11443"
       x="385.32675"
       y="638.44073"
       style="font-size:15px">
      <tspan
         style="font-size:24.30000114px;font-variant:normal;font-weight:bold;font-stretch:normal;writing-mode:lr-tb;fill:#000000;fill-opacity:1;fill-rule:nonzero;stroke:none;font-family:Arial;-inkscape-font-specification:Arial-BoldMT"
         x="385.32675 392.07971"
         y="638.44073"
         sodipodi:role="line"
         id="tspan11445">ID</tspan>
    </text>
    <path
       inkscape:connector-curvature="0"
       d="m 429.87612,610.01575 0,39.975 64.8,0 0,-39.975 -64.8,0 z"
       style="fill:#99ffcc;fill-opacity:1;fill-rule:nonzero;stroke:none"
       id="path11447" />
    <path
       inkscape:connector-curvature="0"
       d="m 429.35237,650.51575 0,-41.025 65.775,0 0,41.025 -65.775,0 z m 0,-41.025 z m 1.05,40.5 -0.52625,-0.525 64.80125,0 -0.525,0.525 0,-39.975 0.525,0.525 -64.80125,0 0.52625,-0.525"
       style="fill:#000000;fill-opacity:1;fill-rule:nonzero;stroke:none"
       id="path11449" />
    <text
       id="text11451"
       x="446.07675"
       y="638.44073"
       style="font-size:15px">
      <tspan
         style="font-size:24.30000114px;font-variant:normal;font-weight:bold;font-stretch:normal;writing-mode:lr-tb;fill:#000000;fill-opacity:1;fill-rule:nonzero;stroke:none;font-family:Arial;-inkscape-font-specification:Arial-BoldMT"
         x="446.07675 462.27756"
         y="638.44073"
         sodipodi:role="line"
         id="tspan11453">EX</tspan>
    </text>
    <path
       inkscape:connector-curvature="0"
       d="m 494.67737,610.01575 0,39.975 64.725,0 0,-39.975 -64.725,0 z"
       style="fill:#99ffcc;fill-opacity:1;fill-rule:nonzero;stroke:none"
       id="path11455" />
    <path
       inkscape:connector-curvature="0"
       d="m 494.15237,650.51575 0,-41.025 65.775,0 0,41.025 -65.775,0 z m 0,-41.025 z m 0.97375,40.5 -0.44875,-0.525 64.72375,0 -0.525,0.525 0,-39.975 0.525,0.525 -64.72375,0 0.44875,-0.525"
       style="fill:#000000;fill-opacity:1;fill-rule:nonzero;stroke:none"
       id="path11457" />
    <text
       id="text11459"
       x="508.77673"
       y="638.44073"
       style="font-size:15px">
      <tspan
         style="font-size:24.30000114px;font-variant:normal;font-weight:bold;font-stretch:normal;writing-mode:lr-tb;fill:#000000;fill-opacity:1;fill-rule:nonzero;stroke:none;font-family:Arial;-inkscape-font-specification:Arial-BoldMT"
         x="508.77673 529.02594"
         y="638.44073"
         sodipodi:role="line"
         id="tspan11461">ME</tspan>
    </text>
    <path
       inkscape:connector-curvature="0"
       d="m 559.40112,610.01575 0,39.975 64.725,0 0,-39.975 -64.725,0 z"
       style="fill:#99ffcc;fill-opacity:1;fill-rule:nonzero;stroke:none"
       id="path11463" />
    <path
       inkscape:connector-curvature="0"
       d="m 558.87612,650.51575 0,-41.025 65.775,0 0,41.025 -65.775,0 z m 0,-41.025 z m 1.05125,40.5 -0.52625,-0.525 64.72625,0 -0.45,0.525 0,-39.975 0.45,0.525 -64.72625,0 0.52625,-0.525"
       style="fill:#000000;fill-opacity:1;fill-rule:nonzero;stroke:none"
       id="path11465" />
    <text
       id="text11467"
       x="571.55176"
       y="638.44073"
       style="font-size:15px">
      <tspan
         style="font-size:24.30000114px;font-variant:normal;font-weight:bold;font-stretch:normal;writing-mode:lr-tb;fill:#000000;fill-opacity:1;fill-rule:nonzero;stroke:none;font-family:Arial;-inkscape-font-specification:Arial-BoldMT"
         x="571.55176 594.50555"
         y="638.44073"
         sodipodi:role="line"
         id="tspan11469">WB</tspan>
    </text>
    <text
       id="text11471"
       x="-74.723129"
       y="636.86572"
       style="font-size:15px">
      <tspan
         style="font-size:18.89999962px;font-variant:normal;font-weight:bold;font-stretch:normal;writing-mode:lr-tb;fill:#000000;fill-opacity:1;fill-rule:nonzero;stroke:none;font-family:Courier New;-inkscape-font-specification:CourierNewPS-BoldMT"
         x="-74.723129 -63.420929 -52.118729 -40.816528 -29.514328 -18.212128 -6.9099293 4.4130602 15.715264 27.01746 38.319664 49.621857 60.924061 72.226257 83.528458"
         y="636.86572"
         sodipodi:role="line"
         id="tspan11473">Branch target+1</tspan>
    </text>
    <path
       inkscape:connector-curvature="0"
       d="m 365.15237,650.51575 0,39.9 64.725,0 0,-39.9 -64.725,0 z"
       style="fill:#99ffcc;fill-opacity:1;fill-rule:nonzero;stroke:none"
       id="path11475" />
    <path
       inkscape:connector-curvature="0"
       d="m 364.62737,690.94075 0,-40.95 65.775,0 0,40.95 -65.775,0 z m 0,-40.95 z m 0.975,40.425 -0.45,-0.45 64.72375,0 -0.52375,0.45 0,-39.9 0.52375,0.45 -64.72375,0 0.45,-0.45"
       style="fill:#000000;fill-opacity:1;fill-rule:nonzero;stroke:none"
       id="path11477" />
    <text
       id="text11479"
       x="386.67673"
       y="678.94073"
       style="font-size:15px">
      <tspan
         style="font-size:24.30000114px;font-variant:normal;font-weight:bold;font-stretch:normal;writing-mode:lr-tb;fill:#000000;fill-opacity:1;fill-rule:nonzero;stroke:none;font-family:Arial;-inkscape-font-specification:Arial-BoldMT"
         x="386.67673 393.42972"
         y="678.94073"
         sodipodi:role="line"
         id="tspan11481">IF</tspan>
    </text>
    <path
       inkscape:connector-curvature="0"
       d="m 429.87612,650.51575 0,39.9 64.8,0 0,-39.9 -64.8,0 z"
       style="fill:#99ffcc;fill-opacity:1;fill-rule:nonzero;stroke:none"
       id="path11483" />
    <path
       inkscape:connector-curvature="0"
       d="m 429.35237,690.94075 0,-40.95 65.775,0 0,40.95 -65.775,0 z m 0,-40.95 z m 1.05,40.425 -0.52625,-0.45 64.80125,0 -0.525,0.45 0,-39.9 0.525,0.45 -64.80125,0 0.52625,-0.45"
       style="fill:#000000;fill-opacity:1;fill-rule:nonzero;stroke:none"
       id="path11485" />
    <text
       id="text11487"
       x="450.12674"
       y="678.94073"
       style="font-size:15px">
      <tspan
         style="font-size:24.30000114px;font-variant:normal;font-weight:bold;font-stretch:normal;writing-mode:lr-tb;fill:#000000;fill-opacity:1;fill-rule:nonzero;stroke:none;font-family:Arial;-inkscape-font-specification:Arial-BoldMT"
         x="450.12674 456.87973"
         y="678.94073"
         sodipodi:role="line"
         id="tspan11489">ID</tspan>
    </text>
    <path
       inkscape:connector-curvature="0"
       d="m 494.67737,650.51575 0,39.9 64.725,0 0,-39.9 -64.725,0 z"
       style="fill:#99ffcc;fill-opacity:1;fill-rule:nonzero;stroke:none"
       id="path11491" />
    <path
       inkscape:connector-curvature="0"
       d="m 494.15237,690.94075 0,-40.95 65.775,0 0,40.95 -65.775,0 z m 0,-40.95 z m 0.97375,40.425 -0.44875,-0.45 64.72375,0 -0.525,0.45 0,-39.9 0.525,0.45 -64.72375,0 0.44875,-0.45"
       style="fill:#000000;fill-opacity:1;fill-rule:nonzero;stroke:none"
       id="path11493" />
    <text
       id="text11495"
       x="510.80173"
       y="678.94073"
       style="font-size:15px">
      <tspan
         style="font-size:24.30000114px;font-variant:normal;font-weight:bold;font-stretch:normal;writing-mode:lr-tb;fill:#000000;fill-opacity:1;fill-rule:nonzero;stroke:none;font-family:Arial;-inkscape-font-specification:Arial-BoldMT"
         x="510.80173 527.00256"
         y="678.94073"
         sodipodi:role="line"
         id="tspan11497">EX</tspan>
    </text>
    <path
       inkscape:connector-curvature="0"
       d="m 559.40112,650.51575 0,39.9 64.725,0 0,-39.9 -64.725,0 z"
       style="fill:#99ffcc;fill-opacity:1;fill-rule:nonzero;stroke:none"
       id="path11499" />
    <path
       inkscape:connector-curvature="0"
       d="m 558.87612,690.94075 0,-40.95 65.775,0 0,40.95 -65.775,0 z m 0,-40.95 z m 1.05125,40.425 -0.52625,-0.45 64.72625,0 -0.45,0.45 0,-39.9 0.45,0.45 -64.72625,0 0.52625,-0.45"
       style="fill:#000000;fill-opacity:1;fill-rule:nonzero;stroke:none"
       id="path11501" />
    <text
       id="text11503"
       x="573.57672"
       y="678.94073"
       style="font-size:15px">
      <tspan
         style="font-size:24.30000114px;font-variant:normal;font-weight:bold;font-stretch:normal;writing-mode:lr-tb;fill:#000000;fill-opacity:1;fill-rule:nonzero;stroke:none;font-family:Arial;-inkscape-font-specification:Arial-BoldMT"
         x="573.57672 593.82593"
         y="678.94073"
         sodipodi:role="line"
         id="tspan11505">ME</tspan>
    </text>
    <path
       inkscape:connector-curvature="0"
       d="m 624.12737,650.51575 0,39.9 64.8,0 0,-39.9 -64.8,0 z"
       style="fill:#99ffcc;fill-opacity:1;fill-rule:nonzero;stroke:none"
       id="path11507" />
    <path
       inkscape:connector-curvature="0"
       d="m 623.67737,690.94075 0,-40.95 65.775,0 0,40.95 -65.775,0 z m 0,-40.95 z m 0.97375,40.425 -0.52375,-0.45 64.79875,0 -0.52375,0.45 0,-39.9 0.52375,0.45 -64.79875,0 0.52375,-0.45"
       style="fill:#000000;fill-opacity:1;fill-rule:nonzero;stroke:none"
       id="path11509" />
    <text
       id="text11511"
       x="636.27673"
       y="678.94073"
       style="font-size:15px">
      <tspan
         style="font-size:24.30000114px;font-variant:normal;font-weight:bold;font-stretch:normal;writing-mode:lr-tb;fill:#000000;fill-opacity:1;fill-rule:nonzero;stroke:none;font-family:Arial;-inkscape-font-specification:Arial-BoldMT"
         x="636.27673 659.23053"
         y="678.94073"
         sodipodi:role="line"
         id="tspan11513">WB</tspan>
    </text>
    <text
       id="text11515"
       x="-74.723129"
       y="677.36572"
       style="font-size:15px">
      <tspan
         style="font-size:18.89999962px;font-variant:normal;font-weight:bold;font-stretch:normal;writing-mode:lr-tb;fill:#000000;fill-opacity:1;fill-rule:nonzero;stroke:none;font-family:Courier New;-inkscape-font-specification:CourierNewPS-BoldMT"
         x="-74.723129 -63.420929 -52.118729 -40.816528 -29.514328 -18.212128 -6.9099293 4.4130602 15.715264 27.01746 38.319664 49.621857 60.924061 72.226257 83.528458"
         y="677.36572"
         sodipodi:role="line"
         id="tspan11517">Branch target+2</tspan>
    </text>
    <g
       id="g11519"
       transform="matrix(0,1.25,1.25,0,233.30237,512.89075)">
      <path
         inkscape:connector-curvature="0"
         d="M 0,0 0.06,-4.62 56.94,5.46 56.82,9.96 0,0"
         style="fill:#339966;fill-opacity:1;fill-rule:evenodd;stroke:none"
         id="path11521" />
    </g>
    <g
       id="g11523"
       transform="matrix(0,1.25,1.25,0,233.60237,583.76575)">
      <path
         inkscape:connector-curvature="0"
         d="M 0,0 8.04,8.64 -0.3,14.58 0,0"
         style="fill:#339966;fill-opacity:1;fill-rule:evenodd;stroke:none"
         id="path11525" />
    </g>
    <g
       id="g11527"
       transform="matrix(0,1.25,1.25,0,227.52737,516.11575)">
      <path
         inkscape:connector-curvature="0"
         d="m 0,0 -2.58,-0.3 18.84,-39 2.58,0.3 L 0,0"
         style="fill:#ff0000;fill-opacity:1;fill-rule:evenodd;stroke:none"
         id="path11529" />
    </g>
    <g
       id="g11531"
       transform="matrix(0,1.25,1.25,0,226.85237,514.69075)">
      <path
         inkscape:connector-curvature="0"
         d="m 0,0 1.26,-0.66 -2.58,-0.3 0.96,1.74 18.9,-39 -1.26,0.72 2.58,0.24 L 18.9,-39 0,0 z m 21.06,-37.92 c 0.18,-0.36 0.18,-0.78 0,-1.14 -0.18,-0.36 -0.54,-0.6 -0.96,-0.6 l -2.52,-0.3 c -0.54,-0.06 -1.02,0.24 -1.26,0.72 L -2.58,-0.3 c -0.12,0.36 -0.12,0.78 0.06,1.14 0.18,0.36 0.54,0.6 0.96,0.6 l 2.52,0.3 C 1.5,1.8 1.98,1.5 2.22,1.08"
         style="fill:#ff3300;fill-opacity:1;fill-rule:nonzero;stroke:none"
         id="path11533" />
    </g>
    <g
       id="g11535"
       transform="matrix(0,1.25,1.25,0,177.95237,529.39075)">
      <path
         inkscape:connector-curvature="0"
         d="M 0,0 9.78,-5.4 13.92,1.32 0,0"
         style="fill:#ff0000;fill-opacity:1;fill-rule:evenodd;stroke:none"
         id="path11537" />
    </g>
    <g
       id="g11539"
       transform="matrix(0,1.25,1.25,0,176.45237,529.54075)">
      <path
         inkscape:connector-curvature="0"
         d="M 0,0 0.48,2.28 10.26,-3.18 8.64,-3.6 12.72,3.18 13.92,1.32 0,0 z m 13.68,3.72 c 0.42,0.06 0.9,-0.18 1.14,-0.54 0.24,-0.42 0.24,-0.9 0,-1.26 L 10.68,-4.86 C 10.38,-5.4 9.66,-5.58 9.06,-5.28 l -9.78,5.46 c -0.48,0.24 -0.72,0.78 -0.6,1.32 0.12,0.48 0.54,0.9 1.08,0.96"
         style="fill:#ff3300;fill-opacity:1;fill-rule:nonzero;stroke:none"
         id="path11541" />
    </g>
  </g>
</svg>
