<?xml version="1.0" encoding="UTF-8" standalone="no"?>
<!-- Created with Inkscape (http://www.inkscape.org/) -->

<svg
   xmlns:dc="http://purl.org/dc/elements/1.1/"
   xmlns:cc="http://creativecommons.org/ns#"
   xmlns:rdf="http://www.w3.org/1999/02/22-rdf-syntax-ns#"
   xmlns:svg="http://www.w3.org/2000/svg"
   xmlns="http://www.w3.org/2000/svg"
   xmlns:sodipodi="http://sodipodi.sourceforge.net/DTD/sodipodi-0.dtd"
   xmlns:inkscape="http://www.inkscape.org/namespaces/inkscape"
   width="732.49878"
   height="153.28218"
   id="svg12565"
   version="1.1"
   inkscape:version="0.48.4 r9939"
   sodipodi:docname="New document 34">
  <defs
     id="defs12567">
    <clipPath
       id="clipPath12721"
       clipPathUnits="userSpaceOnUse">
      <path
         id="path12723"
         d="m 0,841.98 595.2,0 L 595.2,0 0,0 0,841.98 z"
         inkscape:connector-curvature="0" />
    </clipPath>
    <clipPath
       id="clipPath12715"
       clipPathUnits="userSpaceOnUse">
      <path
         id="path12717"
         clip-rule="evenodd"
         d="m 6,0.11053 582.84,0 0,841.86 -582.84,0 0,-841.86 z m 351,416.10047 11.28,0 0,-34.02 22.68,0 0,34.02 11.28,0 -22.68,11.34 0,-0.06 -0.12,0 0,-0.06 -0.12,0 0,-0.06 -0.12,0 0,-0.06 -0.12,0 0,-0.06 -0.12,0 0,-0.06 -0.12,0 0,-0.06 -0.12,0 0,-0.06 -0.12,0 0,-0.06 -0.12,0 0,-0.06 -0.12,0 0,-0.06 -0.12,0 0,-0.06 -0.12,0 0,-0.06 -0.12,0 0,-0.06 -0.12,0 0,-0.06 -0.12,0 0,-0.06 -0.12,0 0,-0.06 -0.12,0 0,-0.06 -0.12,0 0,-0.06 -0.12,0 0,-0.06 -0.12,0 0,-0.06 -0.12,0 0,-0.06 -0.12,0 0,-0.06 -0.12,0 0,-0.06 -0.12,0 0,-0.06 -0.12,0 0,-0.06 -0.12,0 0,-0.06 -0.12,0 0,-0.06 -0.12,0 0,-0.06 -0.12,0 0,-0.06 -0.12,0 0,-0.06 -0.12,0 0,-0.06 -0.12,0 0,-0.06 -0.12,0 0,-0.06 -0.12,0 0,-0.06 -0.12,0 0,-0.06 -0.12,0 0,-0.06 -0.12,0 0,-0.06 -0.12,0 0,-0.06 -0.12,0 0,-0.06 -0.12,0 0,-0.06 -0.12,0 0,-0.06 -0.12,0 0,-0.06 -0.12,0 0,-0.06 -0.12,0 0,-0.06 -0.12,0 0,-0.06 -0.12,0 0,-0.06 -0.12,0 0,-0.06 -0.12,0 0,-0.06 -0.12,0 0,-0.06 -0.12,0 0,-0.06 -0.12,0 0,-0.06 -0.12,0 0,-0.06 -0.12,0 0,-0.06 -0.12,0 0,-0.06 -0.12,0 0,-0.06 -0.12,0 0,-0.06 -0.12,0 0,-0.06 -0.12,0 0,-0.06 -0.12,0 0,-0.06 -0.12,0 0,-0.06 -0.12,0 0,-0.06 -0.12,0 0,-0.06 -0.12,0 0,-0.06 -0.12,0 0,-0.06 -0.12,0 0,-0.06 -0.12,0 0,-0.06 -0.12,0 0,-0.06 -0.12,0 0,-0.06 -0.12,0 0,-0.06 -0.12,0 0,-0.06 -0.12,0 0,-0.06 -0.12,0 0,-0.06 -0.12,0 0,-0.06 -0.12,0 0,-0.06 -0.12,0 0,-0.06 -0.12,0 0,-0.06 -0.12,0 0,-0.06 -0.12,0 0,-0.06 -0.12,0 0,-0.06 -0.12,0 0,-0.06 -0.12,0 0,-0.06 -0.12,0 0,-0.06 -0.12,0 0,-0.06 -0.12,0 0,-0.06 -0.12,0 0,-0.06 -0.12,0 0,-0.06 -0.12,0 0,-0.06 -0.12,0 0,-0.06 -0.12,0 0,-0.06 -0.12,0 0,-0.06 -0.12,0 0,-0.06 -0.12,0 0,-0.06 -0.12,0 0,-0.06 -0.12,0 0,-0.06 -0.12,0 0,-0.06 -0.12,0 0,-0.06 -0.12,0 0,-0.06 -0.12,0 0,-0.06 -0.12,0 0,-0.06 -0.12,0 0,-0.06 -0.12,0 0,-0.06 -0.12,0 0,-0.06 -0.12,0 0,-0.06 -0.12,0 0,-0.06 -0.12,0 0,-0.06 -0.12,0 0,-0.06 -0.12,0 0,-0.06 -0.12,0 0,-0.06 -0.12,0 0,-0.06 -0.12,0 0,-0.06 -0.12,0 0,-0.06 -0.12,0 0,-0.06 -0.12,0 0,-0.06 -0.12,0 0,-0.06 -0.12,0 0,-0.06 -0.12,0 0,-0.06 -0.12,0 0,-0.06 -0.12,0 0,-0.06 -0.12,0 0,-0.06 -0.12,0 0,-0.06 -0.12,0 0,-0.06 -0.12,0 0,-0.06 -0.12,0 0,-0.06 -0.12,0 0,-0.06 -0.12,0 0,-0.06 -0.12,0 0,-0.06 -0.12,0 0,-0.06 -0.12,0 0,-0.06 -0.12,0 0,-0.06 -0.12,0 0,-0.06 -0.12,0 0,-0.06 -0.12,0 0,-0.06 -0.12,0 0,-0.06 -0.12,0 0,-0.06 -0.12,0 0,-0.06 -0.12,0 0,-0.06 -0.12,0 0,-0.06 -0.12,0 0,-0.06 -0.12,0 0,-0.06 -0.12,0 0,-0.06 -0.12,0 0,-0.06 -0.12,0 0,-0.06 -0.12,0 0,-0.06 -0.12,0 0,-0.06 -0.12,0 0,-0.06 -0.12,0 0,-0.06 -0.12,0 0,-0.06 -0.12,0 0,-0.06 -0.12,0 0,-0.06 -0.12,0 0,-0.06 -0.12,0 0,-0.06 -0.12,0 0,-0.06 -0.12,0 0,-0.06 -0.12,0 0,-0.06 -0.12,0 0,-0.06 -0.12,0 0,-0.06 -0.12,0 0,-0.06 -0.12,0 0,-0.06 -0.12,0 0,-0.06 -0.12,0 0,-0.06 -0.12,0 0,-0.06 -0.12,0 0,-0.06 -0.12,0 0,-0.06 -0.12,0 0,-0.06 -0.12,0 0,-0.06 -0.12,0 0,-0.06 -0.12,0 0,-0.06 -0.12,0 0,-0.06 -0.12,0 0,-0.06 -0.12,0 0,-0.06 -0.12,0 0,-0.06 -0.12,0 0,-0.06 -0.12,0 0,-0.06 -0.12,0 0,-0.06 -0.12,0 0,-0.06 -0.12,0 0,-0.06 -0.12,0 0,-0.06 -0.12,0 0,-0.06 -0.12,0 0,-0.06 -0.12,0 0,-0.06 -0.12,0 0,-0.06 -0.12,0 0,-0.06 -0.12,0 0,-0.06 -0.12,0 0,-0.06 -0.12,0 0,-0.06 -0.12,0 0,-0.06 -0.12,0 0,-0.06 -0.12,0"
         inkscape:connector-curvature="0" />
    </clipPath>
    <clipPath
       id="clipPath12703"
       clipPathUnits="userSpaceOnUse">
      <path
         id="path12705"
         d="m 0,841.98 595.2,0 L 595.2,0 0,0 0,841.98 z"
         inkscape:connector-curvature="0" />
    </clipPath>
    <clipPath
       id="clipPath12697"
       clipPathUnits="userSpaceOnUse">
      <path
         id="path12699"
         clip-rule="evenodd"
         d="m 6,0.11053 582.84,0 0,841.86 -582.84,0 0,-841.86 z m 351,416.10047 11.28,0 0,-34.02 22.68,0 0,34.02 11.28,0 -22.68,11.34 0,-0.06 -0.12,0 0,-0.06 -0.12,0 0,-0.06 -0.12,0 0,-0.06 -0.12,0 0,-0.06 -0.12,0 0,-0.06 -0.12,0 0,-0.06 -0.12,0 0,-0.06 -0.12,0 0,-0.06 -0.12,0 0,-0.06 -0.12,0 0,-0.06 -0.12,0 0,-0.06 -0.12,0 0,-0.06 -0.12,0 0,-0.06 -0.12,0 0,-0.06 -0.12,0 0,-0.06 -0.12,0 0,-0.06 -0.12,0 0,-0.06 -0.12,0 0,-0.06 -0.12,0 0,-0.06 -0.12,0 0,-0.06 -0.12,0 0,-0.06 -0.12,0 0,-0.06 -0.12,0 0,-0.06 -0.12,0 0,-0.06 -0.12,0 0,-0.06 -0.12,0 0,-0.06 -0.12,0 0,-0.06 -0.12,0 0,-0.06 -0.12,0 0,-0.06 -0.12,0 0,-0.06 -0.12,0 0,-0.06 -0.12,0 0,-0.06 -0.12,0 0,-0.06 -0.12,0 0,-0.06 -0.12,0 0,-0.06 -0.12,0 0,-0.06 -0.12,0 0,-0.06 -0.12,0 0,-0.06 -0.12,0 0,-0.06 -0.12,0 0,-0.06 -0.12,0 0,-0.06 -0.12,0 0,-0.06 -0.12,0 0,-0.06 -0.12,0 0,-0.06 -0.12,0 0,-0.06 -0.12,0 0,-0.06 -0.12,0 0,-0.06 -0.12,0 0,-0.06 -0.12,0 0,-0.06 -0.12,0 0,-0.06 -0.12,0 0,-0.06 -0.12,0 0,-0.06 -0.12,0 0,-0.06 -0.12,0 0,-0.06 -0.12,0 0,-0.06 -0.12,0 0,-0.06 -0.12,0 0,-0.06 -0.12,0 0,-0.06 -0.12,0 0,-0.06 -0.12,0 0,-0.06 -0.12,0 0,-0.06 -0.12,0 0,-0.06 -0.12,0 0,-0.06 -0.12,0 0,-0.06 -0.12,0 0,-0.06 -0.12,0 0,-0.06 -0.12,0 0,-0.06 -0.12,0 0,-0.06 -0.12,0 0,-0.06 -0.12,0 0,-0.06 -0.12,0 0,-0.06 -0.12,0 0,-0.06 -0.12,0 0,-0.06 -0.12,0 0,-0.06 -0.12,0 0,-0.06 -0.12,0 0,-0.06 -0.12,0 0,-0.06 -0.12,0 0,-0.06 -0.12,0 0,-0.06 -0.12,0 0,-0.06 -0.12,0 0,-0.06 -0.12,0 0,-0.06 -0.12,0 0,-0.06 -0.12,0 0,-0.06 -0.12,0 0,-0.06 -0.12,0 0,-0.06 -0.12,0 0,-0.06 -0.12,0 0,-0.06 -0.12,0 0,-0.06 -0.12,0 0,-0.06 -0.12,0 0,-0.06 -0.12,0 0,-0.06 -0.12,0 0,-0.06 -0.12,0 0,-0.06 -0.12,0 0,-0.06 -0.12,0 0,-0.06 -0.12,0 0,-0.06 -0.12,0 0,-0.06 -0.12,0 0,-0.06 -0.12,0 0,-0.06 -0.12,0 0,-0.06 -0.12,0 0,-0.06 -0.12,0 0,-0.06 -0.12,0 0,-0.06 -0.12,0 0,-0.06 -0.12,0 0,-0.06 -0.12,0 0,-0.06 -0.12,0 0,-0.06 -0.12,0 0,-0.06 -0.12,0 0,-0.06 -0.12,0 0,-0.06 -0.12,0 0,-0.06 -0.12,0 0,-0.06 -0.12,0 0,-0.06 -0.12,0 0,-0.06 -0.12,0 0,-0.06 -0.12,0 0,-0.06 -0.12,0 0,-0.06 -0.12,0 0,-0.06 -0.12,0 0,-0.06 -0.12,0 0,-0.06 -0.12,0 0,-0.06 -0.12,0 0,-0.06 -0.12,0 0,-0.06 -0.12,0 0,-0.06 -0.12,0 0,-0.06 -0.12,0 0,-0.06 -0.12,0 0,-0.06 -0.12,0 0,-0.06 -0.12,0 0,-0.06 -0.12,0 0,-0.06 -0.12,0 0,-0.06 -0.12,0 0,-0.06 -0.12,0 0,-0.06 -0.12,0 0,-0.06 -0.12,0 0,-0.06 -0.12,0 0,-0.06 -0.12,0 0,-0.06 -0.12,0 0,-0.06 -0.12,0 0,-0.06 -0.12,0 0,-0.06 -0.12,0 0,-0.06 -0.12,0 0,-0.06 -0.12,0 0,-0.06 -0.12,0 0,-0.06 -0.12,0 0,-0.06 -0.12,0 0,-0.06 -0.12,0 0,-0.06 -0.12,0 0,-0.06 -0.12,0 0,-0.06 -0.12,0 0,-0.06 -0.12,0 0,-0.06 -0.12,0 0,-0.06 -0.12,0 0,-0.06 -0.12,0 0,-0.06 -0.12,0 0,-0.06 -0.12,0 0,-0.06 -0.12,0 0,-0.06 -0.12,0 0,-0.06 -0.12,0 0,-0.06 -0.12,0 0,-0.06 -0.12,0 0,-0.06 -0.12,0 0,-0.06 -0.12,0 0,-0.06 -0.12,0 0,-0.06 -0.12,0 0,-0.06 -0.12,0 0,-0.06 -0.12,0 0,-0.06 -0.12,0 0,-0.06 -0.12,0 0,-0.06 -0.12,0 0,-0.06 -0.12,0 0,-0.06 -0.12,0 0,-0.06 -0.12,0 0,-0.06 -0.12,0 0,-0.06 -0.12,0 0,-0.06 -0.12,0 0,-0.06 -0.12,0 0,-0.06 -0.12,0 0,-0.06 -0.12,0 0,-0.06 -0.12,0 0,-0.06 -0.12,0 0,-0.06 -0.12,0 0,-0.06 -0.12,0 0,-0.06 -0.12,0 0,-0.06 -0.12,0 0,-0.06 -0.12,0 0,-0.06 -0.12,0"
         inkscape:connector-curvature="0" />
    </clipPath>
    <clipPath
       id="clipPath12593"
       clipPathUnits="userSpaceOnUse">
      <path
         id="path12595"
         d="m 0,841.98 595.2,0 L 595.2,0 0,0 0,841.98 z"
         inkscape:connector-curvature="0" />
    </clipPath>
    <clipPath
       id="clipPath12587"
       clipPathUnits="userSpaceOnUse">
      <path
         id="path12589"
         clip-rule="evenodd"
         d="m 588.84,0.11053 -582.84,0 0,841.86 582.84,0 0,-841.86 z"
         inkscape:connector-curvature="0" />
    </clipPath>
  </defs>
  <sodipodi:namedview
     id="base"
     pagecolor="#ffffff"
     bordercolor="#666666"
     borderopacity="1.0"
     inkscape:pageopacity="0.0"
     inkscape:pageshadow="2"
     inkscape:zoom="0.7"
     inkscape:cx="397.41125"
     inkscape:cy="124.23408"
     inkscape:document-units="px"
     inkscape:current-layer="layer1"
     showgrid="false"
     fit-margin-top="10"
     fit-margin-left="10"
     fit-margin-right="10"
     fit-margin-bottom="10"
     inkscape:window-width="954"
     inkscape:window-height="1028"
     inkscape:window-x="0"
     inkscape:window-y="0"
     inkscape:window-maximized="0" />
  <metadata
     id="metadata12570">
    <rdf:RDF>
      <cc:Work
         rdf:about="">
        <dc:format>image/svg+xml</dc:format>
        <dc:type
           rdf:resource="http://purl.org/dc/dcmitype/StillImage" />
        <dc:title></dc:title>
      </cc:Work>
    </rdf:RDF>
  </metadata>
  <g
     inkscape:label="Layer 1"
     inkscape:groupmode="layer"
     id="layer1"
     transform="translate(148.02978,-565.12643)">
    <g
       id="g12647"
       transform="matrix(0,1.25,1.25,0,-137.57978,647.73361)">
      <path
         inkscape:connector-curvature="0"
         d="m 0,0 c -7.14,0 -12.96,44.94 -12.96,100.38 0,55.44 5.82,100.38 12.96,100.38 7.14,0 12.96,-44.94 12.96,-100.38 C 12.96,44.94 7.14,0 0,0"
         style="fill:#b2b2b2;fill-opacity:1;fill-rule:evenodd;stroke:none"
         id="path12649" />
    </g>
    <g
       id="g12651"
       transform="matrix(0,1.25,1.25,0,-138.02978,647.80861)">
      <path
         inkscape:connector-curvature="0"
         d="m 0,0 c -0.06,0 -0.06,0 -0.12,0 l -0.3,0 c -0.06,0 -0.06,0 -0.12,0 l -0.3,0.12 c -0.06,0 -0.06,0 -0.06,0 L -1.26,0.3 c 0,0 0,0 -0.06,0.06 l -0.3,0.18 -0.72,0.72 C -6.531,6.987 -8.021,19.518 -9.18,26.4 l -0.42,3.3 -0.48,3.54 c -2.186,19.069 -2.955,38.062 -3.3,57.24 l -0.06,5.1 0,10.32 0.06,5.1 c 0.339,19.206 1.122,38.204 3.3,57.3 l 0.48,3.48 0.42,3.3 0.48,3.18 0.48,3 0.54,2.82 0.48,2.58 0.54,2.46 0.6,2.22 0.54,2.04 c 0.561,1.845 1.673,4.86 2.82,6.42 l 0.36,0.42 0.3,0.36 0.36,0.36 0.36,0.24 c 0.06,0 0.06,0 0.06,0 l 0.36,0.18 c 0,0 0,0 0.06,0.06 l 0.3,0.06 c 0.06,0 0.06,0 0.12,0 l 0.3,0.06 c 0.06,0 0.06,0 0.12,0 l 0.3,-0.06 0.06,0 0.36,-0.06 c 0,-0.06 0.06,-0.06 0.06,-0.06 l 0.3,-0.18 c 0.06,0 0.06,0 0.06,0 l 0.36,-0.24 0.36,-0.3 0.36,-0.36 0.3,-0.48 0.36,-0.48 0.66,-1.14 0.6,-1.38 0.6,-1.62 0.6,-1.8 0.6,-2.04 c 1.066,-4.283 1.992,-8.717 2.64,-13.08 l 0.48,-3.12 0.42,-3.36 0.42,-3.48 c 2.189,-18.796 3.06,-38.384 3.3,-57.3 l 0.06,-5.1 0,-10.32 -0.06,-5.1 C 12.954,71.595 12.096,52.004 9.9,33.24 L 9.48,29.7 9.06,26.4 8.58,23.22 8.1,20.28 7.56,17.46 7.02,14.82 6.48,12.42 5.94,10.2 5.34,8.16 C 4.568,5.867 3.96,3.756 2.58,1.74 L 2.22,1.26 1.86,0.9 1.5,0.6 1.14,0.36 C 1.14,0.3 1.14,0.3 1.08,0.3 L 0.78,0.12 0.72,0.12 0.36,0 0.3,0 0,0 z m 0.24,0.84 -0.06,-0.06 0.3,0.12 -0.06,0 0.36,0.12 -0.06,0 0.24,0.18 0.3,0.24 0.3,0.36 c 4.444,6.628 5.243,17.039 6.66,24.72 l 0.48,3.3 0.42,3.48 c 2.194,18.978 2.987,38.088 3.3,57.18 l 0.06,5.1 0,10.32 -0.06,5.1 c -0.317,19.091 -1.102,38.203 -3.3,57.18 l -0.42,3.48 -0.48,3.36 c -1.541,8.238 -2.074,17.387 -6.6,24.66 l -0.3,0.36 -0.6,0.48 0.06,-0.06 -0.36,0.18 0.06,0 -0.3,0.06 0.06,0 -0.36,0.06 0.12,0 -0.36,-0.06 0.06,0 -0.3,-0.06 0.06,0 -0.36,-0.18 0.06,0.06 -0.3,-0.18 -0.6,-0.6 c -3.985,-5.527 -5.518,-18.098 -6.66,-24.72 l -0.42,-3.36 -0.42,-3.48 c -2.167,-18.978 -3.046,-38.088 -3.3,-57.18 l -0.06,-5.1 0,-10.32 0.06,-5.1 c 0.251,-19.093 1.138,-38.201 3.3,-57.18 l 0.42,-3.48 0.42,-3.3 C -6.85,18.251 -6.29,9.101 -1.74,1.8 l 0.6,-0.6 0.3,-0.18 -0.06,0 0.36,-0.12 -0.06,0 0.3,-0.12 -0.06,0.06 0.36,-0.06 -0.12,0"
         style="fill:#000000;fill-opacity:1;fill-rule:nonzero;stroke:none"
         id="path12653" />
    </g>
    <text
       id="text12655"
       x="-111.6304"
       y="588.25861"
       style="font-size:15px">
      <tspan
         style="font-size:18.89999962px;font-variant:normal;font-weight:bold;font-stretch:normal;writing-mode:lr-tb;fill:#000000;fill-opacity:1;fill-rule:nonzero;stroke:none;font-family:Courier New;-inkscape-font-specification:CourierNewPS-BoldMT"
         x="-111.6304 -100.31875 -89.007103 -77.69545 -66.4216 -55.109951 -43.798302 -32.486652 -21.212795 -9.9011497 1.4104955 12.722151 23.996002 35.307648"
         y="588.25861"
         sodipodi:role="line"
         id="tspan12657">add $1, $2, $3</tspan>
      <tspan
         style="font-size:18.89999962px;font-variant:normal;font-weight:bold;font-stretch:normal;writing-mode:lr-tb;fill:#000000;fill-opacity:1;fill-rule:nonzero;stroke:none;font-family:Courier New;-inkscape-font-specification:CourierNewPS-BoldMT"
         x="-111.6304 -100.33198 -89.033562 -77.729469 -66.431046 -55.132629 -43.828537 -32.530121 -21.231697 -9.9276142 1.3708131 12.674896 23.973324 35.27174 46.57016"
         y="622.23328"
         sodipodi:role="line"
         id="tspan12659">if $2 == 0 then</tspan>
      <tspan
         style="font-size:18.89999962px;font-variant:normal;font-weight:bold;font-stretch:normal;writing-mode:lr-tb;fill:#000000;fill-opacity:1;fill-rule:nonzero;stroke:none;font-family:Courier New;-inkscape-font-specification:CourierNewPS-BoldMT"
         x="-111.6304 -100.31875 -89.007103 -77.69545 -66.448059 -55.136414 -43.82476 -32.513111 -21.201456 -9.8898106 1.3575761 12.669231 23.980877 35.292542"
         y="656.28351"
         sodipodi:role="line"
         id="tspan12661">br. delay slot</tspan>
    </text>
    <path
       inkscape:connector-curvature="0"
       d="m 80.97022,614.80861 0,1.05 56.7,0 0,-1.05 -56.7,0 z"
       style="fill:#000000;fill-opacity:1;fill-rule:nonzero;stroke:none"
       id="path12663" />
    <path
       inkscape:connector-curvature="0"
       d="m 137.14522,615.33361 0,89.025 1.05,0 0,-89.025 -1.05,0 z"
       style="fill:#000000;fill-opacity:1;fill-rule:nonzero;stroke:none"
       id="path12665" />
    <path
       inkscape:connector-curvature="0"
       d="m 137.67022,704.88361 0,-0.975 -48.6,0 0,0.975 48.6,0 z m 0,-0.975 z m -48.6,0.45 5.4,-4.05 -13.5,4.05 13.5,4.05"
       style="fill:#000000;fill-opacity:1;fill-rule:nonzero;stroke:none"
       id="path12667" />
    <g
       id="g12673"
       transform="matrix(0,1.25,1.25,0,298.69522,646.23361)">
      <path
         inkscape:connector-curvature="0"
         d="m 0,0 c -7.2,0 -12.96,44.94 -12.96,100.38 0,55.44 5.76,100.38 12.96,100.38 7.14,0 12.9,-44.94 12.9,-100.38 C 12.9,44.94 7.14,0 0,0"
         style="fill:#b2b2b2;fill-opacity:1;fill-rule:evenodd;stroke:none"
         id="path12675" />
    </g>
    <g
       id="g12677"
       transform="matrix(0,1.25,1.25,0,298.24522,646.23361)">
      <path
         inkscape:connector-curvature="0"
         d="m 0,0 -0.42,0 c 0,0 0,0 -0.06,0 l -0.3,0.12 c -0.06,0 -0.06,0 -0.06,0.06 L -1.2,0.3 -1.26,0.36 -1.56,0.54 c -3.711,3.03 -5.817,15.307 -6.6,19.74 l -0.48,2.94 -0.48,3.18 c -2.756,19.473 -3.613,39.396 -4.14,59.04 l -0.06,5.04 -0.06,5.1 0,10.32 c 0.159,19.576 0.945,39.26 2.94,58.74 l 0.42,3.66 0.42,3.48 0.48,3.36 c 0.72,4.74 1.398,9.31 2.52,13.98 l 0.54,2.22 0.6,2.04 c 0.611,1.996 1.59,4.711 2.82,6.42 l 0.3,0.42 0.72,0.72 0.36,0.24 c 0,0 0.06,0 0.06,0.06 l 0.36,0.12 c 0,0 0,0.06 0.06,0.06 l 0.3,0.06 c 0.06,0 0.06,0 0.06,0 l 0.36,0.06 0.06,0 0.36,-0.06 0.06,0 0.36,-0.06 c 0,0 0,-0.06 0.06,-0.06 l 0.3,-0.12 c 0,-0.06 0.06,-0.06 0.06,-0.06 l 0.3,-0.24 0.42,-0.3 0.3,-0.36 0.72,-0.96 0.6,-1.14 0.66,-1.38 0.6,-1.62 0.6,-1.8 0.6,-2.04 c 1.154,-4.392 1.86,-8.62 2.64,-13.08 l 0.42,-3.12 0.48,-3.36 0.42,-3.48 c 2.349,-20.69 3.194,-41.527 3.36,-62.34 l 0,-10.38 -0.06,-5.1 -0.06,-5.04 C 12.77,66.842 11.848,48.229 9.54,29.76 L 9.06,26.4 8.64,23.22 C 7.681,18.242 5.687,4.062 1.56,0.6 L 1.2,0.36 1.14,0.3 0.84,0.18 C 0.78,0.12 0.78,0.12 0.78,0.12 L 0.42,0 0.36,0 0,0 z M 0.24,0.84 0.18,0.78 0.54,0.9 l -0.06,0 0.3,0.12 -0.06,0 0.3,0.18 0.3,0.24 0.3,0.36 c 4.035,5.652 5.565,17.996 6.66,24.72 l 0.48,3.3 0.42,3.48 c 2.144,19.077 2.978,37.994 3.3,57.18 l 0,5.1 0.06,5.16 -0.06,5.16 0,5.1 c -0.325,19.167 -1.15,38.122 -3.3,57.18 l -0.42,3.48 -0.48,3.36 c -1.14,6.868 -2.594,18.873 -6.6,24.72 l -0.3,0.3 -0.3,0.24 -0.36,0.24 0.06,-0.06 -0.3,0.18 0.06,0 -0.36,0.06 0.06,0 -0.3,0.06 0.06,0 -0.3,-0.06 0.06,0 -0.36,-0.06 0.06,0 -0.3,-0.18 0.06,0.06 -0.3,-0.18 -0.6,-0.6 c -4.017,-5.624 -5.523,-18.021 -6.66,-24.72 l -0.42,-3.3 -0.48,-3.54 c -2.077,-18.923 -3.042,-38.149 -3.24,-57.18 l -0.06,-5.1 -0.06,-5.16 0.06,-5.16 0.06,-5.1 c 0.197,-19.047 1.169,-38.241 3.24,-57.18 l 0.48,-3.48 0.42,-3.3 C -7.213,19.832 -5.692,7.418 -1.68,1.8 l 0.54,-0.54 0.36,-0.24 -0.06,0 0.3,-0.12 -0.06,0 0.36,-0.12 -0.06,0.06 0.3,-0.06 -0.06,0"
         style="fill:#000000;fill-opacity:1;fill-rule:nonzero;stroke:none"
         id="path12679" />
    </g>
    <text
       id="text12681"
       x="324.64459"
       y="620.73358"
       style="font-size:15px">
      <tspan
         style="font-size:18.89999962px;font-variant:normal;font-weight:bold;font-stretch:normal;writing-mode:lr-tb;fill:#000000;fill-opacity:1;fill-rule:nonzero;stroke:none;font-family:Courier New;-inkscape-font-specification:CourierNewPS-BoldMT"
         x="324.64459 335.94302 347.24142 358.54553 369.84393 381.14236 392.44644 403.74487 415.0433 426.34738 437.64581 448.94989 460.24832 471.54672 482.84515"
         y="620.73358"
         sodipodi:role="line"
         id="tspan12683">if $2 == 0 then</tspan>
      <tspan
         style="font-size:18.89999962px;font-variant:normal;font-weight:bold;font-stretch:normal;writing-mode:lr-tb;fill:#000000;fill-opacity:1;fill-rule:nonzero;stroke:none;font-family:Courier New;-inkscape-font-specification:CourierNewPS-BoldMT"
         x="324.64459 335.95624 347.26788 358.57953 369.85339 381.16504 392.47668 403.78833 415.06219 426.37384 437.68549 448.99713 460.271 471.58264"
         y="654.78387"
         sodipodi:role="line"
         id="tspan12685">add $1, $2, $3</tspan>
    </text>
    <path
       inkscape:connector-curvature="0"
       d="m 517.31897,611.65861 0,0.975 56.625,0 0,-0.975 -56.625,0 z"
       style="fill:#000000;fill-opacity:1;fill-rule:nonzero;stroke:none"
       id="path12687" />
    <path
       inkscape:connector-curvature="0"
       d="m 573.41897,612.10861 0,89.1 1.05004,0 0,-89.1 -1.05004,0 z"
       style="fill:#000000;fill-opacity:1;fill-rule:nonzero;stroke:none"
       id="path12689" />
    <path
       inkscape:connector-curvature="0"
       d="m 573.94522,701.65861 0,-0.97504 -48.6,0 0,0.97504 48.6,0 z m 0,-0.975 z m -48.6,0.525 5.4,-4.05 -13.42625,4.05 13.42625,4.05"
       style="fill:#000000;fill-opacity:1;fill-rule:nonzero;stroke:none"
       id="path12691" />
    <g
       id="g12693"
       transform="matrix(0,1.25,1.25,0,-283.44353,169.15861)">
      <g
         id="g12695"
         clip-path="url(#clipPath12697)">
        <g
           id="g12701"
           clip-path="url(#clipPath12703)">
          <g
             id="g12707"
             transform="translate(368.28,382.191)">
            <path
               inkscape:connector-curvature="0"
               d="m 0,0 0,34.02 -11.34,0 22.68,11.34 22.68,-11.34 -11.34,0 0,-34.02"
               style="fill:#00cc99;fill-opacity:1;fill-rule:evenodd;stroke:none"
               id="path12709" />
          </g>
        </g>
      </g>
    </g>
    <g
       id="g12711"
       transform="matrix(0,1.25,1.25,0,-283.44353,169.15861)">
      <g
         id="g12713"
         clip-path="url(#clipPath12715)">
        <g
           id="g12719"
           clip-path="url(#clipPath12721)">
          <g
             id="g12725"
             transform="translate(367.86,381.831)">
            <path
               inkscape:connector-curvature="0"
               d="m 0,0 0,34.38 0.42,-0.42 -13.08,0 24.42,12.24 24.36,-12.24 -13.02,0 0.36,0.42 L 23.46,0 0,0 z m 23.1,0.78 -0.42,-0.42 0,34.44 11.76,0 -0.18,-0.78 -22.68,11.34 0.36,0 -22.68,-11.34 -0.18,0.78 11.76,0 0,-34.44 -0.42,0.42"
               style="fill:#000000;fill-opacity:1;fill-rule:nonzero;stroke:none"
               id="path12727" />
          </g>
        </g>
      </g>
    </g>
    <g
       id="g12729"
       transform="matrix(0,1.25,1.25,0,194.29522,629.50861)">
      <path
         inkscape:connector-curvature="0"
         d="m 0,0 0,34.02 -11.34,0 22.68,11.34 22.68,-11.34 -11.34,0 0,-34.02"
         style="fill:#00cc99;fill-opacity:1;fill-rule:evenodd;stroke:none"
         id="path12731" />
    </g>
    <g
       id="g12733"
       transform="matrix(0,1.25,1.25,0,193.84522,628.98361)">
      <path
         inkscape:connector-curvature="0"
         d="m 0,0 0,34.38 0.42,-0.42 -13.08,0 24.42,12.24 24.36,-12.24 -13.02,0 0.36,0.42 L 23.46,0 0,0 z m 23.1,0.78 -0.42,-0.42 0,34.44 11.76,0 -0.18,-0.78 -22.68,11.34 0.36,0 -22.68,-11.34 -0.18,0.78 11.76,0 0,-34.44 -0.42,0.42"
         style="fill:#000000;fill-opacity:1;fill-rule:nonzero;stroke:none"
         id="path12735" />
    </g>
  </g>
</svg>
