<?xml version="1.0" encoding="UTF-8" standalone="no"?>
<!-- Created with Inkscape (http://www.inkscape.org/) -->

<svg
   xmlns:dc="http://purl.org/dc/elements/1.1/"
   xmlns:cc="http://creativecommons.org/ns#"
   xmlns:rdf="http://www.w3.org/1999/02/22-rdf-syntax-ns#"
   xmlns:svg="http://www.w3.org/2000/svg"
   xmlns="http://www.w3.org/2000/svg"
   xmlns:sodipodi="http://sodipodi.sourceforge.net/DTD/sodipodi-0.dtd"
   xmlns:inkscape="http://www.inkscape.org/namespaces/inkscape"
   width="738.72504"
   height="216.50719"
   id="svg12899"
   version="1.1"
   inkscape:version="0.48.4 r9939"
   sodipodi:docname="New document 37">
  <defs
     id="defs12901">
    <clipPath
       id="clipPath13065"
       clipPathUnits="userSpaceOnUse">
      <path
         id="path13067"
         d="m 0,841.98 595.2,0 L 595.2,0 0,0 0,841.98 z"
         inkscape:connector-curvature="0" />
    </clipPath>
    <clipPath
       id="clipPath13059"
       clipPathUnits="userSpaceOnUse">
      <path
         id="path13061"
         clip-rule="evenodd"
         d="m 6,0.11053 582.84,0 0,841.86 -582.84,0 0,-841.86 z m 378.36,416.10047 11.28,0 0,-34.02 22.68,0 0,34.02 11.28,0 -22.68,11.34 0,-0.06 -0.12,0 0,-0.06 -0.12,0 0,-0.06 -0.12,0 0,-0.06 -0.12,0 0,-0.06 -0.12,0 0,-0.06 -0.12,0 0,-0.06 -0.12,0 0,-0.06 -0.12,0 0,-0.06 -0.12,0 0,-0.06 -0.12,0 0,-0.06 -0.12,0 0,-0.06 -0.12,0 0,-0.06 -0.12,0 0,-0.06 -0.12,0 0,-0.06 -0.12,0 0,-0.06 -0.12,0 0,-0.06 -0.12,0 0,-0.06 -0.12,0 0,-0.06 -0.12,0 0,-0.06 -0.12,0 0,-0.06 -0.12,0 0,-0.06 -0.12,0 0,-0.06 -0.12,0 0,-0.06 -0.12,0 0,-0.06 -0.12,0 0,-0.06 -0.12,0 0,-0.06 -0.12,0 0,-0.06 -0.12,0 0,-0.06 -0.12,0 0,-0.06 -0.12,0 0,-0.06 -0.12,0 0,-0.06 -0.12,0 0,-0.06 -0.12,0 0,-0.06 -0.12,0 0,-0.06 -0.12,0 0,-0.06 -0.12,0 0,-0.06 -0.12,0 0,-0.06 -0.12,0 0,-0.06 -0.12,0 0,-0.06 -0.12,0 0,-0.06 -0.12,0 0,-0.06 -0.12,0 0,-0.06 -0.12,0 0,-0.06 -0.12,0 0,-0.06 -0.12,0 0,-0.06 -0.12,0 0,-0.06 -0.12,0 0,-0.06 -0.12,0 0,-0.06 -0.12,0 0,-0.06 -0.12,0 0,-0.06 -0.12,0 0,-0.06 -0.12,0 0,-0.06 -0.12,0 0,-0.06 -0.12,0 0,-0.06 -0.12,0 0,-0.06 -0.12,0 0,-0.06 -0.12,0 0,-0.06 -0.12,0 0,-0.06 -0.12,0 0,-0.06 -0.12,0 0,-0.06 -0.12,0 0,-0.06 -0.12,0 0,-0.06 -0.12,0 0,-0.06 -0.12,0 0,-0.06 -0.12,0 0,-0.06 -0.12,0 0,-0.06 -0.12,0 0,-0.06 -0.12,0 0,-0.06 -0.12,0 0,-0.06 -0.12,0 0,-0.06 -0.12,0 0,-0.06 -0.12,0 0,-0.06 -0.12,0 0,-0.06 -0.12,0 0,-0.06 -0.12,0 0,-0.06 -0.12,0 0,-0.06 -0.12,0 0,-0.06 -0.12,0 0,-0.06 -0.12,0 0,-0.06 -0.12,0 0,-0.06 -0.12,0 0,-0.06 -0.12,0 0,-0.06 -0.12,0 0,-0.06 -0.12,0 0,-0.06 -0.12,0 0,-0.06 -0.12,0 0,-0.06 -0.12,0 0,-0.06 -0.12,0 0,-0.06 -0.12,0 0,-0.06 -0.12,0 0,-0.06 -0.12,0 0,-0.06 -0.12,0 0,-0.06 -0.12,0 0,-0.06 -0.12,0 0,-0.06 -0.12,0 0,-0.06 -0.12,0 0,-0.06 -0.12,0 0,-0.06 -0.12,0 0,-0.06 -0.12,0 0,-0.06 -0.12,0 0,-0.06 -0.12,0 0,-0.06 -0.12,0 0,-0.06 -0.12,0 0,-0.06 -0.12,0 0,-0.06 -0.12,0 0,-0.06 -0.12,0 0,-0.06 -0.12,0 0,-0.06 -0.12,0 0,-0.06 -0.12,0 0,-0.06 -0.12,0 0,-0.06 -0.12,0 0,-0.06 -0.12,0 0,-0.06 -0.12,0 0,-0.06 -0.12,0 0,-0.06 -0.12,0 0,-0.06 -0.12,0 0,-0.06 -0.12,0 0,-0.06 -0.12,0 0,-0.06 -0.12,0 0,-0.06 -0.12,0 0,-0.06 -0.12,0 0,-0.06 -0.12,0 0,-0.06 -0.12,0 0,-0.06 -0.12,0 0,-0.06 -0.12,0 0,-0.06 -0.12,0 0,-0.06 -0.12,0 0,-0.06 -0.12,0 0,-0.06 -0.12,0 0,-0.06 -0.12,0 0,-0.06 -0.12,0 0,-0.06 -0.12,0 0,-0.06 -0.12,0 0,-0.06 -0.12,0 0,-0.06 -0.12,0 0,-0.06 -0.12,0 0,-0.06 -0.12,0 0,-0.06 -0.12,0 0,-0.06 -0.12,0 0,-0.06 -0.12,0 0,-0.06 -0.12,0 0,-0.06 -0.12,0 0,-0.06 -0.12,0 0,-0.06 -0.12,0 0,-0.06 -0.12,0 0,-0.06 -0.12,0 0,-0.06 -0.12,0 0,-0.06 -0.12,0 0,-0.06 -0.12,0 0,-0.06 -0.12,0 0,-0.06 -0.12,0 0,-0.06 -0.12,0 0,-0.06 -0.12,0 0,-0.06 -0.12,0 0,-0.06 -0.12,0 0,-0.06 -0.12,0 0,-0.06 -0.12,0 0,-0.06 -0.12,0 0,-0.06 -0.12,0 0,-0.06 -0.12,0 0,-0.06 -0.12,0 0,-0.06 -0.12,0 0,-0.06 -0.12,0 0,-0.06 -0.12,0 0,-0.06 -0.12,0 0,-0.06 -0.12,0 0,-0.06 -0.12,0 0,-0.06 -0.12,0 0,-0.06 -0.12,0 0,-0.06 -0.12,0 0,-0.06 -0.12,0 0,-0.06 -0.12,0 0,-0.06 -0.12,0 0,-0.06 -0.12,0 0,-0.06 -0.12,0 0,-0.06 -0.12,0 0,-0.06 -0.12,0 0,-0.06 -0.12,0 0,-0.06 -0.12,0 0,-0.06 -0.12,0 0,-0.06 -0.12,0 0,-0.06 -0.12,0 0,-0.06 -0.12,0 0,-0.06 -0.12,0 0,-0.06 -0.12,0 0,-0.06 -0.12,0 0,-0.06 -0.12,0 0,-0.06 -0.12,0"
         inkscape:connector-curvature="0" />
    </clipPath>
    <clipPath
       id="clipPath13047"
       clipPathUnits="userSpaceOnUse">
      <path
         id="path13049"
         d="m 0,841.98 595.2,0 L 595.2,0 0,0 0,841.98 z"
         inkscape:connector-curvature="0" />
    </clipPath>
    <clipPath
       id="clipPath13041"
       clipPathUnits="userSpaceOnUse">
      <path
         id="path13043"
         clip-rule="evenodd"
         d="m 6,0.11053 582.84,0 0,841.86 -582.84,0 0,-841.86 z m 378.36,416.10047 11.28,0 0,-34.02 22.68,0 0,34.02 11.28,0 -22.68,11.34 0,-0.06 -0.12,0 0,-0.06 -0.12,0 0,-0.06 -0.12,0 0,-0.06 -0.12,0 0,-0.06 -0.12,0 0,-0.06 -0.12,0 0,-0.06 -0.12,0 0,-0.06 -0.12,0 0,-0.06 -0.12,0 0,-0.06 -0.12,0 0,-0.06 -0.12,0 0,-0.06 -0.12,0 0,-0.06 -0.12,0 0,-0.06 -0.12,0 0,-0.06 -0.12,0 0,-0.06 -0.12,0 0,-0.06 -0.12,0 0,-0.06 -0.12,0 0,-0.06 -0.12,0 0,-0.06 -0.12,0 0,-0.06 -0.12,0 0,-0.06 -0.12,0 0,-0.06 -0.12,0 0,-0.06 -0.12,0 0,-0.06 -0.12,0 0,-0.06 -0.12,0 0,-0.06 -0.12,0 0,-0.06 -0.12,0 0,-0.06 -0.12,0 0,-0.06 -0.12,0 0,-0.06 -0.12,0 0,-0.06 -0.12,0 0,-0.06 -0.12,0 0,-0.06 -0.12,0 0,-0.06 -0.12,0 0,-0.06 -0.12,0 0,-0.06 -0.12,0 0,-0.06 -0.12,0 0,-0.06 -0.12,0 0,-0.06 -0.12,0 0,-0.06 -0.12,0 0,-0.06 -0.12,0 0,-0.06 -0.12,0 0,-0.06 -0.12,0 0,-0.06 -0.12,0 0,-0.06 -0.12,0 0,-0.06 -0.12,0 0,-0.06 -0.12,0 0,-0.06 -0.12,0 0,-0.06 -0.12,0 0,-0.06 -0.12,0 0,-0.06 -0.12,0 0,-0.06 -0.12,0 0,-0.06 -0.12,0 0,-0.06 -0.12,0 0,-0.06 -0.12,0 0,-0.06 -0.12,0 0,-0.06 -0.12,0 0,-0.06 -0.12,0 0,-0.06 -0.12,0 0,-0.06 -0.12,0 0,-0.06 -0.12,0 0,-0.06 -0.12,0 0,-0.06 -0.12,0 0,-0.06 -0.12,0 0,-0.06 -0.12,0 0,-0.06 -0.12,0 0,-0.06 -0.12,0 0,-0.06 -0.12,0 0,-0.06 -0.12,0 0,-0.06 -0.12,0 0,-0.06 -0.12,0 0,-0.06 -0.12,0 0,-0.06 -0.12,0 0,-0.06 -0.12,0 0,-0.06 -0.12,0 0,-0.06 -0.12,0 0,-0.06 -0.12,0 0,-0.06 -0.12,0 0,-0.06 -0.12,0 0,-0.06 -0.12,0 0,-0.06 -0.12,0 0,-0.06 -0.12,0 0,-0.06 -0.12,0 0,-0.06 -0.12,0 0,-0.06 -0.12,0 0,-0.06 -0.12,0 0,-0.06 -0.12,0 0,-0.06 -0.12,0 0,-0.06 -0.12,0 0,-0.06 -0.12,0 0,-0.06 -0.12,0 0,-0.06 -0.12,0 0,-0.06 -0.12,0 0,-0.06 -0.12,0 0,-0.06 -0.12,0 0,-0.06 -0.12,0 0,-0.06 -0.12,0 0,-0.06 -0.12,0 0,-0.06 -0.12,0 0,-0.06 -0.12,0 0,-0.06 -0.12,0 0,-0.06 -0.12,0 0,-0.06 -0.12,0 0,-0.06 -0.12,0 0,-0.06 -0.12,0 0,-0.06 -0.12,0 0,-0.06 -0.12,0 0,-0.06 -0.12,0 0,-0.06 -0.12,0 0,-0.06 -0.12,0 0,-0.06 -0.12,0 0,-0.06 -0.12,0 0,-0.06 -0.12,0 0,-0.06 -0.12,0 0,-0.06 -0.12,0 0,-0.06 -0.12,0 0,-0.06 -0.12,0 0,-0.06 -0.12,0 0,-0.06 -0.12,0 0,-0.06 -0.12,0 0,-0.06 -0.12,0 0,-0.06 -0.12,0 0,-0.06 -0.12,0 0,-0.06 -0.12,0 0,-0.06 -0.12,0 0,-0.06 -0.12,0 0,-0.06 -0.12,0 0,-0.06 -0.12,0 0,-0.06 -0.12,0 0,-0.06 -0.12,0 0,-0.06 -0.12,0 0,-0.06 -0.12,0 0,-0.06 -0.12,0 0,-0.06 -0.12,0 0,-0.06 -0.12,0 0,-0.06 -0.12,0 0,-0.06 -0.12,0 0,-0.06 -0.12,0 0,-0.06 -0.12,0 0,-0.06 -0.12,0 0,-0.06 -0.12,0 0,-0.06 -0.12,0 0,-0.06 -0.12,0 0,-0.06 -0.12,0 0,-0.06 -0.12,0 0,-0.06 -0.12,0 0,-0.06 -0.12,0 0,-0.06 -0.12,0 0,-0.06 -0.12,0 0,-0.06 -0.12,0 0,-0.06 -0.12,0 0,-0.06 -0.12,0 0,-0.06 -0.12,0 0,-0.06 -0.12,0 0,-0.06 -0.12,0 0,-0.06 -0.12,0 0,-0.06 -0.12,0 0,-0.06 -0.12,0 0,-0.06 -0.12,0 0,-0.06 -0.12,0 0,-0.06 -0.12,0 0,-0.06 -0.12,0 0,-0.06 -0.12,0 0,-0.06 -0.12,0 0,-0.06 -0.12,0 0,-0.06 -0.12,0 0,-0.06 -0.12,0 0,-0.06 -0.12,0 0,-0.06 -0.12,0 0,-0.06 -0.12,0 0,-0.06 -0.12,0 0,-0.06 -0.12,0 0,-0.06 -0.12,0 0,-0.06 -0.12,0 0,-0.06 -0.12,0 0,-0.06 -0.12,0 0,-0.06 -0.12,0 0,-0.06 -0.12,0 0,-0.06 -0.12,0 0,-0.06 -0.12,0 0,-0.06 -0.12,0 0,-0.06 -0.12,0 0,-0.06 -0.12,0 0,-0.06 -0.12,0 0,-0.06 -0.12,0 0,-0.06 -0.12,0 0,-0.06 -0.12,0"
         inkscape:connector-curvature="0" />
    </clipPath>
    <clipPath
       id="clipPath12927"
       clipPathUnits="userSpaceOnUse">
      <path
         id="path12929"
         d="m 0,841.98 595.2,0 L 595.2,0 0,0 0,841.98 z"
         inkscape:connector-curvature="0" />
    </clipPath>
    <clipPath
       id="clipPath12921"
       clipPathUnits="userSpaceOnUse">
      <path
         id="path12923"
         clip-rule="evenodd"
         d="m 588.84,0.11053 -582.84,0 0,841.86 582.84,0 0,-841.86 z"
         inkscape:connector-curvature="0" />
    </clipPath>
  </defs>
  <sodipodi:namedview
     id="base"
     pagecolor="#ffffff"
     bordercolor="#666666"
     borderopacity="1.0"
     inkscape:pageopacity="0.0"
     inkscape:pageshadow="2"
     inkscape:zoom="0.7"
     inkscape:cx="348.37387"
     inkscape:cy="45.589588"
     inkscape:document-units="px"
     inkscape:current-layer="layer1"
     showgrid="false"
     fit-margin-top="10"
     fit-margin-left="10"
     fit-margin-right="10"
     fit-margin-bottom="10"
     inkscape:window-width="954"
     inkscape:window-height="1028"
     inkscape:window-x="0"
     inkscape:window-y="0"
     inkscape:window-maximized="0" />
  <metadata
     id="metadata12904">
    <rdf:RDF>
      <cc:Work
         rdf:about="">
        <dc:format>image/svg+xml</dc:format>
        <dc:type
           rdf:resource="http://purl.org/dc/dcmitype/StillImage" />
        <dc:title></dc:title>
      </cc:Work>
    </rdf:RDF>
  </metadata>
  <g
     inkscape:label="Layer 1"
     inkscape:groupmode="layer"
     id="layer1"
     transform="translate(45.17263,-325.50143)">
    <g
       id="g13013"
       transform="matrix(0,1.25,1.25,0,-34.72263,515.28361)">
      <path
         inkscape:connector-curvature="0"
         d="m 0,0 c -7.14,0 -12.9,44.94 -12.9,100.38 0,55.44 5.76,100.38 12.9,100.38 7.2,0 12.96,-44.94 12.96,-100.38 C 12.96,44.94 7.2,0 0,0"
         style="fill:#b2b2b2;fill-opacity:1;fill-rule:evenodd;stroke:none"
         id="path13015" />
    </g>
    <g
       id="g13017"
       transform="matrix(0,1.25,1.25,0,-35.17263,515.35861)">
      <path
         inkscape:connector-curvature="0"
         d="m 0,0 -0.48,0 -0.36,0.12 c 0,0 0,0 -0.06,0 L -1.2,0.3 c 0,0 -0.06,0 -0.06,0.06 l -0.3,0.18 -0.42,0.36 -0.3,0.36 -0.36,0.42 -0.36,0.54 -0.6,1.14 -0.66,1.38 -0.6,1.56 -0.6,1.86 -0.6,1.98 c -1.115,4.391 -1.87,8.624 -2.64,13.08 l -0.42,3.18 -0.48,3.3 -0.42,3.54 c -2.36,20.605 -3.166,41.61 -3.36,62.34 l 0,10.32 0.06,5.1 0.06,5.04 c 0.465,18.617 1.336,37.251 3.66,55.74 l 0.48,3.3 0.42,3.18 c 0.993,5.199 2.888,18.958 7.08,22.68 l 0.36,0.24 0.06,0 0.3,0.18 c 0.06,0 0.06,0 0.06,0.06 l 0.36,0.06 c 0.761,0.084 0.14,0.084 0.9,0 l 0.3,-0.06 c 0.06,-0.06 0.06,-0.06 0.12,-0.06 l 0.3,-0.18 0.06,0 0.3,-0.24 c 3.705,-2.843 5.862,-15.395 6.6,-19.68 l 0.48,-3 0.48,-3.12 c 2.747,-19.499 3.622,-39.432 4.14,-59.1 l 0.06,-5.04 0.06,-5.1 0,-10.32 C 13.16,76.005 12.371,56.32 10.38,36.84 L 9.96,33.24 9.54,29.7 9.06,26.4 C 8.352,21.705 7.662,17.038 6.54,12.42 L 6,10.2 5.4,8.16 C 4.703,6.145 3.944,3.415 2.58,1.74 L 2.28,1.26 1.92,0.9 1.56,0.6 1.2,0.36 C 1.2,0.3 1.14,0.3 1.14,0.3 L 0.84,0.12 c -0.06,0 -0.06,0 -0.12,0 L 0.42,0 0.36,0 0,0 z M 0.24,0.84 0.18,0.78 0.54,0.9 l -0.06,0 0.3,0.12 -0.06,0 0.3,0.18 0.3,0.24 0.3,0.36 c 4.535,7.296 5.153,16.447 6.66,24.72 l 0.42,3.3 0.48,3.48 c 2.074,18.937 3.043,38.135 3.24,57.18 l 0.06,5.1 0.06,5.16 -0.06,5.16 -0.06,5.1 c -0.199,19.03 -1.163,38.258 -3.24,57.18 l -0.48,3.48 -0.42,3.36 -0.48,3.12 -0.48,3 -0.48,2.76 -0.54,2.64 -0.54,2.4 -0.54,2.16 -0.6,2.04 c -0.903,2.51 -1.142,3.945 -2.7,6.18 l -0.6,0.72 -0.24,0.24 -0.36,0.24 0.06,-0.06 -0.3,0.18 0.06,0 -0.36,0.06 0.06,0 -0.3,0.06 0.06,0 -0.3,-0.06 0.06,0 -0.36,-0.06 0.06,0 -0.3,-0.18 0.06,0.06 -0.3,-0.18 -0.6,-0.6 c -4.067,-5.741 -5.531,-17.914 -6.66,-24.72 l -0.42,-3.36 -0.48,-3.48 c -2.15,-19.058 -2.974,-38.013 -3.3,-57.18 l 0,-5.1 -0.06,-5.16 0.06,-5.16 0,-5.1 c 0.324,-19.182 1.153,-38.107 3.3,-57.18 l 0.48,-3.48 0.42,-3.3 0.48,-3.18 0.48,-2.94 0.48,-2.82 0.54,-2.58 0.54,-2.4 0.54,-2.22 0.6,-1.98 c 0.808,-2.288 1.186,-4.208 2.7,-6.18 l 0.3,-0.42 0.24,-0.3 0.3,-0.3 0.36,-0.18 -0.06,0 0.3,-0.12 -0.06,0 0.36,-0.12 -0.06,0.06 0.3,-0.06 -0.06,0"
         style="fill:#000000;fill-opacity:1;fill-rule:nonzero;stroke:none"
         id="path13019" />
    </g>
    <text
       id="text13021"
       x="-14.998255"
       y="387.10861"
       style="font-size:15px">
      <tspan
         style="font-size:18.89999962px;font-variant:normal;font-weight:bold;font-stretch:normal;writing-mode:lr-tb;fill:#000000;fill-opacity:1;fill-rule:nonzero;stroke:none;font-family:Courier New;-inkscape-font-specification:CourierNewPS-BoldMT"
         x="-14.998255 -3.6866047 7.6250458 18.936695 30.210546 41.522194 52.833843 64.145493 75.41935 86.730995 98.042641 109.35429 120.62814 131.93979"
         y="387.10861"
         sodipodi:role="line"
         id="tspan13023">sub $4, $5, $6</tspan>
      <tspan
         style="font-size:18.89999962px;font-variant:normal;font-weight:bold;font-stretch:normal;writing-mode:lr-tb;fill:#000000;fill-opacity:1;fill-rule:nonzero;stroke:none;font-family:Courier New;-inkscape-font-specification:CourierNewPS-BoldMT"
         x="-14.998255 -3.6866047 7.6250458 18.936695 30.210546 41.522194 52.833843 64.145493 75.41935 86.730995 98.042641 109.35429 120.62814 131.93979"
         y="455.13348"
         sodipodi:role="line"
         id="tspan13025">add $1, $2, $3</tspan>
      <tspan
         style="font-size:18.89999962px;font-variant:normal;font-weight:bold;font-stretch:normal;writing-mode:lr-tb;fill:#000000;fill-opacity:1;fill-rule:nonzero;stroke:none;font-family:Courier New;-inkscape-font-specification:CourierNewPS-BoldMT"
         x="-14.998255 -3.6998346 7.5985861 18.902676 30.201096 41.499516 52.803608 64.102028 75.400444 86.704529 98.00296 109.30704 120.60547 131.90388 143.2023"
         y="489.10812"
         sodipodi:role="line"
         id="tspan13027">if $1 == 0 then</tspan>
      <tspan
         style="font-size:18.89999962px;font-variant:normal;font-weight:bold;font-stretch:normal;writing-mode:lr-tb;fill:#000000;fill-opacity:1;fill-rule:nonzero;stroke:none;font-family:Courier New;-inkscape-font-specification:CourierNewPS-BoldMT"
         x="-14.998255 -3.6866047 7.6250458 18.936695 30.184082 41.495731 52.807384 64.119034 75.430687 86.742332 97.989723 109.30138 120.61302 131.92468"
         y="523.08276"
         sodipodi:role="line"
         id="tspan13029">br. delay slot</tspan>
    </text>
    <path
       inkscape:connector-curvature="0"
       d="m 183.82737,480.40861 0,0.97496 56.7,0 0,-0.97496 -56.7,0 z"
       style="fill:#000000;fill-opacity:1;fill-rule:nonzero;stroke:none"
       id="path13031" />
    <path
       inkscape:connector-curvature="0"
       d="m 240.00237,375.70861 0,105.225 1.05,0 0,-105.225 -1.05,0 z"
       style="fill:#000000;fill-opacity:1;fill-rule:nonzero;stroke:none"
       id="path13033" />
    <path
       inkscape:connector-curvature="0"
       d="m 240.52737,375.18361 0,0.975 -48.6,0 0,-0.975 48.6,0 z m 0,0.975 z m -48.6,-0.45 5.4,4.05 -13.5,-4.05 13.5,-4.05"
       style="fill:#000000;fill-opacity:1;fill-rule:nonzero;stroke:none"
       id="path13035" />
    <g
       id="g13037"
       transform="matrix(0,1.25,1.25,0,-180.58638,-70.841389)">
      <g
         id="g13039"
         clip-path="url(#clipPath13041)">
        <g
           id="g13045"
           clip-path="url(#clipPath13047)">
          <g
             id="g13051"
             transform="translate(395.64,382.191)">
            <path
               inkscape:connector-curvature="0"
               d="m 0,0 0,34.02 -11.28,0 22.62,11.34 22.68,-11.34 -11.34,0 0,-34.02"
               style="fill:#00cc99;fill-opacity:1;fill-rule:evenodd;stroke:none"
               id="path13053" />
          </g>
        </g>
      </g>
    </g>
    <g
       id="g13055"
       transform="matrix(0,1.25,1.25,0,-180.58638,-70.841389)">
      <g
         id="g13057"
         clip-path="url(#clipPath13059)">
        <g
           id="g13063"
           clip-path="url(#clipPath13065)">
          <g
             id="g13069"
             transform="translate(395.28,381.831)">
            <path
               inkscape:connector-curvature="0"
               d="m 0,0 0,34.38 0.36,-0.42 -13.02,0 24.36,12.24 24.42,-12.24 -13.08,0 0.42,0.42 L 23.46,0 0,0 z m 23.04,0.78 -0.42,-0.42 0,34.44 11.76,0 -0.18,-0.78 -22.68,11.34 0.36,0 -22.62,-11.34 -0.18,0.78 11.7,0 0,-34.44 -0.42,0.42"
               style="fill:#000000;fill-opacity:1;fill-rule:nonzero;stroke:none"
               id="path13071" />
          </g>
        </g>
      </g>
    </g>
    <g
       id="g13073"
       transform="matrix(0,1.25,1.25,0,297.15237,423.70861)">
      <path
         inkscape:connector-curvature="0"
         d="m 0,0 0,34.02 -11.28,0 22.62,11.34 22.68,-11.34 -11.34,0 0,-34.02"
         style="fill:#00cc99;fill-opacity:1;fill-rule:evenodd;stroke:none"
         id="path13075" />
    </g>
    <g
       id="g13077"
       transform="matrix(0,1.25,1.25,0,296.70237,423.25861)">
      <path
         inkscape:connector-curvature="0"
         d="m 0,0 0,34.38 0.36,-0.42 -13.02,0 24.36,12.24 24.42,-12.24 -13.08,0 0.42,0.42 L 23.46,0 0,0 z m 23.04,0.78 -0.42,-0.42 0,34.44 11.76,0 -0.18,-0.78 -22.68,11.34 0.36,0 -22.62,-11.34 -0.18,0.78 11.7,0 0,-34.44 -0.42,0.42"
         style="fill:#000000;fill-opacity:1;fill-rule:nonzero;stroke:none"
         id="path13079" />
    </g>
    <g
       id="g13085"
       transform="matrix(0,1.25,1.25,0,402.45237,513.25861)">
      <path
         inkscape:connector-curvature="0"
         d="m 0,0 c -7.14,0 -12.9,44.94 -12.9,100.38 0,55.44 5.76,100.38 12.9,100.38 7.2,0 12.96,-44.94 12.96,-100.38 C 12.96,44.94 7.2,0 0,0"
         style="fill:#b2b2b2;fill-opacity:1;fill-rule:evenodd;stroke:none"
         id="path13087" />
    </g>
    <g
       id="g13089"
       transform="matrix(0,1.25,1.25,0,401.92737,513.33361)">
      <path
         inkscape:connector-curvature="0"
         d="m 0,0 -0.06,0 -0.36,0.06 -0.06,0 -0.36,0.06 c 0,0 0,0.06 -0.06,0.06 L -1.2,0.3 c 0,0.06 -0.06,0.06 -0.06,0.06 l -0.3,0.24 -0.42,0.3 -0.3,0.36 -0.72,0.96 -0.6,1.14 -0.66,1.38 -0.6,1.62 -0.6,1.8 -0.6,2.04 c -1.154,4.392 -1.86,8.62 -2.64,13.08 l -0.42,3.12 -0.48,3.36 -0.42,3.48 c -2.35,20.616 -3.17,41.6 -3.36,62.34 l 0,10.38 0.06,5.1 0.06,4.98 c 0.468,18.617 1.33,37.252 3.66,55.74 l 0.48,3.36 0.42,3.18 c 0.988,5.082 2.914,19.041 7.08,22.62 l 0.36,0.24 0.06,0.06 0.3,0.12 c 0.06,0.06 0.06,0.06 0.06,0.06 l 0.36,0.12 c 0.3,0 0.6,0 0.9,0 l 0.3,-0.12 c 0.06,0 0.06,0 0.12,-0.06 l 0.3,-0.12 0.06,-0.06 0.3,-0.18 c 3.759,-3.126 5.807,-15.22 6.6,-19.74 l 0.48,-2.94 0.48,-3.18 c 2.756,-19.499 3.618,-39.43 4.14,-59.1 l 0.06,-4.98 0.06,-5.1 0,-10.32 C 13.161,76.065 12.375,56.38 10.38,36.9 L 9.96,33.24 9.54,29.76 9.06,26.4 C 8.34,21.66 7.662,17.09 6.54,12.42 L 6,10.2 5.4,8.16 C 4.74,6.173 3.891,3.409 2.58,1.74 L 2.28,1.32 1.56,0.6 1.2,0.36 c 0,0 -0.06,0 -0.06,-0.06 L 0.84,0.18 C 0.78,0.18 0.78,0.12 0.72,0.12 L 0.42,0.06 0.36,0.06 0,0 z m 0.24,0.84 -0.06,0 0.36,0.06 -0.06,0 0.3,0.18 -0.06,-0.06 0.3,0.18 0.6,0.6 c 4.542,7.303 5.139,16.445 6.66,24.72 l 0.42,3.3 0.48,3.48 c 2.099,18.975 3.034,38.155 3.24,57.24 l 0.06,5.1 0.06,5.16 -0.06,5.16 -0.06,5.1 c -0.211,19.065 -1.138,38.225 -3.24,57.18 l -0.48,3.48 -0.42,3.3 -0.48,3.12 -0.48,3 -0.48,2.82 -0.54,2.58 -0.54,2.4 -0.54,2.22 -0.6,1.98 c -0.807,2.288 -1.187,4.209 -2.7,6.18 l -0.3,0.42 -0.54,0.54 -0.36,0.24 0.06,0 -0.3,0.12 0.06,0 -0.36,0.12 0.06,-0.06 -0.3,0.06 0.06,0 -0.3,-0.06 0.06,0.06 -0.36,-0.12 0.06,0 -0.3,-0.12 0.06,0 -0.3,-0.18 -0.3,-0.24 -0.3,-0.36 c -4.035,-5.652 -5.565,-17.996 -6.66,-24.72 l -0.42,-3.3 -0.48,-3.48 c -2.143,-19.074 -2.977,-37.997 -3.3,-57.18 l 0,-5.1 -0.06,-5.16 0.06,-5.16 0,-5.1 c 0.325,-19.167 1.15,-38.122 3.3,-57.18 l 0.48,-3.48 0.42,-3.36 0.48,-3.12 0.48,-3 0.48,-2.76 0.54,-2.64 0.54,-2.4 0.54,-2.16 0.6,-2.04 c 0.807,-2.219 1.248,-4.242 2.7,-6.18 l 0.3,-0.42 0.24,-0.3 0.3,-0.24 0.36,-0.24 -0.06,0.06 0.3,-0.18 -0.06,0 0.36,-0.06 -0.06,0 0.3,-0.06 -0.06,0"
         style="fill:#000000;fill-opacity:1;fill-rule:nonzero;stroke:none"
         id="path13091" />
    </g>
    <text
       id="text13093"
       x="428.32675"
       y="348.63361"
       style="font-size:15px">
      <tspan
         style="font-size:18.89999962px;font-variant:normal;font-weight:bold;font-stretch:normal;writing-mode:lr-tb;fill:#000000;fill-opacity:1;fill-rule:nonzero;stroke:none;font-family:Courier New;-inkscape-font-specification:CourierNewPS-BoldMT"
         x="428.32675 439.6384 450.95004 462.26169 473.53555 484.8472 496.15884 507.47049 518.74438 530.05603 541.36768 552.67932 563.95312 575.26477"
         y="348.63361"
         sodipodi:role="line"
         id="tspan13095">sub $4, $5, $6</tspan>
      <tspan
         style="font-size:18.89999962px;font-variant:normal;font-weight:bold;font-stretch:normal;writing-mode:lr-tb;fill:#000000;fill-opacity:1;fill-rule:nonzero;stroke:none;font-family:Courier New;-inkscape-font-specification:CourierNewPS-BoldMT"
         x="428.32675 439.6384 450.95004 462.26169 473.53555 484.8472 496.15884 507.47049 518.74438 530.05603 541.36768 552.67932 563.95312 575.26477"
         y="450.63312"
         sodipodi:role="line"
         id="tspan13097">add $1, $2, $3</tspan>
      <tspan
         style="font-size:18.89999962px;font-variant:normal;font-weight:bold;font-stretch:normal;writing-mode:lr-tb;fill:#000000;fill-opacity:1;fill-rule:nonzero;stroke:none;font-family:Courier New;-inkscape-font-specification:CourierNewPS-BoldMT"
         x="428.32675 439.62518 450.92358 462.22769 473.52609 484.82452 496.1286 507.42703 518.72546 530.02954 541.32794 552.63202 563.93048 575.22888 586.52728"
         y="484.60776"
         sodipodi:role="line"
         id="tspan13099">if $1 == 0 then</tspan>
      <tspan
         style="font-size:18.89999962px;font-variant:normal;font-weight:bold;font-stretch:normal;writing-mode:lr-tb;fill:#000000;fill-opacity:1;fill-rule:nonzero;stroke:none;font-family:Courier New;-inkscape-font-specification:CourierNewPS-BoldMT"
         x="428.32675 439.6384 450.95004 462.26169 473.53555 484.8472 496.15884 507.47049 518.74438 530.05603 541.36768 552.67932 563.95312 575.26477"
         y="518.5824"
         sodipodi:role="line"
         id="tspan13101">sub $4, $5, $6</tspan>
    </text>
    <path
       inkscape:connector-curvature="0"
       d="m 626.40237,478.90861 0,0.975 56.625,0 0,-0.975 -56.625,0 z"
       style="fill:#000000;fill-opacity:1;fill-rule:nonzero;stroke:none"
       id="path13103" />
    <path
       inkscape:connector-curvature="0"
       d="m 682.57737,374.13361 0,105.225 0.97504,0 0,-105.225 -0.97504,0 z"
       style="fill:#000000;fill-opacity:1;fill-rule:nonzero;stroke:none"
       id="path13105" />
    <path
       inkscape:connector-curvature="0"
       d="m 683.02737,373.68361 0,0.97496 -48.525,0 0,-0.97496 48.525,0 z m 0,0.975 z m -48.52625,-0.525 5.40125,4.05 -13.5,-4.05 13.5,-4.05"
       style="fill:#000000;fill-opacity:1;fill-rule:nonzero;stroke:none"
       id="path13107" />
  </g>
</svg>
