<?xml version="1.0" encoding="UTF-8" standalone="no"?>
<!-- Created with Inkscape (http://www.inkscape.org/) -->

<svg
   xmlns:dc="http://purl.org/dc/elements/1.1/"
   xmlns:cc="http://creativecommons.org/ns#"
   xmlns:rdf="http://www.w3.org/1999/02/22-rdf-syntax-ns#"
   xmlns:svg="http://www.w3.org/2000/svg"
   xmlns="http://www.w3.org/2000/svg"
   xmlns:sodipodi="http://sodipodi.sourceforge.net/DTD/sodipodi-0.dtd"
   xmlns:inkscape="http://www.inkscape.org/namespaces/inkscape"
   width="751.09998"
   height="210.69406"
   id="svg13309"
   version="1.1"
   inkscape:version="0.48.4 r9939"
   sodipodi:docname="New document 40">
  <defs
     id="defs13311">
    <clipPath
       id="clipPath13451"
       clipPathUnits="userSpaceOnUse">
      <path
         id="path13453"
         d="m 0,841.98 595.2,0 L 595.2,0 0,0 0,841.98 z"
         inkscape:connector-curvature="0" />
    </clipPath>
    <clipPath
       id="clipPath13445"
       clipPathUnits="userSpaceOnUse">
      <path
         id="path13447"
         clip-rule="evenodd"
         d="m 6,0.11053 582.84,0 0,841.86 -582.84,0 0,-841.86 z m 378.36,416.10047 11.28,0 0,-34.02 22.68,0 0,34.02 11.28,0 -22.68,11.34 0,-0.06 -0.12,0 0,-0.06 -0.12,0 0,-0.06 -0.12,0 0,-0.06 -0.12,0 0,-0.06 -0.12,0 0,-0.06 -0.12,0 0,-0.06 -0.12,0 0,-0.06 -0.12,0 0,-0.06 -0.12,0 0,-0.06 -0.12,0 0,-0.06 -0.12,0 0,-0.06 -0.12,0 0,-0.06 -0.12,0 0,-0.06 -0.12,0 0,-0.06 -0.12,0 0,-0.06 -0.12,0 0,-0.06 -0.12,0 0,-0.06 -0.12,0 0,-0.06 -0.12,0 0,-0.06 -0.12,0 0,-0.06 -0.12,0 0,-0.06 -0.12,0 0,-0.06 -0.12,0 0,-0.06 -0.12,0 0,-0.06 -0.12,0 0,-0.06 -0.12,0 0,-0.06 -0.12,0 0,-0.06 -0.12,0 0,-0.06 -0.12,0 0,-0.06 -0.12,0 0,-0.06 -0.12,0 0,-0.06 -0.12,0 0,-0.06 -0.12,0 0,-0.06 -0.12,0 0,-0.06 -0.12,0 0,-0.06 -0.12,0 0,-0.06 -0.12,0 0,-0.06 -0.12,0 0,-0.06 -0.12,0 0,-0.06 -0.12,0 0,-0.06 -0.12,0 0,-0.06 -0.12,0 0,-0.06 -0.12,0 0,-0.06 -0.12,0 0,-0.06 -0.12,0 0,-0.06 -0.12,0 0,-0.06 -0.12,0 0,-0.06 -0.12,0 0,-0.06 -0.12,0 0,-0.06 -0.12,0 0,-0.06 -0.12,0 0,-0.06 -0.12,0 0,-0.06 -0.12,0 0,-0.06 -0.12,0 0,-0.06 -0.12,0 0,-0.06 -0.12,0 0,-0.06 -0.12,0 0,-0.06 -0.12,0 0,-0.06 -0.12,0 0,-0.06 -0.12,0 0,-0.06 -0.12,0 0,-0.06 -0.12,0 0,-0.06 -0.12,0 0,-0.06 -0.12,0 0,-0.06 -0.12,0 0,-0.06 -0.12,0 0,-0.06 -0.12,0 0,-0.06 -0.12,0 0,-0.06 -0.12,0 0,-0.06 -0.12,0 0,-0.06 -0.12,0 0,-0.06 -0.12,0 0,-0.06 -0.12,0 0,-0.06 -0.12,0 0,-0.06 -0.12,0 0,-0.06 -0.12,0 0,-0.06 -0.12,0 0,-0.06 -0.12,0 0,-0.06 -0.12,0 0,-0.06 -0.12,0 0,-0.06 -0.12,0 0,-0.06 -0.12,0 0,-0.06 -0.12,0 0,-0.06 -0.12,0 0,-0.06 -0.12,0 0,-0.06 -0.12,0 0,-0.06 -0.12,0 0,-0.06 -0.12,0 0,-0.06 -0.12,0 0,-0.06 -0.12,0 0,-0.06 -0.12,0 0,-0.06 -0.12,0 0,-0.06 -0.12,0 0,-0.06 -0.12,0 0,-0.06 -0.12,0 0,-0.06 -0.12,0 0,-0.06 -0.12,0 0,-0.06 -0.12,0 0,-0.06 -0.12,0 0,-0.06 -0.12,0 0,-0.06 -0.12,0 0,-0.06 -0.12,0 0,-0.06 -0.12,0 0,-0.06 -0.12,0 0,-0.06 -0.12,0 0,-0.06 -0.12,0 0,-0.06 -0.12,0 0,-0.06 -0.12,0 0,-0.06 -0.12,0 0,-0.06 -0.12,0 0,-0.06 -0.12,0 0,-0.06 -0.12,0 0,-0.06 -0.12,0 0,-0.06 -0.12,0 0,-0.06 -0.12,0 0,-0.06 -0.12,0 0,-0.06 -0.12,0 0,-0.06 -0.12,0 0,-0.06 -0.12,0 0,-0.06 -0.12,0 0,-0.06 -0.12,0 0,-0.06 -0.12,0 0,-0.06 -0.12,0 0,-0.06 -0.12,0 0,-0.06 -0.12,0 0,-0.06 -0.12,0 0,-0.06 -0.12,0 0,-0.06 -0.12,0 0,-0.06 -0.12,0 0,-0.06 -0.12,0 0,-0.06 -0.12,0 0,-0.06 -0.12,0 0,-0.06 -0.12,0 0,-0.06 -0.12,0 0,-0.06 -0.12,0 0,-0.06 -0.12,0 0,-0.06 -0.12,0 0,-0.06 -0.12,0 0,-0.06 -0.12,0 0,-0.06 -0.12,0 0,-0.06 -0.12,0 0,-0.06 -0.12,0 0,-0.06 -0.12,0 0,-0.06 -0.12,0 0,-0.06 -0.12,0 0,-0.06 -0.12,0 0,-0.06 -0.12,0 0,-0.06 -0.12,0 0,-0.06 -0.12,0 0,-0.06 -0.12,0 0,-0.06 -0.12,0 0,-0.06 -0.12,0 0,-0.06 -0.12,0 0,-0.06 -0.12,0 0,-0.06 -0.12,0 0,-0.06 -0.12,0 0,-0.06 -0.12,0 0,-0.06 -0.12,0 0,-0.06 -0.12,0 0,-0.06 -0.12,0 0,-0.06 -0.12,0 0,-0.06 -0.12,0 0,-0.06 -0.12,0 0,-0.06 -0.12,0 0,-0.06 -0.12,0 0,-0.06 -0.12,0 0,-0.06 -0.12,0 0,-0.06 -0.12,0 0,-0.06 -0.12,0 0,-0.06 -0.12,0 0,-0.06 -0.12,0 0,-0.06 -0.12,0 0,-0.06 -0.12,0 0,-0.06 -0.12,0 0,-0.06 -0.12,0 0,-0.06 -0.12,0 0,-0.06 -0.12,0 0,-0.06 -0.12,0 0,-0.06 -0.12,0 0,-0.06 -0.12,0 0,-0.06 -0.12,0 0,-0.06 -0.12,0 0,-0.06 -0.12,0 0,-0.06 -0.12,0 0,-0.06 -0.12,0 0,-0.06 -0.12,0 0,-0.06 -0.12,0 0,-0.06 -0.12,0"
         inkscape:connector-curvature="0" />
    </clipPath>
    <clipPath
       id="clipPath13433"
       clipPathUnits="userSpaceOnUse">
      <path
         id="path13435"
         d="m 0,841.98 595.2,0 L 595.2,0 0,0 0,841.98 z"
         inkscape:connector-curvature="0" />
    </clipPath>
    <clipPath
       id="clipPath13427"
       clipPathUnits="userSpaceOnUse">
      <path
         id="path13429"
         clip-rule="evenodd"
         d="m 6,0.11053 582.84,0 0,841.86 -582.84,0 0,-841.86 z m 378.36,416.10047 11.28,0 0,-34.02 22.68,0 0,34.02 11.28,0 -22.68,11.34 0,-0.06 -0.12,0 0,-0.06 -0.12,0 0,-0.06 -0.12,0 0,-0.06 -0.12,0 0,-0.06 -0.12,0 0,-0.06 -0.12,0 0,-0.06 -0.12,0 0,-0.06 -0.12,0 0,-0.06 -0.12,0 0,-0.06 -0.12,0 0,-0.06 -0.12,0 0,-0.06 -0.12,0 0,-0.06 -0.12,0 0,-0.06 -0.12,0 0,-0.06 -0.12,0 0,-0.06 -0.12,0 0,-0.06 -0.12,0 0,-0.06 -0.12,0 0,-0.06 -0.12,0 0,-0.06 -0.12,0 0,-0.06 -0.12,0 0,-0.06 -0.12,0 0,-0.06 -0.12,0 0,-0.06 -0.12,0 0,-0.06 -0.12,0 0,-0.06 -0.12,0 0,-0.06 -0.12,0 0,-0.06 -0.12,0 0,-0.06 -0.12,0 0,-0.06 -0.12,0 0,-0.06 -0.12,0 0,-0.06 -0.12,0 0,-0.06 -0.12,0 0,-0.06 -0.12,0 0,-0.06 -0.12,0 0,-0.06 -0.12,0 0,-0.06 -0.12,0 0,-0.06 -0.12,0 0,-0.06 -0.12,0 0,-0.06 -0.12,0 0,-0.06 -0.12,0 0,-0.06 -0.12,0 0,-0.06 -0.12,0 0,-0.06 -0.12,0 0,-0.06 -0.12,0 0,-0.06 -0.12,0 0,-0.06 -0.12,0 0,-0.06 -0.12,0 0,-0.06 -0.12,0 0,-0.06 -0.12,0 0,-0.06 -0.12,0 0,-0.06 -0.12,0 0,-0.06 -0.12,0 0,-0.06 -0.12,0 0,-0.06 -0.12,0 0,-0.06 -0.12,0 0,-0.06 -0.12,0 0,-0.06 -0.12,0 0,-0.06 -0.12,0 0,-0.06 -0.12,0 0,-0.06 -0.12,0 0,-0.06 -0.12,0 0,-0.06 -0.12,0 0,-0.06 -0.12,0 0,-0.06 -0.12,0 0,-0.06 -0.12,0 0,-0.06 -0.12,0 0,-0.06 -0.12,0 0,-0.06 -0.12,0 0,-0.06 -0.12,0 0,-0.06 -0.12,0 0,-0.06 -0.12,0 0,-0.06 -0.12,0 0,-0.06 -0.12,0 0,-0.06 -0.12,0 0,-0.06 -0.12,0 0,-0.06 -0.12,0 0,-0.06 -0.12,0 0,-0.06 -0.12,0 0,-0.06 -0.12,0 0,-0.06 -0.12,0 0,-0.06 -0.12,0 0,-0.06 -0.12,0 0,-0.06 -0.12,0 0,-0.06 -0.12,0 0,-0.06 -0.12,0 0,-0.06 -0.12,0 0,-0.06 -0.12,0 0,-0.06 -0.12,0 0,-0.06 -0.12,0 0,-0.06 -0.12,0 0,-0.06 -0.12,0 0,-0.06 -0.12,0 0,-0.06 -0.12,0 0,-0.06 -0.12,0 0,-0.06 -0.12,0 0,-0.06 -0.12,0 0,-0.06 -0.12,0 0,-0.06 -0.12,0 0,-0.06 -0.12,0 0,-0.06 -0.12,0 0,-0.06 -0.12,0 0,-0.06 -0.12,0 0,-0.06 -0.12,0 0,-0.06 -0.12,0 0,-0.06 -0.12,0 0,-0.06 -0.12,0 0,-0.06 -0.12,0 0,-0.06 -0.12,0 0,-0.06 -0.12,0 0,-0.06 -0.12,0 0,-0.06 -0.12,0 0,-0.06 -0.12,0 0,-0.06 -0.12,0 0,-0.06 -0.12,0 0,-0.06 -0.12,0 0,-0.06 -0.12,0 0,-0.06 -0.12,0 0,-0.06 -0.12,0 0,-0.06 -0.12,0 0,-0.06 -0.12,0 0,-0.06 -0.12,0 0,-0.06 -0.12,0 0,-0.06 -0.12,0 0,-0.06 -0.12,0 0,-0.06 -0.12,0 0,-0.06 -0.12,0 0,-0.06 -0.12,0 0,-0.06 -0.12,0 0,-0.06 -0.12,0 0,-0.06 -0.12,0 0,-0.06 -0.12,0 0,-0.06 -0.12,0 0,-0.06 -0.12,0 0,-0.06 -0.12,0 0,-0.06 -0.12,0 0,-0.06 -0.12,0 0,-0.06 -0.12,0 0,-0.06 -0.12,0 0,-0.06 -0.12,0 0,-0.06 -0.12,0 0,-0.06 -0.12,0 0,-0.06 -0.12,0 0,-0.06 -0.12,0 0,-0.06 -0.12,0 0,-0.06 -0.12,0 0,-0.06 -0.12,0 0,-0.06 -0.12,0 0,-0.06 -0.12,0 0,-0.06 -0.12,0 0,-0.06 -0.12,0 0,-0.06 -0.12,0 0,-0.06 -0.12,0 0,-0.06 -0.12,0 0,-0.06 -0.12,0 0,-0.06 -0.12,0 0,-0.06 -0.12,0 0,-0.06 -0.12,0 0,-0.06 -0.12,0 0,-0.06 -0.12,0 0,-0.06 -0.12,0 0,-0.06 -0.12,0 0,-0.06 -0.12,0 0,-0.06 -0.12,0 0,-0.06 -0.12,0 0,-0.06 -0.12,0 0,-0.06 -0.12,0 0,-0.06 -0.12,0 0,-0.06 -0.12,0 0,-0.06 -0.12,0 0,-0.06 -0.12,0 0,-0.06 -0.12,0 0,-0.06 -0.12,0 0,-0.06 -0.12,0 0,-0.06 -0.12,0 0,-0.06 -0.12,0 0,-0.06 -0.12,0 0,-0.06 -0.12,0 0,-0.06 -0.12,0 0,-0.06 -0.12,0 0,-0.06 -0.12,0 0,-0.06 -0.12,0 0,-0.06 -0.12,0 0,-0.06 -0.12,0 0,-0.06 -0.12,0 0,-0.06 -0.12,0 0,-0.06 -0.12,0 0,-0.06 -0.12,0"
         inkscape:connector-curvature="0" />
    </clipPath>
    <clipPath
       id="clipPath13337"
       clipPathUnits="userSpaceOnUse">
      <path
         id="path13339"
         d="m 0,841.98 595.2,0 L 595.2,0 0,0 0,841.98 z"
         inkscape:connector-curvature="0" />
    </clipPath>
    <clipPath
       id="clipPath13331"
       clipPathUnits="userSpaceOnUse">
      <path
         id="path13333"
         clip-rule="evenodd"
         d="m 588.84,0.11053 -582.84,0 0,841.86 582.84,0 0,-841.86 z"
         inkscape:connector-curvature="0" />
    </clipPath>
  </defs>
  <sodipodi:namedview
     id="base"
     pagecolor="#ffffff"
     bordercolor="#666666"
     borderopacity="1.0"
     inkscape:pageopacity="0.0"
     inkscape:pageshadow="2"
     inkscape:zoom="0.35"
     inkscape:cx="483.75834"
     inkscape:cy="-5.9524048"
     inkscape:document-units="px"
     inkscape:current-layer="layer1"
     showgrid="false"
     fit-margin-top="10"
     fit-margin-left="10"
     fit-margin-right="10"
     fit-margin-bottom="10"
     inkscape:window-width="954"
     inkscape:window-height="1028"
     inkscape:window-x="0"
     inkscape:window-y="0"
     inkscape:window-maximized="0" />
  <metadata
     id="metadata13314">
    <rdf:RDF>
      <cc:Work
         rdf:about="">
        <dc:format>image/svg+xml</dc:format>
        <dc:type
           rdf:resource="http://purl.org/dc/dcmitype/StillImage" />
        <dc:title></dc:title>
      </cc:Work>
    </rdf:RDF>
  </metadata>
  <g
     inkscape:label="Layer 1"
     inkscape:groupmode="layer"
     id="layer1"
     transform="translate(108.75834,-315.71572)">
    <g
       id="g13397"
       transform="matrix(0,1.25,1.25,0,-98.23334,402.3729)">
      <path
         inkscape:connector-curvature="0"
         d="m 0,0 c -7.14,0 -12.96,44.94 -12.96,100.38 0,55.38 5.82,100.32 12.96,100.32 7.14,0 12.96,-44.94 12.96,-100.32 C 12.96,44.94 7.14,0 0,0"
         style="fill:#b2b2b2;fill-opacity:1;fill-rule:evenodd;stroke:none"
         id="path13399" />
    </g>
    <g
       id="g13401"
       transform="matrix(0,1.25,1.25,0,-98.75834,402.4479)">
      <path
         inkscape:connector-curvature="0"
         d="m 0,0 c -0.06,0 -0.06,0 -0.12,0 l -0.3,0 C -0.48,0 -0.48,0.06 -0.48,0.06 L -0.84,0.12 -0.9,0.18 -1.26,0.3 c 0,0.06 0,0.06 0,0.06 L -1.62,0.6 -1.98,0.9 -2.34,1.26 -2.7,1.74 -3,2.22 l -0.66,1.14 -0.6,1.38 -0.66,1.62 -0.54,1.8 -0.6,2.04 c -1.066,4.283 -1.992,8.717 -2.64,13.08 l -0.48,3.12 -0.42,3.36 -0.42,3.48 c -2.234,18.855 -3.055,38.261 -3.3,57.24 l -0.06,5.1 -0.06,5.22 0.06,5.16 0.06,5.1 c 0.248,18.973 1.06,38.391 3.3,57.24 l 0.42,3.48 0.42,3.36 c 1.49,7.933 2.252,18.226 6.84,25.08 l 0.36,0.42 0.3,0.3 0.42,0.24 0,0.06 0.36,0.12 c 0,0.06 0.06,0.06 0.06,0.06 l 0.36,0.06 c 0,0.06 0,0.06 0.06,0.06 l 0.3,0 c 0.06,0 0.06,0 0.12,0 l 0.3,0 c 0.06,0 0.06,0 0.06,-0.06 l 0.36,-0.06 c 0,0 0.06,0 0.06,-0.06 l 0.36,-0.12 0,-0.06 0.36,-0.24 0.36,-0.3 0.36,-0.36 c 4.619,-7.237 5.274,-16.879 6.84,-25.14 l 0.42,-3.36 0.42,-3.48 c 2.242,-18.85 3.051,-38.265 3.3,-57.24 l 0.06,-5.1 0.06,-5.16 -0.06,-5.22 -0.06,-5.1 C 12.955,71.501 12.134,52.095 9.9,33.24 L 9.48,29.76 9.06,26.4 C 7.973,20.027 6.293,6.484 2.22,1.32 L 1.86,0.9 1.56,0.6 1.14,0.36 c 0,0 0,0 0,-0.06 L 0.78,0.18 0.72,0.12 0.36,0.06 C 0.36,0.06 0.36,0 0.3,0 L 0,0 z m 0.24,0.84 -0.06,0 0.3,0.06 -0.06,0 0.36,0.18 -0.06,-0.06 0.3,0.18 0.6,0.6 0.3,0.36 0.3,0.48 0.6,1.08 0.6,1.32 0.6,1.56 0.6,1.8 0.54,1.98 c 1.143,4.378 1.873,8.571 2.64,13.02 l 0.42,3.12 0.48,3.3 0.42,3.48 c 2.165,18.937 3.019,38.189 3.3,57.24 l 0.06,5.04 0,10.38 -0.06,5.1 c -0.285,19.032 -1.132,38.263 -3.3,57.18 l -0.42,3.48 -0.48,3.3 c -0.938,6.315 -2.758,19.498 -6.6,24.72 l -0.3,0.3 -0.6,0.48 0.06,0 -0.36,0.12 0.06,0 -0.3,0.06 0.06,0 -0.36,0.06 0.12,0 -0.36,-0.06 0.06,0 -0.3,-0.06 0.06,0 -0.36,-0.12 0.06,0 -0.3,-0.18 -0.3,-0.24 -0.3,-0.36 c -3.813,-5.133 -5.688,-18.484 -6.6,-24.72 l -0.48,-3.3 -0.42,-3.48 c -2.169,-18.921 -3.014,-38.145 -3.3,-57.18 l -0.06,-5.1 0,-10.32 0.06,-5.1 c 0.285,-19.019 1.125,-38.276 3.3,-57.18 l 0.42,-3.54 0.48,-3.3 C -7.364,19.998 -5.621,7.258 -1.74,1.8 l 0.3,-0.3 0.6,-0.48 -0.06,0.06 0.36,-0.18 -0.06,0 0.3,-0.06 -0.06,0 0.36,-0.06 -0.12,0"
         style="fill:#000000;fill-opacity:1;fill-rule:nonzero;stroke:none"
         id="path13403" />
    </g>
    <text
       id="text13405"
       x="-69.283966"
       y="338.8479"
       style="font-size:15px">
      <tspan
         style="font-size:18.89999962px;font-variant:normal;font-weight:bold;font-stretch:normal;writing-mode:lr-tb;fill:#000000;fill-opacity:1;fill-rule:nonzero;stroke:none;font-family:Courier New;-inkscape-font-specification:CourierNewPS-BoldMT"
         x="-69.283966 -57.972313 -46.660664 -35.349014 -24.075163 -12.763517 -1.451867 9.8597832 21.13364 32.445286 43.756931 55.068584 66.342438 77.654083"
         y="338.8479"
         sodipodi:role="line"
         id="tspan13407">add $1, $2, $3</tspan>
      <tspan
         style="font-size:18.89999962px;font-variant:normal;font-weight:bold;font-stretch:normal;writing-mode:lr-tb;fill:#000000;fill-opacity:1;fill-rule:nonzero;stroke:none;font-family:Courier New;-inkscape-font-specification:CourierNewPS-BoldMT"
         x="-69.283966 -57.985546 -46.687122 -35.383034 -24.084614 -12.786196 -1.4821032 9.8163147 21.114738 32.418819 43.717247 55.021332 66.319756 77.618179 88.916595 100.21501"
         y="372.82254"
         sodipodi:role="line"
         id="tspan13409">if $1 == 0 then</tspan>
      <tspan
         style="font-size:18.89999962px;font-variant:normal;font-weight:bold;font-stretch:normal;writing-mode:lr-tb;fill:#000000;fill-opacity:1;fill-rule:nonzero;stroke:none;font-family:Courier New;-inkscape-font-specification:CourierNewPS-BoldMT"
         x="-69.283966 -57.972313 -46.660664 -35.349014 -24.101627 -12.789977 -1.4783267 9.8333235 21.144979 32.456623 43.70401 55.015667 66.327309 77.638977"
         y="406.87277"
         sodipodi:role="line"
         id="tspan13411">br. delay slot</tspan>
      <tspan
         style="font-size:18.89999962px;font-variant:normal;font-weight:bold;font-stretch:normal;writing-mode:lr-tb;fill:#000000;fill-opacity:1;fill-rule:nonzero;stroke:none;font-family:Courier New;-inkscape-font-specification:CourierNewPS-BoldMT"
         x="-69.283966 -57.994995 -46.706024 -35.383034 -24.094065 -12.805093 -1.5161256 9.8068638 21.095837 32.384804 43.673779 54.996765 66.285728"
         y="440.84741"
         sodipodi:role="line"
         id="tspan13413">or $7, $8, $9</tspan>
      <tspan
         style="font-size:18.89999962px;font-variant:normal;font-weight:bold;font-stretch:normal;writing-mode:lr-tb;fill:#000000;fill-opacity:1;fill-rule:nonzero;stroke:none;font-family:Courier New;-inkscape-font-specification:CourierNewPS-BoldMT"
         x="-69.283966 -57.972313 -46.660664 -35.349014 -24.075163 -12.763517 -1.451867 9.8597832 21.13364 32.445286 43.756931 55.068584 66.342438 77.654083"
         y="508.79669"
         sodipodi:role="line"
         id="tspan13415">sub $4, $5, $6</tspan>
    </text>
    <path
       inkscape:connector-curvature="0"
       d="m 129.54166,360.8979 0,0.975 56.7,0 0,-0.975 -56.7,0 z"
       style="fill:#000000;fill-opacity:1;fill-rule:nonzero;stroke:none"
       id="path13417" />
    <path
       inkscape:connector-curvature="0"
       d="m 185.71666,361.4229 0,143.85 1.05,0 0,-143.85 -1.05,0 z"
       style="fill:#000000;fill-opacity:1;fill-rule:nonzero;stroke:none"
       id="path13419" />
    <path
       inkscape:connector-curvature="0"
       d="m 186.24166,505.7229 0,-0.97504 -48.6,0 0,0.97504 48.6,0 z m 0,-0.975 z m -48.6,0.525 5.4,-4.05 -13.5,4.05 13.5,4.05"
       style="fill:#000000;fill-opacity:1;fill-rule:nonzero;stroke:none"
       id="path13421" />
    <g
       id="g13423"
       transform="matrix(0,1.25,1.25,0,-234.87209,-85.127103)">
      <g
         id="g13425"
         clip-path="url(#clipPath13427)">
        <g
           id="g13431"
           clip-path="url(#clipPath13433)">
          <g
             id="g13437"
             transform="translate(395.64,382.191)">
            <path
               inkscape:connector-curvature="0"
               d="m 0,0 0,34.02 -11.28,0 22.62,11.34 22.68,-11.34 -11.34,0 0,-34.02"
               style="fill:#00cc99;fill-opacity:1;fill-rule:evenodd;stroke:none"
               id="path13439" />
          </g>
        </g>
      </g>
    </g>
    <g
       id="g13441"
       transform="matrix(0,1.25,1.25,0,-234.87209,-85.127103)">
      <g
         id="g13443"
         clip-path="url(#clipPath13445)">
        <g
           id="g13449"
           clip-path="url(#clipPath13451)">
          <g
             id="g13455"
             transform="translate(395.28,381.831)">
            <path
               inkscape:connector-curvature="0"
               d="m 0,0 0,34.38 0.36,-0.42 -13.02,0 24.36,12.24 24.42,-12.24 -13.08,0 0.42,0.42 L 23.46,0 0,0 z m 23.04,0.78 -0.42,-0.42 0,34.44 11.76,0 -0.18,-0.78 -22.68,11.34 0.36,0 -22.62,-11.34 -0.18,0.78 11.7,0 0,-34.44 -0.42,0.42"
               style="fill:#000000;fill-opacity:1;fill-rule:nonzero;stroke:none"
               id="path13457" />
          </g>
        </g>
      </g>
    </g>
    <g
       id="g13459"
       transform="matrix(0,1.25,1.25,0,242.86666,409.4229)">
      <path
         inkscape:connector-curvature="0"
         d="m 0,0 0,34.02 -11.28,0 22.62,11.34 22.68,-11.34 -11.34,0 0,-34.02"
         style="fill:#00cc99;fill-opacity:1;fill-rule:evenodd;stroke:none"
         id="path13461" />
    </g>
    <g
       id="g13463"
       transform="matrix(0,1.25,1.25,0,242.41666,408.9729)">
      <path
         inkscape:connector-curvature="0"
         d="m 0,0 0,34.38 0.36,-0.42 -13.02,0 24.36,12.24 24.42,-12.24 -13.08,0 0.42,0.42 L 23.46,0 0,0 z m 23.04,0.78 -0.42,-0.42 0,34.44 11.76,0 -0.18,-0.78 -22.68,11.34 0.36,0 -22.62,-11.34 -0.18,0.78 11.7,0 0,-34.44 -0.42,0.42"
         style="fill:#000000;fill-opacity:1;fill-rule:nonzero;stroke:none"
         id="path13465" />
    </g>
    <g
       id="g13471"
       transform="matrix(0,1.25,1.25,0,347.26666,406.9479)">
      <path
         inkscape:connector-curvature="0"
         d="m 0,0 c -7.2,0 -12.96,44.94 -12.96,100.38 0,55.44 5.76,100.38 12.96,100.38 7.14,0 12.96,-44.94 12.96,-100.38 C 12.96,44.94 7.14,0 0,0"
         style="fill:#b2b2b2;fill-opacity:1;fill-rule:evenodd;stroke:none"
         id="path13473" />
    </g>
    <g
       id="g13475"
       transform="matrix(0,1.25,1.25,0,346.81666,406.9479)">
      <path
         inkscape:connector-curvature="0"
         d="m 0,0 -0.42,0 c 0,0 0,0 -0.06,0 l -0.3,0.12 c -0.06,0 -0.06,0 -0.06,0.06 L -1.2,0.3 c 0,0 0,0.06 -0.06,0.06 l -0.3,0.18 -0.72,0.72 C -6.411,6.795 -8.033,19.714 -9.12,26.4 l -0.48,3.3 -0.42,3.54 c -2.198,18.998 -2.982,38.129 -3.3,57.24 l -0.06,5.1 0,10.32 0.06,5.1 c 0.31,19.132 1.11,38.281 3.3,57.3 l 0.42,3.48 0.48,3.36 0.48,3.12 0.48,3 0.48,2.82 0.54,2.58 0.54,2.46 0.6,2.22 0.54,2.04 c 0.611,1.996 1.59,4.711 2.82,6.42 l 0.36,0.42 0.3,0.36 0.36,0.36 0.36,0.24 c 0.06,0 0.06,0 0.06,0.06 l 0.36,0.12 c 0,0 0,0.06 0.06,0.06 l 0.3,0.06 c 0.06,0 0.06,0 0.06,0 l 0.36,0.06 0.06,0 0.36,-0.06 0.06,0 0.36,-0.06 c 0,0 0,-0.06 0.06,-0.06 l 0.3,-0.12 c 0.06,-0.06 0.06,-0.06 0.06,-0.06 l 0.36,-0.24 0.36,-0.3 0.36,-0.36 0.3,-0.48 0.36,-0.48 0.66,-1.14 0.6,-1.38 0.6,-1.62 0.6,-1.8 0.6,-2.04 c 1.067,-4.283 1.992,-8.717 2.64,-13.08 l 0.48,-3.12 0.42,-3.36 0.42,-3.48 c 2.129,-18.913 3.095,-38.215 3.3,-57.24 l 0.06,-5.1 0,-10.38 -0.06,-5.1 C 13.052,71.46 12.096,52.146 9.96,33.24 L 9.54,29.76 9.12,26.4 8.64,23.22 8.16,20.28 7.62,17.46 7.08,14.82 6.54,12.42 6,10.2 5.4,8.16 C 4.628,5.867 4.02,3.756 2.64,1.74 L 2.28,1.26 1.92,0.9 1.56,0.6 1.2,0.36 c 0,0 0,-0.06 -0.06,-0.06 L 0.84,0.18 C 0.78,0.12 0.78,0.12 0.78,0.12 L 0.42,0 0.36,0 0,0 z M 0.3,0.84 0.18,0.78 0.54,0.9 l -0.06,0 0.3,0.12 0.24,0.18 0.3,0.24 c 3.783,4.195 5.543,16.501 6.48,21.9 l 0.48,3.18 0.48,3.3 c 2.308,18.469 3.245,37.08 3.6,55.68 l 0.12,4.98 0.06,5.1 0,10.32 c -0.243,19.649 -0.896,39.124 -2.94,58.68 l -0.42,3.6 -0.42,3.48 c -1.684,9.369 -2.106,19.723 -7.08,28.08 l -0.3,0.3 -0.6,0.48 0,-0.06 -0.3,0.18 0.06,0 -0.36,0.06 0.12,0 -0.36,0.06 0.06,0 -0.3,-0.06 0.06,0 -0.36,-0.06 0.12,0 -0.36,-0.18 0.06,0.06 -0.3,-0.18 -0.6,-0.6 c -4.017,-5.624 -5.523,-18.021 -6.66,-24.72 l -0.42,-3.3 -0.42,-3.54 c -2.196,-18.741 -3.056,-38.318 -3.3,-57.18 l -0.06,-5.1 0,-10.32 0.06,-5.1 c 0.244,-18.881 1.109,-38.419 3.3,-57.18 l 0.42,-3.48 0.42,-3.3 C -7.213,19.832 -5.692,7.418 -1.68,1.8 l 0.54,-0.54 0.36,-0.24 -0.06,0 0.36,-0.12 -0.12,0 0.36,-0.12 -0.06,0.06 0.3,-0.06 -0.06,0"
         style="fill:#000000;fill-opacity:1;fill-rule:nonzero;stroke:none"
         id="path13477" />
    </g>
    <text
       id="text13479"
       x="376.29105"
       y="343.42291"
       style="font-size:15px">
      <tspan
         style="font-size:18.89999962px;font-variant:normal;font-weight:bold;font-stretch:normal;writing-mode:lr-tb;fill:#000000;fill-opacity:1;fill-rule:nonzero;stroke:none;font-family:Courier New;-inkscape-font-specification:CourierNewPS-BoldMT"
         x="376.29105 387.60269 398.91434 410.22598 421.49985 432.81149 444.12314 455.43478 466.70865 478.02029 489.33194 500.64359 511.91745 523.22906"
         y="343.42291"
         sodipodi:role="line"
         id="tspan13481">add $1, $2, $3</tspan>
      <tspan
         style="font-size:18.89999962px;font-variant:normal;font-weight:bold;font-stretch:normal;writing-mode:lr-tb;fill:#000000;fill-opacity:1;fill-rule:nonzero;stroke:none;font-family:Courier New;-inkscape-font-specification:CourierNewPS-BoldMT"
         x="376.29105 387.58945 398.88788 410.19199 421.49039 432.78882 444.0929 455.39133 466.68973 477.99384 489.29227 500.59634 511.89478 523.19318 534.49158 545.79004"
         y="377.39755"
         sodipodi:role="line"
         id="tspan13483">if $1 == 0 then</tspan>
      <tspan
         style="font-size:18.89999962px;font-variant:normal;font-weight:bold;font-stretch:normal;writing-mode:lr-tb;fill:#000000;fill-opacity:1;fill-rule:nonzero;stroke:none;font-family:Courier New;-inkscape-font-specification:CourierNewPS-BoldMT"
         x="376.29105 387.58002 398.86899 410.19199 421.48093 432.7699 444.05887 455.38187 466.67084 477.95981 489.24878 500.57178 511.86075"
         y="411.44778"
         sodipodi:role="line"
         id="tspan13485">or $7, $8, $9</tspan>
      <tspan
         style="font-size:18.89999962px;font-variant:normal;font-weight:bold;font-stretch:normal;writing-mode:lr-tb;fill:#000000;fill-opacity:1;fill-rule:nonzero;stroke:none;font-family:Courier New;-inkscape-font-specification:CourierNewPS-BoldMT"
         x="376.29105 387.60269 398.91434 410.22598 421.49985 432.81149 444.12314 455.43478 466.70865 478.02029 489.33194 500.64359 511.91745 523.22906"
         y="513.3736"
         sodipodi:role="line"
         id="tspan13487">sub $4, $5, $6</tspan>
    </text>
    <path
       inkscape:connector-curvature="0"
       d="m 575.11541,365.4729 0,0.975 56.7,0 0,-0.975 -56.7,0 z"
       style="fill:#000000;fill-opacity:1;fill-rule:nonzero;stroke:none"
       id="path13489" />
    <path
       inkscape:connector-curvature="0"
       d="m 631.29166,365.9229 0,143.85 1.04996,0 0,-143.85 -1.04996,0 z"
       style="fill:#000000;fill-opacity:1;fill-rule:nonzero;stroke:none"
       id="path13491" />
    <path
       inkscape:connector-curvature="0"
       d="m 631.81541,510.2979 0,-0.97497 -48.6,0 0,0.97497 48.6,0 z m 0,-0.975 z m -48.59875,0.45 5.4,-4.05 -13.50125,4.05 13.50125,4.05"
       style="fill:#000000;fill-opacity:1;fill-rule:nonzero;stroke:none"
       id="path13493" />
  </g>
</svg>
