<?xml version="1.0" encoding="UTF-8" standalone="no"?>
<!-- Created with Inkscape (http://www.inkscape.org/) -->

<svg
   xmlns:dc="http://purl.org/dc/elements/1.1/"
   xmlns:cc="http://creativecommons.org/ns#"
   xmlns:rdf="http://www.w3.org/1999/02/22-rdf-syntax-ns#"
   xmlns:svg="http://www.w3.org/2000/svg"
   xmlns="http://www.w3.org/2000/svg"
   xmlns:sodipodi="http://sodipodi.sourceforge.net/DTD/sodipodi-0.dtd"
   xmlns:inkscape="http://www.inkscape.org/namespaces/inkscape"
   width="738.90845"
   height="308.51093"
   id="svg13671"
   version="1.1"
   inkscape:version="0.48.4 r9939"
   sodipodi:docname="New document 43">
  <defs
     id="defs13673">
    <clipPath
       id="clipPath13699"
       clipPathUnits="userSpaceOnUse">
      <path
         id="path13701"
         d="m 0,841.98 595.2,0 L 595.2,0 0,0 0,841.98 z"
         inkscape:connector-curvature="0" />
    </clipPath>
    <clipPath
       id="clipPath13693"
       clipPathUnits="userSpaceOnUse">
      <path
         id="path13695"
         clip-rule="evenodd"
         d="m 588.84,0.11053 -582.84,0 0,841.86 582.84,0 0,-841.86 z"
         inkscape:connector-curvature="0" />
    </clipPath>
  </defs>
  <sodipodi:namedview
     id="base"
     pagecolor="#ffffff"
     bordercolor="#666666"
     borderopacity="1.0"
     inkscape:pageopacity="0.0"
     inkscape:pageshadow="2"
     inkscape:zoom="0.7"
     inkscape:cx="421.08688"
     inkscape:cy="65.576964"
     inkscape:document-units="px"
     inkscape:current-layer="layer1"
     showgrid="false"
     fit-margin-top="10"
     fit-margin-left="10"
     fit-margin-right="10"
     fit-margin-bottom="10"
     inkscape:window-width="954"
     inkscape:window-height="1028"
     inkscape:window-x="0"
     inkscape:window-y="0"
     inkscape:window-maximized="0" />
  <metadata
     id="metadata13676">
    <rdf:RDF>
      <cc:Work
         rdf:about="">
        <dc:format>image/svg+xml</dc:format>
        <dc:type
           rdf:resource="http://purl.org/dc/dcmitype/StillImage" />
        <dc:title></dc:title>
      </cc:Work>
    </rdf:RDF>
  </metadata>
  <g
     inkscape:label="Layer 1"
     inkscape:groupmode="layer"
     id="layer1"
     transform="translate(41.48334,-326.07982)">
    <path
       inkscape:connector-curvature="0"
       d="m 368.94166,432.89075 0,24.75 96.45,0 0,-24.75 -96.45,0 z m 95.92375,0.975 -0.44875,-0.45 0,23.775 0.44875,-0.525 -95.39875,0 0.45,0.525 0,-23.775 -0.45,0.45"
       style="fill:#000000;fill-opacity:1;fill-rule:nonzero;stroke:none"
       id="path13721" />
    <path
       inkscape:connector-curvature="0"
       d="m 369.01666,456.59075 0,24.975 96.45,0 0,-24.975 -96.45,0 z m 95.92375,0.975 -0.44875,-0.525 0,24 0.44875,-0.525 -95.39875,0 0.45,0.525 0,-24 -0.45,0.525"
       style="fill:#000000;fill-opacity:1;fill-rule:nonzero;stroke:none"
       id="path13723" />
    <path
       inkscape:connector-curvature="0"
       d="m 368.94166,480.59075 0,24.825 96.45,0 0,-24.825 -96.45,0 z m 95.92375,1.05 -0.44875,-0.525 0,23.775 0.44875,-0.525 -95.39875,0 0.45,0.525 0,-23.775 -0.45,0.525"
       style="fill:#000000;fill-opacity:1;fill-rule:nonzero;stroke:none"
       id="path13725" />
    <path
       inkscape:connector-curvature="0"
       d="m 369.01666,504.29075 0,24.975 96.45,0 0,-24.975 -96.45,0 z m 95.92375,1.05 -0.44875,-0.525 0,23.925 0.44875,-0.525 -95.39875,0 0.45,0.525 0,-23.925 -0.45,0.525"
       style="fill:#000000;fill-opacity:1;fill-rule:nonzero;stroke:none"
       id="path13727" />
    <path
       inkscape:connector-curvature="0"
       d="m 368.94166,528.36575 0,24.75 96.45,0 0,-24.75 -96.45,0 z m 95.92375,0.975 -0.44875,-0.525 0,23.775 0.44875,-0.45 -95.39875,0 0.45,0.45 0,-23.775 -0.45,0.525"
       style="fill:#000000;fill-opacity:1;fill-rule:nonzero;stroke:none"
       id="path13729" />
    <path
       inkscape:connector-curvature="0"
       d="m 368.94166,552.14075 0,24.75 96.45,0 0,-24.75 -96.45,0 z m 95.92375,0.975 -0.44875,-0.525 0,23.775 0.44875,-0.45 -95.39875,0 0.45,0.45 0,-23.775 -0.45,0.525"
       style="fill:#000000;fill-opacity:1;fill-rule:nonzero;stroke:none"
       id="path13731" />
    <path
       inkscape:connector-curvature="0"
       d="m 369.01666,575.84075 0,24.9 96.45,0 0,-24.9 -96.45,0 z m 95.92375,0.975 -0.44875,-0.525 0,24 0.44875,-0.525 -95.39875,0 0.45,0.525 0,-24 -0.45,0.525"
       style="fill:#000000;fill-opacity:1;fill-rule:nonzero;stroke:none"
       id="path13733" />
    <path
       inkscape:connector-curvature="0"
       d="m 368.94166,599.84075 0,24.75 96.45,0 0,-24.75 -96.45,0 z m 95.92375,0.975 -0.44875,-0.45 0,23.775 0.44875,-0.525 -95.39875,0 0.45,0.525 0,-23.775 -0.45,0.45"
       style="fill:#000000;fill-opacity:1;fill-rule:nonzero;stroke:none"
       id="path13735" />
    <text
       id="text13737"
       x="633.91602"
       y="586.94073"
       style="font-size:15px">
      <tspan
         style="font-size:18.89999962px;font-variant:normal;font-weight:bold;font-stretch:normal;writing-mode:lr-tb;fill:#000000;fill-opacity:1;fill-rule:nonzero;stroke:none;font-family:Verdana;-inkscape-font-specification:Verdana-Bold"
         x="633.91602 646.80206 659.82037 675.82489"
         y="586.94073"
         sodipodi:role="line"
         id="tspan13739">T/NT</tspan>
    </text>
    <text
       id="text13741"
       x="385.81604"
       y="419.01575"
       style="font-size:15px">
      <tspan
         style="font-size:27px;font-variant:normal;font-weight:bold;font-stretch:normal;writing-mode:lr-tb;fill:#3333cc;fill-opacity:1;fill-rule:nonzero;stroke:none;font-family:Verdana;-inkscape-font-specification:Verdana-Bold"
         x="385.81604 406.36304 428.93503"
         y="419.01575"
         sodipodi:role="line"
         id="tspan13743">BHT</tspan>
    </text>
    <path
       inkscape:connector-curvature="0"
       d="m 466.29041,588.29075 0,-4.05 140.85,0 0,4.05 -140.85,0 z m 0,-4.05 z m 140.85,2.025 -8.1,-6.075 20.25125,6.075 -20.25125,6.075"
       style="fill:#009900;fill-opacity:1;fill-rule:nonzero;stroke:none"
       id="path13745" />
    <text
       id="text13747"
       x="85.816032"
       y="536.01575"
       style="font-size:15px">
      <tspan
         style="font-size:21.60000038px;font-variant:normal;font-weight:bold;font-stretch:normal;writing-mode:lr-tb;fill:#000000;fill-opacity:1;fill-rule:nonzero;stroke:none;font-family:Verdana;-inkscape-font-specification:Verdana-Bold"
         x="85.816032 100.29235 110.64307 125.7242 133.09412 142.92644 150.467 166.90892 177.62683 192.03836 207.40028 220.0838 235.44571 242.98627 259.73059 274.81171 289.89285 300.61075 314.93588 327.72739"
         y="536.01575"
         sodipodi:role="line"
         id="tspan13749">k-bit Branch Address</tspan>
    </text>
    <path
       inkscape:connector-curvature="0"
       d="m 183.16666,496.56575 0,-4.05 171.525,0 0,4.05 -171.525,0 z m 0,-4.05 z m 171.525,2.025 -8.1,-6.075 20.25,6.075 -20.25,6.075"
       style="fill:#009900;fill-opacity:1;fill-rule:nonzero;stroke:none"
       id="path13751" />
    <text
       id="text13753"
       x="483.69104"
       y="528.36572"
       style="font-size:15px">
      <tspan
         style="font-size:21.60000038px;font-variant:normal;font-weight:bold;font-stretch:normal;writing-mode:lr-tb;fill:#000000;fill-opacity:1;fill-rule:nonzero;stroke:none;font-family:Verdana;-inkscape-font-specification:Verdana-Bold"
         x="483.69104"
         y="528.36572"
         id="tspan13755">2</tspan>
    </text>
    <text
       id="text13757"
       x="499.06604"
       y="521.91577"
       style="font-size:15px">
      <tspan
         style="font-size:14.40000057px;font-variant:normal;font-weight:bold;font-stretch:normal;writing-mode:lr-tb;fill:#000000;fill-opacity:1;fill-rule:nonzero;stroke:none;font-family:Verdana;-inkscape-font-specification:Verdana-Bold"
         x="499.06604"
         y="521.91577"
         id="tspan13759">k</tspan>
    </text>
    <text
       id="text13761"
       x="516.09106"
       y="528.36572"
       style="font-size:15px">
      <tspan
         style="font-size:21.60000038px;font-variant:normal;font-weight:bold;font-stretch:normal;writing-mode:lr-tb;fill:#000000;fill-opacity:1;fill-rule:nonzero;stroke:none;font-family:Verdana;-inkscape-font-specification:Verdana-Bold"
         x="516.09106 530.414 545.77374 555.60394 566.3197 573.68744 588.01038"
         y="528.36572"
         sodipodi:role="line"
         id="tspan13763">entries</tspan>
    </text>
    <path
       inkscape:connector-curvature="0"
       d="m 522.16541,493.86575 0,-56.175 -4.05,0 0,56.175 4.05,0 z m -2.025,-56.175 6.075,8.1 -6.075,-20.25 -6.07375,20.25"
       style="fill:#000000;fill-opacity:1;fill-rule:nonzero;stroke:none"
       id="path13765" />
    <path
       inkscape:connector-curvature="0"
       d="m 522.16541,541.71575 0,62.925 -4.05,0 0,-62.925 4.05,0 z m -2.025,62.925 6.075,-8.1 -6.075,20.25 -6.07375,-20.25"
       style="fill:#000000;fill-opacity:1;fill-rule:nonzero;stroke:none"
       id="path13767" />
    <path
       inkscape:connector-curvature="0"
       d="m -31.48334,403.11575 0,-39.15 299.325,0 0,39.15 -299.325,0 z m 0,-39.15 z m 0.975,38.625 -0.525,-0.525 298.35,0 -0.525,0.525 0,-38.1 0.525,0.525 -298.35,0 0.525,-0.525"
       style="fill:#000000;fill-opacity:1;fill-rule:nonzero;stroke:none"
       id="path13769" />
    <text
       id="text13771"
       x="-21.283964"
       y="352.49075"
       style="font-size:15px">
      <tspan
         style="font-size:21.60000038px;font-variant:normal;font-weight:bold;font-stretch:normal;writing-mode:lr-tb;fill:#000000;fill-opacity:1;fill-rule:nonzero;stroke:none;font-family:Verdana;-inkscape-font-specification:Verdana-Bold"
         x="-21.283964 -5.9220443 4.4286752 19.509798 26.879717 36.712036 44.142437 60.584358 71.302277 85.713791 101.07571 113.75924 129.12115 136.7762 153.52051 168.60164 183.68275 194.40068 208.7258 221.51732"
         y="352.49075"
         sodipodi:role="line"
         id="tspan13773">n-bit Branch Address</tspan>
    </text>
    <g
       id="g13775"
       transform="matrix(0,1.25,1.25,0,267.91666,410.31575)">
      <path
         inkscape:connector-curvature="0"
         d="m 0,0 0.3,0 0.36,-0.06 c 3.984,-0.82 5.559,-5.949 5.76,-9.48 l 0,-41.88 c 0.105,-3.523 1.163,-8.722 5.16,-9.72 l 0.3,-0.06 0.24,0 c 0.24,0 0.42,-0.18 0.42,-0.42 0,-0.18 -0.18,-0.36 -0.42,-0.36 l -0.3,-0.06 -0.3,0 C 9.838,-62.327 8.446,-64.053 7.8,-65.52 l -0.36,-0.72 -0.3,-0.84 -0.24,-0.84 -0.18,-0.9 -0.18,-0.96 -0.06,-1.02 -0.06,-1.02 0,-41.82 -0.24,-2.04 -0.24,-0.96 -0.24,-0.9 -0.3,-0.9 -0.12,-0.3 -0.78,0.36 0.12,0.24 0.3,0.84 0.24,0.84 0.18,0.9 0.18,0.96 0.06,0.96 0.06,1.08 0,41.88 0.12,1.02 0.18,0.96 0.18,1.02 0.3,0.9 0.3,0.84 0.36,0.84 c 0.887,1.761 2.323,3.522 4.38,3.84 l 0.3,0.06 0.36,0 0,-0.78 -0.36,0 -0.36,0.06 c -3.93,0.754 -5.517,6.039 -5.76,9.48 l 0,41.82 c 0.031,3.389 -1.286,8.823 -5.1,9.78 l -0.6,0 L 0,0 z m 4.86,-118.56 5.4,0.36 -10.26,-4.56 6.06,9.48"
         style="fill:#000000;fill-opacity:1;fill-rule:nonzero;stroke:none"
         id="path13777" />
    </g>
    <path
       inkscape:connector-curvature="0"
       d="m 181.14166,433.26575 0,61.275 4.05,0 0,-61.275 -4.05,0 z"
       style="fill:#009900;fill-opacity:1;fill-rule:nonzero;stroke:none"
       id="path13779" />
  </g>
</svg>
