<?xml version="1.0" encoding="UTF-8" standalone="no"?>
<!-- Created with Inkscape (http://www.inkscape.org/) -->

<svg
   xmlns:dc="http://purl.org/dc/elements/1.1/"
   xmlns:cc="http://creativecommons.org/ns#"
   xmlns:rdf="http://www.w3.org/1999/02/22-rdf-syntax-ns#"
   xmlns:svg="http://www.w3.org/2000/svg"
   xmlns="http://www.w3.org/2000/svg"
   xmlns:sodipodi="http://sodipodi.sourceforge.net/DTD/sodipodi-0.dtd"
   xmlns:inkscape="http://www.inkscape.org/namespaces/inkscape"
   width="914.28931"
   height="380.00586"
   id="svg15253"
   version="1.1"
   inkscape:version="0.48.4 r9939"
   sodipodi:docname="New document 52">
  <defs
     id="defs15255">
    <clipPath
       id="clipPath15281"
       clipPathUnits="userSpaceOnUse">
      <path
         id="path15283"
         d="m 0,841.98 595.2,0 L 595.2,0 0,0 0,841.98 z"
         inkscape:connector-curvature="0" />
    </clipPath>
    <clipPath
       id="clipPath15275"
       clipPathUnits="userSpaceOnUse">
      <path
         id="path15277"
         clip-rule="evenodd"
         d="m 588.84,0.11053 -582.84,0 0,841.86 582.84,0 0,-841.86 z"
         inkscape:connector-curvature="0" />
    </clipPath>
  </defs>
  <sodipodi:namedview
     id="base"
     pagecolor="#ffffff"
     bordercolor="#666666"
     borderopacity="1.0"
     inkscape:pageopacity="0.0"
     inkscape:pageshadow="2"
     inkscape:zoom="0.98994949"
     inkscape:cx="388.84565"
     inkscape:cy="139.12592"
     inkscape:document-units="px"
     inkscape:current-layer="layer1"
     showgrid="false"
     fit-margin-top="10"
     fit-margin-left="10"
     fit-margin-right="10"
     fit-margin-bottom="10"
     inkscape:window-width="954"
     inkscape:window-height="1028"
     inkscape:window-x="0"
     inkscape:window-y="0"
     inkscape:window-maximized="0" />
  <metadata
     id="metadata15258">
    <rdf:RDF>
      <cc:Work
         rdf:about="">
        <dc:format>image/svg+xml</dc:format>
        <dc:type
           rdf:resource="http://purl.org/dc/dcmitype/StillImage" />
        <dc:title></dc:title>
      </cc:Work>
    </rdf:RDF>
  </metadata>
  <g
     inkscape:label="Layer 1"
     inkscape:groupmode="layer"
     id="layer1"
     transform="translate(307.31404,-79.48361)">
    <path
       inkscape:connector-curvature="0"
       d="m 47.86666,116.10861 0,1.35 64.425,0 0,-1.35 -64.425,0 z"
       style="fill:#000000;fill-opacity:1;fill-rule:nonzero;stroke:none"
       id="path15303" />
    <path
       inkscape:connector-curvature="0"
       d="m 47.86666,141.90861 0,1.35 64.425,0 0,-1.35 -64.425,0 z"
       style="fill:#000000;fill-opacity:1;fill-rule:nonzero;stroke:none"
       id="path15305" />
    <path
       inkscape:connector-curvature="0"
       d="m 47.86666,167.70861 0,1.35 64.425,0 0,-1.35 -64.425,0 z"
       style="fill:#000000;fill-opacity:1;fill-rule:nonzero;stroke:none"
       id="path15307" />
    <path
       inkscape:connector-curvature="0"
       d="m 47.86666,193.50861 0,1.35 64.425,0 0,-1.35 -64.425,0 z"
       style="fill:#000000;fill-opacity:1;fill-rule:nonzero;stroke:none"
       id="path15309" />
    <path
       inkscape:connector-curvature="0"
       d="m 47.86666,219.30861 0,1.35 64.425,0 0,-1.35 -64.425,0 z"
       style="fill:#000000;fill-opacity:1;fill-rule:nonzero;stroke:none"
       id="path15311" />
    <path
       inkscape:connector-curvature="0"
       d="m 47.86666,245.10861 0,1.35 64.425,0 0,-1.35 -64.425,0 z"
       style="fill:#000000;fill-opacity:1;fill-rule:nonzero;stroke:none"
       id="path15313" />
    <path
       inkscape:connector-curvature="0"
       d="m 47.86666,270.90861 0,1.35 64.425,0 0,-1.35 -64.425,0 z"
       style="fill:#000000;fill-opacity:1;fill-rule:nonzero;stroke:none"
       id="path15315" />
    <path
       inkscape:connector-curvature="0"
       d="m 47.86666,296.70861 0,1.35 64.425,0 0,-1.35 -64.425,0 z"
       style="fill:#000000;fill-opacity:1;fill-rule:nonzero;stroke:none"
       id="path15317" />
    <path
       inkscape:connector-curvature="0"
       d="m 47.86666,89.48361 0,235.2 3,0 0,-235.2 -3,0 z"
       style="fill:#000000;fill-opacity:1;fill-rule:nonzero;stroke:none"
       id="path15319" />
    <path
       inkscape:connector-curvature="0"
       d="m 109.21666,89.48361 0,235.2 3.075,0 0,-235.2 -3.075,0 z"
       style="fill:#000000;fill-opacity:1;fill-rule:nonzero;stroke:none"
       id="path15321" />
    <path
       inkscape:connector-curvature="0"
       d="m 47.86666,89.48361 0,3 64.425,0 0,-3 -64.425,0 z"
       style="fill:#000000;fill-opacity:1;fill-rule:nonzero;stroke:none"
       id="path15323" />
    <path
       inkscape:connector-curvature="0"
       d="m 47.86666,321.68361 0,3 64.425,0 0,-3 -64.425,0 z"
       style="fill:#000000;fill-opacity:1;fill-rule:nonzero;stroke:none"
       id="path15325" />
    <text
       id="text15327"
       x="59.116035"
       y="106.28361"
       style="font-size:15px">
      <tspan
         style="font-size:10.80000019px;font-variant:normal;font-weight:normal;font-stretch:normal;writing-mode:lr-tb;fill:#000000;fill-opacity:1;fill-rule:nonzero;stroke:none;font-family:Trebuchet MS;-inkscape-font-specification:TrebuchetMS"
         x="59.116035"
         y="106.28361"
         id="tspan15329">1</tspan>
      <tspan
         style="font-size:10.80000019px;font-variant:normal;font-weight:normal;font-stretch:normal;writing-mode:lr-tb;fill:#000000;fill-opacity:1;fill-rule:nonzero;stroke:none;font-family:Trebuchet MS;-inkscape-font-specification:TrebuchetMS"
         x="59.116035"
         y="132.08372"
         id="tspan15331">0</tspan>
      <tspan
         style="font-size:10.80000019px;font-variant:normal;font-weight:normal;font-stretch:normal;writing-mode:lr-tb;fill:#000000;fill-opacity:1;fill-rule:nonzero;stroke:none;font-family:Trebuchet MS;-inkscape-font-specification:TrebuchetMS"
         x="59.116035 63.089355 67.062675 71.035995"
         y="157.88385"
         sodipodi:role="line"
         id="tspan15333">....</tspan>
    </text>
    <path
       inkscape:connector-curvature="0"
       d="m 161.86666,116.10861 0,1.35 64.425,0 0,-1.35 -64.425,0 z"
       style="fill:#000000;fill-opacity:1;fill-rule:nonzero;stroke:none"
       id="path15335" />
    <path
       inkscape:connector-curvature="0"
       d="m 161.86666,141.90861 0,1.35 64.425,0 0,-1.35 -64.425,0 z"
       style="fill:#000000;fill-opacity:1;fill-rule:nonzero;stroke:none"
       id="path15337" />
    <path
       inkscape:connector-curvature="0"
       d="m 161.86666,167.70861 0,1.35 64.425,0 0,-1.35 -64.425,0 z"
       style="fill:#000000;fill-opacity:1;fill-rule:nonzero;stroke:none"
       id="path15339" />
    <path
       inkscape:connector-curvature="0"
       d="m 161.86666,193.50861 0,1.35 64.425,0 0,-1.35 -64.425,0 z"
       style="fill:#000000;fill-opacity:1;fill-rule:nonzero;stroke:none"
       id="path15341" />
    <path
       inkscape:connector-curvature="0"
       d="m 161.86666,219.30861 0,1.35 64.425,0 0,-1.35 -64.425,0 z"
       style="fill:#000000;fill-opacity:1;fill-rule:nonzero;stroke:none"
       id="path15343" />
    <path
       inkscape:connector-curvature="0"
       d="m 161.86666,245.10861 0,1.35 64.425,0 0,-1.35 -64.425,0 z"
       style="fill:#000000;fill-opacity:1;fill-rule:nonzero;stroke:none"
       id="path15345" />
    <path
       inkscape:connector-curvature="0"
       d="m 161.86666,270.90861 0,1.35 64.425,0 0,-1.35 -64.425,0 z"
       style="fill:#000000;fill-opacity:1;fill-rule:nonzero;stroke:none"
       id="path15347" />
    <path
       inkscape:connector-curvature="0"
       d="m 161.86666,296.70861 0,1.35 64.425,0 0,-1.35 -64.425,0 z"
       style="fill:#000000;fill-opacity:1;fill-rule:nonzero;stroke:none"
       id="path15349" />
    <path
       inkscape:connector-curvature="0"
       d="m 161.86666,89.48361 0,235.2 3,0 0,-235.2 -3,0 z"
       style="fill:#000000;fill-opacity:1;fill-rule:nonzero;stroke:none"
       id="path15351" />
    <path
       inkscape:connector-curvature="0"
       d="m 223.21666,89.48361 0,235.2 3.075,0 0,-235.2 -3.075,0 z"
       style="fill:#000000;fill-opacity:1;fill-rule:nonzero;stroke:none"
       id="path15353" />
    <path
       inkscape:connector-curvature="0"
       d="m 161.86666,89.48361 0,3 64.425,0 0,-3 -64.425,0 z"
       style="fill:#000000;fill-opacity:1;fill-rule:nonzero;stroke:none"
       id="path15355" />
    <path
       inkscape:connector-curvature="0"
       d="m 161.86666,321.68361 0,3 64.425,0 0,-3 -64.425,0 z"
       style="fill:#000000;fill-opacity:1;fill-rule:nonzero;stroke:none"
       id="path15357" />
    <text
       id="text15359"
       x="173.11603"
       y="106.28361"
       style="font-size:15px">
      <tspan
         style="font-size:10.80000019px;font-variant:normal;font-weight:normal;font-stretch:normal;writing-mode:lr-tb;fill:#000000;fill-opacity:1;fill-rule:nonzero;stroke:none;font-family:Trebuchet MS;-inkscape-font-specification:TrebuchetMS"
         x="173.11603"
         y="106.28361"
         id="tspan15361">1</tspan>
      <tspan
         style="font-size:10.80000019px;font-variant:normal;font-weight:normal;font-stretch:normal;writing-mode:lr-tb;fill:#000000;fill-opacity:1;fill-rule:nonzero;stroke:none;font-family:Trebuchet MS;-inkscape-font-specification:TrebuchetMS"
         x="173.11603"
         y="132.08372"
         id="tspan15363">1</tspan>
      <tspan
         style="font-size:10.80000019px;font-variant:normal;font-weight:normal;font-stretch:normal;writing-mode:lr-tb;fill:#000000;fill-opacity:1;fill-rule:nonzero;stroke:none;font-family:Trebuchet MS;-inkscape-font-specification:TrebuchetMS"
         x="173.11603 177.08936 181.06267 185.036"
         y="157.88385"
         sodipodi:role="line"
         id="tspan15365">....</tspan>
    </text>
    <g
       id="g15367"
       transform="matrix(0,1.25,1.25,0,58.14166,358.13361)">
      <path
         inkscape:connector-curvature="0"
         d="m 0,0 32.34,31.56 0,63.18 L 0,126.3 0,0"
         style="fill:#00cc99;fill-opacity:1;fill-rule:evenodd;stroke:none"
         id="path15369" />
    </g>
    <g
       id="g15371"
       transform="matrix(0,1.25,1.25,0,58.14166,358.58361)">
      <path
         inkscape:connector-curvature="0"
         d="m 0,0 -0.66,0.3 32.4,31.56 -0.12,-0.3 0,63.18 0.12,-0.3 L -0.66,126 0,126.3 0,0 z M -0.78,127.26 32.4,94.86 32.4,31.38 -0.78,-0.96"
         style="fill:#000000;fill-opacity:1;fill-rule:nonzero;stroke:none"
         id="path15373" />
    </g>
    <g
       id="g15375"
       transform="matrix(0,1.25,1.25,0,75.69166,350.03361)">
      <path
         inkscape:connector-curvature="0"
         d="m 0,0 0,5.28 -19.44,0 0,10.5 19.44,0 0,5.28 6.48,-10.56"
         style="fill:#00cc99;fill-opacity:1;fill-rule:evenodd;stroke:none"
         id="path15377" />
    </g>
    <g
       id="g15379"
       transform="matrix(0,1.25,1.25,0,73.89166,349.50861)">
      <path
         inkscape:connector-curvature="0"
         d="m 0,0 0,6.72 0.42,-0.42 -19.86,0 0,11.34 19.86,0 L 0,17.22 0,23.94 7.38,11.94 0,0 z m 6.54,12.18 0,-0.42 -6.48,10.5 0.72,0.24 0,-5.7 -19.8,0 0.42,0.42 0,-10.5 -0.42,0.36 19.8,0 0,-5.64 -0.72,0.18"
         style="fill:#000000;fill-opacity:1;fill-rule:nonzero;stroke:none"
         id="path15381" />
    </g>
    <g
       id="g15383"
       transform="matrix(0,1.25,1.25,0,180.91666,350.03361)">
      <path
         inkscape:connector-curvature="0"
         d="m 0,0 0,5.28 -19.44,0 0,10.5 19.44,0 0,5.28 6.48,-10.56"
         style="fill:#00cc99;fill-opacity:1;fill-rule:evenodd;stroke:none"
         id="path15385" />
    </g>
    <g
       id="g15387"
       transform="matrix(0,1.25,1.25,0,179.11666,349.50861)">
      <path
         inkscape:connector-curvature="0"
         d="m 0,0 0,6.72 0.42,-0.42 -19.86,0 0,11.34 19.86,0 L 0,17.22 0,23.94 7.38,11.94 0,0 z m 6.54,12.18 0,-0.42 -6.48,10.5 0.72,0.24 0,-5.7 -19.8,0 0.42,0.42 0,-10.5 -0.42,0.36 19.8,0 0,-5.64 -0.72,0.24"
         style="fill:#000000;fill-opacity:1;fill-rule:nonzero;stroke:none"
         id="path15389" />
    </g>
    <path
       inkscape:connector-curvature="0"
       d="m 259.81541,384.38361 0,-4.05 -60,0 0,4.05 60,0 z m 0,-4.05 z m -57.97375,-4.05 -12.15,6.075 12.15,6.075"
       style="fill:#000000;fill-opacity:1;fill-rule:nonzero;stroke:none"
       id="path15391" />
    <text
       id="text15393"
       x="285.24103"
       y="390.45862"
       style="font-size:15px">
      <tspan
         style="font-size:21.60000038px;font-variant:normal;font-weight:bold;font-stretch:normal;writing-mode:lr-tb;fill:#000000;fill-opacity:1;fill-rule:nonzero;stroke:none;font-family:Verdana;-inkscape-font-specification:Verdana-Bold"
         x="285.24103 298.98511 313.3988 326.19247 336.02695 343.5675 360.0116 370.73169 385.14536 400.50943 413.19513 428.5592 436.09976 452.97583 467.3031 480.0968 495.46088 502.83295"
         y="390.45862"
         sodipodi:role="line"
         id="tspan15395">Last Branch Result</tspan>
    </text>
    <path
       inkscape:connector-curvature="0"
       d="m -96.325476,262.95861 0,-4.05 117.229181,0 0,4.05 -117.229181,0 z m 0,-4.05 z m 115.274155,-4.05 11.730159,6.075 -11.730159,6.075"
       style="fill:#000000;fill-opacity:1;fill-rule:nonzero;stroke:none"
       id="path15397" />
    <text
       id="text15399"
       x="-299.43396"
       y="266.85861"
       style="font-size:15px">
      <tspan
         style="font-size:21.60000038px;font-variant:normal;font-weight:bold;font-stretch:normal;writing-mode:lr-tb;fill:#000000;fill-opacity:1;fill-rule:nonzero;stroke:none;font-family:Verdana;-inkscape-font-specification:Verdana-Bold"
         x="-299.43396 -282.98987 -272.26981 -257.85614 -242.49203 -229.80637 -214.44228 -206.86284 -190.11636 -175.03308 -159.9498 -149.22972 -134.90244 -122.10877"
         y="266.85861"
         sodipodi:role="line"
         id="tspan15401">Branch Address</tspan>
      <tspan
         style="font-size:21.60000038px;font-variant:normal;font-weight:bold;font-stretch:normal;writing-mode:lr-tb;fill:#000000;fill-opacity:1;fill-rule:nonzero;stroke:none;font-family:Verdana;-inkscape-font-specification:Verdana-Bold"
         x="-291.85883 -277.14276 -261.80029 -253.1322 -245.7018 -229.25772 -218.53764 -204.12396 -188.75989 -176.0742 -160.71011 -153.13068 -135.06662 -127.69452 -114.90084 -105.06636 -90.242279 -79.522194 -65.475716 -58.045315 -43.329243 -28.915562 -13.832287 -6.4601936"
         y="109.13325"
         sodipodi:role="line"
         id="tspan15403">T1: Branch History Table</tspan>
      <tspan
         style="font-size:21.60000038px;font-variant:normal;font-weight:bold;font-stretch:normal;writing-mode:lr-tb;fill:#000000;fill-opacity:1;fill-rule:nonzero;stroke:none;font-family:Verdana;-inkscape-font-specification:Verdana-Bold"
         x="-247.30884 -239.93677 -230.83669 -223.37172 -215.99963 -201.58597 -188.79228 -178.95779 -171.49284 -156.40956 -145.68948 -131.27579 -115.91172 -103.22604 -87.861961 -80.209091 -70.374603 -55.960926 -41.482433 -27.155155"
         y="135.00787"
         sodipodi:role="line"
         id="tspan15405">if last branch taken</tspan>
      <tspan
         style="font-size:21.60000038px;font-variant:normal;font-weight:bold;font-stretch:normal;writing-mode:lr-tb;fill:#000000;fill-opacity:1;fill-rule:nonzero;stroke:none;font-family:Verdana;-inkscape-font-specification:Verdana-Bold"
         x="273.11722 287.83331 303.17578 311.84387 319.27426 335.71835 346.43845 360.85214 376.21622 388.90192 404.26599 411.8454 429.90945 437.28159 450.07523 459.90967 474.73383 485.45389 499.50037 506.93079 521.64679 536.06049 551.1438 558.51587"
         y="109.13325"
         sodipodi:role="line"
         id="tspan15407">T2: Branch History Table</tspan>
      <tspan
         style="font-size:21.60000038px;font-variant:normal;font-weight:bold;font-stretch:normal;writing-mode:lr-tb;fill:#000000;fill-opacity:1;fill-rule:nonzero;stroke:none;font-family:Verdana;-inkscape-font-specification:Verdana-Bold"
         x="317.66724 325.03931 334.13937 341.60431 348.97644 363.39014 376.18378 386.01831 393.48322 408.56653 419.28659 433.70026 449.06433 461.75003 477.11411 484.767 500.1311 514.95514 524.78967 532.06665 541.90118 556.31488 570.79333 585.12061"
         y="135.00787"
         sodipodi:role="line"
         id="tspan15409">if last branch not taken</tspan>
    </text>
    <g
       id="g15411"
       transform="matrix(0,1.25,1.25,0,128.26666,422.85861)">
      <path
         inkscape:connector-curvature="0"
         d="m 0,0 0,5.28 -19.44,0 0,10.56 19.44,0 0,5.22 6.48,-10.5"
         style="fill:#00cc99;fill-opacity:1;fill-rule:evenodd;stroke:none"
         id="path15413" />
    </g>
    <g
       id="g15415"
       transform="matrix(0,1.25,1.25,0,126.54166,422.33361)">
      <path
         inkscape:connector-curvature="0"
         d="m 0,0 0,6.66 0.42,-0.42 -19.8,0 0,11.34 19.8,0 L 0,17.22 0,23.88 7.38,11.94 0,0 z m 6.54,12.12 0,-0.42 -6.48,10.56 0.78,0.18 0,-5.64 -19.86,0 0.42,0.42 0,-10.56 -0.42,0.42 19.86,0 0,-5.7 -0.78,0.24"
         style="fill:#000000;fill-opacity:1;fill-rule:nonzero;stroke:none"
         id="path15417" />
    </g>
    <text
       id="text15419"
       x="164.34103"
       y="449.18362"
       style="font-size:15px">
      <tspan
         style="font-size:21.60000038px;font-variant:normal;font-weight:bold;font-stretch:normal;writing-mode:lr-tb;fill:#000000;fill-opacity:1;fill-rule:nonzero;stroke:none;font-family:Verdana;-inkscape-font-specification:Verdana-Bold"
         x="164.34103 180.78294 191.50087 205.91238 221.27431 233.95782 249.31975 256.8992 272.71472 283.43262 297.75775 312.83887 320.2088 332.8923 342.72464 350.09454 364.91647"
         y="449.18362"
         sodipodi:role="line"
         id="tspan15421">Branch Prediction</tspan>
    </text>
    <g
       id="g15423"
       transform="matrix(0,1.25,1.25,0,32.34166,261.23361)">
      <path
         inkscape:connector-curvature="0"
         d="M 0,0 C -0.12,0 -0.3,0 -0.42,0 L -1.08,0.12 C -1.2,0.18 -1.32,0.18 -1.38,0.24 L -2.04,0.6 C -2.1,0.66 -2.22,0.66 -2.28,0.72 l -0.6,0.6 c -0.06,0 -0.12,0.06 -0.18,0.12 l -0.6,0.78 -0.66,1.08 -0.6,1.2 c -3.215,7.21 -4.46,16.826 -5.58,24.6 l -0.36,3.12 -0.42,3.3 c -1.449,14.152 -2.157,28.377 -2.34,42.6 l -0.06,4.32 0,8.88 0.06,4.32 c 0.177,14.244 0.901,28.487 2.34,42.66 l 0.36,3.24 0.42,3.12 c 1.203,8.284 2.266,16.76 5.52,24.54 l 0.6,1.2 0.66,1.08 0.66,0.84 c 0.06,0.06 0.12,0.12 0.18,0.18 l 0.6,0.54 c 0.06,0.06 0.18,0.12 0.24,0.12 l 0.66,0.36 c 0.06,0.06 0.18,0.12 0.3,0.12 l 0.66,0.12 c 0.12,0 0.3,0 0.42,0 l 0.66,-0.12 c 0.12,0 0.24,-0.06 0.3,-0.12 l 0.66,-0.36 c 0.06,0 0.18,-0.06 0.24,-0.12 l 0.6,-0.54 c 0.06,-0.06 0.12,-0.12 0.12,-0.18 l 0.66,-0.72 0.66,-1.08 0.6,-1.26 c 3.225,-7.454 4.453,-16.609 5.58,-24.6 l 0.36,-3.12 0.42,-3.24 c 1.442,-14.153 2.158,-28.376 2.34,-42.6 l 0.06,-4.38 0,-8.82 -0.06,-4.38 C 13.016,63.897 12.31,49.672 10.86,35.52 L 10.44,32.28 10.08,29.16 C 8.888,20.878 7.827,12.391 4.56,4.62 L 3.96,3.36 3.3,2.34 2.58,1.44 C 2.58,1.38 2.52,1.32 2.46,1.32 L 1.86,0.72 C 1.8,0.66 1.68,0.66 1.62,0.6 L 0.96,0.24 C 0.9,0.18 0.78,0.18 0.66,0.12 L 0,0 z M 0.18,2.52 -0.12,2.4 0.48,2.76 0.24,2.58 0.84,3.12 0.72,2.94 1.26,3.6 1.8,4.44 2.34,5.52 c 3.027,7.259 4.235,16.197 5.34,23.94 l 0.36,3.06 0.36,3.24 c 1.544,14.091 2.127,28.195 2.4,42.36 l 0.06,4.38 0,8.76 -0.06,4.38 C 10.527,109.805 9.944,123.909 8.4,138 l -0.36,3.24 -0.36,3.06 c -1.111,7.652 -2.284,16.734 -5.34,23.88 l -0.54,1.02 -0.48,0.84 -0.6,0.78 0.12,-0.18 -0.6,0.54 0.24,-0.12 -0.6,0.3 0.3,-0.12 -0.6,0.12 0.42,0 -0.6,-0.12 0.3,0.12 -0.6,-0.3 0.24,0.12 -0.6,-0.54 0.12,0.18 -0.54,-0.66 -0.54,-0.84 -0.54,-1.08 C -5.785,161.075 -6.992,152.013 -8.1,144.36 L -8.46,141.24 -8.82,138 c -1.532,-14.072 -2.179,-28.212 -2.4,-42.36 l -0.06,-4.32 0,-8.82 0.06,-4.32 c 0.215,-14.174 0.876,-28.322 2.4,-42.42 l 0.36,-3.24 0.36,-3.06 C -6.992,21.957 -5.818,12.617 -2.76,5.64 L -2.22,4.56 -1.74,3.72 -1.14,2.94 -1.26,3.12 -0.66,2.58 -0.9,2.76 -0.3,2.4 -0.6,2.52 0,2.4 l -0.42,0"
         style="fill:#ff0000;fill-opacity:1;fill-rule:nonzero;stroke:none"
         id="path15425" />
    </g>
  </g>
</svg>
