<?xml version="1.0" encoding="UTF-8" standalone="no"?>
<!-- Created with Inkscape (http://www.inkscape.org/) -->

<svg
   xmlns:dc="http://purl.org/dc/elements/1.1/"
   xmlns:cc="http://creativecommons.org/ns#"
   xmlns:rdf="http://www.w3.org/1999/02/22-rdf-syntax-ns#"
   xmlns:svg="http://www.w3.org/2000/svg"
   xmlns="http://www.w3.org/2000/svg"
   xmlns:sodipodi="http://sodipodi.sourceforge.net/DTD/sodipodi-0.dtd"
   xmlns:inkscape="http://www.inkscape.org/namespaces/inkscape"
   width="421.79486"
   height="475.55136"
   id="svg2"
   version="1.1"
   inkscape:version="0.48.4 r9939"
   sodipodi:docname="New document 1">
  <defs
     id="defs4">
    <clipPath
       id="clipPath3005"
       clipPathUnits="userSpaceOnUse">
      <path
         id="path3007"
         d="m 0,841.98 595.2,0 L 595.2,0 0,0 0,841.98 z"
         inkscape:connector-curvature="0" />
    </clipPath>
    <clipPath
       id="clipPath2999"
       clipPathUnits="userSpaceOnUse">
      <path
         id="path3001"
         clip-rule="evenodd"
         d="m 588.84,0.11053 -582.84,0 0,841.86 582.84,0 0,-841.86 z"
         inkscape:connector-curvature="0" />
    </clipPath>
  </defs>
  <sodipodi:namedview
     id="base"
     pagecolor="#ffffff"
     bordercolor="#666666"
     borderopacity="1.0"
     inkscape:pageopacity="0.0"
     inkscape:pageshadow="2"
     inkscape:zoom="0.98994949"
     inkscape:cx="108.37356"
     inkscape:cy="280.71025"
     inkscape:document-units="px"
     inkscape:current-layer="layer1"
     showgrid="false"
     fit-margin-top="10"
     fit-margin-left="10"
     fit-margin-right="10"
     fit-margin-bottom="10"
     inkscape:window-width="954"
     inkscape:window-height="1028"
     inkscape:window-x="0"
     inkscape:window-y="0"
     inkscape:window-maximized="0" />
  <metadata
     id="metadata7">
    <rdf:RDF>
      <cc:Work
         rdf:about="">
        <dc:format>image/svg+xml</dc:format>
        <dc:type
           rdf:resource="http://purl.org/dc/dcmitype/StillImage" />
        <dc:title></dc:title>
      </cc:Work>
    </rdf:RDF>
  </metadata>
  <g
     inkscape:label="Layer 1"
     inkscape:groupmode="layer"
     id="layer1"
     transform="translate(-340.47023,-362.61083)">
    <path
       inkscape:connector-curvature="0"
       d="m 557.62023,389.48718 0,24.825 96.45,0 0,-24.825 -96.45,0 z m 95.925,1.05 -0.525,-0.525 0,23.775 0.525,-0.525 -95.475,0 0.52375,0.525 0,-23.775 -0.52375,0.525"
       style="fill:#000000;fill-opacity:1;fill-rule:nonzero;stroke:none"
       id="path3077" />
    <path
       inkscape:connector-curvature="0"
       d="m 557.62023,413.26218 0,24.975 96.45,0 0,-24.975 -96.45,0 z m 95.925,1.05 -0.525,-0.525 0,23.925 0.525,-0.45 -95.475,0 0.52375,0.45 0,-23.925 -0.52375,0.525"
       style="fill:#000000;fill-opacity:1;fill-rule:nonzero;stroke:none"
       id="path3079" />
    <path
       inkscape:connector-curvature="0"
       d="m 557.62023,437.26218 0,24.75 96.45,0 0,-24.75 -96.45,0 z m 95.925,0.975 -0.525,-0.525 0,23.85 0.525,-0.525 -95.475,0 0.52375,0.525 0,-23.85 -0.52375,0.525"
       style="fill:#000000;fill-opacity:1;fill-rule:nonzero;stroke:none"
       id="path3081" />
    <path
       inkscape:connector-curvature="0"
       d="m 557.62023,461.03718 0,24.975 96.45,0 0,-24.975 -96.45,0 z m 95.925,0.975 -0.525,-0.45 0,23.925 0.525,-0.525 -95.475,0 0.52375,0.525 0,-23.925 -0.52375,0.45"
       style="fill:#000000;fill-opacity:1;fill-rule:nonzero;stroke:none"
       id="path3083" />
    <path
       inkscape:connector-curvature="0"
       d="m 557.62023,484.96218 0,24.825 96.45,0 0,-24.825 -96.45,0 z m 95.925,1.05 -0.525,-0.525 0,23.775 0.525,-0.525 -95.475,0 0.52375,0.525 0,-23.775 -0.52375,0.525"
       style="fill:#000000;fill-opacity:1;fill-rule:nonzero;stroke:none"
       id="path3085" />
    <path
       inkscape:connector-curvature="0"
       d="m 557.62023,508.73718 0,24.825 96.45,0 0,-24.825 -96.45,0 z m 95.925,1.05 -0.525,-0.525 0,23.775 0.525,-0.525 -95.475,0 0.52375,0.525 0,-23.775 -0.52375,0.525"
       style="fill:#000000;fill-opacity:1;fill-rule:nonzero;stroke:none"
       id="path3087" />
    <path
       inkscape:connector-curvature="0"
       d="m 557.62023,532.51218 0,24.975 96.45,0 0,-24.975 -96.45,0 z m 95.925,1.05 -0.525,-0.525 0,23.925 0.525,-0.525 -95.475,0 0.52375,0.525 0,-23.925 -0.52375,0.525"
       style="fill:#000000;fill-opacity:1;fill-rule:nonzero;stroke:none"
       id="path3089" />
    <path
       inkscape:connector-curvature="0"
       d="m 557.62023,556.43718 0,24.825 96.45,0 0,-24.825 -96.45,0 z m 95.925,1.05 -0.525,-0.525 0,23.775 0.525,-0.45 -95.475,0 0.52375,0.45 0,-23.775 -0.52375,0.525"
       style="fill:#000000;fill-opacity:1;fill-rule:nonzero;stroke:none"
       id="path3091" />
    <g
       id="g3093"
       transform="matrix(0,1.25,1.25,0,480.67023,419.18718)">
      <path
         inkscape:connector-curvature="0"
         d="m 0,0 62.88,0 0,56.7 -0.84,0 0,-56.28 0.42,0.42 L 0,0.84 0,0 z m 65.7,55.62 -3.24,6.48 -3.24,-6.48"
         style="fill:#000000;fill-opacity:1;fill-rule:nonzero;stroke:none"
         id="path3095" />
    </g>
    <text
       id="text3097"
       x="453.66959"
       y="410.48718"
       style="font-size:15px">
      <tspan
         style="font-size:16.20000076px;font-variant:normal;font-weight:bold;font-stretch:normal;writing-mode:lr-tb;fill:#000000;fill-opacity:1;fill-rule:nonzero;stroke:none;font-family:Times New Roman;-inkscape-font-specification:TimesNewRomanPS-BoldMT"
         x="453.66959 462.59256 467.99203 476.99921 481.50281 486.89743 496.79562"
         y="410.48718"
         sodipodi:role="line"
         id="tspan3099">k-bitPC</tspan>
    </text>
    <g
       id="g3101"
       transform="matrix(0,1.25,1.25,0,653.54523,495.61218)">
      <path
         inkscape:connector-curvature="0"
         d="m 0,0 0,15.66 -0.54,0 0.36,-0.42 0,9.84 -0.78,0 0,-10.26 0.54,0 -0.42,0.42 L -0.84,0 0,0 z M 2.7,24 -0.54,30.48 -3.78,24"
         style="fill:#000000;fill-opacity:1;fill-rule:nonzero;stroke:none"
         id="path3103" />
    </g>
    <text
       id="text3105"
       x="715.04462"
       y="501.01218"
       style="font-size:15px">
      <tspan
         style="font-size:16.20000076px;font-variant:normal;font-weight:bold;font-stretch:normal;writing-mode:lr-tb;fill:#000000;fill-opacity:1;fill-rule:nonzero;stroke:none;font-family:Times New Roman;-inkscape-font-specification:TimesNewRomanPS-BoldMT"
         x="715.04462 725.84839 730.35034 742.04517"
         y="501.01218"
         sodipodi:role="line"
         id="tspan3107">T/NT</tspan>
    </text>
    <path
       inkscape:connector-curvature="0"
       d="m 350.47023,758.18718 0,-24.3 26.7,0 0,24.3 -26.7,0 z m 0,-24.3 z m 1.05,23.775 -0.525,-0.525 25.65,0 -0.45,0.525 0,-23.25 0.45,0.525 -25.65,0 0.525,-0.525"
       style="fill:#000000;fill-opacity:1;fill-rule:nonzero;stroke:none"
       id="path3109" />
    <text
       id="text3111"
       x="358.94461"
       y="751.88721"
       style="font-size:15px">
      <tspan
         style="font-size:16.20000076px;font-variant:normal;font-weight:normal;font-stretch:normal;writing-mode:lr-tb;fill:#000000;fill-opacity:1;fill-rule:nonzero;stroke:none;font-family:Times New Roman;-inkscape-font-specification:TimesNewRomanPSMT"
         x="358.94461"
         y="751.88721"
         id="tspan3113">T</tspan>
    </text>
    <path
       inkscape:connector-curvature="0"
       d="m 376.19523,758.18718 0,-24.3 26.625,0 0,24.3 -26.625,0 z m 0,-24.3 z m 0.975,23.775 -0.525,-0.525 25.725,0 -0.525,0.525 0,-23.25 0.525,0.525 -25.725,0 0.525,-0.525"
       style="fill:#000000;fill-opacity:1;fill-rule:nonzero;stroke:none"
       id="path3115" />
    <text
       id="text3117"
       x="378.7446"
       y="751.88721"
       style="font-size:15px">
      <tspan
         style="font-size:16.20000076px;font-variant:normal;font-weight:normal;font-stretch:normal;writing-mode:lr-tb;fill:#000000;fill-opacity:1;fill-rule:nonzero;stroke:none;font-family:Times New Roman;-inkscape-font-specification:TimesNewRomanPSMT"
         x="378.7446 390.44263"
         y="751.88721"
         sodipodi:role="line"
         id="tspan3119">NT</tspan>
    </text>
    <path
       inkscape:connector-curvature="0"
       d="m 401.84523,758.18718 0,-24.3 26.7,0 0,24.3 -26.7,0 z m 0,-24.3 z m 0.975,23.775 -0.45,-0.525 25.65,0 -0.525,0.525 0,-23.25 0.525,0.525 -25.65,0 0.45,-0.525"
       style="fill:#000000;fill-opacity:1;fill-rule:nonzero;stroke:none"
       id="path3121" />
    <text
       id="text3123"
       x="404.4696"
       y="751.88721"
       style="font-size:15px">
      <tspan
         style="font-size:16.20000076px;font-variant:normal;font-weight:normal;font-stretch:normal;writing-mode:lr-tb;fill:#000000;fill-opacity:1;fill-rule:nonzero;stroke:none;font-family:Times New Roman;-inkscape-font-specification:TimesNewRomanPSMT"
         x="404.4696 416.16763"
         y="751.88721"
         sodipodi:role="line"
         id="tspan3125">NT</tspan>
    </text>
    <path
       inkscape:connector-curvature="0"
       d="m 427.49523,758.18718 0,-24.3 26.7,0 0,24.3 -26.7,0 z m 0,-24.3 z m 1.05,23.775 -0.525,-0.525 25.64875,0 -0.44875,0.525 0,-23.25 0.44875,0.525 -25.64875,0 0.525,-0.525"
       style="fill:#000000;fill-opacity:1;fill-rule:nonzero;stroke:none"
       id="path3127" />
    <text
       id="text3129"
       x="435.9696"
       y="751.88721"
       style="font-size:15px">
      <tspan
         style="font-size:16.20000076px;font-variant:normal;font-weight:normal;font-stretch:normal;writing-mode:lr-tb;fill:#000000;fill-opacity:1;fill-rule:nonzero;stroke:none;font-family:Times New Roman;-inkscape-font-specification:TimesNewRomanPSMT"
         x="435.9696"
         y="751.88721"
         id="tspan3131">T</tspan>
    </text>
    <path
       inkscape:connector-curvature="0"
       d="m 555.89523,640.43718 0,24.3 94.275,0 0,-24.3 -94.275,0 z m 93.75,1.05 -0.45125,-0.525 0,23.25 0.45125,-0.45 -93.225,0 0.52375,0.45 0,-23.25 -0.52375,0.525"
       style="fill:#000000;fill-opacity:1;fill-rule:nonzero;stroke:none"
       id="path3133" />
    <path
       inkscape:connector-curvature="0"
       d="m 555.89523,663.76218 0,24.45 94.275,0 0,-24.45 -94.275,0 z m 93.75,0.975 -0.45125,-0.525 0,23.475 0.45125,-0.525 -93.225,0 0.52375,0.525 0,-23.475 -0.52375,0.525"
       style="fill:#000000;fill-opacity:1;fill-rule:nonzero;stroke:none"
       id="path3135" />
    <path
       inkscape:connector-curvature="0"
       d="m 555.89523,687.16218 0,24.3 94.275,0 0,-24.3 -94.275,0 z m 93.75,1.05 -0.45125,-0.525 0,23.25 0.45125,-0.525 -93.225,0 0.52375,0.525 0,-23.25 -0.52375,0.525"
       style="fill:#000000;fill-opacity:1;fill-rule:nonzero;stroke:none"
       id="path3137" />
    <path
       inkscape:connector-curvature="0"
       d="m 555.89523,710.41218 0,24.525 94.275,0 0,-24.525 -94.275,0 z m 93.75,1.05 -0.45125,-0.525 0,23.475 0.45125,-0.525 -93.225,0 0.52375,0.525 0,-23.475 -0.52375,0.525"
       style="fill:#000000;fill-opacity:1;fill-rule:nonzero;stroke:none"
       id="path3139" />
    <path
       inkscape:connector-curvature="0"
       d="m 555.89523,733.88718 0,24.3 94.275,0 0,-24.3 -94.275,0 z m 93.75,1.05 -0.45125,-0.525 0,23.25 0.45125,-0.525 -93.225,0 0.52375,0.525 0,-23.25 -0.52375,0.525"
       style="fill:#000000;fill-opacity:1;fill-rule:nonzero;stroke:none"
       id="path3141" />
    <path
       inkscape:connector-curvature="0"
       d="m 555.89523,757.13718 0,24.3 94.275,0 0,-24.3 -94.275,0 z m 93.75,1.05 -0.45125,-0.525 0,23.25 0.45125,-0.45 -93.225,0 0.52375,0.45 0,-23.25 -0.52375,0.525"
       style="fill:#000000;fill-opacity:1;fill-rule:nonzero;stroke:none"
       id="path3143" />
    <path
       inkscape:connector-curvature="0"
       d="m 555.89523,780.46218 0,24.45 94.275,0 0,-24.45 -94.275,0 z m 93.75,0.975 -0.45125,-0.525 0,23.475 0.45125,-0.525 -93.225,0 0.52375,0.525 0,-23.475 -0.52375,0.525"
       style="fill:#000000;fill-opacity:1;fill-rule:nonzero;stroke:none"
       id="path3145" />
    <path
       inkscape:connector-curvature="0"
       d="m 555.89523,803.86218 0,24.3 94.275,0 0,-24.3 -94.275,0 z m 93.75,1.05 -0.45125,-0.525 0,23.25 0.45125,-0.525 -93.225,0 0.52375,0.525 0,-23.25 -0.52375,0.525"
       style="fill:#000000;fill-opacity:1;fill-rule:nonzero;stroke:none"
       id="path3147" />
    <g
       id="g3149"
       transform="matrix(0,1.25,1.25,0,649.64523,745.66218)">
      <path
         inkscape:connector-curvature="0"
         d="m 0,0 0,16.56 -1.62,0 1.62,-1.62 0,6.78 -3.24,0 0,-8.4 1.62,0 -1.62,1.62 L -3.24,0 0,0 z m 3.24,20.1 -4.86,9.72 -4.86,-9.72"
         style="fill:#000000;fill-opacity:1;fill-rule:nonzero;stroke:none"
         id="path3151" />
    </g>
    <text
       id="text3153"
       x="704.91974"
       y="750.08716"
       style="font-size:15px">
      <tspan
         style="font-size:16.20000076px;font-variant:normal;font-weight:bold;font-stretch:normal;writing-mode:lr-tb;fill:#000000;fill-opacity:1;fill-rule:nonzero;stroke:none;font-family:Times New Roman;-inkscape-font-specification:TimesNewRomanPS-BoldMT"
         x="704.91974 715.72351 720.22546 731.92029"
         y="750.08716"
         sodipodi:role="line"
         id="tspan3155">T/NT</tspan>
      <tspan
         style="font-size:16.20000076px;font-variant:normal;font-weight:bold;font-stretch:normal;writing-mode:lr-tb;fill:#000000;fill-opacity:1;fill-rule:nonzero;stroke:none;font-family:Times New Roman;-inkscape-font-specification:TimesNewRomanPS-BoldMT"
         x="581.09503 591.89722 604.49756"
         y="383.33701"
         sodipodi:role="line"
         id="tspan3157">BHT</tspan>
      <tspan
         style="font-size:16.20000076px;font-variant:normal;font-weight:bold;font-stretch:normal;writing-mode:lr-tb;fill:#000000;fill-opacity:1;fill-rule:nonzero;stroke:none;font-family:Times New Roman;-inkscape-font-specification:TimesNewRomanPS-BoldMT"
         x="588.59564 598.49542 611.10065"
         y="628.21136"
         sodipodi:role="line"
         id="tspan3159">PHT</tspan>
      <tspan
         style="font-size:16.20000076px;font-variant:normal;font-weight:bold;font-stretch:normal;writing-mode:lr-tb;fill:#000000;fill-opacity:1;fill-rule:nonzero;stroke:none;font-family:Times New Roman;-inkscape-font-specification:TimesNewRomanPS-BoldMT"
         x="383.32056 394.12271 406.72308"
         y="710.11206"
         sodipodi:role="line"
         id="tspan3161">BHR</tspan>
    </text>
    <path
       inkscape:connector-curvature="0"
       d="m 455.04474,747.38718 0,-4.05 90.47228,0 0,4.05 -90.47228,0 z m 0,-4.05 z m 90.47347,2.025 -7.71921,-6.075 19.29623,6.075 -19.29623,6.075"
       style="fill:#000000;fill-opacity:1;fill-rule:nonzero;stroke:none"
       id="path3163" />
  </g>
</svg>
