<?xml version="1.0" encoding="UTF-8" standalone="no"?>
<!-- Created with Inkscape (http://www.inkscape.org/) -->

<svg
   xmlns:dc="http://purl.org/dc/elements/1.1/"
   xmlns:cc="http://creativecommons.org/ns#"
   xmlns:rdf="http://www.w3.org/1999/02/22-rdf-syntax-ns#"
   xmlns:svg="http://www.w3.org/2000/svg"
   xmlns="http://www.w3.org/2000/svg"
   xmlns:sodipodi="http://sodipodi.sourceforge.net/DTD/sodipodi-0.dtd"
   xmlns:inkscape="http://www.inkscape.org/namespaces/inkscape"
   width="452.61981"
   height="254.82587"
   id="svg3779"
   version="1.1"
   inkscape:version="0.48.4 r9939"
   sodipodi:docname="New document 5">
  <defs
     id="defs3781">
    <clipPath
       id="clipPath3807"
       clipPathUnits="userSpaceOnUse">
      <path
         id="path3809"
         d="m 0,841.98 595.2,0 L 595.2,0 0,0 0,841.98 z"
         inkscape:connector-curvature="0" />
    </clipPath>
    <clipPath
       id="clipPath3801"
       clipPathUnits="userSpaceOnUse">
      <path
         id="path3803"
         clip-rule="evenodd"
         d="m 588.84,0.11053 -582.84,0 0,841.86 582.84,0 0,-841.86 z"
         inkscape:connector-curvature="0" />
    </clipPath>
  </defs>
  <sodipodi:namedview
     id="base"
     pagecolor="#ffffff"
     bordercolor="#666666"
     borderopacity="1.0"
     inkscape:pageopacity="0.0"
     inkscape:pageshadow="2"
     inkscape:zoom="0.98994949"
     inkscape:cx="133.70943"
     inkscape:cy="93.63141"
     inkscape:document-units="px"
     inkscape:current-layer="layer1"
     showgrid="false"
     fit-margin-top="10"
     fit-margin-left="10"
     fit-margin-right="10"
     fit-margin-bottom="10"
     inkscape:window-width="954"
     inkscape:window-height="1028"
     inkscape:window-x="0"
     inkscape:window-y="0"
     inkscape:window-maximized="0" />
  <metadata
     id="metadata3784">
    <rdf:RDF>
      <cc:Work
         rdf:about="">
        <dc:format>image/svg+xml</dc:format>
        <dc:type
           rdf:resource="http://purl.org/dc/dcmitype/StillImage" />
        <dc:title></dc:title>
      </cc:Work>
    </rdf:RDF>
  </metadata>
  <g
     inkscape:label="Layer 1"
     inkscape:groupmode="layer"
     id="layer1"
     transform="translate(-281.91309,-349.10418)">
    <path
       inkscape:connector-curvature="0"
       d="m 291.91309,515.40504 0,-27.15 29.85,0 0,27.15 -29.85,0 z m 0,-27.15 z m 1.05,26.625 -0.525,-0.525 28.8,0 -0.525,0.525 0,-26.175 0.525,0.525 -28.8,0 0.525,-0.525"
       style="fill:#000000;fill-opacity:1;fill-rule:nonzero;stroke:none"
       id="path3861" />
    <text
       id="text3863"
       x="301.88748"
       y="507.68005"
       style="font-size:15px">
      <tspan
         style="font-size:16.20000076px;font-variant:normal;font-weight:normal;font-stretch:normal;writing-mode:lr-tb;fill:#000000;fill-opacity:1;fill-rule:nonzero;stroke:none;font-family:Times New Roman;-inkscape-font-specification:TimesNewRomanPSMT"
         x="301.88748"
         y="507.68005"
         id="tspan3865">T</tspan>
    </text>
    <path
       inkscape:connector-curvature="0"
       d="m 320.71309,515.40504 0,-27.15 29.775,0 0,27.15 -29.775,0 z m 0,-27.15 z m 1.05,26.625 -0.525,-0.525 28.79875,0 -0.52375,0.525 0,-26.175 0.52375,0.525 -28.79875,0 0.525,-0.525"
       style="fill:#000000;fill-opacity:1;fill-rule:nonzero;stroke:none"
       id="path3867" />
    <text
       id="text3869"
       x="324.83746"
       y="507.68005"
       style="font-size:15px">
      <tspan
         style="font-size:16.20000076px;font-variant:normal;font-weight:normal;font-stretch:normal;writing-mode:lr-tb;fill:#000000;fill-opacity:1;fill-rule:nonzero;stroke:none;font-family:Times New Roman;-inkscape-font-specification:TimesNewRomanPSMT"
         x="324.83746 336.53549"
         y="507.68005"
         sodipodi:role="line"
         id="tspan3871">NT</tspan>
    </text>
    <path
       inkscape:connector-curvature="0"
       d="m 349.51309,515.40504 0,-27.15 29.775,0 0,27.15 -29.775,0 z m 0,-27.15 z m 0.975,26.625 -0.45125,-0.525 28.8,0 -0.525,0.525 0,-26.175 0.525,0.525 -28.8,0 0.45125,-0.525"
       style="fill:#000000;fill-opacity:1;fill-rule:nonzero;stroke:none"
       id="path3873" />
    <text
       id="text3875"
       x="353.63748"
       y="507.68005"
       style="font-size:15px">
      <tspan
         style="font-size:16.20000076px;font-variant:normal;font-weight:normal;font-stretch:normal;writing-mode:lr-tb;fill:#000000;fill-opacity:1;fill-rule:nonzero;stroke:none;font-family:Times New Roman;-inkscape-font-specification:TimesNewRomanPSMT"
         x="353.63748 365.33548"
         y="507.68005"
         sodipodi:role="line"
         id="tspan3877">NT</tspan>
    </text>
    <path
       inkscape:connector-curvature="0"
       d="m 378.31184,515.40504 0,-27.15 29.775,0 0,27.15 -29.775,0 z m 0,-27.15 z m 0.97625,26.625 -0.45125,-0.525 28.80125,0 -0.52625,0.525 0,-26.175 0.52625,0.525 -28.80125,0 0.45125,-0.525"
       style="fill:#000000;fill-opacity:1;fill-rule:nonzero;stroke:none"
       id="path3879" />
    <text
       id="text3881"
       x="388.28745"
       y="507.68005"
       style="font-size:15px">
      <tspan
         style="font-size:16.20000076px;font-variant:normal;font-weight:normal;font-stretch:normal;writing-mode:lr-tb;fill:#000000;fill-opacity:1;fill-rule:nonzero;stroke:none;font-family:Times New Roman;-inkscape-font-specification:TimesNewRomanPSMT"
         x="388.28745"
         y="507.68005"
         id="tspan3883">T</tspan>
    </text>
    <path
       inkscape:connector-curvature="0"
       d="m 522.46184,383.33004 0,27.15 105.75,0 0,-27.15 -105.75,0 z m 105.22625,0.975 -0.525,-0.45 0,26.1 0.525,-0.525 -104.7,0 0.45,0.525 0,-26.1 -0.45,0.45"
       style="fill:#000000;fill-opacity:1;fill-rule:nonzero;stroke:none"
       id="path3885" />
    <path
       inkscape:connector-curvature="0"
       d="m 522.46184,409.43004 0,27.375 105.75,0 0,-27.375 -105.75,0 z m 105.22625,1.05 -0.525,-0.525 0,26.325 0.525,-0.525 -104.7,0 0.45,0.525 0,-26.325 -0.45,0.525"
       style="fill:#000000;fill-opacity:1;fill-rule:nonzero;stroke:none"
       id="path3887" />
    <path
       inkscape:connector-curvature="0"
       d="m 522.46184,435.75504 0,27.15 105.75,0 0,-27.15 -105.75,0 z m 105.22625,1.05 -0.525,-0.525 0,26.1 0.525,-0.45 -104.7,0 0.45,0.45 0,-26.1 -0.45,0.525"
       style="fill:#000000;fill-opacity:1;fill-rule:nonzero;stroke:none"
       id="path3889" />
    <path
       inkscape:connector-curvature="0"
       d="m 522.46184,461.93004 0,27.3 105.75,0 0,-27.3 -105.75,0 z m 105.22625,0.975 -0.525,-0.525 0,26.325 0.525,-0.45 -104.7,0 0.45,0.45 0,-26.325 -0.45,0.525"
       style="fill:#000000;fill-opacity:1;fill-rule:nonzero;stroke:none"
       id="path3891" />
    <path
       inkscape:connector-curvature="0"
       d="m 522.46184,488.25504 0,27.15 105.75,0 0,-27.15 -105.75,0 z m 105.22625,0.975 -0.525,-0.525 0,26.175 0.525,-0.525 -104.7,0 0.45,0.525 0,-26.175 -0.45,0.525"
       style="fill:#000000;fill-opacity:1;fill-rule:nonzero;stroke:none"
       id="path3893" />
    <path
       inkscape:connector-curvature="0"
       d="m 522.46184,514.35504 0,27.15 105.75,0 0,-27.15 -105.75,0 z m 105.22625,1.05 -0.525,-0.525 0,26.1 0.525,-0.45 -104.7,0 0.45,0.45 0,-26.1 -0.45,0.525"
       style="fill:#000000;fill-opacity:1;fill-rule:nonzero;stroke:none"
       id="path3895" />
    <path
       inkscape:connector-curvature="0"
       d="m 522.46184,540.53004 0,27.3 105.75,0 0,-27.3 -105.75,0 z m 105.22625,0.975 -0.525,-0.525 0,26.325 0.525,-0.525 -104.7,0 0.45,0.525 0,-26.325 -0.45,0.525"
       style="fill:#000000;fill-opacity:1;fill-rule:nonzero;stroke:none"
       id="path3897" />
    <path
       inkscape:connector-curvature="0"
       d="m 522.46184,566.78004 0,27.15 105.75,0 0,-27.15 -105.75,0 z m 105.22625,1.05 -0.525,-0.525 0,26.175 0.525,-0.525 -104.7,0 0.45,0.525 0,-26.175 -0.45,0.525"
       style="fill:#000000;fill-opacity:1;fill-rule:nonzero;stroke:none"
       id="path3899" />
    <g
       id="g3901"
       transform="matrix(0,1.25,1.25,0,470.48809,502.20504)">
      <path
         inkscape:connector-curvature="0"
         d="m 0,0 0,21.36 -0.42,0 L 0,21 l 0,15.42 -0.78,0 0,-15.84 0.36,0 L -0.78,21 -0.78,0 0,0 z m 2.82,35.34 -3.24,6.48 -3.24,-6.48"
         style="fill:#000000;fill-opacity:1;fill-rule:nonzero;stroke:none"
         id="path3903" />
    </g>
    <text
       id="text3905"
       x="446.11246"
       y="381.68005"
       style="font-size:15px">
      <tspan
         style="font-size:16.20000076px;font-variant:normal;font-weight:bold;font-stretch:normal;writing-mode:lr-tb;fill:#000000;fill-opacity:1;fill-rule:nonzero;stroke:none;font-family:Times New Roman;-inkscape-font-specification:TimesNewRomanPS-BoldMT"
         x="446.11246 458.71606 464.11066 473.11786 477.62146 483.01608"
         y="381.68005"
         sodipodi:role="line"
         id="tspan3907">K-bit</tspan>
      <tspan
         style="font-size:16.20000076px;font-variant:normal;font-weight:bold;font-stretch:normal;writing-mode:lr-tb;fill:#000000;fill-opacity:1;fill-rule:nonzero;stroke:none;font-family:Times New Roman;-inkscape-font-specification:TimesNewRomanPS-BoldMT"
         x="453.76212 463.66516"
         y="401.10547"
         sodipodi:role="line"
         id="tspan3909">PC</tspan>
    </text>
    <g
       id="g3911"
       transform="matrix(0,1.25,1.25,0,454.81309,501.83004)">
      <path
         inkscape:connector-curvature="0"
         d="m 0,0 c -3.48,0 -6.3,2.82 -6.3,6.3 0,3.48 2.82,6.24 6.3,6.24 3.42,0 6.24,-2.76 6.24,-6.24 C 6.24,2.82 3.42,0 0,0"
         style="fill:#000000;fill-opacity:1;fill-rule:evenodd;stroke:none"
         id="path3913" />
    </g>
    <g
       id="g3915"
       transform="matrix(0,1.25,1.25,0,454.36309,501.83004)">
      <path
         inkscape:connector-curvature="0"
         d="M 0,0 -0.66,0 -1.32,0.12 C -8.467,1.664 -8.472,11.506 -1.38,13.2 l 1.32,0.12 C 7.651,13.147 9.212,2.708 1.98,0.3 L 1.32,0.12 0.66,0 0,0 z M 0.54,0.84 1.14,0.9 1.68,1.02 C 7.776,3.017 6.939,11.698 0.6,12.48 L 0,12.54 -0.6,12.48 C -7.257,11.63 -7.799,2.457 -1.2,0.9 l 0.54,-0.06 0.6,-0.06"
         style="fill:#000000;fill-opacity:1;fill-rule:nonzero;stroke:none"
         id="path3917" />
    </g>
    <g
       id="g3919"
       transform="matrix(0,1.25,1.25,0,464.11309,409.80504)">
      <path
         inkscape:connector-curvature="0"
         d="m 0,0 61.92,-1.38 0,0.84 L 0,0.78 0,0 z m 60.78,-4.2 6.54,3.12 -6.42,3.36"
         style="fill:#000000;fill-opacity:1;fill-rule:nonzero;stroke:none"
         id="path3921" />
    </g>
    <path
       inkscape:connector-curvature="0"
       d="m 407.63809,502.20504 0,-0.975 40.425,0 0,0.975 -40.425,0 z m 0,-0.975 z m 39.075,-3.6 8.1,4.05 -8.1,4.05"
       style="fill:#000000;fill-opacity:1;fill-rule:nonzero;stroke:none"
       id="path3923" />
    <g
       id="g3925"
       transform="matrix(0,1.25,1.25,0,627.68809,499.65504)">
      <path
         inkscape:connector-curvature="0"
         d="m 0,0 0,17.16 -0.36,0 0.36,-0.42 0,11.34 -0.78,0 0,-11.76 0.42,0 -0.42,0.42 L -0.78,0 0,0 z M 2.88,27 -0.36,33.48 -3.6,27"
         style="fill:#000000;fill-opacity:1;fill-rule:nonzero;stroke:none"
         id="path3927" />
    </g>
    <text
       id="text3929"
       x="687.31244"
       y="503.78003"
       style="font-size:15px">
      <tspan
         style="font-size:16.20000076px;font-variant:normal;font-weight:bold;font-stretch:normal;writing-mode:lr-tb;fill:#000000;fill-opacity:1;fill-rule:nonzero;stroke:none;font-family:Times New Roman;-inkscape-font-specification:TimesNewRomanPS-BoldMT"
         x="687.31244 698.11621 702.61823 714.31299"
         y="503.78003"
         sodipodi:role="line"
         id="tspan3931">T/NT</tspan>
    </text>
    <text
       id="text3933"
       x="440.71283"
       y="532.8056"
       style="font-size:15px">
      <tspan
         style="font-size:16.20000076px;font-variant:normal;font-weight:normal;font-stretch:normal;writing-mode:lr-tb;fill:#000000;fill-opacity:1;fill-rule:nonzero;stroke:none;font-family:Times New Roman;-inkscape-font-specification:TimesNewRomanPSMT"
         x="440.71283 452.41086 464.10886"
         y="532.8056"
         sodipodi:role="line"
         id="tspan3935">XOR</tspan>
    </text>
    <text
       id="text3937"
       x="321.83722"
       y="462.98035"
       style="font-size:15px">
      <tspan
         style="font-size:16.20000076px;font-variant:normal;font-weight:bold;font-stretch:normal;writing-mode:lr-tb;fill:#000000;fill-opacity:1;fill-rule:nonzero;stroke:none;font-family:Times New Roman;-inkscape-font-specification:TimesNewRomanPS-BoldMT"
         x="321.83722 332.6394 345.23975"
         y="462.98035"
         sodipodi:role="line"
         id="tspan3939">BHR</tspan>
      <tspan
         style="font-size:16.20000076px;font-variant:normal;font-weight:bold;font-stretch:normal;writing-mode:lr-tb;fill:#000000;fill-opacity:1;fill-rule:nonzero;stroke:none;font-family:Times New Roman;-inkscape-font-specification:TimesNewRomanPS-BoldMT"
         x="551.41229 561.31213 573.9173"
         y="369.83035"
         sodipodi:role="line"
         id="tspan3941">PHT</tspan>
    </text>
  </g>
</svg>
