<?xml version="1.0" encoding="UTF-8" standalone="no"?>
<!-- Created with Inkscape (http://www.inkscape.org/) -->

<svg
   xmlns:dc="http://purl.org/dc/elements/1.1/"
   xmlns:cc="http://creativecommons.org/ns#"
   xmlns:rdf="http://www.w3.org/1999/02/22-rdf-syntax-ns#"
   xmlns:svg="http://www.w3.org/2000/svg"
   xmlns="http://www.w3.org/2000/svg"
   xmlns:sodipodi="http://sodipodi.sourceforge.net/DTD/sodipodi-0.dtd"
   xmlns:inkscape="http://www.inkscape.org/namespaces/inkscape"
   width="930.56549"
   height="506.22501"
   id="svg4105"
   version="1.1"
   inkscape:version="0.48.4 r9939"
   sodipodi:docname="New document 8">
  <defs
     id="defs4107">
    <clipPath
       id="clipPath4133"
       clipPathUnits="userSpaceOnUse">
      <path
         id="path4135"
         d="m 0,841.98 595.2,0 L 595.2,0 0,0 0,841.98 z"
         inkscape:connector-curvature="0" />
    </clipPath>
    <clipPath
       id="clipPath4127"
       clipPathUnits="userSpaceOnUse">
      <path
         id="path4129"
         clip-rule="evenodd"
         d="m 588.84,0.11053 -582.84,0 0,841.86 582.84,0 0,-841.86 z"
         inkscape:connector-curvature="0" />
    </clipPath>
  </defs>
  <sodipodi:namedview
     id="base"
     pagecolor="#ffffff"
     bordercolor="#666666"
     borderopacity="1.0"
     inkscape:pageopacity="0.0"
     inkscape:pageshadow="2"
     inkscape:zoom="0.7"
     inkscape:cx="423.04149"
     inkscape:cy="293.41538"
     inkscape:document-units="px"
     inkscape:current-layer="layer1"
     showgrid="false"
     fit-margin-top="10"
     fit-margin-left="10"
     fit-margin-right="10"
     fit-margin-bottom="10"
     inkscape:window-width="954"
     inkscape:window-height="1028"
     inkscape:window-x="0"
     inkscape:window-y="0"
     inkscape:window-maximized="0" />
  <metadata
     id="metadata4110">
    <rdf:RDF>
      <cc:Work
         rdf:about="">
        <dc:format>image/svg+xml</dc:format>
        <dc:type
           rdf:resource="http://purl.org/dc/dcmitype/StillImage" />
        <dc:title></dc:title>
      </cc:Work>
    </rdf:RDF>
  </metadata>
  <g
     inkscape:label="Layer 1"
     inkscape:groupmode="layer"
     id="layer1"
     transform="translate(120.77263,-170.91575)">
    <path
       inkscape:connector-curvature="0"
       d="m 237.82737,228.46575 0,286.425 1.35,0 0,-286.425 -1.35,0 z"
       style="fill:#000000;fill-opacity:1;fill-rule:nonzero;stroke:none"
       id="path4155" />
    <path
       inkscape:connector-curvature="0"
       d="m 44.02737,247.06575 0,1.35 704.625,0 0,-1.35 -704.625,0 z"
       style="fill:#000000;fill-opacity:1;fill-rule:nonzero;stroke:none"
       id="path4157" />
    <path
       inkscape:connector-curvature="0"
       d="m 44.02737,264.76575 0,1.35 704.625,0 0,-1.35 -704.625,0 z"
       style="fill:#000000;fill-opacity:1;fill-rule:nonzero;stroke:none"
       id="path4159" />
    <path
       inkscape:connector-curvature="0"
       d="m 44.02737,282.46575 0,1.35 704.625,0 0,-1.35 -704.625,0 z"
       style="fill:#000000;fill-opacity:1;fill-rule:nonzero;stroke:none"
       id="path4161" />
    <path
       inkscape:connector-curvature="0"
       d="m 44.02737,300.16575 0,1.35 704.625,0 0,-1.35 -704.625,0 z"
       style="fill:#000000;fill-opacity:1;fill-rule:nonzero;stroke:none"
       id="path4163" />
    <path
       inkscape:connector-curvature="0"
       d="m 44.02737,317.86575 0,1.35 704.625,0 0,-1.35 -704.625,0 z"
       style="fill:#000000;fill-opacity:1;fill-rule:nonzero;stroke:none"
       id="path4165" />
    <path
       inkscape:connector-curvature="0"
       d="m 44.02737,335.56575 0,1.35 704.625,0 0,-1.35 -704.625,0 z"
       style="fill:#000000;fill-opacity:1;fill-rule:nonzero;stroke:none"
       id="path4167" />
    <path
       inkscape:connector-curvature="0"
       d="m 44.02737,353.26575 0,1.35 704.625,0 0,-1.35 -704.625,0 z"
       style="fill:#000000;fill-opacity:1;fill-rule:nonzero;stroke:none"
       id="path4169" />
    <path
       inkscape:connector-curvature="0"
       d="m 44.02737,371.04075 0,1.35 704.625,0 0,-1.35 -704.625,0 z"
       style="fill:#000000;fill-opacity:1;fill-rule:nonzero;stroke:none"
       id="path4171" />
    <path
       inkscape:connector-curvature="0"
       d="m 44.02737,388.74075 0,1.35 704.625,0 0,-1.35 -704.625,0 z"
       style="fill:#000000;fill-opacity:1;fill-rule:nonzero;stroke:none"
       id="path4173" />
    <path
       inkscape:connector-curvature="0"
       d="m 44.02737,406.44075 0,1.35 704.625,0 0,-1.35 -704.625,0 z"
       style="fill:#000000;fill-opacity:1;fill-rule:nonzero;stroke:none"
       id="path4175" />
    <path
       inkscape:connector-curvature="0"
       d="m 44.02737,424.14075 0,1.35 704.625,0 0,-1.35 -704.625,0 z"
       style="fill:#000000;fill-opacity:1;fill-rule:nonzero;stroke:none"
       id="path4177" />
    <path
       inkscape:connector-curvature="0"
       d="m 44.02737,441.84075 0,1.35 704.625,0 0,-1.35 -704.625,0 z"
       style="fill:#000000;fill-opacity:1;fill-rule:nonzero;stroke:none"
       id="path4179" />
    <path
       inkscape:connector-curvature="0"
       d="m 44.02737,459.54075 0,1.35 704.625,0 0,-1.35 -704.625,0 z"
       style="fill:#000000;fill-opacity:1;fill-rule:nonzero;stroke:none"
       id="path4181" />
    <path
       inkscape:connector-curvature="0"
       d="m 44.02737,477.24075 0,1.35 704.625,0 0,-1.35 -704.625,0 z"
       style="fill:#000000;fill-opacity:1;fill-rule:nonzero;stroke:none"
       id="path4183" />
    <path
       inkscape:connector-curvature="0"
       d="m 44.02737,494.94075 0,1.35 704.625,0 0,-1.35 -704.625,0 z"
       style="fill:#000000;fill-opacity:1;fill-rule:nonzero;stroke:none"
       id="path4185" />
    <path
       inkscape:connector-curvature="0"
       d="m 44.02737,228.46575 0,286.425 3.075,0 0,-286.425 -3.075,0 z"
       style="fill:#000000;fill-opacity:1;fill-rule:nonzero;stroke:none"
       id="path4187" />
    <path
       inkscape:connector-curvature="0"
       d="m 745.65112,228.46575 0,286.425 3,0 0,-286.425 -3,0 z"
       style="fill:#000000;fill-opacity:1;fill-rule:nonzero;stroke:none"
       id="path4189" />
    <path
       inkscape:connector-curvature="0"
       d="m 44.02737,228.46575 0,3.075 704.625,0 0,-3.075 -704.625,0 z"
       style="fill:#000000;fill-opacity:1;fill-rule:nonzero;stroke:none"
       id="path4191" />
    <path
       inkscape:connector-curvature="0"
       d="m 44.02737,511.81575 0,3.075 704.625,0 0,-3.075 -704.625,0 z"
       style="fill:#000000;fill-opacity:1;fill-rule:nonzero;stroke:none"
       id="path4193" />
    <path
       inkscape:connector-curvature="0"
       d="m -86.47263,212.11575 0,-31.2 221.625,0 0,31.2 -221.625,0 z m 0,-31.2 z m 0.975,30.75 -0.45,-0.525 220.575,0 -0.525,0.525 0,-30.225 0.525,0.525 -220.575,0 0.45,-0.525"
       style="fill:#000000;fill-opacity:1;fill-rule:nonzero;stroke:none"
       id="path4195" />
    <text
       id="text4197"
       x="-76.198257"
       y="202.36575"
       style="font-size:15px">
      <tspan
         style="font-size:16.20000076px;font-variant:normal;font-weight:normal;font-stretch:normal;writing-mode:lr-tb;fill:#000000;fill-opacity:1;fill-rule:nonzero;stroke:none;font-family:Verdana;-inkscape-font-specification:Verdana"
         x="-76.198257 -66.421555 -55.105854 -49.398594 -39.557095 -33.846596 -28.139336 -22.428833 -12.765532 -6.3746371 2.0736632 12.336368 21.999662 32.100361 37.807625 42.254524 52.517223 60.965538 67.356422 74.281929 84.544617 92.992935 99.383827 103.83072 113.67222"
         y="202.36575"
         sodipodi:role="line"
         id="tspan4199">PC of fetched instruction</tspan>
    </text>
    <g
       id="g4201"
       transform="matrix(0,1.25,1.25,0,36.82737,297.54075)">
      <path
         inkscape:connector-curvature="0"
         d="m 0,0 23.7,-23.16 -11.34,0 0,-9.66 c 0,-24.48 -16.14,-44.4 -36.06,-44.4 l -36.78,0 0,23.16 36.78,0 c 6.3,0 11.34,9.54 11.34,21.24 l 0,9.66 -11.34,0 L 0,0"
         style="fill:#00cc99;fill-opacity:1;fill-rule:evenodd;stroke:none"
         id="path4203" />
    </g>
    <g
       id="g4205"
       transform="matrix(0,1.25,1.25,0,36.45237,297.91575)">
      <path
         inkscape:connector-curvature="0"
         d="m 0,0 -0.6,0 23.7,-23.16 0.3,0.72 -11.76,0 0,-10.08 0,0.06 0,-1.2 0,0.06 -0.06,-1.14 -0.06,-1.14 -0.06,-1.14 -0.12,-1.08 -0.12,-1.08 -0.3,-2.22 0,0.06 -0.42,-2.16 -0.48,-2.1 -0.54,-2.04 -0.66,-2.04 0,0.06 -0.72,-1.98 -0.78,-1.92 0,0.06 -0.84,-1.86 -0.96,-1.8 -0.96,-1.74 -1.08,-1.68 0,0.06 -1.14,-1.62 -1.14,-1.56 0,0.06 -1.26,-1.5 -1.32,-1.38 -1.32,-1.32 -1.44,-1.2 0.06,0 -1.5,-1.14 0.06,0 -1.5,-1.08 -1.56,-0.96 -0.78,-0.42 -0.78,-0.48 0,0.06 -0.84,-0.42 c -1.336,-0.79 -3.47,-1.458 -4.98,-1.92 l -0.9,-0.24 0.06,0 -0.9,-0.24 -0.9,-0.18 -0.9,-0.12 0.06,0 -0.96,-0.12 0.06,0 -0.96,-0.12 0.06,0 -0.96,-0.06 0.06,0 -0.96,-0.06 -37.68,0 0.42,-0.42 0,23.16 -0.42,-0.42 36.78,0 c 8.851,0.4 11.975,14.72 11.76,21.66 l 0,10.08 -11.76,0 0.3,-0.72 L 0,0 z m -24.96,-23.28 12.3,0 -0.36,0.42 0,-9.66 0,0.06 -0.06,-1.14 0,-1.08 0,0.06 -0.12,-1.08 c -0.027,-1.714 -0.423,-3.306 -0.72,-4.98 l -0.24,-0.96 0,0.06 -0.24,-0.96 -0.24,-0.84 -0.3,-0.9 0,0.06 -0.36,-0.84 -0.3,-0.78 -0.36,-0.78 -0.36,-0.72 -0.42,-0.72 0.06,0.06 -0.42,-0.72 0,0.06 -0.42,-0.66 -0.42,-0.54 -0.96,-1.08 0.06,0.06 -0.54,-0.48 0.06,0 -0.54,-0.42 0.06,0 -0.54,-0.36 0.06,0 -1.08,-0.6 0.06,0 -0.54,-0.24 0,0.06 -0.54,-0.24 0,0.06 -0.54,-0.18 0.06,0 -0.6,-0.06 0.06,0 -37.8,0 0,-23.94 37.2,-0.06 c 22.938,0.46 36.623,23.573 36.48,44.82 l 0,9.66 -0.42,-0.42 12.36,0 L -0.3,0.84"
         style="fill:#000000;fill-opacity:1;fill-rule:nonzero;stroke:none"
         id="path4207" />
    </g>
    <g
       id="g4209"
       transform="matrix(0,1.25,1.25,0,168.37737,602.41575)">
      <path
         inkscape:connector-curvature="0"
         d="m 0,0 c -10.74,0 -19.44,9.42 -19.44,21 0,11.64 8.7,21.06 19.44,21.06 C 10.68,42.06 19.38,32.64 19.38,21 19.38,9.42 10.68,0 0,0"
         style="fill:#00cc99;fill-opacity:1;fill-rule:evenodd;stroke:none"
         id="path4211" />
    </g>
    <g
       id="g4213"
       transform="matrix(0,1.25,1.25,0,167.85237,602.41575)">
      <path
         inkscape:connector-curvature="0"
         d="m 0,0 -1.02,0 -1.02,0.12 c -23.691,3.486 -23.681,39.174 0,42.66 L 0,42.9 C 24.65,41.835 26.872,5.097 3,0.24 L 1.98,0.12 1.02,0 0,0 z m 0.96,0.84 0.96,0.06 0.96,0.12 0.96,0.18 -0.06,0 0.96,0.24 1.8,0.6 -0.06,0 0.9,0.36 0.84,0.42 0.84,0.48 -0.06,0 0.84,0.48 0.78,0.54 0.72,0.6 0,-0.06 1.44,1.32 -0.06,-0.06 0.72,0.72 1.2,1.44 0.6,0.78 0.54,0.84 -0.06,0 0.54,0.84 0.42,0.84 0.84,1.8 0.36,0.96 -0.06,0 0.3,0.96 c 0.49,1.361 0.798,3.644 0.84,5.1 l 0.06,1.08 0,-0.06 -0.12,2.16 0,-0.06 -0.12,1.08 -0.36,2.04 0,-0.06 -0.3,1.02 -0.6,1.92 0,-0.06 -0.42,0.96 -0.42,0.9 0,-0.06 -0.42,0.9 -0.54,0.84 0.06,0 -0.54,0.84 0,-0.06 -0.6,0.84 0,-0.06 -0.6,0.78 -0.6,0.72 -0.72,0.66 0.06,0 -0.72,0.66 -1.44,1.2 -0.78,0.54 -0.84,0.48 0.06,0 -0.84,0.48 -0.84,0.42 0,-0.06 -0.9,0.42 0.06,0 -1.8,0.6 -0.96,0.18 0.06,0 -1.92,0.36 -0.96,0.06 -1.02,0 0.06,0 -1.02,0 0.06,0 -1.02,-0.06 -0.96,-0.18 0.06,0 -1.92,-0.36 0.06,0 -0.96,-0.3 0.06,0 -0.9,-0.3 -0.9,-0.42 0.06,0.06 -0.9,-0.48 0.06,0.06 -1.68,-0.96 0.06,0 -0.84,-0.54 0.06,0 -0.78,-0.6 -0.72,-0.6 -1.32,-1.32 -0.66,-0.72 -0.6,-0.78 0,0.06 -0.54,-0.84 0,0.06 -0.54,-0.84 -0.48,-0.84 -0.48,-0.9 0,0.06 -0.42,-0.9 -0.36,-0.96 0,0.06 -0.36,-0.96 -0.3,-0.96 -0.24,-1.02 0,0.06 -0.24,-1.02 -0.18,-1.02 -0.12,-1.08 0,0.06 -0.06,-1.08 0,-1.08 0,0.06 0,-1.14 0,0.06 0.06,-1.08 c 0.14,-1.625 0.577,-3.428 1.08,-4.98 l 0.36,-0.96 -0.06,0 0.42,-0.9 c 0.903,-1.94 2.196,-4.127 3.72,-5.64 l 0.66,-0.72 0,0.06 0.66,-0.66 0.72,-0.66 0,0.06 0.78,-0.6 -0.06,0 0.84,-0.54 -0.06,0 1.68,-0.96 -0.06,0 0.9,-0.42 -0.06,0 0.9,-0.36 0.9,-0.3 -0.06,0 0.96,-0.3 -0.06,0 0.96,-0.24 0.96,-0.18 -0.06,0 0.96,-0.12 1.02,-0.06 -0.06,0 1.02,-0.06 -0.06,0"
         style="fill:#000000;fill-opacity:1;fill-rule:nonzero;stroke:none"
         id="path4215" />
    </g>
    <text
       id="text4217"
       x="181.42674"
       y="615.09076"
       style="font-size:15px">
      <tspan
         style="font-size:32.40000153px;font-variant:normal;font-weight:normal;font-stretch:normal;writing-mode:lr-tb;fill:#000000;fill-opacity:1;fill-rule:nonzero;stroke:none;font-family:Verdana;-inkscape-font-specification:Verdana"
         x="181.42674"
         y="615.09076"
         id="tspan4219">=</tspan>
    </text>
    <g
       id="g4221"
       transform="matrix(0,1.25,1.25,0,-85.94763,197.11575)">
      <path
         inkscape:connector-curvature="0"
         d="m 0,0 0,-19.44 -0.42,0.42 324.66,0 -0.42,-0.42 0,217.5 0.78,0 0,-217.92 -325.38,0 L -0.78,0 0,0 z m 321,196.98 3.24,6.48 3.24,-6.48"
         style="fill:#000000;fill-opacity:1;fill-rule:nonzero;stroke:none"
         id="path4223" />
    </g>
    <path
       inkscape:connector-curvature="0"
       d="m 195.15237,513.31575 0,58.05 -0.975,0 0,-58.05 0.975,0 z m 3.525,56.7 -4.05,8.1 -4.05,-8.1"
       style="fill:#000000;fill-opacity:1;fill-rule:nonzero;stroke:none"
       id="path4225" />
    <path
       inkscape:connector-curvature="0"
       d="m 220.95237,602.86575 0,-0.97503 142.35,0 0,0.97503 -142.35,0 z m 0,-0.975 z m 141,-3.525 8.1,4.05 -8.1,4.05"
       style="fill:#000000;fill-opacity:1;fill-rule:nonzero;stroke:none"
       id="path4227" />
    <text
       id="text4229"
       x="169.35175"
       y="213.16576"
       style="font-size:15px">
      <tspan
         style="font-size:18.89999962px;font-variant:normal;font-weight:normal;font-stretch:normal;writing-mode:lr-tb;fill:#000000;fill-opacity:1;fill-rule:nonzero;stroke:none;font-family:Verdana;-inkscape-font-specification:Verdana"
         x="169.35175 182.26801 192.10356 201.93912 213.40009 223.23564 228.40291 239.75046 247.18571 252.35298 263.38113 274.63419 281.24164 286.40891 297.86984 309.33081 320.50827 332.46063 432.43408 443.81943 451.87839 463.13147 474.89481 480.06207 489.89761 497.33289 508.58594 520.3493 527.1817 534.61694 545.96448 554.02344 565.7868 577.03986 584.4751 591.08252 602.43011 614.19348 625.95685 634.01581 645.26886 655.10443"
         y="213.16576"
         sodipodi:role="line"
         id="tspan4231">Associative lookupPredicted target address</tspan>
    </text>
    <text
       id="text4233"
       x="248.25174"
       y="574.74072"
       style="font-size:15px">
      <tspan
         style="font-size:16.20000076px;font-variant:normal;font-weight:normal;font-stretch:normal;writing-mode:lr-tb;fill:#000000;fill-opacity:1;fill-rule:nonzero;stroke:none;font-family:Verdana;-inkscape-font-specification:Verdana"
         x="248.25174 260.38229 269.98404 275.8938 281.56381 286.01556 296.28311 304.73627 311.13205 318.06241 328.32996 336.78311 343.17889 347.63065 357.47699 367.74457 373.41455 377.86633 386.31949 391.98947 402.25705 412.10339 418.49918 424.16916 434.27472 441.20508 450.87323 460.97879 465.43057 473.88373 480.27948 489.94763 500.05319"
         y="574.74072"
         sodipodi:role="line"
         id="tspan4235">No, instruction is not predicted</tspan>
      <tspan
         style="font-size:16.20000076px;font-variant:normal;font-weight:normal;font-stretch:normal;writing-mode:lr-tb;fill:#000000;fill-opacity:1;fill-rule:nonzero;stroke:none;font-family:Verdana;-inkscape-font-specification:Verdana"
         x="248.25174 256.49753 266.32285 272.03009 282.13727 291.80707 297.51431 307.26511 312.97235 323.07953 329.68265 339.43344 349.70264 358.15741 368.42657 374.33795 380.0452 390.1524 397.08438 406.93237 415.38715 425.05692 434.72668 444.83389 450.3905 460.65967 470.50763 477.43964 493.2168 502.96759 507.42096 511.87436"
         y="594.1662"
         sodipodi:role="line"
         id="tspan4237">To be a branch, proceed normally</tspan>
      <tspan
         style="font-size:16.20000076px;font-variant:normal;font-weight:normal;font-stretch:normal;writing-mode:lr-tb;fill:#000000;fill-opacity:1;fill-rule:nonzero;stroke:none;font-family:Verdana;-inkscape-font-specification:Verdana"
         x="213.1512 222.07254 231.75204 240.20844 246.12144 251.75418 256.20917 266.47998 274.93637 281.33539 288.26898 298.53976 306.99619 313.39517 317.85019 327.69977 337.97058 343.60333 348.05832 356.51471 362.14746 371.89987 377.68164 387.79044 394.39355 404.14597 414.41678 422.87317 433.14395 439.05698"
         y="639.46625"
         sodipodi:role="line"
         id="tspan4239">Yes, instruction is a branch,</tspan>
      <tspan
         style="font-size:16.20000076px;font-variant:normal;font-weight:normal;font-stretch:normal;writing-mode:lr-tb;fill:#000000;fill-opacity:1;fill-rule:nonzero;stroke:none;font-family:Verdana;-inkscape-font-specification:Verdana"
         x="213.1512 222.93275 234.25333 239.93628 248.38943 258.65701 268.50336 278.77094 283.22269 293.32825 299.0112 309.11676 318.78491 324.46786 334.73544 343.1886 352.85675 362.96231 368.64529 378.39444 386.8476 392.53055 402.79813 412.46628 422.06964 428.46539 434.14838 443.92993"
         y="658.89166"
         sodipodi:role="line"
         id="tspan4241">PC should be used as next PC</tspan>
    </text>
    <path
       inkscape:connector-curvature="0"
       d="m 195.15237,626.64075 0,33.75 -0.975,0 0,-33.75 0.975,0 z m 3.525,32.4 -4.05,8.1 -4.05,-8.1"
       style="fill:#000000;fill-opacity:1;fill-rule:nonzero;stroke:none"
       id="path4243" />
    <text
       id="text4245"
       x="-111.29825"
       y="342.69073"
       style="font-size:15px">
      <tspan
         style="font-size:18.89999962px;font-variant:normal;font-weight:normal;font-stretch:normal;writing-mode:lr-tb;fill:#000000;fill-opacity:1;fill-rule:nonzero;stroke:none;font-family:Verdana;-inkscape-font-specification:Verdana"
         x="-111.29825 -97.478569 -87.64679 -76.397514 -69.752266 -64.588791 -53.131607 -37.686527 -26.437248 -16.605467 -9.1739883 -2.5287473 9.2308292 14.394308 21.825787"
         y="342.69073"
         sodipodi:role="line"
         id="tspan4247">Use lowest bits</tspan>
      <tspan
         style="font-size:18.89999962px;font-variant:normal;font-weight:normal;font-stretch:normal;writing-mode:lr-tb;fill:#000000;fill-opacity:1;fill-rule:nonzero;stroke:none;font-family:Verdana;-inkscape-font-specification:Verdana"
         x="-111.29825 -96.433403 -89.790047 -83.331917 -75.894768 -63.940517 -52.68557 -46.002529 -34.61528"
         y="365.34052"
         sodipodi:role="line"
         id="tspan4249">Of the PC</tspan>
    </text>
    <text
       id="text4251"
       x="572.70172"
       y="542.34076"
       style="font-size:15px">
      <tspan
         style="font-size:16.20000076px;font-variant:normal;font-weight:normal;font-stretch:normal;writing-mode:lr-tb;fill:#000000;fill-opacity:1;fill-rule:nonzero;stroke:none;font-family:Verdana;-inkscape-font-specification:Verdana"
         x="572.70172 584.81775 594.47131 604.12488 614.21588 619.87451 629.60913 634.04626 642.48486 652.31665 657.97534 666.41388 676.24567 692.00665 701.66022 707.14227 716.44598 726.20325 730.64044 735.07758 745.16858 749.60571 755.98694 765.57568 771.23438 781.32538 785.76251 792.14374"
         y="542.34076"
         sodipodi:role="line"
         id="tspan4253">Need also some validity bits</tspan>
    </text>
  </g>
</svg>
