<?xml version="1.0" encoding="UTF-8" standalone="no"?>
<!-- Created with Inkscape (http://www.inkscape.org/) -->

<svg
   xmlns:dc="http://purl.org/dc/elements/1.1/"
   xmlns:cc="http://creativecommons.org/ns#"
   xmlns:rdf="http://www.w3.org/1999/02/22-rdf-syntax-ns#"
   xmlns:svg="http://www.w3.org/2000/svg"
   xmlns="http://www.w3.org/2000/svg"
   xmlns:sodipodi="http://sodipodi.sourceforge.net/DTD/sodipodi-0.dtd"
   xmlns:inkscape="http://www.inkscape.org/namespaces/inkscape"
   width="408.875"
   height="317.8429"
   id="svg4403"
   version="1.1"
   inkscape:version="0.48.4 r9939"
   sodipodi:docname="New document 11">
  <defs
     id="defs4405">
    <clipPath
       id="clipPath4431"
       clipPathUnits="userSpaceOnUse">
      <path
         id="path4433"
         d="m 0,841.98 595.2,0 L 595.2,0 0,0 0,841.98 z"
         inkscape:connector-curvature="0" />
    </clipPath>
    <clipPath
       id="clipPath4425"
       clipPathUnits="userSpaceOnUse">
      <path
         id="path4427"
         clip-rule="evenodd"
         d="m 588.84,0.11053 -582.84,0 0,841.86 582.84,0 0,-841.86 z"
         inkscape:connector-curvature="0" />
    </clipPath>
  </defs>
  <sodipodi:namedview
     id="base"
     pagecolor="#ffffff"
     bordercolor="#666666"
     borderopacity="1.0"
     inkscape:pageopacity="0.0"
     inkscape:pageshadow="2"
     inkscape:zoom="1"
     inkscape:cx="259.3834"
     inkscape:cy="133.37783"
     inkscape:document-units="px"
     inkscape:current-layer="layer1"
     showgrid="false"
     fit-margin-top="10"
     fit-margin-left="10"
     fit-margin-right="10"
     fit-margin-bottom="10"
     inkscape:window-width="954"
     inkscape:window-height="1028"
     inkscape:window-x="0"
     inkscape:window-y="0"
     inkscape:window-maximized="0" />
  <metadata
     id="metadata4408">
    <rdf:RDF>
      <cc:Work
         rdf:about="">
        <dc:format>image/svg+xml</dc:format>
        <dc:type
           rdf:resource="http://purl.org/dc/dcmitype/StillImage" />
        <dc:title></dc:title>
      </cc:Work>
    </rdf:RDF>
  </metadata>
  <g
     inkscape:label="Layer 1"
     inkscape:groupmode="layer"
     id="layer1"
     transform="translate(-252.87023,-241.39794)">
    <path
       inkscape:connector-curvature="0"
       d="m 439.94523,304.66933 0,22.04999 85.35,0 0,-22.04999 -85.35,0 z m 84.82375,0.97499 -0.52375,-0.525 0,21.075 0.52375,-0.45 -84.3,0 0.52625,0.45 0,-21.075 -0.52625,0.525"
       style="fill:#000000;fill-opacity:1;fill-rule:nonzero;stroke:none"
       id="path4481" />
    <path
       inkscape:connector-curvature="0"
       d="m 439.94523,325.74432 0,22.05 85.35,0 0,-22.05 -85.35,0 z m 84.82375,0.975 -0.52375,-0.525 0,21.075 0.52375,-0.45 -84.3,0 0.52625,0.45 0,-21.075 -0.52625,0.525"
       style="fill:#000000;fill-opacity:1;fill-rule:nonzero;stroke:none"
       id="path4483" />
    <path
       inkscape:connector-curvature="0"
       d="m 439.94523,346.81932 0,22.05 85.35,0 0,-22.05 -85.35,0 z m 84.82375,0.975 -0.52375,-0.525 0,21.075 0.52375,-0.45 -84.3,0 0.52625,0.45 0,-21.075 -0.52625,0.525"
       style="fill:#000000;fill-opacity:1;fill-rule:nonzero;stroke:none"
       id="path4485" />
    <path
       inkscape:connector-curvature="0"
       d="m 439.94523,367.89432 0,22.05 85.35,0 0,-22.05 -85.35,0 z m 84.82375,0.975 -0.52375,-0.525 0,21.075 0.52375,-0.45 -84.3,0 0.52625,0.45 0,-21.075 -0.52625,0.525"
       style="fill:#000000;fill-opacity:1;fill-rule:nonzero;stroke:none"
       id="path4487" />
    <path
       inkscape:connector-curvature="0"
       d="m 439.94523,388.96933 0,22.04999 85.35,0 0,-22.04999 -85.35,0 z m 84.82375,0.97499 -0.52375,-0.525 0,21.075 0.52375,-0.45 -84.3,0 0.52625,0.45 0,-21.075 -0.52625,0.525"
       style="fill:#000000;fill-opacity:1;fill-rule:nonzero;stroke:none"
       id="path4489" />
    <path
       inkscape:connector-curvature="0"
       d="m 439.94523,410.04432 0,22.05 85.35,0 0,-22.05 -85.35,0 z m 84.82375,0.975 -0.52375,-0.525 0,21.075 0.52375,-0.45 -84.3,0 0.52625,0.45 0,-21.075 -0.52625,0.525"
       style="fill:#000000;fill-opacity:1;fill-rule:nonzero;stroke:none"
       id="path4491" />
    <path
       inkscape:connector-curvature="0"
       d="m 524.24523,304.66933 0,22.04999 85.35,0 0,-22.04999 -85.35,0 z m 84.82375,0.97499 -0.44875,-0.525 0,21.075 0.44875,-0.45 -84.3,0 0.525,0.45 0,-21.075 -0.525,0.525"
       style="fill:#000000;fill-opacity:1;fill-rule:nonzero;stroke:none"
       id="path4493" />
    <path
       inkscape:connector-curvature="0"
       d="m 524.24523,325.74432 0,22.05 85.35,0 0,-22.05 -85.35,0 z m 84.82375,0.975 -0.44875,-0.525 0,21.075 0.44875,-0.45 -84.3,0 0.525,0.45 0,-21.075 -0.525,0.525"
       style="fill:#000000;fill-opacity:1;fill-rule:nonzero;stroke:none"
       id="path4495" />
    <path
       inkscape:connector-curvature="0"
       d="m 524.24523,346.81932 0,22.05 85.35,0 0,-22.05 -85.35,0 z m 84.82375,0.975 -0.44875,-0.525 0,21.075 0.44875,-0.45 -84.3,0 0.525,0.45 0,-21.075 -0.525,0.525"
       style="fill:#000000;fill-opacity:1;fill-rule:nonzero;stroke:none"
       id="path4497" />
    <path
       inkscape:connector-curvature="0"
       d="m 524.24523,367.89432 0,22.05 85.35,0 0,-22.05 -85.35,0 z m 84.82375,0.975 -0.44875,-0.525 0,21.075 0.44875,-0.45 -84.3,0 0.525,0.45 0,-21.075 -0.525,0.525"
       style="fill:#000000;fill-opacity:1;fill-rule:nonzero;stroke:none"
       id="path4499" />
    <path
       inkscape:connector-curvature="0"
       d="m 524.24523,388.96933 0,22.04999 85.35,0 0,-22.04999 -85.35,0 z m 84.82375,0.97499 -0.44875,-0.525 0,21.075 0.44875,-0.45 -84.3,0 0.525,0.45 0,-21.075 -0.525,0.525"
       style="fill:#000000;fill-opacity:1;fill-rule:nonzero;stroke:none"
       id="path4501" />
    <path
       inkscape:connector-curvature="0"
       d="m 524.24523,410.04432 0,22.05 85.35,0 0,-22.05 -85.35,0 z m 84.82375,0.975 -0.44875,-0.525 0,21.075 0.44875,-0.45 -84.3,0 0.525,0.45 0,-21.075 -0.525,0.525"
       style="fill:#000000;fill-opacity:1;fill-rule:nonzero;stroke:none"
       id="path4503" />
    <path
       inkscape:connector-curvature="0"
       d="m 608.62023,304.66933 0,22.04999 43.125,0 0,-22.04999 -43.125,0 z m 42.675,0.97499 -0.52625,-0.525 0,21.075 0.52625,-0.45 -42.22625,0 0.52625,0.45 0,-21.075 -0.52625,0.525"
       style="fill:#000000;fill-opacity:1;fill-rule:nonzero;stroke:none"
       id="path4505" />
    <path
       inkscape:connector-curvature="0"
       d="m 608.62023,325.74432 0,22.05 43.125,0 0,-22.05 -43.125,0 z m 42.675,0.975 -0.52625,-0.525 0,21.075 0.52625,-0.45 -42.22625,0 0.52625,0.45 0,-21.075 -0.52625,0.525"
       style="fill:#000000;fill-opacity:1;fill-rule:nonzero;stroke:none"
       id="path4507" />
    <path
       inkscape:connector-curvature="0"
       d="m 608.62023,346.81932 0,22.05 43.125,0 0,-22.05 -43.125,0 z m 42.675,0.975 -0.52625,-0.525 0,21.075 0.52625,-0.45 -42.22625,0 0.52625,0.45 0,-21.075 -0.52625,0.525"
       style="fill:#000000;fill-opacity:1;fill-rule:nonzero;stroke:none"
       id="path4509" />
    <path
       inkscape:connector-curvature="0"
       d="m 608.62023,367.89432 0,22.05 43.125,0 0,-22.05 -43.125,0 z m 42.675,0.975 -0.52625,-0.525 0,21.075 0.52625,-0.45 -42.22625,0 0.52625,0.45 0,-21.075 -0.52625,0.525"
       style="fill:#000000;fill-opacity:1;fill-rule:nonzero;stroke:none"
       id="path4511" />
    <text
       id="text4513"
       x="611.91962"
       y="382.81931"
       style="font-size:15px">
      <tspan
         style="font-size:10.80000019px;font-variant:normal;font-weight:bold;font-stretch:normal;writing-mode:lr-tb;fill:#000000;fill-opacity:1;fill-rule:nonzero;stroke:none;font-family:Times New Roman;-inkscape-font-specification:TimesNewRomanPS-BoldMT"
         x="611.91962 619.12323 622.7196 629.92322 633.51959 641.3172"
         y="382.81931"
         sodipodi:role="line"
         id="tspan4515">T-T-NT</tspan>
    </text>
    <path
       inkscape:connector-curvature="0"
       d="m 608.62023,388.96933 0,22.04999 43.125,0 0,-22.04999 -43.125,0 z m 42.675,0.97499 -0.52625,-0.525 0,21.075 0.52625,-0.45 -42.22625,0 0.52625,0.45 0,-21.075 -0.52625,0.525"
       style="fill:#000000;fill-opacity:1;fill-rule:nonzero;stroke:none"
       id="path4517" />
    <path
       inkscape:connector-curvature="0"
       d="m 608.62023,410.04432 0,22.05 43.125,0 0,-22.05 -43.125,0 z m 42.675,0.975 -0.52625,-0.525 0,21.075 0.52625,-0.45 -42.22625,0 0.52625,0.45 0,-21.075 -0.52625,0.525"
       style="fill:#000000;fill-opacity:1;fill-rule:nonzero;stroke:none"
       id="path4519" />
    <path
       inkscape:connector-curvature="0"
       d="m 262.87023,270.91932 0,22.125 85.35,0 0,-22.125 -85.35,0 z m 84.825,1.05 -0.52625,-0.525 0,21.075 0.52625,-0.525 -84.3,0 0.45,0.525 0,-21.075 -0.45,0.525"
       style="fill:#000000;fill-opacity:1;fill-rule:nonzero;stroke:none"
       id="path4521" />
    <path
       inkscape:connector-curvature="0"
       d="m 347.16898,270.91932 0,22.125 85.35,0 0,-22.125 -85.35,0 z m 84.82625,1.05 -0.45125,-0.525 0,21.075 0.45125,-0.525 -84.3,0 0.525,0.525 0,-21.075 -0.525,0.525"
       style="fill:#000000;fill-opacity:1;fill-rule:nonzero;stroke:none"
       id="path4523" />
    <text
       id="text4525"
       x="337.79459"
       y="262.36932"
       style="font-size:15px">
      <tspan
         style="font-size:16.20000076px;font-variant:normal;font-weight:normal;font-stretch:normal;writing-mode:lr-tb;fill:#000000;fill-opacity:1;fill-rule:nonzero;stroke:none;font-family:Times New Roman;-inkscape-font-specification:TimesNewRomanPSMT"
         x="337.79459 346.79208"
         y="262.36932"
         sodipodi:role="line"
         id="tspan4527">PC</tspan>
      <tspan
         style="font-size:16.20000076px;font-variant:normal;font-weight:normal;font-stretch:normal;writing-mode:lr-tb;fill:#000000;fill-opacity:1;fill-rule:nonzero;stroke:none;font-family:Times New Roman;-inkscape-font-specification:TimesNewRomanPSMT"
         x="470.62003 479.39719 486.5997 546.52515 555.30231 562.50153 567.60132 575.70782 582.9071 614.63477 623.63226 628.14233 635.34161"
         y="300.31943"
         sodipodi:role="line"
         id="tspan4529">TagTargetStat</tspan>
      <tspan
         style="font-size:16.20000076px;font-variant:normal;font-weight:normal;font-stretch:normal;writing-mode:lr-tb;fill:#000000;fill-opacity:1;fill-rule:nonzero;stroke:none;font-family:Times New Roman;-inkscape-font-specification:TimesNewRomanPSMT"
         x="614.62018"
         y="319.74487"
         id="tspan4531">.</tspan>
    </text>
    <g
       id="g4533"
       transform="matrix(0,1.25,1.25,0,398.32023,486.39433)">
      <path
         inkscape:connector-curvature="0"
         d="m 0,0 c -7.44,0 -13.5,7.5 -13.5,16.86 0,9.3 6.06,16.86 13.5,16.86 7.44,0 13.5,-7.56 13.5,-16.86 C 13.5,7.5 7.44,0 0,0"
         style="fill:#ffffff;fill-opacity:1;fill-rule:evenodd;stroke:none"
         id="path4535" />
    </g>
    <g
       id="g4537"
       transform="matrix(0,1.25,1.25,0,397.79398,486.39433)">
      <path
         inkscape:connector-curvature="0"
         d="m 0,0 -0.72,0 -0.72,0.06 c -16.556,2.95 -16.55,31.475 0,34.38 L 0,34.56 C 17.514,33.482 18.629,4.054 2.16,0.18 L 1.44,0.06 0.72,0 0,0 z M 0.66,0.84 1.98,0.96 C 17.487,4.772 16.426,31.922 0.66,33.72 l -1.32,0 C -16.852,31.791 -17.266,3.695 -1.32,0.9 L 0,0.78"
         style="fill:#000000;fill-opacity:1;fill-rule:nonzero;stroke:none"
         id="path4539" />
    </g>
    <text
       id="text4541"
       x="414.7446"
       y="492.24432"
       style="font-size:15px">
      <tspan
         style="font-size:16.20000076px;font-variant:normal;font-weight:bold;font-stretch:normal;writing-mode:lr-tb;fill:#000000;fill-opacity:1;fill-rule:nonzero;stroke:none;font-family:Times New Roman;-inkscape-font-specification:TimesNewRomanPS-BoldMT"
         x="414.7446"
         y="492.24432"
         id="tspan4543">=</tspan>
    </text>
    <g
       id="g4545"
       transform="matrix(0,1.25,1.25,0,389.24523,292.51932)">
      <path
         inkscape:connector-curvature="0"
         d="m 0,0 69.48,0 0,35.46 -0.78,0 0,-35.1 0.36,0.42 L 0,0.78 0,0 z m 72.3,34.38 -3.24,6.48 -3.24,-6.48"
         style="fill:#000000;fill-opacity:1;fill-rule:nonzero;stroke:none"
         id="path4547" />
    </g>
    <g
       id="g4549"
       transform="matrix(0,1.25,1.25,0,483.07023,431.56932)">
      <path
         inkscape:connector-curvature="0"
         d="m 0,0 44.22,0 0,-28.68 -0.78,0 0,28.26 L 43.8,-0.78 0,-0.78 0,0 z m 47.04,-27.6 -3.24,-6.48 -3.18,6.48"
         style="fill:#000000;fill-opacity:1;fill-rule:nonzero;stroke:none"
         id="path4551" />
    </g>
    <g
       id="g4553"
       transform="matrix(0,1.25,1.25,0,305.02023,292.44432)">
      <path
         inkscape:connector-curvature="0"
         d="m 0,0 155.52,0 0,69.24 -0.78,0 0,-68.88 0.36,0.42 L 0,0.78 0,0 z m 158.34,68.16 -3.24,6.48 -3.18,-6.48"
         style="fill:#000000;fill-opacity:1;fill-rule:nonzero;stroke:none"
         id="path4555" />
    </g>
    <path
       inkscape:connector-curvature="0"
       d="m 419.84398,503.26933 0,18.525 -0.97496,0 0,-18.525 0.97496,0 z m 3.6,17.175 -4.04875,8.1 -4.05,-8.1"
       style="fill:#000000;fill-opacity:1;fill-rule:nonzero;stroke:none"
       id="path4557" />
    <text
       id="text4559"
       x="399.7446"
       y="549.01935"
       style="font-size:15px">
      <tspan
         style="font-size:16.20000076px;font-variant:normal;font-weight:normal;font-stretch:normal;writing-mode:lr-tb;fill:#000000;fill-opacity:1;fill-rule:nonzero;stroke:none;font-family:Times New Roman;-inkscape-font-specification:TimesNewRomanPSMT"
         x="399.7446 408.75342 414.14966 421.34406 427.64749 434.84192 442.94354"
         y="549.01935"
         sodipodi:role="line"
         id="tspan4561">Present</tspan>
    </text>
    <path
       inkscape:connector-curvature="0"
       d="m 567.44523,431.56932 0,73.35001 -1.05004,0 0,-73.35001 1.05004,0 z m 3.525,72 -4.05,8.10001 -4.05,-8.10001"
       style="fill:#000000;fill-opacity:1;fill-rule:nonzero;stroke:none"
       id="path4563" />
    <path
       inkscape:connector-curvature="0"
       d="m 630.67023,431.56932 0,90.22501 -0.97504,0 0,-90.22501 0.97504,0 z m 3.52375,88.87501 -4.05,8.1 -4.05,-8.1"
       style="fill:#000000;fill-opacity:1;fill-rule:nonzero;stroke:none"
       id="path4565" />
    <text
       id="text4567"
       x="546.51959"
       y="528.76935"
       style="font-size:15px">
      <tspan
         style="font-size:16.20000076px;font-variant:normal;font-weight:normal;font-stretch:normal;writing-mode:lr-tb;fill:#000000;fill-opacity:1;fill-rule:nonzero;stroke:none;font-family:Times New Roman;-inkscape-font-specification:TimesNewRomanPSMT"
         x="546.51959 555.29675 562.49927 567.59906 575.69904 582.90155 587.40356"
         y="528.76935"
         sodipodi:role="line"
         id="tspan4569">Target</tspan>
      <tspan
         style="font-size:16.20000076px;font-variant:normal;font-weight:normal;font-stretch:normal;writing-mode:lr-tb;fill:#000000;fill-opacity:1;fill-rule:nonzero;stroke:none;font-family:Times New Roman;-inkscape-font-specification:TimesNewRomanPSMT"
         x="540.37006 552.06812 560.16974 568.27136 573.66754 580.862 587.16541"
         y="548.19476"
         sodipodi:role="line"
         id="tspan4571">Address</tspan>
      <tspan
         style="font-size:16.20000076px;font-variant:normal;font-weight:normal;font-stretch:normal;writing-mode:lr-tb;fill:#000000;fill-opacity:1;fill-rule:nonzero;stroke:none;font-family:Times New Roman;-inkscape-font-specification:TimesNewRomanPSMT"
         x="612.14581 622.04559 626.55084 638.24884"
         y="549.01935"
         sodipodi:role="line"
         id="tspan4573">T/NT</tspan>
    </text>
  </g>
</svg>
