<?xml version="1.0" encoding="UTF-8" standalone="no"?>
<!-- Created with Inkscape (http://www.inkscape.org/) -->

<svg
   xmlns:dc="http://purl.org/dc/elements/1.1/"
   xmlns:cc="http://creativecommons.org/ns#"
   xmlns:rdf="http://www.w3.org/1999/02/22-rdf-syntax-ns#"
   xmlns:svg="http://www.w3.org/2000/svg"
   xmlns="http://www.w3.org/2000/svg"
   xmlns:sodipodi="http://sodipodi.sourceforge.net/DTD/sodipodi-0.dtd"
   xmlns:inkscape="http://www.inkscape.org/namespaces/inkscape"
   width="772.92499"
   height="391.64999"
   id="svg6406"
   version="1.1"
   inkscape:version="0.48.4 r9939"
   sodipodi:docname="New document 21">
  <defs
     id="defs6408">
    <clipPath
       id="clipPath6434"
       clipPathUnits="userSpaceOnUse">
      <path
         id="path6436"
         d="m 0,841.98 595.2,0 L 595.2,0 0,0 0,841.98 z"
         inkscape:connector-curvature="0" />
    </clipPath>
    <clipPath
       id="clipPath6428"
       clipPathUnits="userSpaceOnUse">
      <path
         id="path6430"
         clip-rule="evenodd"
         d="m 567.48,61.011 -540,0 0,720 540,0 0,-720 z"
         inkscape:connector-curvature="0" />
    </clipPath>
  </defs>
  <sodipodi:namedview
     id="base"
     pagecolor="#ffffff"
     bordercolor="#666666"
     borderopacity="1.0"
     inkscape:pageopacity="0.0"
     inkscape:pageshadow="2"
     inkscape:zoom="0.98994949"
     inkscape:cx="416.99021"
     inkscape:cy="318.21993"
     inkscape:document-units="px"
     inkscape:current-layer="layer1"
     showgrid="false"
     fit-margin-top="10"
     fit-margin-left="10"
     fit-margin-right="10"
     fit-margin-bottom="10"
     inkscape:window-width="954"
     inkscape:window-height="1028"
     inkscape:window-x="0"
     inkscape:window-y="0"
     inkscape:window-maximized="0" />
  <metadata
     id="metadata6411">
    <rdf:RDF>
      <cc:Work
         rdf:about="">
        <dc:format>image/svg+xml</dc:format>
        <dc:type
           rdf:resource="http://purl.org/dc/dcmitype/StillImage" />
        <dc:title></dc:title>
      </cc:Work>
    </rdf:RDF>
  </metadata>
  <g
     inkscape:label="Layer 1"
     inkscape:groupmode="layer"
     id="layer1"
     transform="translate(0.48571,-180.9729)">
    <path
       inkscape:connector-curvature="0"
       d="m 9.51429,367.6229 0,-81.975 79.2,0 0,81.975 -79.2,0 z m 0,-81.975 z m 2.475,80.7 -1.275,-1.2 76.725,0 -1.2,1.2 0,-79.5 1.2,1.275 -76.725,0 1.275,-1.275"
       style="fill:#000000;fill-opacity:1;fill-rule:nonzero;stroke:none"
       id="path6446" />
    <text
       id="text6448"
       x="39.438663"
       y="335.74789"
       style="font-size:15px">
      <tspan
         style="font-size:24.97499847px;font-variant:normal;font-weight:normal;font-stretch:normal;writing-mode:lr-tb;fill:#56127a;fill-opacity:1;fill-rule:nonzero;stroke:none;font-family:Verdana;-inkscape-font-specification:Verdana"
         x="39.438663 49.940655 133.94905 144.45105"
         y="335.74789"
         sodipodi:role="line"
         id="tspan6450">IFID</tspan>
    </text>
    <path
       inkscape:connector-curvature="0"
       d="m 88.63929,326.5979 0,-2.475 21.375,0 0,2.475 -21.375,0 z m 0,-2.475 z m 20.1,-2.475 7.5,3.75 -7.5,3.75"
       style="fill:#000000;fill-opacity:1;fill-rule:nonzero;stroke:none"
       id="path6452" />
    <path
       inkscape:connector-curvature="0"
       d="m 114.96429,370.0979 0,-81.975 79.275,0 0,81.975 -79.275,0 z m 0,-81.975 z m 2.55,80.7 -1.275,-1.2 76.725,0 -1.275,1.2 0,-79.425 1.275,1.2 -76.725,0 1.275,-1.2"
       style="fill:#000000;fill-opacity:1;fill-rule:nonzero;stroke:none"
       id="path6454" />
    <path
       inkscape:connector-curvature="0"
       d="m 231.36429,286.8479 0,83.25 80.325,0 0,-83.25 -80.325,0 z"
       style="fill:#b0b0b0;fill-opacity:1;fill-rule:nonzero;stroke:none"
       id="path6456" />
    <path
       inkscape:connector-curvature="0"
       d="m 230.08929,371.3729 0,-85.8 82.875,0 0,85.8 -82.875,0 z m 0,-85.8 z m 2.55,84.525 -1.275,-1.2 80.325,0 -1.275,1.2 0,-83.25 1.275,1.275 -80.325,0 1.275,-1.275"
       style="fill:#ff0000;fill-opacity:1;fill-rule:nonzero;stroke:none"
       id="path6458" />
    <path
       inkscape:connector-curvature="0"
       d="m 647.31429,367.6229 0,-81.975 79.2,0 0,81.975 -79.2,0 z m 0,-81.975 z m 2.475,80.7 -1.27625,-1.2 76.725,0 -1.19875,1.2 0,-79.5 1.19875,1.275 -76.725,0 1.27625,-1.275"
       style="fill:#000000;fill-opacity:1;fill-rule:nonzero;stroke:none"
       id="path6460" />
    <text
       id="text6462"
       x="669.21368"
       y="335.74789"
       style="font-size:15px">
      <tspan
         style="font-size:24.97499847px;font-variant:normal;font-weight:normal;font-stretch:normal;writing-mode:lr-tb;fill:#56127a;fill-opacity:1;fill-rule:nonzero;stroke:none;font-family:Verdana;-inkscape-font-specification:Verdana"
         x="669.21368 693.89398"
         y="335.74789"
         sodipodi:role="line"
         id="tspan6464">WB</tspan>
    </text>
    <path
       inkscape:connector-curvature="0"
       d="m 370.33929,293.0729 0,-81.975 79.2,0 0,81.975 -79.2,0 z m 0,-81.975 z m 2.475,80.775 -1.2,-1.275 76.725,0 -1.275,1.275 0,-79.5 1.275,1.275 -76.725,0 1.2,-1.275"
       style="fill:#000000;fill-opacity:1;fill-rule:nonzero;stroke:none"
       id="path6466" />
    <text
       id="text6468"
       x="388.71368"
       y="261.27289"
       style="font-size:15px">
      <tspan
         style="font-size:24.97499847px;font-variant:normal;font-weight:normal;font-stretch:normal;writing-mode:lr-tb;fill:#56127a;fill-opacity:1;fill-rule:nonzero;stroke:none;font-family:Verdana;-inkscape-font-specification:Verdana"
         x="388.71368 405.79657 419.70764"
         y="261.27289"
         sodipodi:role="line"
         id="tspan6470">ALU</tspan>
    </text>
    <path
       inkscape:connector-curvature="0"
       d="m 491.46429,293.0729 0,-81.975 112.8,0 0,81.975 -112.8,0 z m 0,-81.975 z m 2.475,80.775 -1.27625,-1.275 110.32625,0 -1.27625,1.275 0,-79.5 1.27625,1.275 -110.32625,0 1.27625,-1.275"
       style="fill:#000000;fill-opacity:1;fill-rule:nonzero;stroke:none"
       id="path6472" />
    <text
       id="text6474"
       x="521.1637"
       y="261.27289"
       style="font-size:15px">
      <tspan
         style="font-size:24.97499847px;font-variant:normal;font-weight:normal;font-stretch:normal;writing-mode:lr-tb;fill:#56127a;fill-opacity:1;fill-rule:nonzero;stroke:none;font-family:Verdana;-inkscape-font-specification:Verdana"
         x="521.1637 542.21759 557.10272"
         y="261.27289"
         sodipodi:role="line"
         id="tspan6476">Mem</tspan>
    </text>
    <path
       inkscape:connector-curvature="0"
       d="m 370.33929,376.3229 0,-54.675 158.325,0 0,54.675 -158.325,0 z m 0,-54.675 z m 2.475,53.4 -1.2,-1.2 155.85,0 -1.275,1.2 0,-52.125 1.275,1.2 -155.85,0 1.2,-1.2"
       style="fill:#000000;fill-opacity:1;fill-rule:nonzero;stroke:none"
       id="path6478" />
    <text
       id="text6480"
       x="419.31366"
       y="361.8479"
       style="font-size:15px">
      <tspan
         style="font-size:24.97499847px;font-variant:normal;font-weight:normal;font-stretch:normal;writing-mode:lr-tb;fill:#56127a;fill-opacity:1;fill-rule:nonzero;stroke:none;font-family:Verdana;-inkscape-font-specification:Verdana"
         x="419.31366 432.44553 447.45547 462.97995"
         y="361.8479"
         sodipodi:role="line"
         id="tspan6482">Fadd</tspan>
    </text>
    <path
       inkscape:connector-curvature="0"
       d="m 367.93929,435.9479 0,-47.25 158.4,0 0,47.25 -158.4,0 z m 0,-47.25 z m 2.55,45.975 -1.275,-1.275 155.84875,0 -1.27375,1.275 0,-44.7 1.27375,1.275 -155.84875,0 1.275,-1.275"
       style="fill:#000000;fill-opacity:1;fill-rule:nonzero;stroke:none"
       id="path6484" />
    <text
       id="text6486"
       x="421.26367"
       y="419.14789"
       style="font-size:15px">
      <tspan
         style="font-size:24.97499847px;font-variant:normal;font-weight:normal;font-stretch:normal;writing-mode:lr-tb;fill:#56127a;fill-opacity:1;fill-rule:nonzero;stroke:none;font-family:Verdana;-inkscape-font-specification:Verdana"
         x="421.26367 435.62927 459.93494 475.74911"
         y="419.14789"
         sodipodi:role="line"
         id="tspan6488">Fmul</tspan>
    </text>
    <path
       inkscape:connector-curvature="0"
       d="m 370.33929,562.6229 0,-50.325 158.325,0 0,50.325 -158.325,0 z m 0,-50.325 z m 2.475,49.05 -1.2,-1.2 155.85,0 -1.275,1.2 0,-47.775 1.275,1.2 -155.85,0 1.2,-1.2"
       style="fill:#000000;fill-opacity:1;fill-rule:nonzero;stroke:none"
       id="path6490" />
    <text
       id="text6492"
       x="421.26367"
       y="545.82288"
       style="font-size:15px">
      <tspan
         style="font-size:24.97499847px;font-variant:normal;font-weight:normal;font-stretch:normal;writing-mode:lr-tb;fill:#56127a;fill-opacity:1;fill-rule:nonzero;stroke:none;font-family:Verdana;-inkscape-font-specification:Verdana"
         x="421.26367 435.59433 451.12378 457.93695"
         y="545.82288"
         sodipodi:role="line"
         id="tspan6494">Fdiv</tspan>
    </text>
    <g
       id="g6496"
       transform="matrix(0,1.25,1.25,0,440.53929,445.8479)">
      <path
         inkscape:connector-curvature="0"
         d="m 0,0 c -1.62,0 -2.94,1.26 -2.94,2.88 0,1.56 1.32,2.88 2.94,2.88 1.68,0 3,-1.32 3,-2.88 C 3,1.26 1.68,0 0,0"
         style="fill:#000000;fill-opacity:1;fill-rule:evenodd;stroke:none"
         id="path6498" />
    </g>
    <g
       id="g6500"
       transform="matrix(0,1.25,1.25,0,439.93929,445.9229)">
      <path
         inkscape:connector-curvature="0"
         d="M 0,0 -0.36,0 C -0.925,0.077 -1.504,0.211 -1.98,0.54 L -2.46,0.9 c 0,0.06 -0.06,0.06 -0.06,0.12 l -0.36,0.42 c -0.842,0.993 -0.805,2.419 -0.24,3.54 l 0.18,0.24 c 0,0.06 0,0.06 0.06,0.06 l 0.36,0.42 c 0,0.06 0,0.06 0.06,0.06 l 0.42,0.36 c 1.092,0.821 2.773,0.793 3.9,0.06 L 2.4,5.76 c 0,0 0,0 0.06,-0.06 L 2.82,5.28 c 0,0 0,0 0,-0.06 L 3,4.98 C 3.568,3.913 3.641,2.461 2.82,1.5 L 2.46,1.02 C 2.4,0.96 2.4,0.96 2.4,0.9 L 1.92,0.6 1.32,0.24 1.02,0.12 0.66,0.06 0.36,0 0,0 z M 0.18,0.96 0.9,1.14 1.14,1.26 1.32,1.38 1.74,1.74 1.68,1.62 1.98,2.04 c 0.57,0.611 0.577,1.757 0.18,2.4 L 1.98,4.68 2.04,4.62 1.68,5.04 1.74,4.98 1.38,5.34 c -0.775,0.477 -2.047,0.579 -2.76,0 L -1.86,4.98 -1.8,5.04 -2.16,4.62 -2.1,4.68 -2.22,4.5 C -2.701,3.701 -2.544,2.841 -2.16,2.04 L -1.8,1.62 -1.86,1.74 -1.44,1.38 -1.26,1.26 -1.02,1.2 -0.84,1.08 -0.6,1.02 l 0.3,0 0.24,-0.06"
         style="fill:#000000;fill-opacity:1;fill-rule:nonzero;stroke:none"
         id="path6502" />
    </g>
    <g
       id="g6504"
       transform="matrix(0,1.25,1.25,0,441.13929,460.1729)">
      <path
         inkscape:connector-curvature="0"
         d="m 0,0 c -1.68,0 -3,1.26 -3,2.88 0,1.56 1.32,2.88 3,2.88 1.62,0 2.94,-1.32 2.94,-2.88 C 2.94,1.26 1.62,0 0,0"
         style="fill:#000000;fill-opacity:1;fill-rule:evenodd;stroke:none"
         id="path6506" />
    </g>
    <g
       id="g6508"
       transform="matrix(0,1.25,1.25,0,440.53929,460.1729)">
      <path
         inkscape:connector-curvature="0"
         d="M 0,0 -0.36,0 C -0.912,0.06 -1.456,0.232 -1.92,0.54 L -2.46,0.9 c 0,0.06 0,0.06 -0.06,0.12 l -0.36,0.42 c -0.775,0.955 -0.796,2.496 -0.18,3.54 l 0.12,0.24 c 0.06,0.06 0.06,0.06 0.06,0.06 l 0.36,0.42 c 0.06,0.06 0.06,0.06 0.06,0.06 l 0.48,0.36 c 1.09,0.841 2.765,0.773 3.9,0.06 L 2.4,5.76 c 0,0 0.06,0 0.06,-0.06 L 2.82,5.28 c 0,0 0.06,0 0.06,-0.06 L 3,4.98 C 3.649,3.995 3.6,2.435 2.88,1.5 L 2.46,1.02 C 2.46,0.96 2.4,0.96 2.4,0.9 L 1.98,0.6 1.68,0.42 1.32,0.24 1.02,0.12 0.72,0.06 0.36,0 0,0 z M 0.18,0.96 0.48,1.02 0.96,1.14 1.32,1.38 1.8,1.74 1.68,1.62 2.04,2.04 c 0.518,0.645 0.551,1.709 0.12,2.4 L 2.04,4.68 2.1,4.62 1.68,5.04 1.8,4.98 1.38,5.34 c -0.787,0.494 -1.98,0.555 -2.76,0 L -1.8,4.98 -1.74,5.04 -2.1,4.62 -2.04,4.68 -2.22,4.5 C -2.611,3.723 -2.628,2.765 -2.1,2.04 l 0.36,-0.42 -0.06,0.12 0.36,-0.36 0.18,-0.12 0.24,-0.06 0.24,-0.12 0.24,-0.06 0.24,0 0.24,-0.06"
         style="fill:#000000;fill-opacity:1;fill-rule:nonzero;stroke:none"
         id="path6510" />
    </g>
    <g
       id="g6512"
       transform="matrix(0,1.25,1.25,0,440.53929,475.6979)">
      <path
         inkscape:connector-curvature="0"
         d="m 0,0 c -1.68,0 -3,1.26 -3,2.88 0,1.56 1.32,2.88 3,2.88 1.62,0 2.94,-1.32 2.94,-2.88 C 2.94,1.26 1.62,0 0,0"
         style="fill:#000000;fill-opacity:1;fill-rule:evenodd;stroke:none"
         id="path6514" />
    </g>
    <g
       id="g6516"
       transform="matrix(0,1.25,1.25,0,439.93929,475.6979)">
      <path
         inkscape:connector-curvature="0"
         d="M 0,0 -0.36,0 C -0.912,0.06 -1.456,0.232 -1.92,0.54 L -2.46,0.9 c 0,0.06 0,0.06 -0.06,0.12 l -0.36,0.42 c -0.775,0.955 -0.796,2.496 -0.18,3.54 l 0.12,0.24 c 0.06,0.06 0.06,0.06 0.06,0.06 l 0.36,0.42 c 0.06,0.06 0.06,0.06 0.06,0.06 l 0.48,0.36 c 1.09,0.841 2.765,0.773 3.9,0.06 L 2.4,5.76 c 0,0 0.06,0 0.06,-0.06 L 2.82,5.28 c 0,0 0.06,0 0.06,-0.06 L 3,4.98 C 3.649,3.995 3.6,2.435 2.88,1.5 L 2.46,1.02 C 2.46,0.96 2.4,0.96 2.4,0.9 L 1.98,0.6 1.68,0.42 1.32,0.24 1.02,0.12 0.72,0.06 0.36,0 0,0 z M 0.18,0.96 0.48,1.02 0.96,1.14 1.32,1.38 1.8,1.74 1.68,1.62 2.04,2.04 c 0.518,0.645 0.551,1.709 0.12,2.4 L 2.04,4.68 2.1,4.62 1.68,5.04 1.8,4.98 1.38,5.34 c -0.787,0.494 -1.98,0.554 -2.76,0 L -1.8,4.98 -1.74,5.04 -2.1,4.62 -2.04,4.68 -2.22,4.5 C -2.611,3.723 -2.628,2.765 -2.1,2.04 l 0.36,-0.42 -0.06,0.12 0.36,-0.36 0.18,-0.12 0.24,-0.06 0.24,-0.12 0.24,-0.06 0.24,0 0.24,-0.06"
         style="fill:#000000;fill-opacity:1;fill-rule:nonzero;stroke:none"
         id="path6518" />
    </g>
    <g
       id="g6520"
       transform="matrix(0,1.25,1.25,0,441.13929,489.9479)">
      <path
         inkscape:connector-curvature="0"
         d="m 0,0 c -1.62,0 -3,1.26 -3,2.88 0,1.56 1.38,2.88 3,2.88 1.68,0 3,-1.32 3,-2.88 C 3,1.26 1.68,0 0,0"
         style="fill:#000000;fill-opacity:1;fill-rule:evenodd;stroke:none"
         id="path6522" />
    </g>
    <g
       id="g6524"
       transform="matrix(0,1.25,1.25,0,440.53929,490.0229)">
      <path
         inkscape:connector-curvature="0"
         d="M 0,0 -0.36,0 C -0.996,0.081 -1.432,0.185 -1.98,0.54 L -2.46,0.9 c -0.06,0.06 -0.06,0.06 -0.06,0.12 l -0.36,0.42 c -0.852,1.031 -0.839,2.385 -0.24,3.54 l 0.18,0.24 c 0,0.06 0,0.06 0.06,0.06 l 0.36,0.42 c 0,0.06 0,0.06 0.06,0.06 l 0.42,0.36 c 1.092,0.821 2.773,0.793 3.9,0.06 L 2.34,5.76 c 0.06,0 0.06,0 0.12,-0.06 L 2.82,5.28 c 0,0 0,0 0,-0.06 L 3,4.98 C 3.568,3.913 3.641,2.461 2.82,1.5 L 2.46,1.02 C 2.4,0.96 2.4,0.96 2.34,0.9 L 1.92,0.6 1.32,0.24 1.02,0.12 0.3,0 0,0 z M 0.18,0.96 0.9,1.14 1.08,1.26 1.32,1.38 1.74,1.74 1.68,1.62 1.98,2.04 c 0.533,0.67 0.567,1.649 0.18,2.4 L 1.98,4.68 2.04,4.62 1.68,5.04 1.74,4.98 1.38,5.34 c -0.775,0.477 -2.047,0.579 -2.76,0 L -1.86,4.98 -1.8,5.04 -2.16,4.62 -2.1,4.68 -2.22,4.5 C -2.645,3.745 -2.644,2.781 -2.16,2.04 L -1.8,1.62 -1.86,1.74 -1.44,1.38 -1.26,1.26 -1.02,1.2 -0.84,1.08 -0.6,1.02 l 0.24,0 0.3,-0.06"
         style="fill:#000000;fill-opacity:1;fill-rule:nonzero;stroke:none"
         id="path6526" />
    </g>
    <g
       id="g6528"
       transform="matrix(0,1.25,1.25,0,310.63929,317.1479)">
      <path
         inkscape:connector-curvature="0"
         d="m 0,0 -57.66,44.88 c -0.42,0.36 -0.48,1.02 -0.18,1.44 0.36,0.42 0.96,0.48 1.44,0.18 L 1.26,1.62 C 1.68,1.26 1.74,0.66 1.44,0.18 1.08,-0.24 0.42,-0.3 0,0 z m -58.08,42.72 -2.88,6.06 6.54,-1.32"
         style="fill:#000000;fill-opacity:1;fill-rule:nonzero;stroke:none"
         id="path6530" />
    </g>
    <g
       id="g6532"
       transform="matrix(0,1.25,1.25,0,312.28929,315.5729)">
      <path
         inkscape:connector-curvature="0"
         d="m 0,0 25.32,43.62 c 0.3,0.48 0.9,0.66 1.38,0.36 0.48,-0.24 0.66,-0.9 0.36,-1.38 L 1.74,-1.02 C 1.5,-1.5 0.9,-1.62 0.42,-1.38 -0.06,-1.08 -0.24,-0.48 0,0 z m 23.1,43.74 5.64,3.72 -0.42,-6.72"
         style="fill:#000000;fill-opacity:1;fill-rule:nonzero;stroke:none"
         id="path6534" />
    </g>
    <g
       id="g6536"
       transform="matrix(0,1.25,1.25,0,312.73929,316.0979)">
      <path
         inkscape:connector-curvature="0"
         d="m 0,0 78,43.5 c 0.48,0.24 1.08,0.12 1.38,-0.42 0.24,-0.48 0.06,-1.08 -0.42,-1.32 l -78,-43.5 C 0.48,-1.98 -0.12,-1.86 -0.42,-1.38 -0.66,-0.84 -0.48,-0.24 0,0 z m 76.14,44.76 6.72,0.3 -3.78,-5.52"
         style="fill:#000000;fill-opacity:1;fill-rule:nonzero;stroke:none"
         id="path6538" />
    </g>
    <g
       id="g6540"
       transform="matrix(0,1.25,1.25,0,312.88929,317.5979)">
      <path
         inkscape:connector-curvature="0"
         d="m 0,0 166.02,44.58 c 0.48,0.18 1.08,-0.18 1.2,-0.66 0.12,-0.54 -0.18,-1.08 -0.72,-1.26 L 0.54,-1.98 C 0,-2.1 -0.54,-1.8 -0.72,-1.26 -0.84,-0.72 -0.54,-0.18 0,0 z m 164.52,46.26 6.54,-1.32 -4.98,-4.44"
         style="fill:#000000;fill-opacity:1;fill-rule:nonzero;stroke:none"
         id="path6542" />
    </g>
    <g
       id="g6544"
       transform="matrix(0,1.25,1.25,0,641.01304,292.9979)">
      <path
         inkscape:connector-curvature="0"
         d="m 0,0 -34.02,-30.24 c -0.42,-0.36 -1.08,-0.3 -1.44,0.12 -0.36,0.42 -0.3,1.02 0.12,1.38 L -1.32,1.5 C -0.96,1.86 -0.3,1.86 0.06,1.44 0.42,1.02 0.42,0.42 0,0 z M -3.42,2.34 3.06,4.08 0.54,-2.16"
         style="fill:#000000;fill-opacity:1;fill-rule:nonzero;stroke:none"
         id="path6546" />
    </g>
    <g
       id="g6548"
       transform="matrix(0,1.25,1.25,0,639.21304,331.9979)">
      <path
         inkscape:connector-curvature="0"
         d="m 0,0 24.48,-88.2 c 0.18,-0.54 -0.18,-1.08 -0.66,-1.2 -0.54,-0.18 -1.14,0.12 -1.26,0.66 L -1.92,-0.48 C -2.1,0 -1.8,0.6 -1.26,0.72 -0.72,0.9 -0.18,0.54 0,0 z m -3.6,-1.98 1.32,6.54 4.44,-4.98"
         style="fill:#000000;fill-opacity:1;fill-rule:nonzero;stroke:none"
         id="path6550" />
    </g>
    <g
       id="g6552"
       transform="matrix(0,1.25,1.25,0,641.31304,349.3979)">
      <path
         inkscape:connector-curvature="0"
         d="m 0,0 51.12,-90.6 c 0.3,-0.48 0.12,-1.08 -0.36,-1.38 -0.48,-0.24 -1.08,-0.06 -1.38,0.42 L -1.74,-1.02 C -1.98,-0.48 -1.8,0.12 -1.32,0.36 -0.84,0.66 -0.24,0.48 0,0 z M -3,-2.82 -3.3,3.84 2.22,0.12"
         style="fill:#000000;fill-opacity:1;fill-rule:nonzero;stroke:none"
         id="path6554" />
    </g>
    <g
       id="g6556"
       transform="matrix(0,1.25,1.25,0,643.71429,366.0479)">
      <path
         inkscape:connector-curvature="0"
         d="m 0,0 138.84,-92.16 c 0.48,-0.3 0.6,-0.96 0.3,-1.38 -0.3,-0.48 -0.96,-0.6 -1.38,-0.3 L -1.08,-1.68 c -0.48,0.3 -0.6,0.96 -0.3,1.38 0.3,0.48 0.9,0.6 1.38,0.3 z m -1.38,-3.9 -3.3,5.82 6.6,-0.78"
         style="fill:#000000;fill-opacity:1;fill-rule:nonzero;stroke:none"
         id="path6558" />
    </g>
    <g
       id="g6560"
       transform="matrix(0,1.25,1.25,0,449.53929,248.3729)">
      <path
         inkscape:connector-curvature="0"
         d="m 0,0 0,14.4 c 0,0.54 0.42,0.96 1.02,0.96 l 48.66,0 -1.02,-0.96 0,137.88 c 0,0.54 0.48,1.02 1.02,1.02 0.54,0 1.02,-0.48 1.02,-1.02 l 0,-137.88 c 0,-0.6 -0.48,-1.02 -1.02,-1.02 l -48.66,0 0.96,1.02 0,-14.4 C 1.98,-0.54 1.56,-1.02 1.02,-1.02 0.42,-1.02 0,-0.54 0,0 z m 46.68,151.26 3,6 3,-6"
         style="fill:#000000;fill-opacity:1;fill-rule:nonzero;stroke:none"
         id="path6562" />
    </g>
    <path
       inkscape:connector-curvature="0"
       d="m 468.73929,250.8479 0,-2.475 16.5,0 0,2.475 -16.5,0 z m 0,-2.475 z m 15.225,-2.475 7.5,3.75 -7.5,3.75"
       style="fill:#000000;fill-opacity:1;fill-rule:nonzero;stroke:none"
       id="path6564" />
    <g
       id="g6566"
       transform="matrix(0,1.25,1.25,0,726.43929,321.3979)">
      <path
         inkscape:connector-curvature="0"
         d="m 0,0 0,27.84 1.02,-1.02 -104.34,0 0.96,1.02 0,-391.32 -0.96,1.02 70.8,0 c 0.54,0 0.96,-0.48 0.96,-1.02 0,-0.54 -0.42,-1.02 -0.96,-1.02 l -70.8,0 c -0.6,0 -1.02,0.48 -1.02,1.02 l 0,391.32 c 0,0.54 0.42,0.96 1.02,0.96 l 104.34,0 c 0.54,0 0.96,-0.42 0.96,-0.96 L 1.98,0 C 1.98,-0.54 1.56,-0.96 1.02,-0.96 0.42,-0.96 0,-0.54 0,0 z m -33.54,-360.48 6,-3 -6,-3"
         style="fill:#000000;fill-opacity:1;fill-rule:nonzero;stroke:none"
         id="path6568" />
    </g>
    <text
       id="text6570"
       x="238.18866"
       y="335.74789"
       style="font-size:15px">
      <tspan
         style="font-size:24.97499847px;font-variant:normal;font-weight:normal;font-stretch:normal;writing-mode:lr-tb;fill:#ff0000;fill-opacity:1;fill-rule:nonzero;stroke:none;font-family:Verdana;-inkscape-font-specification:Verdana"
         x="238.18866 248.68565 261.68015 274.67465 290.46634"
         y="335.74789"
         sodipodi:role="line"
         id="tspan6572">Issue</tspan>
    </text>
    <path
       inkscape:connector-curvature="0"
       d="m 195.36429,330.3479 0,-2.475 28.5,0 0,2.475 -28.5,0 z m 0,-2.475 z m 27.3,-2.475 7.5,3.75 -7.5,3.75"
       style="fill:#000000;fill-opacity:1;fill-rule:nonzero;stroke:none"
       id="path6574" />
    <text
       id="text6576"
       x="235.56366"
       y="404.52289"
       style="font-size:15px">
      <tspan
         style="font-size:24.97499847px;font-variant:normal;font-weight:bold;font-stretch:normal;writing-mode:lr-tb;fill:#0070c0;fill-opacity:1;fill-rule:nonzero;stroke:none;font-family:Verdana;-inkscape-font-specification:Verdana-Bold"
         x="235.56366 255.82338 274.13504 293.6705 301.96719"
         y="404.52289"
         sodipodi:role="line"
         id="tspan6578">GPR’s</tspan>
      <tspan
         style="font-size:24.97499847px;font-variant:normal;font-weight:bold;font-stretch:normal;writing-mode:lr-tb;fill:#0070c0;fill-opacity:1;fill-rule:nonzero;stroke:none;font-family:Verdana;-inkscape-font-specification:Verdana-Bold"
         x="235.56366 251.8049 270.11908 289.65701 297.95621"
         y="434.52286"
         sodipodi:role="line"
         id="tspan6580">FPR’s</tspan>
    </text>
  </g>
</svg>
