<?xml version="1.0" encoding="UTF-8" standalone="no"?>
<!-- Created with Inkscape (http://www.inkscape.org/) -->

<svg
   xmlns:dc="http://purl.org/dc/elements/1.1/"
   xmlns:cc="http://creativecommons.org/ns#"
   xmlns:rdf="http://www.w3.org/1999/02/22-rdf-syntax-ns#"
   xmlns:svg="http://www.w3.org/2000/svg"
   xmlns="http://www.w3.org/2000/svg"
   xmlns:sodipodi="http://sodipodi.sourceforge.net/DTD/sodipodi-0.dtd"
   xmlns:inkscape="http://www.inkscape.org/namespaces/inkscape"
   width="800.30255"
   height="550.17499"
   id="svg6777"
   version="1.1"
   inkscape:version="0.48.4 r9939"
   sodipodi:docname="New document 24">
  <defs
     id="defs6779">
    <clipPath
       id="clipPath6805"
       clipPathUnits="userSpaceOnUse">
      <path
         id="path6807"
         d="m 0,841.98 595.2,0 L 595.2,0 0,0 0,841.98 z"
         inkscape:connector-curvature="0" />
    </clipPath>
    <clipPath
       id="clipPath6799"
       clipPathUnits="userSpaceOnUse">
      <path
         id="path6801"
         clip-rule="evenodd"
         d="m 567.48,61.011 -540,0 0,720 540,0 0,-720 z"
         inkscape:connector-curvature="0" />
    </clipPath>
  </defs>
  <sodipodi:namedview
     id="base"
     pagecolor="#ffffff"
     bordercolor="#666666"
     borderopacity="1.0"
     inkscape:pageopacity="0.0"
     inkscape:pageshadow="2"
     inkscape:zoom="0.7"
     inkscape:cx="339.98599"
     inkscape:cy="265.93884"
     inkscape:document-units="px"
     inkscape:current-layer="layer1"
     showgrid="false"
     fit-margin-top="10"
     fit-margin-left="10"
     fit-margin-right="10"
     fit-margin-bottom="10"
     inkscape:window-width="954"
     inkscape:window-height="1028"
     inkscape:window-x="0"
     inkscape:window-y="0"
     inkscape:window-maximized="0" />
  <metadata
     id="metadata6782">
    <rdf:RDF>
      <cc:Work
         rdf:about="">
        <dc:format>image/svg+xml</dc:format>
        <dc:type
           rdf:resource="http://purl.org/dc/dcmitype/StillImage" />
        <dc:title></dc:title>
      </cc:Work>
    </rdf:RDF>
  </metadata>
  <g
     inkscape:label="Layer 1"
     inkscape:groupmode="layer"
     id="layer1"
     transform="translate(-4.7,-301.19433)">
    <text
       id="text6855"
       x="713.99939"
       y="621.54431"
       style="font-size:15px">
      <tspan
         style="font-size:22.5px;font-style:italic;font-variant:normal;font-weight:bold;font-stretch:normal;writing-mode:lr-tb;fill:#33659a;fill-opacity:1;fill-rule:nonzero;stroke:none;font-family:Trebuchet MS;-inkscape-font-specification:Trebuchet-BoldItalic"
         x="713.99939 727.78516 740.60339 759.27161 777.93988 785.29065 795.13885"
         y="621.54431"
         sodipodi:role="line"
         id="tspan6857">Commit</tspan>
      <tspan
         style="font-size:22.5px;font-style:italic;font-variant:normal;font-weight:bold;font-stretch:normal;writing-mode:lr-tb;fill:#33659a;fill-opacity:1;fill-rule:nonzero;stroke:none;font-family:Trebuchet MS;-inkscape-font-specification:Trebuchet-BoldItalic"
         x="713.99939 727.12366 739.95538 747.31964 759.97137"
         y="648.54431"
         sodipodi:role="line"
         id="tspan6859">Point</tspan>
    </text>
    <g
       id="g6861"
       transform="matrix(0,1.25,1.25,0,452.92375,764.26933)">
      <path
         inkscape:connector-curvature="0"
         d="m 0,0 0,38.34 c 0,0.54 0.42,0.96 1.02,0.96 l 59.64,0 c 0.54,0 1.02,-0.42 1.02,-0.96 l 0,-82.08 c 0,-0.54 -0.48,-1.02 -1.02,-1.02 l -32.52,0 c -0.6,0 -1.02,0.48 -1.02,1.02 l 0,10.92 1.98,0 0,-10.92 -0.96,1.02 32.52,0 -1.02,-1.02 0,82.08 1.02,-1.02 -59.64,0 0.96,1.02 0,-38.34"
         style="fill:#000000;fill-opacity:1;fill-rule:nonzero;stroke:none"
         id="path6863" />
    </g>
    <g
       id="g6865"
       transform="matrix(0,1.25,1.25,0,733.27375,526.89433)">
      <path
         inkscape:connector-curvature="0"
         d="m 0,0 0,21.9 1.02,-1.02 -54.24,0 1.02,1.02 0,-350.1 -1.02,1.02 11.28,0 0,-1.98 -11.28,0 c -0.54,0 -1.02,0.42 -1.02,0.96 l 0,350.1 c 0,0.54 0.48,1.02 1.02,1.02 l 54.24,0 c 0.54,0 1.02,-0.48 1.02,-1.02 L 2.04,0 0,0 z m -42.96,-325.2 6,-3 -6,-3"
         style="fill:#000000;fill-opacity:1;fill-rule:nonzero;stroke:none"
         id="path6867" />
    </g>
    <g
       id="g6869"
       transform="matrix(0,1.25,1.25,0,733.27375,391.29433)">
      <path
         inkscape:connector-curvature="0"
         d="m 0,0 0,21.9 1.02,-1.02 -54.24,0 0.96,1.02 0,-350.1 -0.96,1.02 11.28,0 0,-1.98 -11.28,0 c -0.54,0 -1.02,0.42 -1.02,0.96 l 0,350.1 c 0,0.54 0.48,1.02 1.02,1.02 l 54.24,0 c 0.54,0 1.02,-0.48 1.02,-1.02 L 2.04,0 0,0 z m -42.96,-325.2 6,-3 -6,-3"
         style="fill:#000000;fill-opacity:1;fill-rule:nonzero;stroke:none"
         id="path6871" />
    </g>
    <g
       id="g6873"
       transform="matrix(0,1.25,1.25,0,500.84875,764.26933)">
      <path
         inkscape:connector-curvature="0"
         d="m 0,0 0,158.64 1.02,-1.02 -211.62,0 0,1.98 211.62,0 c 0.54,0 0.96,-0.42 0.96,-0.96 L 1.98,0"
         style="fill:#000000;fill-opacity:1;fill-rule:nonzero;stroke:none"
         id="path6875" />
    </g>
    <path
       inkscape:connector-curvature="0"
       d="m 446.1,393.84433 0,-2.55 267.3,0 0,2.55 -267.3,0 z m 0,-2.55 z m 266.025,-2.475 7.5,3.75 -7.5,3.75"
       style="fill:#000000;fill-opacity:1;fill-rule:nonzero;stroke:none"
       id="path6877" />
    <path
       inkscape:connector-curvature="0"
       d="m 29.025,391.29433 0,2.55 300.825,0 0,-2.55 -300.825,0 z"
       style="fill:#000000;fill-opacity:1;fill-rule:nonzero;stroke:none"
       id="path6879" />
    <path
       inkscape:connector-curvature="0"
       d="m 15.375,338.34433 0,108.45 27.3,0 0,-108.45 -27.3,0 z"
       style="fill:#ffffff;fill-opacity:1;fill-rule:nonzero;stroke:none"
       id="path6881" />
    <path
       inkscape:connector-curvature="0"
       d="m 14.7,447.46933 0,-109.8 28.65,0 0,109.8 -28.65,0 z m 0,-109.8 z m 1.275,109.125 -0.6,-0.6 27.3,0 -0.6,0.6 0,-108.45 0.6,0.6 -27.3,0 0.6,-0.6"
       style="fill:#ff0000;fill-opacity:1;fill-rule:nonzero;stroke:none"
       id="path6883" />
    <text
       id="text6885"
       x="20.299376"
       y="398.04434"
       style="font-size:15px">
      <tspan
         style="font-size:15px;font-variant:normal;font-weight:normal;font-stretch:normal;writing-mode:lr-tb;fill:#00339a;fill-opacity:1;fill-rule:nonzero;stroke:none;font-family:Trebuchet MS;-inkscape-font-specification:TrebuchetMS"
         x="20.299376 28.705376"
         y="398.04434"
         sodipodi:role="line"
         id="tspan6887">PC</tspan>
    </text>
    <g
       id="g6889"
       transform="matrix(0,1.25,1.25,0,15.375,446.79433)">
      <path
         inkscape:connector-curvature="0"
         d="M 0,0 -16.26,10.92 0,21.84"
         style="fill:#ffffff;fill-opacity:1;fill-rule:evenodd;stroke:none"
         id="path6891" />
    </g>
    <g
       id="g6893"
       transform="matrix(0,1.25,1.25,0,14.85,446.49433)">
      <path
         inkscape:connector-curvature="0"
         d="m 0,0 -16.32,10.92 c -0.12,0.12 -0.18,0.24 -0.18,0.42 0,0.18 0.06,0.3 0.18,0.42 L 0,22.68 0.54,21.84 -15.72,10.92 l 0,0.84 L 0.54,0.84"
         style="fill:#ff0000;fill-opacity:1;fill-rule:nonzero;stroke:none"
         id="path6895" />
    </g>
    <path
       inkscape:connector-curvature="0"
       d="m 49.5,345.09433 0,88.125 82.125,0 0,-88.125 -82.125,0 z"
       style="fill:#eaeaea;fill-opacity:1;fill-rule:nonzero;stroke:none"
       id="path6897" />
    <path
       inkscape:connector-curvature="0"
       d="m 48.3,434.49433 0,-90.675 84.525,0 0,90.675 -84.525,0 z m 0,-90.675 z m 2.475,89.4 -1.275,-1.2 82.125,0 -1.275,1.2 0,-88.125 1.275,1.275 -82.125,0 1.275,-1.275"
       style="fill:#000000;fill-opacity:1;fill-rule:nonzero;stroke:none"
       id="path6899" />
    <text
       id="text6901"
       x="58.499374"
       y="385.66934"
       style="font-size:15px">
      <tspan
         style="font-size:15px;font-variant:normal;font-weight:normal;font-stretch:normal;writing-mode:lr-tb;fill:#00339a;fill-opacity:1;fill-rule:nonzero;stroke:none;font-family:Trebuchet MS;-inkscape-font-specification:TrebuchetMS"
         x="58.499374 62.655876 70.832375 76.893875 82.820374 88.311874"
         y="385.66934"
         sodipodi:role="line"
         id="tspan6903">Inst.</tspan>
      <tspan
         style="font-size:15px;font-variant:normal;font-weight:normal;font-stretch:normal;writing-mode:lr-tb;fill:#00339a;fill-opacity:1;fill-rule:nonzero;stroke:none;font-family:Trebuchet MS;-inkscape-font-specification:TrebuchetMS"
         x="58.499374 69.135872 77.312378"
         y="403.66934"
         sodipodi:role="line"
         id="tspan6905">Mem</tspan>
    </text>
    <path
       inkscape:connector-curvature="0"
       d="m 138.45,338.34433 0,108.45 27.3,0 0,-108.45 -27.3,0 z"
       style="fill:#ffffff;fill-opacity:1;fill-rule:nonzero;stroke:none"
       id="path6907" />
    <path
       inkscape:connector-curvature="0"
       d="m 137.775,447.46933 0,-109.8 28.65,0 0,109.8 -28.65,0 z m 0,-109.8 z m 1.275,109.125 -0.6,-0.6 27.3,0 -0.6,0.6 0,-108.45 0.6,0.6 -27.3,0 0.6,-0.6"
       style="fill:#ff0000;fill-opacity:1;fill-rule:nonzero;stroke:none"
       id="path6909" />
    <text
       id="text6911"
       x="147.37437"
       y="398.04434"
       style="font-size:15px">
      <tspan
         style="font-size:15px;font-variant:normal;font-weight:normal;font-stretch:normal;writing-mode:lr-tb;fill:#00339a;fill-opacity:1;fill-rule:nonzero;stroke:none;font-family:Trebuchet MS;-inkscape-font-specification:TrebuchetMS"
         x="147.37437"
         y="398.04434"
         id="tspan6913">D</tspan>
    </text>
    <g
       id="g6915"
       transform="matrix(0,1.25,1.25,0,138.45,446.79433)">
      <path
         inkscape:connector-curvature="0"
         d="M 0,0 -16.26,10.92 0,21.84"
         style="fill:#ffffff;fill-opacity:1;fill-rule:evenodd;stroke:none"
         id="path6917" />
    </g>
    <g
       id="g6919"
       transform="matrix(0,1.25,1.25,0,137.925,446.49433)">
      <path
         inkscape:connector-curvature="0"
         d="m 0,0 -16.32,10.92 c -0.12,0.12 -0.18,0.24 -0.18,0.42 0,0.18 0.06,0.3 0.18,0.42 L 0,22.68 0.54,21.84 -15.72,10.92 l 0,0.84 L 0.54,0.84"
         style="fill:#ff0000;fill-opacity:1;fill-rule:nonzero;stroke:none"
         id="path6921" />
    </g>
    <path
       inkscape:connector-curvature="0"
       d="m 336.75,418.44433 0,2.475 75.15,0 0,-2.475 -75.15,0 z"
       style="fill:#000000;fill-opacity:1;fill-rule:nonzero;stroke:none"
       id="path6923" />
    <path
       inkscape:connector-curvature="0"
       d="m 172.65,345.09433 0,88.125 95.7,0 0,-88.125 -95.7,0 z"
       style="fill:#eaeaea;fill-opacity:1;fill-rule:nonzero;stroke:none"
       id="path6925" />
    <path
       inkscape:connector-curvature="0"
       d="m 171.375,434.49433 0,-90.675 98.25,0 0,90.675 -98.25,0 z m 0,-90.675 z m 2.475,89.4 -1.2,-1.2 95.7,0 -1.275,1.2 0,-88.125 1.275,1.275 -95.7,0 1.2,-1.275"
       style="fill:#000000;fill-opacity:1;fill-rule:nonzero;stroke:none"
       id="path6927" />
    <text
       id="text6929"
       x="181.57439"
       y="394.66934"
       style="font-size:15px">
      <tspan
         style="font-size:15px;font-variant:normal;font-weight:normal;font-stretch:normal;writing-mode:lr-tb;fill:#00339a;fill-opacity:1;fill-rule:nonzero;stroke:none;font-family:Trebuchet MS;-inkscape-font-specification:TrebuchetMS"
         x="181.57439 190.75739 198.92038 206.33337 214.37637 222.71938"
         y="394.66934"
         sodipodi:role="line"
         id="tspan6931">Decode</tspan>
    </text>
    <path
       inkscape:connector-curvature="0"
       d="m 350.4,364.21933 0,2.475 61.5,0 0,-2.475 -61.5,0 z"
       style="fill:#000000;fill-opacity:1;fill-rule:nonzero;stroke:none"
       id="path6933" />
    <path
       inkscape:connector-curvature="0"
       d="m 370.875,338.34433 0,108.45 27.375,0 0,-108.45 -27.375,0 z"
       style="fill:#ffffff;fill-opacity:1;fill-rule:nonzero;stroke:none"
       id="path6935" />
    <path
       inkscape:connector-curvature="0"
       d="m 370.275,447.46933 0,-109.8 28.575,0 0,109.8 -28.575,0 z m 0,-109.8 z m 1.275,109.125 -0.675,-0.6 27.375,0 -0.6,0.6 0,-108.45 0.6,0.6 -27.375,0 0.675,-0.6"
       style="fill:#ff0000;fill-opacity:1;fill-rule:nonzero;stroke:none"
       id="path6937" />
    <text
       id="text6939"
       x="377.87439"
       y="398.04434"
       style="font-size:15px">
      <tspan
         style="font-size:15px;font-variant:normal;font-weight:normal;font-stretch:normal;writing-mode:lr-tb;fill:#00339a;fill-opacity:1;fill-rule:nonzero;stroke:none;font-family:Trebuchet MS;-inkscape-font-specification:TrebuchetMS"
         x="377.87439 386.20538"
         y="398.04434"
         sodipodi:role="line"
         id="tspan6941">X1</tspan>
    </text>
    <g
       id="g6943"
       transform="matrix(0,1.25,1.25,0,370.875,446.79433)">
      <path
         inkscape:connector-curvature="0"
         d="M 0,0 -16.26,10.98 0,21.9"
         style="fill:#ffffff;fill-opacity:1;fill-rule:evenodd;stroke:none"
         id="path6945" />
    </g>
    <g
       id="g6947"
       transform="matrix(0,1.25,1.25,0,370.425,446.49433)">
      <path
         inkscape:connector-curvature="0"
         d="m 0,0 -16.32,10.92 c -0.12,0.06 -0.18,0.24 -0.18,0.42 0,0.18 0.06,0.3 0.18,0.42 L 0,22.68 0.54,21.84 -15.72,10.92 l 0,0.84 L 0.54,0.78"
         style="fill:#ff0000;fill-opacity:1;fill-rule:nonzero;stroke:none"
         id="path6949" />
    </g>
    <g
       id="g6951"
       transform="matrix(0,1.25,1.25,0,411.9,345.09433)">
      <path
         inkscape:connector-curvature="0"
         d="M 0,0 32.52,0 37.98,5.52 43.38,0 75.96,0 54.24,27.36 16.26,27.36 0,0"
         style="fill:#eaeaea;fill-opacity:1;fill-rule:evenodd;stroke:none"
         id="path6953" />
    </g>
    <g
       id="g6955"
       transform="matrix(0,1.25,1.25,0,411.3,346.14433)">
      <path
         inkscape:connector-curvature="0"
         d="m 0,0 -0.84,1.5 32.52,0 -0.66,-0.3 5.4,5.46 c 0.18,0.24 0.42,0.3 0.72,0.3 0.24,0 0.54,-0.06 0.72,-0.3 l 5.4,-5.46 -0.72,0.3 32.58,0 -0.78,-1.62 -21.72,27.36 0.78,-0.36 -37.98,0 0.9,0.48 L 0,0 z m 14.58,28.38 c 0.18,0.3 0.48,0.48 0.84,0.48 l 37.98,0 c 0.3,0 0.6,-0.12 0.78,-0.36 L 75.9,1.14 c 0.24,-0.3 0.3,-0.72 0.12,-1.08 -0.18,-0.36 -0.54,-0.54 -0.9,-0.54 l -32.58,0 c -0.24,0 -0.48,0.12 -0.72,0.3 l -5.4,5.46 1.44,0 -5.46,-5.46 c -0.18,-0.18 -0.42,-0.3 -0.72,-0.3 l -32.52,0 c -0.36,0 -0.72,0.18 -0.84,0.48 -0.18,0.3 -0.18,0.72 0,1.02"
         style="fill:#000000;fill-opacity:1;fill-rule:nonzero;stroke:none"
         id="path6957" />
    </g>
    <path
       inkscape:connector-curvature="0"
       d="m 459.82375,338.34433 0,108.45 27.3,0 0,-108.45 -27.3,0 z"
       style="fill:#ffffff;fill-opacity:1;fill-rule:nonzero;stroke:none"
       id="path6959" />
    <path
       inkscape:connector-curvature="0"
       d="m 459.15,447.46933 0,-109.8 28.65,0 0,109.8 -28.65,0 z m 0,-109.8 z m 1.27375,109.125 -0.6,-0.6 27.30125,0 -0.60125,0.6 0,-108.45 0.60125,0.6 -27.30125,0 0.6,-0.6"
       style="fill:#ff0000;fill-opacity:1;fill-rule:nonzero;stroke:none"
       id="path6961" />
    <text
       id="text6963"
       x="466.74936"
       y="398.04434"
       style="font-size:15px">
      <tspan
         style="font-size:15px;font-variant:normal;font-weight:normal;font-stretch:normal;writing-mode:lr-tb;fill:#00339a;fill-opacity:1;fill-rule:nonzero;stroke:none;font-family:Trebuchet MS;-inkscape-font-specification:TrebuchetMS"
         x="466.74936 475.08038"
         y="398.04434"
         sodipodi:role="line"
         id="tspan6965">X2</tspan>
    </text>
    <g
       id="g6967"
       transform="matrix(0,1.25,1.25,0,459.82375,446.79433)">
      <path
         inkscape:connector-curvature="0"
         d="M 0,0 -16.26,10.92 0,21.84"
         style="fill:#ffffff;fill-opacity:1;fill-rule:evenodd;stroke:none"
         id="path6969" />
    </g>
    <g
       id="g6971"
       transform="matrix(0,1.25,1.25,0,459.3,446.49433)">
      <path
         inkscape:connector-curvature="0"
         d="m 0,0 -16.32,10.92 c -0.12,0.12 -0.18,0.24 -0.18,0.42 0,0.18 0.06,0.3 0.18,0.42 L 0,22.68 0.54,21.84 -15.72,10.92 l 0,0.84 L 0.54,0.84"
         style="fill:#ff0000;fill-opacity:1;fill-rule:nonzero;stroke:none"
         id="path6973" />
    </g>
    <path
       inkscape:connector-curvature="0"
       d="m 500.84875,338.34433 0,88.125 75.225,0 0,-88.125 -75.225,0 z"
       style="fill:#eaeaea;fill-opacity:1;fill-rule:nonzero;stroke:none"
       id="path6975" />
    <path
       inkscape:connector-curvature="0"
       d="m 499.575,427.74433 0,-90.675 77.7,0 0,90.675 -77.7,0 z m 0,-90.675 z m 2.475,89.4 -1.20125,-1.275 75.225,0 -1.27375,1.275 0,-88.125 1.27375,1.2 -75.225,0 1.20125,-1.2"
       style="fill:#000000;fill-opacity:1;fill-rule:nonzero;stroke:none"
       id="path6977" />
    <text
       id="text6979"
       x="509.77438"
       y="378.91934"
       style="font-size:15px">
      <tspan
         style="font-size:15px;font-variant:normal;font-weight:normal;font-stretch:normal;writing-mode:lr-tb;fill:#00339a;fill-opacity:1;fill-rule:nonzero;stroke:none;font-family:Trebuchet MS;-inkscape-font-specification:TrebuchetMS"
         x="509.77438 518.96637 526.83838 532.77539 540.6474"
         y="378.91934"
         sodipodi:role="line"
         id="tspan6981">Data</tspan>
      <tspan
         style="font-size:15px;font-variant:normal;font-weight:normal;font-stretch:normal;writing-mode:lr-tb;fill:#00339a;fill-opacity:1;fill-rule:nonzero;stroke:none;font-family:Trebuchet MS;-inkscape-font-specification:TrebuchetMS"
         x="509.77438 520.41089 528.5874"
         y="396.91934"
         sodipodi:role="line"
         id="tspan6983">Mem</tspan>
    </text>
    <path
       inkscape:connector-curvature="0"
       d="m 719.625,338.34433 0,108.45 27.375,0 0,-108.45 -27.375,0 z"
       style="fill:#ffffff;fill-opacity:1;fill-rule:nonzero;stroke:none"
       id="path6985" />
    <path
       inkscape:connector-curvature="0"
       d="m 719.02375,447.46933 0,-109.8 28.575,0 0,109.8 -28.575,0 z m 0,-109.8 z m 1.20125,109.125 -0.6,-0.6 27.37375,0 -0.675,0.6 0,-108.45 0.675,0.6 -27.37375,0 0.6,-0.6"
       style="fill:#ff0000;fill-opacity:1;fill-rule:nonzero;stroke:none"
       id="path6987" />
    <text
       id="text6989"
       x="728.62439"
       y="398.04434"
       style="font-size:15px">
      <tspan
         style="font-size:15px;font-variant:normal;font-weight:normal;font-stretch:normal;writing-mode:lr-tb;fill:#00339a;fill-opacity:1;fill-rule:nonzero;stroke:none;font-family:Trebuchet MS;-inkscape-font-specification:TrebuchetMS"
         x="728.62439"
         y="398.04434"
         id="tspan6991">W</tspan>
    </text>
    <g
       id="g6993"
       transform="matrix(0,1.25,1.25,0,719.625,446.79433)">
      <path
         inkscape:connector-curvature="0"
         d="M 0,0 -16.26,10.92 0,21.9"
         style="fill:#ffffff;fill-opacity:1;fill-rule:evenodd;stroke:none"
         id="path6995" />
    </g>
    <g
       id="g6997"
       transform="matrix(0,1.25,1.25,0,719.1,446.49433)">
      <path
         inkscape:connector-curvature="0"
         d="m 0,0 -16.32,10.98 c -0.12,0.06 -0.18,0.24 -0.18,0.36 0,0.18 0.06,0.36 0.18,0.42 L 0,22.74 0.54,21.9 -15.72,10.98 l 0,0.78 L 0.54,0.84"
         style="fill:#ff0000;fill-opacity:1;fill-rule:nonzero;stroke:none"
         id="path6999" />
    </g>
    <text
       id="text7001"
       x="426.44937"
       y="396.61932"
       style="font-size:15px">
      <tspan
         style="font-size:15px;font-variant:normal;font-weight:bold;font-stretch:normal;writing-mode:lr-tb;fill:#00339a;fill-opacity:1;fill-rule:nonzero;stroke:none;font-family:Trebuchet MS;-inkscape-font-specification:TrebuchetMS-Bold"
         x="426.44937"
         y="396.61932"
         id="tspan7003">+</tspan>
    </text>
    <path
       inkscape:connector-curvature="0"
       d="m 282,345.09433 0,88.125 75.225,0 0,-88.125 -75.225,0 z"
       style="fill:#eaeaea;fill-opacity:1;fill-rule:nonzero;stroke:none"
       id="path7005" />
    <path
       inkscape:connector-curvature="0"
       d="m 280.8,434.49433 0,-90.675 77.7,0 0,90.675 -77.7,0 z m 0,-90.675 z m 2.475,89.4 -1.275,-1.2 75.225,0 -1.275,1.2 0,-88.125 1.275,1.275 -75.225,0 1.275,-1.275"
       style="fill:#000000;fill-opacity:1;fill-rule:nonzero;stroke:none"
       id="path7007" />
    <text
       id="text7009"
       x="302.39938"
       y="394.66934"
       style="font-size:15px">
      <tspan
         style="font-size:15px;font-variant:normal;font-weight:bold;font-stretch:normal;writing-mode:lr-tb;fill:#0070c0;fill-opacity:1;fill-rule:nonzero;stroke:none;font-family:Trebuchet MS;-inkscape-font-specification:TrebuchetMS-Bold"
         x="302.39938 312.44638 321.23337 330.38037"
         y="394.66934"
         sodipodi:role="line"
         id="tspan7011">GPRs</tspan>
    </text>
    <path
       inkscape:connector-curvature="0"
       d="m 446.1,529.44433 0,-2.55 267.3,0 0,2.55 -267.3,0 z m 0,-2.55 z m 266.025,-2.475 7.5,3.75 -7.5,3.75"
       style="fill:#000000;fill-opacity:1;fill-rule:nonzero;stroke:none"
       id="path7013" />
    <g
       id="g7015"
       transform="matrix(0,1.25,1.25,0,411.9,480.69433)">
      <path
         inkscape:connector-curvature="0"
         d="M 0,0 32.58,0 37.98,43.8 43.44,0 75.96,0 54.24,218.82 16.26,218.82 0,0"
         style="fill:#eaeaea;fill-opacity:1;fill-rule:evenodd;stroke:none"
         id="path7017" />
    </g>
    <g
       id="g7019"
       transform="matrix(0,1.25,1.25,0,411.825,481.96933)">
      <path
         inkscape:connector-curvature="0"
         d="m 0,0 -1.02,1.08 32.58,0 L 30.54,0.24 36,43.98 c 0.06,0.48 0.48,0.9 0.96,0.9 0.54,0 0.96,-0.42 1.02,-0.9 l 5.4,-43.74 -0.96,0.84 32.52,0 L 73.92,0 52.26,218.82 l 0.96,-0.9 -37.98,0 1.02,0.9 L 0,0 z m 14.28,219 c 0.06,0.48 0.48,0.9 0.96,0.9 l 37.98,0 c 0.54,0 0.96,-0.42 1.02,-0.9 L 75.96,0.18 c 0,-0.3 -0.06,-0.54 -0.3,-0.78 -0.18,-0.18 -0.42,-0.3 -0.72,-0.3 l -32.52,0 c -0.54,0 -0.96,0.36 -1.02,0.84 l -5.4,43.8 1.98,0 -5.46,-43.8 C 32.46,-0.54 32.04,-0.9 31.56,-0.9 l -32.58,0 c -0.24,0 -0.54,0.12 -0.72,0.3 -0.18,0.24 -0.3,0.48 -0.24,0.78"
         style="fill:#000000;fill-opacity:1;fill-rule:nonzero;stroke:none"
         id="path7021" />
    </g>
    <path
       inkscape:connector-curvature="0"
       d="m 459.82375,473.94433 0,108.45 27.3,0 0,-108.45 -27.3,0 z"
       style="fill:#ffffff;fill-opacity:1;fill-rule:nonzero;stroke:none"
       id="path7023" />
    <path
       inkscape:connector-curvature="0"
       d="m 459.15,583.06933 0,-109.725 28.65,0 0,109.725 -28.65,0 z m 0,-109.725 z m 1.27375,109.05 -0.6,-0.6 27.30125,0 -0.60125,0.6 0,-108.45 0.60125,0.6 -27.30125,0 0.6,-0.6"
       style="fill:#ff0000;fill-opacity:1;fill-rule:nonzero;stroke:none"
       id="path7025" />
    <text
       id="text7027"
       x="466.74936"
       y="533.71936"
       style="font-size:15px">
      <tspan
         style="font-size:15px;font-variant:normal;font-weight:normal;font-stretch:normal;writing-mode:lr-tb;fill:#00339a;fill-opacity:1;fill-rule:nonzero;stroke:none;font-family:Trebuchet MS;-inkscape-font-specification:TrebuchetMS"
         x="466.74936 475.08038"
         y="533.71936"
         sodipodi:role="line"
         id="tspan7029">X2</tspan>
    </text>
    <g
       id="g7031"
       transform="matrix(0,1.25,1.25,0,459.82375,582.39433)">
      <path
         inkscape:connector-curvature="0"
         d="M 0,0 -16.26,10.92 0,21.84"
         style="fill:#ffffff;fill-opacity:1;fill-rule:evenodd;stroke:none"
         id="path7033" />
    </g>
    <g
       id="g7035"
       transform="matrix(0,1.25,1.25,0,459.3,582.09433)">
      <path
         inkscape:connector-curvature="0"
         d="m 0,0 -16.26,10.92 c -0.18,0.12 -0.24,0.24 -0.24,0.42 0,0.18 0.06,0.3 0.24,0.42 L 0,22.68 0.54,21.84 -15.72,10.92 l 0,0.84 L 0.54,0.84"
         style="fill:#ff0000;fill-opacity:1;fill-rule:nonzero;stroke:none"
         id="path7037" />
    </g>
    <path
       inkscape:connector-curvature="0"
       d="m 719.625,473.94433 0,108.45 27.375,0 0,-108.45 -27.375,0 z"
       style="fill:#ffffff;fill-opacity:1;fill-rule:nonzero;stroke:none"
       id="path7039" />
    <path
       inkscape:connector-curvature="0"
       d="m 719.02375,583.06933 0,-109.725 28.575,0 0,109.725 -28.575,0 z m 0,-109.725 z m 1.20125,109.05 -0.6,-0.6 27.37375,0 -0.675,0.6 0,-108.45 0.675,0.6 -27.37375,0 0.6,-0.6"
       style="fill:#ff0000;fill-opacity:1;fill-rule:nonzero;stroke:none"
       id="path7041" />
    <text
       id="text7043"
       x="728.62439"
       y="533.71936"
       style="font-size:15px">
      <tspan
         style="font-size:15px;font-variant:normal;font-weight:normal;font-stretch:normal;writing-mode:lr-tb;fill:#00339a;fill-opacity:1;fill-rule:nonzero;stroke:none;font-family:Trebuchet MS;-inkscape-font-specification:TrebuchetMS"
         x="728.62439"
         y="533.71936"
         id="tspan7045">W</tspan>
    </text>
    <g
       id="g7047"
       transform="matrix(0,1.25,1.25,0,719.625,582.39433)">
      <path
         inkscape:connector-curvature="0"
         d="M 0,0 -16.26,10.92 0,21.9"
         style="fill:#ffffff;fill-opacity:1;fill-rule:evenodd;stroke:none"
         id="path7049" />
    </g>
    <g
       id="g7051"
       transform="matrix(0,1.25,1.25,0,719.1,582.09433)">
      <path
         inkscape:connector-curvature="0"
         d="m 0,0 -16.26,10.98 c -0.18,0.06 -0.24,0.24 -0.24,0.36 0,0.18 0.06,0.36 0.24,0.42 L 0,22.74 0.54,21.9 -15.72,10.98 l 0,0.78 L 0.54,0.84"
         style="fill:#ff0000;fill-opacity:1;fill-rule:nonzero;stroke:none"
         id="path7053" />
    </g>
    <text
       id="text7055"
       x="511.19937"
       y="532.36932"
       style="font-size:15px">
      <tspan
         style="font-size:15px;font-variant:normal;font-weight:normal;font-stretch:normal;writing-mode:lr-tb;fill:#00339a;fill-opacity:1;fill-rule:nonzero;stroke:none;font-family:Trebuchet MS;-inkscape-font-specification:TrebuchetMS"
         x="511.19937 519.05786 526.91638 535.25488"
         y="532.36932"
         sodipodi:role="line"
         id="tspan7057">Fadd</tspan>
    </text>
    <path
       inkscape:connector-curvature="0"
       d="m 589.725,473.94433 0,108.45 27.375,0 0,-108.45 -27.375,0 z"
       style="fill:#ffffff;fill-opacity:1;fill-rule:nonzero;stroke:none"
       id="path7059" />
    <path
       inkscape:connector-curvature="0"
       d="m 589.12375,583.06933 0,-109.725 28.575,0 0,109.725 -28.575,0 z m 0,-109.725 z m 1.20125,109.05 -0.6,-0.6 27.37375,0 -0.67375,0.6 0,-108.45 0.67375,0.6 -27.37375,0 0.6,-0.6"
       style="fill:#ff0000;fill-opacity:1;fill-rule:nonzero;stroke:none"
       id="path7061" />
    <text
       id="text7063"
       x="596.64935"
       y="533.71936"
       style="font-size:15px">
      <tspan
         style="font-size:15px;font-variant:normal;font-weight:normal;font-stretch:normal;writing-mode:lr-tb;fill:#00339a;fill-opacity:1;fill-rule:nonzero;stroke:none;font-family:Trebuchet MS;-inkscape-font-specification:TrebuchetMS"
         x="596.64935 604.98041"
         y="533.71936"
         sodipodi:role="line"
         id="tspan7065">X3</tspan>
    </text>
    <g
       id="g7067"
       transform="matrix(0,1.25,1.25,0,589.725,582.39433)">
      <path
         inkscape:connector-curvature="0"
         d="M 0,0 -16.26,10.92 0,21.9"
         style="fill:#ffffff;fill-opacity:1;fill-rule:evenodd;stroke:none"
         id="path7069" />
    </g>
    <g
       id="g7071"
       transform="matrix(0,1.25,1.25,0,589.19875,582.09433)">
      <path
         inkscape:connector-curvature="0"
         d="m 0,0 -16.26,10.92 c -0.18,0.12 -0.24,0.24 -0.24,0.42 0,0.18 0.06,0.36 0.24,0.42 L 0,22.68 0.54,21.9 -15.72,10.92 l 0,0.84 L 0.54,0.84"
         style="fill:#ff0000;fill-opacity:1;fill-rule:nonzero;stroke:none"
         id="path7073" />
    </g>
    <path
       inkscape:connector-curvature="0"
       d="m 589.725,338.34433 0,108.45 27.375,0 0,-108.45 -27.375,0 z"
       style="fill:#ffffff;fill-opacity:1;fill-rule:nonzero;stroke:none"
       id="path7075" />
    <path
       inkscape:connector-curvature="0"
       d="m 589.12375,447.46933 0,-109.8 28.575,0 0,109.8 -28.575,0 z m 0,-109.8 z m 1.20125,109.125 -0.6,-0.6 27.37375,0 -0.67375,0.6 0,-108.45 0.67375,0.6 -27.37375,0 0.6,-0.6"
       style="fill:#ff0000;fill-opacity:1;fill-rule:nonzero;stroke:none"
       id="path7077" />
    <text
       id="text7079"
       x="596.64935"
       y="398.04434"
       style="font-size:15px">
      <tspan
         style="font-size:15px;font-variant:normal;font-weight:normal;font-stretch:normal;writing-mode:lr-tb;fill:#00339a;fill-opacity:1;fill-rule:nonzero;stroke:none;font-family:Trebuchet MS;-inkscape-font-specification:TrebuchetMS"
         x="596.64935 604.98041"
         y="398.04434"
         sodipodi:role="line"
         id="tspan7081">X3</tspan>
    </text>
    <g
       id="g7083"
       transform="matrix(0,1.25,1.25,0,589.725,446.79433)">
      <path
         inkscape:connector-curvature="0"
         d="M 0,0 -16.26,10.92 0,21.9"
         style="fill:#ffffff;fill-opacity:1;fill-rule:evenodd;stroke:none"
         id="path7085" />
    </g>
    <g
       id="g7087"
       transform="matrix(0,1.25,1.25,0,589.19875,446.49433)">
      <path
         inkscape:connector-curvature="0"
         d="m 0,0 -16.32,10.92 c -0.12,0.12 -0.18,0.24 -0.18,0.42 0,0.18 0.06,0.36 0.18,0.42 L 0,22.68 0.54,21.9 -15.72,10.92 l 0,0.84 L 0.54,0.84"
         style="fill:#ff0000;fill-opacity:1;fill-rule:nonzero;stroke:none"
         id="path7089" />
    </g>
    <path
       inkscape:connector-curvature="0"
       d="m 336.75,554.04433 0,2.475 75.15,0 0,-2.475 -75.15,0 z"
       style="fill:#000000;fill-opacity:1;fill-rule:nonzero;stroke:none"
       id="path7091" />
    <path
       inkscape:connector-curvature="0"
       d="m 350.4,499.81933 0,2.475 61.5,0 0,-2.475 -61.5,0 z"
       style="fill:#000000;fill-opacity:1;fill-rule:nonzero;stroke:none"
       id="path7093" />
    <path
       inkscape:connector-curvature="0"
       d="m 282,480.69433 0,88.2 75.225,0 0,-88.2 -75.225,0 z"
       style="fill:#eaeaea;fill-opacity:1;fill-rule:nonzero;stroke:none"
       id="path7095" />
    <path
       inkscape:connector-curvature="0"
       d="m 280.8,570.09433 0,-90.6 77.7,0 0,90.6 -77.7,0 z m 0,-90.6 z m 2.475,89.4 -1.275,-1.275 75.225,0 -1.275,1.275 0,-88.2 1.275,1.275 -75.225,0 1.275,-1.275"
       style="fill:#000000;fill-opacity:1;fill-rule:nonzero;stroke:none"
       id="path7097" />
    <text
       id="text7099"
       x="302.99936"
       y="530.26935"
       style="font-size:15px">
      <tspan
         style="font-size:15px;font-variant:normal;font-weight:bold;font-stretch:normal;writing-mode:lr-tb;fill:#0070c0;fill-opacity:1;fill-rule:nonzero;stroke:none;font-family:Trebuchet MS;-inkscape-font-specification:TrebuchetMS-Bold"
         x="302.99936 311.73688 320.53436 329.69186"
         y="530.26935"
         sodipodi:role="line"
         id="tspan7101">FPRs</tspan>
    </text>
    <path
       inkscape:connector-curvature="0"
       d="m 364.05,473.94433 0,108.45 27.375,0 0,-108.45 -27.375,0 z"
       style="fill:#ffffff;fill-opacity:1;fill-rule:nonzero;stroke:none"
       id="path7103" />
    <path
       inkscape:connector-curvature="0"
       d="m 363.45,583.06933 0,-109.725 28.575,0 0,109.725 -28.575,0 z m 0,-109.725 z m 1.275,109.05 -0.675,-0.6 27.375,0 -0.6,0.6 0,-108.45 0.6,0.6 -27.375,0 0.675,-0.6"
       style="fill:#ff0000;fill-opacity:1;fill-rule:nonzero;stroke:none"
       id="path7105" />
    <text
       id="text7107"
       x="371.04938"
       y="533.71936"
       style="font-size:15px">
      <tspan
         style="font-size:15px;font-variant:normal;font-weight:normal;font-stretch:normal;writing-mode:lr-tb;fill:#00339a;fill-opacity:1;fill-rule:nonzero;stroke:none;font-family:Trebuchet MS;-inkscape-font-specification:TrebuchetMS"
         x="371.04938 379.38037"
         y="533.71936"
         sodipodi:role="line"
         id="tspan7109">X1</tspan>
    </text>
    <g
       id="g7111"
       transform="matrix(0,1.25,1.25,0,364.05,582.39433)">
      <path
         inkscape:connector-curvature="0"
         d="M 0,0 -16.26,10.98 0,21.9"
         style="fill:#ffffff;fill-opacity:1;fill-rule:evenodd;stroke:none"
         id="path7113" />
    </g>
    <g
       id="g7115"
       transform="matrix(0,1.25,1.25,0,363.525,582.09433)">
      <path
         inkscape:connector-curvature="0"
         d="m 0,0 -16.26,10.98 c -0.18,0.06 -0.24,0.24 -0.24,0.42 0,0.12 0.06,0.3 0.24,0.42 L 0,22.74 0.54,21.9 -15.72,10.98 l 0,0.84 L 0.54,0.84"
         style="fill:#ff0000;fill-opacity:1;fill-rule:nonzero;stroke:none"
         id="path7117" />
    </g>
    <g
       id="g7119"
       transform="matrix(0,1.25,1.25,0,276.45,392.56933)">
      <path
         inkscape:connector-curvature="0"
         d="m 0,0 103.08,0 -1.02,-1.02 0,5.46 1.98,0 0,-5.46 c 0,-0.54 -0.42,-1.02 -0.96,-1.02 L 0,-2.04"
         style="fill:#000000;fill-opacity:1;fill-rule:nonzero;stroke:none"
         id="path7121" />
    </g>
    <g
       id="g7123"
       transform="matrix(0,1.25,1.25,0,411.9,602.79433)">
      <path
         inkscape:connector-curvature="0"
         d="M 0,0 32.52,0 37.98,43.8 43.38,0 75.9,0 54.24,218.82 16.26,218.82 0,0"
         style="fill:#eaeaea;fill-opacity:1;fill-rule:evenodd;stroke:none"
         id="path7125" />
    </g>
    <g
       id="g7127"
       transform="matrix(0,1.25,1.25,0,411.825,603.99433)">
      <path
         inkscape:connector-curvature="0"
         d="m 0,0 -0.96,1.08 32.52,0 L 30.6,0.24 36,43.98 c 0.06,0.48 0.48,0.9 1.02,0.9 0.48,0 0.9,-0.42 0.96,-0.9 l 5.4,-43.74 -0.96,0.84 32.52,0 L 73.98,0 52.26,218.82 l 1.02,-0.9 -37.98,0 1.02,0.9 L 0,0 z m 14.28,219 c 0.06,0.48 0.48,0.9 1.02,0.9 l 37.98,0 c 0.48,0 0.96,-0.42 0.96,-0.9 L 75.96,0.18 c 0,-0.3 -0.06,-0.54 -0.24,-0.78 -0.18,-0.18 -0.48,-0.3 -0.78,-0.3 l -32.52,0 c -0.48,0 -0.96,0.36 -1.02,0.84 l -5.4,43.8 1.98,0 -5.4,-43.8 C 32.52,-0.54 32.1,-0.9 31.56,-0.9 l -32.52,0 c -0.3,0 -0.54,0.12 -0.78,0.3 -0.18,0.24 -0.24,0.48 -0.24,0.78"
         style="fill:#000000;fill-opacity:1;fill-rule:nonzero;stroke:none"
         id="path7129" />
    </g>
    <path
       inkscape:connector-curvature="0"
       d="m 459.82375,595.96933 0,108.525 27.3,0 0,-108.525 -27.3,0 z"
       style="fill:#ffffff;fill-opacity:1;fill-rule:nonzero;stroke:none"
       id="path7131" />
    <path
       inkscape:connector-curvature="0"
       d="m 459.15,705.09433 0,-109.725 28.65,0 0,109.725 -28.65,0 z m 0,-109.725 z m 1.27375,109.125 -0.6,-0.675 27.30125,0 -0.60125,0.675 0,-108.525 0.60125,0.675 -27.30125,0 0.6,-0.675"
       style="fill:#ff0000;fill-opacity:1;fill-rule:nonzero;stroke:none"
       id="path7133" />
    <text
       id="text7135"
       x="466.74936"
       y="655.74432"
       style="font-size:15px">
      <tspan
         style="font-size:15px;font-variant:normal;font-weight:normal;font-stretch:normal;writing-mode:lr-tb;fill:#00339a;fill-opacity:1;fill-rule:nonzero;stroke:none;font-family:Trebuchet MS;-inkscape-font-specification:TrebuchetMS"
         x="466.74936 475.08038"
         y="655.74432"
         sodipodi:role="line"
         id="tspan7137">X2</tspan>
    </text>
    <g
       id="g7139"
       transform="matrix(0,1.25,1.25,0,459.82375,704.49433)">
      <path
         inkscape:connector-curvature="0"
         d="M 0,0 -16.26,10.92 0,21.84"
         style="fill:#ffffff;fill-opacity:1;fill-rule:evenodd;stroke:none"
         id="path7141" />
    </g>
    <g
       id="g7143"
       transform="matrix(0,1.25,1.25,0,459.3,704.11933)">
      <path
         inkscape:connector-curvature="0"
         d="m 0,0 -16.26,10.92 c -0.12,0.12 -0.24,0.24 -0.24,0.42 0,0.18 0.12,0.3 0.24,0.42 L 0,22.68 0.54,21.84 -15.72,10.92 l 0,0.84 L 0.54,0.84"
         style="fill:#ff0000;fill-opacity:1;fill-rule:nonzero;stroke:none"
         id="path7145" />
    </g>
    <text
       id="text7147"
       x="511.79938"
       y="654.39435"
       style="font-size:15px">
      <tspan
         style="font-size:15px;font-variant:normal;font-weight:normal;font-stretch:normal;writing-mode:lr-tb;fill:#00339a;fill-opacity:1;fill-rule:nonzero;stroke:none;font-family:Trebuchet MS;-inkscape-font-specification:TrebuchetMS"
         x="511.79938 519.66388 532.10339 540.2829"
         y="654.39435"
         sodipodi:role="line"
         id="tspan7149">Fmul</tspan>
    </text>
    <path
       inkscape:connector-curvature="0"
       d="m 589.725,595.96933 0,108.525 27.375,0 0,-108.525 -27.375,0 z"
       style="fill:#ffffff;fill-opacity:1;fill-rule:nonzero;stroke:none"
       id="path7151" />
    <path
       inkscape:connector-curvature="0"
       d="m 589.12375,705.09433 0,-109.725 28.575,0 0,109.725 -28.575,0 z m 0,-109.725 z m 1.20125,109.125 -0.6,-0.675 27.37375,0 -0.67375,0.675 0,-108.525 0.67375,0.675 -27.37375,0 0.6,-0.675"
       style="fill:#ff0000;fill-opacity:1;fill-rule:nonzero;stroke:none"
       id="path7153" />
    <text
       id="text7155"
       x="596.64935"
       y="655.74432"
       style="font-size:15px">
      <tspan
         style="font-size:15px;font-variant:normal;font-weight:normal;font-stretch:normal;writing-mode:lr-tb;fill:#00339a;fill-opacity:1;fill-rule:nonzero;stroke:none;font-family:Trebuchet MS;-inkscape-font-specification:TrebuchetMS"
         x="596.64935 604.98041"
         y="655.74432"
         sodipodi:role="line"
         id="tspan7157">X3</tspan>
    </text>
    <g
       id="g7159"
       transform="matrix(0,1.25,1.25,0,589.725,704.49433)">
      <path
         inkscape:connector-curvature="0"
         d="M 0,0 -16.26,10.92 0,21.9"
         style="fill:#ffffff;fill-opacity:1;fill-rule:evenodd;stroke:none"
         id="path7161" />
    </g>
    <g
       id="g7163"
       transform="matrix(0,1.25,1.25,0,589.19875,704.11933)">
      <path
         inkscape:connector-curvature="0"
         d="m 0,0 -16.26,10.92 c -0.12,0.12 -0.24,0.24 -0.24,0.42 0,0.18 0.12,0.36 0.24,0.42 L 0,22.68 0.54,21.9 -15.72,10.92 l 0,0.84 L 0.54,0.84"
         style="fill:#ff0000;fill-opacity:1;fill-rule:nonzero;stroke:none"
         id="path7165" />
    </g>
    <g
       id="g7167"
       transform="matrix(0,1.25,1.25,0,399.525,555.31933)">
      <path
         inkscape:connector-curvature="0"
         d="m 0,0 103.08,0 -1.02,-1.02 0,10.92 1.98,0 0,-10.92 c 0,-0.54 -0.42,-1.02 -0.96,-1.02 L 0,-2.04"
         style="fill:#000000;fill-opacity:1;fill-rule:nonzero;stroke:none"
         id="path7169" />
    </g>
    <g
       id="g7171"
       transform="matrix(0,1.25,1.25,0,406.35,501.01933)">
      <path
         inkscape:connector-curvature="0"
         d="m 0,0 97.68,0 -1.02,-1.02 0,5.46 2.04,0 0,-5.46 c 0,-0.54 -0.48,-0.96 -1.02,-0.96 L 0,-1.98"
         style="fill:#000000;fill-opacity:1;fill-rule:nonzero;stroke:none"
         id="path7173" />
    </g>
    <path
       inkscape:connector-curvature="0"
       d="m 459.82375,711.24433 0,108.525 27.3,0 0,-108.525 -27.3,0 z"
       style="fill:#ffffff;fill-opacity:1;fill-rule:nonzero;stroke:none"
       id="path7175" />
    <path
       inkscape:connector-curvature="0"
       d="m 459.15,820.36933 0,-109.725 28.65,0 0,109.725 -28.65,0 z m 0,-109.725 z m 1.27375,109.125 -0.6,-0.675 27.30125,0 -0.60125,0.675 0,-108.525 0.60125,0.675 -27.30125,0 0.6,-0.675"
       style="fill:#ff0000;fill-opacity:1;fill-rule:nonzero;stroke:none"
       id="path7177" />
    <text
       id="text7179"
       x="466.74936"
       y="771.01935"
       style="font-size:15px">
      <tspan
         style="font-size:15px;font-variant:normal;font-weight:normal;font-stretch:normal;writing-mode:lr-tb;fill:#00339a;fill-opacity:1;fill-rule:nonzero;stroke:none;font-family:Trebuchet MS;-inkscape-font-specification:TrebuchetMS"
         x="466.74936 475.08038"
         y="771.01935"
         sodipodi:role="line"
         id="tspan7181">X2</tspan>
    </text>
    <g
       id="g7183"
       transform="matrix(0,1.25,1.25,0,459.82375,819.76933)">
      <path
         inkscape:connector-curvature="0"
         d="M 0,0 -16.26,10.92 0,21.84"
         style="fill:#ffffff;fill-opacity:1;fill-rule:evenodd;stroke:none"
         id="path7185" />
    </g>
    <g
       id="g7187"
       transform="matrix(0,1.25,1.25,0,459.3,819.39433)">
      <path
         inkscape:connector-curvature="0"
         d="m 0,0 -16.26,10.92 c -0.12,0.12 -0.24,0.24 -0.24,0.42 0,0.18 0.12,0.3 0.24,0.42 L 0,22.68 0.54,21.84 -15.72,10.92 l 0,0.84 L 0.54,0.84"
         style="fill:#ff0000;fill-opacity:1;fill-rule:nonzero;stroke:none"
         id="path7189" />
    </g>
    <g
       id="g7191"
       transform="matrix(0,1.25,1.25,0,399.525,684.16933)">
      <path
         inkscape:connector-curvature="0"
         d="m 0,0 86.76,0 -0.96,-1.02 0,10.92 1.98,0 0,-10.92 c 0,-0.54 -0.48,-1.02 -1.02,-1.02 L 0,-2.04"
         style="fill:#000000;fill-opacity:1;fill-rule:nonzero;stroke:none"
         id="path7193" />
    </g>
    <g
       id="g7195"
       transform="matrix(0,1.25,1.25,0,406.35,623.11933)">
      <path
         inkscape:connector-curvature="0"
         d="m 0,0 92.22,0 -1.02,-1.02 0,5.46 2.04,0 0,-5.46 c 0,-0.54 -0.48,-0.96 -1.02,-0.96 L 0,-1.98"
         style="fill:#000000;fill-opacity:1;fill-rule:nonzero;stroke:none"
         id="path7197" />
    </g>
    <path
       inkscape:connector-curvature="0"
       d="m 410.7,820.96933 0,-110.925 43.5,0 0,110.925 -43.5,0 z m 0,-110.925 z m 2.475,109.725 -1.275,-1.275 41.02375,0 -1.19875,1.275 0,-108.525 1.19875,1.275 -41.02375,0 1.275,-1.275"
       style="fill:#000000;fill-opacity:1;fill-rule:nonzero;stroke:none"
       id="path7199" />
    <text
       id="text7201"
       x="420.89938"
       y="771.01935"
       style="font-size:15px">
      <tspan
         style="font-size:15px;font-variant:normal;font-weight:normal;font-stretch:normal;writing-mode:lr-tb;fill:#00339a;fill-opacity:1;fill-rule:nonzero;stroke:none;font-family:Trebuchet MS;-inkscape-font-specification:TrebuchetMS"
         x="420.89938 428.78036 437.98138 442.26239"
         y="771.01935"
         sodipodi:role="line"
         id="tspan7203">FDiv</tspan>
    </text>
    <path
       inkscape:connector-curvature="0"
       d="m 589.725,711.24433 0,108.525 27.375,0 0,-108.525 -27.375,0 z"
       style="fill:#ffffff;fill-opacity:1;fill-rule:nonzero;stroke:none"
       id="path7205" />
    <path
       inkscape:connector-curvature="0"
       d="m 589.12375,820.36933 0,-109.725 28.575,0 0,109.725 -28.575,0 z m 0,-109.725 z m 1.20125,109.125 -0.6,-0.675 27.37375,0 -0.67375,0.675 0,-108.525 0.67375,0.675 -27.37375,0 0.6,-0.675"
       style="fill:#ff0000;fill-opacity:1;fill-rule:nonzero;stroke:none"
       id="path7207" />
    <text
       id="text7209"
       x="596.64935"
       y="771.01935"
       style="font-size:15px">
      <tspan
         style="font-size:15px;font-variant:normal;font-weight:normal;font-stretch:normal;writing-mode:lr-tb;fill:#00339a;fill-opacity:1;fill-rule:nonzero;stroke:none;font-family:Trebuchet MS;-inkscape-font-specification:TrebuchetMS"
         x="596.64935 604.98041"
         y="771.01935"
         sodipodi:role="line"
         id="tspan7211">X3</tspan>
    </text>
    <g
       id="g7213"
       transform="matrix(0,1.25,1.25,0,589.725,819.76933)">
      <path
         inkscape:connector-curvature="0"
         d="M 0,0 -16.26,10.92 0,21.9"
         style="fill:#ffffff;fill-opacity:1;fill-rule:evenodd;stroke:none"
         id="path7215" />
    </g>
    <g
       id="g7217"
       transform="matrix(0,1.25,1.25,0,589.19875,819.39433)">
      <path
         inkscape:connector-curvature="0"
         d="m 0,0 -16.26,10.92 c -0.12,0.12 -0.24,0.24 -0.24,0.42 0,0.18 0.12,0.36 0.24,0.42 L 0,22.68 0.54,21.9 -15.72,10.92 l 0,0.84 L 0.54,0.84"
         style="fill:#ff0000;fill-opacity:1;fill-rule:nonzero;stroke:none"
         id="path7219" />
    </g>
    <path
       inkscape:connector-curvature="0"
       d="m 685.42375,648.99433 0,2.475 13.725,0 0,-2.475 -13.725,0 z"
       style="fill:#000000;fill-opacity:1;fill-rule:nonzero;stroke:none"
       id="path7221" />
    <text
       id="text7223"
       x="489.29938"
       y="736.44434"
       style="font-size:15px">
      <tspan
         style="font-size:15px;font-style:italic;font-variant:normal;font-weight:normal;font-stretch:normal;writing-mode:lr-tb;fill:#00339a;fill-opacity:1;fill-rule:nonzero;stroke:none;font-family:Trebuchet MS;-inkscape-font-specification:TrebuchetMS-Italic"
         x="489.29938 498.99838 507.16739 515.5014 520.08539 528.41937 536.45337 541.23236 545.81641 553.98535 562.01935 570.35339"
         y="736.44434"
         sodipodi:role="line"
         id="tspan7225">Unpipelined</tspan>
      <tspan
         style="font-size:15px;font-style:italic;font-variant:normal;font-weight:normal;font-stretch:normal;writing-mode:lr-tb;fill:#00339a;fill-opacity:1;fill-rule:nonzero;stroke:none;font-family:Trebuchet MS;-inkscape-font-specification:TrebuchetMS-Italic"
         x="489.29938 497.63037 502.2114 509.53738 514.11841 522.4494 530.48041"
         y="754.44434"
         sodipodi:role="line"
         id="tspan7227">divider</tspan>
    </text>
    <g
       id="g7229"
       transform="matrix(0,1.2030781,1.25,0,699.06071,503.47647)">
      <path
         inkscape:connector-curvature="0"
         d="m 0,0 0,-5.52 c 0,-0.54 -0.48,-0.96 -1.02,-0.96 l -92.22,0 0,1.98 92.22,0 -1.02,-1.02 0,5.52"
         style="fill:#000000;fill-opacity:1;fill-rule:nonzero;stroke:none"
         id="path7231" />
    </g>
    <path
       inkscape:connector-curvature="0"
       d="m 708.74875,311.19433 0,5.625 -5.625,0 0,-5.625 5.625,0 z m 0,11.25 0,5.625 -5.625,0 0,-5.625 5.625,0 z m 0,11.25 0,5.625 -5.625,0 0,-5.625 5.625,0 z m 0,11.25 0,5.625 -5.625,0 0,-5.625 5.625,0 z m 0,11.25 0,5.625 -5.625,0 0,-5.625 5.625,0 z m 0,11.25 0,5.625 -5.625,0 0,-5.625 5.625,0 z m 0,11.25 0,5.625 -5.625,0 0,-5.625 5.625,0 z m 0,11.25 0,5.625 -5.625,0 0,-5.625 5.625,0 z m 0,11.25 0,5.625 -5.625,0 0,-5.625 5.625,0 z m 0,11.25 0,5.625 -5.625,0 0,-5.625 5.625,0 z m 0,11.25 0,5.625 -5.625,0 0,-5.625 5.625,0 z m 0,11.25 0,5.625 -5.625,0 0,-5.625 5.625,0 z m 0,11.25 0,5.625 -5.625,0 0,-5.625 5.625,0 z m 0,11.25 0,5.625 -5.625,0 0,-5.625 5.625,0 z m 0,11.25 0,5.625 -5.625,0 0,-5.625 5.625,0 z m 0,11.25 0,5.625 -5.625,0 0,-5.625 5.625,0 z m 0,11.25 0,5.625 -5.625,0 0,-5.625 5.625,0 z m 0,11.25 0,5.625 -5.625,0 0,-5.625 5.625,0 z m 0,11.25 0,5.625 -5.625,0 0,-5.625 5.625,0 z m 0,11.25 0,5.625 -5.625,0 0,-5.625 5.625,0 z m 0,11.25 0,5.625 -5.625,0 0,-5.625 5.625,0 z m 0,11.25 0,5.625 -5.625,0 0,-5.625 5.625,0 z m 0,11.25 0,5.625 -5.625,0 0,-5.625 5.625,0 z m 0,11.25 0,5.625 -5.625,0 0,-5.625 5.625,0 z m 0,11.25 0,5.625 -5.625,0 0,-5.625 5.625,0 z m 0,11.25 0,5.625 -5.625,0 0,-5.625 5.625,0 z m 0,11.25 0,5.625 -5.625,0 0,-5.625 5.625,0 z m 0,11.25 0,5.625 -5.625,0 0,-5.625 5.625,0 z m 0,11.25 0,5.625 -5.625,0 0,-5.625 5.625,0 z m 0,11.25 0,5.625 -5.625,0 0,-5.625 5.625,0 z m 0,11.25 0,5.625 -5.625,0 0,-5.625 5.625,0 z m 0,11.25 0,5.625 -5.625,0 0,-5.625 5.625,0 z m 0,11.25 0,5.625 -5.625,0 0,-5.625 5.625,0 z"
       style="fill:#336699;fill-opacity:1;fill-rule:nonzero;stroke:none"
       id="path7235" />
    <g
       id="g7237"
       transform="matrix(0,1.25,1.25,0,495.22375,392.56933)">
      <path
         inkscape:connector-curvature="0"
         d="m 0,0 37.98,0 -1.02,-0.96 0,71.1 1.02,-1.02 -37.98,0 0,1.98 37.98,0 c 0.54,0 0.96,-0.42 0.96,-0.96 l 0,-71.1 c 0,-0.6 -0.42,-1.02 -0.96,-1.02 L 0,-1.98"
         style="fill:#000000;fill-opacity:1;fill-rule:nonzero;stroke:none"
         id="path7239" />
    </g>
  </g>
</svg>
