<?xml version="1.0" encoding="UTF-8" standalone="no"?>
<!-- Created with Inkscape (http://www.inkscape.org/) -->

<svg
   xmlns:dc="http://purl.org/dc/elements/1.1/"
   xmlns:cc="http://creativecommons.org/ns#"
   xmlns:rdf="http://www.w3.org/1999/02/22-rdf-syntax-ns#"
   xmlns:svg="http://www.w3.org/2000/svg"
   xmlns="http://www.w3.org/2000/svg"
   xmlns:sodipodi="http://sodipodi.sourceforge.net/DTD/sodipodi-0.dtd"
   xmlns:inkscape="http://www.inkscape.org/namespaces/inkscape"
   width="292.54999"
   height="470.97501"
   id="svg4285"
   version="1.1"
   inkscape:version="0.48.4 r9939"
   sodipodi:docname="New document 7">
  <defs
     id="defs4287">
    <clipPath
       id="clipPath4435"
       clipPathUnits="userSpaceOnUse">
      <path
         id="path4437"
         d="m 501.72,451.011 8.7,0 0,7.86 -8.7,0 0,-7.86 z"
         inkscape:connector-curvature="0" />
    </clipPath>
    <clipPath
       id="clipPath4313"
       clipPathUnits="userSpaceOnUse">
      <path
         id="path4315"
         d="m 0,841.98 595.2,0 L 595.2,0 0,0 0,841.98 z"
         inkscape:connector-curvature="0" />
    </clipPath>
    <clipPath
       id="clipPath4307"
       clipPathUnits="userSpaceOnUse">
      <path
         id="path4309"
         clip-rule="evenodd"
         d="m 567.48,61.011 -540,0 0,720 540,0 0,-720 z"
         inkscape:connector-curvature="0" />
    </clipPath>
  </defs>
  <sodipodi:namedview
     id="base"
     pagecolor="#ffffff"
     bordercolor="#666666"
     borderopacity="1.0"
     inkscape:pageopacity="0.0"
     inkscape:pageshadow="2"
     inkscape:zoom="0.98994949"
     inkscape:cx="193.5948"
     inkscape:cy="101.38782"
     inkscape:document-units="px"
     inkscape:current-layer="layer1"
     showgrid="false"
     fit-margin-top="10"
     fit-margin-left="10"
     fit-margin-right="10"
     fit-margin-bottom="10"
     inkscape:window-width="954"
     inkscape:window-height="1028"
     inkscape:window-x="0"
     inkscape:window-y="0"
     inkscape:window-maximized="0" />
  <metadata
     id="metadata4290">
    <rdf:RDF>
      <cc:Work
         rdf:about="">
        <dc:format>image/svg+xml</dc:format>
        <dc:type
           rdf:resource="http://purl.org/dc/dcmitype/StillImage" />
        <dc:title></dc:title>
      </cc:Work>
    </rdf:RDF>
  </metadata>
  <g
     inkscape:label="Layer 1"
     inkscape:groupmode="layer"
     id="layer1"
     transform="translate(-338.92857,-278.37647)">
    <g
       id="g4327"
       transform="matrix(0,1.25,1.25,0,582.77857,292.42647)">
      <path
         inkscape:connector-curvature="0"
         d="M 0,0 94.5,-53.64"
         style="fill:none;stroke:#000000;stroke-width:0.90799999;stroke-linecap:round;stroke-linejoin:round;stroke-miterlimit:10;stroke-opacity:1;stroke-dasharray:none"
         id="path4329" />
      <g
         id="g4331"
         transform="translate(230.34,0)">
        <path
           inkscape:connector-curvature="0"
           d="M 0,0 94.44,-53.64"
           style="fill:none;stroke:#000000;stroke-width:0.90799999;stroke-linecap:round;stroke-linejoin:round;stroke-miterlimit:10;stroke-opacity:1;stroke-dasharray:none"
           id="path4333" />
        <g
           id="g4335"
           transform="translate(0,-130.8)">
          <path
             inkscape:connector-curvature="0"
             d="M 0,0 94.44,-53.52"
             style="fill:none;stroke:#000000;stroke-width:0.90799999;stroke-linecap:round;stroke-linejoin:round;stroke-miterlimit:10;stroke-opacity:1;stroke-dasharray:none"
             id="path4337" />
          <g
             id="g4339"
             transform="translate(-230.34,0)">
            <path
               inkscape:connector-curvature="0"
               d="M 0,0 94.5,-53.52"
               style="fill:none;stroke:#000000;stroke-width:0.90799999;stroke-linecap:round;stroke-linejoin:round;stroke-miterlimit:10;stroke-opacity:1;stroke-dasharray:none"
               id="path4341" />
            <g
               id="g4343"
               transform="translate(230.64,130.68)">
              <path
                 inkscape:connector-curvature="0"
                 d="M 0,0 -230.76,0.12"
                 style="fill:none;stroke:#000000;stroke-width:0.90799999;stroke-linecap:round;stroke-linejoin:round;stroke-miterlimit:10;stroke-opacity:1;stroke-dasharray:none"
                 id="path4345" />
              <g
                 id="g4347"
                 transform="translate(0,-130.68)">
                <path
                   inkscape:connector-curvature="0"
                   d="M 0,0 -230.76,0"
                   style="fill:none;stroke:#000000;stroke-width:0.90799999;stroke-linecap:round;stroke-linejoin:round;stroke-miterlimit:10;stroke-opacity:1;stroke-dasharray:none"
                   id="path4349" />
                <g
                   id="g4351"
                   transform="translate(-230.76,130.8)">
                  <path
                     inkscape:connector-curvature="0"
                     d="M 0,0 0.3,-130.8"
                     style="fill:none;stroke:#000000;stroke-width:0.90799999;stroke-linecap:round;stroke-linejoin:round;stroke-miterlimit:10;stroke-opacity:1;stroke-dasharray:none"
                     id="path4353" />
                  <g
                     id="g4355"
                     transform="translate(230.46,0)">
                    <path
                       inkscape:connector-curvature="0"
                       d="M 0,0 0.3,-130.8"
                       style="fill:none;stroke:#000000;stroke-width:0.90799999;stroke-linecap:round;stroke-linejoin:round;stroke-miterlimit:10;stroke-opacity:1;stroke-dasharray:none"
                       id="path4357" />
                    <g
                       id="g4359"
                       transform="translate(94.44,-53.64)">
                      <path
                         inkscape:connector-curvature="0"
                         d="M 0,0 -230.64,0"
                         style="fill:none;stroke:#000000;stroke-width:0.90799999;stroke-linecap:round;stroke-linejoin:round;stroke-miterlimit:10;stroke-opacity:1;stroke-dasharray:none"
                         id="path4361" />
                      <g
                         id="g4363"
                         transform="translate(0,-130.68)">
                        <path
                           inkscape:connector-curvature="0"
                           d="M 0,0 -230.64,0.12"
                           style="fill:none;stroke:#000000;stroke-width:0.90799999;stroke-linecap:round;stroke-linejoin:round;stroke-miterlimit:10;stroke-opacity:1;stroke-dasharray:none"
                           id="path4365" />
                        <g
                           id="g4367"
                           transform="translate(-230.64,130.68)">
                          <path
                             inkscape:connector-curvature="0"
                             d="M 0,0 0.36,-130.68"
                             style="fill:none;stroke:#000000;stroke-width:0.90799999;stroke-linecap:round;stroke-linejoin:round;stroke-miterlimit:10;stroke-opacity:1;stroke-dasharray:none"
                             id="path4369" />
                          <g
                             id="g4371"
                             transform="translate(230.52,0)">
                            <path
                               inkscape:connector-curvature="0"
                               d="M 0,0 0.12,-130.68"
                               style="fill:none;stroke:#000000;stroke-width:0.90799999;stroke-linecap:round;stroke-linejoin:round;stroke-miterlimit:10;stroke-opacity:1;stroke-dasharray:none"
                               id="path4373" />
                          </g>
                        </g>
                      </g>
                    </g>
                  </g>
                </g>
              </g>
            </g>
          </g>
        </g>
      </g>
    </g>
    <path
       inkscape:connector-curvature="0"
       d="m 439.15232,315.97647 0,20.4 18.75,0 0,-20.4 -18.75,0 z"
       style="fill:#000000;fill-opacity:1;fill-rule:nonzero;stroke:none"
       id="path4375" />
    <g
       id="g4377"
       transform="matrix(0,1.25,1.25,0,420.40232,295.27647)">
      <path
         inkscape:connector-curvature="0"
         d="M 0,0 20.64,18.78"
         style="fill:none;stroke:#000000;stroke-width:0.90799999;stroke-linecap:round;stroke-linejoin:round;stroke-miterlimit:10;stroke-opacity:1;stroke-dasharray:none"
         id="path4379" />
    </g>
    <g
       id="g4381"
       transform="matrix(0,1.25,1.25,0,425.50357,295.42647)">
      <path
         inkscape:connector-curvature="0"
         d="m 0,0 c -2.34,0 -4.26,-1.74 -4.26,-3.9 0,-2.16 1.92,-3.9 4.26,-3.9 2.34,0 4.26,1.74 4.26,3.9 C 4.26,-1.74 2.34,0 0,0"
         style="fill:#ff0000;fill-opacity:1;fill-rule:evenodd;stroke:none"
         id="path4383" />
    </g>
    <path
       inkscape:connector-curvature="0"
       d="m 599.87857,314.25147 0,20.475 18.75,0 0,-20.475 -18.75,0 z"
       style="fill:#000000;fill-opacity:1;fill-rule:nonzero;stroke:none"
       id="path4385" />
    <g
       id="g4387"
       transform="matrix(0,1.25,1.25,0,581.12857,293.55147)">
      <path
         inkscape:connector-curvature="0"
         d="M 0,0 20.64,18.78"
         style="fill:none;stroke:#000000;stroke-width:0.90799999;stroke-linecap:round;stroke-linejoin:round;stroke-miterlimit:10;stroke-opacity:1;stroke-dasharray:none"
         id="path4389" />
    </g>
    <g
       id="g4391"
       transform="matrix(0,1.25,1.25,0,586.00357,293.77647)">
      <path
         inkscape:connector-curvature="0"
         d="m 0,0 c -2.4,0 -4.32,-1.74 -4.32,-3.78 0,-2.1 1.92,-3.84 4.32,-3.84 2.34,0 4.26,1.74 4.26,3.84 C 4.26,-1.74 2.34,0 0,0"
         style="fill:#ff0000;fill-opacity:1;fill-rule:evenodd;stroke:none"
         id="path4393" />
    </g>
    <path
       inkscape:connector-curvature="0"
       d="m 603.10357,598.72647 0,20.625 18.375,0 0,-20.625 -18.375,0 z"
       style="fill:#000000;fill-opacity:1;fill-rule:nonzero;stroke:none"
       id="path4395" />
    <g
       id="g4397"
       transform="matrix(0,1.25,1.25,0,584.35357,578.02647)">
      <path
         inkscape:connector-curvature="0"
         d="M 0,0 20.64,18.78"
         style="fill:none;stroke:#000000;stroke-width:0.90799999;stroke-linecap:round;stroke-linejoin:round;stroke-miterlimit:10;stroke-opacity:1;stroke-dasharray:none"
         id="path4399" />
    </g>
    <g
       id="g4401"
       transform="matrix(0,1.25,1.25,0,589.22732,578.25147)">
      <path
         inkscape:connector-curvature="0"
         d="m 0,0 c -2.4,0 -4.32,-1.74 -4.32,-3.78 0,-2.1 1.92,-3.84 4.32,-3.84 2.34,0 4.26,1.74 4.26,3.84 C 4.26,-1.74 2.34,0 0,0"
         style="fill:#ff0000;fill-opacity:1;fill-rule:evenodd;stroke:none"
         id="path4403" />
    </g>
    <path
       inkscape:connector-curvature="0"
       d="m 437.80232,599.70147 0,20.625 18.75,0 0,-20.625 -18.75,0 z"
       style="fill:#000000;fill-opacity:1;fill-rule:nonzero;stroke:none"
       id="path4405" />
    <g
       id="g4407"
       transform="matrix(0,1.25,1.25,0,419.05357,579.00147)">
      <path
         inkscape:connector-curvature="0"
         d="M 0,0 20.64,18.78"
         style="fill:none;stroke:#000000;stroke-width:0.90799999;stroke-linecap:round;stroke-linejoin:round;stroke-miterlimit:10;stroke-opacity:1;stroke-dasharray:none"
         id="path4409" />
    </g>
    <g
       id="g4411"
       transform="matrix(0,1.25,1.25,0,424.00232,579.15147)">
      <path
         inkscape:connector-curvature="0"
         d="m 0,0 c -2.34,0 -4.26,-1.74 -4.26,-3.9 0,-2.16 1.92,-3.9 4.26,-3.9 2.34,0 4.26,1.74 4.26,3.9 C 4.26,-1.74 2.34,0 0,0"
         style="fill:#ff0000;fill-opacity:1;fill-rule:evenodd;stroke:none"
         id="path4413" />
    </g>
    <path
       inkscape:connector-curvature="0"
       d="m 534.70232,431.55147 0,20.625 18.75,0 0,-20.625 -18.75,0 z"
       style="fill:#000000;fill-opacity:1;fill-rule:nonzero;stroke:none"
       id="path4415" />
    <g
       id="g4417"
       transform="matrix(0,1.25,1.25,0,515.87732,411.07647)">
      <path
         inkscape:connector-curvature="0"
         d="M 0,0 20.64,18.84"
         style="fill:none;stroke:#000000;stroke-width:0.90799999;stroke-linecap:round;stroke-linejoin:round;stroke-miterlimit:10;stroke-opacity:1;stroke-dasharray:none"
         id="path4419" />
    </g>
    <g
       id="g4421"
       transform="matrix(0,1.25,1.25,0,520.82857,411.15147)">
      <path
         inkscape:connector-curvature="0"
         d="m 0,0 c -2.28,0 -4.2,-1.74 -4.2,-3.78 0,-2.1 1.92,-3.84 4.2,-3.84 2.34,0 4.2,1.74 4.2,3.84 C 4.2,-1.74 2.34,0 0,0"
         style="fill:#ff0000;fill-opacity:1;fill-rule:evenodd;stroke:none"
         id="path4423" />
    </g>
    <path
       inkscape:connector-curvature="0"
       d="m 372.25357,719.25147 0,20.1 18.975,0 0,-20.1 -18.975,0 z"
       style="fill:#000000;fill-opacity:1;fill-rule:nonzero;stroke:none"
       id="path4425" />
    <g
       id="g4427"
       transform="matrix(0,1.25,1.25,0,353.65357,698.62647)">
      <path
         inkscape:connector-curvature="0"
         d="M 0,0 20.58,18.66"
         style="fill:none;stroke:#000000;stroke-width:0.90799999;stroke-linecap:round;stroke-linejoin:round;stroke-miterlimit:10;stroke-opacity:1;stroke-dasharray:none"
         id="path4429" />
    </g>
    <g
       id="g4431"
       transform="matrix(0,1.25,1.25,0,-214.83518,66.226468)">
      <g
         id="g4433"
         clip-path="url(#clipPath4435)">
        <g
           id="g4439"
           transform="translate(506.04,458.751)">
          <path
             inkscape:connector-curvature="0"
             d="m 0,0 c -2.4,0 -4.32,-1.74 -4.32,-3.9 0,-2.16 1.92,-3.9 4.32,-3.9 2.34,0 4.26,1.74 4.26,3.9 C 4.26,-1.74 2.34,0 0,0"
             style="fill:#ff0000;fill-opacity:1;fill-rule:evenodd;stroke:none"
             id="path4441" />
        </g>
      </g>
    </g>
    <path
       inkscape:connector-curvature="0"
       d="m 373.00357,429.82647 0,20.7 18.75,0 0,-20.7 -18.75,0 z"
       style="fill:#000000;fill-opacity:1;fill-rule:nonzero;stroke:none"
       id="path4443" />
    <g
       id="g4445"
       transform="matrix(0,1.25,1.25,0,354.25357,409.35147)">
      <path
         inkscape:connector-curvature="0"
         d="M 0,0 20.64,18.78"
         style="fill:none;stroke:#000000;stroke-width:0.90799999;stroke-linecap:round;stroke-linejoin:round;stroke-miterlimit:10;stroke-opacity:1;stroke-dasharray:none"
         id="path4447" />
    </g>
    <g
       id="g4449"
       transform="matrix(0,1.25,1.25,0,359.12857,409.57647)">
      <path
         inkscape:connector-curvature="0"
         d="m 0,0 c -2.4,0 -4.32,-1.74 -4.32,-3.78 0,-2.1 1.92,-3.84 4.32,-3.84 2.34,0 4.26,1.74 4.26,3.84 C 4.26,-1.74 2.34,0 0,0"
         style="fill:#ff0000;fill-opacity:1;fill-rule:evenodd;stroke:none"
         id="path4451" />
    </g>
    <path
       inkscape:connector-curvature="0"
       d="m 534.32857,717.37647 0,20.625 18.75,0 0,-20.625 -18.75,0 z"
       style="fill:#000000;fill-opacity:1;fill-rule:nonzero;stroke:none"
       id="path4453" />
    <g
       id="g4455"
       transform="matrix(0,1.25,1.25,0,515.50357,696.90147)">
      <path
         inkscape:connector-curvature="0"
         d="M 0,0 20.64,18.66"
         style="fill:none;stroke:#000000;stroke-width:0.90799999;stroke-linecap:round;stroke-linejoin:round;stroke-miterlimit:10;stroke-opacity:1;stroke-dasharray:none"
         id="path4457" />
    </g>
    <g
       id="g4459"
       transform="matrix(0,1.25,1.25,0,520.45232,697.05147)">
      <path
         inkscape:connector-curvature="0"
         d="m 0,0 c -2.34,0 -4.26,-1.74 -4.26,-3.9 0,-2.16 1.92,-3.9 4.26,-3.9 2.34,0 4.26,1.74 4.26,3.9 C 4.26,-1.74 2.34,0 0,0"
         style="fill:#ff0000;fill-opacity:1;fill-rule:evenodd;stroke:none"
         id="path4461" />
    </g>
    <g
       id="g4463"
       transform="matrix(0,1.25,1.25,0,356.50357,411.67647)">
      <path
         inkscape:connector-curvature="0"
         d="M 0,0 52.74,28.08"
         style="fill:none;stroke:#000000;stroke-width:0.90799999;stroke-linecap:round;stroke-linejoin:round;stroke-miterlimit:10;stroke-opacity:1;stroke-dasharray:none"
         id="path4465" />
      <g
         id="g4467"
         transform="translate(22.74,60.66)">
        <path
           inkscape:connector-curvature="0"
           d="M 0,0 -114.06,-9.84"
           style="fill:none;stroke:#000000;stroke-width:0.90799999;stroke-linecap:round;stroke-linejoin:round;stroke-miterlimit:10;stroke-opacity:1;stroke-dasharray:none"
           id="path4469" />
        <g
           id="g4471"
           transform="translate(-7.62,75.84)">
          <path
             inkscape:connector-curvature="0"
             d="M 4.8487322,2.4243661 -108.24,43.2"
             style="fill:none;stroke:#000000;stroke-width:0.90799999;stroke-linecap:round;stroke-linejoin:round;stroke-miterlimit:10;stroke-opacity:1;stroke-dasharray:none"
             id="path4473"
             sodipodi:nodetypes="cc" />
          <g
             id="g4475"
             transform="translate(37.92,-30.36)">
            <path
               inkscape:connector-curvature="0"
               d="M 0,0 -50.615634,19.507512"
               style="fill:none;stroke:#000000;stroke-width:0.90799999;stroke-linecap:round;stroke-linejoin:round;stroke-miterlimit:10;stroke-opacity:1;stroke-dasharray:none"
               id="path4477"
               sodipodi:nodetypes="cc" />
            <g
               id="g4479"
               transform="translate(-33.66,32.46)">
              <path
                 inkscape:connector-curvature="0"
                 d="M 0,0 32.58,-32.46"
                 style="fill:none;stroke:#000000;stroke-width:0.90799999;stroke-linecap:round;stroke-linejoin:round;stroke-miterlimit:10;stroke-opacity:1;stroke-dasharray:none"
                 id="path4481" />
              <g
                 id="g4483"
                 transform="translate(79.32,0)">
                <path
                   inkscape:connector-curvature="0"
                   d="M 0,0 32.46,-32.46"
                   style="fill:none;stroke:#000000;stroke-width:0.90799999;stroke-linecap:round;stroke-linejoin:round;stroke-miterlimit:10;stroke-opacity:1;stroke-dasharray:none"
                   id="path4485" />
                <g
                   id="g4487"
                   transform="translate(0,-79.14)">
                  <path
                     inkscape:connector-curvature="0"
                     d="M 0,0 32.46,-32.64"
                     style="fill:none;stroke:#000000;stroke-width:0.90799999;stroke-linecap:round;stroke-linejoin:round;stroke-miterlimit:10;stroke-opacity:1;stroke-dasharray:none"
                     id="path4489" />
                  <g
                     id="g4491"
                     transform="translate(-79.32,0)">
                    <path
                       inkscape:connector-curvature="0"
                       d="M 0,0 32.58,-32.64"
                       style="fill:none;stroke:#000000;stroke-width:0.90799999;stroke-linecap:round;stroke-linejoin:round;stroke-miterlimit:10;stroke-opacity:1;stroke-dasharray:none"
                       id="path4493" />
                    <g
                       id="g4495"
                       transform="translate(79.32,79.14)">
                      <path
                         inkscape:connector-curvature="0"
                         d="M 0,0 -79.32,0"
                         style="fill:none;stroke:#000000;stroke-width:0.90799999;stroke-linecap:round;stroke-linejoin:round;stroke-miterlimit:10;stroke-opacity:1;stroke-dasharray:none"
                         id="path4497" />
                      <g
                         id="g4499"
                         transform="translate(0,-79.32)">
                        <path
                           inkscape:connector-curvature="0"
                           d="M 0,0 -79.32,0.18"
                           style="fill:none;stroke:#000000;stroke-width:0.90799999;stroke-linecap:round;stroke-linejoin:round;stroke-miterlimit:10;stroke-opacity:1;stroke-dasharray:none"
                           id="path4501" />
                        <g
                           id="g4503"
                           transform="translate(-79.32,79.32)">
                          <path
                             inkscape:connector-curvature="0"
                             d="M 0,0 18.18,18.06"
                             style="fill:none;stroke:#000000;stroke-width:0.90799999;stroke-linecap:round;stroke-linejoin:round;stroke-miterlimit:10;stroke-opacity:1;stroke-dasharray:none"
                             id="path4505" />
                        </g>
                      </g>
                    </g>
                  </g>
                </g>
              </g>
            </g>
          </g>
        </g>
      </g>
    </g>
    <path
       inkscape:connector-curvature="0"
       d="m 547.75232,453.90147 0,18.225 18,0 0,-18.225 -18,0 z"
       style="fill:#000000;fill-opacity:1;fill-rule:nonzero;stroke:none"
       id="path4507" />
    <g
       id="g4509"
       transform="matrix(0,1.25,1.25,0,529.75357,435.90147)">
      <path
         inkscape:connector-curvature="0"
         d="M 0,0 0.18,-79.32"
         style="fill:none;stroke:#000000;stroke-width:0.90799999;stroke-linecap:round;stroke-linejoin:round;stroke-miterlimit:10;stroke-opacity:1;stroke-dasharray:none"
         id="path4511" />
    </g>
    <g
       id="g4513"
       transform="matrix(0,1.25,1.25,0,534.47857,436.20147)">
      <path
         inkscape:connector-curvature="0"
         d="m 0,0 c -2.1,0 -3.78,-1.68 -3.78,-3.72 0,-2.1 1.68,-3.78 3.78,-3.78 2.04,0 3.72,1.68 3.72,3.78 C 3.72,-1.68 2.04,0 0,0"
         style="fill:#ff0000;fill-opacity:1;fill-rule:evenodd;stroke:none"
         id="path4515" />
    </g>
    <g
       id="g4517"
       transform="matrix(0,1.25,1.25,0,529.75357,535.05147)">
      <path
         inkscape:connector-curvature="0"
         d="M 0,0 18.06,18.06"
         style="fill:none;stroke:#000000;stroke-width:0.90799999;stroke-linecap:round;stroke-linejoin:round;stroke-miterlimit:10;stroke-opacity:1;stroke-dasharray:none"
         id="path4519" />
    </g>
    <path
       inkscape:connector-curvature="0"
       d="m 547.75232,553.05147 0,18 18,0 0,-18 -18,0 z"
       style="fill:#000000;fill-opacity:1;fill-rule:nonzero;stroke:none"
       id="path4521" />
    <g
       id="g4523"
       transform="matrix(0,1.25,1.25,0,529.75357,535.05147)">
      <path
         inkscape:connector-curvature="0"
         d="M 0,0 0,-79.32"
         style="fill:none;stroke:#000000;stroke-width:0.90799999;stroke-linecap:round;stroke-linejoin:round;stroke-miterlimit:10;stroke-opacity:1;stroke-dasharray:none"
         id="path4525" />
    </g>
    <path
       inkscape:connector-curvature="0"
       d="m 448.60232,553.05147 0,18 18.225,0 0,-18 -18.225,0 z"
       style="fill:#000000;fill-opacity:1;fill-rule:nonzero;stroke:none"
       id="path4527" />
    <g
       id="g4529"
       transform="matrix(0,1.25,1.25,0,430.60357,535.05147)">
      <path
         inkscape:connector-curvature="0"
         d="M 0,0 18.06,18.06"
         style="fill:none;stroke:#000000;stroke-width:0.90799999;stroke-linecap:round;stroke-linejoin:round;stroke-miterlimit:10;stroke-opacity:1;stroke-dasharray:none"
         id="path4531" />
    </g>
    <g
       id="g4533"
       transform="matrix(0,1.25,1.25,0,435.32732,535.12647)">
      <path
         inkscape:connector-curvature="0"
         d="m 0,0 c -2.1,0 -3.78,-1.62 -3.78,-3.66 0,-2.04 1.68,-3.66 3.78,-3.66 2.04,0 3.72,1.62 3.72,3.66 C 3.72,-1.62 2.04,0 0,0"
         style="fill:#ff0000;fill-opacity:1;fill-rule:evenodd;stroke:none"
         id="path4535" />
    </g>
    <g
       id="g4537"
       transform="matrix(0,1.25,1.25,0,534.47857,535.12647)">
      <path
         inkscape:connector-curvature="0"
         d="m 0,0 c -2.1,0 -3.78,-1.68 -3.78,-3.72 0,-2.1 1.68,-3.78 3.78,-3.78 2.04,0 3.72,1.68 3.72,3.78 C 3.72,-1.68 2.04,0 0,0"
         style="fill:#ff0000;fill-opacity:1;fill-rule:evenodd;stroke:none"
         id="path4539" />
    </g>
    <g
       id="g4541"
       transform="matrix(0,1.25,1.25,0,489.17857,575.62647)">
      <path
         inkscape:connector-curvature="0"
         d="M 0,0 -79.32,0"
         style="fill:none;stroke:#000000;stroke-width:0.90799999;stroke-linecap:round;stroke-linejoin:round;stroke-miterlimit:10;stroke-opacity:1;stroke-dasharray:none"
         id="path4543" />
      <g
         id="g4545"
         transform="translate(0,-79.32)">
        <path
           inkscape:connector-curvature="0"
           d="M 0,0 -79.32,0.18"
           style="fill:none;stroke:#000000;stroke-width:0.90799999;stroke-linecap:round;stroke-linejoin:round;stroke-miterlimit:10;stroke-opacity:1;stroke-dasharray:none"
           id="path4547" />
        <g
           id="g4549"
           transform="translate(-79.32,79.32)">
          <path
             inkscape:connector-curvature="0"
             d="M 0,0 18.06,18.06"
             style="fill:none;stroke:#000000;stroke-width:0.90799999;stroke-linecap:round;stroke-linejoin:round;stroke-miterlimit:10;stroke-opacity:1;stroke-dasharray:none"
             id="path4551" />
        </g>
      </g>
    </g>
    <path
       inkscape:connector-curvature="0"
       d="m 507.17732,494.47647 0,18.225 18,0 0,-18.225 -18,0 z"
       style="fill:#000000;fill-opacity:1;fill-rule:nonzero;stroke:none"
       id="path4553" />
    <g
       id="g4555"
       transform="matrix(0,1.25,1.25,0,489.17857,476.47647)">
      <path
         inkscape:connector-curvature="0"
         d="M 0,0 0.12,-79.32"
         style="fill:none;stroke:#000000;stroke-width:0.90799999;stroke-linecap:round;stroke-linejoin:round;stroke-miterlimit:10;stroke-opacity:1;stroke-dasharray:none"
         id="path4557" />
    </g>
    <path
       inkscape:connector-curvature="0"
       d="m 408.25357,494.47647 0,18.225 18,0 0,-18.225 -18,0 z"
       style="fill:#000000;fill-opacity:1;fill-rule:nonzero;stroke:none"
       id="path4559" />
    <g
       id="g4561"
       transform="matrix(0,1.25,1.25,0,390.02857,476.47647)">
      <path
         inkscape:connector-curvature="0"
         d="M 0,0 18.06,18.24"
         style="fill:none;stroke:#000000;stroke-width:0.90799999;stroke-linecap:round;stroke-linejoin:round;stroke-miterlimit:10;stroke-opacity:1;stroke-dasharray:none"
         id="path4563" />
    </g>
    <g
       id="g4565"
       transform="matrix(0,1.25,1.25,0,394.97857,476.55147)">
      <path
         inkscape:connector-curvature="0"
         d="m 0,0 c -2.1,0 -3.78,-1.68 -3.78,-3.72 0,-2.1 1.68,-3.78 3.78,-3.78 2.04,0 3.72,1.68 3.72,3.78 C 3.72,-1.68 2.04,0 0,0"
         style="fill:#ff0000;fill-opacity:1;fill-rule:evenodd;stroke:none"
         id="path4567" />
    </g>
    <g
       id="g4569"
       transform="matrix(0,1.25,1.25,0,493.90232,476.55147)">
      <path
         inkscape:connector-curvature="0"
         d="m 0,0 c -2.1,0 -3.78,-1.68 -3.78,-3.72 0,-2.1 1.68,-3.78 3.78,-3.78 2.04,0 3.72,1.68 3.72,3.78 C 3.72,-1.68 2.04,0 0,0"
         style="fill:#ff0000;fill-opacity:1;fill-rule:evenodd;stroke:none"
         id="path4571" />
    </g>
    <g
       id="g4573"
       transform="matrix(0,1.25,1.25,0,489.17857,575.62647)">
      <path
         inkscape:connector-curvature="0"
         d="M 0,0 18,18.06"
         style="fill:none;stroke:#000000;stroke-width:0.90799999;stroke-linecap:round;stroke-linejoin:round;stroke-miterlimit:10;stroke-opacity:1;stroke-dasharray:none"
         id="path4575" />
    </g>
    <path
       inkscape:connector-curvature="0"
       d="m 507.17732,593.62647 0,18 18,0 0,-18 -18,0 z"
       style="fill:#000000;fill-opacity:1;fill-rule:nonzero;stroke:none"
       id="path4577" />
    <g
       id="g4579"
       transform="matrix(0,1.25,1.25,0,489.17857,575.62647)">
      <path
         inkscape:connector-curvature="0"
         d="M 0,0 0,-79.32"
         style="fill:none;stroke:#000000;stroke-width:0.90799999;stroke-linecap:round;stroke-linejoin:round;stroke-miterlimit:10;stroke-opacity:1;stroke-dasharray:none"
         id="path4581" />
    </g>
    <path
       inkscape:connector-curvature="0"
       d="m 408.25357,593.62647 0,18 18,0 0,-18 -18,0 z"
       style="fill:#000000;fill-opacity:1;fill-rule:nonzero;stroke:none"
       id="path4583" />
    <g
       id="g4585"
       transform="matrix(0,1.25,1.25,0,390.02857,575.62647)">
      <path
         inkscape:connector-curvature="0"
         d="M 0,0 18,18.24"
         style="fill:none;stroke:#000000;stroke-width:0.90799999;stroke-linecap:round;stroke-linejoin:round;stroke-miterlimit:10;stroke-opacity:1;stroke-dasharray:none"
         id="path4587" />
    </g>
    <g
       id="g4589"
       transform="matrix(0,1.25,1.25,0,394.97857,575.70147)">
      <path
         inkscape:connector-curvature="0"
         d="m 0,0 c -2.1,0 -3.78,-1.68 -3.78,-3.72 0,-2.1 1.68,-3.78 3.78,-3.78 2.04,0 3.72,1.68 3.72,3.78 C 3.72,-1.68 2.04,0 0,0"
         style="fill:#ff0000;fill-opacity:1;fill-rule:evenodd;stroke:none"
         id="path4591" />
    </g>
    <g
       id="g4593"
       transform="matrix(0,1.25,1.25,0,493.90232,575.70147)">
      <path
         inkscape:connector-curvature="0"
         d="m 0,0 c -2.1,0 -3.78,-1.68 -3.78,-3.72 0,-2.1 1.68,-3.78 3.78,-3.78 2.04,0 3.72,1.68 3.72,3.78 C 3.72,-1.68 2.04,0 0,0"
         style="fill:#ff0000;fill-opacity:1;fill-rule:evenodd;stroke:none"
         id="path4595" />
    </g>
    <path
       inkscape:connector-curvature="0"
       d="m 447.32732,455.62647 0,20.625 18.75,0 0,-20.625 -18.75,0 z"
       style="fill:#000000;fill-opacity:1;fill-rule:nonzero;stroke:none"
       id="path4597" />
    <g
       id="g4599"
       transform="matrix(0,1.25,1.25,0,428.50357,435.15147)">
      <path
         inkscape:connector-curvature="0"
         d="M 0,0 20.64,18.84"
         style="fill:none;stroke:#000000;stroke-width:0.90799999;stroke-linecap:round;stroke-linejoin:round;stroke-miterlimit:10;stroke-opacity:1;stroke-dasharray:none"
         id="path4601" />
    </g>
    <g
       id="g4603"
       transform="matrix(0,1.25,1.25,0,433.45232,435.22647)">
      <path
         inkscape:connector-curvature="0"
         d="m 0,0 c -2.28,0 -4.2,-1.74 -4.2,-3.78 0,-2.1 1.92,-3.84 4.2,-3.84 2.34,0 4.2,1.74 4.2,3.84 C 4.2,-1.74 2.34,0 0,0"
         style="fill:#ff0000;fill-opacity:1;fill-rule:evenodd;stroke:none"
         id="path4605" />
    </g>
    <g
       id="g4607"
       transform="matrix(0,1.25,1.25,0,385.30357,572.77647)">
      <path
         inkscape:connector-curvature="0"
         d="M 4.8487322,3.2324881 99.3,-23.04"
         style="fill:none;stroke:#000000;stroke-width:0.90799999;stroke-linecap:round;stroke-linejoin:round;stroke-miterlimit:10;stroke-opacity:1;stroke-dasharray:none"
         id="path4609"
         sodipodi:nodetypes="cc" />
      <g
         id="g4611"
         transform="translate(0,83.1)">
        <path
           inkscape:connector-curvature="0"
           d="M 6.4649763,1.6162441 97.411878,18.631878"
           style="fill:none;stroke:#000000;stroke-width:0.90799999;stroke-linecap:round;stroke-linejoin:round;stroke-miterlimit:10;stroke-opacity:1;stroke-dasharray:none"
           id="path4613"
           sodipodi:nodetypes="cc" />
        <g
           id="g4615"
           transform="translate(-30.36,30.36)">
          <path
             inkscape:connector-curvature="0"
             d="M 2.4243661,5.6568542 33.071268,43.055634"
             style="fill:none;stroke:#000000;stroke-width:0.90799999;stroke-linecap:round;stroke-linejoin:round;stroke-miterlimit:10;stroke-opacity:1;stroke-dasharray:none"
             id="path4617"
             sodipodi:nodetypes="cc" />
          <g
             id="g4619"
             transform="translate(0,-75.84)">
            <path
               inkscape:connector-curvature="0"
               d="M 0,0 30.36,-7.56"
               style="fill:none;stroke:#000000;stroke-width:0.90799999;stroke-linecap:round;stroke-linejoin:round;stroke-miterlimit:10;stroke-opacity:1;stroke-dasharray:none"
               id="path4621" />
          </g>
        </g>
      </g>
    </g>
  </g>
</svg>
