<?xml version="1.0" encoding="UTF-8" standalone="no"?>
<!-- Created with Inkscape (http://www.inkscape.org/) -->

<svg
   xmlns:dc="http://purl.org/dc/elements/1.1/"
   xmlns:cc="http://creativecommons.org/ns#"
   xmlns:rdf="http://www.w3.org/1999/02/22-rdf-syntax-ns#"
   xmlns:svg="http://www.w3.org/2000/svg"
   xmlns="http://www.w3.org/2000/svg"
   xmlns:sodipodi="http://sodipodi.sourceforge.net/DTD/sodipodi-0.dtd"
   xmlns:inkscape="http://www.inkscape.org/namespaces/inkscape"
   width="220.625"
   height="220.625"
   id="svg3458"
   version="1.1"
   inkscape:version="0.48.4 r9939"
   sodipodi:docname="New document 4">
  <defs
     id="defs3460">
    <clipPath
       id="clipPath3796"
       clipPathUnits="userSpaceOnUse">
      <path
         id="path3798"
         d="m 0,841.98 595.2,0 L 595.2,0 0,0 0,841.98 z"
         inkscape:connector-curvature="0" />
    </clipPath>
    <clipPath
       id="clipPath3790"
       clipPathUnits="userSpaceOnUse">
      <path
         id="path3792"
         clip-rule="evenodd"
         d="m 451.98,343.011 -160.5,0 0,160.5 160.5,0 0,-160.5 z"
         inkscape:connector-curvature="0" />
    </clipPath>
    <clipPath
       id="clipPath3776"
       clipPathUnits="userSpaceOnUse">
      <path
         id="path3778"
         d="m 0,841.98 595.2,0 L 595.2,0 0,0 0,841.98 z"
         inkscape:connector-curvature="0" />
    </clipPath>
    <clipPath
       id="clipPath3770"
       clipPathUnits="userSpaceOnUse">
      <path
         id="path3772"
         clip-rule="evenodd"
         d="m 451.98,343.011 -160.5,0 0,160.5 160.5,0 0,-160.5 z"
         inkscape:connector-curvature="0" />
    </clipPath>
    <clipPath
       id="clipPath3754"
       clipPathUnits="userSpaceOnUse">
      <path
         id="path3756"
         d="m 0,841.98 595.2,0 L 595.2,0 0,0 0,841.98 z"
         inkscape:connector-curvature="0" />
    </clipPath>
    <clipPath
       id="clipPath3748"
       clipPathUnits="userSpaceOnUse">
      <path
         id="path3750"
         clip-rule="evenodd"
         d="m 451.98,343.011 -160.5,0 0,160.5 160.5,0 0,-160.5 z"
         inkscape:connector-curvature="0" />
    </clipPath>
    <clipPath
       id="clipPath3712"
       clipPathUnits="userSpaceOnUse">
      <path
         id="path3714"
         d="m 0,841.98 595.2,0 L 595.2,0 0,0 0,841.98 z"
         inkscape:connector-curvature="0" />
    </clipPath>
    <clipPath
       id="clipPath3706"
       clipPathUnits="userSpaceOnUse">
      <path
         id="path3708"
         clip-rule="evenodd"
         d="m 451.98,343.011 -160.5,0 0,160.5 160.5,0 0,-160.5 z"
         inkscape:connector-curvature="0" />
    </clipPath>
    <clipPath
       id="clipPath3684"
       clipPathUnits="userSpaceOnUse">
      <path
         id="path3686"
         d="m 0,841.98 595.2,0 L 595.2,0 0,0 0,841.98 z"
         inkscape:connector-curvature="0" />
    </clipPath>
    <clipPath
       id="clipPath3678"
       clipPathUnits="userSpaceOnUse">
      <path
         id="path3680"
         clip-rule="evenodd"
         d="m 451.98,343.011 -160.5,0 0,160.5 160.5,0 0,-160.5 z"
         inkscape:connector-curvature="0" />
    </clipPath>
    <clipPath
       id="clipPath3640"
       clipPathUnits="userSpaceOnUse">
      <path
         id="path3642"
         d="m 0,841.98 595.2,0 L 595.2,0 0,0 0,841.98 z"
         inkscape:connector-curvature="0" />
    </clipPath>
    <clipPath
       id="clipPath3634"
       clipPathUnits="userSpaceOnUse">
      <path
         id="path3636"
         clip-rule="evenodd"
         d="m 451.98,343.011 -160.5,0 0,160.5 160.5,0 0,-160.5 z"
         inkscape:connector-curvature="0" />
    </clipPath>
    <clipPath
       id="clipPath3612"
       clipPathUnits="userSpaceOnUse">
      <path
         id="path3614"
         d="m 0,841.98 595.2,0 L 595.2,0 0,0 0,841.98 z"
         inkscape:connector-curvature="0" />
    </clipPath>
    <clipPath
       id="clipPath3606"
       clipPathUnits="userSpaceOnUse">
      <path
         id="path3608"
         clip-rule="evenodd"
         d="m 451.98,343.011 -160.5,0 0,160.5 160.5,0 0,-160.5 z"
         inkscape:connector-curvature="0" />
    </clipPath>
    <clipPath
       id="clipPath3568"
       clipPathUnits="userSpaceOnUse">
      <path
         id="path3570"
         d="m 0,841.98 595.2,0 L 595.2,0 0,0 0,841.98 z"
         inkscape:connector-curvature="0" />
    </clipPath>
    <clipPath
       id="clipPath3562"
       clipPathUnits="userSpaceOnUse">
      <path
         id="path3564"
         clip-rule="evenodd"
         d="m 451.98,343.011 -160.5,0 0,160.5 160.5,0 0,-160.5 z"
         inkscape:connector-curvature="0" />
    </clipPath>
    <clipPath
       id="clipPath3540"
       clipPathUnits="userSpaceOnUse">
      <path
         id="path3542"
         d="m 0,841.98 595.2,0 L 595.2,0 0,0 0,841.98 z"
         inkscape:connector-curvature="0" />
    </clipPath>
    <clipPath
       id="clipPath3534"
       clipPathUnits="userSpaceOnUse">
      <path
         id="path3536"
         clip-rule="evenodd"
         d="m 451.98,343.011 -160.5,0 0,160.5 160.5,0 0,-160.5 z"
         inkscape:connector-curvature="0" />
    </clipPath>
    <clipPath
       id="clipPath3486"
       clipPathUnits="userSpaceOnUse">
      <path
         id="path3488"
         d="m 0,841.98 595.2,0 L 595.2,0 0,0 0,841.98 z"
         inkscape:connector-curvature="0" />
    </clipPath>
    <clipPath
       id="clipPath3480"
       clipPathUnits="userSpaceOnUse">
      <path
         id="path3482"
         clip-rule="evenodd"
         d="m 567.48,61.011 -540,0 0,720 540,0 0,-720 z"
         inkscape:connector-curvature="0" />
    </clipPath>
  </defs>
  <sodipodi:namedview
     id="base"
     pagecolor="#ffffff"
     bordercolor="#666666"
     borderopacity="1.0"
     inkscape:pageopacity="0.0"
     inkscape:pageshadow="2"
     inkscape:zoom="1.979899"
     inkscape:cx="111.60866"
     inkscape:cy="132.54405"
     inkscape:document-units="px"
     inkscape:current-layer="layer1"
     showgrid="false"
     fit-margin-top="10"
     fit-margin-left="10"
     fit-margin-right="10"
     fit-margin-bottom="10"
     inkscape:window-width="954"
     inkscape:window-height="1028"
     inkscape:window-x="0"
     inkscape:window-y="0"
     inkscape:window-maximized="0" />
  <metadata
     id="metadata3463">
    <rdf:RDF>
      <cc:Work
         rdf:about="">
        <dc:format>image/svg+xml</dc:format>
        <dc:type
           rdf:resource="http://purl.org/dc/dcmitype/StillImage" />
        <dc:title></dc:title>
      </cc:Work>
    </rdf:RDF>
  </metadata>
  <g
     inkscape:label="Layer 1"
     inkscape:groupmode="layer"
     id="layer1"
     transform="translate(-249.64286,-440.57647)">
    <g
       id="g3500"
       transform="matrix(0,1.25,1.25,0,317.46786,614.90147)">
      <path
         inkscape:connector-curvature="0"
         d="M 0,0 -127.5,0"
         style="fill:none;stroke:#000000;stroke-width:0.97399998;stroke-linecap:round;stroke-linejoin:miter;stroke-miterlimit:10;stroke-opacity:1;stroke-dasharray:none"
         id="path3502" />
      <g
         id="g3504"
         transform="translate(0,42.36)">
        <path
           inkscape:connector-curvature="0"
           d="M 0,0 -127.5,0"
           style="fill:none;stroke:#000000;stroke-width:0.97399998;stroke-linecap:round;stroke-linejoin:miter;stroke-miterlimit:10;stroke-opacity:1;stroke-dasharray:none"
           id="path3506" />
        <g
           id="g3508"
           transform="translate(0,42.36)">
          <path
             inkscape:connector-curvature="0"
             d="M 0,0 -127.5,0"
             style="fill:none;stroke:#000000;stroke-width:0.97399998;stroke-linecap:round;stroke-linejoin:miter;stroke-miterlimit:10;stroke-opacity:1;stroke-dasharray:none"
             id="path3510" />
          <g
             id="g3512"
             transform="translate(0,-127.2)">
            <path
               inkscape:connector-curvature="0"
               d="M 0,0 -127.5,0"
               style="fill:none;stroke:#000000;stroke-width:0.97399998;stroke-linecap:round;stroke-linejoin:miter;stroke-miterlimit:10;stroke-opacity:1;stroke-dasharray:none"
               id="path3514" />
            <g
               id="g3516"
               transform="translate(-127.5,127.2)">
              <path
                 inkscape:connector-curvature="0"
                 d="M 0,0 19.32,19.32"
                 style="fill:none;stroke:#000000;stroke-width:0.97399998;stroke-linecap:round;stroke-linejoin:miter;stroke-miterlimit:10;stroke-opacity:1;stroke-dasharray:none"
                 id="path3518" />
              <g
                 id="g3520"
                 transform="translate(0,-42.36)">
                <path
                   inkscape:connector-curvature="0"
                   d="M 0,0 19.32,19.32"
                   style="fill:none;stroke:#000000;stroke-width:0.97399998;stroke-linecap:round;stroke-linejoin:miter;stroke-miterlimit:10;stroke-opacity:1;stroke-dasharray:none"
                   id="path3522" />
                <g
                   id="g3524"
                   transform="translate(0,-42.36)">
                  <path
                     inkscape:connector-curvature="0"
                     d="M 0,0 19.32,19.2"
                     style="fill:none;stroke:#000000;stroke-width:0.97399998;stroke-linecap:round;stroke-linejoin:miter;stroke-miterlimit:10;stroke-opacity:1;stroke-dasharray:none"
                     id="path3526" />
                </g>
              </g>
            </g>
          </g>
        </g>
      </g>
    </g>
    <path
       inkscape:connector-curvature="0"
       d="m 389.69286,474.80147 0,19.5 19.5,0 0,-19.5 -19.5,0 z"
       style="fill:#000000;fill-opacity:1;fill-rule:nonzero;stroke:none"
       id="path3528" />
    <g
       id="g3530"
       transform="matrix(0,1.25,1.25,0,-169.12089,86.226468)">
      <g
         id="g3532"
         clip-path="url(#clipPath3534)">
        <g
           id="g3538"
           clip-path="url(#clipPath3540)">
          <path
             inkscape:connector-curvature="0"
             d="m 310.86,489.411 15.6,0 0,14.109 -15.6,0 0,-14.109 z"
             style="fill:#000000;fill-opacity:1;fill-rule:nonzero;stroke:none"
             id="path3544" />
        </g>
      </g>
    </g>
    <g
       id="g3546"
       transform="matrix(0,1.25,1.25,0,423.36786,455.52647)">
      <path
         inkscape:connector-curvature="0"
         d="M 0,0 0,-127.2"
         style="fill:none;stroke:#000000;stroke-width:0.97399998;stroke-linecap:round;stroke-linejoin:miter;stroke-miterlimit:10;stroke-opacity:1;stroke-dasharray:none"
         id="path3548" />
    </g>
    <path
       inkscape:connector-curvature="0"
       d="m 283.64286,474.80147 0,19.5 19.425,0 0,-19.5 -19.425,0 z"
       style="fill:#000000;fill-opacity:1;fill-rule:nonzero;stroke:none"
       id="path3550" />
    <g
       id="g3552"
       transform="matrix(0,1.25,1.25,0,264.36786,455.52647)">
      <path
         inkscape:connector-curvature="0"
         d="M 0,0 19.32,19.32"
         style="fill:none;stroke:#000000;stroke-width:0.97399998;stroke-linecap:round;stroke-linejoin:miter;stroke-miterlimit:10;stroke-opacity:1;stroke-dasharray:none"
         id="path3554" />
    </g>
    <path
       inkscape:connector-curvature="0"
       d="m 336.74286,474.80147 0,19.5 19.5,0 0,-19.5 -19.5,0 z"
       style="fill:#000000;fill-opacity:1;fill-rule:nonzero;stroke:none"
       id="path3556" />
    <g
       id="g3558"
       transform="matrix(0,1.25,1.25,0,-169.12089,86.226468)">
      <g
         id="g3560"
         clip-path="url(#clipPath3562)">
        <g
           id="g3566"
           clip-path="url(#clipPath3568)">
          <g
             id="g3572"
             transform="translate(294.84,349.551)">
            <path
               inkscape:connector-curvature="0"
               d="m 0,0 c 1.86,0 3.36,-1.5 3.36,-3.24 0,-1.8 -1.5,-3.3 -3.36,-3.3 -1.86,0 -3.36,1.5 -3.36,3.3 C -3.36,-1.5 -1.86,0 0,0"
               style="fill:#ff0000;fill-opacity:1;fill-rule:evenodd;stroke:none"
               id="path3574" />
          </g>
          <g
             id="g3576"
             transform="translate(294.84,391.731)">
            <path
               inkscape:connector-curvature="0"
               d="m 0,0 c 1.86,0 3.36,-1.44 3.36,-3.18 0,-1.74 -1.5,-3.18 -3.36,-3.18 -1.86,0 -3.36,1.44 -3.36,3.18 0,1.74 1.5,3.18 3.36,3.18"
               style="fill:#ff0000;fill-opacity:1;fill-rule:evenodd;stroke:none"
               id="path3578" />
          </g>
          <g
             id="g3580"
             transform="translate(294.84,434.391)">
            <path
               inkscape:connector-curvature="0"
               d="m 0,0 c 1.86,0 3.36,-1.44 3.36,-3.3 0,-1.86 -1.5,-3.36 -3.36,-3.36 -1.86,0 -3.36,1.5 -3.36,3.36 0,1.86 1.5,3.3 3.36,3.3"
               style="fill:#ff0000;fill-opacity:1;fill-rule:evenodd;stroke:none"
               id="path3582" />
          </g>
          <g
             id="g3584"
             transform="translate(294.84,476.751)">
            <path
               inkscape:connector-curvature="0"
               d="m 0,0 c 1.86,0 3.36,-1.44 3.36,-3.3 0,-1.86 -1.5,-3.36 -3.36,-3.36 -1.86,0 -3.36,1.5 -3.36,3.36 0,1.86 1.5,3.3 3.36,3.3"
               style="fill:#ff0000;fill-opacity:1;fill-rule:evenodd;stroke:none"
               id="path3586" />
          </g>
        </g>
      </g>
    </g>
    <g
       id="g3588"
       transform="matrix(0,1.25,1.25,0,423.36786,508.55147)">
      <path
         inkscape:connector-curvature="0"
         d="M 0,0 19.38,19.32"
         style="fill:none;stroke:#000000;stroke-width:0.97399998;stroke-linecap:round;stroke-linejoin:miter;stroke-miterlimit:10;stroke-opacity:1;stroke-dasharray:none"
         id="path3590" />
      <g
         id="g3592"
         transform="translate(0,-42.36)">
        <path
           inkscape:connector-curvature="0"
           d="M 0,0 19.38,19.32"
           style="fill:none;stroke:#000000;stroke-width:0.97399998;stroke-linecap:round;stroke-linejoin:miter;stroke-miterlimit:10;stroke-opacity:1;stroke-dasharray:none"
           id="path3594" />
        <g
           id="g3596"
           transform="translate(0,-42.36)">
          <path
             inkscape:connector-curvature="0"
             d="M 0,0 19.38,19.2"
             style="fill:none;stroke:#000000;stroke-width:0.97399998;stroke-linecap:round;stroke-linejoin:miter;stroke-miterlimit:10;stroke-opacity:1;stroke-dasharray:none"
             id="path3598" />
        </g>
      </g>
    </g>
    <path
       inkscape:connector-curvature="0"
       d="m 389.69286,527.90147 0,19.5 19.5,0 0,-19.5 -19.5,0 z"
       style="fill:#000000;fill-opacity:1;fill-rule:nonzero;stroke:none"
       id="path3600" />
    <g
       id="g3602"
       transform="matrix(0,1.25,1.25,0,-169.12089,86.226468)">
      <g
         id="g3604"
         clip-path="url(#clipPath3606)">
        <g
           id="g3610"
           clip-path="url(#clipPath3612)">
          <path
             inkscape:connector-curvature="0"
             d="m 353.34,489.411 15.6,0 0,14.109 -15.6,0 0,-14.109 z"
             style="fill:#000000;fill-opacity:1;fill-rule:nonzero;stroke:none"
             id="path3616" />
        </g>
      </g>
    </g>
    <g
       id="g3618"
       transform="matrix(0,1.25,1.25,0,423.36786,508.55147)">
      <path
         inkscape:connector-curvature="0"
         d="M 0,0 0,-127.2"
         style="fill:none;stroke:#000000;stroke-width:0.97399998;stroke-linecap:round;stroke-linejoin:miter;stroke-miterlimit:10;stroke-opacity:1;stroke-dasharray:none"
         id="path3620" />
    </g>
    <path
       inkscape:connector-curvature="0"
       d="m 283.64286,527.90147 0,19.5 19.425,0 0,-19.5 -19.425,0 z"
       style="fill:#000000;fill-opacity:1;fill-rule:nonzero;stroke:none"
       id="path3622" />
    <g
       id="g3624"
       transform="matrix(0,1.25,1.25,0,264.36786,508.55147)">
      <path
         inkscape:connector-curvature="0"
         d="M 0,0 19.38,19.32"
         style="fill:none;stroke:#000000;stroke-width:0.97399998;stroke-linecap:round;stroke-linejoin:miter;stroke-miterlimit:10;stroke-opacity:1;stroke-dasharray:none"
         id="path3626" />
    </g>
    <path
       inkscape:connector-curvature="0"
       d="m 336.74286,527.90147 0,19.5 19.5,0 0,-19.5 -19.5,0 z"
       style="fill:#000000;fill-opacity:1;fill-rule:nonzero;stroke:none"
       id="path3628" />
    <g
       id="g3630"
       transform="matrix(0,1.25,1.25,0,-169.12089,86.226468)">
      <g
         id="g3632"
         clip-path="url(#clipPath3634)">
        <g
           id="g3638"
           clip-path="url(#clipPath3640)">
          <g
             id="g3644"
             transform="translate(337.32,349.551)">
            <path
               inkscape:connector-curvature="0"
               d="m 0,0 c 1.74,0 3.18,-1.5 3.18,-3.24 0,-1.8 -1.44,-3.3 -3.18,-3.3 -1.74,0 -3.18,1.5 -3.18,3.3 C -3.18,-1.5 -1.74,0 0,0"
               style="fill:#ff0000;fill-opacity:1;fill-rule:evenodd;stroke:none"
               id="path3646" />
          </g>
        </g>
      </g>
    </g>
    <g
       id="g3648"
       transform="matrix(0,1.25,1.25,0,320.54286,507.87647)">
      <path
         inkscape:connector-curvature="0"
         d="m 0,0 c 1.74,0 3.18,-1.44 3.18,-3.18 0,-1.74 -1.44,-3.18 -3.18,-3.18 -1.74,0 -3.18,1.44 -3.18,3.18 C -3.18,-1.44 -1.74,0 0,0"
         style="fill:#ff0000;fill-opacity:1;fill-rule:evenodd;stroke:none"
         id="path3650" />
    </g>
    <g
       id="g3652"
       transform="matrix(0,1.25,1.25,0,373.86786,507.87647)">
      <path
         inkscape:connector-curvature="0"
         d="m 0,0 c 1.74,0 3.18,-1.44 3.18,-3.3 0,-1.86 -1.44,-3.36 -3.18,-3.36 -1.74,0 -3.18,1.5 -3.18,3.36 0,1.86 1.44,3.3 3.18,3.3"
         style="fill:#ff0000;fill-opacity:1;fill-rule:evenodd;stroke:none"
         id="path3654" />
    </g>
    <g
       id="g3656"
       transform="matrix(0,1.25,1.25,0,426.81786,507.87647)">
      <path
         inkscape:connector-curvature="0"
         d="m 0,0 c 1.74,0 3.18,-1.44 3.18,-3.3 0,-1.86 -1.44,-3.36 -3.18,-3.36 -1.74,0 -3.18,1.5 -3.18,3.36 0,1.86 1.44,3.3 3.18,3.3"
         style="fill:#ff0000;fill-opacity:1;fill-rule:evenodd;stroke:none"
         id="path3658" />
    </g>
    <g
       id="g3660"
       transform="matrix(0,1.25,1.25,0,423.36786,561.87647)">
      <path
         inkscape:connector-curvature="0"
         d="M 0,0 19.2,19.32"
         style="fill:none;stroke:#000000;stroke-width:0.97399998;stroke-linecap:round;stroke-linejoin:miter;stroke-miterlimit:10;stroke-opacity:1;stroke-dasharray:none"
         id="path3662" />
      <g
         id="g3664"
         transform="translate(0,-42.36)">
        <path
           inkscape:connector-curvature="0"
           d="M 0,0 19.2,19.32"
           style="fill:none;stroke:#000000;stroke-width:0.97399998;stroke-linecap:round;stroke-linejoin:miter;stroke-miterlimit:10;stroke-opacity:1;stroke-dasharray:none"
           id="path3666" />
        <g
           id="g3668"
           transform="translate(0,-42.36)">
          <path
             inkscape:connector-curvature="0"
             d="M 0,0 19.2,19.2"
             style="fill:none;stroke:#000000;stroke-width:0.97399998;stroke-linecap:round;stroke-linejoin:miter;stroke-miterlimit:10;stroke-opacity:1;stroke-dasharray:none"
             id="path3670" />
        </g>
      </g>
    </g>
    <path
       inkscape:connector-curvature="0"
       d="m 389.69286,581.15147 0,19.5 19.5,0 0,-19.5 -19.5,0 z"
       style="fill:#000000;fill-opacity:1;fill-rule:nonzero;stroke:none"
       id="path3672" />
    <g
       id="g3674"
       transform="matrix(0,1.25,1.25,0,-169.12089,86.226468)">
      <g
         id="g3676"
         clip-path="url(#clipPath3678)">
        <g
           id="g3682"
           clip-path="url(#clipPath3684)">
          <path
             inkscape:connector-curvature="0"
             d="m 395.94,489.411 15.6,0 0,14.109 -15.6,0 0,-14.109 z"
             style="fill:#000000;fill-opacity:1;fill-rule:nonzero;stroke:none"
             id="path3688" />
        </g>
      </g>
    </g>
    <g
       id="g3690"
       transform="matrix(0,1.25,1.25,0,423.36786,561.87647)">
      <path
         inkscape:connector-curvature="0"
         d="M 0,0 0,-127.2"
         style="fill:none;stroke:#000000;stroke-width:0.97399998;stroke-linecap:round;stroke-linejoin:miter;stroke-miterlimit:10;stroke-opacity:1;stroke-dasharray:none"
         id="path3692" />
    </g>
    <path
       inkscape:connector-curvature="0"
       d="m 283.64286,581.15147 0,19.5 19.425,0 0,-19.5 -19.425,0 z"
       style="fill:#000000;fill-opacity:1;fill-rule:nonzero;stroke:none"
       id="path3694" />
    <g
       id="g3696"
       transform="matrix(0,1.25,1.25,0,264.36786,561.87647)">
      <path
         inkscape:connector-curvature="0"
         d="M 0,0 19.2,19.32"
         style="fill:none;stroke:#000000;stroke-width:0.97399998;stroke-linecap:round;stroke-linejoin:miter;stroke-miterlimit:10;stroke-opacity:1;stroke-dasharray:none"
         id="path3698" />
    </g>
    <path
       inkscape:connector-curvature="0"
       d="m 336.74286,581.15147 0,19.5 19.5,0 0,-19.5 -19.5,0 z"
       style="fill:#000000;fill-opacity:1;fill-rule:nonzero;stroke:none"
       id="path3700" />
    <g
       id="g3702"
       transform="matrix(0,1.25,1.25,0,-169.12089,86.226468)">
      <g
         id="g3704"
         clip-path="url(#clipPath3706)">
        <g
           id="g3710"
           clip-path="url(#clipPath3712)">
          <g
             id="g3716"
             transform="translate(379.86,349.551)">
            <path
               inkscape:connector-curvature="0"
               d="m 0,0 c 1.8,0 3.24,-1.5 3.24,-3.24 0,-1.8 -1.44,-3.3 -3.24,-3.3 -1.8,0 -3.3,1.5 -3.3,3.3 C -3.3,-1.5 -1.8,0 0,0"
               style="fill:#ff0000;fill-opacity:1;fill-rule:evenodd;stroke:none"
               id="path3718" />
          </g>
        </g>
      </g>
    </g>
    <g
       id="g3720"
       transform="matrix(0,1.25,1.25,0,320.54286,561.05147)">
      <path
         inkscape:connector-curvature="0"
         d="M 0,0 C 1.8,0 3.24,-1.44 3.24,-3.18 3.24,-4.92 1.8,-6.36 0,-6.36 c -1.8,0 -3.3,1.44 -3.3,3.18 C -3.3,-1.44 -1.8,0 0,0"
         style="fill:#ff0000;fill-opacity:1;fill-rule:evenodd;stroke:none"
         id="path3722" />
    </g>
    <g
       id="g3724"
       transform="matrix(0,1.25,1.25,0,373.86786,561.05147)">
      <path
         inkscape:connector-curvature="0"
         d="M 0,0 C 1.8,0 3.24,-1.44 3.24,-3.3 3.24,-5.16 1.8,-6.66 0,-6.66 c -1.8,0 -3.3,1.5 -3.3,3.36 0,1.86 1.5,3.3 3.3,3.3"
         style="fill:#ff0000;fill-opacity:1;fill-rule:evenodd;stroke:none"
         id="path3726" />
    </g>
    <g
       id="g3728"
       transform="matrix(0,1.25,1.25,0,426.81786,561.05147)">
      <path
         inkscape:connector-curvature="0"
         d="M 0,0 C 1.8,0 3.24,-1.44 3.24,-3.3 3.24,-5.16 1.8,-6.66 0,-6.66 c -1.8,0 -3.3,1.5 -3.3,3.36 0,1.86 1.5,3.3 3.3,3.3"
         style="fill:#ff0000;fill-opacity:1;fill-rule:evenodd;stroke:none"
         id="path3730" />
    </g>
    <g
       id="g3732"
       transform="matrix(0,1.25,1.25,0,423.36786,614.90147)">
      <path
         inkscape:connector-curvature="0"
         d="M 0,0 19.38,19.32"
         style="fill:none;stroke:#000000;stroke-width:0.97399998;stroke-linecap:round;stroke-linejoin:miter;stroke-miterlimit:10;stroke-opacity:1;stroke-dasharray:none"
         id="path3734" />
      <g
         id="g3736"
         transform="translate(0,-42.36)">
        <path
           inkscape:connector-curvature="0"
           d="M 0,0 19.38,19.32"
           style="fill:none;stroke:#000000;stroke-width:0.97399998;stroke-linecap:round;stroke-linejoin:miter;stroke-miterlimit:10;stroke-opacity:1;stroke-dasharray:none"
           id="path3738" />
        <g
           id="g3740"
           transform="translate(0,-42.36)">
          <path
             inkscape:connector-curvature="0"
             d="M 0,0 19.38,19.2"
             style="fill:none;stroke:#000000;stroke-width:0.97399998;stroke-linecap:round;stroke-linejoin:miter;stroke-miterlimit:10;stroke-opacity:1;stroke-dasharray:none"
             id="path3742" />
        </g>
      </g>
    </g>
    <g
       id="g3744"
       transform="matrix(0,1.25,1.25,0,-169.12089,86.226468)">
      <g
         id="g3746"
         clip-path="url(#clipPath3748)">
        <g
           id="g3752"
           clip-path="url(#clipPath3754)">
          <path
             inkscape:connector-curvature="0"
             d="m 438.42,447.051 13.56,0 0,15.6 -13.56,0 0,-15.6 z"
             style="fill:#000000;fill-opacity:1;fill-rule:nonzero;stroke:none"
             id="path3758" />
          <path
             inkscape:connector-curvature="0"
             d="m 438.42,489.411 13.56,0 0,14.109 -13.56,0 0,-14.109 z"
             style="fill:#000000;fill-opacity:1;fill-rule:nonzero;stroke:none"
             id="path3760" />
        </g>
      </g>
    </g>
    <g
       id="g3762"
       transform="matrix(0,1.25,1.25,0,423.36786,614.90147)">
      <path
         inkscape:connector-curvature="0"
         d="M 0,0 0,-127.2"
         style="fill:none;stroke:#000000;stroke-width:0.97399998;stroke-linecap:round;stroke-linejoin:miter;stroke-miterlimit:10;stroke-opacity:1;stroke-dasharray:none"
         id="path3764" />
    </g>
    <g
       id="g3766"
       transform="matrix(0,1.25,1.25,0,-169.12089,86.226468)">
      <g
         id="g3768"
         clip-path="url(#clipPath3770)">
        <g
           id="g3774"
           clip-path="url(#clipPath3776)">
          <path
             inkscape:connector-curvature="0"
             d="m 438.42,362.211 13.56,0 0,15.54 -13.56,0 0,-15.54 z"
             style="fill:#000000;fill-opacity:1;fill-rule:nonzero;stroke:none"
             id="path3780" />
        </g>
      </g>
    </g>
    <g
       id="g3782"
       transform="matrix(0,1.25,1.25,0,264.36786,614.90147)">
      <path
         inkscape:connector-curvature="0"
         d="M 0,0 19.38,19.32"
         style="fill:none;stroke:#000000;stroke-width:0.97399998;stroke-linecap:round;stroke-linejoin:miter;stroke-miterlimit:10;stroke-opacity:1;stroke-dasharray:none"
         id="path3784" />
    </g>
    <g
       id="g3786"
       transform="matrix(0,1.25,1.25,0,-169.12089,86.226468)">
      <g
         id="g3788"
         clip-path="url(#clipPath3790)">
        <g
           id="g3794"
           clip-path="url(#clipPath3796)">
          <path
             inkscape:connector-curvature="0"
             d="m 438.42,404.691 13.56,0 0,15.6 -13.56,0 0,-15.6 z"
             style="fill:#000000;fill-opacity:1;fill-rule:nonzero;stroke:none"
             id="path3800" />
          <g
             id="g3802"
             transform="translate(422.4,349.551)">
            <path
               inkscape:connector-curvature="0"
               d="m 0,0 c 1.8,0 3.3,-1.5 3.3,-3.24 0,-1.8 -1.5,-3.3 -3.3,-3.3 -1.86,0 -3.36,1.5 -3.36,3.3 C -3.36,-1.5 -1.86,0 0,0"
               style="fill:#ff0000;fill-opacity:1;fill-rule:evenodd;stroke:none"
               id="path3804" />
          </g>
        </g>
      </g>
    </g>
    <g
       id="g3806"
       transform="matrix(0,1.25,1.25,0,320.54286,614.22647)">
      <path
         inkscape:connector-curvature="0"
         d="m 0,0 c 1.8,0 3.3,-1.44 3.3,-3.18 0,-1.74 -1.5,-3.18 -3.3,-3.18 -1.86,0 -3.36,1.44 -3.36,3.18 0,1.74 1.5,3.18 3.36,3.18"
         style="fill:#ff0000;fill-opacity:1;fill-rule:evenodd;stroke:none"
         id="path3808" />
    </g>
    <g
       id="g3810"
       transform="matrix(0,1.25,1.25,0,373.86786,614.22647)">
      <path
         inkscape:connector-curvature="0"
         d="m 0,0 c 1.8,0 3.3,-1.44 3.3,-3.3 0,-1.86 -1.5,-3.36 -3.3,-3.36 -1.86,0 -3.36,1.5 -3.36,3.36 0,1.86 1.5,3.3 3.36,3.3"
         style="fill:#ff0000;fill-opacity:1;fill-rule:evenodd;stroke:none"
         id="path3812" />
    </g>
    <g
       id="g3814"
       transform="matrix(0,1.25,1.25,0,426.81786,614.22647)">
      <path
         inkscape:connector-curvature="0"
         d="m 0,0 c 1.8,0 3.3,-1.44 3.3,-3.3 0,-1.86 -1.5,-3.36 -3.3,-3.36 -1.86,0 -3.36,1.5 -3.36,3.36 0,1.86 1.5,3.3 3.36,3.3"
         style="fill:#ff0000;fill-opacity:1;fill-rule:evenodd;stroke:none"
         id="path3816" />
    </g>
  </g>
</svg>
