<?xml version="1.0" encoding="UTF-8" standalone="no"?>
<!-- Created with Inkscape (http://www.inkscape.org/) -->

<svg
   xmlns:dc="http://purl.org/dc/elements/1.1/"
   xmlns:cc="http://creativecommons.org/ns#"
   xmlns:rdf="http://www.w3.org/1999/02/22-rdf-syntax-ns#"
   xmlns:svg="http://www.w3.org/2000/svg"
   xmlns="http://www.w3.org/2000/svg"
   xmlns:sodipodi="http://sodipodi.sourceforge.net/DTD/sodipodi-0.dtd"
   xmlns:inkscape="http://www.inkscape.org/namespaces/inkscape"
   width="777.39459"
   height="433.09546"
   id="svg4334"
   version="1.1"
   inkscape:version="0.48.4 r9939"
   sodipodi:docname="New document 7">
  <defs
     id="defs4336">
    <clipPath
       id="clipPath4474"
       clipPathUnits="userSpaceOnUse">
      <path
         id="path4476"
         d="m 150.12,383.811 15.9,0 0,51.9 -15.9,0 0,-51.9 z"
         inkscape:connector-curvature="0" />
    </clipPath>
    <clipPath
       id="clipPath4458"
       clipPathUnits="userSpaceOnUse">
      <path
         id="path4460"
         d="m 150.12,327.891 15.9,0 0,52.68 -15.9,0 0,-52.68 z"
         inkscape:connector-curvature="0" />
    </clipPath>
    <clipPath
       id="clipPath4434"
       clipPathUnits="userSpaceOnUse">
      <path
         id="path4436"
         d="m 131.82,383.811 15.9,0 0,51.9 -15.9,0 0,-51.9 z"
         inkscape:connector-curvature="0" />
    </clipPath>
    <clipPath
       id="clipPath4362"
       clipPathUnits="userSpaceOnUse">
      <path
         id="path4364"
         d="m 0,841.98 595.2,0 L 595.2,0 0,0 0,841.98 z"
         inkscape:connector-curvature="0" />
    </clipPath>
    <clipPath
       id="clipPath4356"
       clipPathUnits="userSpaceOnUse">
      <path
         id="path4358"
         clip-rule="evenodd"
         d="m 567.48,61.011 -540,0 0,720 540,0 0,-720 z"
         inkscape:connector-curvature="0" />
    </clipPath>
  </defs>
  <sodipodi:namedview
     id="base"
     pagecolor="#ffffff"
     bordercolor="#666666"
     borderopacity="1.0"
     inkscape:pageopacity="0.0"
     inkscape:pageshadow="2"
     inkscape:zoom="0.7"
     inkscape:cx="471.82392"
     inkscape:cy="104.9602"
     inkscape:document-units="px"
     inkscape:current-layer="layer1"
     showgrid="false"
     fit-margin-top="10"
     fit-margin-left="10"
     fit-margin-right="10"
     fit-margin-bottom="10"
     inkscape:window-width="954"
     inkscape:window-height="1028"
     inkscape:window-x="0"
     inkscape:window-y="0"
     inkscape:window-maximized="0" />
  <metadata
     id="metadata4339">
    <rdf:RDF>
      <cc:Work
         rdf:about="">
        <dc:format>image/svg+xml</dc:format>
        <dc:type
           rdf:resource="http://purl.org/dc/dcmitype/StillImage" />
        <dc:title></dc:title>
      </cc:Work>
    </rdf:RDF>
  </metadata>
  <g
     inkscape:label="Layer 1"
     inkscape:groupmode="layer"
     id="layer1"
     transform="translate(-27.51972,-289.9208)">
    <g
       id="g4394"
       transform="matrix(1.251,0,0,1.2490625,-117.69232,131.94076)">
      <g
         id="g4396"
         transform="translate(279.74,166.265)">
        <path
           inkscape:connector-curvature="0"
           d="M 0,0 193.954,0"
           style="fill:none;stroke:#000000;stroke-width:0.79799998;stroke-linecap:round;stroke-linejoin:round;stroke-miterlimit:10;stroke-opacity:1;stroke-dasharray:none"
           id="path4398" />
        <g
           id="g4400"
           transform="translate(0,110.183)">
          <path
             inkscape:connector-curvature="0"
             d="M 0,0 193.954,0"
             style="fill:none;stroke:#000000;stroke-width:0.79799998;stroke-linecap:round;stroke-linejoin:round;stroke-miterlimit:10;stroke-opacity:1;stroke-dasharray:none"
             id="path4402" />
          <g
             id="g4404"
             transform="translate(0,36.688)">
            <path
               inkscape:connector-curvature="0"
               d="M 0,0 449.362,0"
               style="fill:none;stroke:#000000;stroke-width:0.79799998;stroke-linecap:round;stroke-linejoin:round;stroke-miterlimit:10;stroke-opacity:1;stroke-dasharray:none"
               id="path4406" />
            <g
               id="g4408"
               transform="translate(0,91.809)">
              <path
                 inkscape:connector-curvature="0"
                 d="M 0,0 449.362,0"
                 style="fill:none;stroke:#000000;stroke-width:0.79799998;stroke-linecap:round;stroke-linejoin:round;stroke-miterlimit:10;stroke-opacity:1;stroke-dasharray:none"
                 id="path4410" />
              <g
                 id="g4412"
                 transform="translate(0,41.491)">
                <path
                   inkscape:connector-curvature="0"
                   d="M 0,0 449.362,0"
                   style="fill:none;stroke:#000000;stroke-width:0.79799998;stroke-linecap:round;stroke-linejoin:round;stroke-miterlimit:10;stroke-opacity:1;stroke-dasharray:none"
                   id="path4414" />
                <g
                   id="g4416"
                   transform="translate(0,18.374)">
                  <path
                     inkscape:connector-curvature="0"
                     d="M 0,0 449.362,0"
                     style="fill:none;stroke:#000000;stroke-width:0.79799998;stroke-linecap:round;stroke-linejoin:round;stroke-miterlimit:10;stroke-opacity:1;stroke-dasharray:none"
                     id="path4418" />
                </g>
              </g>
            </g>
          </g>
        </g>
      </g>
    </g>
    <text
       id="text4420"
       x="37.545807"
       y="312.76575"
       style="font-size:15px">
      <tspan
         style="font-size:17.94437599px;font-variant:normal;font-weight:normal;font-stretch:normal;writing-mode:lr-tb;fill:#000000;fill-opacity:1;fill-rule:nonzero;stroke:none;font-family:Arial;-inkscape-font-specification:ArialMT"
         x="37.545807 42.53434 52.511414 61.483601 66.472137 72.447617 82.42469 91.396873 96.385414 100.36906 110.34614 120.32321 125.31174 134.28394 139.27248 149.24954 154.23807 164.21515 173.18733"
         y="312.76575"
         sodipodi:role="line"
         id="tspan4422">Instruction status</tspan>
    </text>
    <path
       inkscape:connector-curvature="0"
       d="m 37.54643,314.64076 0,1.35 140.475,0 0,-1.35 -140.475,0 z"
       style="fill:#000000;fill-opacity:1;fill-rule:nonzero;stroke:none"
       id="path4424" />
    <text
       id="text4426"
       x="292.17081"
       y="312.76575"
       style="font-size:15px">
      <tspan
         style="font-size:17.94437599px;font-style:italic;font-variant:normal;font-weight:normal;font-stretch:normal;writing-mode:lr-tb;fill:#000000;fill-opacity:1;fill-rule:nonzero;stroke:none;font-family:Arial;-inkscape-font-specification:Arial-ItalicMT"
         x="292.17081 305.12665 315.1037 325.08078 362.06055 374.02945 383.00165 392.9787 401.9509 411.92798 416.9165"
         y="312.76575"
         sodipodi:role="line"
         id="tspan4428">ReadExecuti</tspan>
    </text>
    <g
       id="g4430"
       transform="matrix(0,1.25,1.25,0,-117.69232,131.94076)">
      <g
         id="g4432"
         clip-path="url(#clipPath4434)">
        <text
           transform="matrix(0,1,1,0,144.66,430.8864)"
           id="text4438">
          <tspan
             style="font-size:14.35550022px;font-style:italic;font-variant:normal;font-weight:normal;font-stretch:normal;writing-mode:lr-tb;fill:#000000;fill-opacity:1;fill-rule:nonzero;stroke:none;font-family:Arial;-inkscape-font-specification:Arial-ItalicMT"
             x="0"
             y="0"
             id="tspan4440">o</tspan>
        </text>
      </g>
    </g>
    <text
       id="text4442"
       x="430.92081"
       y="312.76575"
       style="font-size:15px">
      <tspan
         style="font-size:17.94437599px;font-style:italic;font-variant:normal;font-weight:normal;font-stretch:normal;writing-mode:lr-tb;fill:#000000;fill-opacity:1;fill-rule:nonzero;stroke:none;font-family:Arial;-inkscape-font-specification:Arial-ItalicMT"
         x="430.92081 447.86029 453.83575 457.81943 462.80795"
         y="312.76575"
         sodipodi:role="line"
         id="tspan4444">Write</tspan>
    </text>
    <text
       id="text4446"
       x="37.546005"
       y="335.64124"
       style="font-size:15px">
      <tspan
         style="font-size:17.94437599px;font-variant:normal;font-weight:normal;font-stretch:normal;writing-mode:lr-tb;fill:#000000;fill-opacity:1;fill-rule:nonzero;stroke:none;font-family:Arial;-inkscape-font-specification:ArialMT"
         x="37.546005 42.534542 52.511616 61.483799 66.472336 72.447815 82.424889 91.397072 96.385612 100.36926 110.34634"
         y="335.64124"
         sodipodi:role="line"
         id="tspan4448">Instruction</tspan>
    </text>
    <text
       id="text4450"
       x="151.39589"
       y="335.64124"
       style="font-size:15px">
      <tspan
         style="font-size:17.94437599px;font-style:italic;font-variant:normal;font-weight:normal;font-stretch:normal;writing-mode:lr-tb;fill:#000000;fill-opacity:1;fill-rule:nonzero;stroke:none;font-family:Arial;-inkscape-font-specification:Arial-ItalicMT"
         x="151.39589 198.26839 235.24277 240.23131 249.20349 258.17569 268.15277 292.16592 302.14301 312.12009 322.09714 328.07263 338.04968"
         y="335.64124"
         sodipodi:role="line"
         id="tspan4452">jkIssueoperan</tspan>
    </text>
    <g
       id="g4454"
       transform="matrix(0,1.25,1.25,0,-117.69232,131.94076)">
      <g
         id="g4456"
         clip-path="url(#clipPath4458)">
        <text
           transform="matrix(0,1,1,0,162.96,372.5902)"
           id="text4462">
          <tspan
             style="font-size:14.35550022px;font-style:italic;font-variant:normal;font-weight:normal;font-stretch:normal;writing-mode:lr-tb;fill:#000000;fill-opacity:1;fill-rule:nonzero;stroke:none;font-family:Arial;-inkscape-font-specification:Arial-ItalicMT"
             x="0"
             y="0"
             id="tspan4464">d</tspan>
        </text>
      </g>
    </g>
    <text
       id="text4466"
       x="362.0708"
       y="335.64075"
       style="font-size:15px">
      <tspan
         style="font-size:17.94437599px;font-style:italic;font-variant:normal;font-weight:normal;font-stretch:normal;writing-mode:lr-tb;fill:#000000;fill-opacity:1;fill-rule:nonzero;stroke:none;font-family:Arial;-inkscape-font-specification:Arial-ItalicMT"
         x="362.0708 371.043 381.02005 395.96771 405.94479 409.92844 419.90552"
         y="335.64075"
         sodipodi:role="line"
         id="tspan4468">complet</tspan>
    </text>
    <g
       id="g4470"
       transform="matrix(0,1.25,1.25,0,-117.69232,131.94076)">
      <g
         id="g4472"
         clip-path="url(#clipPath4474)">
        <text
           transform="matrix(0,1,1,0,162.96,434.0757)"
           id="text4478">
          <tspan
             style="font-size:14.35550022px;font-style:italic;font-variant:normal;font-weight:normal;font-stretch:normal;writing-mode:lr-tb;fill:#000000;fill-opacity:1;fill-rule:nonzero;stroke:none;font-family:Arial;-inkscape-font-specification:Arial-ItalicMT"
             x="0"
             y="0"
             id="tspan4480">e</tspan>
        </text>
      </g>
    </g>
    <text
       id="text4482"
       x="430.92081"
       y="335.64075"
       style="font-size:15px">
      <tspan
         style="font-size:17.94437599px;font-style:italic;font-variant:normal;font-weight:normal;font-stretch:normal;writing-mode:lr-tb;fill:#000000;fill-opacity:1;fill-rule:nonzero;stroke:none;font-family:Arial;-inkscape-font-specification:Arial-ItalicMT"
         x="430.92081 443.87665 453.8537 462.8259 472.80298 476.78662"
         y="335.64075"
         sodipodi:role="line"
         id="tspan4484">Result</tspan>
    </text>
    <text
       id="text4486"
       x="37.546005"
       y="358.59161"
       style="font-size:15px">
      <tspan
         style="font-size:17.94437599px;font-variant:normal;font-weight:normal;font-stretch:normal;writing-mode:lr-tb;fill:#000000;fill-opacity:1;fill-rule:nonzero;stroke:none;font-family:Arial;-inkscape-font-specification:ArialMT"
         x="37.546005 47.523079 91.465263 102.42928 139.3911 149.36816 159.34525 187.31155 200.2674 254.20639 318.10452 386.95172"
         y="358.59161"
         sodipodi:role="line"
         id="tspan4488">LDF634+R2123</tspan>
      <tspan
         style="font-size:17.94437599px;font-variant:normal;font-weight:normal;font-stretch:normal;writing-mode:lr-tb;fill:#dd0806;fill-opacity:1;fill-rule:nonzero;stroke:none;font-family:Arial;-inkscape-font-specification:ArialMT"
         x="37.546005 47.523079 91.465263 102.42928 139.3911 149.36816 159.34525 187.31155 200.2674"
         y="381.54248"
         sodipodi:role="line"
         id="tspan4490">LDF245+R3</tspan>
      <tspan
         style="font-size:17.94437599px;font-variant:normal;font-weight:normal;font-stretch:normal;writing-mode:lr-tb;fill:#0000d4;fill-opacity:1;fill-rule:nonzero;stroke:none;font-family:Arial;-inkscape-font-specification:ArialMT"
         x="37.546005 52.493671 65.449509 75.426582 91.468857 102.43287 139.3947 150.3587 187.32053 198.28453"
         y="404.41797"
         sodipodi:role="line"
         id="tspan4492">MULTF0F2F4</tspan>
      <tspan
         style="font-size:17.94437599px;font-variant:normal;font-weight:normal;font-stretch:normal;writing-mode:lr-tb;fill:#f20885;fill-opacity:1;fill-rule:nonzero;stroke:none;font-family:Arial;-inkscape-font-specification:ArialMT"
         x="37.546005 49.514904 62.470741 74.439636 91.465263 102.42928 139.3911 150.3551 187.31693 198.28094"
         y="427.3688"
         sodipodi:role="line"
         id="tspan4494">SUBDF8F6F2</tspan>
      <tspan
         style="font-size:17.94437599px;font-variant:normal;font-weight:normal;font-stretch:normal;writing-mode:lr-tb;fill:#008011;fill-opacity:1;fill-rule:nonzero;stroke:none;font-family:Arial;-inkscape-font-specification:ArialMT"
         x="37.546005 50.501842 55.490379 67.459274 91.468857 102.43287 112.40994 139.3911 150.3551 187.31693 198.28094"
         y="450.31967"
         sodipodi:role="line"
         id="tspan4496">DIVDF10F0F6</tspan>
      <tspan
         style="font-size:17.94437599px;font-variant:normal;font-weight:normal;font-stretch:normal;writing-mode:lr-tb;fill:#000000;fill-opacity:1;fill-rule:nonzero;stroke:none;font-family:Arial;-inkscape-font-specification:ArialMT"
         x="37.546005 49.514904 62.470741 75.426582 91.46167 102.42569 139.38751 150.35152 187.31334 198.27736"
         y="473.27051"
         sodipodi:role="line"
         id="tspan4498">ADDDF6F8F2</tspan>
      <tspan
         style="font-size:17.94437599px;font-variant:normal;font-weight:normal;font-stretch:normal;writing-mode:lr-tb;fill:#000000;fill-opacity:1;fill-rule:nonzero;stroke:none;font-family:Arial;-inkscape-font-specification:ArialMT"
         x="37.546005 48.510017 58.487091 68.464165 77.436348 82.424889 86.408539 96.385612 106.36268 116.33975 120.32341 125.31194 135.28902 145.26608 149.24974 154.23827 159.22681 168.19899 173.18753 183.16461 188.15314 198.13022"
         y="496.146"
         sodipodi:role="line"
         id="tspan4500">Functional unit status</tspan>
    </text>
    <path
       inkscape:connector-curvature="0"
       d="m 37.54643,498.01576 0,1.35 169.35,0 0,-1.35 -169.35,0 z"
       style="fill:#000000;fill-opacity:1;fill-rule:nonzero;stroke:none"
       id="path4502" />
    <text
       id="text4504"
       x="362.0708"
       y="496.14075"
       style="font-size:15px">
      <tspan
         style="font-size:17.94437599px;font-style:italic;font-variant:normal;font-weight:normal;font-stretch:normal;writing-mode:lr-tb;fill:#000000;fill-opacity:1;fill-rule:nonzero;stroke:none;font-family:Arial;-inkscape-font-specification:Arial-ItalicMT"
         x="362.0708 372.04788 382.02493 390.99713 430.918 442.88687 478.84024 490.80911 526.76245 537.7265 550.68231 555.67084 560.65942 570.63647 576.61194 581.60046 594.64069 605.60468 618.56049 623.54907 628.5376 638.51465 644.49011 649.4787 667.54688 678.51086 682.49451 728.4447 739.40869 748.38086"
         y="496.14075"
         sodipodi:role="line"
         id="tspan4506">destS1S2FU for jFU for kFj?Fk?</tspan>
      <tspan
         style="font-size:17.94437599px;font-style:italic;font-variant:normal;font-weight:normal;font-stretch:normal;writing-mode:lr-tb;fill:#000000;fill-opacity:1;fill-rule:nonzero;stroke:none;font-family:Arial;-inkscape-font-specification:Arial-ItalicMT"
         x="91.46962 102.43363 106.41728 121.36494 139.39188 152.3477 162.32478 177.27245 235.23279 247.20168 257.17874 266.15094 292.15591 306.11664 362.05646 373.02045 430.90723 441.87122 478.83127 489.79529 526.75891 540.7196 594.63348 608.59424 667.53607 680.49194 728.4303 741.38617"
         y="519.09161"
         sodipodi:role="line"
         id="tspan4508">TimeNameBusyOpFiFjFkQjQkRjRk</tspan>
    </text>
    <text
       id="text4510"
       x="139.39548"
       y="542.04248"
       style="font-size:15px">
      <tspan
         style="font-size:17.94437599px;font-variant:normal;font-weight:normal;font-stretch:normal;writing-mode:lr-tb;fill:#000000;fill-opacity:1;fill-rule:nonzero;stroke:none;font-family:Arial;-inkscape-font-specification:ArialMT"
         x="139.39548 144.384 154.36108 159.34961 169.32669 179.30376 189.28084 235.23997 247.20886 257.18594 292.16312 302.1402 312.11725 322.09433 362.05286 373.01688 478.8277 491.78351 728.42316 740.39209 750.36914"
         y="542.04248"
         sodipodi:role="line"
         id="tspan4512">IntegerYesLoadF6R2Yes</tspan>
    </text>
    <g
       id="g4514"
       transform="matrix(1.251,0,0,1.2490625,-117.69232,131.94076)">
      <g
         id="g4516"
         transform="translate(278.961,166.265)">
        <path
           inkscape:connector-curvature="0"
           d="M 0,0 0,110.183"
           style="fill:none;stroke:#000000;stroke-width:0.79799998;stroke-linecap:round;stroke-linejoin:round;stroke-miterlimit:10;stroke-opacity:1;stroke-dasharray:none"
           id="path4518" />
      </g>
    </g>
    <text
       id="text4520"
       x="139.3958"
       y="564.91577"
       style="font-size:15px">
      <tspan
         style="font-size:17.94437599px;font-variant:normal;font-weight:normal;font-stretch:normal;writing-mode:lr-tb;fill:#000000;fill-opacity:1;fill-rule:nonzero;stroke:none;font-family:Arial;-inkscape-font-specification:ArialMT"
         x="139.3958 154.34346 164.32054 168.30418 173.29272 235.2403 248.19614"
         y="564.91577"
         sodipodi:role="line"
         id="tspan4522">Mult1No</tspan>
      <tspan
         style="font-size:17.94437599px;font-variant:normal;font-weight:normal;font-stretch:normal;writing-mode:lr-tb;fill:#000000;fill-opacity:1;fill-rule:nonzero;stroke:none;font-family:Arial;-inkscape-font-specification:ArialMT"
         x="139.3958 154.34346 164.32054 168.30418 173.29272 235.2403 248.19614"
         y="587.86664"
         sodipodi:role="line"
         id="tspan4524">Mult2No</tspan>
      <tspan
         style="font-size:17.94437599px;font-variant:normal;font-weight:normal;font-stretch:normal;writing-mode:lr-tb;fill:#000000;fill-opacity:1;fill-rule:nonzero;stroke:none;font-family:Arial;-inkscape-font-specification:ArialMT"
         x="139.3958 151.3647 161.34177 235.2403 248.19614"
         y="610.81744"
         sodipodi:role="line"
         id="tspan4526">AddNo</tspan>
      <tspan
         style="font-size:17.94437599px;font-variant:normal;font-weight:normal;font-stretch:normal;writing-mode:lr-tb;fill:#000000;fill-opacity:1;fill-rule:nonzero;stroke:none;font-family:Arial;-inkscape-font-specification:ArialMT"
         x="139.3958 152.35164 156.3353 165.30748 169.29112 179.2682 235.23132 248.18716"
         y="633.76831"
         sodipodi:role="line"
         id="tspan4528">DivideNo</tspan>
      <tspan
         style="font-size:17.94437599px;font-variant:normal;font-weight:normal;font-stretch:normal;writing-mode:lr-tb;fill:#000000;fill-opacity:1;fill-rule:nonzero;stroke:none;font-family:Arial;-inkscape-font-specification:ArialMT"
         x="37.545319 50.501156 60.478233 70.455307 74.438957 83.411148 88.399681 98.376755 104.35223 109.34077 115.31625 125.29332 134.2655 144.24257 148.22623 153.21477 158.20329 167.17549 172.16402 182.1411 187.12964 197.1067"
         y="656.6438"
         sodipodi:role="line"
         id="tspan4530">Register result status</tspan>
    </text>
    <path
       inkscape:connector-curvature="0"
       d="m 37.54643,658.51576 0,1.35 168.45,0 0,-1.35 -168.45,0 z"
       style="fill:#000000;fill-opacity:1;fill-rule:nonzero;stroke:none"
       id="path4532" />
    <text
       id="text4534"
       x="38.595806"
       y="683.56573"
       style="font-size:15px">
      <tspan
         style="font-size:23.92587471px;font-variant:normal;font-weight:normal;font-stretch:normal;writing-mode:lr-tb;fill:#000000;fill-opacity:1;fill-rule:nonzero;stroke:none;font-family:Arial;-inkscape-font-specification:ArialMT"
         x="38.595806 55.870289 61.181831 74.484619 86.447556"
         y="683.56573"
         sodipodi:role="line"
         id="tspan4536">Clock</tspan>
    </text>
    <text
       id="text4538"
       x="236.22115"
       y="683.56573"
       style="font-size:15px">
      <tspan
         style="font-size:23.92587471px;font-style:italic;font-variant:normal;font-weight:normal;font-stretch:normal;writing-mode:lr-tb;fill:#000000;fill-opacity:1;fill-rule:nonzero;stroke:none;font-family:Arial;-inkscape-font-specification:Arial-ItalicMT"
         x="236.22115 250.83984 293.14557 307.76428 363.04501 377.66376 431.89413 446.51282 479.82004 494.43875 527.74597 542.36469 555.66748 595.69305 610.31177 623.61456 668.51385 675.16522 681.81665 729.42676 744.04541 757.34821"
         y="683.56573"
         sodipodi:role="line"
         id="tspan4540">F0F2F4F6F8F10F12...F30</tspan>
    </text>
    <text
       id="text4542"
       x="70.545807"
       y="708.54077"
       style="font-size:15px">
      <tspan
         style="font-size:17.94437599px;font-variant:normal;font-weight:bold;font-stretch:normal;writing-mode:lr-tb;fill:#000000;fill-opacity:1;fill-rule:nonzero;stroke:none;font-family:Arial;-inkscape-font-specification:Arial-BoldMT"
         x="70.545807"
         y="708.54077"
         id="tspan4544">3</tspan>
    </text>
    <text
       id="text4546"
       x="187.32062"
       y="708.54077"
       style="font-size:15px">
      <tspan
         style="font-size:17.94437599px;font-style:italic;font-variant:normal;font-weight:normal;font-stretch:normal;writing-mode:lr-tb;fill:#000000;fill-opacity:1;fill-rule:nonzero;stroke:none;font-family:Arial;-inkscape-font-specification:Arial-ItalicMT"
         x="187.32062 198.28464"
         y="708.54077"
         sodipodi:role="line"
         id="tspan4548">FU</tspan>
    </text>
    <text
       id="text4550"
       x="430.9209"
       y="708.54077"
       style="font-size:15px">
      <tspan
         style="font-size:17.94437599px;font-variant:normal;font-weight:normal;font-stretch:normal;writing-mode:lr-tb;fill:#000000;fill-opacity:1;fill-rule:nonzero;stroke:none;font-family:Arial;-inkscape-font-specification:ArialMT"
         x="430.9209 435.90942 445.88651 450.87503 460.85211 470.82919 480.80624"
         y="708.54077"
         sodipodi:role="line"
         id="tspan4552">Integer</tspan>
    </text>
    <g
       id="g4554"
       transform="matrix(1.251,0,0,1.2490625,-117.69232,131.94076)">
      <g
         id="g4556"
         transform="translate(278.961,313.135)">
        <path
           inkscape:connector-curvature="0"
           d="M 0,0 0,91.809"
           style="fill:none;stroke:#000000;stroke-width:0.79799998;stroke-linecap:round;stroke-linejoin:round;stroke-miterlimit:10;stroke-opacity:1;stroke-dasharray:none"
           id="path4558" />
        <g
           id="g4560"
           transform="translate(450.141,0)">
          <path
             inkscape:connector-curvature="0"
             d="M 0,0 0,91.809"
             style="fill:none;stroke:#000000;stroke-width:0.79799998;stroke-linecap:round;stroke-linejoin:round;stroke-miterlimit:10;stroke-opacity:1;stroke-dasharray:none"
             id="path4562" />
          <g
             id="g4564"
             transform="translate(-450.141,133.3)">
            <path
               inkscape:connector-curvature="0"
               d="M 0,0 0,18.374"
               style="fill:none;stroke:#000000;stroke-width:0.79799998;stroke-linecap:round;stroke-linejoin:round;stroke-miterlimit:10;stroke-opacity:1;stroke-dasharray:none"
               id="path4566" />
            <g
               id="g4568"
               transform="translate(194.734,-280.171)">
              <path
                 inkscape:connector-curvature="0"
                 d="M 0,0 0,110.183"
                 style="fill:none;stroke:#000000;stroke-width:0.79799998;stroke-linecap:round;stroke-linejoin:round;stroke-miterlimit:10;stroke-opacity:1;stroke-dasharray:none"
                 id="path4570" />
              <g
                 id="g4572"
                 transform="translate(255.408,280.171)">
                <path
                   inkscape:connector-curvature="0"
                   d="M 0,0 0,18.374"
                   style="fill:none;stroke:#000000;stroke-width:0.79799998;stroke-linecap:round;stroke-linejoin:round;stroke-miterlimit:10;stroke-opacity:1;stroke-dasharray:none"
                   id="path4574" />
              </g>
            </g>
          </g>
        </g>
      </g>
    </g>
    <g
       id="g4576"
       transform="matrix(0,1.25,1.25,0,360.19643,348.69076)">
      <path
         inkscape:connector-curvature="0"
         d="m 0,0 -0.66,0 -0.6,0.12 c -12.321,3.347 -12.319,41.377 0,44.7 l 0.6,0.12 L 0,45 C 13.466,43.922 13.766,4.712 1.86,0.3 L 1.26,0.12 0.6,0 0,0 z M 0.36,3 0.18,3 0.66,3.06 0.48,3 0.96,3.18 0.78,3.12 1.2,3.3 1.08,3.24 1.5,3.48 1.38,3.36 1.8,3.66 1.74,3.6 2.16,3.9 2.04,3.84 2.46,4.26 2.4,4.14 2.82,4.56 2.76,4.5 3.12,4.98 3.06,4.92 3.48,5.4 3.42,5.34 3.78,5.88 3.72,5.82 l 0.36,0.6 0,-0.06 0.3,0.66 0,-0.06 0.3,0.66 0,-0.06 0.3,0.66 0.3,0.72 -0.06,-0.06 0.3,0.78 0,-0.06 0.48,1.56 0.24,0.84 0,-0.06 0.18,0.9 0,-0.06 0.54,2.7 0.12,0.96 0,-0.06 0.24,2.04 0,-0.06 0.12,2.1 0,-0.06 0.06,1.02 0,1.08 0,-0.06 0,1.08 -0.06,1.08 0,-0.06 -0.12,2.04 0,-0.06 -0.24,2.04 0,-0.06 -0.12,0.96 -0.18,0.96 0,-0.06 -0.18,0.96 0,-0.06 -0.18,0.9 -0.18,0.84 0,-0.06 -0.24,0.9 0,-0.06 -0.24,0.84 0,-0.06 -0.24,0.78 -0.3,0.72 0.06,-0.06 -0.3,0.78 0,-0.06 -0.6,1.32 0,-0.06 -0.3,0.6 0,-0.06 -0.36,0.6 L 3.78,39.06 3.42,39.6 3.48,39.54 3.06,40.02 3.12,39.96 2.76,40.44 2.82,40.38 2.4,40.8 2.46,40.74 2.04,41.1 2.16,41.04 1.74,41.34 1.8,41.28 1.38,41.58 1.5,41.52 1.08,41.7 1.2,41.64 0.78,41.88 0.9,41.82 0.48,41.94 0.66,41.88 0.18,42 0.36,41.94 -0.12,42 l 0.18,0 -0.42,-0.06 0.12,0.06 -0.42,-0.12 0.18,0.06 -0.48,-0.12 0.12,0.06 -0.42,-0.24 0.12,0.06 -0.42,-0.18 0.12,0.06 -0.42,-0.3 0.12,0.06 -0.42,-0.3 0.06,0.06 -0.42,-0.36 0.12,0.06 -0.42,-0.42 0.06,0.06 -0.42,-0.48 0.06,0.12 -0.36,-0.54 0.06,0.06 -0.36,-0.54 0,0.06 -0.36,-0.6 0.06,0.06 -0.36,-0.6 0.06,0.06 -0.36,-0.66 0.06,0 -0.36,-0.66 0.06,0.06 -0.6,-1.44 0.06,0 -0.3,-0.78 0,0.06 -0.24,-0.84 0,0.06 -0.18,-0.84 -0.24,-0.9 0,0.06 -0.18,-0.9 0,0.06 -0.18,-0.96 0,0.06 -0.18,-0.96 0.06,0 -0.18,-0.96 0,0.06 -0.18,-2.04 0,0.12 -0.18,-2.1 0,0.06 0,-2.16 0,0.06 0,-2.1 0,0.06 0.18,-2.1 0,0.06 0.18,-2.04 0,0.06 0.18,-0.96 -0.06,0 0.54,-2.7 0,0.06 0.24,-0.9 -0.06,0.06 0.24,-0.84 0.24,-0.78 0.3,-0.78 -0.06,0.06 0.3,-0.78 0,0.06 0.3,-0.72 -0.06,0 0.36,-0.66 -0.06,0.06 0.36,-0.66 -0.06,0 0.36,-0.6 -0.06,0.06 0.36,-0.6 0,0.06 L -3.42,5.34 -3.48,5.4 -3.12,4.92 -3.18,4.98 -2.76,4.5 -2.82,4.56 -2.4,4.14 -2.52,4.26 -2.1,3.84 -2.16,3.9 -1.74,3.6 -1.86,3.66 -1.44,3.36 -1.56,3.48 -1.14,3.24 -1.26,3.3 -0.84,3.12 -0.96,3.18 -0.48,3 -0.66,3.06 -0.24,3 -0.42,3 0.06,3 -0.12,3"
         style="fill:#336699;fill-opacity:1;fill-rule:nonzero;stroke:none"
         id="path4578" />
    </g>
  </g>
</svg>
