<?xml version="1.0" encoding="UTF-8" standalone="no"?>
<!-- Created with Inkscape (http://www.inkscape.org/) -->

<svg
   xmlns:dc="http://purl.org/dc/elements/1.1/"
   xmlns:cc="http://creativecommons.org/ns#"
   xmlns:rdf="http://www.w3.org/1999/02/22-rdf-syntax-ns#"
   xmlns:svg="http://www.w3.org/2000/svg"
   xmlns="http://www.w3.org/2000/svg"
   xmlns:sodipodi="http://sodipodi.sourceforge.net/DTD/sodipodi-0.dtd"
   xmlns:inkscape="http://www.inkscape.org/namespaces/inkscape"
   width="836.99646"
   height="508.83405"
   id="svg7577"
   version="1.1"
   inkscape:version="0.48.4 r9939"
   sodipodi:docname="New document 19">
  <defs
     id="defs7579">
    <clipPath
       id="clipPath7963"
       clipPathUnits="userSpaceOnUse">
      <path
         id="path7965"
         d="m 477.9,289.911 0.12003,0 0,438.54 -0.12003,0 0,-438.54 z"
         inkscape:connector-curvature="0" />
    </clipPath>
    <clipPath
       id="clipPath7949"
       clipPathUnits="userSpaceOnUse">
      <path
         id="path7951"
         d="m 458.88,289.911 0.12,0 0,438.54 -0.12,0 0,-438.54 z"
         inkscape:connector-curvature="0" />
    </clipPath>
    <clipPath
       id="clipPath7935"
       clipPathUnits="userSpaceOnUse">
      <path
         id="path7937"
         d="m 398.1,289.911 0.12,0 0,438.54 -0.12,0 0,-438.54 z"
         inkscape:connector-curvature="0" />
    </clipPath>
    <clipPath
       id="clipPath7921"
       clipPathUnits="userSpaceOnUse">
      <path
         id="path7923"
         d="m 302.94,289.911 0.12,0 0,438.54 -0.12,0 0,-438.54 z"
         inkscape:connector-curvature="0" />
    </clipPath>
    <clipPath
       id="clipPath7807"
       clipPathUnits="userSpaceOnUse">
      <path
         id="path7809"
         d="m 284.52,692.151 17.76,0 0,20.82 -17.76,0 0,-20.82 z"
         inkscape:connector-curvature="0" />
    </clipPath>
    <clipPath
       id="clipPath7791"
       clipPathUnits="userSpaceOnUse">
      <path
         id="path7793"
         d="m 284.52,645.471 17.76,0 0,17.04 -17.76,0 0,-17.04 z"
         inkscape:connector-curvature="0" />
    </clipPath>
    <clipPath
       id="clipPath7775"
       clipPathUnits="userSpaceOnUse">
      <path
         id="path7777"
         d="m 284.52,594.471 17.76,0 0,22.44 -17.76,0 0,-22.44 z"
         inkscape:connector-curvature="0" />
    </clipPath>
    <clipPath
       id="clipPath7759"
       clipPathUnits="userSpaceOnUse">
      <path
         id="path7761"
         d="m 284.52,497.991 17.76,0 0,20.16 -17.76,0 0,-20.16 z"
         inkscape:connector-curvature="0" />
    </clipPath>
    <clipPath
       id="clipPath7743"
       clipPathUnits="userSpaceOnUse">
      <path
         id="path7745"
         d="m 284.52,450.591 17.76,0 0,16.38 -17.76,0 0,-16.38 z"
         inkscape:connector-curvature="0" />
    </clipPath>
    <clipPath
       id="clipPath7727"
       clipPathUnits="userSpaceOnUse">
      <path
         id="path7729"
         d="m 284.52,401.211 17.76,0 0,17.34 -17.76,0 0,-17.34 z"
         inkscape:connector-curvature="0" />
    </clipPath>
    <clipPath
       id="clipPath7675"
       clipPathUnits="userSpaceOnUse">
      <path
         id="path7677"
         d="m 113.28,292.131 17.76,0 0,39.12 -17.76,0 0,-39.12 z"
         inkscape:connector-curvature="0" />
    </clipPath>
    <clipPath
       id="clipPath7605"
       clipPathUnits="userSpaceOnUse">
      <path
         id="path7607"
         d="m 0,841.98 595.2,0 L 595.2,0 0,0 0,841.98 z"
         inkscape:connector-curvature="0" />
    </clipPath>
    <clipPath
       id="clipPath7599"
       clipPathUnits="userSpaceOnUse">
      <path
         id="path7601"
         clip-rule="evenodd"
         d="m 567.48,61.011 -540,0 0,720 540,0 0,-720 z"
         inkscape:connector-curvature="0" />
    </clipPath>
  </defs>
  <sodipodi:namedview
     id="base"
     pagecolor="#ffffff"
     bordercolor="#666666"
     borderopacity="1.0"
     inkscape:pageopacity="0.0"
     inkscape:pageshadow="2"
     inkscape:zoom="0.7"
     inkscape:cx="440.64381"
     inkscape:cy="101.89218"
     inkscape:document-units="px"
     inkscape:current-layer="layer1"
     showgrid="false"
     fit-margin-top="10"
     fit-margin-left="10"
     fit-margin-right="10"
     fit-margin-bottom="10"
     inkscape:window-width="954"
     inkscape:window-height="1028"
     inkscape:window-x="0"
     inkscape:window-y="0"
     inkscape:window-maximized="0" />
  <metadata
     id="metadata7582">
    <rdf:RDF>
      <cc:Work
         rdf:about="">
        <dc:format>image/svg+xml</dc:format>
        <dc:type
           rdf:resource="http://purl.org/dc/dcmitype/StillImage" />
        <dc:title></dc:title>
      </cc:Work>
    </rdf:RDF>
  </metadata>
  <g
     inkscape:label="Layer 1"
     inkscape:groupmode="layer"
     id="layer1"
     transform="translate(7.7179185,-334.29246)">
    <g
       id="g7639"
       transform="matrix(0,1.25,1.25,0,221.15357,674.27647)">
      <path
         inkscape:connector-curvature="0"
         d="m 0,0 -0.78,0.06 -0.96,0.12 -0.84,0.18 c -3.841,1.161 -6.577,4.657 -6.6,8.7 l 0,460.26 0.06,0.78 c 0.222,3.92 3.333,7.45 7.2,8.16 l 0.9,0.18 0.9,0.06 27.96,0 0.84,-0.06 c 3.946,-0.236 7.402,-3.333 8.16,-7.2 l 0.18,-0.9 0.06,-0.96 0,-460.2 C 36.95,7.3 36.857,6.623 36,4.92 L 35.58,4.14 35.04,3.42 C 34.114,2.342 32.909,1.28 31.56,0.78 L 30.72,0.42 29.82,0.18 28.92,0.06 27.96,0 0,0 z m 27.72,4.5 0.54,0 0.48,0.06 0.42,0.12 c 2.027,0.596 3.397,2.365 3.42,4.5 l 0,460.5 c -0.276,2.077 -1.568,3.717 -3.66,4.2 l -0.48,0.06 -0.6,0.06 -28.2,0 c -1.958,-0.169 -3.834,-1.673 -4.2,-3.66 l -0.06,-0.48 -0.06,-0.54 0,-460.5 0.06,-0.48 0.24,-0.84 0.24,-0.42 0.18,-0.42 0.3,-0.36 C -3.263,5.774 -2.564,5.108 -1.92,4.92 L -1.5,4.74 -1.02,4.62 -0.54,4.56 0,4.5"
         style="fill:#336699;fill-opacity:1;fill-rule:nonzero;stroke:none"
         id="path7641" />
    </g>
    <g
       id="g7643"
       transform="matrix(0,1.25,1.25,0,372.05357,433.07647)">
      <path
         inkscape:connector-curvature="0"
         d="m 0,0 -0.72,0.06 -0.72,0.12 c -15.997,3.517 -15.997,41.183 0,44.7 l 0.72,0.12 1.5,0 C 9.078,44.07 12.911,32.978 13.38,25.86 l 0.06,-1.08 0.06,-1.14 C 13.847,15.811 11.116,3.727 2.94,0.54 L 2.22,0.3 0.78,0.06 0,0 z m 0.6,3.06 -0.18,0 0.66,0.06 -0.18,0 L 1.5,3.24 1.44,3.18 1.98,3.36 1.86,3.36 2.46,3.6 2.34,3.54 2.94,3.84 2.82,3.78 3.42,4.08 3.3,4.02 3.84,4.44 3.78,4.38 4.32,4.8 4.26,4.74 4.74,5.16 4.68,5.1 5.16,5.64 5.1,5.58 5.64,6.12 5.58,6.06 6.06,6.66 6,6.6 6.48,7.2 6.42,7.14 6.84,7.8 6.84,7.74 7.2,8.46 7.2,8.4 7.62,9.12 7.56,9.06 l 0.36,0.78 0,-0.06 0.36,0.78 0.3,0.78 0,-0.06 0.3,0.9 0,-0.06 0.3,0.84 -0.06,0 0.3,0.9 0,-0.06 0.24,0.96 -0.06,-0.06 0.24,0.96 0,-0.06 0.18,0.96 0,-0.06 0.12,1.02 0,-0.06 0.18,1.02 0.06,1.02 0,-0.06 0.06,1.02 0.06,1.08 0,-0.06 0,1.08 0,-0.06 0,1.08 0,-0.06 -0.06,1.08 0,-0.06 -0.06,1.08 0,-0.06 -0.06,1.02 -0.18,1.02 0,-0.06 -0.12,1.02 0,-0.06 -0.18,0.96 0,-0.06 -0.24,0.96 0.06,-0.06 -0.24,0.96 0,-0.06 -0.3,0.9 0.06,-0.06 -0.3,0.9 0,-0.06 -0.3,0.9 0,-0.06 -0.3,0.78 -0.36,0.78 0,-0.06 -0.36,0.78 0.06,-0.06 -0.42,0.72 0,-0.06 -0.36,0.72 0,-0.06 -0.42,0.66 0,-0.06 L 6,38.46 6.06,38.4 5.58,39 l 0.06,-0.06 -0.48,0.54 0,-0.06 -0.48,0.54 0.06,-0.06 -0.48,0.42 0.06,-0.06 -0.54,0.42 0.06,-0.06 -0.54,0.42 0.12,-0.06 -0.6,0.3 0.12,-0.06 -0.6,0.3 0.12,-0.06 -0.6,0.24 0.12,-0.06 -0.54,0.24 0.06,-0.06 -0.6,0.12 0.18,0 -0.66,0.06 0.18,0 -0.66,0 0.18,0 -0.66,0 0.12,0 -0.6,-0.06 0.18,0 -0.6,-0.12 0.06,0.06 -0.54,-0.24 0.06,0.06 -0.54,-0.24 0.12,0.06 -0.6,-0.3 0.12,0.06 -0.6,-0.3 0.12,0.06 -0.54,-0.42 0.06,0.06 -0.54,-0.42 0.06,0.06 -0.48,-0.42 0.06,0.06 -0.48,-0.54 0,0.06 -0.48,-0.54 0.06,0.06 -0.48,-0.6 0.06,0.06 -0.42,-0.6 0,0.06 -0.42,-0.66 0,0.06 -0.42,-0.72 0.06,0.06 -0.42,-0.72 0.06,0.06 -0.36,-0.78 0,0.06 -0.36,-0.78 0,0.06 -0.6,-1.68 0,0.06 -0.3,-0.9 0.06,0.06 -0.3,-0.9 0,0.06 -0.24,-0.96 0.06,0.06 -0.24,-0.96 0,0.06 -0.18,-0.96 0,0.06 -0.18,-1.02 0.06,0.06 -0.18,-1.02 0,0.06 -0.06,-1.08 0,0.06 -0.12,-1.08 0.06,0.06 -0.06,-1.08 0,0.06 -0.06,-1.08 0,0.06 0.06,-1.08 0,0.06 0,-1.08 0,0.06 0.12,-1.08 0,0.06 0.06,-1.02 0.18,-1.02 -0.06,0.06 0.18,-1.02 0,0.06 0.18,-0.96 0,0.06 0.24,-0.96 -0.06,0.06 0.24,-0.96 0,0.06 0.3,-0.9 -0.06,0 0.3,-0.84 0,0.06 0.3,-0.9 0,0.06 0.3,-0.78 0.36,-0.78 0,0.06 0.36,-0.78 -0.06,0.06 0.42,-0.72 -0.06,0.06 0.42,-0.72 0,0.06 0.42,-0.66 0,0.06 0.42,-0.6 -0.06,0.06 0.48,-0.6 -0.06,0.06 0.48,-0.54 0,0.06 0.48,-0.54 -0.06,0.06 0.48,-0.42 -0.06,0.06 0.54,-0.42 -0.06,0.06 0.54,-0.42 -0.12,0.06 0.6,-0.3 -0.12,0.06 0.6,-0.3 -0.12,0.06 0.54,-0.24 -0.06,0 0.54,-0.18 -0.06,0.06 0.6,-0.12 -0.18,0 0.66,-0.06 -0.18,0 L 0.12,3 -0.06,3"
         style="fill:#669900;fill-opacity:1;fill-rule:nonzero;stroke:none"
         id="path7645" />
    </g>
    <g
       id="g7647"
       transform="matrix(0,1.25,1.25,0,244.55357,478.07647)">
      <path
         inkscape:connector-curvature="0"
         d="m 0,0 -0.72,0.06 -0.72,0.12 c -15.997,3.517 -15.997,41.183 0,44.7 l 0.72,0.12 1.5,0 C 9.078,44.07 12.911,32.978 13.38,25.86 l 0.06,-1.08 0.06,-1.14 C 13.847,15.811 11.116,3.727 2.94,0.54 L 2.22,0.3 0.78,0.06 0,0 z m 0.6,3.06 -0.18,0 0.66,0.06 -0.18,0 L 1.5,3.24 1.44,3.18 1.98,3.36 1.86,3.36 2.46,3.6 2.34,3.54 2.94,3.84 2.82,3.78 3.42,4.08 3.3,4.02 3.84,4.44 3.78,4.38 4.32,4.8 4.26,4.74 4.74,5.16 4.68,5.1 5.16,5.64 5.1,5.58 5.64,6.12 5.58,6.06 6.06,6.66 6,6.6 6.48,7.2 6.42,7.14 6.84,7.8 6.84,7.74 7.2,8.46 7.2,8.4 7.62,9.12 7.56,9.06 l 0.36,0.78 0,-0.06 0.36,0.78 0.3,0.78 0,-0.06 0.3,0.9 0,-0.06 0.3,0.84 -0.06,0 0.3,0.9 0,-0.06 0.24,0.96 -0.06,-0.06 0.24,0.96 0,-0.06 0.18,0.96 0,-0.06 0.12,1.02 0,-0.06 0.18,1.02 0,-0.06 0.06,1.08 0,-0.06 0.06,1.02 0.06,1.08 0,-0.06 0,1.08 0,-0.06 0,1.08 0,-0.06 -0.06,1.08 0,-0.06 -0.06,1.08 0,-0.06 -0.06,1.02 -0.18,1.02 0,-0.06 -0.12,1.02 0,-0.06 -0.18,0.96 0,-0.06 -0.24,0.96 0.06,-0.06 -0.24,0.96 0,-0.06 -0.3,0.9 0.06,-0.06 -0.3,0.9 0,-0.06 -0.3,0.9 0,-0.06 -0.3,0.78 -0.36,0.78 0,-0.06 -0.36,0.78 0.06,-0.06 -0.42,0.72 0,-0.06 -0.36,0.72 0,-0.06 -0.42,0.66 0,-0.06 L 6,38.46 6.06,38.4 5.58,39 l 0.06,-0.06 -0.48,0.54 0,-0.06 -0.48,0.54 0.06,-0.06 -0.48,0.42 0.06,-0.06 -0.54,0.42 0.06,-0.06 -0.54,0.42 0.12,-0.06 -0.6,0.3 0.12,-0.06 -0.6,0.3 0.12,-0.06 -0.6,0.24 0.12,-0.06 -0.6,0.24 0.12,-0.06 -0.6,0.12 0.18,0 -0.66,0.06 0.18,0 -0.66,0 0.18,0 -0.66,0 0.12,0 -0.6,-0.06 0.18,0 -0.6,-0.12 0.06,0.06 -0.54,-0.24 0.06,0.06 -0.54,-0.24 0.12,0.06 -0.6,-0.3 0.12,0.06 -0.6,-0.3 0.12,0.06 -0.54,-0.42 0.06,0.06 -0.54,-0.42 0.06,0.06 -0.48,-0.42 0.06,0.06 -0.48,-0.54 0,0.06 -0.48,-0.54 0.06,0.06 -0.48,-0.6 0.06,0.06 -0.42,-0.6 0,0.06 -0.42,-0.66 0,0.06 -0.42,-0.72 0.06,0.06 -0.42,-0.72 0.06,0.06 -0.36,-0.78 0,0.06 -0.36,-0.78 0,0.06 -0.6,-1.68 0,0.06 -0.3,-0.9 0.06,0.06 -0.3,-0.9 0,0.06 -0.24,-0.96 0.06,0.06 -0.24,-0.96 0,0.06 -0.18,-0.96 0,0.06 -0.18,-1.02 0.06,0.06 -0.18,-1.02 0,0.06 -0.06,-1.08 0,0.06 -0.12,-1.08 0.06,0.06 -0.06,-1.08 0,0.06 -0.06,-1.08 0,0.06 0.06,-1.08 0,0.06 0,-1.08 0,0.06 0.12,-1.08 0,0.06 0.06,-1.08 0,0.06 0.18,-1.02 -0.06,0.06 0.18,-1.02 0,0.06 0.18,-0.96 0,0.06 0.24,-0.96 -0.06,0.06 0.24,-0.96 0,0.06 0.3,-0.9 -0.06,0 0.3,-0.84 0,0.06 0.3,-0.9 0,0.06 0.3,-0.78 0.36,-0.78 0,0.06 0.36,-0.78 -0.06,0.06 0.42,-0.72 -0.06,0.06 0.42,-0.72 0,0.06 0.42,-0.66 0,0.06 0.42,-0.6 -0.06,0.06 0.48,-0.6 -0.06,0.06 0.48,-0.54 0,0.06 0.48,-0.54 -0.06,0.06 0.48,-0.42 -0.06,0.06 0.54,-0.42 -0.06,0.06 0.54,-0.42 -0.12,0.06 0.6,-0.3 -0.12,0.06 0.6,-0.3 -0.12,0.06 0.54,-0.24 -0.06,0 0.54,-0.18 -0.06,0.06 0.6,-0.12 -0.18,0 0.66,-0.06 -0.18,0 L 0.12,3 -0.06,3"
         style="fill:#336699;fill-opacity:1;fill-rule:nonzero;stroke:none"
         id="path7649" />
    </g>
    <g
       id="g7651"
       transform="matrix(0,1.25,1.25,0,476.15357,768.02647)">
      <path
         inkscape:connector-curvature="0"
         d="M 0,0 -0.54,0 -1.2,0.06 -1.8,0.12 c -5.906,0.9 -10.406,6.096 -10.38,12.06 l 0,40.44 c 0.369,6.134 4.837,10.784 10.92,11.58 l 0.6,0 0.6,0.06 40.5,0 c 6.108,-0.391 10.788,-4.836 11.58,-10.92 l 0,-0.6 0.06,-0.66 0,-39.9 C 52.084,9.95 51.604,8.501 50.64,6.48 L 50.04,5.46 49.38,4.56 C 47.134,2.057 45.591,1.102 42.36,0.24 L 41.76,0.12 40.56,0 39.9,0 0,0 z m 39.84,4.5 0.78,0 0.36,0.06 c 3.806,0.604 6.564,3.762 6.6,7.62 l 0,40.2 c -0.192,3.785 -3.108,6.964 -6.9,7.32 l -0.36,0.06 -40.62,0 c -3.84,-0.222 -6.947,-3.077 -7.32,-6.9 l -0.06,-0.36 0,-40.26 c -0.096,-0.992 0.349,-2.824 0.9,-3.6 L -6.42,7.98 -6,7.38 c 0.899,-1.255 2.93,-2.493 4.44,-2.7 L -1.2,4.62 -0.78,4.56 -0.42,4.5 0,4.5"
         style="fill:#336699;fill-opacity:1;fill-rule:nonzero;stroke:none"
         id="path7653" />
    </g>
    <text
       transform="scale(1.0498879,0.95248261)"
       id="text7655"
       x="2.9793131"
       y="378.53864"
       style="font-size:14.28723907px">
      <tspan
         style="font-size:25.78144264px;font-style:italic;font-variant:normal;font-weight:normal;font-stretch:normal;writing-mode:lr-tb;fill:#ff0000;fill-opacity:1;fill-rule:nonzero;stroke:none;font-family:Times New Roman;-inkscape-font-specification:TimesNewRomanPS-ItalicMT"
         x="2.9793131 11.837816 24.767208 34.406891 41.69788 51.337566 64.26696 75.487038 82.778038 89.996841 102.92623 115.78601 122.28551 131.92519 139.144 152.07339 159.29219 172.2216 181.86128"
         y="378.53864"
         sodipodi:role="line"
         id="tspan7657">Instruction status:</tspan>
    </text>
    <text
       transform="scale(1.0498911,0.95247971)"
       id="text7659"
       x="297.08121"
       y="378.9335"
       style="font-size:14.28719521px">
      <tspan
         style="font-size:21.7530899px;font-style:italic;font-variant:normal;font-weight:normal;font-stretch:normal;writing-mode:lr-tb;fill:#000000;fill-opacity:1;fill-rule:nonzero;stroke:none;font-family:Times New Roman;-inkscape-font-specification:TimesNewRomanPS-ItalicMT"
         x="297.08121 310.79437 320.44186 331.74042 355.09888 368.81204 378.45953 388.10703 413.11221 430.04263 438.89612 446.1138 452.61798"
         y="378.9335"
         sodipodi:role="line"
         id="tspan7661">ReadExecWrite</tspan>
    </text>
    <text
       transform="scale(1.049889,0.9524816)"
       id="text7663"
       x="35.268436"
       y="405.15372"
       style="font-size:14.28722382px">
      <tspan
         style="font-size:18.53041077px;font-variant:normal;font-weight:normal;font-stretch:normal;writing-mode:lr-tb;fill:#000000;fill-opacity:1;fill-rule:nonzero;stroke:none;font-family:Times New Roman;-inkscape-font-specification:TimesNewRomanPSMT"
         x="35.268436 41.696636 51.339863 58.624165 63.414276 69.842476 79.557968 87.633522 92.423637 97.284157 106.92738"
         y="405.15372"
         sodipodi:role="line"
         id="tspan7665">Instruction</tspan>
    </text>
    <text
       transform="scale(1.049889,0.9524816)"
       id="text7667"
       x="173.78325"
       y="405.07404"
       style="font-size:14.28722382px">
      <tspan
         style="font-size:18.53041077px;font-style:italic;font-variant:normal;font-weight:normal;font-stretch:normal;writing-mode:lr-tb;fill:#000000;fill-opacity:1;fill-rule:nonzero;stroke:none;font-family:Times New Roman;-inkscape-font-specification:TimesNewRomanPS-ItalicMT"
         x="173.78325 210.86259"
         y="405.07404"
         sodipodi:role="line"
         id="tspan7669">jk</tspan>
    </text>
    <g
       id="g7671"
       transform="matrix(0,1.25,1.25,0,-114.83518,226.22647)">
      <g
         id="g7673"
         clip-path="url(#clipPath7675)">
        <text
           transform="matrix(0,1,0.90721757,0,127.44,292.6705)"
           id="text7679">
          <tspan
             style="font-size:18.27070045px;font-style:italic;font-variant:normal;font-weight:normal;font-stretch:normal;writing-mode:lr-tb;fill:#000000;fill-opacity:1;fill-rule:nonzero;stroke:none;font-family:Times New Roman;-inkscape-font-specification:TimesNewRomanPS-ItalicMT"
             x="0"
             y="0"
             id="tspan7681">I</tspan>
        </text>
      </g>
    </g>
    <text
       transform="scale(1.0498911,0.95247971)"
       id="text7683"
       x="246.29025"
       y="404.76083"
       style="font-size:14.28719521px">
      <tspan
         style="font-size:21.7530899px;font-style:italic;font-variant:normal;font-weight:normal;font-stretch:normal;writing-mode:lr-tb;fill:#000000;fill-opacity:1;fill-rule:nonzero;stroke:none;font-family:Times New Roman;-inkscape-font-specification:TimesNewRomanPS-ItalicMT"
         x="246.29025 255.15898 264.02771 275.24362 297.03586 313.14838 324.36426 334.08353 355.01001 369.51062 380.79828 396.91083 413.05594 426.75388 436.40137 445.27011 456.55344 463.00757"
         y="404.76083"
         sodipodi:role="line"
         id="tspan7685">ssueOperCompResult</tspan>
    </text>
    <text
       transform="scale(1.049889,0.9524816)"
       id="text7687"
       x="35.268436"
       y="430.98099"
       style="font-size:14.28722382px">
      <tspan
         style="font-size:18.53041077px;font-variant:normal;font-weight:normal;font-stretch:normal;writing-mode:lr-tb;fill:#000000;fill-opacity:1;fill-rule:nonzero;stroke:none;font-family:Times New Roman;-inkscape-font-specification:TimesNewRomanPSMT"
         x="35.268436 45.701057 116.63362 127.06068 160.9213 169.77882 178.63638 199.56831 211.71317 260.00339 318.00916 376.01489 434.02063"
         y="430.98099"
         sodipodi:role="line"
         id="tspan7689">LDF634+R21234</tspan>
      <tspan
         style="font-size:18.53041077px;font-variant:normal;font-weight:normal;font-stretch:normal;writing-mode:lr-tb;fill:#ff0000;fill-opacity:1;fill-rule:nonzero;stroke:none;font-family:Times New Roman;-inkscape-font-specification:TimesNewRomanPSMT"
         x="35.268436 45.701057 116.63362 127.06068 160.9213 169.77882 178.63638 199.56831 211.71317"
         y="455.94147"
         sodipodi:role="line"
         id="tspan7691">LDF245+R3</tspan>
      <tspan
         style="font-size:18.53041077px;font-variant:normal;font-weight:normal;font-stretch:normal;writing-mode:lr-tb;fill:#000000;fill-opacity:1;fill-rule:nonzero;stroke:none;font-family:Times New Roman;-inkscape-font-specification:TimesNewRomanPSMT"
         x="260.00711 318.01285 376.01859"
         y="455.94147"
         sodipodi:role="line"
         id="tspan7693">567</tspan>
      <tspan
         style="font-size:18.53041077px;font-variant:normal;font-weight:normal;font-stretch:normal;writing-mode:lr-tb;fill:#0000ff;fill-opacity:1;fill-rule:nonzero;stroke:none;font-family:Times New Roman;-inkscape-font-specification:TimesNewRomanPSMT"
         x="35.268436 50.552319 62.621174 73.126068 84.416641 116.63177 127.05882 160.91943 171.41693 199.56276 210.06024"
         y="480.90192"
         sodipodi:role="line"
         id="tspan7695">MULTDF0F2F4</tspan>
      <tspan
         style="font-size:18.53041077px;font-variant:normal;font-weight:normal;font-stretch:normal;writing-mode:lr-tb;fill:#000000;fill-opacity:1;fill-rule:nonzero;stroke:none;font-family:Times New Roman;-inkscape-font-specification:TimesNewRomanPSMT"
         x="260.00711"
         y="480.90192"
         id="tspan7697">6</tspan>
      <tspan
         style="font-size:18.53041077px;font-variant:normal;font-weight:normal;font-stretch:normal;writing-mode:lr-tb;fill:#ff00ff;fill-opacity:1;fill-rule:nonzero;stroke:none;font-family:Times New Roman;-inkscape-font-specification:TimesNewRomanPSMT"
         x="35.268436 45.730705 57.799564 69.086433 116.65956 127.12183 160.98244 171.44472 199.59055 210.05283"
         y="505.8624"
         sodipodi:role="line"
         id="tspan7699">SUBDF8F6F2</tspan>
      <tspan
         style="font-size:18.53041077px;font-variant:normal;font-weight:normal;font-stretch:normal;writing-mode:lr-tb;fill:#000000;fill-opacity:1;fill-rule:nonzero;stroke:none;font-family:Times New Roman;-inkscape-font-specification:TimesNewRomanPSMT"
         x="260.00711"
         y="505.8624"
         id="tspan7701">7</tspan>
      <tspan
         style="font-size:18.53041077px;font-variant:normal;font-weight:normal;font-stretch:normal;writing-mode:lr-tb;fill:#00ff00;fill-opacity:1;fill-rule:nonzero;stroke:none;font-family:Times New Roman;-inkscape-font-specification:TimesNewRomanPSMT"
         x="35.268436 48.158192 54.586391 67.476143 116.62064 127.04771 135.90524 160.90833 171.40581 199.55164 210.04912"
         y="530.90253"
         sodipodi:role="line"
         id="tspan7703">DIVDF10F0F6</tspan>
      <tspan
         style="font-size:18.53041077px;font-variant:normal;font-weight:normal;font-stretch:normal;writing-mode:lr-tb;fill:#000000;fill-opacity:1;fill-rule:nonzero;stroke:none;font-family:Times New Roman;-inkscape-font-specification:TimesNewRomanPSMT"
         x="35.268436 48.147072 61.025707 73.904343 116.62064 127.04771 160.90833 171.40581 199.55164 210.04912"
         y="555.86298"
         sodipodi:role="line"
         id="tspan7705">ADDDF6F8F2</tspan>
    </text>
    <text
       transform="scale(1.0498879,0.95248261)"
       id="text7707"
       x="2.9793131"
       y="603.34589"
       style="font-size:14.28723907px">
      <tspan
         style="font-size:25.78144264px;font-style:italic;font-variant:normal;font-weight:normal;font-stretch:normal;writing-mode:lr-tb;fill:#ff0000;fill-opacity:1;fill-rule:nonzero;stroke:none;font-family:Times New Roman;-inkscape-font-specification:TimesNewRomanPS-ItalicMT"
         x="2.9793131 18.342474 31.202257 44.170322 55.390404 62.634995 69.879578 82.736778 95.596573 108.52596 115.77054 122.27004 135.12724 147.98703 155.23161 162.4762 168.97571 178.61539 185.90637 198.76617 206.05716 218.91435 228.55405"
         y="603.34589"
         sodipodi:role="line"
         id="tspan7709">Functional unit status:</tspan>
    </text>
    <text
       transform="scale(1.0498911,0.95247971)"
       id="text7711"
       x="360.73068"
       y="603.74146"
       style="font-size:14.28719521px">
      <tspan
         style="font-size:21.7530899px;font-style:italic;font-variant:normal;font-weight:normal;font-stretch:normal;writing-mode:lr-tb;fill:#000000;fill-opacity:1;fill-rule:nonzero;stroke:none;font-family:Times New Roman;-inkscape-font-specification:TimesNewRomanPS-ItalicMT"
         x="360.73068 372.01837 381.66586 390.51938 426.02695 437.24283 484.03372 495.2496 538.7536 551.68146 596.75391 609.68176 653.96887 666.89673 672.58081 710.44202 723.30463 733.02393"
         y="603.74146"
         sodipodi:role="line"
         id="tspan7713">destS1S2FUFUFj?Fk?</tspan>
    </text>
    <text
       transform="scale(1.049889,0.9524816)"
       id="text7715"
       x="116.63418"
       y="629.88251"
       style="font-size:14.28722382px">
      <tspan
         style="font-size:18.53041077px;font-style:italic;font-variant:normal;font-weight:normal;font-stretch:normal;writing-mode:lr-tb;fill:#000000;fill-opacity:1;fill-rule:nonzero;stroke:none;font-family:Times New Roman;-inkscape-font-specification:TimesNewRomanPS-ItalicMT"
         x="116.63418 127.06124 131.92177 145.63428 160.92372 172.99628 182.6395 196.35201"
         y="629.88251"
         sodipodi:role="line"
         id="tspan7717">TimeName</tspan>
    </text>
    <text
       transform="scale(1.0498911,0.95247971)"
       id="text7719"
       x="241.50404"
       y="629.48999"
       style="font-size:14.28719521px">
      <tspan
         style="font-size:21.7530899px;font-style:italic;font-variant:normal;font-weight:normal;font-stretch:normal;writing-mode:lr-tb;fill:#000000;fill-opacity:1;fill-rule:nonzero;stroke:none;font-family:Times New Roman;-inkscape-font-specification:TimesNewRomanPS-ItalicMT"
         x="241.50404 255.17586 266.43307 275.2757 307.56818 323.65457"
         y="629.48999"
         sodipodi:role="line"
         id="tspan7721">BusyOp</tspan>
    </text>
    <g
       id="g7723"
       transform="matrix(0,1.25,1.25,0,-114.83518,226.22647)">
      <g
         id="g7725"
         clip-path="url(#clipPath7727)">
        <text
           transform="matrix(0,1,0.90721757,0,298.68,401.6305)"
           id="text7731">
          <tspan
             style="font-size:18.27070045px;font-style:italic;font-variant:normal;font-weight:normal;font-stretch:normal;writing-mode:lr-tb;fill:#000000;fill-opacity:1;fill-rule:nonzero;stroke:none;font-family:Times New Roman;-inkscape-font-specification:TimesNewRomanPS-ItalicMT"
             x="0"
             y="0"
             id="tspan7733">F</tspan>
        </text>
      </g>
    </g>
    <text
       transform="scale(1.0498911,0.95247971)"
       id="text7735"
       x="381.66144"
       y="629.48999"
       style="font-size:14.28719521px">
      <tspan
         style="font-size:21.7530899px;font-style:italic;font-variant:normal;font-weight:normal;font-stretch:normal;writing-mode:lr-tb;fill:#000000;fill-opacity:1;fill-rule:nonzero;stroke:none;font-family:Times New Roman;-inkscape-font-specification:TimesNewRomanPS-ItalicMT"
         x="381.66144"
         y="629.48999"
         id="tspan7737">i</tspan>
    </text>
    <g
       id="g7739"
       transform="matrix(0,1.25,1.25,0,-114.83518,226.22647)">
      <g
         id="g7741"
         clip-path="url(#clipPath7743)">
        <text
           transform="matrix(0,1,0.90721757,0,298.68,451.0105)"
           id="text7747">
          <tspan
             style="font-size:18.27070045px;font-style:italic;font-variant:normal;font-weight:normal;font-stretch:normal;writing-mode:lr-tb;fill:#000000;fill-opacity:1;fill-rule:nonzero;stroke:none;font-family:Times New Roman;-inkscape-font-specification:TimesNewRomanPS-ItalicMT"
             x="0"
             y="0"
             id="tspan7749">F</tspan>
        </text>
      </g>
    </g>
    <text
       transform="scale(1.0498911,0.95247971)"
       id="text7751"
       x="440.45322"
       y="629.48999"
       style="font-size:14.28719521px">
      <tspan
         style="font-size:21.7530899px;font-style:italic;font-variant:normal;font-weight:normal;font-stretch:normal;writing-mode:lr-tb;fill:#000000;fill-opacity:1;fill-rule:nonzero;stroke:none;font-family:Times New Roman;-inkscape-font-specification:TimesNewRomanPS-ItalicMT"
         x="440.45322"
         y="629.48999"
         id="tspan7753">j</tspan>
    </text>
    <g
       id="g7755"
       transform="matrix(0,1.25,1.25,0,-114.83518,226.22647)">
      <g
         id="g7757"
         clip-path="url(#clipPath7759)">
        <text
           transform="matrix(0,1,0.90721757,0,298.68,498.4105)"
           id="text7763">
          <tspan
             style="font-size:18.27070045px;font-style:italic;font-variant:normal;font-weight:normal;font-stretch:normal;writing-mode:lr-tb;fill:#000000;fill-opacity:1;fill-rule:nonzero;stroke:none;font-family:Times New Roman;-inkscape-font-specification:TimesNewRomanPS-ItalicMT"
             x="0"
             y="0"
             id="tspan7765">F</tspan>
        </text>
      </g>
    </g>
    <text
       transform="scale(1.0498911,0.95247971)"
       id="text7767"
       x="496.88766"
       y="629.48999"
       style="font-size:14.28719521px">
      <tspan
         style="font-size:21.7530899px;font-style:italic;font-variant:normal;font-weight:normal;font-stretch:normal;writing-mode:lr-tb;fill:#000000;fill-opacity:1;fill-rule:nonzero;stroke:none;font-family:Times New Roman;-inkscape-font-specification:TimesNewRomanPS-ItalicMT"
         x="496.88766 542.03839 558.10736 598.40063"
         y="629.48999"
         sodipodi:role="line"
         id="tspan7769">kQjQ</tspan>
    </text>
    <g
       id="g7771"
       transform="matrix(0,1.25,1.25,0,-114.83518,226.22647)">
      <g
         id="g7773"
         clip-path="url(#clipPath7775)">
        <text
           transform="matrix(0,1,0.90721757,0,298.68,608.0305)"
           id="text7779">
          <tspan
             style="font-size:18.27070045px;font-style:italic;font-variant:normal;font-weight:normal;font-stretch:normal;writing-mode:lr-tb;fill:#000000;fill-opacity:1;fill-rule:nonzero;stroke:none;font-family:Times New Roman;-inkscape-font-specification:TimesNewRomanPS-ItalicMT"
             x="0"
             y="0"
             id="tspan7781">k</tspan>
        </text>
      </g>
    </g>
    <text
       transform="scale(1.0498911,0.95247971)"
       id="text7783"
       x="659.61884"
       y="629.48999"
       style="font-size:14.28719521px">
      <tspan
         style="font-size:21.7530899px;font-style:italic;font-variant:normal;font-weight:normal;font-stretch:normal;writing-mode:lr-tb;fill:#000000;fill-opacity:1;fill-rule:nonzero;stroke:none;font-family:Times New Roman;-inkscape-font-specification:TimesNewRomanPS-ItalicMT"
         x="659.61884"
         y="629.48999"
         id="tspan7785">R</tspan>
    </text>
    <g
       id="g7787"
       transform="matrix(0,1.25,1.25,0,-114.83518,226.22647)">
      <g
         id="g7789"
         clip-path="url(#clipPath7791)">
        <text
           transform="matrix(0,1,0.90721757,0,298.68,657.4105)"
           id="text7795">
          <tspan
             style="font-size:18.27070045px;font-style:italic;font-variant:normal;font-weight:normal;font-stretch:normal;writing-mode:lr-tb;fill:#000000;fill-opacity:1;fill-rule:nonzero;stroke:none;font-family:Times New Roman;-inkscape-font-specification:TimesNewRomanPS-ItalicMT"
             x="0"
             y="0"
             id="tspan7797">j</tspan>
        </text>
      </g>
    </g>
    <text
       transform="scale(1.0498911,0.95247971)"
       id="text7799"
       x="715.19598"
       y="629.48999"
       style="font-size:14.28719521px">
      <tspan
         style="font-size:21.7530899px;font-style:italic;font-variant:normal;font-weight:normal;font-stretch:normal;writing-mode:lr-tb;fill:#000000;fill-opacity:1;fill-rule:nonzero;stroke:none;font-family:Times New Roman;-inkscape-font-specification:TimesNewRomanPS-ItalicMT"
         x="715.19598"
         y="629.48999"
         id="tspan7801">R</tspan>
    </text>
    <g
       id="g7803"
       transform="matrix(0,1.25,1.25,0,-114.83518,226.22647)">
      <g
         id="g7805"
         clip-path="url(#clipPath7807)">
        <text
           transform="matrix(0,1,0.90721757,0,298.68,704.0905)"
           id="text7811">
          <tspan
             style="font-size:18.27070045px;font-style:italic;font-variant:normal;font-weight:normal;font-stretch:normal;writing-mode:lr-tb;fill:#000000;fill-opacity:1;fill-rule:nonzero;stroke:none;font-family:Times New Roman;-inkscape-font-specification:TimesNewRomanPS-ItalicMT"
             x="0"
             y="0"
             id="tspan7813">k</tspan>
        </text>
      </g>
    </g>
    <text
       transform="scale(1.049889,0.9524816)"
       id="text7815"
       x="160.92456"
       y="655.78851"
       style="font-size:14.28722382px">
      <tspan
         style="font-size:18.53041077px;font-variant:normal;font-weight:normal;font-stretch:normal;writing-mode:lr-tb;fill:#000000;fill-opacity:1;fill-rule:nonzero;stroke:none;font-family:Times New Roman;-inkscape-font-specification:TimesNewRomanPSMT"
         x="160.92456 167.35461 177.07011 181.86023 189.93578 198.79332 206.86887 250.37271 263.22726 271.3028"
         y="655.78851"
         sodipodi:role="line"
         id="tspan7817">IntegerYes</tspan>
      <tspan
         style="font-size:18.53041077px;font-variant:normal;font-weight:normal;font-stretch:normal;writing-mode:lr-tb;fill:#ff0000;fill-opacity:1;fill-rule:nonzero;stroke:none;font-family:Times New Roman;-inkscape-font-specification:TimesNewRomanPSMT"
         x="303.5105 314.01541 323.65863 331.73419 371.23917 381.66623 486.39087 498.53568"
         y="655.78851"
         sodipodi:role="line"
         id="tspan7819">LoadF2R3</tspan>
      <tspan
         style="font-size:18.53041077px;font-variant:normal;font-weight:normal;font-stretch:normal;writing-mode:lr-tb;fill:#000000;fill-opacity:1;fill-rule:nonzero;stroke:none;font-family:Times New Roman;-inkscape-font-specification:TimesNewRomanPSMT"
         x="160.92456 176.20845 185.92395 190.71405 195.57458 250.3653 263.21985 271.29538"
         y="680.74896"
         sodipodi:role="line"
         id="tspan7821">Mult1Yes</tspan>
      <tspan
         style="font-size:18.53041077px;font-variant:normal;font-weight:normal;font-stretch:normal;writing-mode:lr-tb;fill:#3333cc;fill-opacity:1;fill-rule:nonzero;stroke:none;font-family:Times New Roman;-inkscape-font-specification:TimesNewRomanPSMT"
         x="305.15417 320.43805 330.08127 334.9418 371.23361 381.66068 429.23749 439.66455 487.24139 497.66843"
         y="680.74896"
         sodipodi:role="line"
         id="tspan7823">MultF0F2F4</tspan>
      <tspan
         style="font-size:18.53041077px;font-variant:normal;font-weight:normal;font-stretch:normal;writing-mode:lr-tb;fill:#ff0000;fill-opacity:1;fill-rule:nonzero;stroke:none;font-family:Times New Roman;-inkscape-font-specification:TimesNewRomanPSMT"
         x="528.32147 534.75153 544.39471 549.25525 557.33081 566.18835 574.26392"
         y="680.74896"
         sodipodi:role="line"
         id="tspan7825">Integer</tspan>
      <tspan
         style="font-size:18.53041077px;font-variant:normal;font-weight:normal;font-stretch:normal;writing-mode:lr-tb;fill:#3333cc;fill-opacity:1;fill-rule:nonzero;stroke:none;font-family:Times New Roman;-inkscape-font-specification:TimesNewRomanPSMT"
         x="659.62054 672.54736 714.40942 727.33618 735.33948"
         y="680.74896"
         sodipodi:role="line"
         id="tspan7827">NoYes</tspan>
      <tspan
         style="font-size:18.53041077px;font-variant:normal;font-weight:normal;font-stretch:normal;writing-mode:lr-tb;fill:#000000;fill-opacity:1;fill-rule:nonzero;stroke:none;font-family:Times New Roman;-inkscape-font-specification:TimesNewRomanPSMT"
         x="160.92456 176.20845 185.92395 190.71405 195.57458 253.58032 266.43488"
         y="705.70941"
         sodipodi:role="line"
         id="tspan7829">Mult2No</tspan>
      <tspan
         style="font-size:18.53041077px;font-variant:normal;font-weight:normal;font-stretch:normal;writing-mode:lr-tb;fill:#000000;fill-opacity:1;fill-rule:nonzero;stroke:none;font-family:Times New Roman;-inkscape-font-specification:TimesNewRomanPSMT"
         x="160.92456 173.77911 183.49461 250.35974 263.21429 271.28983"
         y="730.66986"
         sodipodi:role="line"
         id="tspan7831">AddYes</tspan>
      <tspan
         style="font-size:18.53041077px;font-variant:normal;font-weight:normal;font-stretch:normal;writing-mode:lr-tb;fill:#ff00ff;fill-opacity:1;fill-rule:nonzero;stroke:none;font-family:Times New Roman;-inkscape-font-specification:TimesNewRomanPSMT"
         x="307.5835 318.01056 327.72607 371.22992 381.65695 429.2338 439.66086 487.2377 497.66473"
         y="730.66986"
         sodipodi:role="line"
         id="tspan7833">SubF8F6F2</tspan>
      <tspan
         style="font-size:18.53041077px;font-variant:normal;font-weight:normal;font-stretch:normal;writing-mode:lr-tb;fill:#ff0000;fill-opacity:1;fill-rule:nonzero;stroke:none;font-family:Times New Roman;-inkscape-font-specification:TimesNewRomanPSMT"
         x="586.32721 592.75537 602.39862 607.25916 615.33472 624.19226 632.26782"
         y="730.66986"
         sodipodi:role="line"
         id="tspan7835">Integer</tspan>
      <tspan
         style="font-size:18.53041077px;font-variant:normal;font-weight:normal;font-stretch:normal;writing-mode:lr-tb;fill:#ff00ff;fill-opacity:1;fill-rule:nonzero;stroke:none;font-family:Times New Roman;-inkscape-font-specification:TimesNewRomanPSMT"
         x="656.40552 669.33234 677.33563 717.62256 730.54938"
         y="730.66986"
         sodipodi:role="line"
         id="tspan7837">YesNo</tspan>
      <tspan
         style="font-size:18.53041077px;font-variant:normal;font-weight:normal;font-stretch:normal;writing-mode:lr-tb;fill:#000000;fill-opacity:1;fill-rule:nonzero;stroke:none;font-family:Times New Roman;-inkscape-font-specification:TimesNewRomanPSMT"
         x="160.92456 173.77911 178.63963 188.28287 193.14339 202.78662 253.58032 266.43488"
         y="755.63031"
         sodipodi:role="line"
         id="tspan7839">DivideNo</tspan>
    </text>
    <text
       transform="scale(1.0498879,0.95248261)"
       id="text7841"
       x="2.9793131"
       y="801.53851"
       style="font-size:14.28723907px">
      <tspan
         style="font-size:25.78144264px;font-style:italic;font-variant:normal;font-weight:normal;font-stretch:normal;writing-mode:lr-tb;fill:#ff0000;fill-opacity:1;fill-rule:nonzero;stroke:none;font-family:Times New Roman;-inkscape-font-specification:TimesNewRomanPS-ItalicMT"
         x="2.9793131 19.128809 30.418503 43.275707 50.5667 60.242474 67.533463 78.823158 88.462845 94.892738 104.5685 115.8582 125.53397 138.39119 145.68217 152.90097 159.33087 169.00665 176.22543 189.15485 196.37364 209.30304 218.9427"
         y="801.53851"
         sodipodi:role="line"
         id="tspan7843">Register result status:</tspan>
    </text>
    <text
       transform="scale(1.0498879,0.95248261)"
       id="text7845"
       x="36.054321"
       y="833.74469"
       style="font-size:14.28723907px">
      <tspan
         style="font-size:25.78144264px;font-variant:normal;font-weight:normal;font-stretch:normal;writing-mode:lr-tb;fill:#000000;fill-opacity:1;fill-rule:nonzero;stroke:none;font-family:Times New Roman;-inkscape-font-specification:TimesNewRomanPSMT"
         x="36.054321 52.984993 60.203796 73.133186 84.422882"
         y="833.74469"
         sodipodi:role="line"
         id="tspan7847">Clock</tspan>
    </text>
    <text
       transform="scale(1.0498879,0.95248261)"
       id="text7849"
       x="248.72028"
       y="832.95831"
       style="font-size:14.28723907px">
      <tspan
         style="font-size:25.78144264px;font-style:italic;font-variant:normal;font-weight:normal;font-stretch:normal;writing-mode:lr-tb;fill:#000000;fill-opacity:1;fill-rule:nonzero;stroke:none;font-family:Times New Roman;-inkscape-font-specification:TimesNewRomanPS-ItalicMT"
         x="248.72028 264.08344 306.73111 322.09427 364.74194 380.1051 422.75275 438.11591 480.76358 496.12674 532.34448 547.70764 560.56744 590.35535 605.71851 618.57825 658.86951 665.29938 671.72931 706.37695 721.74017 734.59735"
         y="832.95831"
         sodipodi:role="line"
         id="tspan7851">F0F2F4F6F8F10F12...F30</tspan>
    </text>
    <text
       transform="scale(1.0498896,0.95248105)"
       id="text7853"
       x="68.271881"
       y="860.6748"
       style="font-size:14.28721619px">
      <tspan
         style="font-size:19.33608055px;font-variant:normal;font-weight:bold;font-stretch:normal;writing-mode:lr-tb;fill:#000000;fill-opacity:1;fill-rule:nonzero;stroke:none;font-family:Times New Roman;-inkscape-font-specification:TimesNewRomanPS-BoldMT"
         x="68.271881"
         y="860.6748"
         id="tspan7855">7</tspan>
    </text>
    <text
       transform="scale(1.0498896,0.95248105)"
       id="text7857"
       x="199.57161"
       y="860.2804"
       style="font-size:14.28721619px">
      <tspan
         style="font-size:19.33608055px;font-style:italic;font-variant:normal;font-weight:normal;font-stretch:normal;writing-mode:lr-tb;fill:#000000;fill-opacity:1;fill-rule:nonzero;stroke:none;font-family:Times New Roman;-inkscape-font-specification:TimesNewRomanPS-ItalicMT"
         x="199.57161 211.71852"
         y="860.2804"
         sodipodi:role="line"
         id="tspan7859">FU</tspan>
    </text>
    <text
       transform="scale(1.0498896,0.95248105)"
       id="text7861"
       x="241.50383"
       y="860.2804"
       style="font-size:14.28721619px">
      <tspan
         style="font-size:19.33608055px;font-variant:normal;font-weight:normal;font-stretch:normal;writing-mode:lr-tb;fill:#3333cc;fill-opacity:1;fill-rule:nonzero;stroke:none;font-family:Times New Roman;-inkscape-font-specification:TimesNewRomanPSMT"
         x="241.50383 258.43063 268.07547 272.93655 278.5827"
         y="860.2804"
         sodipodi:role="line"
         id="tspan7863">Mult1</tspan>
      <tspan
         style="font-size:19.33608055px;font-variant:normal;font-weight:normal;font-stretch:normal;writing-mode:lr-tb;fill:#ff0000;fill-opacity:1;fill-rule:nonzero;stroke:none;font-family:Times New Roman;-inkscape-font-specification:TimesNewRomanPSMT"
         x="295.43796 301.89621 311.58359 317.22971 326.09143 334.94931 343.81104"
         y="860.2804"
         sodipodi:role="line"
         id="tspan7865">Integer</tspan>
      <tspan
         style="font-size:19.33608055px;font-variant:normal;font-weight:normal;font-stretch:normal;writing-mode:lr-tb;fill:#ff00ff;fill-opacity:1;fill-rule:nonzero;stroke:none;font-family:Times New Roman;-inkscape-font-specification:TimesNewRomanPSMT"
         x="479.95828 493.67145 503.31628"
         y="860.2804"
         sodipodi:role="line"
         id="tspan7867">Add</tspan>
    </text>
    <g
       id="g7869"
       transform="matrix(0,1.25,1.25,0,246.72857,390.77647)">
      <path
         inkscape:connector-curvature="0"
         d="M 0,0 114.84,0"
         style="fill:none;stroke:#000000;stroke-width:0.06;stroke-linecap:butt;stroke-linejoin:miter;stroke-miterlimit:10;stroke-opacity:1;stroke-dasharray:none"
         id="path7871" />
    </g>
    <path
       inkscape:connector-curvature="0"
       d="m 246.80357,390.85147 0,143.475 0.825,0 0,-143.475 -0.825,0 z"
       style="fill:#000000;fill-opacity:1;fill-rule:nonzero;stroke:none"
       id="path7873" />
    <g
       id="g7875"
       transform="matrix(0,1.25,1.25,0,246.72857,604.90147)">
      <path
         inkscape:connector-curvature="0"
         d="M 0,0 95.76,0"
         style="fill:none;stroke:#000000;stroke-width:0.06;stroke-linecap:butt;stroke-linejoin:miter;stroke-miterlimit:10;stroke-opacity:1;stroke-dasharray:none"
         id="path7877" />
    </g>
    <path
       inkscape:connector-curvature="0"
       d="m 246.80357,604.90147 0,119.775 0.825,0 0,-119.775 -0.825,0 z"
       style="fill:#000000;fill-opacity:1;fill-rule:nonzero;stroke:none"
       id="path7879" />
    <g
       id="g7881"
       transform="matrix(0,1.25,1.25,0,794.82732,605.65147)">
      <path
         inkscape:connector-curvature="0"
         d="M 0,0 95.16,0"
         style="fill:none;stroke:#000000;stroke-width:0.06;stroke-linecap:butt;stroke-linejoin:miter;stroke-miterlimit:10;stroke-opacity:1;stroke-dasharray:none"
         id="path7883" />
    </g>
    <path
       inkscape:connector-curvature="0"
       d="m 794.90357,605.72647 0,118.95 0.82496,0 0,-118.95 -0.82496,0 z"
       style="fill:#000000;fill-opacity:1;fill-rule:nonzero;stroke:none"
       id="path7885" />
    <g
       id="g7887"
       transform="matrix(0,1.25,1.25,0,246.72857,799.82647)">
      <path
         inkscape:connector-curvature="0"
         d="M 0,0 19.62,0"
         style="fill:none;stroke:#000000;stroke-width:0.06;stroke-linecap:butt;stroke-linejoin:miter;stroke-miterlimit:10;stroke-opacity:1;stroke-dasharray:none"
         id="path7889" />
    </g>
    <path
       inkscape:connector-curvature="0"
       d="m 246.80357,799.82647 0,24.6 0.825,0 0,-24.6 -0.825,0 z"
       style="fill:#000000;fill-opacity:1;fill-rule:nonzero;stroke:none"
       id="path7891" />
    <g
       id="g7893"
       transform="matrix(0,1.25,1.25,0,490.32857,391.52647)">
      <path
         inkscape:connector-curvature="0"
         d="M 0,0 114.24,0"
         style="fill:none;stroke:#000000;stroke-width:0.06;stroke-linecap:butt;stroke-linejoin:miter;stroke-miterlimit:10;stroke-opacity:1;stroke-dasharray:none"
         id="path7895" />
    </g>
    <path
       inkscape:connector-curvature="0"
       d="m 490.40357,391.60147 0,142.725 0.825,0 0,-142.725 -0.825,0 z"
       style="fill:#000000;fill-opacity:1;fill-rule:nonzero;stroke:none"
       id="path7897" />
    <g
       id="g7899"
       transform="matrix(0,1.25,1.25,0,794.82732,800.57647)">
      <path
         inkscape:connector-curvature="0"
         d="M 0,0 19.02,0"
         style="fill:none;stroke:#000000;stroke-width:0.06;stroke-linecap:butt;stroke-linejoin:miter;stroke-miterlimit:10;stroke-opacity:1;stroke-dasharray:none"
         id="path7901" />
    </g>
    <path
       inkscape:connector-curvature="0"
       d="m 794.90357,800.65147 0,23.775 0.82496,0 0,-23.775 -0.82496,0 z"
       style="fill:#000000;fill-opacity:1;fill-rule:nonzero;stroke:none"
       id="path7903" />
    <g
       id="g7905"
       transform="matrix(0,1.25,1.25,0,247.55357,390.77647)">
      <path
         inkscape:connector-curvature="0"
         d="M 0,0 0,194.88"
         style="fill:none;stroke:#000000;stroke-width:0.06;stroke-linecap:butt;stroke-linejoin:miter;stroke-miterlimit:10;stroke-opacity:1;stroke-dasharray:none"
         id="path7907" />
    </g>
    <path
       inkscape:connector-curvature="0"
       d="m 247.62857,390.85147 0,0.75001 243.6,0 0,-0.75001 -243.6,0 z"
       style="fill:#000000;fill-opacity:1;fill-rule:nonzero;stroke:none"
       id="path7909" />
    <g
       id="g7911"
       transform="matrix(0,1.25,1.25,0,247.55357,533.50147)">
      <path
         inkscape:connector-curvature="0"
         d="M 0,0 0,194.88"
         style="fill:none;stroke:#000000;stroke-width:0.06;stroke-linecap:butt;stroke-linejoin:miter;stroke-miterlimit:10;stroke-opacity:1;stroke-dasharray:none"
         id="path7913" />
    </g>
    <path
       inkscape:connector-curvature="0"
       d="m 247.62857,533.57647 0,0.75001 243.6,0 0,-0.75001 -243.6,0 z"
       style="fill:#000000;fill-opacity:1;fill-rule:nonzero;stroke:none"
       id="path7915" />
    <g
       id="g7917"
       transform="matrix(0,1.25,1.25,0,-114.83518,226.22647)">
      <g
         id="g7919"
         clip-path="url(#clipPath7921)">
        <g
           id="g7925"
           transform="translate(302.94,289.911)">
          <path
             inkscape:connector-curvature="0"
             d="M 0,0 0,438.54"
             style="fill:none;stroke:#000000;stroke-width:0.06;stroke-linecap:butt;stroke-linejoin:miter;stroke-miterlimit:10;stroke-opacity:1;stroke-dasharray:none"
             id="path7927" />
        </g>
      </g>
    </g>
    <path
       inkscape:connector-curvature="0"
       d="m 247.62857,604.90147 0,0.825 548.1,0 0,-0.825 -548.1,0 z"
       style="fill:#000000;fill-opacity:1;fill-rule:nonzero;stroke:none"
       id="path7929" />
    <g
       id="g7931"
       transform="matrix(0,1.25,1.25,0,-114.83518,226.22647)">
      <g
         id="g7933"
         clip-path="url(#clipPath7935)">
        <g
           id="g7939"
           transform="translate(398.1,289.911)">
          <path
             inkscape:connector-curvature="0"
             d="M 0,0 0,438.54"
             style="fill:none;stroke:#000000;stroke-width:0.06;stroke-linecap:butt;stroke-linejoin:miter;stroke-miterlimit:10;stroke-opacity:1;stroke-dasharray:none"
             id="path7941" />
        </g>
      </g>
    </g>
    <path
       inkscape:connector-curvature="0"
       d="m 247.62857,723.85147 0,0.825 548.1,0 0,-0.825 -548.1,0 z"
       style="fill:#000000;fill-opacity:1;fill-rule:nonzero;stroke:none"
       id="path7943" />
    <g
       id="g7945"
       transform="matrix(0,1.25,1.25,0,-114.83518,226.22647)">
      <g
         id="g7947"
         clip-path="url(#clipPath7949)">
        <g
           id="g7953"
           transform="translate(458.88,289.911)">
          <path
             inkscape:connector-curvature="0"
             d="M 0,0 0,438.54"
             style="fill:none;stroke:#000000;stroke-width:0.06;stroke-linecap:butt;stroke-linejoin:miter;stroke-miterlimit:10;stroke-opacity:1;stroke-dasharray:none"
             id="path7955" />
        </g>
      </g>
    </g>
    <path
       inkscape:connector-curvature="0"
       d="m 247.62857,799.82647 0,0.82496 548.1,0 0,-0.82496 -548.1,0 z"
       style="fill:#000000;fill-opacity:1;fill-rule:nonzero;stroke:none"
       id="path7957" />
    <g
       id="g7959"
       transform="matrix(0,1.25,1.25,0,-114.83518,226.22647)">
      <g
         id="g7961"
         clip-path="url(#clipPath7963)">
        <g
           id="g7967"
           transform="translate(477.9,289.911)">
          <path
             inkscape:connector-curvature="0"
             d="M 0,0 0,438.54"
             style="fill:none;stroke:#000000;stroke-width:0.06;stroke-linecap:butt;stroke-linejoin:miter;stroke-miterlimit:10;stroke-opacity:1;stroke-dasharray:none"
             id="path7969" />
        </g>
      </g>
    </g>
    <path
       inkscape:connector-curvature="0"
       d="m 247.62857,823.60147 0,0.82504 548.1,0 0,-0.82504 -548.1,0 z"
       style="fill:#000000;fill-opacity:1;fill-rule:nonzero;stroke:none"
       id="path7971" />
    <text
       id="text7975"
       x="750.37793"
       y="625.39435"
       style="font-size:15px">
      <tspan
         style="font-size:20.02500153px;font-variant:normal;font-weight:normal;font-stretch:normal;writing-mode:lr-tb;fill:#33659a;fill-opacity:1;fill-rule:nonzero;stroke:none;font-family:Times New Roman;-inkscape-font-specification:TimesNewRomanPSMT"
         x="750.37793 762.8255 771.75262"
         y="625.39435"
         sodipodi:role="line"
         id="tspan7977">Yes</tspan>
    </text>
  </g>
</svg>
