<?xml version="1.0" encoding="UTF-8" standalone="no"?>
<!-- Created with Inkscape (http://www.inkscape.org/) -->

<svg
   xmlns:dc="http://purl.org/dc/elements/1.1/"
   xmlns:cc="http://creativecommons.org/ns#"
   xmlns:rdf="http://www.w3.org/1999/02/22-rdf-syntax-ns#"
   xmlns:svg="http://www.w3.org/2000/svg"
   xmlns="http://www.w3.org/2000/svg"
   xmlns:sodipodi="http://sodipodi.sourceforge.net/DTD/sodipodi-0.dtd"
   xmlns:inkscape="http://www.inkscape.org/namespaces/inkscape"
   width="844.49646"
   height="516.33405"
   id="svg4991"
   version="1.1"
   inkscape:version="0.48.4 r9939"
   sodipodi:docname="New document 10">
  <defs
     id="defs4993">
    <clipPath
       id="clipPath5323"
       clipPathUnits="userSpaceOnUse">
      <path
         id="path5325"
         d="m 477.9,289.911 0.12003,0 0,438.54 -0.12003,0 0,-438.54 z"
         inkscape:connector-curvature="0" />
    </clipPath>
    <clipPath
       id="clipPath5309"
       clipPathUnits="userSpaceOnUse">
      <path
         id="path5311"
         d="m 458.88,289.911 0.12,0 0,438.54 -0.12,0 0,-438.54 z"
         inkscape:connector-curvature="0" />
    </clipPath>
    <clipPath
       id="clipPath5295"
       clipPathUnits="userSpaceOnUse">
      <path
         id="path5297"
         d="m 398.1,289.911 0.12,0 0,438.54 -0.12,0 0,-438.54 z"
         inkscape:connector-curvature="0" />
    </clipPath>
    <clipPath
       id="clipPath5281"
       clipPathUnits="userSpaceOnUse">
      <path
         id="path5283"
         d="m 302.94,289.911 0.12,0 0,438.54 -0.12,0 0,-438.54 z"
         inkscape:connector-curvature="0" />
    </clipPath>
    <clipPath
       id="clipPath5183"
       clipPathUnits="userSpaceOnUse">
      <path
         id="path5185"
         d="m 284.52,692.151 17.76,0 0,20.82 -17.76,0 0,-20.82 z"
         inkscape:connector-curvature="0" />
    </clipPath>
    <clipPath
       id="clipPath5167"
       clipPathUnits="userSpaceOnUse">
      <path
         id="path5169"
         d="m 284.52,645.471 17.76,0 0,17.04 -17.76,0 0,-17.04 z"
         inkscape:connector-curvature="0" />
    </clipPath>
    <clipPath
       id="clipPath5151"
       clipPathUnits="userSpaceOnUse">
      <path
         id="path5153"
         d="m 284.52,594.471 17.76,0 0,22.44 -17.76,0 0,-22.44 z"
         inkscape:connector-curvature="0" />
    </clipPath>
    <clipPath
       id="clipPath5135"
       clipPathUnits="userSpaceOnUse">
      <path
         id="path5137"
         d="m 284.52,497.991 17.76,0 0,20.16 -17.76,0 0,-20.16 z"
         inkscape:connector-curvature="0" />
    </clipPath>
    <clipPath
       id="clipPath5119"
       clipPathUnits="userSpaceOnUse">
      <path
         id="path5121"
         d="m 284.52,450.591 17.76,0 0,16.38 -17.76,0 0,-16.38 z"
         inkscape:connector-curvature="0" />
    </clipPath>
    <clipPath
       id="clipPath5103"
       clipPathUnits="userSpaceOnUse">
      <path
         id="path5105"
         d="m 284.52,401.211 17.76,0 0,17.34 -17.76,0 0,-17.34 z"
         inkscape:connector-curvature="0" />
    </clipPath>
    <clipPath
       id="clipPath5055"
       clipPathUnits="userSpaceOnUse">
      <path
         id="path5057"
         d="m 113.28,292.131 17.76,0 0,39.12 -17.76,0 0,-39.12 z"
         inkscape:connector-curvature="0" />
    </clipPath>
    <clipPath
       id="clipPath5019"
       clipPathUnits="userSpaceOnUse">
      <path
         id="path5021"
         d="m 0,841.98 595.2,0 L 595.2,0 0,0 0,841.98 z"
         inkscape:connector-curvature="0" />
    </clipPath>
    <clipPath
       id="clipPath5013"
       clipPathUnits="userSpaceOnUse">
      <path
         id="path5015"
         clip-rule="evenodd"
         d="m 567.48,61.011 -540,0 0,720 540,0 0,-720 z"
         inkscape:connector-curvature="0" />
    </clipPath>
  </defs>
  <sodipodi:namedview
     id="base"
     pagecolor="#ffffff"
     bordercolor="#666666"
     borderopacity="1.0"
     inkscape:pageopacity="0.0"
     inkscape:pageshadow="2"
     inkscape:zoom="0.49497475"
     inkscape:cx="427.73279"
     inkscape:cy="161.6363"
     inkscape:document-units="px"
     inkscape:current-layer="layer1"
     showgrid="false"
     fit-margin-top="10"
     fit-margin-left="10"
     fit-margin-right="10"
     fit-margin-bottom="10"
     inkscape:window-width="954"
     inkscape:window-height="1028"
     inkscape:window-x="0"
     inkscape:window-y="0"
     inkscape:window-maximized="0" />
  <metadata
     id="metadata4996">
    <rdf:RDF>
      <cc:Work
         rdf:about="">
        <dc:format>image/svg+xml</dc:format>
        <dc:type
           rdf:resource="http://purl.org/dc/dcmitype/StillImage" />
        <dc:title></dc:title>
      </cc:Work>
    </rdf:RDF>
  </metadata>
  <g
     inkscape:label="Layer 1"
     inkscape:groupmode="layer"
     id="layer1"
     transform="translate(56.289348,-140.00675)">
    <text
       transform="scale(1.0498879,0.95248261)"
       id="text5035"
       x="-43.28413"
       y="174.56041"
       style="font-size:14.28723907px">
      <tspan
         style="font-size:25.78144264px;font-style:italic;font-variant:normal;font-weight:normal;font-stretch:normal;writing-mode:lr-tb;fill:#ff0000;fill-opacity:1;fill-rule:nonzero;stroke:none;font-family:Times New Roman;-inkscape-font-specification:TimesNewRomanPS-ItalicMT"
         x="-43.28413 -34.425625 -21.496233 -11.856552 -4.5655608 5.0741229 18.003517 29.223598 36.514595 43.733398 56.662788 69.522568 76.022072 85.661751 92.880554 105.80995 113.02875 125.95815 135.59784"
         y="174.56041"
         sodipodi:role="line"
         id="tspan5037">Instruction status:</tspan>
    </text>
    <text
       transform="scale(1.0498911,0.95247971)"
       id="text5039"
       x="250.81792"
       y="174.95465"
       style="font-size:14.28719521px">
      <tspan
         style="font-size:21.7530899px;font-style:italic;font-variant:normal;font-weight:normal;font-stretch:normal;writing-mode:lr-tb;fill:#000000;fill-opacity:1;fill-rule:nonzero;stroke:none;font-family:Times New Roman;-inkscape-font-specification:TimesNewRomanPS-ItalicMT"
         x="250.81792 264.53107 274.17856 285.47711 308.83557 322.54874 332.19623 341.84372 366.84891 383.77933 392.63281 399.85049 406.35468"
         y="174.95465"
         sodipodi:role="line"
         id="tspan5041">ReadExecWrite</tspan>
    </text>
    <text
       transform="scale(1.049889,0.9524816)"
       id="text5043"
       x="-10.994957"
       y="201.17528"
       style="font-size:14.28722382px">
      <tspan
         style="font-size:18.53041077px;font-variant:normal;font-weight:normal;font-stretch:normal;writing-mode:lr-tb;fill:#000000;fill-opacity:1;fill-rule:nonzero;stroke:none;font-family:Times New Roman;-inkscape-font-specification:TimesNewRomanPSMT"
         x="-10.994957 -4.5667577 5.076468 12.360772 17.150883 23.579084 33.294575 41.370129 46.160244 51.020767 60.663994"
         y="201.17528"
         sodipodi:role="line"
         id="tspan5045">Instruction</tspan>
    </text>
    <text
       transform="scale(1.049889,0.9524816)"
       id="text5047"
       x="127.51986"
       y="201.0956"
       style="font-size:14.28722382px">
      <tspan
         style="font-size:18.53041077px;font-style:italic;font-variant:normal;font-weight:normal;font-stretch:normal;writing-mode:lr-tb;fill:#000000;fill-opacity:1;fill-rule:nonzero;stroke:none;font-family:Times New Roman;-inkscape-font-specification:TimesNewRomanPS-ItalicMT"
         x="127.51986 164.59921"
         y="201.0956"
         sodipodi:role="line"
         id="tspan5049">jk</tspan>
    </text>
    <g
       id="g5051"
       transform="matrix(0,1.25,1.25,0,-163.40661,31.940754)">
      <g
         id="g5053"
         clip-path="url(#clipPath5055)">
        <text
           transform="matrix(0,1,0.90721757,0,127.44,292.6705)"
           id="text5059">
          <tspan
             style="font-size:18.27070045px;font-style:italic;font-variant:normal;font-weight:normal;font-stretch:normal;writing-mode:lr-tb;fill:#000000;fill-opacity:1;fill-rule:nonzero;stroke:none;font-family:Times New Roman;-inkscape-font-specification:TimesNewRomanPS-ItalicMT"
             x="0"
             y="0"
             id="tspan5061">I</tspan>
        </text>
      </g>
    </g>
    <text
       transform="scale(1.0498911,0.95247971)"
       id="text5063"
       x="200.02695"
       y="200.78197"
       style="font-size:14.28719521px">
      <tspan
         style="font-size:21.7530899px;font-style:italic;font-variant:normal;font-weight:normal;font-stretch:normal;writing-mode:lr-tb;fill:#000000;fill-opacity:1;fill-rule:nonzero;stroke:none;font-family:Times New Roman;-inkscape-font-specification:TimesNewRomanPS-ItalicMT"
         x="200.02695 208.89569 217.76442 228.98032 250.77255 266.88507 278.10095 287.82025 308.7467 323.24731 334.53497 350.64752 366.79266 380.49057 390.13806 399.00681 410.29013 416.74429"
         y="200.78197"
         sodipodi:role="line"
         id="tspan5065">ssueOperCompResult</tspan>
    </text>
    <text
       transform="scale(1.049889,0.9524816)"
       id="text5067"
       x="-10.994957"
       y="227.00255"
       style="font-size:14.28722382px">
      <tspan
         style="font-size:18.53041077px;font-variant:normal;font-weight:normal;font-stretch:normal;writing-mode:lr-tb;fill:#000000;fill-opacity:1;fill-rule:nonzero;stroke:none;font-family:Times New Roman;-inkscape-font-specification:TimesNewRomanPSMT"
         x="-10.994957 -0.56233567 70.370224 80.797287 114.6579 123.51543 132.37299 153.30492 165.44977 213.74001 271.74576 329.7515 387.75723"
         y="227.00255"
         sodipodi:role="line"
         id="tspan5069">LDF634+R21234</tspan>
      <tspan
         style="font-size:18.53041077px;font-variant:normal;font-weight:normal;font-stretch:normal;writing-mode:lr-tb;fill:#ff0000;fill-opacity:1;fill-rule:nonzero;stroke:none;font-family:Times New Roman;-inkscape-font-specification:TimesNewRomanPSMT"
         x="-10.994957 -0.56233567 70.370224 80.797287 114.6579 123.51543 132.37299 153.30492 165.44977"
         y="251.96301"
         sodipodi:role="line"
         id="tspan5071">LDF245+R3</tspan>
      <tspan
         style="font-size:18.53041077px;font-variant:normal;font-weight:normal;font-stretch:normal;writing-mode:lr-tb;fill:#000000;fill-opacity:1;fill-rule:nonzero;stroke:none;font-family:Times New Roman;-inkscape-font-specification:TimesNewRomanPSMT"
         x="213.74371"
         y="251.96301"
         id="tspan5073">5</tspan>
      <tspan
         style="font-size:18.53041077px;font-variant:normal;font-weight:normal;font-stretch:normal;writing-mode:lr-tb;fill:#0000ff;fill-opacity:1;fill-rule:nonzero;stroke:none;font-family:Times New Roman;-inkscape-font-specification:TimesNewRomanPSMT"
         x="-10.994957 4.2889256 16.357782 26.862673 38.153252 70.36837 80.795433 114.65604 125.15354 153.29936 163.79684"
         y="276.92346"
         sodipodi:role="line"
         id="tspan5075">MULTDF0F2F4</tspan>
      <tspan
         style="font-size:18.53041077px;font-variant:normal;font-weight:normal;font-stretch:normal;writing-mode:lr-tb;fill:#ff00ff;fill-opacity:1;fill-rule:nonzero;stroke:none;font-family:Times New Roman;-inkscape-font-specification:TimesNewRomanPSMT"
         x="-10.994957 -0.53268689 11.53617 22.823042 70.396172 80.858437 114.71905 125.18133 153.32716 163.78943"
         y="301.88394"
         sodipodi:role="line"
         id="tspan5077">SUBDF8F6F2</tspan>
      <tspan
         style="font-size:18.53041077px;font-variant:normal;font-weight:normal;font-stretch:normal;writing-mode:lr-tb;fill:#00ff00;fill-opacity:1;fill-rule:nonzero;stroke:none;font-family:Times New Roman;-inkscape-font-specification:TimesNewRomanPSMT"
         x="-10.994957 1.8947968 8.3229971 21.212749 70.357254 80.784317 89.641853 114.64493 125.14241 153.28824 163.78574"
         y="326.92407"
         sodipodi:role="line"
         id="tspan5079">DIVDF10F0F6</tspan>
      <tspan
         style="font-size:18.53041077px;font-variant:normal;font-weight:normal;font-stretch:normal;writing-mode:lr-tb;fill:#000000;fill-opacity:1;fill-rule:nonzero;stroke:none;font-family:Times New Roman;-inkscape-font-specification:TimesNewRomanPSMT"
         x="-10.994957 1.8836786 14.762314 27.640951 70.357254 80.784317 114.64493 125.14241 153.28824 163.78574"
         y="351.88455"
         sodipodi:role="line"
         id="tspan5081">ADDDF6F8F2</tspan>
    </text>
    <text
       transform="scale(1.0498879,0.95248261)"
       id="text5083"
       x="-43.28413"
       y="399.36765"
       style="font-size:14.28723907px">
      <tspan
         style="font-size:25.78144264px;font-style:italic;font-variant:normal;font-weight:normal;font-stretch:normal;writing-mode:lr-tb;fill:#ff0000;fill-opacity:1;fill-rule:nonzero;stroke:none;font-family:Times New Roman;-inkscape-font-specification:TimesNewRomanPS-ItalicMT"
         x="-43.28413 -27.920969 -15.061186 -2.0931187 9.1269627 16.371552 23.616135 36.473335 49.333126 62.262516 69.507103 76.006599 88.8638 101.72359 108.96818 116.21276 122.71227 132.35194 139.64293 152.50273 159.79372 172.65091 182.2906"
         y="399.36765"
         sodipodi:role="line"
         id="tspan5085">Functional unit status:</tspan>
    </text>
    <text
       transform="scale(1.0498911,0.95247971)"
       id="text5087"
       x="314.46738"
       y="399.76257"
       style="font-size:14.28719521px">
      <tspan
         style="font-size:21.7530899px;font-style:italic;font-variant:normal;font-weight:normal;font-stretch:normal;writing-mode:lr-tb;fill:#000000;fill-opacity:1;fill-rule:nonzero;stroke:none;font-family:Times New Roman;-inkscape-font-specification:TimesNewRomanPS-ItalicMT"
         x="314.46738 325.75507 335.40256 344.25607 379.76364 390.97952 437.77042 448.9863 492.49033 505.41818 550.4906 563.41846 607.70557 620.63342 626.3175 664.17877 677.04132 686.76062"
         y="399.76257"
         sodipodi:role="line"
         id="tspan5089">destS1S2FUFUFj?Fk?</tspan>
    </text>
    <text
       transform="scale(1.049889,0.9524816)"
       id="text5091"
       x="70.370781"
       y="425.90402"
       style="font-size:14.28722382px">
      <tspan
         style="font-size:18.53041077px;font-style:italic;font-variant:normal;font-weight:normal;font-stretch:normal;writing-mode:lr-tb;fill:#000000;fill-opacity:1;fill-rule:nonzero;stroke:none;font-family:Times New Roman;-inkscape-font-specification:TimesNewRomanPS-ItalicMT"
         x="70.370781 80.797844 85.658371 99.37088 114.66032 126.73288 136.3761 150.08861"
         y="425.90402"
         sodipodi:role="line"
         id="tspan5093">TimeName</tspan>
    </text>
    <text
       transform="scale(1.0498911,0.95247971)"
       id="text5095"
       x="195.24074"
       y="425.51117"
       style="font-size:14.28719521px">
      <tspan
         style="font-size:21.7530899px;font-style:italic;font-variant:normal;font-weight:normal;font-stretch:normal;writing-mode:lr-tb;fill:#000000;fill-opacity:1;fill-rule:nonzero;stroke:none;font-family:Times New Roman;-inkscape-font-specification:TimesNewRomanPS-ItalicMT"
         x="195.24074 208.91255 220.16978 229.01241 261.30487 277.39127"
         y="425.51117"
         sodipodi:role="line"
         id="tspan5097">BusyOp</tspan>
    </text>
    <g
       id="g5099"
       transform="matrix(0,1.25,1.25,0,-163.40661,31.940754)">
      <g
         id="g5101"
         clip-path="url(#clipPath5103)">
        <text
           transform="matrix(0,1,0.90721757,0,298.68,401.6305)"
           id="text5107">
          <tspan
             style="font-size:18.27070045px;font-style:italic;font-variant:normal;font-weight:normal;font-stretch:normal;writing-mode:lr-tb;fill:#000000;fill-opacity:1;fill-rule:nonzero;stroke:none;font-family:Times New Roman;-inkscape-font-specification:TimesNewRomanPS-ItalicMT"
             x="0"
             y="0"
             id="tspan5109">F</tspan>
        </text>
      </g>
    </g>
    <text
       transform="scale(1.0498911,0.95247971)"
       id="text5111"
       x="335.39813"
       y="425.51117"
       style="font-size:14.28719521px">
      <tspan
         style="font-size:21.7530899px;font-style:italic;font-variant:normal;font-weight:normal;font-stretch:normal;writing-mode:lr-tb;fill:#000000;fill-opacity:1;fill-rule:nonzero;stroke:none;font-family:Times New Roman;-inkscape-font-specification:TimesNewRomanPS-ItalicMT"
         x="335.39813"
         y="425.51117"
         id="tspan5113">i</tspan>
    </text>
    <g
       id="g5115"
       transform="matrix(0,1.25,1.25,0,-163.40661,31.940754)">
      <g
         id="g5117"
         clip-path="url(#clipPath5119)">
        <text
           transform="matrix(0,1,0.90721757,0,298.68,451.0105)"
           id="text5123">
          <tspan
             style="font-size:18.27070045px;font-style:italic;font-variant:normal;font-weight:normal;font-stretch:normal;writing-mode:lr-tb;fill:#000000;fill-opacity:1;fill-rule:nonzero;stroke:none;font-family:Times New Roman;-inkscape-font-specification:TimesNewRomanPS-ItalicMT"
             x="0"
             y="0"
             id="tspan5125">F</tspan>
        </text>
      </g>
    </g>
    <text
       transform="scale(1.0498911,0.95247971)"
       id="text5127"
       x="394.18994"
       y="425.51117"
       style="font-size:14.28719521px">
      <tspan
         style="font-size:21.7530899px;font-style:italic;font-variant:normal;font-weight:normal;font-stretch:normal;writing-mode:lr-tb;fill:#000000;fill-opacity:1;fill-rule:nonzero;stroke:none;font-family:Times New Roman;-inkscape-font-specification:TimesNewRomanPS-ItalicMT"
         x="394.18994"
         y="425.51117"
         id="tspan5129">j</tspan>
    </text>
    <g
       id="g5131"
       transform="matrix(0,1.25,1.25,0,-163.40661,31.940754)">
      <g
         id="g5133"
         clip-path="url(#clipPath5135)">
        <text
           transform="matrix(0,1,0.90721757,0,298.68,498.4105)"
           id="text5139">
          <tspan
             style="font-size:18.27070045px;font-style:italic;font-variant:normal;font-weight:normal;font-stretch:normal;writing-mode:lr-tb;fill:#000000;fill-opacity:1;fill-rule:nonzero;stroke:none;font-family:Times New Roman;-inkscape-font-specification:TimesNewRomanPS-ItalicMT"
             x="0"
             y="0"
             id="tspan5141">F</tspan>
        </text>
      </g>
    </g>
    <text
       transform="scale(1.0498911,0.95247971)"
       id="text5143"
       x="450.62436"
       y="425.51117"
       style="font-size:14.28719521px">
      <tspan
         style="font-size:21.7530899px;font-style:italic;font-variant:normal;font-weight:normal;font-stretch:normal;writing-mode:lr-tb;fill:#000000;fill-opacity:1;fill-rule:nonzero;stroke:none;font-family:Times New Roman;-inkscape-font-specification:TimesNewRomanPS-ItalicMT"
         x="450.62436 495.77509 511.84409 552.13733"
         y="425.51117"
         sodipodi:role="line"
         id="tspan5145">kQjQ</tspan>
    </text>
    <g
       id="g5147"
       transform="matrix(0,1.25,1.25,0,-163.40661,31.940754)">
      <g
         id="g5149"
         clip-path="url(#clipPath5151)">
        <text
           transform="matrix(0,1,0.90721757,0,298.68,608.0305)"
           id="text5155">
          <tspan
             style="font-size:18.27070045px;font-style:italic;font-variant:normal;font-weight:normal;font-stretch:normal;writing-mode:lr-tb;fill:#000000;fill-opacity:1;fill-rule:nonzero;stroke:none;font-family:Times New Roman;-inkscape-font-specification:TimesNewRomanPS-ItalicMT"
             x="0"
             y="0"
             id="tspan5157">k</tspan>
        </text>
      </g>
    </g>
    <text
       transform="scale(1.0498911,0.95247971)"
       id="text5159"
       x="613.35553"
       y="425.51117"
       style="font-size:14.28719521px">
      <tspan
         style="font-size:21.7530899px;font-style:italic;font-variant:normal;font-weight:normal;font-stretch:normal;writing-mode:lr-tb;fill:#000000;fill-opacity:1;fill-rule:nonzero;stroke:none;font-family:Times New Roman;-inkscape-font-specification:TimesNewRomanPS-ItalicMT"
         x="613.35553"
         y="425.51117"
         id="tspan5161">R</tspan>
    </text>
    <g
       id="g5163"
       transform="matrix(0,1.25,1.25,0,-163.40661,31.940754)">
      <g
         id="g5165"
         clip-path="url(#clipPath5167)">
        <text
           transform="matrix(0,1,0.90721757,0,298.68,657.4105)"
           id="text5171">
          <tspan
             style="font-size:18.27070045px;font-style:italic;font-variant:normal;font-weight:normal;font-stretch:normal;writing-mode:lr-tb;fill:#000000;fill-opacity:1;fill-rule:nonzero;stroke:none;font-family:Times New Roman;-inkscape-font-specification:TimesNewRomanPS-ItalicMT"
             x="0"
             y="0"
             id="tspan5173">j</tspan>
        </text>
      </g>
    </g>
    <text
       transform="scale(1.0498911,0.95247971)"
       id="text5175"
       x="668.93268"
       y="425.51117"
       style="font-size:14.28719521px">
      <tspan
         style="font-size:21.7530899px;font-style:italic;font-variant:normal;font-weight:normal;font-stretch:normal;writing-mode:lr-tb;fill:#000000;fill-opacity:1;fill-rule:nonzero;stroke:none;font-family:Times New Roman;-inkscape-font-specification:TimesNewRomanPS-ItalicMT"
         x="668.93268"
         y="425.51117"
         id="tspan5177">R</tspan>
    </text>
    <g
       id="g5179"
       transform="matrix(0,1.25,1.25,0,-163.40661,31.940754)">
      <g
         id="g5181"
         clip-path="url(#clipPath5183)">
        <text
           transform="matrix(0,1,0.90721757,0,298.68,704.0905)"
           id="text5187">
          <tspan
             style="font-size:18.27070045px;font-style:italic;font-variant:normal;font-weight:normal;font-stretch:normal;writing-mode:lr-tb;fill:#000000;fill-opacity:1;fill-rule:nonzero;stroke:none;font-family:Times New Roman;-inkscape-font-specification:TimesNewRomanPS-ItalicMT"
             x="0"
             y="0"
             id="tspan5189">k</tspan>
        </text>
      </g>
    </g>
    <text
       transform="scale(1.049889,0.9524816)"
       id="text5191"
       x="114.66117"
       y="451.81003"
       style="font-size:14.28722382px">
      <tspan
         style="font-size:18.53041077px;font-variant:normal;font-weight:normal;font-stretch:normal;writing-mode:lr-tb;fill:#000000;fill-opacity:1;fill-rule:nonzero;stroke:none;font-family:Times New Roman;-inkscape-font-specification:TimesNewRomanPSMT"
         x="114.66117 121.09122 130.80672 135.59683 143.67238 152.52992 160.60547 204.10931 216.96387 225.03941"
         y="451.81003"
         sodipodi:role="line"
         id="tspan5193">IntegerYes</tspan>
      <tspan
         style="font-size:18.53041077px;font-variant:normal;font-weight:normal;font-stretch:normal;writing-mode:lr-tb;fill:#ff0000;fill-opacity:1;fill-rule:nonzero;stroke:none;font-family:Times New Roman;-inkscape-font-specification:TimesNewRomanPSMT"
         x="257.24713 267.75201 277.39523 285.47079 324.97577 335.40283 440.12747 452.27228 668.15344 681.0802 689.0835"
         y="451.81003"
         sodipodi:role="line"
         id="tspan5195">LoadF2R3Yes</tspan>
      <tspan
         style="font-size:18.53041077px;font-variant:normal;font-weight:normal;font-stretch:normal;writing-mode:lr-tb;fill:#000000;fill-opacity:1;fill-rule:nonzero;stroke:none;font-family:Times New Roman;-inkscape-font-specification:TimesNewRomanPSMT"
         x="114.66117 129.94505 139.66055 144.45065 149.31119 207.31694 220.17148"
         y="476.77051"
         sodipodi:role="line"
         id="tspan5197">Mult1No</tspan>
      <tspan
         style="font-size:18.53041077px;font-variant:normal;font-weight:normal;font-stretch:normal;writing-mode:lr-tb;fill:#000000;fill-opacity:1;fill-rule:nonzero;stroke:none;font-family:Times New Roman;-inkscape-font-specification:TimesNewRomanPSMT"
         x="114.66117 129.94505 139.66055 144.45065 149.31119 207.31694 220.17148"
         y="501.73096"
         sodipodi:role="line"
         id="tspan5199">Mult2No</tspan>
      <tspan
         style="font-size:18.53041077px;font-variant:normal;font-weight:normal;font-stretch:normal;writing-mode:lr-tb;fill:#000000;fill-opacity:1;fill-rule:nonzero;stroke:none;font-family:Times New Roman;-inkscape-font-specification:TimesNewRomanPSMT"
         x="114.66117 127.51572 137.23122 207.30952 220.16406"
         y="526.69141"
         sodipodi:role="line"
         id="tspan5201">AddNo</tspan>
      <tspan
         style="font-size:18.53041077px;font-variant:normal;font-weight:normal;font-stretch:normal;writing-mode:lr-tb;fill:#000000;fill-opacity:1;fill-rule:nonzero;stroke:none;font-family:Times New Roman;-inkscape-font-specification:TimesNewRomanPSMT"
         x="114.66117 127.51572 132.37625 142.01947 146.88 156.52322 207.31694 220.17148"
         y="551.65192"
         sodipodi:role="line"
         id="tspan5203">DivideNo</tspan>
    </text>
    <text
       transform="scale(1.0498879,0.95248261)"
       id="text5205"
       x="-43.28413"
       y="597.56024"
       style="font-size:14.28723907px">
      <tspan
         style="font-size:25.78144264px;font-style:italic;font-variant:normal;font-weight:normal;font-stretch:normal;writing-mode:lr-tb;fill:#ff0000;fill-opacity:1;fill-rule:nonzero;stroke:none;font-family:Times New Roman;-inkscape-font-specification:TimesNewRomanPS-ItalicMT"
         x="-43.28413 -27.134634 -15.844939 -2.9877334 4.3032584 13.979031 21.270021 32.559715 42.199398 48.629295 58.305061 69.594757 79.270531 92.127747 99.418732 106.63753 113.06743 122.7432 129.96201 142.8914 150.1102 163.0396 172.67928"
         y="597.56024"
         sodipodi:role="line"
         id="tspan5207">Register result status:</tspan>
    </text>
    <text
       transform="scale(1.0498879,0.95248261)"
       id="text5209"
       x="-10.209123"
       y="629.76642"
       style="font-size:14.28723907px">
      <tspan
         style="font-size:25.78144264px;font-variant:normal;font-weight:normal;font-stretch:normal;writing-mode:lr-tb;fill:#000000;fill-opacity:1;fill-rule:nonzero;stroke:none;font-family:Times New Roman;-inkscape-font-specification:TimesNewRomanPSMT"
         x="-10.209123 6.72155 13.940354 26.869747 38.159439"
         y="629.76642"
         sodipodi:role="line"
         id="tspan5211">Clock</tspan>
    </text>
    <text
       transform="scale(1.0498879,0.95248261)"
       id="text5213"
       x="202.45683"
       y="628.9801"
       style="font-size:14.28723907px">
      <tspan
         style="font-size:25.78144264px;font-style:italic;font-variant:normal;font-weight:normal;font-stretch:normal;writing-mode:lr-tb;fill:#000000;fill-opacity:1;fill-rule:nonzero;stroke:none;font-family:Times New Roman;-inkscape-font-specification:TimesNewRomanPS-ItalicMT"
         x="202.45683 217.81999 260.46765 275.83081 318.47849 333.84164 376.48932 391.85248 434.50012 449.86328 486.08105 501.44421 514.30402 544.09186 559.45508 572.31482 612.60608 619.03595 625.46582 660.11353 675.47668 688.33392"
         y="628.9801"
         sodipodi:role="line"
         id="tspan5215">F0F2F4F6F8F10F12...F30</tspan>
    </text>
    <text
       transform="scale(1.0498896,0.95248105)"
       id="text5217"
       x="22.008518"
       y="656.69629"
       style="font-size:14.28721619px">
      <tspan
         style="font-size:19.33608055px;font-variant:normal;font-weight:bold;font-stretch:normal;writing-mode:lr-tb;fill:#000000;fill-opacity:1;fill-rule:nonzero;stroke:none;font-family:Times New Roman;-inkscape-font-specification:TimesNewRomanPS-BoldMT"
         x="22.008518"
         y="656.69629"
         id="tspan5219">5</tspan>
    </text>
    <text
       transform="scale(1.0498896,0.95248105)"
       id="text5221"
       x="153.30824"
       y="656.30182"
       style="font-size:14.28721619px">
      <tspan
         style="font-size:19.33608055px;font-style:italic;font-variant:normal;font-weight:normal;font-stretch:normal;writing-mode:lr-tb;fill:#000000;fill-opacity:1;fill-rule:nonzero;stroke:none;font-family:Times New Roman;-inkscape-font-specification:TimesNewRomanPS-ItalicMT"
         x="153.30824 165.45515"
         y="656.30182"
         sodipodi:role="line"
         id="tspan5223">FU</tspan>
    </text>
    <text
       transform="scale(1.0498896,0.95248105)"
       id="text5225"
       x="249.17651"
       y="656.30182"
       style="font-size:14.28721619px">
      <tspan
         style="font-size:19.33608055px;font-variant:normal;font-weight:normal;font-stretch:normal;writing-mode:lr-tb;fill:#ff0000;fill-opacity:1;fill-rule:nonzero;stroke:none;font-family:Times New Roman;-inkscape-font-specification:TimesNewRomanPSMT"
         x="249.17651 255.63477 265.32214 270.96829 279.83002 288.68787 297.54959"
         y="656.30182"
         sodipodi:role="line"
         id="tspan5227">Integer</tspan>
    </text>
    <g
       id="g5229"
       transform="matrix(0,1.25,1.25,0,198.15714,196.49075)">
      <path
         inkscape:connector-curvature="0"
         d="M 0,0 114.84,0"
         style="fill:none;stroke:#000000;stroke-width:0.06;stroke-linecap:butt;stroke-linejoin:miter;stroke-miterlimit:10;stroke-opacity:1;stroke-dasharray:none"
         id="path5231" />
    </g>
    <path
       inkscape:connector-curvature="0"
       d="m 198.23214,196.56575 0,143.475 0.825,0 0,-143.475 -0.825,0 z"
       style="fill:#000000;fill-opacity:1;fill-rule:nonzero;stroke:none"
       id="path5233" />
    <g
       id="g5235"
       transform="matrix(0,1.25,1.25,0,198.15714,410.61575)">
      <path
         inkscape:connector-curvature="0"
         d="M 0,0 95.76,0"
         style="fill:none;stroke:#000000;stroke-width:0.06;stroke-linecap:butt;stroke-linejoin:miter;stroke-miterlimit:10;stroke-opacity:1;stroke-dasharray:none"
         id="path5237" />
    </g>
    <path
       inkscape:connector-curvature="0"
       d="m 198.23214,410.61575 0,119.775 0.825,0 0,-119.775 -0.825,0 z"
       style="fill:#000000;fill-opacity:1;fill-rule:nonzero;stroke:none"
       id="path5239" />
    <g
       id="g5241"
       transform="matrix(0,1.25,1.25,0,746.25589,411.36575)">
      <path
         inkscape:connector-curvature="0"
         d="M 0,0 95.16,0"
         style="fill:none;stroke:#000000;stroke-width:0.06;stroke-linecap:butt;stroke-linejoin:miter;stroke-miterlimit:10;stroke-opacity:1;stroke-dasharray:none"
         id="path5243" />
    </g>
    <path
       inkscape:connector-curvature="0"
       d="m 746.33214,411.44075 0,118.95 0.82496,0 0,-118.95 -0.82496,0 z"
       style="fill:#000000;fill-opacity:1;fill-rule:nonzero;stroke:none"
       id="path5245" />
    <g
       id="g5247"
       transform="matrix(0,1.25,1.25,0,198.15714,605.54075)">
      <path
         inkscape:connector-curvature="0"
         d="M 0,0 19.62,0"
         style="fill:none;stroke:#000000;stroke-width:0.06;stroke-linecap:butt;stroke-linejoin:miter;stroke-miterlimit:10;stroke-opacity:1;stroke-dasharray:none"
         id="path5249" />
    </g>
    <path
       inkscape:connector-curvature="0"
       d="m 198.23214,605.54075 0,24.6 0.825,0 0,-24.6 -0.825,0 z"
       style="fill:#000000;fill-opacity:1;fill-rule:nonzero;stroke:none"
       id="path5251" />
    <g
       id="g5253"
       transform="matrix(0,1.25,1.25,0,441.75714,197.24075)">
      <path
         inkscape:connector-curvature="0"
         d="M 0,0 114.24,0"
         style="fill:none;stroke:#000000;stroke-width:0.06;stroke-linecap:butt;stroke-linejoin:miter;stroke-miterlimit:10;stroke-opacity:1;stroke-dasharray:none"
         id="path5255" />
    </g>
    <path
       inkscape:connector-curvature="0"
       d="m 441.83214,197.31575 0,142.725 0.825,0 0,-142.725 -0.825,0 z"
       style="fill:#000000;fill-opacity:1;fill-rule:nonzero;stroke:none"
       id="path5257" />
    <g
       id="g5259"
       transform="matrix(0,1.25,1.25,0,746.25589,606.29075)">
      <path
         inkscape:connector-curvature="0"
         d="M 0,0 19.02,0"
         style="fill:none;stroke:#000000;stroke-width:0.06;stroke-linecap:butt;stroke-linejoin:miter;stroke-miterlimit:10;stroke-opacity:1;stroke-dasharray:none"
         id="path5261" />
    </g>
    <path
       inkscape:connector-curvature="0"
       d="m 746.33214,606.36575 0,23.775 0.82496,0 0,-23.775 -0.82496,0 z"
       style="fill:#000000;fill-opacity:1;fill-rule:nonzero;stroke:none"
       id="path5263" />
    <g
       id="g5265"
       transform="matrix(0,1.25,1.25,0,198.98214,196.49075)">
      <path
         inkscape:connector-curvature="0"
         d="M 0,0 0,194.88"
         style="fill:none;stroke:#000000;stroke-width:0.06;stroke-linecap:butt;stroke-linejoin:miter;stroke-miterlimit:10;stroke-opacity:1;stroke-dasharray:none"
         id="path5267" />
    </g>
    <path
       inkscape:connector-curvature="0"
       d="m 199.05714,196.56575 0,0.75002 243.6,0 0,-0.75002 -243.6,0 z"
       style="fill:#000000;fill-opacity:1;fill-rule:nonzero;stroke:none"
       id="path5269" />
    <g
       id="g5271"
       transform="matrix(0,1.25,1.25,0,198.98214,339.21575)">
      <path
         inkscape:connector-curvature="0"
         d="M 0,0 0,194.88"
         style="fill:none;stroke:#000000;stroke-width:0.06;stroke-linecap:butt;stroke-linejoin:miter;stroke-miterlimit:10;stroke-opacity:1;stroke-dasharray:none"
         id="path5273" />
    </g>
    <path
       inkscape:connector-curvature="0"
       d="m 199.05714,339.29075 0,0.75002 243.6,0 0,-0.75002 -243.6,0 z"
       style="fill:#000000;fill-opacity:1;fill-rule:nonzero;stroke:none"
       id="path5275" />
    <g
       id="g5277"
       transform="matrix(0,1.25,1.25,0,-163.40661,31.940754)">
      <g
         id="g5279"
         clip-path="url(#clipPath5281)">
        <g
           id="g5285"
           transform="translate(302.94,289.911)">
          <path
             inkscape:connector-curvature="0"
             d="M 0,0 0,438.54"
             style="fill:none;stroke:#000000;stroke-width:0.06;stroke-linecap:butt;stroke-linejoin:miter;stroke-miterlimit:10;stroke-opacity:1;stroke-dasharray:none"
             id="path5287" />
        </g>
      </g>
    </g>
    <path
       inkscape:connector-curvature="0"
       d="m 199.05714,410.61575 0,0.825 548.1,0 0,-0.825 -548.1,0 z"
       style="fill:#000000;fill-opacity:1;fill-rule:nonzero;stroke:none"
       id="path5289" />
    <g
       id="g5291"
       transform="matrix(0,1.25,1.25,0,-163.40661,31.940754)">
      <g
         id="g5293"
         clip-path="url(#clipPath5295)">
        <g
           id="g5299"
           transform="translate(398.1,289.911)">
          <path
             inkscape:connector-curvature="0"
             d="M 0,0 0,438.54"
             style="fill:none;stroke:#000000;stroke-width:0.06;stroke-linecap:butt;stroke-linejoin:miter;stroke-miterlimit:10;stroke-opacity:1;stroke-dasharray:none"
             id="path5301" />
        </g>
      </g>
    </g>
    <path
       inkscape:connector-curvature="0"
       d="m 199.05714,529.56575 0,0.825 548.1,0 0,-0.825 -548.1,0 z"
       style="fill:#000000;fill-opacity:1;fill-rule:nonzero;stroke:none"
       id="path5303" />
    <g
       id="g5305"
       transform="matrix(0,1.25,1.25,0,-163.40661,31.940754)">
      <g
         id="g5307"
         clip-path="url(#clipPath5309)">
        <g
           id="g5313"
           transform="translate(458.88,289.911)">
          <path
             inkscape:connector-curvature="0"
             d="M 0,0 0,438.54"
             style="fill:none;stroke:#000000;stroke-width:0.06;stroke-linecap:butt;stroke-linejoin:miter;stroke-miterlimit:10;stroke-opacity:1;stroke-dasharray:none"
             id="path5315" />
        </g>
      </g>
    </g>
    <path
       inkscape:connector-curvature="0"
       d="m 199.05714,605.54075 0,0.82497 548.1,0 0,-0.82497 -548.1,0 z"
       style="fill:#000000;fill-opacity:1;fill-rule:nonzero;stroke:none"
       id="path5317" />
    <g
       id="g5319"
       transform="matrix(0,1.25,1.25,0,-163.40661,31.940754)">
      <g
         id="g5321"
         clip-path="url(#clipPath5323)">
        <g
           id="g5327"
           transform="translate(477.9,289.911)">
          <path
             inkscape:connector-curvature="0"
             d="M 0,0 0,438.54"
             style="fill:none;stroke:#000000;stroke-width:0.06;stroke-linecap:butt;stroke-linejoin:miter;stroke-miterlimit:10;stroke-opacity:1;stroke-dasharray:none"
             id="path5329" />
        </g>
      </g>
    </g>
    <path
       inkscape:connector-curvature="0"
       d="m 199.05714,629.31575 0,0.82504 548.1,0 0,-0.82504 -548.1,0 z"
       style="fill:#000000;fill-opacity:1;fill-rule:nonzero;stroke:none"
       id="path5331" />
    <g
       id="g5333"
       transform="matrix(0,1.25,1.25,0,180.08214,404.99075)">
      <path
         inkscape:connector-curvature="0"
         d="m 0,0 -0.78,0.06 -0.96,0.12 -0.84,0.18 c -3.841,1.161 -6.577,4.657 -6.6,8.7 l 0,460.26 0.06,0.78 c 0.222,3.92 3.333,7.45 7.2,8.16 l 0.9,0.18 0.9,0.06 27.96,0 0.84,-0.06 c 3.946,-0.236 7.402,-3.333 8.16,-7.2 l 0.18,-0.9 0.06,-0.96 0,-460.2 C 36.95,7.3 36.857,6.623 36,4.92 L 35.58,4.14 35.04,3.42 C 34.114,2.342 32.909,1.28 31.56,0.78 L 30.72,0.42 29.82,0.18 28.92,0.06 27.96,0 0,0 z m 27.72,4.5 0.54,0 0.48,0.06 0.42,0.12 c 2.027,0.596 3.397,2.365 3.42,4.5 l 0,460.5 c -0.276,2.077 -1.568,3.717 -3.66,4.2 l -0.48,0.06 -0.6,0.06 -28.2,0 c -1.958,-0.169 -3.834,-1.673 -4.2,-3.66 l -0.06,-0.48 -0.06,-0.54 0,-460.5 0.06,-0.48 0.24,-0.84 0.24,-0.42 0.18,-0.42 0.3,-0.36 C -3.263,5.774 -2.564,5.108 -1.92,4.92 L -1.5,4.74 -1.02,4.62 -0.54,4.56 0,4.5"
         style="fill:#336699;fill-opacity:1;fill-rule:nonzero;stroke:none"
         id="path5335" />
    </g>
    <g
       id="g5337"
       transform="matrix(0,1.25,1.25,0,203.48214,235.04075)">
      <path
         inkscape:connector-curvature="0"
         d="m 0,0 -0.6,0.06 -0.66,0.12 c -12.269,3.482 -12.263,41.218 0,44.7 L -0.6,45 0,45.06 C 13.497,44.092 13.812,4.767 1.92,0.36 L 1.32,0.18 0.66,0.06 0,0 z M 0.42,3.06 0.24,3.06 0.66,3.12 0.54,3.06 0.96,3.18 0.84,3.18 1.26,3.36 1.14,3.3 1.56,3.54 1.44,3.42 1.86,3.72 1.8,3.66 2.16,3.96 2.1,3.9 2.52,4.26 2.46,4.2 2.82,4.62 2.76,4.56 3.18,5.04 3.12,4.98 3.48,5.46 3.42,5.4 3.84,5.94 3.78,5.88 4.14,6.48 4.08,6.42 4.44,7.02 4.38,6.96 4.74,7.62 5.04,8.28 4.98,8.22 5.28,9 l 0,-0.06 0.3,0.78 0,-0.06 0.24,0.78 0,-0.06 0.24,0.84 0,-0.06 0.24,0.9 -0.06,-0.06 0.24,0.9 0,-0.06 0.36,1.8 0,-0.06 0.18,0.96 0.12,0.96 0,-0.06 0.24,2.04 -0.06,-0.06 0.18,2.04 0,2.1 0,-0.06 0,2.1 -0.18,2.04 0.06,-0.06 -0.24,2.04 0,-0.06 -0.12,0.96 -0.18,0.96 0,-0.06 -0.18,0.9 -0.18,0.9 0,-0.06 -0.24,0.9 0.06,-0.06 -0.48,1.68 0,-0.06 -0.24,0.78 0,-0.06 -0.3,0.78 0,-0.06 -0.3,0.72 0.06,0 -0.3,0.66 0,-0.06 -0.36,0.66 0.06,0 -0.36,0.6 0.06,-0.06 -0.36,0.6 0.06,-0.06 -0.36,0.54 0,-0.06 L 3.12,40.08 3.18,40.02 2.76,40.5 2.82,40.44 2.46,40.86 2.52,40.8 2.1,41.16 2.16,41.1 1.8,41.4 1.86,41.34 1.44,41.64 1.56,41.52 1.14,41.76 1.26,41.7 0.84,41.88 0.96,41.82 0.54,42 0.66,41.94 0.24,42 l 0.18,0 -0.48,0.06 0.18,0 -0.48,-0.06 0.18,0 -0.48,-0.06 0.18,0.06 -0.42,-0.18 0.12,0.06 -0.42,-0.18 0.12,0.06 -0.42,-0.24 0.12,0.12 -0.42,-0.3 0.06,0.06 -0.42,-0.3 0.12,0.06 -0.42,-0.36 0.06,0.06 -0.36,-0.42 0.06,0.06 -0.42,-0.48 0.06,0.06 -0.36,-0.48 0,0.06 -0.36,-0.54 0.06,0.06 -0.36,-0.6 0.06,0.06 -0.36,-0.6 -0.3,-0.66 0,0.06 -0.3,-0.66 0.06,0.06 -0.3,-0.78 0,0.06 -0.3,-0.78 0,0.06 -0.24,-0.78 0,0.06 -0.24,-0.84 0,0.06 -0.24,-0.9 0,0.06 -0.18,-0.9 0,0.06 -0.18,-0.9 -0.18,-0.9 0,0.06 -0.18,-0.96 -0.12,-0.96 0,0.06 -0.24,-2.04 0,0.06 -0.12,-2.04 0,-1.02 -0.06,-1.08 0,0.06 0.06,-1.08 0,-1.02 0.12,-2.04 0,0.06 0.24,-2.04 0,0.06 0.12,-0.96 0.18,-0.96 0,0.06 0.36,-1.8 0,0.06 0.18,-0.9 0,0.06 0.24,-0.9 0,0.06 0.24,-0.84 0,0.06 0.24,-0.78 0,0.06 0.3,-0.78 0,0.06 0.3,-0.78 -0.06,0.06 0.3,-0.66 0,0.06 0.3,-0.66 0.36,-0.6 -0.06,0.06 0.36,-0.6 -0.06,0.06 0.36,-0.54 0,0.06 L -3.06,4.98 -3.12,5.04 -2.7,4.56 -2.76,4.62 -2.4,4.2 -2.46,4.26 -2.04,3.9 -2.16,3.96 -1.74,3.66 -1.8,3.72 -1.38,3.42 -1.5,3.54 -1.08,3.3 -1.2,3.36 -0.78,3.18 -0.9,3.18 -0.48,3.06 -0.6,3.12 -0.18,3.06 -0.36,3.06 0.12,3 -0.06,3"
         style="fill:#336699;fill-opacity:1;fill-rule:nonzero;stroke:none"
         id="path5339" />
    </g>
    <g
       id="g5357"
       transform="matrix(0,1.25,1.25,0,247.58214,581.24075)">
      <path
         inkscape:connector-curvature="0"
         d="M 0,0 -0.54,0 -1.2,0.06 -1.8,0.12 c -5.906,0.9 -10.406,6.096 -10.38,12.06 l 0,40.44 c 0.369,6.134 4.837,10.784 10.92,11.58 l 0.6,0 0.6,0.06 40.5,0 c 6.108,-0.391 10.788,-4.836 11.58,-10.92 l 0,-0.6 0.06,-0.66 0,-39.9 C 52.084,9.95 51.604,8.501 50.64,6.48 L 50.04,5.46 49.38,4.56 C 47.134,2.057 45.591,1.102 42.36,0.24 L 41.76,0.12 40.56,0 39.9,0 0,0 z m 39.84,4.5 0.78,0 0.36,0.06 c 3.806,0.604 6.564,3.762 6.6,7.62 l 0,40.2 c -0.192,3.785 -3.108,6.964 -6.9,7.32 l -0.36,0.06 -40.62,0 c -3.84,-0.222 -6.947,-3.077 -7.32,-6.9 l -0.06,-0.36 0,-40.26 c -0.096,-0.992 0.349,-2.824 0.9,-3.6 L -6.42,7.98 -6,7.38 c 0.899,-1.255 2.93,-2.493 4.44,-2.7 L -1.2,4.62 -0.78,4.56 -0.42,4.5 0,4.5"
         style="fill:#336699;fill-opacity:1;fill-rule:nonzero;stroke:none"
         id="path5359" />
    </g>
  </g>
</svg>
