<?xml version="1.0" encoding="UTF-8" standalone="no"?>
<!-- Created with Inkscape (http://www.inkscape.org/) -->

<svg
   xmlns:dc="http://purl.org/dc/elements/1.1/"
   xmlns:cc="http://creativecommons.org/ns#"
   xmlns:rdf="http://www.w3.org/1999/02/22-rdf-syntax-ns#"
   xmlns:svg="http://www.w3.org/2000/svg"
   xmlns="http://www.w3.org/2000/svg"
   xmlns:sodipodi="http://sodipodi.sourceforge.net/DTD/sodipodi-0.dtd"
   xmlns:inkscape="http://www.inkscape.org/namespaces/inkscape"
   width="813.44647"
   height="486.62714"
   id="svg3697"
   version="1.1"
   inkscape:version="0.48.4 r9939"
   sodipodi:docname="New document 4">
  <defs
     id="defs3699">
    <clipPath
       id="clipPath3925"
       clipPathUnits="userSpaceOnUse">
      <path
         id="path3927"
         d="m 478.44,289.911 0.12,0 0,438.54 -0.12,0 0,-438.54 z"
         inkscape:connector-curvature="0" />
    </clipPath>
    <clipPath
       id="clipPath3911"
       clipPathUnits="userSpaceOnUse">
      <path
         id="path3913"
         d="m 459.96,289.911 0.12003,0 0,438.54 -0.12003,0 0,-438.54 z"
         inkscape:connector-curvature="0" />
    </clipPath>
    <clipPath
       id="clipPath3897"
       clipPathUnits="userSpaceOnUse">
      <path
         id="path3899"
         d="m 400.86,289.911 0.12,0 0,438.54 -0.12,0 0,-438.54 z"
         inkscape:connector-curvature="0" />
    </clipPath>
    <clipPath
       id="clipPath3883"
       clipPathUnits="userSpaceOnUse">
      <path
         id="path3885"
         d="m 308.4,289.911 0.12,0 0,438.54 -0.12,0 0,-438.54 z"
         inkscape:connector-curvature="0" />
    </clipPath>
    <clipPath
       id="clipPath3761"
       clipPathUnits="userSpaceOnUse">
      <path
         id="path3763"
         d="m 124.08,292.131 17.22,0 0,39.12 -17.22,0 0,-39.12 z"
         inkscape:connector-curvature="0" />
    </clipPath>
    <clipPath
       id="clipPath3725"
       clipPathUnits="userSpaceOnUse">
      <path
         id="path3727"
         d="m 0,841.98 595.2,0 L 595.2,0 0,0 0,841.98 z"
         inkscape:connector-curvature="0" />
    </clipPath>
    <clipPath
       id="clipPath3719"
       clipPathUnits="userSpaceOnUse">
      <path
         id="path3721"
         clip-rule="evenodd"
         d="m 567.48,61.011 -540,0 0,720 540,0 0,-720 z"
         inkscape:connector-curvature="0" />
    </clipPath>
  </defs>
  <sodipodi:namedview
     id="base"
     pagecolor="#ffffff"
     bordercolor="#666666"
     borderopacity="1.0"
     inkscape:pageopacity="0.0"
     inkscape:pageshadow="2"
     inkscape:zoom="0.49497475"
     inkscape:cx="453.20744"
     inkscape:cy="80.094886"
     inkscape:document-units="px"
     inkscape:current-layer="layer1"
     showgrid="false"
     fit-margin-top="10"
     fit-margin-left="10"
     fit-margin-right="10"
     fit-margin-bottom="10"
     inkscape:window-width="954"
     inkscape:window-height="1028"
     inkscape:window-x="0"
     inkscape:window-y="0"
     inkscape:window-maximized="0" />
  <metadata
     id="metadata3702">
    <rdf:RDF>
      <cc:Work
         rdf:about="">
        <dc:format>image/svg+xml</dc:format>
        <dc:type
           rdf:resource="http://purl.org/dc/dcmitype/StillImage" />
        <dc:title></dc:title>
      </cc:Work>
    </rdf:RDF>
  </metadata>
  <g
     inkscape:label="Layer 1"
     inkscape:groupmode="layer"
     id="layer1"
     transform="translate(44.86078,-408.47432)">
    <text
       transform="scale(1.0649565,0.93900552)"
       id="text3741"
       x="-31.940193"
       y="462.48553"
       style="font-size:14.08508301px">
      <tspan
         style="font-size:25.41664886px;font-style:italic;font-variant:normal;font-weight:normal;font-stretch:normal;writing-mode:lr-tb;fill:#ff0000;fill-opacity:1;fill-rule:nonzero;stroke:none;font-family:Times New Roman;-inkscape-font-specification:TimesNewRomanPS-ItalicMT"
         x="-31.940193 -23.207033 -10.460584 -0.95729846 6.2305298 15.733817 28.480267 39.541592 46.729424 53.846085 66.592529 79.270355 85.677895 95.181175 102.29784 115.04429 122.16094 134.90741 144.41069"
         y="462.48553"
         sodipodi:role="line"
         id="tspan3743">Instruction status:</tspan>
    </text>
    <text
       transform="scale(1.0649581,0.93900407)"
       id="text3745"
       x="258.00082"
       y="462.88562"
       style="font-size:14.08506107px">
      <tspan
         style="font-size:21.44532776px;font-style:italic;font-variant:normal;font-weight:normal;font-stretch:normal;writing-mode:lr-tb;fill:#000000;fill-opacity:1;fill-rule:nonzero;stroke:none;font-family:Times New Roman;-inkscape-font-specification:TimesNewRomanPS-ItalicMT"
         x="258.00082 271.51996 281.03098 292.16968 315.19766 328.7168 338.22778 347.7388 372.3902 389.08112 397.80936 404.92493 411.33707"
         y="462.88562"
         sodipodi:role="line"
         id="tspan3747">ReadExecWrite</tspan>
    </text>
    <text
       transform="scale(1.0649595,0.93900283)"
       id="text3749"
       x="-0.10790551"
       y="488.8446"
       style="font-size:14.08504295px">
      <tspan
         style="font-size:18.26818275px;font-variant:normal;font-weight:normal;font-stretch:normal;writing-mode:lr-tb;fill:#000000;fill-opacity:1;fill-rule:nonzero;stroke:none;font-family:Times New Roman;-inkscape-font-specification:TimesNewRomanPSMT"
         x="-0.10790551 6.2293272 15.73609 22.917313 27.639637 33.976871 43.554878 51.516151 56.23848 61.03022 70.53698"
         y="488.8446"
         sodipodi:role="line"
         id="tspan3751">Instruction</tspan>
    </text>
    <text
       transform="scale(1.0649595,0.93900283)"
       id="text3753"
       x="136.44676"
       y="488.76422"
       style="font-size:14.08504295px">
      <tspan
         style="font-size:18.26818275px;font-style:italic;font-variant:normal;font-weight:normal;font-stretch:normal;writing-mode:lr-tb;fill:#000000;fill-opacity:1;fill-rule:nonzero;stroke:none;font-family:Times New Roman;-inkscape-font-specification:TimesNewRomanPS-ItalicMT"
         x="136.44676 173.00139"
         y="488.76422"
         sodipodi:role="line"
         id="tspan3755">jk</tspan>
    </text>
    <g
       id="g3757"
       transform="matrix(0,1.25,1.25,0,-151.97804,286.22647)">
      <g
         id="g3759"
         clip-path="url(#clipPath3761)">
        <text
           transform="matrix(0,1,0.88172867,0,137.82,292.6705)"
           id="text3765">
          <tspan
             style="font-size:18.27070045px;font-style:italic;font-variant:normal;font-weight:normal;font-stretch:normal;writing-mode:lr-tb;fill:#000000;fill-opacity:1;fill-rule:nonzero;stroke:none;font-family:Times New Roman;-inkscape-font-specification:TimesNewRomanPS-ItalicMT"
             x="0"
             y="0"
             id="tspan3767">I</tspan>
        </text>
      </g>
    </g>
    <text
       transform="scale(1.0649581,0.93900407)"
       id="text3769"
       x="207.92845"
       y="488.28485"
       style="font-size:14.08506107px">
      <tspan
         style="font-size:21.44532776px;font-style:italic;font-variant:normal;font-weight:normal;font-stretch:normal;writing-mode:lr-tb;fill:#000000;fill-opacity:1;fill-rule:nonzero;stroke:none;font-family:Times New Roman;-inkscape-font-specification:TimesNewRomanPS-ItalicMT"
         x="207.92845 216.67171 225.41498 236.47218 257.95612 273.84067 284.89789 294.47964 315.11005 329.40549 340.53348 356.41806 372.33475 385.8389 395.34988 404.09314 415.21683 421.57968"
         y="488.28485"
         sodipodi:role="line"
         id="tspan3771">ssueOperCompResult</tspan>
    </text>
    <text
       transform="scale(1.0649595,0.93900283)"
       id="text3773"
       x="-0.10790551"
       y="514.2439"
       style="font-size:14.08504295px">
      <tspan
         style="font-size:18.26818275px;font-variant:normal;font-weight:normal;font-stretch:normal;writing-mode:lr-tb;fill:#000000;fill-opacity:1;fill-rule:nonzero;stroke:none;font-family:Times New Roman;-inkscape-font-specification:TimesNewRomanPSMT"
         x="-0.10790551 10.177082 80.105858 90.385368 123.76682 132.49901 141.2312 161.86693 173.8399"
         y="514.2439"
         sodipodi:role="line"
         id="tspan3775">LDF634+R2</tspan>
      <tspan
         style="font-size:18.26818275px;font-variant:normal;font-weight:normal;font-stretch:normal;writing-mode:lr-tb;fill:#ff0000;fill-opacity:1;fill-rule:nonzero;stroke:none;font-family:Times New Roman;-inkscape-font-specification:TimesNewRomanPSMT"
         x="-0.10790551 10.177082 80.105858 90.385368 123.76682 132.49901 141.2312 161.86693 173.8399"
         y="538.84381"
         sodipodi:role="line"
         id="tspan3777">LDF245+R3</tspan>
      <tspan
         style="font-size:18.26818275px;font-variant:normal;font-weight:normal;font-stretch:normal;writing-mode:lr-tb;fill:#0000ff;fill-opacity:1;fill-rule:nonzero;stroke:none;font-family:Times New Roman;-inkscape-font-specification:TimesNewRomanPSMT"
         x="-0.10790551 14.959692 26.857759 37.213993 48.344795 80.104034 90.383537 123.76498 134.11392 161.86145 172.21039"
         y="563.44379"
         sodipodi:role="line"
         id="tspan3779">MULTDF0F2F4</tspan>
      <tspan
         style="font-size:18.26818275px;font-variant:normal;font-weight:normal;font-stretch:normal;writing-mode:lr-tb;fill:#ff00ff;fill-opacity:1;fill-rule:nonzero;stroke:none;font-family:Times New Roman;-inkscape-font-specification:TimesNewRomanPSMT"
         x="-0.10790551 10.206311 22.104378 33.231529 80.131439 90.445648 123.8271 134.14133 161.88885 172.20308"
         y="588.12408"
         sodipodi:role="line"
         id="tspan3781">SUBDF8F6F2</tspan>
      <tspan
         style="font-size:18.26818275px;font-variant:normal;font-weight:normal;font-stretch:normal;writing-mode:lr-tb;fill:#00ff00;fill-opacity:1;fill-rule:nonzero;stroke:none;font-family:Times New Roman;-inkscape-font-specification:TimesNewRomanPSMT"
         x="-0.10790551 12.599442 18.936676 31.644024 80.093071 90.372574 99.104767 123.75402 134.10295 161.85049 172.19942"
         y="612.724"
         sodipodi:role="line"
         id="tspan3783">DIVDF10F0F6</tspan>
      <tspan
         style="font-size:18.26818275px;font-variant:normal;font-weight:normal;font-stretch:normal;writing-mode:lr-tb;fill:#000000;fill-opacity:1;fill-rule:nonzero;stroke:none;font-family:Times New Roman;-inkscape-font-specification:TimesNewRomanPSMT"
         x="-0.10790551 12.588482 25.284868 37.981258 80.093071 90.372574 123.75402 134.10295 161.85049 172.19942"
         y="637.32397"
         sodipodi:role="line"
         id="tspan3785">ADDDF6F8F2</tspan>
    </text>
    <text
       transform="scale(1.0649565,0.93900552)"
       id="text3787"
       x="-31.940193"
       y="684.04974"
       style="font-size:14.08508301px">
      <tspan
         style="font-size:25.41664886px;font-style:italic;font-variant:normal;font-weight:normal;font-stretch:normal;writing-mode:lr-tb;fill:#ff0000;fill-opacity:1;fill-rule:nonzero;stroke:none;font-family:Times New Roman;-inkscape-font-specification:TimesNewRomanPS-ItalicMT"
         x="-31.940193 -16.794413 -4.1165881 8.5942793 19.655607 26.843435 34.031265 46.706543 59.417412 72.128281 79.196648 85.604172 98.315048 111.02592 118.21375 125.33041 131.73795 141.24123 148.42906 161.13994 168.32776 181.03862 190.5419"
         y="684.04974"
         sodipodi:role="line"
         id="tspan3789">Functional unit status:</tspan>
    </text>
    <text
       transform="scale(1.0649581,0.93900407)"
       id="text3791"
       x="320.74979"
       y="684.45013"
       style="font-size:14.08506107px">
      <tspan
         style="font-size:21.44532776px;font-style:italic;font-variant:normal;font-weight:normal;font-stretch:normal;writing-mode:lr-tb;fill:#000000;fill-opacity:1;fill-rule:nonzero;stroke:none;font-family:Times New Roman;-inkscape-font-specification:TimesNewRomanPS-ItalicMT"
         x="320.74979 331.87778 341.38876 350.11703 385.12222 396.17944 442.30835 453.36554 496.25406 508.99902 553.43372 566.17871 609.83923 622.58417 628.18787 665.51343 678.19409 687.77588"
         y="684.45013"
         sodipodi:role="line"
         id="tspan3793">destS1S2FUFUFj?Fk?</tspan>
    </text>
    <text
       transform="scale(1.0649595,0.93900283)"
       id="text3795"
       x="80.106415"
       y="710.32959"
       style="font-size:14.08504295px">
      <tspan
         style="font-size:18.26818275px;font-style:italic;font-variant:normal;font-weight:normal;font-stretch:normal;writing-mode:lr-tb;fill:#000000;fill-opacity:1;fill-rule:nonzero;stroke:none;font-family:Times New Roman;-inkscape-font-specification:TimesNewRomanPS-ItalicMT"
         x="80.106415 90.385918 95.177666 108.69612 123.7692 135.67091 145.17767 158.69614"
         y="710.32959"
         sodipodi:role="line"
         id="tspan3797">TimeName</tspan>
    </text>
    <text
       transform="scale(1.0649581,0.93900407)"
       id="text3799"
       x="203.20996"
       y="709.84937"
       style="font-size:14.08506107px">
      <tspan
         style="font-size:21.44532776px;font-style:italic;font-variant:normal;font-weight:normal;font-stretch:normal;writing-mode:lr-tb;fill:#000000;fill-opacity:1;fill-rule:nonzero;stroke:none;font-family:Times New Roman;-inkscape-font-specification:TimesNewRomanPS-ItalicMT"
         x="203.20996 216.73552 227.79274 236.52098 268.35657 284.19824 328.70801 341.38864 386.67471 399.35535 442.31894 454.99954 499.51144 515.35315 555.07629 570.98877 615.42987 628.95544 670.22913 683.7547"
         y="709.84937"
         sodipodi:role="line"
         id="tspan3801">BusyOpFiFjFkQjQkRjRk</tspan>
    </text>
    <text
       transform="scale(1.0649595,0.93900283)"
       id="text3803"
       x="123.77003"
       y="735.80872"
       style="font-size:14.08504295px">
      <tspan
         style="font-size:18.26818275px;font-variant:normal;font-weight:normal;font-stretch:normal;writing-mode:lr-tb;fill:#000000;fill-opacity:1;fill-rule:nonzero;stroke:none;font-family:Times New Roman;-inkscape-font-specification:TimesNewRomanPSMT"
         x="123.77003 130.1091 139.6871 144.40944 152.37071 161.10291 169.06418 215.1219 227.79456"
         y="735.80872"
         sodipodi:role="line"
         id="tspan3805">IntegerNo</tspan>
      <tspan
         style="font-size:18.26818275px;font-variant:normal;font-weight:normal;font-stretch:normal;writing-mode:lr-tb;fill:#000000;fill-opacity:1;fill-rule:nonzero;stroke:none;font-family:Times New Roman;-inkscape-font-specification:TimesNewRomanPSMT"
         x="123.77003 138.83763 148.41565 153.13797 157.92972 215.11461 227.78725"
         y="760.48901"
         sodipodi:role="line"
         id="tspan3807">Mult1No</tspan>
      <tspan
         style="font-size:18.26818275px;font-variant:normal;font-weight:normal;font-stretch:normal;writing-mode:lr-tb;fill:#000000;fill-opacity:1;fill-rule:nonzero;stroke:none;font-family:Times New Roman;-inkscape-font-specification:TimesNewRomanPSMT"
         x="123.77003 138.83763 148.41565 153.13797 157.92972 215.11461 227.78725"
         y="785.08899"
         sodipodi:role="line"
         id="tspan3809">Mult2No</tspan>
      <tspan
         style="font-size:18.26818275px;font-variant:normal;font-weight:normal;font-stretch:normal;writing-mode:lr-tb;fill:#000000;fill-opacity:1;fill-rule:nonzero;stroke:none;font-family:Times New Roman;-inkscape-font-specification:TimesNewRomanPSMT"
         x="123.77003 136.44267 146.02069 215.1073 227.77994"
         y="809.6889"
         sodipodi:role="line"
         id="tspan3811">AddNo</tspan>
      <tspan
         style="font-size:18.26818275px;font-variant:normal;font-weight:normal;font-stretch:normal;writing-mode:lr-tb;fill:#000000;fill-opacity:1;fill-rule:nonzero;stroke:none;font-family:Times New Roman;-inkscape-font-specification:TimesNewRomanPSMT"
         x="123.77003 136.44267 141.23442 150.74118 155.53293 165.03969 215.11461 227.78725"
         y="834.28882"
         sodipodi:role="line"
         id="tspan3813">DivideNo</tspan>
    </text>
    <text
       transform="scale(1.0649565,0.93900552)"
       id="text3815"
       x="-31.940193"
       y="879.49585"
       style="font-size:14.08508301px">
      <tspan
         style="font-size:25.41664886px;font-style:italic;font-variant:normal;font-weight:normal;font-stretch:normal;writing-mode:lr-tb;fill:#ff0000;fill-opacity:1;fill-rule:nonzero;stroke:none;font-family:Times New Roman;-inkscape-font-specification:TimesNewRomanPS-ItalicMT"
         x="-31.940193 -16.019205 -4.8892527 7.7860317 14.97386 24.512726 31.700554 42.830505 52.33379 58.672707 68.211571 79.341522 88.880386 101.55568 108.74351 115.86016 122.19907 131.73795 138.8546 151.60106 158.71771 171.46416 180.96744"
         y="879.49585"
         sodipodi:role="line"
         id="tspan3817">Register result status:</tspan>
    </text>
    <text
       transform="scale(1.0649565,0.93900552)"
       id="text3819"
       x="0.6668207"
       y="911.20569"
       style="font-size:14.08508301px">
      <tspan
         style="font-size:25.41664886px;font-variant:normal;font-weight:normal;font-stretch:normal;writing-mode:lr-tb;fill:#000000;fill-opacity:1;fill-rule:nonzero;stroke:none;font-family:Times New Roman;-inkscape-font-specification:TimesNewRomanPSMT"
         x="0.6668207 17.357933 24.474596 37.221046 48.350994"
         y="911.20569"
         sodipodi:role="line"
         id="tspan3821">Clock</tspan>
    </text>
    <text
       transform="scale(1.0649565,0.93900552)"
       id="text3823"
       x="210.32367"
       y="910.40759"
       style="font-size:14.08508301px">
      <tspan
         style="font-size:25.41664886px;font-style:italic;font-variant:normal;font-weight:normal;font-stretch:normal;writing-mode:lr-tb;fill:#000000;fill-opacity:1;fill-rule:nonzero;stroke:none;font-family:Times New Roman;-inkscape-font-specification:TimesNewRomanPS-ItalicMT"
         x="210.32367 225.46945 267.51367 282.65945 324.70367 339.84946 381.89368 397.03946 439.08368 454.22946 489.93478 505.08057 517.75842 547.12476 562.27057 574.94836 614.66956 621.00842 627.34735 661.50476 676.65057 689.32587"
         y="910.40759"
         sodipodi:role="line"
         id="tspan3825">F0F2F4F6F8F10F12...F30</tspan>
    </text>
    <text
       transform="scale(1.0649582,0.93900398)"
       id="text3827"
       x="161.87027"
       y="937.32452"
       style="font-size:14.08506012px">
      <tspan
         style="font-size:19.06248665px;font-style:italic;font-variant:normal;font-weight:normal;font-stretch:normal;writing-mode:lr-tb;fill:#000000;fill-opacity:1;fill-rule:nonzero;stroke:none;font-family:Times New Roman;-inkscape-font-specification:TimesNewRomanPS-ItalicMT"
         x="161.87027 173.84534"
         y="937.32452"
         sodipodi:role="line"
         id="tspan3829">FU</tspan>
    </text>
    <g
       id="g3831"
       transform="matrix(0,1.25,1.25,0,209.58571,463.67647)">
      <path
         inkscape:connector-curvature="0"
         d="M 0,0 111.54,0"
         style="fill:none;stroke:#000000;stroke-width:0.06;stroke-linecap:butt;stroke-linejoin:miter;stroke-miterlimit:10;stroke-opacity:1;stroke-dasharray:none"
         id="path3833" />
    </g>
    <path
       inkscape:connector-curvature="0"
       d="m 209.66071,463.67647 0,139.5 0.825,0 0,-139.5 -0.825,0 z"
       style="fill:#000000;fill-opacity:1;fill-rule:nonzero;stroke:none"
       id="path3835" />
    <g
       id="g3837"
       transform="matrix(0,1.25,1.25,0,209.58571,671.72647)">
      <path
         inkscape:connector-curvature="0"
         d="M 0,0 93.06,0"
         style="fill:none;stroke:#000000;stroke-width:0.06;stroke-linecap:butt;stroke-linejoin:miter;stroke-miterlimit:10;stroke-opacity:1;stroke-dasharray:none"
         id="path3839" />
    </g>
    <path
       inkscape:connector-curvature="0"
       d="m 209.66071,671.80147 0,116.325 0.825,0 0,-116.325 -0.825,0 z"
       style="fill:#000000;fill-opacity:1;fill-rule:nonzero;stroke:none"
       id="path3841" />
    <g
       id="g3843"
       transform="matrix(0,1.25,1.25,0,757.68446,672.47647)">
      <path
         inkscape:connector-curvature="0"
         d="M 0,0 92.46,0"
         style="fill:none;stroke:#000000;stroke-width:0.06;stroke-linecap:butt;stroke-linejoin:miter;stroke-miterlimit:10;stroke-opacity:1;stroke-dasharray:none"
         id="path3845" />
    </g>
    <path
       inkscape:connector-curvature="0"
       d="m 757.76071,672.47647 0,115.65 0.82496,0 0,-115.65 -0.82496,0 z"
       style="fill:#000000;fill-opacity:1;fill-rule:nonzero;stroke:none"
       id="path3847" />
    <g
       id="g3849"
       transform="matrix(0,1.25,1.25,0,209.58571,861.17647)">
      <path
         inkscape:connector-curvature="0"
         d="M 0,0 19.08,0"
         style="fill:none;stroke:#000000;stroke-width:0.06;stroke-linecap:butt;stroke-linejoin:miter;stroke-miterlimit:10;stroke-opacity:1;stroke-dasharray:none"
         id="path3851" />
    </g>
    <path
       inkscape:connector-curvature="0"
       d="m 209.66071,861.17647 0,23.925 0.825,0 0,-23.925 -0.825,0 z"
       style="fill:#000000;fill-opacity:1;fill-rule:nonzero;stroke:none"
       id="path3853" />
    <g
       id="g3855"
       transform="matrix(0,1.25,1.25,0,453.18571,464.35147)">
      <path
         inkscape:connector-curvature="0"
         d="M 0,0 111,0"
         style="fill:none;stroke:#000000;stroke-width:0.06;stroke-linecap:butt;stroke-linejoin:miter;stroke-miterlimit:10;stroke-opacity:1;stroke-dasharray:none"
         id="path3857" />
    </g>
    <path
       inkscape:connector-curvature="0"
       d="m 453.26071,464.42647 0,138.75 0.825,0 0,-138.75 -0.825,0 z"
       style="fill:#000000;fill-opacity:1;fill-rule:nonzero;stroke:none"
       id="path3859" />
    <g
       id="g3861"
       transform="matrix(0,1.25,1.25,0,757.68446,861.92647)">
      <path
         inkscape:connector-curvature="0"
         d="M 0,0 18.48,0"
         style="fill:none;stroke:#000000;stroke-width:0.06;stroke-linecap:butt;stroke-linejoin:miter;stroke-miterlimit:10;stroke-opacity:1;stroke-dasharray:none"
         id="path3863" />
    </g>
    <path
       inkscape:connector-curvature="0"
       d="m 757.76071,861.92647 0,23.175 0.82496,0 0,-23.175 -0.82496,0 z"
       style="fill:#000000;fill-opacity:1;fill-rule:nonzero;stroke:none"
       id="path3865" />
    <g
       id="g3867"
       transform="matrix(0,1.25,1.25,0,210.41071,463.67647)">
      <path
         inkscape:connector-curvature="0"
         d="M 0,0 0,194.88"
         style="fill:none;stroke:#000000;stroke-width:0.06;stroke-linecap:butt;stroke-linejoin:miter;stroke-miterlimit:10;stroke-opacity:1;stroke-dasharray:none"
         id="path3869" />
    </g>
    <path
       inkscape:connector-curvature="0"
       d="m 210.48571,463.67647 0,0.74999 243.6,0 0,-0.74999 -243.6,0 z"
       style="fill:#000000;fill-opacity:1;fill-rule:nonzero;stroke:none"
       id="path3871" />
    <g
       id="g3873"
       transform="matrix(0,1.25,1.25,0,210.41071,602.35147)">
      <path
         inkscape:connector-curvature="0"
         d="M 0,0 0,194.88"
         style="fill:none;stroke:#000000;stroke-width:0.06;stroke-linecap:butt;stroke-linejoin:miter;stroke-miterlimit:10;stroke-opacity:1;stroke-dasharray:none"
         id="path3875" />
    </g>
    <path
       inkscape:connector-curvature="0"
       d="m 210.48571,602.42647 0,0.74999 243.6,0 0,-0.74999 -243.6,0 z"
       style="fill:#000000;fill-opacity:1;fill-rule:nonzero;stroke:none"
       id="path3877" />
    <g
       id="g3879"
       transform="matrix(0,1.25,1.25,0,-151.97804,286.22647)">
      <g
         id="g3881"
         clip-path="url(#clipPath3883)">
        <g
           id="g3887"
           transform="translate(308.4,289.911)">
          <path
             inkscape:connector-curvature="0"
             d="M 0,0 0,438.54"
             style="fill:none;stroke:#000000;stroke-width:0.06;stroke-linecap:butt;stroke-linejoin:miter;stroke-miterlimit:10;stroke-opacity:1;stroke-dasharray:none"
             id="path3889" />
        </g>
      </g>
    </g>
    <path
       inkscape:connector-curvature="0"
       d="m 210.48571,671.80147 0,0.67497 548.1,0 0,-0.67497 -548.1,0 z"
       style="fill:#000000;fill-opacity:1;fill-rule:nonzero;stroke:none"
       id="path3891" />
    <g
       id="g3893"
       transform="matrix(0,1.25,1.25,0,-151.97804,286.22647)">
      <g
         id="g3895"
         clip-path="url(#clipPath3897)">
        <g
           id="g3901"
           transform="translate(400.86,289.911)">
          <path
             inkscape:connector-curvature="0"
             d="M 0,0 0,438.54"
             style="fill:none;stroke:#000000;stroke-width:0.06;stroke-linecap:butt;stroke-linejoin:miter;stroke-miterlimit:10;stroke-opacity:1;stroke-dasharray:none"
             id="path3903" />
        </g>
      </g>
    </g>
    <path
       inkscape:connector-curvature="0"
       d="m 210.48571,787.37647 0,0.75001 548.1,0 0,-0.75001 -548.1,0 z"
       style="fill:#000000;fill-opacity:1;fill-rule:nonzero;stroke:none"
       id="path3905" />
    <g
       id="g3907"
       transform="matrix(0,1.25,1.25,0,-151.97804,286.22647)">
      <g
         id="g3909"
         clip-path="url(#clipPath3911)">
        <g
           id="g3915"
           transform="translate(459.96,289.911)">
          <path
             inkscape:connector-curvature="0"
             d="M 0,0 0,438.54"
             style="fill:none;stroke:#000000;stroke-width:0.06;stroke-linecap:butt;stroke-linejoin:miter;stroke-miterlimit:10;stroke-opacity:1;stroke-dasharray:none"
             id="path3917" />
        </g>
      </g>
    </g>
    <path
       inkscape:connector-curvature="0"
       d="m 210.48571,861.17647 0,0.75005 548.1,0 0,-0.75005 -548.1,0 z"
       style="fill:#000000;fill-opacity:1;fill-rule:nonzero;stroke:none"
       id="path3919" />
    <g
       id="g3921"
       transform="matrix(0,1.25,1.25,0,-151.97804,286.22647)">
      <g
         id="g3923"
         clip-path="url(#clipPath3925)">
        <g
           id="g3929"
           transform="translate(478.44,289.911)">
          <path
             inkscape:connector-curvature="0"
             d="M 0,0 0,438.54"
             style="fill:none;stroke:#000000;stroke-width:0.06;stroke-linecap:butt;stroke-linejoin:miter;stroke-miterlimit:10;stroke-opacity:1;stroke-dasharray:none"
             id="path3931" />
        </g>
      </g>
    </g>
    <path
       inkscape:connector-curvature="0"
       d="m 210.48571,884.35147 0,0.74997 548.1,0 0,-0.74997 -548.1,0 z"
       style="fill:#000000;fill-opacity:1;fill-rule:nonzero;stroke:none"
       id="path3933" />
  </g>
</svg>
