<?xml version="1.0" encoding="UTF-8" standalone="no"?>
<!-- Created with Inkscape (http://www.inkscape.org/) -->

<svg
   xmlns:dc="http://purl.org/dc/elements/1.1/"
   xmlns:cc="http://creativecommons.org/ns#"
   xmlns:rdf="http://www.w3.org/1999/02/22-rdf-syntax-ns#"
   xmlns:svg="http://www.w3.org/2000/svg"
   xmlns="http://www.w3.org/2000/svg"
   xmlns:sodipodi="http://sodipodi.sourceforge.net/DTD/sodipodi-0.dtd"
   xmlns:inkscape="http://www.inkscape.org/namespaces/inkscape"
   width="835.87146"
   height="508.98404"
   id="svg6728"
   version="1.1"
   inkscape:version="0.48.4 r9939"
   sodipodi:docname="New document 16">
  <defs
     id="defs6730">
    <clipPath
       id="clipPath7056"
       clipPathUnits="userSpaceOnUse">
      <path
         id="path7058"
         d="m 483.78,296.811 0.12,0 0,438.54 -0.12,0 0,-438.54 z"
         inkscape:connector-curvature="0" />
    </clipPath>
    <clipPath
       id="clipPath7042"
       clipPathUnits="userSpaceOnUse">
      <path
         id="path7044"
         d="m 464.76,296.811 0.12003,0 0,438.54 -0.12003,0 0,-438.54 z"
         inkscape:connector-curvature="0" />
    </clipPath>
    <clipPath
       id="clipPath7028"
       clipPathUnits="userSpaceOnUse">
      <path
         id="path7030"
         d="m 403.98,296.811 0.12,0 0,438.54 -0.12,0 0,-438.54 z"
         inkscape:connector-curvature="0" />
    </clipPath>
    <clipPath
       id="clipPath7014"
       clipPathUnits="userSpaceOnUse">
      <path
         id="path7016"
         d="m 308.82,296.811 0.12003,0 0,438.54 -0.12003,0 0,-438.54 z"
         inkscape:connector-curvature="0" />
    </clipPath>
    <clipPath
       id="clipPath6918"
       clipPathUnits="userSpaceOnUse">
      <path
         id="path6920"
         d="m 290.4,699.051 17.76,0 0,20.82 -17.76,0 0,-20.82 z"
         inkscape:connector-curvature="0" />
    </clipPath>
    <clipPath
       id="clipPath6902"
       clipPathUnits="userSpaceOnUse">
      <path
         id="path6904"
         d="m 290.4,652.371 17.76,0 0,17.04 -17.76,0 0,-17.04 z"
         inkscape:connector-curvature="0" />
    </clipPath>
    <clipPath
       id="clipPath6886"
       clipPathUnits="userSpaceOnUse">
      <path
         id="path6888"
         d="m 290.4,601.371 17.76,0 0,22.44 -17.76,0 0,-22.44 z"
         inkscape:connector-curvature="0" />
    </clipPath>
    <clipPath
       id="clipPath6870"
       clipPathUnits="userSpaceOnUse">
      <path
         id="path6872"
         d="m 290.4,504.891 17.76,0 0,20.16 -17.76,0 0,-20.16 z"
         inkscape:connector-curvature="0" />
    </clipPath>
    <clipPath
       id="clipPath6854"
       clipPathUnits="userSpaceOnUse">
      <path
         id="path6856"
         d="m 290.4,457.491 17.76,0 0,16.38 -17.76,0 0,-16.38 z"
         inkscape:connector-curvature="0" />
    </clipPath>
    <clipPath
       id="clipPath6838"
       clipPathUnits="userSpaceOnUse">
      <path
         id="path6840"
         d="m 290.4,408.111 17.76,0 0,17.34 -17.76,0 0,-17.34 z"
         inkscape:connector-curvature="0" />
    </clipPath>
    <clipPath
       id="clipPath6792"
       clipPathUnits="userSpaceOnUse">
      <path
         id="path6794"
         d="m 119.16,299.031 17.76,0 0,39.12 -17.76,0 0,-39.12 z"
         inkscape:connector-curvature="0" />
    </clipPath>
    <clipPath
       id="clipPath6756"
       clipPathUnits="userSpaceOnUse">
      <path
         id="path6758"
         d="m 0,841.98 595.2,0 L 595.2,0 0,0 0,841.98 z"
         inkscape:connector-curvature="0" />
    </clipPath>
    <clipPath
       id="clipPath6750"
       clipPathUnits="userSpaceOnUse">
      <path
         id="path6752"
         clip-rule="evenodd"
         d="m 567.48,61.011 -540,0 0,720 540,0 0,-720 z"
         inkscape:connector-curvature="0" />
    </clipPath>
  </defs>
  <sodipodi:namedview
     id="base"
     pagecolor="#ffffff"
     bordercolor="#666666"
     borderopacity="1.0"
     inkscape:pageopacity="0.0"
     inkscape:pageshadow="2"
     inkscape:zoom="0.35"
     inkscape:cx="445.52149"
     inkscape:cy="229.6929"
     inkscape:document-units="px"
     inkscape:current-layer="layer1"
     showgrid="false"
     fit-margin-top="10"
     fit-margin-left="10"
     fit-margin-right="10"
     fit-margin-bottom="10"
     inkscape:window-width="954"
     inkscape:window-height="1028"
     inkscape:window-x="0"
     inkscape:window-y="0"
     inkscape:window-maximized="0" />
  <metadata
     id="metadata6733">
    <rdf:RDF>
      <cc:Work
         rdf:about="">
        <dc:format>image/svg+xml</dc:format>
        <dc:type
           rdf:resource="http://purl.org/dc/dcmitype/StillImage" />
        <dc:title></dc:title>
      </cc:Work>
    </rdf:RDF>
  </metadata>
  <g
     inkscape:label="Layer 1"
     inkscape:groupmode="layer"
     id="layer1"
     transform="translate(70.521488,-253.07102)">
    <text
       transform="scale(1.0498879,0.95248261)"
       id="text6772"
       x="-56.839996"
       y="293.26523"
       style="font-size:14.28723907px">
      <tspan
         style="font-size:25.78144264px;font-style:italic;font-variant:normal;font-weight:normal;font-stretch:normal;writing-mode:lr-tb;fill:#ff0000;fill-opacity:1;fill-rule:nonzero;stroke:none;font-family:Times New Roman;-inkscape-font-specification:TimesNewRomanPS-ItalicMT"
         x="-56.839996 -47.981491 -35.052101 -25.412418 -18.121426 -8.4817429 4.4476504 15.667732 22.958729 30.177532 43.106922 55.966702 62.466206 72.105881 79.324692 92.254089 99.472885 112.40229 122.04197"
         y="293.26523"
         sodipodi:role="line"
         id="tspan6774">Instruction status:</tspan>
    </text>
    <text
       transform="scale(1.0498911,0.95247971)"
       id="text6776"
       x="237.2621"
       y="293.65985"
       style="font-size:14.28719521px">
      <tspan
         style="font-size:21.7530899px;font-style:italic;font-variant:normal;font-weight:normal;font-stretch:normal;writing-mode:lr-tb;fill:#000000;fill-opacity:1;fill-rule:nonzero;stroke:none;font-family:Times New Roman;-inkscape-font-specification:TimesNewRomanPS-ItalicMT"
         x="237.2621 250.97525 260.62274 271.9213 295.27975 308.99292 318.64041 328.2879 353.29309 370.22351 379.077 386.29468 392.79886"
         y="293.65985"
         sodipodi:role="line"
         id="tspan6778">ReadExecWrite</tspan>
    </text>
    <text
       transform="scale(1.049889,0.9524816)"
       id="text6780"
       x="-24.550808"
       y="319.88025"
       style="font-size:14.28722382px">
      <tspan
         style="font-size:18.53041077px;font-variant:normal;font-weight:normal;font-stretch:normal;writing-mode:lr-tb;fill:#000000;fill-opacity:1;fill-rule:nonzero;stroke:none;font-family:Times New Roman;-inkscape-font-specification:TimesNewRomanPSMT"
         x="-24.550808 -18.120756 -8.4775305 -1.1932265 3.5968843 10.026938 19.74243 27.817986 32.608097 37.46862 47.111847"
         y="319.88025"
         sodipodi:role="line"
         id="tspan6782">Instruction</tspan>
    </text>
    <text
       transform="scale(1.049889,0.9524816)"
       id="text6784"
       x="113.964"
       y="319.8024"
       style="font-size:14.28722382px">
      <tspan
         style="font-size:18.53041077px;font-style:italic;font-variant:normal;font-weight:normal;font-stretch:normal;writing-mode:lr-tb;fill:#000000;fill-opacity:1;fill-rule:nonzero;stroke:none;font-family:Times New Roman;-inkscape-font-specification:TimesNewRomanPS-ItalicMT"
         x="113.964 151.04335"
         y="319.8024"
         sodipodi:role="line"
         id="tspan6786">jk</tspan>
    </text>
    <g
       id="g6788"
       transform="matrix(0,1.25,1.25,0,-186.26375,137.65504)">
      <g
         id="g6790"
         clip-path="url(#clipPath6792)">
        <text
           transform="matrix(0,1,0.90721757,0,133.32,299.5705)"
           id="text6796">
          <tspan
             style="font-size:18.27070045px;font-style:italic;font-variant:normal;font-weight:normal;font-stretch:normal;writing-mode:lr-tb;fill:#000000;fill-opacity:1;fill-rule:nonzero;stroke:none;font-family:Times New Roman;-inkscape-font-specification:TimesNewRomanPS-ItalicMT"
             x="0"
             y="0"
             id="tspan6798">I</tspan>
        </text>
      </g>
    </g>
    <text
       transform="scale(1.0498911,0.95247971)"
       id="text6800"
       x="186.47112"
       y="319.48715"
       style="font-size:14.28719521px">
      <tspan
         style="font-size:21.7530899px;font-style:italic;font-variant:normal;font-weight:normal;font-stretch:normal;writing-mode:lr-tb;fill:#000000;fill-opacity:1;fill-rule:nonzero;stroke:none;font-family:Times New Roman;-inkscape-font-specification:TimesNewRomanPS-ItalicMT"
         x="186.47112 195.33984 204.20859 215.42448 237.21672 253.32924 264.54514 274.2644 295.19089 309.6915 320.97916 337.09167 353.23682 366.93475 376.58224 385.45096 396.73428 403.18845"
         y="319.48715"
         sodipodi:role="line"
         id="tspan6802">ssueOperCompResult</tspan>
    </text>
    <text
       transform="scale(1.049889,0.9524816)"
       id="text6804"
       x="-24.550808"
       y="345.70752"
       style="font-size:14.28722382px">
      <tspan
         style="font-size:18.53041077px;font-variant:normal;font-weight:normal;font-stretch:normal;writing-mode:lr-tb;fill:#000000;fill-opacity:1;fill-rule:nonzero;stroke:none;font-family:Times New Roman;-inkscape-font-specification:TimesNewRomanPSMT"
         x="-24.550808 -14.118187 56.814373 67.241432 101.10205 109.95959 118.81713 139.74907 151.89392 200.18414"
         y="345.70752"
         sodipodi:role="line"
         id="tspan6806">LDF634+R21</tspan>
      <tspan
         style="font-size:18.53041077px;font-variant:normal;font-weight:normal;font-stretch:normal;writing-mode:lr-tb;fill:#ff0000;fill-opacity:1;fill-rule:nonzero;stroke:none;font-family:Times New Roman;-inkscape-font-specification:TimesNewRomanPSMT"
         x="-24.550808 -14.118187 56.814373 67.241432 101.10205 109.95959 118.81713 139.74907 151.89392"
         y="370.66797"
         sodipodi:role="line"
         id="tspan6808">LDF245+R3</tspan>
      <tspan
         style="font-size:18.53041077px;font-variant:normal;font-weight:normal;font-stretch:normal;writing-mode:lr-tb;fill:#0000ff;fill-opacity:1;fill-rule:nonzero;stroke:none;font-family:Times New Roman;-inkscape-font-specification:TimesNewRomanPSMT"
         x="-24.550808 -9.2669258 2.8019307 13.306821 24.597399 56.812519 67.239578 101.1002 111.59769 139.74352 150.241"
         y="395.62842"
         sodipodi:role="line"
         id="tspan6810">MULTDF0F2F4</tspan>
      <tspan
         style="font-size:18.53041077px;font-variant:normal;font-weight:normal;font-stretch:normal;writing-mode:lr-tb;fill:#ff00ff;fill-opacity:1;fill-rule:nonzero;stroke:none;font-family:Times New Roman;-inkscape-font-specification:TimesNewRomanPSMT"
         x="-24.550808 -14.088538 -2.0196817 9.2671909 56.840317 67.302582 101.1632 111.62547 139.7713 150.23358"
         y="420.5889"
         sodipodi:role="line"
         id="tspan6812">SUBDF8F6F2</tspan>
      <tspan
         style="font-size:18.53041077px;font-variant:normal;font-weight:normal;font-stretch:normal;writing-mode:lr-tb;fill:#00ff00;fill-opacity:1;fill-rule:nonzero;stroke:none;font-family:Times New Roman;-inkscape-font-specification:TimesNewRomanPSMT"
         x="-24.550808 -11.661055 -5.2328548 7.656898 56.801403 67.228462 76.085999 101.08908 111.58656 139.73239 150.22987"
         y="445.62903"
         sodipodi:role="line"
         id="tspan6814">DIVDF10F0F6</tspan>
      <tspan
         style="font-size:18.53041077px;font-variant:normal;font-weight:normal;font-stretch:normal;writing-mode:lr-tb;fill:#000000;fill-opacity:1;fill-rule:nonzero;stroke:none;font-family:Times New Roman;-inkscape-font-specification:TimesNewRomanPSMT"
         x="-24.550808 -11.672173 1.2064626 14.085099 56.801403 67.228462 101.08908 111.58656 139.73239 150.22987"
         y="470.58951"
         sodipodi:role="line"
         id="tspan6816">ADDDF6F8F2</tspan>
    </text>
    <text
       transform="scale(1.0498879,0.95248261)"
       id="text6818"
       x="-56.839996"
       y="518.07251"
       style="font-size:14.28723907px">
      <tspan
         style="font-size:25.78144264px;font-style:italic;font-variant:normal;font-weight:normal;font-stretch:normal;writing-mode:lr-tb;fill:#ff0000;fill-opacity:1;fill-rule:nonzero;stroke:none;font-family:Times New Roman;-inkscape-font-specification:TimesNewRomanPS-ItalicMT"
         x="-56.839996 -41.476833 -28.617052 -15.723751 -4.5036654 2.7873261 10.078318 22.938099 35.831398 48.724697 55.894516 62.39402 75.287315 88.180618 95.471611 102.69041 109.18992 118.8296 126.12059 139.01389 146.30487 159.19818 168.83786"
         y="518.07251"
         sodipodi:role="line"
         id="tspan6820">Functional unit status:</tspan>
    </text>
    <text
       transform="scale(1.0498911,0.95247971)"
       id="text6822"
       x="300.91156"
       y="518.46777"
       style="font-size:14.28719521px">
      <tspan
         style="font-size:21.7530899px;font-style:italic;font-variant:normal;font-weight:normal;font-stretch:normal;writing-mode:lr-tb;fill:#000000;fill-opacity:1;fill-rule:nonzero;stroke:none;font-family:Times New Roman;-inkscape-font-specification:TimesNewRomanPS-ItalicMT"
         x="300.91156 312.19925 321.84674 330.70026 366.20779 377.42371 424.2146 435.43048 478.93451 491.86237 536.93475 549.86261 594.14972 607.07758 612.76166 650.62292 663.48553 673.20483"
         y="518.46777"
         sodipodi:role="line"
         id="tspan6824">destS1S2FUFUFj?Fk?</tspan>
    </text>
    <text
       transform="scale(1.049889,0.9524816)"
       id="text6826"
       x="56.814934"
       y="544.60901"
       style="font-size:14.28722382px">
      <tspan
         style="font-size:18.53041077px;font-style:italic;font-variant:normal;font-weight:normal;font-stretch:normal;writing-mode:lr-tb;fill:#000000;fill-opacity:1;fill-rule:nonzero;stroke:none;font-family:Times New Roman;-inkscape-font-specification:TimesNewRomanPS-ItalicMT"
         x="56.814934 67.241997 72.102524 85.815025 101.10446 113.17702 122.82025 136.53276"
         y="544.60901"
         sodipodi:role="line"
         id="tspan6828">TimeName</tspan>
    </text>
    <text
       transform="scale(1.0498911,0.95247971)"
       id="text6830"
       x="181.68492"
       y="544.21637"
       style="font-size:14.28719521px">
      <tspan
         style="font-size:21.7530899px;font-style:italic;font-variant:normal;font-weight:normal;font-stretch:normal;writing-mode:lr-tb;fill:#000000;fill-opacity:1;fill-rule:nonzero;stroke:none;font-family:Times New Roman;-inkscape-font-specification:TimesNewRomanPS-ItalicMT"
         x="181.68492 195.35674 206.61395 215.45659 247.74905 263.83545"
         y="544.21637"
         sodipodi:role="line"
         id="tspan6832">BusyOp</tspan>
    </text>
    <g
       id="g6834"
       transform="matrix(0,1.25,1.25,0,-186.26375,137.65504)">
      <g
         id="g6836"
         clip-path="url(#clipPath6838)">
        <text
           transform="matrix(0,1,0.90721757,0,304.56,408.5305)"
           id="text6842">
          <tspan
             style="font-size:18.27070045px;font-style:italic;font-variant:normal;font-weight:normal;font-stretch:normal;writing-mode:lr-tb;fill:#000000;fill-opacity:1;fill-rule:nonzero;stroke:none;font-family:Times New Roman;-inkscape-font-specification:TimesNewRomanPS-ItalicMT"
             x="0"
             y="0"
             id="tspan6844">F</tspan>
        </text>
      </g>
    </g>
    <text
       transform="scale(1.0498911,0.95247971)"
       id="text6846"
       x="321.84229"
       y="544.21637"
       style="font-size:14.28719521px">
      <tspan
         style="font-size:21.7530899px;font-style:italic;font-variant:normal;font-weight:normal;font-stretch:normal;writing-mode:lr-tb;fill:#000000;fill-opacity:1;fill-rule:nonzero;stroke:none;font-family:Times New Roman;-inkscape-font-specification:TimesNewRomanPS-ItalicMT"
         x="321.84229"
         y="544.21637"
         id="tspan6848">i</tspan>
    </text>
    <g
       id="g6850"
       transform="matrix(0,1.25,1.25,0,-186.26375,137.65504)">
      <g
         id="g6852"
         clip-path="url(#clipPath6854)">
        <text
           transform="matrix(0,1,0.90721757,0,304.56,457.9105)"
           id="text6858">
          <tspan
             style="font-size:18.27070045px;font-style:italic;font-variant:normal;font-weight:normal;font-stretch:normal;writing-mode:lr-tb;fill:#000000;fill-opacity:1;fill-rule:nonzero;stroke:none;font-family:Times New Roman;-inkscape-font-specification:TimesNewRomanPS-ItalicMT"
             x="0"
             y="0"
             id="tspan6860">F</tspan>
        </text>
      </g>
    </g>
    <text
       transform="scale(1.0498911,0.95247971)"
       id="text6862"
       x="380.63412"
       y="544.21637"
       style="font-size:14.28719521px">
      <tspan
         style="font-size:21.7530899px;font-style:italic;font-variant:normal;font-weight:normal;font-stretch:normal;writing-mode:lr-tb;fill:#000000;fill-opacity:1;fill-rule:nonzero;stroke:none;font-family:Times New Roman;-inkscape-font-specification:TimesNewRomanPS-ItalicMT"
         x="380.63412"
         y="544.21637"
         id="tspan6864">j</tspan>
    </text>
    <g
       id="g6866"
       transform="matrix(0,1.25,1.25,0,-186.26375,137.65504)">
      <g
         id="g6868"
         clip-path="url(#clipPath6870)">
        <text
           transform="matrix(0,1,0.90721757,0,304.56,505.3105)"
           id="text6874">
          <tspan
             style="font-size:18.27070045px;font-style:italic;font-variant:normal;font-weight:normal;font-stretch:normal;writing-mode:lr-tb;fill:#000000;fill-opacity:1;fill-rule:nonzero;stroke:none;font-family:Times New Roman;-inkscape-font-specification:TimesNewRomanPS-ItalicMT"
             x="0"
             y="0"
             id="tspan6876">F</tspan>
        </text>
      </g>
    </g>
    <text
       transform="scale(1.0498911,0.95247971)"
       id="text6878"
       x="437.06854"
       y="544.21637"
       style="font-size:14.28719521px">
      <tspan
         style="font-size:21.7530899px;font-style:italic;font-variant:normal;font-weight:normal;font-stretch:normal;writing-mode:lr-tb;fill:#000000;fill-opacity:1;fill-rule:nonzero;stroke:none;font-family:Times New Roman;-inkscape-font-specification:TimesNewRomanPS-ItalicMT"
         x="437.06854 482.21924 498.28824 538.58148"
         y="544.21637"
         sodipodi:role="line"
         id="tspan6880">kQjQ</tspan>
    </text>
    <g
       id="g6882"
       transform="matrix(0,1.25,1.25,0,-186.26375,137.65504)">
      <g
         id="g6884"
         clip-path="url(#clipPath6886)">
        <text
           transform="matrix(0,1,0.90721757,0,304.56,614.9305)"
           id="text6890">
          <tspan
             style="font-size:18.27070045px;font-style:italic;font-variant:normal;font-weight:normal;font-stretch:normal;writing-mode:lr-tb;fill:#000000;fill-opacity:1;fill-rule:nonzero;stroke:none;font-family:Times New Roman;-inkscape-font-specification:TimesNewRomanPS-ItalicMT"
             x="0"
             y="0"
             id="tspan6892">k</tspan>
        </text>
      </g>
    </g>
    <text
       transform="scale(1.0498911,0.95247971)"
       id="text6894"
       x="599.79968"
       y="544.21637"
       style="font-size:14.28719521px">
      <tspan
         style="font-size:21.7530899px;font-style:italic;font-variant:normal;font-weight:normal;font-stretch:normal;writing-mode:lr-tb;fill:#000000;fill-opacity:1;fill-rule:nonzero;stroke:none;font-family:Times New Roman;-inkscape-font-specification:TimesNewRomanPS-ItalicMT"
         x="599.79968"
         y="544.21637"
         id="tspan6896">R</tspan>
    </text>
    <g
       id="g6898"
       transform="matrix(0,1.25,1.25,0,-186.26375,137.65504)">
      <g
         id="g6900"
         clip-path="url(#clipPath6902)">
        <text
           transform="matrix(0,1,0.90721757,0,304.56,664.3105)"
           id="text6906">
          <tspan
             style="font-size:18.27070045px;font-style:italic;font-variant:normal;font-weight:normal;font-stretch:normal;writing-mode:lr-tb;fill:#000000;fill-opacity:1;fill-rule:nonzero;stroke:none;font-family:Times New Roman;-inkscape-font-specification:TimesNewRomanPS-ItalicMT"
             x="0"
             y="0"
             id="tspan6908">j</tspan>
        </text>
      </g>
    </g>
    <text
       transform="scale(1.0498911,0.95247971)"
       id="text6910"
       x="655.37689"
       y="544.21637"
       style="font-size:14.28719521px">
      <tspan
         style="font-size:21.7530899px;font-style:italic;font-variant:normal;font-weight:normal;font-stretch:normal;writing-mode:lr-tb;fill:#000000;fill-opacity:1;fill-rule:nonzero;stroke:none;font-family:Times New Roman;-inkscape-font-specification:TimesNewRomanPS-ItalicMT"
         x="655.37689"
         y="544.21637"
         id="tspan6912">R</tspan>
    </text>
    <g
       id="g6914"
       transform="matrix(0,1.25,1.25,0,-186.26375,137.65504)">
      <g
         id="g6916"
         clip-path="url(#clipPath6918)">
        <text
           transform="matrix(0,1,0.90721757,0,304.56,710.9905)"
           id="text6922">
          <tspan
             style="font-size:18.27070045px;font-style:italic;font-variant:normal;font-weight:normal;font-stretch:normal;writing-mode:lr-tb;fill:#000000;fill-opacity:1;fill-rule:nonzero;stroke:none;font-family:Times New Roman;-inkscape-font-specification:TimesNewRomanPS-ItalicMT"
             x="0"
             y="0"
             id="tspan6924">k</tspan>
        </text>
      </g>
    </g>
    <text
       transform="scale(1.049889,0.9524816)"
       id="text6926"
       x="101.10532"
       y="570.51501"
       style="font-size:14.28722382px">
      <tspan
         style="font-size:18.53041077px;font-variant:normal;font-weight:normal;font-stretch:normal;writing-mode:lr-tb;fill:#000000;fill-opacity:1;fill-rule:nonzero;stroke:none;font-family:Times New Roman;-inkscape-font-specification:TimesNewRomanPSMT"
         x="101.10532 107.53352 117.24902 122.03913 130.11469 138.97221 147.04778 190.55162 203.40616 211.46132 243.67645 254.18134 263.82455 271.87973 311.3847 321.81177 426.53641 438.72385 654.60498 667.5318 675.5351"
         y="570.51501"
         sodipodi:role="line"
         id="tspan6928">IntegerYesLoadF6R2Yes</tspan>
      <tspan
         style="font-size:18.53041077px;font-variant:normal;font-weight:normal;font-stretch:normal;writing-mode:lr-tb;fill:#000000;fill-opacity:1;fill-rule:nonzero;stroke:none;font-family:Times New Roman;-inkscape-font-specification:TimesNewRomanPSMT"
         x="101.10532 116.38921 126.1047 130.89481 135.75534 193.76108 206.61563"
         y="595.47546"
         sodipodi:role="line"
         id="tspan6930">Mult1No</tspan>
      <tspan
         style="font-size:18.53041077px;font-variant:normal;font-weight:normal;font-stretch:normal;writing-mode:lr-tb;fill:#000000;fill-opacity:1;fill-rule:nonzero;stroke:none;font-family:Times New Roman;-inkscape-font-specification:TimesNewRomanPSMT"
         x="101.10532 116.38921 126.1047 130.89481 135.75534 193.76108 206.61563"
         y="620.43591"
         sodipodi:role="line"
         id="tspan6932">Mult2No</tspan>
      <tspan
         style="font-size:18.53041077px;font-variant:normal;font-weight:normal;font-stretch:normal;writing-mode:lr-tb;fill:#000000;fill-opacity:1;fill-rule:nonzero;stroke:none;font-family:Times New Roman;-inkscape-font-specification:TimesNewRomanPSMT"
         x="101.10532 113.95987 123.67536 193.75368 206.60822"
         y="645.39636"
         sodipodi:role="line"
         id="tspan6934">AddNo</tspan>
      <tspan
         style="font-size:18.53041077px;font-variant:normal;font-weight:normal;font-stretch:normal;writing-mode:lr-tb;fill:#000000;fill-opacity:1;fill-rule:nonzero;stroke:none;font-family:Times New Roman;-inkscape-font-specification:TimesNewRomanPSMT"
         x="101.10532 113.95987 118.8204 128.46362 133.32414 142.96738 193.76108 206.61563"
         y="670.35687"
         sodipodi:role="line"
         id="tspan6936">DivideNo</tspan>
    </text>
    <text
       transform="scale(1.0498879,0.95248261)"
       id="text6938"
       x="-56.839996"
       y="716.26508"
       style="font-size:14.28723907px">
      <tspan
         style="font-size:25.78144264px;font-style:italic;font-variant:normal;font-weight:normal;font-stretch:normal;writing-mode:lr-tb;fill:#ff0000;fill-opacity:1;fill-rule:nonzero;stroke:none;font-family:Times New Roman;-inkscape-font-specification:TimesNewRomanPS-ItalicMT"
         x="-56.839996 -40.690498 -29.400806 -16.5436 -9.2526073 0.42316487 7.7141566 19.003849 28.643534 35.073429 44.749195 56.038891 65.714668 78.574448 85.86544 93.084244 99.514137 109.18992 116.40871 129.33812 136.55692 149.4863 159.12598"
         y="716.26508"
         sodipodi:role="line"
         id="tspan6940">Register result status:</tspan>
    </text>
    <text
       transform="scale(1.0498879,0.95248261)"
       id="text6942"
       x="-23.764988"
       y="748.47125"
       style="font-size:14.28723907px">
      <tspan
         style="font-size:25.78144264px;font-variant:normal;font-weight:normal;font-stretch:normal;writing-mode:lr-tb;fill:#000000;fill-opacity:1;fill-rule:nonzero;stroke:none;font-family:Times New Roman;-inkscape-font-specification:TimesNewRomanPSMT"
         x="-23.764988 -6.8343158 0.38448837 13.313882 24.603573"
         y="748.47125"
         sodipodi:role="line"
         id="tspan6944">Clock</tspan>
    </text>
    <text
       transform="scale(1.0498879,0.95248261)"
       id="text6946"
       x="188.90097"
       y="747.68494"
       style="font-size:14.28723907px">
      <tspan
         style="font-size:25.78144264px;font-style:italic;font-variant:normal;font-weight:normal;font-stretch:normal;writing-mode:lr-tb;fill:#000000;fill-opacity:1;fill-rule:nonzero;stroke:none;font-family:Times New Roman;-inkscape-font-specification:TimesNewRomanPS-ItalicMT"
         x="188.90097 204.26413 246.91179 262.27496 304.92261 320.2858 362.93344 378.2966 420.94427 436.30743 472.52518 487.88837 500.74814 530.53601 545.89917 558.75897 599.04761 605.47754 611.90741 646.55511 661.91827 674.77545"
         y="747.68494"
         sodipodi:role="line"
         id="tspan6948">F0F2F4F6F8F10F12...F30</tspan>
    </text>
    <text
       transform="scale(1.0498896,0.95248105)"
       id="text6950"
       x="8.4526739"
       y="775.40131"
       style="font-size:14.28721619px">
      <tspan
         style="font-size:19.33608055px;font-variant:normal;font-weight:bold;font-stretch:normal;writing-mode:lr-tb;fill:#000000;fill-opacity:1;fill-rule:nonzero;stroke:none;font-family:Times New Roman;-inkscape-font-specification:TimesNewRomanPS-BoldMT"
         x="8.4526739"
         y="775.40131"
         id="tspan6952">1</tspan>
    </text>
    <text
       transform="scale(1.0498896,0.95248105)"
       id="text6954"
       x="139.7524"
       y="775.00684"
       style="font-size:14.28721619px">
      <tspan
         style="font-size:19.33608055px;font-style:italic;font-variant:normal;font-weight:normal;font-stretch:normal;writing-mode:lr-tb;fill:#000000;fill-opacity:1;fill-rule:nonzero;stroke:none;font-family:Times New Roman;-inkscape-font-specification:TimesNewRomanPS-ItalicMT"
         x="139.7524 151.89932"
         y="775.00684"
         sodipodi:role="line"
         id="tspan6956">FU</tspan>
    </text>
    <text
       transform="scale(1.0498896,0.95248105)"
       id="text6958"
       x="351.6333"
       y="775.00684"
       style="font-size:14.28721619px">
      <tspan
         style="font-size:19.33608055px;font-variant:normal;font-weight:normal;font-stretch:normal;writing-mode:lr-tb;fill:#000000;fill-opacity:1;fill-rule:nonzero;stroke:none;font-family:Times New Roman;-inkscape-font-specification:TimesNewRomanPSMT"
         x="351.6333 358.09155 367.7789 373.42505 382.28677 391.14462 400.00635"
         y="775.00684"
         sodipodi:role="line"
         id="tspan6960">Integer</tspan>
    </text>
    <g
       id="g6962"
       transform="matrix(0,1.25,1.25,0,183.925,309.55504)">
      <path
         inkscape:connector-curvature="0"
         d="M 0,0 114.84,0"
         style="fill:none;stroke:#000000;stroke-width:0.06;stroke-linecap:butt;stroke-linejoin:miter;stroke-miterlimit:10;stroke-opacity:1;stroke-dasharray:none"
         id="path6964" />
    </g>
    <path
       inkscape:connector-curvature="0"
       d="m 184,309.63004 0,143.475 0.825,0 0,-143.475 -0.825,0 z"
       style="fill:#000000;fill-opacity:1;fill-rule:nonzero;stroke:none"
       id="path6966" />
    <g
       id="g6968"
       transform="matrix(0,1.25,1.25,0,183.925,523.68004)">
      <path
         inkscape:connector-curvature="0"
         d="M 0,0 95.76,0"
         style="fill:none;stroke:#000000;stroke-width:0.06;stroke-linecap:butt;stroke-linejoin:miter;stroke-miterlimit:10;stroke-opacity:1;stroke-dasharray:none"
         id="path6970" />
    </g>
    <path
       inkscape:connector-curvature="0"
       d="m 184,523.68004 0,119.775 0.825,0 0,-119.775 -0.825,0 z"
       style="fill:#000000;fill-opacity:1;fill-rule:nonzero;stroke:none"
       id="path6972" />
    <g
       id="g6974"
       transform="matrix(0,1.25,1.25,0,732.02375,524.43004)">
      <path
         inkscape:connector-curvature="0"
         d="M 0,0 95.16,0"
         style="fill:none;stroke:#000000;stroke-width:0.06;stroke-linecap:butt;stroke-linejoin:miter;stroke-miterlimit:10;stroke-opacity:1;stroke-dasharray:none"
         id="path6976" />
    </g>
    <path
       inkscape:connector-curvature="0"
       d="m 732.1,524.50504 0,118.95 0.82496,0 0,-118.95 -0.82496,0 z"
       style="fill:#000000;fill-opacity:1;fill-rule:nonzero;stroke:none"
       id="path6978" />
    <g
       id="g6980"
       transform="matrix(0,1.25,1.25,0,183.925,718.60504)">
      <path
         inkscape:connector-curvature="0"
         d="M 0,0 19.62,0"
         style="fill:none;stroke:#000000;stroke-width:0.06;stroke-linecap:butt;stroke-linejoin:miter;stroke-miterlimit:10;stroke-opacity:1;stroke-dasharray:none"
         id="path6982" />
    </g>
    <path
       inkscape:connector-curvature="0"
       d="m 184,718.60504 0,24.6 0.825,0 0,-24.6 -0.825,0 z"
       style="fill:#000000;fill-opacity:1;fill-rule:nonzero;stroke:none"
       id="path6984" />
    <g
       id="g6986"
       transform="matrix(0,1.25,1.25,0,427.525,310.30504)">
      <path
         inkscape:connector-curvature="0"
         d="M 0,0 114.24,0"
         style="fill:none;stroke:#000000;stroke-width:0.06;stroke-linecap:butt;stroke-linejoin:miter;stroke-miterlimit:10;stroke-opacity:1;stroke-dasharray:none"
         id="path6988" />
    </g>
    <path
       inkscape:connector-curvature="0"
       d="m 427.6,310.38004 0,142.725 0.825,0 0,-142.725 -0.825,0 z"
       style="fill:#000000;fill-opacity:1;fill-rule:nonzero;stroke:none"
       id="path6990" />
    <g
       id="g6992"
       transform="matrix(0,1.25,1.25,0,732.02375,719.35504)">
      <path
         inkscape:connector-curvature="0"
         d="M 0,0 19.02,0"
         style="fill:none;stroke:#000000;stroke-width:0.06;stroke-linecap:butt;stroke-linejoin:miter;stroke-miterlimit:10;stroke-opacity:1;stroke-dasharray:none"
         id="path6994" />
    </g>
    <path
       inkscape:connector-curvature="0"
       d="m 732.1,719.43004 0,23.775 0.82496,0 0,-23.775 -0.82496,0 z"
       style="fill:#000000;fill-opacity:1;fill-rule:nonzero;stroke:none"
       id="path6996" />
    <g
       id="g6998"
       transform="matrix(0,1.25,1.25,0,184.75,309.55504)">
      <path
         inkscape:connector-curvature="0"
         d="M 0,0 0,194.88"
         style="fill:none;stroke:#000000;stroke-width:0.06;stroke-linecap:butt;stroke-linejoin:miter;stroke-miterlimit:10;stroke-opacity:1;stroke-dasharray:none"
         id="path7000" />
    </g>
    <path
       inkscape:connector-curvature="0"
       d="m 184.825,309.63004 0,0.75001 243.6,0 0,-0.75001 -243.6,0 z"
       style="fill:#000000;fill-opacity:1;fill-rule:nonzero;stroke:none"
       id="path7002" />
    <g
       id="g7004"
       transform="matrix(0,1.25,1.25,0,184.75,452.28004)">
      <path
         inkscape:connector-curvature="0"
         d="M 0,0 0,194.88"
         style="fill:none;stroke:#000000;stroke-width:0.06;stroke-linecap:butt;stroke-linejoin:miter;stroke-miterlimit:10;stroke-opacity:1;stroke-dasharray:none"
         id="path7006" />
    </g>
    <path
       inkscape:connector-curvature="0"
       d="m 184.825,452.35504 0,0.74999 243.6,0 0,-0.74999 -243.6,0 z"
       style="fill:#000000;fill-opacity:1;fill-rule:nonzero;stroke:none"
       id="path7008" />
    <g
       id="g7010"
       transform="matrix(0,1.25,1.25,0,-186.26375,137.65504)">
      <g
         id="g7012"
         clip-path="url(#clipPath7014)">
        <g
           id="g7018"
           transform="translate(308.82,296.811)">
          <path
             inkscape:connector-curvature="0"
             d="M 0,0 0,438.54"
             style="fill:none;stroke:#000000;stroke-width:0.06;stroke-linecap:butt;stroke-linejoin:miter;stroke-miterlimit:10;stroke-opacity:1;stroke-dasharray:none"
             id="path7020" />
        </g>
      </g>
    </g>
    <path
       inkscape:connector-curvature="0"
       d="m 184.825,523.68004 0,0.825 548.1,0 0,-0.825 -548.1,0 z"
       style="fill:#000000;fill-opacity:1;fill-rule:nonzero;stroke:none"
       id="path7022" />
    <g
       id="g7024"
       transform="matrix(0,1.25,1.25,0,-186.26375,137.65504)">
      <g
         id="g7026"
         clip-path="url(#clipPath7028)">
        <g
           id="g7032"
           transform="translate(403.98,296.811)">
          <path
             inkscape:connector-curvature="0"
             d="M 0,0 0,438.54"
             style="fill:none;stroke:#000000;stroke-width:0.06;stroke-linecap:butt;stroke-linejoin:miter;stroke-miterlimit:10;stroke-opacity:1;stroke-dasharray:none"
             id="path7034" />
        </g>
      </g>
    </g>
    <path
       inkscape:connector-curvature="0"
       d="m 184.825,642.63004 0,0.825 548.1,0 0,-0.825 -548.1,0 z"
       style="fill:#000000;fill-opacity:1;fill-rule:nonzero;stroke:none"
       id="path7036" />
    <g
       id="g7038"
       transform="matrix(0,1.25,1.25,0,-186.26375,137.65504)">
      <g
         id="g7040"
         clip-path="url(#clipPath7042)">
        <g
           id="g7046"
           transform="translate(464.76,296.811)">
          <path
             inkscape:connector-curvature="0"
             d="M 0,0 0,438.54"
             style="fill:none;stroke:#000000;stroke-width:0.06;stroke-linecap:butt;stroke-linejoin:miter;stroke-miterlimit:10;stroke-opacity:1;stroke-dasharray:none"
             id="path7048" />
        </g>
      </g>
    </g>
    <path
       inkscape:connector-curvature="0"
       d="m 184.825,718.60504 0,0.825 548.1,0 0,-0.825 -548.1,0 z"
       style="fill:#000000;fill-opacity:1;fill-rule:nonzero;stroke:none"
       id="path7050" />
    <g
       id="g7052"
       transform="matrix(0,1.25,1.25,0,-186.26375,137.65504)">
      <g
         id="g7054"
         clip-path="url(#clipPath7056)">
        <g
           id="g7060"
           transform="translate(483.78,296.811)">
          <path
             inkscape:connector-curvature="0"
             d="M 0,0 0,438.54"
             style="fill:none;stroke:#000000;stroke-width:0.06;stroke-linecap:butt;stroke-linejoin:miter;stroke-miterlimit:10;stroke-opacity:1;stroke-dasharray:none"
             id="path7062" />
        </g>
      </g>
    </g>
    <path
       inkscape:connector-curvature="0"
       d="m 184.825,742.38004 0,0.82504 548.1,0 0,-0.82504 -548.1,0 z"
       style="fill:#000000;fill-opacity:1;fill-rule:nonzero;stroke:none"
       id="path7064" />
    <g
       id="g7066"
       transform="matrix(0,1.25,1.25,0,164.275,289.68004)">
      <path
         inkscape:connector-curvature="0"
         d="m 0,0 -0.6,0 -1.2,0.12 c -5.936,0.855 -10.413,6.038 -10.44,12 l 0,40.44 c 0.261,5.977 4.926,11.037 10.92,11.58 l 1.2,0.12 39.9,0 0.6,-0.06 c 5.986,-0.19 10.887,-4.949 11.58,-10.86 l 0.06,-0.6 0,-40.56 C 52.058,10.334 51.501,8.058 50.58,6.48 L 49.98,5.46 49.32,4.5 C 47.31,2.272 45.299,0.823 42.3,0.24 L 41.7,0.12 40.5,0 39.84,0 0,0 z m 39.78,4.5 0.78,0 0.36,0.06 c 3.736,0.5 6.613,3.831 6.6,7.62 l 0,40.2 c -0.166,3.76 -3.133,6.94 -6.9,7.32 l -0.36,0 -0.48,0.06 -39.72,0 -0.42,-0.06 c -3.71,-0.039 -7.006,-3.16 -7.32,-6.84 l -0.06,-0.36 0,-40.26 c 0.008,-1.242 0.23,-2.528 0.9,-3.6 l 0.36,-0.66 0.42,-0.6 c 1.138,-1.335 2.665,-2.442 4.44,-2.7 L -1.26,4.56 -0.84,4.5 0,4.5"
         style="fill:#336699;fill-opacity:1;fill-rule:nonzero;stroke:none"
         id="path7068" />
    </g>
    <g
       id="g7070"
       transform="matrix(0,1.25,1.25,0,352.225,686.95504)">
      <path
         inkscape:connector-curvature="0"
         d="M 0,0 -0.54,0 -1.2,0.06 -1.8,0.12 c -5.906,0.9 -10.406,6.096 -10.38,12.06 l 0,40.44 c 0.369,6.134 4.837,10.783 10.92,11.58 l 0.6,0 0.6,0.06 40.5,0 c 6.108,-0.391 10.788,-4.836 11.58,-10.92 l 0,-0.6 0.06,-0.66 0,-39.9 C 52.084,9.95 51.604,8.501 50.64,6.48 L 50.04,5.46 49.38,4.56 C 47.134,2.057 45.591,1.102 42.36,0.24 L 41.76,0.12 40.56,0 39.9,0 0,0 z m 39.84,4.5 0.78,0 0.36,0.06 c 3.806,0.604 6.564,3.762 6.6,7.62 l 0,40.2 c -0.192,3.785 -3.108,6.964 -6.9,7.32 l -0.36,0.06 -40.62,0 c -3.824,-0.223 -6.951,-3.046 -7.32,-6.9 l -0.06,-0.36 0,-40.26 c -0.096,-0.992 0.349,-2.824 0.9,-3.6 L -6.42,7.98 -6,7.38 c 0.899,-1.255 2.93,-2.493 4.44,-2.7 L -1.2,4.62 -0.78,4.56 -0.42,4.5 0,4.5"
         style="fill:#336699;fill-opacity:1;fill-rule:nonzero;stroke:none"
         id="path7072" />
    </g>
    <g
       id="g7074"
       transform="matrix(0,1.25,1.25,0,157.225,510.70504)">
      <path
         inkscape:connector-curvature="0"
         d="m 0,0 -0.78,0.06 -0.96,0.12 -0.84,0.18 c -3.841,1.161 -6.577,4.657 -6.6,8.7 l 0,460.26 0.06,0.78 c 0.222,3.92 3.333,7.45 7.2,8.16 l 0.9,0.18 0.9,0.06 27.96,0 0.84,-0.06 c 3.946,-0.236 7.402,-3.333 8.16,-7.2 l 0.18,-0.9 0.06,-0.96 0,-460.2 C 36.95,7.3 36.857,6.623 36,4.92 L 35.58,4.14 35.04,3.42 C 34.114,2.342 32.909,1.28 31.56,0.78 L 30.72,0.42 29.82,0.18 28.92,0.06 27.96,0 0,0 z m 27.72,4.5 0.54,0 0.48,0.06 0.42,0.12 c 2.027,0.596 3.397,2.365 3.42,4.5 l 0,460.5 c -0.276,2.077 -1.568,3.717 -3.66,4.2 l -0.48,0.06 -0.6,0.06 -28.2,0 c -1.958,-0.169 -3.834,-1.673 -4.2,-3.66 l -0.06,-0.48 -0.06,-0.54 0,-460.5 0.06,-0.48 0.24,-0.84 0.24,-0.42 0.18,-0.42 0.3,-0.36 C -3.263,5.774 -2.564,5.108 -1.92,4.92 L -1.5,4.74 -1.02,4.62 -0.54,4.56 0,4.5"
         style="fill:#336699;fill-opacity:1;fill-rule:nonzero;stroke:none"
         id="path7076" />
    </g>
  </g>
</svg>
