<?xml version="1.0" encoding="UTF-8" standalone="no"?>
<!-- Created with Inkscape (http://www.inkscape.org/) -->

<svg
   xmlns:dc="http://purl.org/dc/elements/1.1/"
   xmlns:cc="http://creativecommons.org/ns#"
   xmlns:rdf="http://www.w3.org/1999/02/22-rdf-syntax-ns#"
   xmlns:svg="http://www.w3.org/2000/svg"
   xmlns="http://www.w3.org/2000/svg"
   xmlns:sodipodi="http://sodipodi.sourceforge.net/DTD/sodipodi-0.dtd"
   xmlns:inkscape="http://www.inkscape.org/namespaces/inkscape"
   width="586.86627"
   height="520.86499"
   id="svg2"
   version="1.1"
   inkscape:version="0.48.4 r9939"
   sodipodi:docname="New document 1">
  <defs
     id="defs4">
    <clipPath
       id="clipPath3005"
       clipPathUnits="userSpaceOnUse">
      <path
         id="path3007"
         d="m 0,841.98 595.2,0 L 595.2,0 0,0 0,841.98 z"
         inkscape:connector-curvature="0" />
    </clipPath>
    <clipPath
       id="clipPath2999"
       clipPathUnits="userSpaceOnUse">
      <path
         id="path3001"
         clip-rule="evenodd"
         d="m 567.48,61.011 -540,0 0,720 540,0 0,-720 z"
         inkscape:connector-curvature="0" />
    </clipPath>
  </defs>
  <sodipodi:namedview
     id="base"
     pagecolor="#ffffff"
     bordercolor="#666666"
     borderopacity="1.0"
     inkscape:pageopacity="0.0"
     inkscape:pageshadow="2"
     inkscape:zoom="0.98994949"
     inkscape:cx="315.41098"
     inkscape:cy="301.27354"
     inkscape:document-units="px"
     inkscape:current-layer="layer1"
     showgrid="false"
     fit-margin-top="10"
     fit-margin-left="10"
     fit-margin-right="10"
     fit-margin-bottom="10"
     inkscape:window-width="954"
     inkscape:window-height="1028"
     inkscape:window-x="0"
     inkscape:window-y="0"
     inkscape:window-maximized="0" />
  <metadata
     id="metadata7">
    <rdf:RDF>
      <cc:Work
         rdf:about="">
        <dc:format>image/svg+xml</dc:format>
        <dc:type
           rdf:resource="http://purl.org/dc/dcmitype/StillImage" />
        <dc:title></dc:title>
      </cc:Work>
    </rdf:RDF>
  </metadata>
  <g
     inkscape:label="Layer 1"
     inkscape:groupmode="layer"
     id="layer1"
     transform="translate(-82.20375,-303.69218)">
    <g
       id="g3021"
       transform="matrix(0,1.25,1.25,0,529.27375,619.28718)">
      <path
         inkscape:connector-curvature="0"
         d="M 0,0 0.3,39.54"
         style="fill:none;stroke:#9a9a9a;stroke-width:1.03199995;stroke-linecap:round;stroke-linejoin:round;stroke-miterlimit:10;stroke-opacity:1;stroke-dasharray:none"
         id="path3023" />
    </g>
    <g
       id="g3025"
       transform="matrix(0,1.25,1.25,0,535.425,371.78718)">
      <path
         inkscape:connector-curvature="0"
         d="m 0,0 17.28,0 0,98.4 147.42,0 0,-132.24 13.44,0"
         style="fill:none;stroke:#000000;stroke-width:1.03199995;stroke-linecap:round;stroke-linejoin:round;stroke-miterlimit:10;stroke-opacity:1;stroke-dasharray:none"
         id="path3027" />
      <g
         id="g3029"
         transform="translate(229.5,22.2)">
        <path
           inkscape:connector-curvature="0"
           d="m 0,0 0,2.1 -0.48,2.04 -0.78,1.8 c -1.714,4.106 -6.942,7.458 -11.4,7.02 l -27.84,0 C -46.54,11.7 -50.115,8.158 -51.36,2.1 l 0,-18.36 0.54,-2.04 c 1.683,-5.012 5.219,-7.77 10.32,-8.82 l 27.84,0 c 5.398,-0.393 10.555,3.671 12.18,8.82 l 0.48,2.04 0.3,2.1 0,14.16"
           style="fill:none;stroke:#000000;stroke-width:1.03199995;stroke-linecap:round;stroke-linejoin:round;stroke-miterlimit:10;stroke-opacity:1;stroke-dasharray:none"
           id="path3031" />
      </g>
    </g>
    <text
       id="text3033"
       x="459.59937"
       y="632.18719"
       style="font-size:15px">
      <tspan
         style="font-size:10.65087509px;font-variant:normal;font-weight:normal;font-stretch:normal;writing-mode:lr-tb;fill:#000000;fill-opacity:1;fill-rule:nonzero;stroke:none;font-family:Arial;-inkscape-font-specification:ArialMT"
         x="459.59937 467.32233 473.47107 482.47107 488.31946 490.86819 496.71661"
         y="632.18719"
         sodipodi:role="line"
         id="tspan3035">Complex</tspan>
    </text>
    <text
       id="text3037"
       x="463.80008"
       y="645.16211"
       style="font-size:15px">
      <tspan
         style="font-size:10.65087509px;font-variant:normal;font-weight:normal;font-stretch:normal;writing-mode:lr-tb;fill:#000000;fill-opacity:1;fill-rule:nonzero;stroke:none;font-family:Arial;-inkscape-font-specification:ArialMT"
         x="463.80008 466.06125 472.20999 475.06763 480.8862 487.03494 492.80881"
         y="645.16211"
         sodipodi:role="line"
         id="tspan3039">integer</tspan>
      <tspan
         style="font-size:10.65087509px;font-variant:normal;font-weight:normal;font-stretch:normal;writing-mode:lr-tb;fill:#eb7500;fill-opacity:1;fill-rule:nonzero;stroke:none;font-family:Arial;-inkscape-font-specification:ArialMT"
         x="467.02515 474.08456 477.00076 483.14951 486.67389"
         y="611.26245"
         sodipodi:role="line"
         id="tspan3041">Store</tspan>
      <tspan
         style="font-size:10.65087509px;font-variant:normal;font-weight:normal;font-stretch:normal;writing-mode:lr-tb;fill:#eb7500;fill-opacity:1;fill-rule:nonzero;stroke:none;font-family:Arial;-inkscape-font-specification:ArialMT"
         x="542.25018 548.3233 554.47205 560.32043"
         y="610.2879"
         sodipodi:role="line"
         id="tspan3043">Load</tspan>
      <tspan
         style="font-size:10.65087509px;font-variant:normal;font-weight:normal;font-stretch:normal;writing-mode:lr-tb;fill:#000000;fill-opacity:1;fill-rule:nonzero;stroke:none;font-family:Arial;-inkscape-font-specification:ArialMT"
         x="539.32544 545.09924 551.24805 557.09644 563.16956"
         y="632.18823"
         sodipodi:role="line"
         id="tspan3045">Load/</tspan>
    </text>
    <text
       id="text3047"
       x="541.27563"
       y="644.78821"
       style="font-size:15px">
      <tspan
         style="font-size:10.65087509px;font-variant:normal;font-weight:normal;font-stretch:normal;writing-mode:lr-tb;fill:#000000;fill-opacity:1;fill-rule:nonzero;stroke:none;font-family:Arial;-inkscape-font-specification:ArialMT"
         x="541.27563 546.75122 549.6781 555.75012 559.35016"
         y="644.78821"
         sodipodi:role="line"
         id="tspan3049">store</tspan>
      <tspan
         style="font-size:10.65087509px;font-variant:normal;font-weight:normal;font-stretch:normal;writing-mode:lr-tb;fill:#000000;fill-opacity:1;fill-rule:nonzero;stroke:none;font-family:Arial;-inkscape-font-specification:ArialMT"
         x="372.45071 379.19379 381.4422 387.59946 393.37329 396.30017 398.92349 404.6973"
         y="626.11298"
         sodipodi:role="line"
         id="tspan3051">Floating</tspan>
    </text>
    <text
       id="text3053"
       x="379.20016"
       y="638.63843"
       style="font-size:15px">
      <tspan
         style="font-size:10.65087509px;font-variant:normal;font-weight:normal;font-stretch:normal;writing-mode:lr-tb;fill:#000000;fill-opacity:1;fill-rule:nonzero;stroke:none;font-family:Arial;-inkscape-font-specification:ArialMT"
         x="379.20016 385.02728 391.1004 393.37012 399.51886"
         y="638.63843"
         sodipodi:role="line"
         id="tspan3055">point</tspan>
    </text>
    <g
       id="g3057"
       transform="matrix(0,1.25,1.25,0,399.825,661.58718)">
      <path
         inkscape:connector-curvature="0"
         d="m 0,0 0,2.1 -0.54,2.04 -0.78,1.8 -1.02,1.86 -1.26,1.26 -1.56,1.32 -1.8,1.26 -1.8,0.78 -2.1,0.24 -2.04,0.3 -25.86,0 -2.04,-0.3 -1.8,-0.24 -2.04,-0.78 -1.56,-1.26 -1.56,-1.32 -1.32,-1.26 -1.02,-1.86 -0.78,-1.8 -0.48,-2.04 -0.3,-2.1 0,-14.16 0.3,-2.34 0.48,-1.8 c 1.616,-4.695 5.175,-7.867 10.08,-8.76 l 27.9,0 c 5.592,-0.418 10.708,3.482 12.36,8.76 L 0,-16.5 0,0"
         style="fill:none;stroke:#000000;stroke-width:1.03199995;stroke-linecap:round;stroke-linejoin:round;stroke-miterlimit:10;stroke-opacity:1;stroke-dasharray:none"
         id="path3059" />
    </g>
    <text
       id="text3061"
       x="287.84937"
       y="631.58716"
       style="font-size:15px">
      <tspan
         style="font-size:10.65087509px;font-variant:normal;font-weight:normal;font-stretch:normal;writing-mode:lr-tb;fill:#000000;fill-opacity:1;fill-rule:nonzero;stroke:none;font-family:Arial;-inkscape-font-specification:ArialMT"
         x="287.84937 290.77625 296.55008 299.77728 305.62567 311.69882 317.54721"
         y="631.58716"
         sodipodi:role="line"
         id="tspan3063">Integer</tspan>
    </text>
    <g
       id="g3065"
       transform="matrix(0,1.25,1.25,0,313.35,660.31218)">
      <path
         inkscape:connector-curvature="0"
         d="m 0,0 0,2.34 -0.54,1.8 -0.78,2.04 c -2.358,4.395 -6.681,6.716 -11.58,6.96 l -25.86,0 -2.04,-0.24 C -46.136,12.183 -50.417,7.596 -51.42,2.34 l -0.24,-2.1 0,-14.46 0.24,-2.04 0.54,-2.1 c 1.417,-4.202 5.631,-7.893 10.08,-8.52 l 2.04,-0.24 25.86,0 c 5.616,0.365 10.418,3.326 12.36,8.76 l 0.54,2.1 0,16.5"
         style="fill:none;stroke:#000000;stroke-width:1.03199995;stroke-linecap:round;stroke-linejoin:round;stroke-miterlimit:10;stroke-opacity:1;stroke-dasharray:none"
         id="path3067" />
    </g>
    <text
       id="text3069"
       x="206.47437"
       y="631.58716"
       style="font-size:15px">
      <tspan
         style="font-size:10.65087509px;font-variant:normal;font-weight:normal;font-stretch:normal;writing-mode:lr-tb;fill:#000000;fill-opacity:1;fill-rule:nonzero;stroke:none;font-family:Arial;-inkscape-font-specification:ArialMT"
         x="206.47437 209.70158 215.54999 218.47684 224.54997 230.39836 236.54712"
         y="631.58716"
         sodipodi:role="line"
         id="tspan3071">Integer</tspan>
    </text>
    <g
       id="g3073"
       transform="matrix(0,1.25,1.25,0,231.975,660.31218)">
      <path
         inkscape:connector-curvature="0"
         d="m 0,0 0,2.34 -0.54,2.1 -0.78,1.8 c -2.56,4.479 -6.527,6.57 -11.58,6.96 l -25.86,0 -2.04,-0.24 C -45.98,12.222 -50.656,7.48 -51.42,2.34 l -0.24,-2.04 0,-14.46 0.24,-2.1 0.54,-2.04 c 1.431,-4.172 5.579,-8.037 10.08,-8.52 l 2.04,-0.3 25.86,0 c 5.913,0.56 10.197,3.132 12.36,8.82 L 0,-16.26 0,0.3"
         style="fill:none;stroke:#000000;stroke-width:1.03199995;stroke-linecap:round;stroke-linejoin:round;stroke-miterlimit:10;stroke-opacity:1;stroke-dasharray:none"
         id="path3075" />
    </g>
    <text
       id="text3077"
       x="125.77438"
       y="631.58716"
       style="font-size:15px">
      <tspan
         style="font-size:10.65087509px;font-variant:normal;font-weight:normal;font-stretch:normal;writing-mode:lr-tb;fill:#000000;fill-opacity:1;fill-rule:nonzero;stroke:none;font-family:Arial;-inkscape-font-specification:ArialMT"
         x="125.77438 132.87744 136.42313 142.57187 148.42027 153.89482"
         y="631.58716"
         sodipodi:role="line"
         id="tspan3079">Branch</tspan>
    </text>
    <g
       id="g3081"
       transform="matrix(0,1.25,1.25,0,151.275,660.31218)">
      <path
         inkscape:connector-curvature="0"
         d="m 0,0 0,2.1 -0.54,2.04 -0.78,1.8 c -1.894,4.263 -7.094,6.759 -11.58,7.02 l -25.86,0 -2.04,-0.3 C -46.109,11.898 -50.592,7.392 -51.42,2.1 l -0.24,-2.1 0,-14.46 0.24,-2.04 0.54,-1.8 c 1.027,-4.281 5.727,-8.258 10.08,-8.82 l 2.04,-0.24 25.86,0 c 5.511,0.298 10.845,3.53 12.36,9.06 L 0,-16.5 0,0"
         style="fill:none;stroke:#000000;stroke-width:1.03199995;stroke-linecap:round;stroke-linejoin:round;stroke-miterlimit:10;stroke-opacity:1;stroke-dasharray:none"
         id="path3083" />
      <g
         id="g3085"
         transform="translate(-78.78,2.1)">
        <path
           inkscape:connector-curvature="0"
           d="m 0,0 25.86,0.24 1.5,0"
           style="fill:none;stroke:#000000;stroke-width:1.03199995;stroke-linecap:round;stroke-linejoin:round;stroke-miterlimit:10;stroke-opacity:1;stroke-dasharray:none"
           id="path3087" />
        <g
           id="g3089"
           transform="translate(0,55.02)">
          <path
             inkscape:connector-curvature="0"
             d="m 0,0 25.86,0.24 1.5,0"
             style="fill:none;stroke:#000000;stroke-width:1.03199995;stroke-linecap:round;stroke-linejoin:round;stroke-miterlimit:10;stroke-opacity:1;stroke-dasharray:none"
             id="path3091" />
          <g
             id="g3093"
             transform="translate(0,66.06)">
            <path
               inkscape:connector-curvature="0"
               d="M 0,0 27.36,0"
               style="fill:none;stroke:#000000;stroke-width:1.03199995;stroke-linecap:round;stroke-linejoin:round;stroke-miterlimit:10;stroke-opacity:1;stroke-dasharray:none"
               id="path3095" />
            <g
               id="g3097"
               transform="translate(0.3,67.92)">
              <path
                 inkscape:connector-curvature="0"
                 d="M 0,0 27.36,0"
                 style="fill:none;stroke:#000000;stroke-width:1.03199995;stroke-linecap:round;stroke-linejoin:round;stroke-miterlimit:10;stroke-opacity:1;stroke-dasharray:none"
                 id="path3099" />
              <g
                 id="g3101"
                 transform="translate(-0.3,66.12)">
                <path
                   inkscape:connector-curvature="0"
                   d="M 0,0 25.86,0.3"
                   style="fill:none;stroke:#000000;stroke-width:1.03199995;stroke-linecap:round;stroke-linejoin:round;stroke-miterlimit:10;stroke-opacity:1;stroke-dasharray:none"
                   id="path3103" />
                <g
                   id="g3105"
                   transform="translate(0,59.64)">
                  <path
                     inkscape:connector-curvature="0"
                     d="M 0,0 25.86,0.3"
                     style="fill:none;stroke:#000000;stroke-width:1.03199995;stroke-linecap:round;stroke-linejoin:round;stroke-miterlimit:10;stroke-opacity:1;stroke-dasharray:none"
                     id="path3107" />
                  <g
                     id="g3109"
                     transform="translate(-49.8,-323.58)">
                    <path
                       inkscape:connector-curvature="0"
                       d="m 0,0 20.64,0.3 6.48,0"
                       style="fill:none;stroke:#000000;stroke-width:1.03199995;stroke-linecap:round;stroke-linejoin:round;stroke-miterlimit:10;stroke-opacity:1;stroke-dasharray:none"
                       id="path3111" />
                    <g
                       id="g3113"
                       transform="translate(0,63.84)">
                      <path
                         inkscape:connector-curvature="0"
                         d="M 0,0 25.56,0 22.2,0"
                         style="fill:none;stroke:#000000;stroke-width:1.03199995;stroke-linecap:round;stroke-linejoin:round;stroke-miterlimit:10;stroke-opacity:1;stroke-dasharray:none"
                         id="path3115" />
                    </g>
                  </g>
                </g>
              </g>
            </g>
          </g>
        </g>
      </g>
    </g>
    <g
       id="g3117"
       transform="matrix(0,1.25,1.25,0,252.975,340.13718)">
      <path
         inkscape:connector-curvature="0"
         d="M 0,0 4.62,0 2.34,4.38 0.24,0"
         style="fill:#000000;fill-opacity:1;fill-rule:nonzero;stroke:none"
         id="path3119" />
    </g>
    <g
       id="g3121"
       transform="matrix(0,1.25,1.25,0,178.125,358.51218)">
      <path
         inkscape:connector-curvature="0"
         d="M 0,0 20.16,0"
         style="fill:none;stroke:#000000;stroke-width:1.03199995;stroke-linecap:round;stroke-linejoin:round;stroke-miterlimit:10;stroke-opacity:1;stroke-dasharray:none"
         id="path3123" />
    </g>
    <g
       id="g3125"
       transform="matrix(0,1.25,1.25,0,175.2,359.18718)">
      <path
         inkscape:connector-curvature="0"
         d="M 0,0 0.24,4.38 -4.14,2.34 0.24,0.24"
         style="fill:#000000;fill-opacity:1;fill-rule:nonzero;stroke:none"
         id="path3127" />
    </g>
    <g
       id="g3129"
       transform="matrix(0,1.25,1.25,0,389.55,499.58718)">
      <path
         inkscape:connector-curvature="0"
         d="m 0,0 25.56,0.24 -3.36,0"
         style="fill:none;stroke:#000000;stroke-width:1.03199995;stroke-linecap:round;stroke-linejoin:round;stroke-miterlimit:10;stroke-opacity:1;stroke-dasharray:none"
         id="path3131" />
      <g
         id="g3133"
         transform="translate(212.46,27.36)">
        <path
           inkscape:connector-curvature="0"
           d="m 0,0 0.3,149.52 -212.76,0 0,-373.92"
           style="fill:none;stroke:#000000;stroke-width:1.03199995;stroke-linecap:round;stroke-linejoin:round;stroke-miterlimit:10;stroke-opacity:1;stroke-dasharray:none"
           id="path3135" />
      </g>
    </g>
    <text
       id="text3137"
       x="273.97437"
       y="449.56219"
       style="font-size:15px">
      <tspan
         style="font-size:10.65087509px;font-variant:normal;font-weight:normal;font-stretch:normal;writing-mode:lr-tb;fill:#000000;fill-opacity:1;fill-rule:nonzero;stroke:none;font-family:Arial;-inkscape-font-specification:ArialMT"
         x="273.97437 281.69733 287.84607 293.32169 299.17007 305.24216 311.09055 314.0174 320.09052 322.33893 327.8891 333.96115 339.80957 342.73642 348.21097 354.35971 357.21097 363.05936 369.2081 371.45651"
         y="449.56219"
         sodipodi:role="line"
         id="tspan3139">Decode/dispatch unit</tspan>
    </text>
    <g
       id="g3141"
       transform="matrix(0,1.25,1.25,0,396,460.51218)">
      <path
         inkscape:connector-curvature="0"
         d="m 0,0 -24.3,0 0,-115.44 24.54,0 0,115.44"
         style="fill:none;stroke:#000000;stroke-width:1.03199995;stroke-linecap:round;stroke-linejoin:round;stroke-miterlimit:10;stroke-opacity:1;stroke-dasharray:none"
         id="path3143" />
      <g
         id="g3145"
         transform="translate(-35.64,-5.7)">
        <path
           inkscape:connector-curvature="0"
           d="m 0,0 -24.24,0 0,-103.8 24.24,0 L 0,0 z"
           style="fill:none;stroke:#000000;stroke-width:1.03199995;stroke-linecap:round;stroke-linejoin:round;stroke-miterlimit:10;stroke-opacity:1;stroke-dasharray:none"
           id="path3147" />
      </g>
    </g>
    <text
       id="text3149"
       x="281.09937"
       y="405.01218"
       style="font-size:15px">
      <tspan
         style="font-size:10.65087509px;font-variant:normal;font-weight:normal;font-stretch:normal;writing-mode:lr-tb;fill:#000000;fill-opacity:1;fill-rule:nonzero;stroke:none;font-family:Arial;-inkscape-font-specification:ArialMT"
         x="281.09937 284.3266 290.10043 295.57498 298.50183 302.40219 308.47531 314.02548 316.87778 319.10489 325.25363 331.10202 334.32925 340.11374 346.26248 352.04697 358.19574"
         y="405.01218"
         sodipodi:role="line"
         id="tspan3151">Instruction queue</tspan>
    </text>
    <g
       id="g3153"
       transform="matrix(0,1.25,1.25,0,637.425,437.93718)">
      <path
         inkscape:connector-curvature="0"
         d="m 0,0 -24.3,0.3 0,-70.26 24.54,0 0,70.26"
         style="fill:none;stroke:#000000;stroke-width:1.03199995;stroke-linecap:round;stroke-linejoin:round;stroke-miterlimit:10;stroke-opacity:1;stroke-dasharray:none"
         id="path3155" />
    </g>
    <text
       id="text3157"
       x="563.84937"
       y="427.28717"
       style="font-size:15px">
      <tspan
         style="font-size:10.65087509px;font-variant:normal;font-weight:normal;font-stretch:normal;writing-mode:lr-tb;fill:#000000;fill-opacity:1;fill-rule:nonzero;stroke:none;font-family:Arial;-inkscape-font-specification:ArialMT"
         x="563.84937 571.57233 577.72107 583.56946 585.81787 591.29242 594.2193 600.29242 603.8924 606.74469 609.67157 612.29486 614.54327"
         y="427.28717"
         sodipodi:role="line"
         id="tspan3159">Register file</tspan>
      <tspan
         style="font-size:10.65087509px;font-variant:normal;font-weight:normal;font-stretch:normal;writing-mode:lr-tb;fill:#000000;fill-opacity:1;fill-rule:nonzero;stroke:none;font-family:Arial;-inkscape-font-specification:ArialMT"
         x="297.82458 300.75146 306.90021 312.07547 315.00232 319.12741 324.97583 330.45038 333.37723 335.92599 341.77438"
         y="339.46219"
         sodipodi:role="line"
         id="tspan3161">Instruction</tspan>
    </text>
    <text
       id="text3163"
       x="308.84933"
       y="352.36252"
       style="font-size:15px">
      <tspan
         style="font-size:10.65087509px;font-variant:normal;font-weight:normal;font-stretch:normal;writing-mode:lr-tb;fill:#000000;fill-opacity:1;fill-rule:nonzero;stroke:none;font-family:Arial;-inkscape-font-specification:ArialMT"
         x="308.84933 314.32388 320.47263 325.64789 331.72101"
         y="352.36252"
         sodipodi:role="line"
         id="tspan3165">cache</tspan>
    </text>
    <g
       id="g3167"
       transform="matrix(0,1.25,1.25,0,386.925,371.41218)">
      <path
         inkscape:connector-curvature="0"
         d="m 0,0 -45.66,0 0,-102.48 45.96,0 L 0.3,0"
         style="fill:none;stroke:#000000;stroke-width:1.03199995;stroke-linecap:round;stroke-linejoin:round;stroke-miterlimit:10;stroke-opacity:1;stroke-dasharray:none"
         id="path3169" />
    </g>
    <g
       id="g3171"
       transform="matrix(0,1.25,1.25,0,329.475,424.06218)">
      <path
         inkscape:connector-curvature="0"
         d="M 0,0 0.24,-4.14 4.38,-1.8 0.24,0.24"
         style="fill:#000000;fill-opacity:1;fill-rule:nonzero;stroke:none"
         id="path3173" />
    </g>
    <g
       id="g3175"
       transform="matrix(0,1.25,1.25,0,326.925,426.01218)">
      <path
         inkscape:connector-curvature="0"
         d="M 0,0 -8.04,0.24"
         style="fill:none;stroke:#000000;stroke-width:0.51599997;stroke-linecap:round;stroke-linejoin:round;stroke-miterlimit:10;stroke-opacity:1;stroke-dasharray:none"
         id="path3177" />
    </g>
    <g
       id="g3179"
       transform="matrix(0,1.25,1.25,0,329.475,476.93718)">
      <path
         inkscape:connector-curvature="0"
         d="M 0,0 0,-4.14 4.44,-2.04 0,0.24"
         style="fill:#000000;fill-opacity:1;fill-rule:nonzero;stroke:none"
         id="path3181" />
    </g>
    <g
       id="g3183"
       transform="matrix(0,1.25,1.25,0,326.925,480.16218)">
      <path
         inkscape:connector-curvature="0"
         d="M 0,0 -14.7,0"
         style="fill:none;stroke:#000000;stroke-width:0.51599997;stroke-linecap:round;stroke-linejoin:round;stroke-miterlimit:10;stroke-opacity:1;stroke-dasharray:none"
         id="path3185" />
    </g>
    <g
       id="g3187"
       transform="matrix(0,1.25,1.25,0,228.45,531.83718)">
      <path
         inkscape:connector-curvature="0"
         d="M 0,0 -38.46,0"
         style="fill:#000000;fill-opacity:1;fill-rule:nonzero;stroke:none"
         id="path3189" />
    </g>
    <g
       id="g3191"
       transform="matrix(0,1.25,1.25,0,228.45,531.83718)">
      <path
         inkscape:connector-curvature="0"
         d="M 0,0 -38.46,0"
         style="fill:none;stroke:#000000;stroke-width:1.03199995;stroke-linecap:round;stroke-linejoin:round;stroke-miterlimit:10;stroke-opacity:1;stroke-dasharray:none"
         id="path3193" />
      <g
         id="g3195"
         transform="translate(-25.8,61.44)">
        <path
           inkscape:connector-curvature="0"
           d="m 0,0 25.56,0.3 -3.36,0"
           style="fill:none;stroke:#000000;stroke-width:1.03199995;stroke-linecap:round;stroke-linejoin:round;stroke-miterlimit:10;stroke-opacity:1;stroke-dasharray:none"
           id="path3197" />
      </g>
    </g>
    <g
       id="g3199"
       transform="matrix(0,1.25,1.25,0,311.4,531.53718)">
      <path
         inkscape:connector-curvature="0"
         d="M 0,0 -38.46,0"
         style="fill:#000000;fill-opacity:1;fill-rule:nonzero;stroke:none"
         id="path3201" />
    </g>
    <g
       id="g3203"
       transform="matrix(0,1.25,1.25,0,311.4,531.53718)">
      <path
         inkscape:connector-curvature="0"
         d="M 0,0 -38.46,0"
         style="fill:none;stroke:#000000;stroke-width:1.03199995;stroke-linecap:round;stroke-linejoin:round;stroke-miterlimit:10;stroke-opacity:1;stroke-dasharray:none"
         id="path3205" />
    </g>
    <g
       id="g3207"
       transform="matrix(0,1.25,1.25,0,395.7,531.53718)">
      <path
         inkscape:connector-curvature="0"
         d="M 0,0 -38.76,0"
         style="fill:#000000;fill-opacity:1;fill-rule:nonzero;stroke:none"
         id="path3209" />
    </g>
    <g
       id="g3211"
       transform="matrix(0,1.25,1.25,0,395.7,531.53718)">
      <path
         inkscape:connector-curvature="0"
         d="M 0,0 -38.76,0"
         style="fill:none;stroke:#000000;stroke-width:1.03199995;stroke-linecap:round;stroke-linejoin:round;stroke-miterlimit:10;stroke-opacity:1;stroke-dasharray:none"
         id="path3213" />
      <g
         id="g3215"
         transform="translate(-25.56,62.22)">
        <path
           inkscape:connector-curvature="0"
           d="M 0,0 25.56,0 22.2,0"
           style="fill:none;stroke:#000000;stroke-width:1.03199995;stroke-linecap:round;stroke-linejoin:round;stroke-miterlimit:10;stroke-opacity:1;stroke-dasharray:none"
           id="path3217" />
      </g>
    </g>
    <g
       id="g3219"
       transform="matrix(0,1.25,1.25,0,479.625,531.16218)">
      <path
         inkscape:connector-curvature="0"
         d="M 0,0 -38.46,0"
         style="fill:#000000;fill-opacity:1;fill-rule:nonzero;stroke:none"
         id="path3221" />
    </g>
    <g
       id="g3223"
       transform="matrix(0,1.25,1.25,0,479.625,531.16218)">
      <path
         inkscape:connector-curvature="0"
         d="M 0,0 -38.46,0"
         style="fill:none;stroke:#000000;stroke-width:1.03199995;stroke-linecap:round;stroke-linejoin:round;stroke-miterlimit:10;stroke-opacity:1;stroke-dasharray:none"
         id="path3225" />
      <g
         id="g3227"
         transform="translate(-25.26,55.26)">
        <path
           inkscape:connector-curvature="0"
           d="m 0,0 25.56,0.24 -3.36,0"
           style="fill:none;stroke:#000000;stroke-width:1.03199995;stroke-linecap:round;stroke-linejoin:round;stroke-miterlimit:10;stroke-opacity:1;stroke-dasharray:none"
           id="path3229" />
        <g
           id="g3231"
           transform="translate(25.26,4.86)">
          <path
             inkscape:connector-curvature="0"
             d="m 0,0 -38.46,0.3 0,-324.36 38.76,0"
             style="fill:none;stroke:#000000;stroke-width:1.03199995;stroke-linecap:round;stroke-linejoin:round;stroke-miterlimit:10;stroke-opacity:1;stroke-dasharray:none"
             id="path3233" />
        </g>
      </g>
    </g>
    <g
       id="g3235"
       transform="matrix(0,1.25,1.25,0,329.475,379.21218)">
      <path
         inkscape:connector-curvature="0"
         d="m 0,0 0.24,-4.14 4.14,2.1 -4.14,2.28"
         style="fill:#000000;fill-opacity:1;fill-rule:nonzero;stroke:none"
         id="path3237" />
    </g>
    <g
       id="g3239"
       transform="matrix(0,1.25,1.25,0,326.925,382.43718)">
      <path
         inkscape:connector-curvature="0"
         d="M 0,0 -8.52,0"
         style="fill:none;stroke:#000000;stroke-width:0.51599997;stroke-linecap:round;stroke-linejoin:round;stroke-miterlimit:10;stroke-opacity:1;stroke-dasharray:none"
         id="path3241" />
    </g>
    <text
       id="text3243"
       x="523.49939"
       y="337.88718"
       style="font-size:15px">
      <tspan
         style="font-size:10.65087509px;font-variant:normal;font-weight:normal;font-stretch:normal;writing-mode:lr-tb;fill:#000000;fill-opacity:1;fill-rule:nonzero;stroke:none;font-family:Arial;-inkscape-font-specification:ArialMT"
         x="523.49939 531.22235 537.07074 540.29791"
         y="337.88718"
         sodipodi:role="line"
         id="tspan3245">Data</tspan>
    </text>
    <text
       id="text3247"
       x="520.57361"
       y="350.48718"
       style="font-size:15px">
      <tspan
         style="font-size:10.65087509px;font-variant:normal;font-weight:normal;font-stretch:normal;writing-mode:lr-tb;fill:#000000;fill-opacity:1;fill-rule:nonzero;stroke:none;font-family:Arial;-inkscape-font-specification:ArialMT"
         x="520.57361 526.04816 531.89655 537.37109 543.51984"
         y="350.48718"
         sodipodi:role="line"
         id="tspan3249">cache</tspan>
    </text>
    <path
       inkscape:connector-curvature="0"
       d="m 599.99875,371.78718 0,-57.15 -128.175,0 0,57.15 128.175,0 z"
       style="fill:none;stroke:#000000;stroke-width:1.28999996;stroke-linecap:round;stroke-linejoin:round;stroke-miterlimit:10;stroke-opacity:1;stroke-dasharray:none"
       id="path3251" />
    <text
       id="text3253"
       x="173.24937"
       y="346.58719"
       style="font-size:15px">
      <tspan
         style="font-size:10.65087509px;font-variant:normal;font-weight:normal;font-stretch:normal;writing-mode:lr-tb;fill:#000000;fill-opacity:1;fill-rule:nonzero;stroke:none;font-family:Arial;-inkscape-font-specification:ArialMT"
         x="173.24937 180.37482"
         y="346.58719"
         sodipodi:role="line"
         id="tspan3255">PC</tspan>
      <tspan
         style="font-size:10.65087509px;font-variant:normal;font-weight:normal;font-stretch:normal;writing-mode:lr-tb;fill:#000000;fill-opacity:1;fill-rule:nonzero;stroke:none;font-family:Arial;-inkscape-font-specification:ArialMT"
         x="160.6494 168.07413 171.5985 177.44688 183.59564 188.7709"
         y="401.41257"
         sodipodi:role="line"
         id="tspan3257">Branch</tspan>
    </text>
    <text
       id="text3259"
       x="153.89993"
       y="414.38745"
       style="font-size:15px">
      <tspan
         style="font-size:10.65087509px;font-variant:normal;font-weight:normal;font-stretch:normal;writing-mode:lr-tb;fill:#000000;fill-opacity:1;fill-rule:nonzero;stroke:none;font-family:Arial;-inkscape-font-specification:ArialMT"
         x="153.89993 160.06679 163.59116 169.75801 175.53186 178.14133 183.24097 186.44687 188.76984 194.84296"
         y="414.38745"
         sodipodi:role="line"
         id="tspan3261">prediction</tspan>
    </text>
    <g
       id="g3263"
       transform="matrix(0,1.25,1.25,0,217.5,427.58718)">
      <path
         inkscape:connector-curvature="0"
         d="m 0,0 -35.1,0 0,-65.88 35.1,0 L 0,0 z"
         style="fill:none;stroke:#000000;stroke-width:1.03199995;stroke-linecap:round;stroke-linejoin:round;stroke-miterlimit:10;stroke-opacity:1;stroke-dasharray:none"
         id="path3265" />
      <g
         id="g3267"
         transform="translate(-59.64,-9.3)">
        <path
           inkscape:connector-curvature="0"
           d="m 0,0 -17.82,0.24 0,-42.6 18.06,0 0,42.6"
           style="fill:none;stroke:#000000;stroke-width:1.03199995;stroke-linecap:round;stroke-linejoin:round;stroke-miterlimit:10;stroke-opacity:1;stroke-dasharray:none"
           id="path3269" />
        <g
           id="g3271"
           transform="translate(-7.98,38.7)">
          <path
             inkscape:connector-curvature="0"
             d="M 0,0 0.24,-38.46"
             style="fill:none;stroke:#000000;stroke-width:1.03199995;stroke-linecap:round;stroke-linejoin:round;stroke-miterlimit:10;stroke-opacity:1;stroke-dasharray:none"
             id="path3273" />
        </g>
      </g>
    </g>
    <text
       id="text3275"
       x="374.32437"
       y="761.63721"
       style="font-size:15px">
      <tspan
         style="font-size:10.65087509px;font-variant:normal;font-weight:normal;font-stretch:normal;writing-mode:lr-tb;fill:#000000;fill-opacity:1;fill-rule:nonzero;stroke:none;font-family:Arial;-inkscape-font-specification:ArialMT"
         x="374.32437 382.14426 388.293 394.06683 397.96719 404.01901 409.8674"
         y="761.63721"
         sodipodi:role="line"
         id="tspan3277">Reorder</tspan>
    </text>
    <text
       id="text3279"
       x="378.89893"
       y="774.53754"
       style="font-size:15px">
      <tspan
         style="font-size:10.65087509px;font-variant:normal;font-weight:normal;font-stretch:normal;writing-mode:lr-tb;fill:#000000;fill-opacity:1;fill-rule:nonzero;stroke:none;font-family:Arial;-inkscape-font-specification:ArialMT"
         x="378.89893 385.04767 390.82153 394.72293 397.57419 403.72293"
         y="774.53754"
         sodipodi:role="line"
         id="tspan3281">buffer</tspan>
    </text>
    <path
       inkscape:connector-curvature="0"
       d="m 423.45,799.43718 0,-67.2 -61.65,0 0,67.2 61.65,0 z"
       style="fill:none;stroke:#000000;stroke-width:1.28999996;stroke-linecap:round;stroke-linejoin:round;stroke-miterlimit:10;stroke-opacity:1;stroke-dasharray:none"
       id="path3283" />
    <text
       id="text3285"
       x="371.47437"
       y="699.01221"
       style="font-size:15px">
      <tspan
         style="font-size:10.65087509px;font-variant:normal;font-weight:normal;font-stretch:normal;writing-mode:lr-tb;fill:#000000;fill-opacity:1;fill-rule:nonzero;stroke:none;font-family:Arial;-inkscape-font-specification:ArialMT"
         x="371.47437 379.19733 385.34607 394.04572 403.12024 405.36865"
         y="699.01221"
         sodipodi:role="line"
         id="tspan3287">Commit</tspan>
    </text>
    <text
       id="text3289"
       x="380.84927"
       y="711.91254"
       style="font-size:15px">
      <tspan
         style="font-size:10.65087509px;font-variant:normal;font-weight:normal;font-stretch:normal;writing-mode:lr-tb;fill:#000000;fill-opacity:1;fill-rule:nonzero;stroke:none;font-family:Arial;-inkscape-font-specification:ArialMT"
         x="380.84927 386.6391 392.78784 395.02026"
         y="711.91254"
         sodipodi:role="line"
         id="tspan3291">unit</tspan>
    </text>
    <path
       inkscape:connector-curvature="0"
       d="m 441.15,813.91218 0,-132.6 -102.975,0 0,132.6 102.975,0 z"
       style="fill:none;stroke:#000000;stroke-width:1.28999996;stroke-linecap:round;stroke-linejoin:round;stroke-miterlimit:10;stroke-opacity:1;stroke-dasharray:none"
       id="path3293" />
    <g
       id="g3295"
       transform="matrix(0,1.25,1.25,0,451.2,619.28718)">
      <path
         inkscape:connector-curvature="0"
         d="M 0,0 0.3,46.2"
         style="fill:none;stroke:#9a9a9a;stroke-width:1.03199995;stroke-linecap:round;stroke-linejoin:round;stroke-miterlimit:10;stroke-opacity:1;stroke-dasharray:none"
         id="path3297" />
    </g>
    <g
       id="g3299"
       transform="matrix(0,1.25,1.25,0,593.24875,499.88718)">
      <path
         inkscape:connector-curvature="0"
         d="M 0,0 -49.32,0"
         style="fill:none;stroke:#000000;stroke-width:1.03199995;stroke-linecap:round;stroke-linejoin:round;stroke-miterlimit:10;stroke-opacity:1;stroke-dasharray:none"
         id="path3301" />
    </g>
    <g
       id="g3303"
       transform="matrix(0,1.25,1.25,0,183.225,562.21218)">
      <path
         inkscape:connector-curvature="0"
         d="m 0,0 -24.3,0 0,-62.46 24.54,0 0,62.46"
         style="fill:#ffffff;fill-opacity:1;fill-rule:nonzero;stroke:none"
         id="path3305" />
    </g>
    <g
       id="g3307"
       transform="matrix(0,1.25,1.25,0,183.225,562.21218)">
      <path
         inkscape:connector-curvature="0"
         d="m 0,0 -24.3,0 0,-62.46 24.54,0 0,62.46"
         style="fill:none;stroke:#000000;stroke-width:1.03199995;stroke-linecap:round;stroke-linejoin:round;stroke-miterlimit:10;stroke-opacity:1;stroke-dasharray:none"
         id="path3309" />
    </g>
    <text
       id="text3311"
       x="115.79938"
       y="543.76221"
       style="font-size:15px">
      <tspan
         style="font-size:10.65087509px;font-variant:normal;font-weight:normal;font-stretch:normal;writing-mode:lr-tb;fill:#000000;fill-opacity:1;fill-rule:nonzero;stroke:none;font-family:Arial;-inkscape-font-specification:ArialMT"
         x="115.79938 123.52233 129.67108 134.84634 140.99509 145.49509 150.96964 156.74347 159.67033 162.29364 168.06749"
         y="543.76221"
         sodipodi:role="line"
         id="tspan3313">Reservation</tspan>
    </text>
    <text
       id="text3315"
       x="127.72516"
       y="556.66254"
       style="font-size:15px">
      <tspan
         style="font-size:10.65087509px;font-variant:normal;font-weight:normal;font-stretch:normal;writing-mode:lr-tb;fill:#000000;fill-opacity:1;fill-rule:nonzero;stroke:none;font-family:Arial;-inkscape-font-specification:ArialMT"
         x="127.72516 133.19971 136.12657 142.27531 145.20218 147.45058 153.52371"
         y="556.66254"
         sodipodi:role="line"
         id="tspan3317">station</tspan>
    </text>
    <g
       id="g3319"
       transform="matrix(0,1.25,1.25,0,265.575,562.21218)">
      <path
         inkscape:connector-curvature="0"
         d="m 0,0 -24.3,0 0,-62.52 24.54,0 0,62.52"
         style="fill:#ffffff;fill-opacity:1;fill-rule:nonzero;stroke:none"
         id="path3321" />
    </g>
    <g
       id="g3323"
       transform="matrix(0,1.25,1.25,0,265.575,562.21218)">
      <path
         inkscape:connector-curvature="0"
         d="m 0,0 -24.3,0 0,-62.52 24.54,0 0,62.52"
         style="fill:none;stroke:#000000;stroke-width:1.03199995;stroke-linecap:round;stroke-linejoin:round;stroke-miterlimit:10;stroke-opacity:1;stroke-dasharray:none"
         id="path3325" />
    </g>
    <text
       id="text3327"
       x="198.07437"
       y="543.76221"
       style="font-size:15px">
      <tspan
         style="font-size:10.65087509px;font-variant:normal;font-weight:normal;font-stretch:normal;writing-mode:lr-tb;fill:#000000;fill-opacity:1;fill-rule:nonzero;stroke:none;font-family:Arial;-inkscape-font-specification:ArialMT"
         x="198.07437 205.89424 211.94608 217.12132 223.27008 227.77008 233.32025 239.09409 242.02095 244.56863 250.41702"
         y="543.76221"
         sodipodi:role="line"
         id="tspan3329">Reservation</tspan>
    </text>
    <text
       id="text3331"
       x="210.07471"
       y="556.66254"
       style="font-size:15px">
      <tspan
         style="font-size:10.65087509px;font-variant:normal;font-weight:normal;font-stretch:normal;writing-mode:lr-tb;fill:#000000;fill-opacity:1;fill-rule:nonzero;stroke:none;font-family:Arial;-inkscape-font-specification:ArialMT"
         x="210.07471 215.55032 218.47719 224.54926 227.4761 229.7245 235.87326"
         y="556.66254"
         sodipodi:role="line"
         id="tspan3333">station</tspan>
    </text>
    <g
       id="g3335"
       transform="matrix(0,1.25,1.25,0,347.925,562.21218)">
      <path
         inkscape:connector-curvature="0"
         d="m 0,0 -24.3,0 0,-62.52 24.54,0 0,62.52"
         style="fill:#ffffff;fill-opacity:1;fill-rule:nonzero;stroke:none"
         id="path3337" />
    </g>
    <g
       id="g3339"
       transform="matrix(0,1.25,1.25,0,347.925,562.21218)">
      <path
         inkscape:connector-curvature="0"
         d="m 0,0 -24.3,0 0,-62.52 24.54,0 0,62.52"
         style="fill:none;stroke:#000000;stroke-width:1.03199995;stroke-linecap:round;stroke-linejoin:round;stroke-miterlimit:10;stroke-opacity:1;stroke-dasharray:none"
         id="path3341" />
    </g>
    <text
       id="text3343"
       x="280.42438"
       y="543.76221"
       style="font-size:15px">
      <tspan
         style="font-size:10.65087509px;font-variant:normal;font-weight:normal;font-stretch:normal;writing-mode:lr-tb;fill:#000000;fill-opacity:1;fill-rule:nonzero;stroke:none;font-family:Arial;-inkscape-font-specification:ArialMT"
         x="280.42438 288.14734 294.29608 299.47134 305.62009 310.12009 315.59464 321.44302 324.29535 326.91864 332.69247"
         y="543.76221"
         sodipodi:role="line"
         id="tspan3345">Reservation</tspan>
    </text>
    <text
       id="text3347"
       x="292.35016"
       y="556.66254"
       style="font-size:15px">
      <tspan
         style="font-size:10.65087509px;font-variant:normal;font-weight:normal;font-stretch:normal;writing-mode:lr-tb;fill:#000000;fill-opacity:1;fill-rule:nonzero;stroke:none;font-family:Arial;-inkscape-font-specification:ArialMT"
         x="292.35016 297.82471 300.75156 306.90033 309.82718 312.07559 318.22433"
         y="556.66254"
         sodipodi:role="line"
         id="tspan3349">station</tspan>
    </text>
    <g
       id="g3351"
       transform="matrix(0,1.25,1.25,0,430.2,562.21218)">
      <path
         inkscape:connector-curvature="0"
         d="m 0,0 -24.3,0 0,-62.52 24.54,0 0,62.52"
         style="fill:#ffffff;fill-opacity:1;fill-rule:nonzero;stroke:none"
         id="path3353" />
    </g>
    <g
       id="g3355"
       transform="matrix(0,1.25,1.25,0,430.2,562.21218)">
      <path
         inkscape:connector-curvature="0"
         d="m 0,0 -24.3,0 0,-62.52 24.54,0 0,62.52"
         style="fill:none;stroke:#000000;stroke-width:1.03199995;stroke-linecap:round;stroke-linejoin:round;stroke-miterlimit:10;stroke-opacity:1;stroke-dasharray:none"
         id="path3357" />
    </g>
    <text
       id="text3359"
       x="362.77438"
       y="543.76221"
       style="font-size:15px">
      <tspan
         style="font-size:10.65087509px;font-variant:normal;font-weight:normal;font-stretch:normal;writing-mode:lr-tb;fill:#000000;fill-opacity:1;fill-rule:nonzero;stroke:none;font-family:Arial;-inkscape-font-specification:ArialMT"
         x="362.77438 370.49731 376.64609 381.74573 387.89447 392.39447 397.94464 403.71848 406.64532 409.19302 415.04141"
         y="543.76221"
         sodipodi:role="line"
         id="tspan3361">Reservation</tspan>
    </text>
    <text
       id="text3363"
       x="374.70016"
       y="556.66254"
       style="font-size:15px">
      <tspan
         style="font-size:10.65087509px;font-variant:normal;font-weight:normal;font-stretch:normal;writing-mode:lr-tb;fill:#000000;fill-opacity:1;fill-rule:nonzero;stroke:none;font-family:Arial;-inkscape-font-specification:ArialMT"
         x="374.70016 380.17578 383.10263 389.17471 392.10156 394.34995 400.49872"
         y="556.66254"
         sodipodi:role="line"
         id="tspan3365">station</tspan>
    </text>
    <g
       id="g3367"
       transform="matrix(0,1.25,1.25,0,512.54875,562.21218)">
      <path
         inkscape:connector-curvature="0"
         d="m 0,0 -24.3,0 0,-62.52 24.54,0 0,62.52"
         style="fill:#ffffff;fill-opacity:1;fill-rule:nonzero;stroke:none"
         id="path3369" />
    </g>
    <g
       id="g3371"
       transform="matrix(0,1.25,1.25,0,512.54875,562.21218)">
      <path
         inkscape:connector-curvature="0"
         d="m 0,0 -24.3,0 0,-62.52 24.54,0 0,62.52"
         style="fill:none;stroke:#000000;stroke-width:1.03199995;stroke-linecap:round;stroke-linejoin:round;stroke-miterlimit:10;stroke-opacity:1;stroke-dasharray:none"
         id="path3373" />
    </g>
    <text
       id="text3375"
       x="445.04938"
       y="543.76221"
       style="font-size:15px">
      <tspan
         style="font-size:10.65087509px;font-variant:normal;font-weight:normal;font-stretch:normal;writing-mode:lr-tb;fill:#000000;fill-opacity:1;fill-rule:nonzero;stroke:none;font-family:Arial;-inkscape-font-specification:ArialMT"
         x="445.04938 452.77234 458.92108 464.09634 470.24509 474.74509 480.21964 486.06802 488.92035 491.54364 497.31747"
         y="543.76221"
         sodipodi:role="line"
         id="tspan3377">Reservation</tspan>
    </text>
    <text
       id="text3379"
       x="456.97516"
       y="556.66254"
       style="font-size:15px">
      <tspan
         style="font-size:10.65087509px;font-variant:normal;font-weight:normal;font-stretch:normal;writing-mode:lr-tb;fill:#000000;fill-opacity:1;fill-rule:nonzero;stroke:none;font-family:Arial;-inkscape-font-specification:ArialMT"
         x="456.97516 462.44971 465.37656 471.52533 474.45218 476.70059 482.84933"
         y="556.66254"
         sodipodi:role="line"
         id="tspan3381">station</tspan>
    </text>
    <g
       id="g3383"
       transform="matrix(0,1.25,1.25,0,594.82375,562.21218)">
      <path
         inkscape:connector-curvature="0"
         d="m 0,0 -24.3,0 0,-62.46 24.54,0 0,62.46"
         style="fill:#ffffff;fill-opacity:1;fill-rule:nonzero;stroke:none"
         id="path3385" />
    </g>
    <g
       id="g3387"
       transform="matrix(0,1.25,1.25,0,594.82375,562.21218)">
      <path
         inkscape:connector-curvature="0"
         d="m 0,0 -24.3,0 0,-62.46 24.54,0 0,62.46"
         style="fill:none;stroke:#000000;stroke-width:1.03199995;stroke-linecap:round;stroke-linejoin:round;stroke-miterlimit:10;stroke-opacity:1;stroke-dasharray:none"
         id="path3389" />
    </g>
    <text
       id="text3391"
       x="527.39935"
       y="543.76221"
       style="font-size:15px">
      <tspan
         style="font-size:10.65087509px;font-variant:normal;font-weight:normal;font-stretch:normal;writing-mode:lr-tb;fill:#000000;fill-opacity:1;fill-rule:nonzero;stroke:none;font-family:Arial;-inkscape-font-specification:ArialMT"
         x="527.39935 535.12231 541.27106 546.44635 552.51947 557.09399 562.56854 568.34241 571.26929 573.81696 579.66534"
         y="543.76221"
         sodipodi:role="line"
         id="tspan3393">Reservation</tspan>
    </text>
    <text
       id="text3395"
       x="539.32513"
       y="556.66254"
       style="font-size:15px">
      <tspan
         style="font-size:10.65087509px;font-variant:normal;font-weight:normal;font-stretch:normal;writing-mode:lr-tb;fill:#000000;fill-opacity:1;fill-rule:nonzero;stroke:none;font-family:Arial;-inkscape-font-specification:ArialMT"
         x="539.32513 544.79968 547.72656 553.87531 556.7276 558.97601 565.12476"
         y="556.66254"
         sodipodi:role="line"
         id="tspan3397">station</tspan>
    </text>
    <g
       id="g3399"
       transform="matrix(0,1.25,1.25,0,490.27375,658.66218)">
      <path
         inkscape:connector-curvature="0"
         d="m 0,0 0,2.58 -0.48,2.28 -0.78,2.1 c -2.696,5.018 -5.585,7.583 -11.4,7.98 l -25.8,0 -2.04,-0.24 C -46.453,13.879 -50.524,8.215 -51.36,2.58 l 0,-21.48 0.54,-2.28 c 1.356,-4.74 5.182,-9.136 10.32,-9.84 l 2.04,-0.24 25.8,0 2.1,0.24 1.8,0.54 2.04,0.78 1.56,1.26 1.56,1.56 1.32,1.8 1.02,1.8 0.78,2.1 0.48,2.28 0.3,2.58 0,16.32"
         style="fill:none;stroke:#000000;stroke-width:1.03199995;stroke-linecap:round;stroke-linejoin:round;stroke-miterlimit:10;stroke-opacity:1;stroke-dasharray:none"
         id="path3401" />
      <g
         id="g3403"
         transform="translate(-203.16,-289.02)">
        <path
           inkscape:connector-curvature="0"
           d="m 0,0 0,-28.92 213.48,0 0,202.74 7.02,0"
           style="fill:none;stroke:#000000;stroke-width:1.03199995;stroke-linecap:round;stroke-linejoin:round;stroke-miterlimit:10;stroke-opacity:1;stroke-dasharray:none"
           id="path3405" />
      </g>
    </g>
    <g
       id="g3407"
       transform="matrix(0,1.25,1.25,0,128.025,407.93718)">
      <path
         inkscape:connector-curvature="0"
         d="M 0,0 -2.58,4.92 -5.22,0.3 0.24,0.3"
         style="fill:#000000;fill-opacity:1;fill-rule:nonzero;stroke:none"
         id="path3409" />
    </g>
    <g
       id="g3411"
       transform="matrix(0,1.25,1.25,0,92.85,576.68718)">
      <path
         inkscape:connector-curvature="0"
         d="m 0,0 0.3,29.22 14.46,0"
         style="fill:none;stroke:#000000;stroke-width:1.03199995;stroke-linecap:round;stroke-linejoin:round;stroke-miterlimit:10;stroke-opacity:1;stroke-dasharray:none"
         id="path3413" />
      <g
         id="g3415"
         transform="translate(13.98,378.12)">
        <path
           inkscape:connector-curvature="0"
           d="M 0,0 -12.66,0.24"
           style="fill:none;stroke:#000000;stroke-width:1.03199995;stroke-linecap:round;stroke-linejoin:round;stroke-miterlimit:10;stroke-opacity:1;stroke-dasharray:none"
           id="path3417" />
        <g
           id="g3419"
           transform="translate(-88.86,-10.38)">
          <path
             inkscape:connector-curvature="0"
             d="m 0,0 0,64.86 150.78,0 0,-162.48 7.02,0"
             style="fill:none;stroke:#000000;stroke-width:1.03199995;stroke-linecap:round;stroke-linejoin:round;stroke-miterlimit:10;stroke-opacity:1;stroke-dasharray:none"
             id="path3421" />
        </g>
      </g>
    </g>
  </g>
</svg>
