<?xml version="1.0" encoding="UTF-8" standalone="no"?>
<!-- Created with Inkscape (http://www.inkscape.org/) -->

<svg
   xmlns:dc="http://purl.org/dc/elements/1.1/"
   xmlns:cc="http://creativecommons.org/ns#"
   xmlns:rdf="http://www.w3.org/1999/02/22-rdf-syntax-ns#"
   xmlns:svg="http://www.w3.org/2000/svg"
   xmlns="http://www.w3.org/2000/svg"
   xmlns:sodipodi="http://sodipodi.sourceforge.net/DTD/sodipodi-0.dtd"
   xmlns:inkscape="http://www.inkscape.org/namespaces/inkscape"
   width="562.09998"
   height="239.98866"
   id="svg3417"
   version="1.1"
   inkscape:version="0.48.4 r9939"
   sodipodi:docname="New document 4">
  <defs
     id="defs3419">
    <clipPath
       id="clipPath3445"
       clipPathUnits="userSpaceOnUse">
      <path
         id="path3447"
         d="m 0,841.98 595.2,0 L 595.2,0 0,0 0,841.98 z"
         inkscape:connector-curvature="0" />
    </clipPath>
    <clipPath
       id="clipPath3439"
       clipPathUnits="userSpaceOnUse">
      <path
         id="path3441"
         clip-rule="evenodd"
         d="m 588.84,0.11053 -582.72,0 0,841.86 582.72,0 0,-841.86 z"
         inkscape:connector-curvature="0" />
    </clipPath>
  </defs>
  <sodipodi:namedview
     id="base"
     pagecolor="#ffffff"
     bordercolor="#666666"
     borderopacity="1.0"
     inkscape:pageopacity="0.0"
     inkscape:pageshadow="2"
     inkscape:zoom="1"
     inkscape:cx="188.40067"
     inkscape:cy="141.57956"
     inkscape:document-units="px"
     inkscape:current-layer="layer1"
     showgrid="false"
     inkscape:window-width="954"
     inkscape:window-height="1028"
     inkscape:window-x="0"
     inkscape:window-y="0"
     inkscape:window-maximized="0"
     fit-margin-top="10"
     fit-margin-left="10"
     fit-margin-right="10"
     fit-margin-bottom="10" />
  <metadata
     id="metadata3422">
    <rdf:RDF>
      <cc:Work
         rdf:about="">
        <dc:format>image/svg+xml</dc:format>
        <dc:type
           rdf:resource="http://purl.org/dc/dcmitype/StillImage" />
        <dc:title></dc:title>
      </cc:Work>
    </rdf:RDF>
  </metadata>
  <g
     inkscape:label="Layer 1"
     inkscape:groupmode="layer"
     id="layer1"
     transform="translate(-69.92737,-316.30147)">
    <g
       id="g3493"
       transform="matrix(0,1.25,1.25,0,100.70237,371.97647)">
      <path
         inkscape:connector-curvature="0"
         d="m 0,0 c -8.88,0 -16.02,6.24 -16.02,13.92 0,7.68 7.14,13.86 16.02,13.86 8.88,0 16.08,-6.18 16.08,-13.86 C 16.08,6.24 8.88,0 0,0"
         style="fill:#00cc99;fill-opacity:1;fill-rule:evenodd;stroke:none"
         id="path3495" />
    </g>
    <g
       id="g3497"
       transform="matrix(0,1.25,1.25,0,100.25237,371.97647)">
      <path
         inkscape:connector-curvature="0"
         d="m 0,0 -0.84,0 -0.84,0.06 c -19.635,2.376 -19.636,26.022 0,28.44 l 0.84,0.06 0.84,0 C 20.034,28.011 22.768,3.71 2.52,0.12 L 0.84,0 0,0 z m 0.84,0.78 0.78,0.06 1.56,0.24 0,-0.06 0.78,0.18 c 1.287,0.345 3.083,0.861 4.2,1.56 L 8.82,3.12 8.76,3.06 9.42,3.48 10.02,3.9 9.96,3.84 l 0.6,0.48 0.54,0.42 0.54,0.48 0.48,0.48 0.48,0.54 -0.06,-0.06 0.48,0.6 0,-0.06 0.42,0.6 0,-0.06 0.72,1.2 0.3,0.6 0,-0.06 0.24,0.66 0.3,0.6 -0.06,0 0.24,0.66 c 0.282,0.989 0.546,2.334 0.48,3.36 l 0,0.72 0,-0.06 -0.06,0.72 -0.24,1.32 -0.18,0.66 -0.24,0.66 0.06,-0.06 -0.3,0.66 c -0.351,1.008 -1.003,2.057 -1.68,2.88 l -0.48,0.54 0.06,0 -0.48,0.54 0,-0.06 -0.48,0.54 -0.54,0.48 0,-0.06 -0.54,0.48 -0.6,0.42 0.06,0 -0.6,0.42 -0.66,0.36 0.06,0 -1.32,0.72 0,-0.06 -0.66,0.36 0,-0.06 -0.72,0.3 c -2.051,0.797 -4.716,1.183 -6.9,1.02 l -0.84,0 0.06,0 -0.84,-0.12 -0.78,-0.12 0.06,0 -0.78,-0.12 -0.78,-0.18 0.06,0 -0.78,-0.24 -0.72,-0.24 -0.66,-0.3 0,0.06 -0.72,-0.36 0.06,0.06 -0.72,-0.36 0.06,0 -0.66,-0.36 -0.6,-0.36 -1.2,-0.84 0.06,0 -0.6,-0.48 0,0.06 -1.02,-1.02 0.06,0.06 -0.96,-1.08 0.06,0 -0.84,-1.08 0.06,0 -0.36,-0.6 -0.6,-1.2 -0.24,-0.66 0,0.06 -0.24,-0.66 -0.18,-0.66 0.06,0 -0.18,-0.66 -0.06,-0.66 -0.06,-0.72 0,0.06 -0.06,-0.72 0.06,-0.72 0.12,-1.32 0.18,-0.66 -0.06,0 0.18,-0.66 0.24,-0.66 0.24,-0.6 0.3,-0.66 0,0.06 0.3,-0.6 0.36,-0.6 -0.06,0 0.42,-0.6 0,0.06 0.42,-0.6 -0.06,0.06 0.48,-0.6 0,0.06 0.48,-0.54 -0.06,0 0.54,-0.48 0.48,-0.48 0.6,-0.42 -0.06,0 0.6,-0.48 0,0.06 1.2,-0.84 0,0.06 0.66,-0.36 -0.06,0 0.72,-0.36 -0.06,0 0.72,-0.3 0.66,-0.24 0.72,-0.24 0.78,-0.24 -0.06,0 1.56,-0.36 -0.06,0.06 0.78,-0.12 0.84,-0.12 -0.06,0 0.84,-0.06 0.78,0"
         style="fill:#000000;fill-opacity:1;fill-rule:nonzero;stroke:none"
         id="path3499" />
    </g>
    <text
       id="text3501"
       x="107.82674"
       y="384.80145"
       style="font-size:15px">
      <tspan
         style="font-size:32.40000153px;font-variant:normal;font-weight:normal;font-stretch:normal;writing-mode:lr-tb;fill:#000000;fill-opacity:1;fill-rule:nonzero;stroke:none;font-family:Verdana;-inkscape-font-specification:Verdana"
         x="107.82674"
         y="384.80145"
         id="tspan3503">3</tspan>
    </text>
    <g
       id="g3505"
       transform="matrix(0,1.25,1.25,0,100.70237,452.90147)">
      <path
         inkscape:connector-curvature="0"
         d="m 0,0 c -8.82,0 -16.02,6.24 -16.02,13.92 0,7.68 7.2,13.86 16.02,13.86 8.88,0 16.08,-6.18 16.08,-13.86 C 16.08,6.24 8.88,0 0,0"
         style="fill:#00cc99;fill-opacity:1;fill-rule:evenodd;stroke:none"
         id="path3507" />
    </g>
    <g
       id="g3509"
       transform="matrix(0,1.25,1.25,0,100.25237,452.90147)">
      <path
         inkscape:connector-curvature="0"
         d="m 0,0 -0.84,0 -0.84,0.06 c -19.602,2.349 -19.609,26.046 0,28.44 l 0.84,0.06 0.84,0 C 20.054,27.997 22.778,3.72 2.52,0.12 L 0.84,0 0,0 z m 0.84,0.78 0.78,0.06 1.56,0.24 0,-0.06 0.78,0.18 c 1.287,0.345 3.083,0.861 4.2,1.56 l 0.66,0.36 0,-0.06 1.2,0.84 0,-0.06 0.54,0.48 0.54,0.42 0.54,0.48 0.48,0.48 0.48,0.54 0,-0.06 0.42,0.6 0,-0.06 0.42,0.6 0,-0.06 0.72,1.2 0.3,0.6 0,-0.06 0.3,0.66 -0.06,0 0.3,0.6 c 0.36,1.253 0.733,2.709 0.66,4.02 l 0,0.72 0,-0.06 -0.06,0.72 -0.24,1.32 -0.18,0.66 -0.18,0.66 0,-0.06 -0.3,0.66 0.06,0 -0.3,0.6 c -0.49,1.086 -1.127,1.9 -1.86,2.82 l -0.48,0.54 0,-0.06 -0.48,0.54 -0.54,0.48 0,-0.06 -0.54,0.48 -0.54,0.42 -0.6,0.42 -0.6,0.36 -1.32,0.72 0,-0.06 -0.66,0.36 0,-0.06 -0.72,0.3 c -2.051,0.797 -4.716,1.183 -6.9,1.02 l -0.84,0 0.06,0 -0.84,-0.12 0.06,0 -0.84,-0.12 0.06,0 -0.78,-0.12 -0.78,-0.18 0.06,0 -0.78,-0.24 -0.72,-0.24 0.06,0 -0.72,-0.3 0,0.06 -0.66,-0.36 0,0.06 -1.32,-0.72 -0.6,-0.36 -1.2,-0.84 0.06,0 -0.6,-0.48 0.06,0.06 -0.54,-0.48 -0.48,-0.54 0,0.06 -0.48,-0.54 c -0.984,-1.195 -1.508,-2.014 -2.16,-3.42 l -0.24,-0.66 0,0.06 -0.54,-1.98 -0.06,-0.66 -0.06,-0.72 0,0.06 -0.06,-0.72 c 0.084,-1.743 0.318,-2.986 0.96,-4.62 l 0.3,-0.66 0,0.06 0.3,-0.6 0.72,-1.2 0,0.06 0.42,-0.6 0,0.06 0.42,-0.6 0,0.06 0.48,-0.54 0.48,-0.48 0.54,-0.48 -0.06,0 0.6,-0.42 -0.06,0 0.6,-0.48 0,0.06 1.2,-0.84 0,0.06 1.32,-0.72 0.66,-0.3 0.72,-0.24 -0.06,0 0.72,-0.24 0.78,-0.24 -0.06,0 1.56,-0.36 -0.06,0.06 0.84,-0.12 -0.06,0 0.84,-0.12 -0.06,0 0.84,-0.06 0.78,0"
         style="fill:#000000;fill-opacity:1;fill-rule:nonzero;stroke:none"
         id="path3511" />
    </g>
    <text
       id="text3513"
       x="107.82674"
       y="465.72647"
       style="font-size:15px">
      <tspan
         style="font-size:32.40000153px;font-variant:normal;font-weight:normal;font-stretch:normal;writing-mode:lr-tb;fill:#000000;fill-opacity:1;fill-rule:nonzero;stroke:none;font-family:Verdana;-inkscape-font-specification:Verdana"
         x="107.82674"
         y="465.72647"
         id="tspan3515">1</tspan>
    </text>
    <g
       id="g3517"
       transform="matrix(0,1.25,1.25,0,100.70237,525.80147)">
      <path
         inkscape:connector-curvature="0"
         d="m 0,0 c -8.88,0 -16.08,6.24 -16.08,13.92 0,7.68 7.2,13.86 16.08,13.86 8.82,0 16.02,-6.18 16.02,-13.86 C 16.02,6.24 8.82,0 0,0"
         style="fill:#00cc99;fill-opacity:1;fill-rule:evenodd;stroke:none"
         id="path3519" />
    </g>
    <g
       id="g3521"
       transform="matrix(0,1.25,1.25,0,100.25237,525.80147)">
      <path
         inkscape:connector-curvature="0"
         d="m 0,0 -0.84,0 -0.84,0.06 c -19.667,2.307 -19.666,26.091 0,28.44 l 0.84,0.06 0.84,0 C 20.043,27.968 22.685,3.665 2.46,0.12 L 1.68,0.06 0.84,0 0,0 z m 0.78,0.78 0.84,0.06 -0.06,0 0.84,0.12 -0.06,0 0.84,0.12 -0.06,-0.06 1.56,0.36 -0.06,0 0.78,0.24 -0.06,0 0.78,0.24 -0.06,0 0.72,0.24 0.66,0.3 1.32,0.72 0,-0.06 1.2,0.84 0,-0.06 0.54,0.48 0.6,0.42 -0.06,0 0.54,0.48 0.48,0.48 0.48,0.54 0,-0.06 0.42,0.6 0,-0.06 0.42,0.6 0,-0.06 0.72,1.2 0.3,0.6 0,-0.06 0.3,0.66 c 0.642,1.634 0.876,2.877 0.96,4.62 L 15.6,15 l 0,-0.06 -0.06,0.72 -0.06,0.66 -0.18,0.66 -0.18,0.66 -0.18,0.66 0,-0.06 -0.24,0.66 c -0.652,1.406 -1.177,2.225 -2.16,3.42 l -0.48,0.54 0,-0.06 -0.48,0.54 -0.54,0.48 0.06,-0.06 -0.6,0.48 -0.54,0.42 -0.6,0.42 -0.6,0.36 -1.32,0.72 0,-0.06 -0.66,0.36 0,-0.06 -0.72,0.3 0.06,0 -0.78,0.24 0.06,0 -0.78,0.24 0.06,0 -0.78,0.18 -0.78,0.12 0.06,0 -0.84,0.12 0.06,0 -0.84,0.12 0.06,0 -0.84,0 -0.84,0.06 0.06,0 -0.84,-0.06 c -0.944,0.062 -2.89,-0.305 -3.84,-0.54 l -0.78,-0.24 0.06,0 -0.72,-0.24 -0.72,-0.3 0,0.06 -0.66,-0.36 0,0.06 -1.32,-0.72 -0.6,-0.36 -0.6,-0.42 -0.54,-0.42 -0.54,-0.48 0,0.06 -0.54,-0.48 -0.48,-0.54 0,0.06 -0.48,-0.54 c -0.733,-0.919 -1.37,-1.734 -1.86,-2.82 l -0.3,-0.6 0.06,0 -0.3,-0.66 0,0.06 -0.36,-1.32 -0.24,-1.32 -0.06,-0.72 0,0.06 0,-0.72 c -0.073,-1.311 0.3,-2.767 0.66,-4.02 l 0.3,-0.6 -0.06,0 0.3,-0.66 0,0.06 0.3,-0.6 0.72,-1.2 0,0.06 0.42,-0.6 0,0.06 0.42,-0.6 0,0.06 0.48,-0.54 0.48,-0.48 0.54,-0.48 0.54,-0.42 0.54,-0.48 0,0.06 1.2,-0.84 0,0.06 1.32,-0.72 0.66,-0.3 1.44,-0.48 -0.06,0 0.78,-0.24 0.72,-0.18 0.78,-0.18 0,0.06 1.56,-0.24 0.78,-0.06 0.84,0 -0.06,0"
         style="fill:#000000;fill-opacity:1;fill-rule:nonzero;stroke:none"
         id="path3523" />
    </g>
    <text
       id="text3525"
       x="107.82674"
       y="538.55151"
       style="font-size:15px">
      <tspan
         style="font-size:32.40000153px;font-variant:normal;font-weight:normal;font-stretch:normal;writing-mode:lr-tb;fill:#000000;fill-opacity:1;fill-rule:nonzero;stroke:none;font-family:Verdana;-inkscape-font-specification:Verdana"
         x="107.82674"
         y="538.55151"
         id="tspan3527">1</tspan>
    </text>
    <path
       inkscape:connector-curvature="0"
       d="m 135.26464,375.24722 0.0128,-0.97491 107.53774,1.39191 -0.0128,0.97492 -107.53775,-1.39192 z m 0.0128,-0.97491 z m 106.22655,-2.22537 8.09716,4.15515 -8.20331,3.94417"
       style="fill:#000000;fill-opacity:1;fill-rule:nonzero;stroke:none"
       id="path3529" />
    <path
       inkscape:connector-curvature="0"
       d="m 134.90776,455.80102 0.007,-0.97502 108.38403,0.74659 -0.007,0.97502 -108.38401,-0.74659 z m 0.007,-0.97498 z m 107.03993,-2.78775 8.18568,4.10648 -8.24306,3.99332"
       style="fill:#000000;fill-opacity:1;fill-rule:nonzero;stroke:none"
       id="path3531" />
    <g
       id="g3537"
       transform="matrix(0,1.25,1.25,0,249.80237,452.90147)">
      <path
         inkscape:connector-curvature="0"
         d="m 0,0 c -8.82,0 -16.02,6.18 -16.02,13.86 0,7.68 7.2,13.92 16.02,13.92 8.88,0 16.08,-6.24 16.08,-13.92 C 16.08,6.18 8.88,0 0,0"
         style="fill:#00cc99;fill-opacity:1;fill-rule:evenodd;stroke:none"
         id="path3539" />
    </g>
    <g
       id="g3541"
       transform="matrix(0,1.25,1.25,0,249.27737,452.90147)">
      <path
         inkscape:connector-curvature="0"
         d="m 0,0 -0.84,0 -0.84,0.06 c -19.612,2.418 -19.595,26.092 0,28.44 l 0.84,0.06 0.84,0 C 20.014,28.135 22.777,3.626 2.52,0.18 L 1.68,0.06 0.84,0 0,0 z m 0.84,0.84 0.78,0.06 0,-0.06 1.56,0.24 0.78,0.18 0,-0.06 0.72,0.24 c 1.848,0.413 4.433,1.643 5.88,2.88 l 0.54,0.48 0,-0.06 0.54,0.48 0.48,0.54 0,-0.06 0.48,0.54 0.84,1.08 0.36,0.6 0,-0.06 0.36,0.6 0.6,1.2 -0.06,0 0.3,0.66 0,-0.06 0.18,0.66 0.18,0.66 0.12,0.66 0.12,0.72 0,-0.06 0.06,0.72 0,1.38 -0.06,0.66 -0.12,0.72 0,-0.06 -0.12,0.72 0,-0.06 -0.18,0.66 -0.18,0.66 -0.3,0.6 0.06,0 -0.3,0.66 0,-0.06 -0.3,0.66 0,-0.06 -0.72,1.2 0,-0.06 -0.42,0.6 -0.42,0.54 0,-0.06 -0.48,0.54 -0.48,0.48 -1.08,0.96 0,-0.06 -0.54,0.48 0,-0.06 -1.2,0.84 0,-0.06 -0.66,0.42 0,-0.06 -0.66,0.36 -0.66,0.3 -0.72,0.24 -0.72,0.3 0,-0.06 -0.72,0.24 c -1.894,0.553 -3.503,0.633 -5.46,0.6 l -0.84,-0.06 0.06,0 -0.84,-0.06 0.06,0 -0.84,-0.12 0.06,0 -1.56,-0.36 0.06,0 -0.78,-0.24 0,0.06 -0.72,-0.3 0.06,0 -0.72,-0.24 -0.66,-0.3 -0.66,-0.36 0,0.06 -0.66,-0.42 0,0.06 -1.2,-0.84 0,0.06 -0.6,-0.48 0.06,0.06 -0.6,-0.48 0.06,0 -0.54,-0.48 -0.48,-0.48 -0.48,-0.54 0,0.06 -0.42,-0.54 -0.42,-0.6 0,0.06 -0.72,-1.2 0,0.06 -0.3,-0.66 0,0.06 -0.3,-0.66 -0.24,-0.6 -0.36,-1.32 0,0.06 -0.18,-0.72 0,0.06 -0.06,-0.72 -0.06,-0.66 -0.06,-0.72 0.06,-0.66 0.06,-0.72 0,0.06 0.06,-0.72 0.54,-1.98 0,0.06 0.24,-0.66 0.6,-1.2 0.36,-0.6 0,0.06 0.36,-0.6 0.84,-1.08 0.48,-0.54 0,0.06 0.48,-0.54 0.54,-0.48 -0.06,0.06 0.6,-0.48 -0.06,0 0.6,-0.42 c 1.009,-0.763 2.032,-1.238 3.18,-1.74 l 0.72,-0.3 -0.06,0 0.72,-0.24 0.78,-0.18 -0.06,0 0.78,-0.24 0,0.06 0.78,-0.18 -0.06,0 0.84,-0.12 -0.06,0 L -1.56,0.84 -1.62,0.9 -0.78,0.84 0,0.78"
         style="fill:#000000;fill-opacity:1;fill-rule:nonzero;stroke:none"
         id="path3543" />
    </g>
    <text
       id="text3545"
       x="256.92676"
       y="465.72647"
       style="font-size:15px">
      <tspan
         style="font-size:32.40000153px;font-variant:normal;font-weight:normal;font-stretch:normal;writing-mode:lr-tb;fill:#000000;fill-opacity:1;fill-rule:nonzero;stroke:none;font-family:Verdana;-inkscape-font-specification:Verdana"
         x="256.92676"
         y="465.72647"
         id="tspan3547">1</tspan>
    </text>
    <g
       id="g3549"
       transform="matrix(0,1.25,1.25,0,390.05237,452.90147)">
      <path
         inkscape:connector-curvature="0"
         d="m 0,0 c -8.82,0 -16.02,6.24 -16.02,13.92 0,7.68 7.2,13.86 16.02,13.86 8.88,0 16.08,-6.18 16.08,-13.86 C 16.08,6.24 8.88,0 0,0"
         style="fill:#00cc99;fill-opacity:1;fill-rule:evenodd;stroke:none"
         id="path3551" />
    </g>
    <g
       id="g3553"
       transform="matrix(0,1.25,1.25,0,389.60237,452.90147)">
      <path
         inkscape:connector-curvature="0"
         d="m 0,0 -0.84,0 -0.84,0.06 c -19.602,2.349 -19.609,26.046 0,28.44 l 0.84,0.06 0.84,0 C 20.054,27.997 22.778,3.72 2.52,0.12 L 0.84,0 0,0 z m 0.84,0.78 0.78,0.06 c 1.808,0.047 4.982,1 6.54,1.92 l 0.66,0.36 0,-0.06 1.2,0.84 0,-0.06 0.54,0.48 0.54,0.42 0.54,0.48 0.48,0.48 0.48,0.54 0,-0.06 0.42,0.6 0,-0.06 0.42,0.6 0,-0.06 0.72,1.2 0,-0.06 0.3,0.66 0,-0.06 0.3,0.66 -0.06,0 0.3,0.6 c 0.36,1.253 0.733,2.709 0.66,4.02 l 0,0.72 0,-0.06 -0.06,0.72 -0.24,1.32 -0.18,0.66 -0.18,0.66 0,-0.06 -0.3,0.66 0.06,0 -0.3,0.6 c -0.49,1.086 -1.127,1.901 -1.86,2.82 l -0.48,0.54 0,-0.06 -0.48,0.54 -0.54,0.48 0,-0.06 -0.54,0.48 -0.54,0.42 -0.6,0.42 -0.6,0.36 -1.32,0.72 0,-0.06 -0.66,0.36 0,-0.06 -0.72,0.3 c -2.051,0.797 -4.716,1.183 -6.9,1.02 l -0.84,0 0.06,0 -0.84,-0.12 0.06,0 -0.84,-0.12 0.06,0 -0.78,-0.12 -0.78,-0.18 0.06,0 -0.78,-0.24 -0.72,-0.24 0.06,0 -0.72,-0.3 0,0.06 -0.66,-0.36 0,0.06 -1.32,-0.72 -0.6,-0.36 -1.2,-0.84 0.06,0 -0.6,-0.48 0.06,0.06 -0.54,-0.48 -0.48,-0.54 0,0.06 -0.48,-0.54 c -0.984,-1.195 -1.508,-2.014 -2.16,-3.42 l -0.24,-0.66 0,0.06 -0.54,-1.98 -0.06,-0.66 -0.06,-0.72 0,0.06 -0.06,-0.72 0.06,-0.72 0.06,-0.66 0.06,-0.72 0,0.06 0.54,-1.98 0.24,-0.6 0.3,-0.66 0,0.06 0.3,-0.66 0,0.06 0.72,-1.2 0,0.06 0.42,-0.6 0,0.06 0.42,-0.6 0,0.06 0.48,-0.54 0.48,-0.48 0.54,-0.48 -0.06,0 0.6,-0.42 -0.06,0 0.6,-0.48 0,0.06 1.2,-0.84 0,0.06 1.32,-0.72 0.66,-0.3 0.72,-0.24 -0.06,0 0.72,-0.24 0.78,-0.24 -0.06,0 1.56,-0.36 -0.06,0 0.84,-0.12 -0.06,0 0.84,-0.06 -0.06,0 0.84,-0.06 0.78,0"
         style="fill:#000000;fill-opacity:1;fill-rule:nonzero;stroke:none"
         id="path3555" />
    </g>
    <text
       id="text3557"
       x="397.17676"
       y="465.72647"
       style="font-size:15px">
      <tspan
         style="font-size:32.40000153px;font-variant:normal;font-weight:normal;font-stretch:normal;writing-mode:lr-tb;fill:#000000;fill-opacity:1;fill-rule:nonzero;stroke:none;font-family:Verdana;-inkscape-font-specification:Verdana"
         x="397.17676"
         y="465.72647"
         id="tspan3559">2</tspan>
    </text>
    <path
       inkscape:connector-curvature="0"
       d="m 284.82737,457.62647 0,-0.97504 98.175,0 0,0.97504 -98.175,0 z m 0,-0.975 z m 96.825,-3.525 8.1,4.05 -8.1,4.05"
       style="fill:#000000;fill-opacity:1;fill-rule:nonzero;stroke:none"
       id="path3561" />
    <g
       id="g3563"
       transform="matrix(0,1.25,1.25,0,539.15237,452.90147)">
      <path
         inkscape:connector-curvature="0"
         d="m 0,0 c -8.82,0 -16.02,6.18 -16.02,13.86 0,7.68 7.2,13.92 16.02,13.92 8.88,0 16.08,-6.24 16.08,-13.92 C 16.08,6.18 8.88,0 0,0"
         style="fill:#00cc99;fill-opacity:1;fill-rule:evenodd;stroke:none"
         id="path3565" />
    </g>
    <g
       id="g3567"
       transform="matrix(0,1.25,1.25,0,538.62737,452.90147)">
      <path
         inkscape:connector-curvature="0"
         d="m 0,0 -0.84,0 -0.84,0.06 c -19.612,2.417 -19.595,26.092 0,28.44 l 0.84,0.06 0.84,0 C 20.021,28.142 22.768,3.604 2.52,0.18 L 1.68,0.06 0.84,0 0,0 z m 0.84,0.84 0.78,0.06 0,-0.06 2.34,0.36 0.72,0.24 0,-0.06 1.44,0.48 0.72,0.3 1.32,0.6 0.66,0.36 -0.06,0 0.66,0.36 0.6,0.42 0.54,0.42 0.54,0.48 0,-0.06 0.54,0.48 0.48,0.54 0,-0.06 0.48,0.54 0.84,1.08 0.36,0.6 0,-0.06 0.36,0.6 0.6,1.2 -0.06,0 0.3,0.66 0,-0.06 0.18,0.66 0.18,0.66 0.12,0.66 0.12,0.72 0,-0.06 0.06,0.72 0,1.38 -0.06,0.66 -0.12,0.72 0,-0.06 -0.12,0.72 0,-0.06 -0.18,0.66 -0.18,0.66 -0.3,0.6 0.06,0 -0.3,0.66 0,-0.06 -0.3,0.66 0,-0.06 -0.72,1.2 0,-0.06 -0.42,0.6 -0.42,0.54 0,-0.06 -0.48,0.54 -0.48,0.48 -1.08,0.96 0,-0.06 -0.54,0.48 0,-0.06 -1.2,0.84 0,-0.06 -0.66,0.42 0,-0.06 -0.66,0.36 -0.66,0.3 -0.72,0.24 -0.72,0.3 0,-0.06 -0.72,0.24 c -1.894,0.553 -3.504,0.633 -5.46,0.6 l -0.84,-0.06 0.06,0 -0.84,-0.06 0.06,0 -0.84,-0.12 0.06,0 -1.56,-0.36 0.06,0 -0.78,-0.24 0,0.06 -0.72,-0.3 0.06,0 -0.72,-0.24 -0.66,-0.3 -0.66,-0.36 0,0.06 -0.66,-0.42 0,0.06 -1.2,-0.84 0,0.06 -0.6,-0.48 0.06,0.06 -0.6,-0.48 0.06,0 -0.54,-0.48 -0.48,-0.48 -0.48,-0.54 0,0.06 -0.42,-0.54 -0.42,-0.6 0,0.06 -0.72,-1.2 0,0.06 -0.3,-0.66 0,0.06 -0.3,-0.66 -0.24,-0.6 -0.36,-1.32 0,0.06 -0.18,-0.72 0,0.06 -0.06,-0.72 -0.06,-0.66 -0.06,-0.72 0.06,-0.66 0.06,-0.72 0,0.06 0.06,-0.72 0.54,-1.98 0,0.06 0.24,-0.66 0.6,-1.2 0.36,-0.6 0,0.06 0.36,-0.6 0.84,-1.08 0.48,-0.54 0,0.06 0.48,-0.54 0.54,-0.48 -0.06,0.06 0.6,-0.48 -0.06,0 0.6,-0.42 c 1.009,-0.763 2.032,-1.238 3.18,-1.74 l 0.72,-0.3 -0.06,0 0.72,-0.24 0.78,-0.24 -0.06,0.06 0.78,-0.24 0,0.06 0.78,-0.18 -0.06,0 0.84,-0.12 -0.06,0 L -1.56,0.84 -1.62,0.9 -0.78,0.84 0,0.78"
         style="fill:#000000;fill-opacity:1;fill-rule:nonzero;stroke:none"
         id="path3569" />
    </g>
    <text
       id="text3571"
       x="546.27673"
       y="465.72647"
       style="font-size:15px">
      <tspan
         style="font-size:32.40000153px;font-variant:normal;font-weight:normal;font-stretch:normal;writing-mode:lr-tb;fill:#000000;fill-opacity:1;fill-rule:nonzero;stroke:none;font-family:Verdana;-inkscape-font-specification:Verdana"
         x="546.27673"
         y="465.72647"
         id="tspan3573">1</tspan>
    </text>
    <g
       id="g3575"
       transform="matrix(0,1.25,1.25,0,249.80237,380.07647)">
      <path
         inkscape:connector-curvature="0"
         d="m 0,0 c -8.88,0 -16.02,6.18 -16.02,13.86 0,7.68 7.14,13.92 16.02,13.92 8.88,0 16.08,-6.24 16.08,-13.92 C 16.08,6.18 8.88,0 0,0"
         style="fill:#00cc99;fill-opacity:1;fill-rule:evenodd;stroke:none"
         id="path3577" />
    </g>
    <g
       id="g3579"
       transform="matrix(0,1.25,1.25,0,249.27737,380.07647)">
      <path
         inkscape:connector-curvature="0"
         d="m 0,0 -0.84,0 -0.84,0.06 c -19.639,2.44 -19.634,26.063 0,28.44 l 0.84,0.06 0.84,0 C 20,28.135 22.764,3.626 2.52,0.18 L 1.68,0.06 0.84,0 0,0 z m 0.84,0.84 -0.06,0 0.84,0.06 0,-0.06 L 3.18,1.08 3.96,1.26 3.9,1.2 4.68,1.44 5.4,1.62 l 0.72,0.24 0.72,0.3 -0.06,0 0.72,0.3 0.66,0.3 0.6,0.36 0.66,0.36 -0.06,0 0.66,0.42 -0.06,0 0.6,0.42 0.54,0.48 0,-0.06 0.54,0.48 -0.06,0 0.54,0.54 0,-0.06 0.48,0.54 -0.06,0 0.48,0.54 0.42,0.54 -0.06,0 0.42,0.6 0,-0.06 0.36,0.6 -0.06,0 0.36,0.6 0.24,0.6 0.24,0.66 0,-0.06 0.24,0.66 0.18,0.66 0.12,0.66 0.12,0.72 0,-0.06 0.06,0.72 0,1.38 -0.06,0.66 -0.12,0.72 0,-0.06 -0.12,0.72 0,-0.06 -0.18,0.66 -0.24,0.66 -0.24,0.6 -0.24,0.66 0,-0.06 -0.36,0.66 0.06,-0.06 -0.36,0.6 -0.42,0.6 0.06,-0.06 -0.42,0.6 -0.48,0.54 0.06,-0.06 -0.48,0.54 -0.54,0.48 0.06,0 -1.08,0.96 0,-0.06 -0.6,0.48 0.06,-0.06 -0.66,0.42 0.06,0 -0.66,0.42 0,-0.06 -0.6,0.42 0,-0.06 -0.66,0.36 -0.72,0.3 0.06,0 -0.72,0.24 -0.72,0.3 0,-0.06 -0.72,0.24 -0.78,0.18 0.06,0 -0.78,0.18 -0.78,0.12 -0.78,0.06 -0.84,0.06 0.06,0 -1.68,0 0.06,0 -0.84,-0.06 0.06,0 -0.84,-0.06 -0.78,-0.12 0.06,0 -1.56,-0.36 -0.72,-0.24 0,0.06 -0.72,-0.3 -0.66,-0.24 -0.72,-0.3 0.06,0 -0.72,-0.36 0.06,0.06 -0.66,-0.42 0,0.06 -0.66,-0.42 0.06,0 -0.6,-0.42 0,0.06 -0.6,-0.48 0,0.06 -0.54,-0.48 -0.48,-0.48 -0.54,-0.48 0.06,0 -0.48,-0.54 0,0.06 -0.48,-0.54 0.06,0 -0.42,-0.6 0,0.06 -0.42,-0.6 0.06,0 -0.36,-0.6 0,0.06 -0.36,-0.66 0.06,0.06 -0.3,-0.66 -0.24,-0.6 -0.24,-0.66 -0.18,-0.66 0.06,0.06 -0.18,-0.72 0,0.06 -0.06,-0.72 -0.06,-0.66 -0.06,-0.72 0.06,-0.66 0.06,-0.72 0,0.06 0.06,-0.72 0.18,-0.66 -0.06,0 0.18,-0.66 0.24,-0.66 0,0.06 0.24,-0.66 0.3,-0.6 -0.06,0 0.72,-1.2 -0.06,0.06 0.42,-0.6 0.42,-0.54 -0.06,0 0.96,-1.08 -0.06,0.06 1.02,-1.02 0,0.06 0.54,-0.48 1.2,-0.84 -0.06,0 1.32,-0.72 -0.06,0 0.72,-0.3 -0.06,0 0.72,-0.3 0.66,-0.3 0.72,-0.24 0.72,-0.18 0.78,-0.24 0,0.06 0.78,-0.18 -0.06,0 L -2.4,0.96 -1.56,0.84 -1.62,0.9 -0.78,0.84 0,0.78"
         style="fill:#000000;fill-opacity:1;fill-rule:nonzero;stroke:none"
         id="path3581" />
    </g>
    <text
       id="text3583"
       x="256.92676"
       y="392.90146"
       style="font-size:15px">
      <tspan
         style="font-size:32.40000153px;font-variant:normal;font-weight:normal;font-stretch:normal;writing-mode:lr-tb;fill:#000000;fill-opacity:1;fill-rule:nonzero;stroke:none;font-family:Verdana;-inkscape-font-specification:Verdana"
         x="256.92676"
         y="392.90146"
         id="tspan3585">3</tspan>
    </text>
    <g
       id="g3587"
       transform="matrix(0,1.2366389,1.2640594,0,284.9799,377.72647)">
      <path
         inkscape:connector-curvature="0"
         d="M 0,0 50.22,197.94 51,197.7 0.78,-0.18 0,0 z m 47.16,197.58 4.74,5.46 1.56,-7.08"
         style="fill:#000000;fill-opacity:1;fill-rule:nonzero;stroke:none"
         id="path3589" />
    </g>
    <g
       id="g3591"
       transform="matrix(0,1.3199366,1.2735117,0,283.27512,530.9229)">
      <path
         inkscape:connector-curvature="0"
         d="M 0,0 -43.2,86.1 -43.92,85.74 -0.72,-0.36 0,0 z m -40.14,86.4 -5.82,4.38 0,-7.26"
         style="fill:#000000;fill-opacity:1;fill-rule:nonzero;stroke:none"
         id="path3593" />
    </g>
    <path
       inkscape:connector-curvature="0"
       d="m 424.39476,457.62647 0,-0.97504 107.9439,0 0,0.97504 -107.9439,0 z m 0,-0.975 z m 106.5804,-3.525 8.18102,4.05 -8.18102,4.05"
       style="fill:#000000;fill-opacity:1;fill-rule:nonzero;stroke:none"
       id="path3595" />
    <text
       id="text3597"
       x="135.42676"
       y="526.70148"
       style="font-size:15px">
      <tspan
         style="font-size:32.40000153px;font-variant:normal;font-weight:normal;font-stretch:normal;writing-mode:lr-tb;fill:#000000;fill-opacity:1;fill-rule:nonzero;stroke:none;font-family:Verdana;-inkscape-font-specification:Verdana"
         x="135.42676"
         y="526.70148"
         id="tspan3599">1</tspan>
      <tspan
         style="font-size:32.40000153px;font-variant:normal;font-weight:normal;font-stretch:normal;writing-mode:lr-tb;fill:#000000;fill-opacity:1;fill-rule:nonzero;stroke:none;font-family:Verdana;-inkscape-font-specification:Verdana"
         x="144.35295"
         y="453.87598"
         id="tspan3601">1</tspan>
      <tspan
         style="font-size:32.40000153px;font-variant:normal;font-weight:normal;font-stretch:normal;writing-mode:lr-tb;fill:#000000;fill-opacity:1;fill-rule:nonzero;stroke:none;font-family:Verdana;-inkscape-font-specification:Verdana"
         x="144.35295"
         y="372.9505"
         id="tspan3603">3</tspan>
      <tspan
         style="font-size:32.40000153px;font-variant:normal;font-weight:normal;font-stretch:normal;writing-mode:lr-tb;fill:#000000;fill-opacity:1;fill-rule:nonzero;stroke:none;font-family:Verdana;-inkscape-font-specification:Verdana"
         x="285.65259"
         y="364.85049"
         id="tspan3605">6</tspan>
      <tspan
         style="font-size:32.40000153px;font-variant:normal;font-weight:normal;font-stretch:normal;writing-mode:lr-tb;fill:#000000;fill-opacity:1;fill-rule:nonzero;stroke:none;font-family:Verdana;-inkscape-font-specification:Verdana"
         x="284.52832 424.7879"
         y="445.77597"
         sodipodi:role="line"
         id="tspan3607">24</tspan>
      <tspan
         style="font-size:32.40000153px;font-variant:normal;font-weight:normal;font-stretch:normal;writing-mode:lr-tb;fill:#000000;fill-opacity:1;fill-rule:nonzero;stroke:none;font-family:Verdana;-inkscape-font-specification:Verdana"
         x="575.00403"
         y="437.67599"
         id="tspan3609">7</tspan>
    </text>
    <g
       id="g3611"
       transform="matrix(0,1.25,1.25,0,130.17737,331.17647)">
      <path
         inkscape:connector-curvature="0"
         d="M 0,0 0.12,-1.62 -1.5,-1.74 -1.62,-0.12 0,0 z m 0.18,-3.24 0.12,-1.62 -1.62,-0.12 -0.12,1.62 1.62,0.12 z M 0.42,-6.48 0.54,-8.1 -1.08,-8.22 -1.2,-6.6 0.42,-6.48 z m 0.48,-3 0.06,-0.18 0.18,-0.66 0.24,-0.66 0,0.06 0,-0.06 -1.56,-0.54 0,0.06 -0.18,0.6 -0.24,0.66 -0.06,0.24 1.56,0.48 z m 1.02,-3 0.24,-0.72 0.3,-0.78 -1.5,-0.6 -0.3,0.78 -0.3,0.72 1.56,0.6 z m 1.2,-2.94 0.3,-0.66 -0.06,0 0.42,-0.78 -1.44,-0.72 -0.42,0.78 -0.3,0.66 1.5,0.72 z m 1.44,-2.82 0.24,-0.42 0.54,-0.84 0.06,-0.06 -1.38,-0.9 -0.06,0.06 -0.54,0.9 -0.24,0.42 1.38,0.84 z m 1.74,-2.7 0.24,-0.36 0.66,-0.9 -1.32,-0.96 -0.66,0.9 -0.3,0.42 1.38,0.9 z m 1.86,-2.58 0.72,-0.9 0.3,-0.42 -1.32,-0.9 -0.3,0.36 -0.66,0.9 1.26,0.96 z m 1.92,-2.7 0.12,-0.24 0.36,-0.66 0.3,-0.6 -1.44,-0.72 -0.3,0.54 0.06,0 -0.36,0.66 0,-0.06 -0.12,0.24 1.38,0.84 z m 1.56,-2.88 0.18,-0.42 0,0.06 0.36,-0.6 -0.06,0.06 0.3,-0.42 -1.32,-0.9 -0.3,0.42 -0.36,0.6 -0.24,0.42 1.44,0.78 z m 1.74,-2.46 0.3,-0.24 -0.06,0 0.9,-0.72 -0.96,-1.32 -0.36,0.3 -0.3,0.24 -0.36,0.3 -0.3,0.3 1.14,1.14 z m 2.4,-1.8 0.84,-0.42 0.48,-0.3 0.12,-0.06 -0.78,-1.38 -0.6,0.3 -0.48,0.3 -0.36,0.18 0.78,1.38 z m 2.88,-1.56 0.06,-0.06 0.48,-0.24 0.18,-0.12 0.3,-0.18 0.3,-0.12 -0.06,0 0.06,0 -0.66,-1.5 -0.06,0.06 c -0.47,0.159 -0.884,0.434 -1.32,0.66 l -0.12,0.06 0.84,1.44 z m 2.76,-1.26 0.06,0 0.6,-0.24 0.9,-0.3 -0.54,-1.5 -0.12,0.06 -0.42,0.12 -0.3,0.12 -0.36,0.06 0.06,0 -0.3,0.12 -0.06,0 0.48,1.56 z m 3.12,-1.08 0.3,-0.06 0.6,-0.24 0.36,-0.12 0.24,-0.06 -0.54,-1.56 -0.18,0.06 -0.42,0.12 -0.9,0.36 0.54,1.5 z m 3.06,-1.08 0.06,0 0.18,-0.06 0.36,-0.18 0.12,0 -0.06,0 -0.36,0.06 0.84,0.12 0.24,-1.62 -1.02,-0.18 -0.3,0.12 -0.06,0 -0.06,0.06 -0.12,0.06 -0.36,0.12 0.54,1.5 z m 2.76,0.18 0.42,0.12 -0.06,0 1.2,0.18 0.3,-1.56 -1.2,-0.24 -0.42,-0.06 -0.24,1.56 z m 3.12,0.66 0.06,0 1.38,0.36 0.12,0 0.42,-1.56 -0.18,0 -1.38,-0.36 -0.06,0 -0.36,1.56 z m 3.06,0.78 1.08,0.3 0.48,0.18 0.48,-1.56 -0.48,-0.18 -1.08,-0.3 -0.48,1.56 z m 3.12,0.96 0.66,0.24 -0.06,0 0.9,0.3 0.54,-1.5 -0.9,-0.36 -0.66,-0.24 -0.48,1.56 z m 3,1.08 0.3,0.12 -0.06,0 1.2,0.54 0.66,-1.5 -1.26,-0.54 -0.3,-0.12 -0.54,1.5 z m 2.94,1.26 1.26,0.6 -0.06,0 0.24,0.12 0.72,-1.44 -0.24,-0.12 -1.26,-0.6 -0.66,1.44 z m 2.88,1.44 1.02,0.54 0.42,0.18 0.18,0 0.42,-1.56 -0.12,0 0.06,0 -0.36,-0.12 0.12,0.06 -1.02,-0.54 -0.72,1.44 z m 3.12,1.08 0.18,0.12 -0.12,-0.06 0.3,0.18 -0.12,-0.12 0.3,0.24 -0.18,-0.18 0.06,0.06 -0.06,-0.12 0.06,0.12 -0.06,-0.06 0.06,0.12 0.06,0.12 0.06,0.18 1.56,-0.48 -0.12,-0.24 c -0.146,-0.619 -0.623,-1.068 -1.2,-1.32 l -0.24,-0.06 -0.54,1.5 z m 0.96,2.16 0.06,0.3 0,-0.06 0.18,0.66 0.12,0.66 1.62,-0.36 -0.36,-1.32 -0.06,-0.3 -1.56,0.42 z m 0.72,3.12 0.12,0.3 0.12,0.54 0,0.24 0.06,0.24 0,-0.06 0.06,0.24 0,0.06 1.62,-0.36 -0.06,-0.06 0,-0.18 -0.12,-0.48 -0.12,-0.54 -0.06,-0.3 -1.62,0.36 z m 0.78,3.18 0.42,1.56 1.56,-0.42 -0.42,-1.56 -1.56,0.42 z m 0.84,3.12 0.36,1.5 0,-0.06 0,0.12 1.62,-0.36 -0.06,-0.12 -0.36,-1.44 -1.56,0.36 z m 0.72,3.12 0.3,1.2 0.06,0.42 1.62,-0.36 -0.12,-0.42 -0.24,-1.2 -1.62,0.36 z m 0.72,3.18 0.18,0.9 0.18,0.66 1.56,-0.3 -0.12,-0.66 -0.24,-0.96 -1.56,0.36 z m 0.66,3.18 0.12,0.6 0.12,0.96 1.62,-0.3 -0.18,-0.96 -0.12,-0.66 -1.56,0.36 z m 0.54,3.18 0.06,0.36 0.18,1.2 1.62,-0.24 -0.18,-1.2 -0.06,-0.42 -1.62,0.3 z m 0.48,3.18 0.06,0.18 0.18,1.38 1.56,-0.18 -0.18,-1.44 0,-0.18 -1.62,0.24 z m 0.42,3.18 0,0.06 0,-0.12 -0.06,1.56 1.62,0.06 0.06,-1.62 0,-0.12 -1.62,0.18 z M 58.32,2.82 58.26,4.44 59.88,4.5 59.94,2.88 58.32,2.82 z M 58.2,6.06 58.14,7.68 59.76,7.74 59.82,6.12 58.2,6.06 z m -0.12,3.24 -0.06,0.96 0,0.66 1.62,0.06 0,-0.66 L 59.7,9.36 58.08,9.3 z m -0.12,3.24 0,1.62 1.62,0.06 0,-1.62 -1.62,-0.06 z m -0.06,3.24 -0.06,1.62 1.62,0.06 0.06,-1.62 -1.62,-0.06 z m -0.06,3.24 -0.06,1.62 1.62,0.06 0.06,-1.62 -1.62,-0.06 z m -0.06,3.24 -0.06,1.62 1.62,0.06 0.06,-1.62 -1.62,-0.06 z m -0.06,3.24 0,1.62 1.62,0.06 0,-1.62 -1.62,-0.06 z m -0.06,3.24 0,1.62 1.62,0.06 0,-1.62 -1.62,-0.06 z m -0.06,3.24 0,1.68 1.62,0 0.06,-1.62 -1.68,-0.06 z m 1.62,3.3 -1.62,0 0,1.62 1.62,0 0,-1.62 z m -1.62,0 z m 1.62,3.24 -1.62,0 0,1.62 1.62,0 0,-1.62 z m -1.62,0 z m 1.62,3.24 -1.62,0 0,1.62 1.62,0 0,-1.62 z m -1.62,0 z m 1.62,3.24 -1.62,0 0,1.62 1.62,0 0,-1.62 z m -1.62,0 z m 1.62,3.24 -1.62,0 0,1.62 1.62,0 0,-1.62 z m -1.62,0 z m 0,3.24 0,1.38 0.06,0.24 1.62,0 -0.06,-0.3 0,-1.32 -1.62,0 z m 1.68,3.24 -1.62,0 0,1.62 1.62,0 0,-1.62 z m -1.62,0 z m 0,3.24 0.06,1.62 1.62,0 -0.06,-1.62 -1.62,0 z m 1.68,3.24 -1.62,0 0,1.62 1.62,0 0,-1.62 z m -1.62,0 z m 1.68,3.24 -1.62,0 0,1.62 1.62,0 0,-1.62 z m -1.62,0 z m 1.68,3.24 -1.62,0 0,1.62 1.62,0 0,-1.62 z m -1.62,0 z m 1.68,3.24 -1.62,0 0,1.62 1.62,0 0,-1.62 z m -1.62,0 z m 0,3.24 0.06,1.62 1.62,0 -0.06,-1.62 -1.62,0 z m 1.74,3.24 -1.62,0 0,1.62 1.62,0 0,-1.62 z m -1.62,0 z m 1.68,3.24 -1.62,0 0,1.62 1.62,0 0,-1.62 z m -1.62,0 z m 0.06,3.24 0,0.9 0.06,0.78 1.62,-0.06 -0.06,-0.72 0,-0.9 -1.62,0 z m 0.06,3.3 0.06,1.62 1.62,-0.06 -0.06,-1.62 -1.62,0.06 z m 0.12,3.24 0,1.62 1.62,-0.06 0,-1.62 -1.62,0.06 z m 0.06,3.24 0.06,1.62 1.62,-0.06 L 60,93.6 58.38,93.66 z m 0.12,3.24 0,1.62 1.62,-0.06 0,-1.62 -1.62,0.06 z m 0.06,3.24 0.06,1.62 1.62,-0.06 -0.06,-1.62 -1.62,0.06 z m 0.06,3.24 0.06,1.62 1.62,-0.06 0,-1.62 -1.68,0.06 z m 0.12,3.24 0.06,1.62 1.62,-0.06 -0.06,-1.62 -1.62,0.06 z m 0.12,3.24 0,1.62 1.62,-0.06 0,-1.62 -1.62,0.06 z m 0.06,3.24 0.06,1.62 1.62,-0.06 -0.06,-1.62 -1.62,0.06 z m 0.12,3.24 0,1.62 1.62,-0.06 0,-1.62 -1.62,0.06 z m 0.06,3.24 0.06,1.62 1.62,-0.06 -0.06,-1.62 -1.62,0.06 z m 0.12,3.24 0,1.62 1.62,-0.06 0,-1.62 -1.62,0.06 z m 0.06,3.24 0.06,1.32 0,0.3 1.62,-0.06 0,-0.24 -0.06,-1.38 -1.62,0.06 z m 0.12,3.24 0,1.62 1.62,-0.06 0,-1.62 -1.62,0.06 z m 0.06,3.24 0.06,1.62 1.62,-0.06 -0.06,-1.62 -1.62,0.06 z m 0.12,3.24 0,1.62 1.62,-0.06 0,-1.62 -1.62,0.06 z m 0.06,3.24 0.06,1.62 1.62,-0.06 -0.06,-1.62 -1.62,0.06 z m 0.06,3.24 0.06,1.62 1.62,-0.06 -0.06,-1.62 -1.62,0.06 z m 0.12,3.24 0.06,1.62 1.62,-0.06 -0.06,-1.62 -1.62,0.06 z m 0.06,3.24 0.06,1.62 1.62,-0.06 -0.06,-1.62 -1.62,0.06 z m 0.12,3.24 0,1.62 1.62,-0.06 0,-1.62 -1.62,0.06 z m 0.06,3.24 0,1.62 1.62,-0.06 0,-1.62 -1.62,0.06 z m 0.06,3.24 0,1.62 1.62,-0.06 0,-1.62 -1.62,0.06 z m 1.68,3.24 -1.62,0 0,1.62 1.62,0 0,-1.62 z m -1.62,0 z m 1.68,3.24 -1.62,0 0,1.62 1.62,0 0,-1.62 z m -1.62,0 z m 1.68,3.24 -1.62,0 0,1.62 1.62,0 0,-1.62 z m -1.62,0 z m 0.18,3.3 0.18,1.62 1.62,-0.18 -0.18,-1.62 -1.62,0.18 z m 0.42,3.24 0.18,1.62 1.62,-0.18 -0.24,-1.62 -1.56,0.18 z m 0.36,3.24 0.18,1.56 1.62,-0.18 -0.18,-1.62 -1.62,0.24 z m 0.42,3.18 0.18,1.62 1.62,-0.18 -0.24,-1.62 -1.56,0.18 z m 0.36,3.24 0.06,0.3 0.12,1.32 1.62,-0.24 -0.12,-1.26 -0.06,-0.3 -1.62,0.18 z m 0.42,3.24 0.18,1.56 1.62,-0.18 -0.18,-1.62 -1.62,0.24 z m 0.42,3.18 0.12,1.2 0.06,0.42 1.62,-0.18 -0.06,-0.42 -0.18,-1.2 -1.56,0.18 z m 0.36,3.24 0.24,1.62 1.62,-0.24 -0.24,-1.62 -1.62,0.24 z m 0.42,3.18 0.24,1.62 1.62,-0.18 -0.24,-1.62 -1.62,0.18 z m 0.42,3.24 0.24,1.62 1.62,-0.24 -0.24,-1.56 -1.62,0.18 z m 0.42,3.24 0.24,1.56 1.62,-0.18 -0.24,-1.62 -1.62,0.24 z m 0.48,3.18 0.18,1.62 1.62,-0.24 -0.24,-1.56 -1.56,0.18 z m 0.42,3.24 0.24,1.62 1.56,-0.24 -0.18,-1.62 -1.62,0.24 z m 0.42,3.18 0.12,0.72 0.12,0.9 1.62,-0.24 -0.18,-0.9 -0.06,-0.66 -1.62,0.18 z m 0.48,3.24 0.18,1.62 1.62,-0.24 -0.24,-1.62 -1.56,0.24 z m 0.42,3.18 0.24,1.56 0,0.06 1.62,-0.24 -0.24,-1.56 -1.62,0.18 z m 0.48,3.24 0.24,1.62 1.56,-0.24 -0.24,-1.62 -1.56,0.24 z m 0.42,3.24 0.24,1.56 1.62,-0.24 -0.24,-1.56 -1.62,0.24 z m 0.66,3.3 0.18,0.54 0.36,1.02 1.5,-0.6 -0.36,-0.96 -0.12,-0.54 -1.56,0.54 z m 1.14,3.06 0.48,1.2 0.18,0.36 1.44,-0.66 -0.12,-0.36 0,0.06 -0.48,-1.2 -1.5,0.6 z m 1.26,3 0.3,0.6 0.42,0.9 1.44,-0.66 -0.42,-0.9 -0.24,-0.6 -1.5,0.66 z m 1.38,3 0.6,1.44 1.5,-0.66 -0.66,-1.44 -1.44,0.66 z m 1.26,2.94 0.24,0.54 0.36,0.96 1.5,-0.6 -0.36,-0.96 -0.24,-0.54 -1.5,0.6 z m 1.14,2.94 0.42,1.2 0.06,0.36 1.56,-0.48 -0.12,-0.36 -0.36,-1.2 -1.56,0.48 z m 0.96,3.06 0.18,0.72 0.6,0.9 0.06,0.06 1.32,-0.9 -0.06,-0.12 -0.54,-0.72 0.12,0.24 -0.12,-0.6 -1.56,0.42 z m 1.68,3 0.06,0.06 -0.06,-0.06 0.24,0.42 -0.06,-0.06 0.18,0.42 0.18,0.36 0.06,0.18 1.5,-0.54 -0.06,-0.24 -0.18,-0.36 -0.18,-0.48 -0.24,-0.42 0,-0.12 -1.44,0.84 z m 1.08,2.82 0.24,0.66 0.24,0.9 1.56,-0.48 -0.3,-0.9 -0.18,-0.66 -1.56,0.48 z m 0.9,3.12 0.06,0.18 0.06,0.3 0.06,0.18 0.06,0.18 0,-0.06 0,0.06 0.06,0.24 0.6,0.66 1.2,-1.08 -0.48,-0.54 0.18,0.3 0,0.06 0,-0.06 -0.06,-0.18 0,0.06 -0.06,-0.24 -0.06,-0.3 -0.06,-0.18 -1.56,0.42 z m 1.92,2.94 0.42,0.48 0,-0.06 0.66,0.78 1.26,-1.02 -0.66,-0.78 -0.42,-0.48 -1.26,1.08 z m 2.04,2.46 0.24,0.3 0.72,1.02 1.32,-0.96 -0.78,-1.02 -0.24,-0.3 -1.26,0.96 z m 1.86,2.64 0.12,0.12 0,-0.06 0.78,1.26 1.38,-0.9 -0.84,-1.26 -0.06,-0.12 -1.38,0.96 z m 1.74,2.64 0.78,1.32 0,-0.06 0.06,0.12 1.38,-0.78 -0.06,-0.12 -0.78,-1.32 -1.38,0.84 z m 1.62,2.76 0.6,1.2 -0.06,-0.06 0.18,0.3 1.44,-0.72 -0.72,-1.44 -1.44,0.72 z m 1.38,2.88 0.42,1.02 0.18,0.48 1.5,-0.66 -0.18,-0.48 -0.42,-1.02 -1.5,0.66 z m 1.2,2.94 0.3,0.84 0.24,0.66 1.5,-0.48 -0.24,-0.72 -0.3,-0.84 -1.5,0.54 z m 1.32,3.18 0.12,0.12 0.48,0.72 0.36,0.48 1.32,-0.9 -0.3,-0.48 -0.54,-0.78 -0.06,-0.06 -1.38,0.9 z m 1.86,2.64 0.06,0.06 0.36,0.54 0.3,0.42 0.24,0.3 1.32,-0.9 -0.24,-0.3 -0.3,-0.48 -0.36,-0.48 -0.06,-0.06 -1.32,0.9 z m 1.86,2.7 0.18,0.24 0.18,0.18 -0.06,0 0.3,0.42 0.24,0.3 -0.06,0 0.12,0.18 1.38,-0.9 -0.6,-0.9 -0.36,-0.48 -1.32,0.96 z m 1.8,2.64 0,0.06 0.24,0.3 0.18,0.36 0.24,0.36 0.18,0.3 1.38,-0.84 -0.18,-0.3 -0.48,-0.72 -0.18,-0.3 -0.06,-0.06 -1.32,0.84 z m 1.98,2.94 0.36,0.24 0.6,0.42 0.36,0.24 0.96,-1.26 -0.36,-0.3 -0.6,-0.42 -0.36,-0.3 -0.96,1.38 z m 2.52,1.86 0.42,0.42 -0.06,-0.06 0.48,0.48 -0.06,-0.06 0.3,0.3 1.2,-1.08 -1.2,-1.2 -1.08,1.2 z m 1.98,2.28 0.24,0.36 0.3,0.54 0,-0.06 0.24,0.48 1.44,-0.72 -0.24,-0.48 -0.36,-0.6 -0.24,-0.42 -1.38,0.9 z m 1.32,2.7 0.3,0.9 0.78,0.78 1.14,-1.2 -0.66,-0.6 0.24,0.36 -0.24,-0.72 -1.56,0.48 z m 2.22,2.76 0.48,0.54 -0.06,-0.06 0.48,0.6 -0.06,-0.06 0.12,0.18 1.32,-0.96 -0.12,-0.12 -0.48,-0.66 -0.54,-0.54 -1.14,1.08 z m 1.68,2.46 0.12,0.24 -0.06,0 0.18,0.42 0.18,0.42 0,-0.06 0.12,0.42 1.56,-0.54 -0.18,-0.42 -0.12,-0.42 -0.24,-0.48 -0.12,-0.24 -1.44,0.66 z m 1.02,2.94 0.18,0.54 0.12,0.54 0.18,0.48 1.56,-0.42 -0.18,-0.54 -0.12,-0.54 -0.18,-0.54 -1.56,0.48 z m 0.9,3.12 0,0.12 0.12,0.24 0,0.24 0.06,0.12 0,0.06 0.06,0.18 0.48,0.72 1.38,-0.84 -0.42,-0.72 0.06,0.18 0.06,0.12 -0.06,-0.06 0,-0.18 -0.06,-0.18 -0.12,-0.3 0,-0.12 -1.56,0.42 z m 1.62,3.06 0.66,0.96 0.24,0.42 1.32,-0.96 -0.24,-0.36 -0.66,-0.96 -1.32,0.9 z m 1.86,2.7 0.96,1.26 0,0.06 1.32,-0.96 -0.06,-0.06 -0.9,-1.26 -1.32,0.96 z m 1.92,2.58 0.96,1.32 1.32,-0.96 -0.96,-1.32 -1.32,0.96 z m 1.92,2.64 0.96,1.32 1.32,-0.96 -0.96,-1.32 -1.32,0.96 z m 1.92,2.58 0.66,0.96 0.3,0.36 1.32,-0.9 -0.3,-0.42 -0.66,-0.96 -1.32,0.96 z m 1.86,2.64 0.9,1.38 1.38,-0.9 -0.9,-1.38 -1.38,0.9 z m 1.74,2.7 0.12,0.18 0.72,1.2 1.38,-0.84 -0.72,-1.2 -0.12,-0.18 -1.38,0.84 z m 1.62,2.76 0.3,0.54 0.42,0.9 1.44,-0.72 -0.42,-0.9 -0.3,-0.6 -1.44,0.78 z m 1.38,2.88 0.42,0.9 0.18,0.54 1.56,-0.6 -0.24,-0.6 -0.42,-0.9 -1.5,0.66 z m 1.2,2.94 0.24,0.72 0.24,0.78 1.56,-0.48 -0.24,-0.78 -0.3,-0.78 -1.5,0.54 z m 0.9,3.06 0.12,0.54 0,-0.06 0.24,1.02 1.62,-0.36 -0.24,-1.02 -0.18,-0.54 -1.56,0.42 z m 0.72,3.12 0.06,0.3 0.24,1.26 1.62,-0.3 -0.24,-1.26 -0.06,-0.36 -1.62,0.36 z m 0.6,3.12 0,0.12 0.24,1.5 1.56,-0.24 -0.18,-1.5 -0.06,-0.12 -1.56,0.24 z m 0.48,3.18 0.18,1.62 1.62,-0.24 -0.24,-1.56 -1.56,0.18 z m 0.42,3.24 0.18,1.56 1.62,-0.18 -0.24,-1.62 -1.56,0.24 z m 0.42,3.18 0.18,1.62 1.62,-0.24 -0.24,-1.56 -1.56,0.18 z m 0.24,3.06 -0.12,1.62 1.62,0.12 0.12,-1.62 -1.62,-0.12 z m -0.24,3.24 -0.12,1.2 -0.06,0.42 1.62,0.12 0.06,-0.42 0.12,-1.2 -1.62,-0.12 z m -0.3,3.24 -0.06,0.54 -0.06,1.02 1.62,0.18 0.06,-1.08 0.06,-0.54 -1.62,-0.12 z m -0.3,3.18 -0.12,1.2 -0.06,0.42 1.62,0.18 0.06,-0.42 0.12,-1.2 -1.62,-0.18 z m -0.42,3.18 -0.06,0.54 -0.18,1.08 1.62,0.24 0.18,-1.08 0.06,-0.54 -1.62,-0.24 z m -0.54,3.12 -0.24,1.14 -0.12,0.42 1.56,0.42 0.12,-0.48 0.24,-1.14 -1.56,-0.36 z m -0.78,3.12 -0.12,0.48 0.18,-0.36 -0.78,0.84 1.2,1.14 0.9,-0.96 0.18,-0.72 -1.56,-0.42 z m -1.86,2.04 -0.48,0.48 0.06,-0.06 -0.72,0.66 1.02,1.2 0.78,-0.66 0.48,-0.42 -1.14,-1.2 z m -2.4,2.1 -0.6,0.42 0.06,0 -0.72,0.54 0.96,1.32 0.72,-0.54 0.6,-0.48 -1.02,-1.26 z m -2.52,1.86 -0.72,0.48 -0.66,0.42 0.9,1.38 0.66,-0.48 0.72,-0.42 -0.9,-1.38 z m -2.76,1.68 -0.78,0.48 0.06,0 -0.66,0.3 0.78,1.44 0.66,-0.36 0.78,-0.42 -0.84,-1.44 z m -2.76,1.56 -1.5,0.66 0.72,1.5 1.5,-0.72 -0.72,-1.44 z m -2.94,1.32 -0.96,0.42 -0.48,0.18 0.6,1.5 0.48,-0.18 1.02,-0.42 -0.66,-1.5 z m -2.94,1.2 -0.06,0 -1.44,0.54 0.54,1.5 1.44,-0.48 0.06,-0.06 -0.54,-1.5 z m -3.06,1.08 -1.14,0.36 -0.36,0.12 0.48,1.56 0.36,-0.12 1.2,-0.42 -0.54,-1.5 z m -3.06,0.9 -0.18,0.06 -1.38,0.36 0.42,1.56 1.38,-0.36 0.24,-0.06 -0.48,-1.56 z m -3.12,0.84 -1.26,0.3 -0.3,0.06 0.36,1.62 0.3,-0.06 1.32,-0.36 -0.42,-1.56 z m -3.12,0.78 -0.24,0 0.24,0 -1.26,-0.06 -0.18,0 0,1.62 0.12,0 1.38,0.06 0.3,-0.06 L 99,391.8 z m -3.06,-0.06 -1.62,0 0,1.62 1.62,0 0,-1.62 z m -3.24,0.06 -1.62,0 0,1.62 1.62,0 0,-1.62 z m -3.24,0.06 -1.62,0 0,1.62 1.62,0 0,-1.62 z m -3.24,0 -1.62,0 0,1.62 1.62,0 0,-1.62 z m -3.18,-0.06 -0.6,0 -1.02,-0.12 -0.12,1.62 1.02,0.12 0.6,0 0.12,-1.62 z m -3.18,-0.3 -0.6,-0.06 0.06,0 -1.02,-0.18 -0.3,1.56 1.02,0.24 0.6,0.06 0.24,-1.62 z m -3.06,-0.6 -0.42,-0.12 -0.96,-0.36 0.06,0.06 -0.12,-0.06 -0.6,1.5 0.12,0.06 1.02,0.3 0.48,0.18 0.42,-1.56 z m -2.88,-1.14 -0.3,-0.12 0.06,0.06 -0.96,-0.54 0.06,0.06 -0.24,-0.18 -0.84,1.38 0.24,0.18 0.96,0.54 0.3,0.12 0.72,-1.5 z m -2.64,-1.56 -0.24,-0.18 0.06,0.06 -0.84,-0.72 0,0.06 -0.18,-0.18 -1.08,1.14 0.18,0.24 0.9,0.72 0.24,0.18 0.96,-1.32 z m -2.28,-2.1 -0.3,-0.3 0,0.06 -0.72,-0.96 -1.26,1.02 0.78,0.96 0.3,0.36 1.2,-1.14 z m -1.92,-2.46 -0.24,-0.24 0.06,0 -0.48,-0.66 -0.6,-0.48 -0.96,1.32 0.48,0.36 -0.18,-0.24 0.54,0.9 1.38,-0.96 z m -2.46,-2.34 -0.24,-0.18 -0.6,-0.54 0.06,0 -0.42,-0.36 -1.08,1.2 0.36,0.36 0.6,0.54 0.24,0.18 1.08,-1.2 z m -2.28,-2.22 -0.06,0 -0.42,-0.54 0,0.06 -0.42,-0.54 -0.12,-0.12 -1.26,0.96 0.12,0.18 0.42,0.54 0.48,0.54 0.06,0.06 1.2,-1.14 z m -1.92,-2.46 -0.12,-0.18 0,0.06 -0.66,-1.14 0,0.06 -0.06,-0.06 -1.38,0.78 0,0.06 0.72,1.14 0.18,0.24 1.32,-0.96 z m -1.56,-2.7 -0.42,-0.78 -0.3,-0.66 -1.44,0.72 0.72,1.44 1.44,-0.72 z m -1.38,-2.88 -0.12,-0.36 -0.48,-1.14 -1.5,0.6 0.48,1.14 0.18,0.42 1.44,-0.66 z m -1.2,-3 0,-0.06 -0.6,-1.38 -0.06,-0.06 -1.44,0.66 0.6,1.44 1.5,-0.6 z m -1.26,-3 -0.66,-1.5 -1.5,0.66 0.66,1.5 1.5,-0.66 z m -1.44,-3 -0.18,-0.36 -0.54,-0.9 -0.12,-0.18 -1.38,0.84 0.12,0.18 0.48,0.84 0.18,0.36 1.44,-0.78 z m -1.62,-2.82 -0.12,-0.18 0,0.06 -0.48,-0.9 -0.18,-0.36 -1.44,0.72 0.18,0.42 0.54,0.9 0.06,0.18 1.44,-0.84 z m -1.38,-2.82 0,0.06 -0.36,-1.14 0,0.06 -0.06,-0.42 -1.56,0.42 0.06,0.42 0.36,1.2 0.06,0.06 1.5,-0.66 z m -0.84,-3 -0.06,-0.24 0.06,0 -0.24,-1.14 0,0.06 0,-0.18 -1.62,0.24 0,0.18 0.24,1.2 0.06,0.24 1.56,-0.36 z m -0.48,-3.12 -0.06,-0.54 -0.12,-1.02 -1.62,0.18 0.12,1.02 0.06,0.6 1.62,-0.24 z m -0.36,-3.18 -0.12,-1.62 -1.62,0.18 0.18,1.56 1.56,-0.12 z m -0.24,-3.24 -0.12,-1.2 -0.06,-0.42 -1.62,0.18 0.06,0.42 0.12,1.2 1.62,-0.18 z m -0.42,-3.24 0,-0.3 -0.24,-1.2 0,-0.18 -1.62,0.36 0.06,0.12 0.18,1.14 0,0.3 1.62,-0.24 z m -0.6,-3.24 -0.36,-1.62 -1.62,0.42 0.42,1.56 1.56,-0.36 z m -0.78,-3.18 -0.36,-1.56 -1.56,0.36 0.36,1.56 1.56,-0.36 z m -0.72,-3.18 -0.36,-1.56 -1.62,0.36 0.42,1.62 1.56,-0.42 z m -0.78,-3.12 -0.36,-1.56 -1.56,0.36 0.36,1.56 1.56,-0.36 z m -0.72,-3.18 -0.18,-0.54 -0.24,-1.02 -1.56,0.36 0.24,1.02 0.12,0.6 1.62,-0.42 z m -0.78,-3.12 -0.36,-1.56 -1.62,0.36 0.42,1.56 1.56,-0.36 z m -0.78,-3.18 -0.24,-1.14 -0.12,-0.42 -1.56,0.36 0.06,0.42 0.3,1.2 1.56,-0.42 z m -0.72,-3.12 -0.36,-1.62 -1.62,0.42 0.36,1.56 1.62,-0.36 z m -0.78,-3.18 -0.36,-1.56 -1.56,0.36 0.36,1.56 1.56,-0.36 z m -0.78,-3.18 -0.24,-1.02 -0.18,-0.54 -1.56,0.42 0.18,0.54 0.24,1.02 1.56,-0.42 z m -0.9,-3.12 -0.06,-0.36 -0.42,-1.2 -1.56,0.48 0.42,1.26 0,-0.06 0.12,0.36 1.5,-0.48 z m -0.96,-3.12 -0.54,-1.56 -1.5,0.54 0.48,1.56 1.56,-0.54 z m -1.02,-3.06 -0.48,-1.44 0,-0.12 -1.56,0.48 0,0.12 0.48,1.44 1.56,-0.48 z m -0.96,-3.06 -0.24,-0.84 -0.24,-0.72 -1.56,0.42 0.48,1.56 1.56,-0.42 z m -0.84,-3.12 -0.06,-0.18 -0.3,-1.2 0,-0.18 -1.62,0.36 0.06,0.12 0.3,1.32 0,0.18 1.62,-0.42 z m -0.66,-3.12 -0.3,-1.56 -1.56,0.24 0.24,1.62 1.62,-0.3 z m -0.54,-3.18 -0.24,-1.62 -1.62,0.24 0.24,1.62 1.62,-0.24 z m -0.48,-3.18 -0.18,-1.62 -1.62,0.24 0.24,1.56 1.56,-0.18 z m -0.36,-3.18 -0.18,-1.62 -1.62,0.18 0.18,1.62 1.62,-0.18 z m -0.36,-3.24 -0.12,-1.62 -1.62,0.18 0.12,1.62 1.62,-0.18 z m -0.3,-3.24 -0.12,-1.62 -1.62,0.18 0.12,1.62 1.62,-0.18 z m -0.24,-3.18 -0.12,-1.62 -1.62,0.12 0.12,1.62 1.62,-0.12 z M 33,267.9 l -0.12,-1.62 -1.62,0.12 0.12,1.56 1.62,-0.06 z m -0.24,-3.24 -0.06,-1.62 -1.62,0.06 0.06,1.62 1.62,-0.06 z m -0.12,-3.24 -0.06,-1.62 -1.62,0.06 0.06,1.62 1.62,-0.06 z m -0.18,-3.24 -0.06,-1.62 -1.62,0.06 0.06,1.62 1.62,-0.06 z m -0.12,-3.24 -0.06,-1.62 -1.62,0.06 0.06,1.62 1.62,-0.06 z m -0.12,-3.24 -0.06,-1.62 -1.62,0.06 0.06,1.62 1.62,-0.06 z m -0.12,-3.24 -0.06,-1.5 0,-0.12 -1.62,0.06 0,0.12 0.06,1.5 1.62,-0.06 z m -0.12,-3.24 -0.06,-1.62 -1.62,0.06 0.06,1.62 1.62,-0.06 z m -0.12,-3.24 -0.06,-1.38 -0.12,-0.36 -1.56,0.36 0.06,0.36 0,-0.18 0.06,1.26 1.62,-0.06 z m -0.6,-3.36 -0.36,-1.32 -0.06,-0.24 -1.56,0.42 0.06,0.24 0.36,1.32 1.56,-0.42 z M 30.42,235.5 30,234 l -0.06,-0.06 -1.56,0.48 0.06,0.12 0,-0.06 0.42,1.44 1.56,-0.42 z m -0.96,-3.12 -0.48,-1.56 -1.56,0.48 0.48,1.56 1.56,-0.48 z m -1.02,-3.12 -0.48,-1.5 -1.56,0.48 0.48,1.56 1.56,-0.54 z m -1.02,-3.06 -0.54,-1.56 -1.5,0.54 0.48,1.56 1.56,-0.54 z m -1.02,-3.06 -0.48,-1.56 -1.56,0.48 0.54,1.56 1.5,-0.48 z m -0.96,-3.12 -0.06,-0.36 0,0.06 -0.36,-1.2 -1.56,0.42 0.36,1.2 0.06,0.36 1.56,-0.48 z m -0.84,-3.06 -0.12,-0.48 -0.3,-1.08 -1.56,0.36 0.3,1.14 0.12,0.48 1.56,-0.42 z m -1.14,-3.24 -0.06,-0.12 -0.36,-0.54 0.06,0 -0.36,-0.6 -0.06,-0.12 -1.44,0.72 0.06,0.12 0.36,0.66 0.3,0.54 0.06,0.12 1.44,-0.78 z m -1.5,-2.82 -0.48,-1.02 -0.18,-0.42 -1.5,0.66 0.24,0.42 0.48,1.08 1.44,-0.72 z m -1.32,-2.94 -0.42,-0.96 -0.18,-0.48 -1.5,0.6 0.18,0.48 0.42,1.02 1.5,-0.66 z m -1.2,-2.94 -0.42,-1.08 -0.18,-0.42 -1.5,0.54 0.12,0.48 0.42,1.08 1.56,-0.6 z m -1.14,-3 -0.42,-1.2 0,0.06 -0.12,-0.42 -1.56,0.54 0.12,0.36 0.42,1.2 1.56,-0.54 z m -1.02,-3.06 -0.36,-1.14 -0.12,-0.42 -1.56,0.48 0.12,0.36 0.36,1.2 1.56,-0.48 z m -0.9,-3.06 -0.24,-0.96 0,0.06 -0.12,-0.66 -1.62,0.36 0.18,0.66 0.24,0.9 1.56,-0.36 z m -0.72,-3.12 -0.06,-0.36 -0.18,-1.2 -1.62,0.24 0.18,1.2 0.12,0.42 1.56,-0.3 z m -0.48,-3.18 -0.06,-0.48 -0.12,-1.14 -1.62,0.24 0.18,1.62 1.62,-0.24 z m -0.36,-3.18 -0.06,-0.66 -0.12,-0.96 -1.62,0.18 0.12,0.96 0.06,0.66 1.62,-0.18 z m -0.36,-3.24 -0.06,-0.78 -0.06,-0.84 -1.62,0.18 0.06,0.84 0.12,0.78 1.56,-0.18 z m -0.3,-3.24 -0.06,-0.9 -0.12,-0.72 -1.56,0.18 0.06,0.72 0.06,0.9 1.62,-0.18 z m -0.3,-3.24 -0.12,-1.02 -0.12,-0.6 -1.62,0.24 0.12,0.6 0,-0.06 0.12,1.08 1.62,-0.24 z m -0.42,-3.24 -0.18,-1.14 -0.12,-0.48 -1.56,0.3 0.06,0.42 0.18,1.14 1.62,-0.24 z m -0.54,-3.24 -0.3,-1.26 -0.06,-0.3 -1.56,0.36 0.06,0.3 0,-0.06 0.24,1.32 1.62,-0.36 z m -0.72,-3.18 -0.36,-1.44 -0.06,-0.18 -1.56,0.48 0.06,0.12 0.36,1.44 1.56,-0.42 z m -0.84,-3.18 -0.42,-1.5 0,-0.06 -1.56,0.48 0.42,1.56 1.56,-0.48 z m -0.9,-3.12 -0.42,-1.56 -1.56,0.48 0.42,1.56 1.56,-0.48 z m -0.9,-3.12 -0.48,-1.56 -1.56,0.48 0.48,1.56 1.56,-0.48 z m -1.02,-3.06 0,-0.18 -0.54,-1.38 -1.5,0.54 0.48,1.38 0.06,0.12 1.5,-0.48 z m -1.08,-3.12 -0.06,-0.12 -0.54,-1.38 -1.5,0.6 0.54,1.38 0,-0.06 0,0.18 1.56,-0.6 z m -1.26,-3 -0.06,-0.18 -0.6,-1.32 -1.44,0.66 0.6,1.32 0.06,0.12 1.44,-0.6 z m -1.38,-3 -0.06,-0.18 -0.66,-1.32 -1.44,0.78 0.66,1.26 0.06,0.18 1.44,-0.72 z m -1.5,-2.94 -0.12,-0.18 -0.72,-1.2 -1.38,0.84 0.72,1.2 -0.06,-0.06 0.12,0.24 1.44,-0.84 z m -1.62,-2.76 -0.18,-0.3 0.06,0 -0.24,-0.54 -0.24,-0.6 0,0.06 -1.5,0.54 0.24,0.66 0.24,0.54 0.18,0.36 1.44,-0.72 z m -1.14,-2.88 -0.06,-0.36 0,0.06 -0.36,-1.26 -1.56,0.48 0.36,1.2 0.12,0.36 1.5,-0.48 z m -0.78,-3.06 -0.3,-1.32 -0.06,-0.24 -1.56,0.3 0.06,0.3 0.24,1.26 1.62,-0.3 z m -0.66,-3.18 -0.12,-0.96 -0.12,-0.6 -1.62,0.24 0.12,0.6 0.18,1.02 1.56,-0.3 z m -0.48,-3.18 -0.06,-0.6 -0.18,-0.96 -1.56,0.18 0.12,1.02 0.06,0.6 1.62,-0.24 z m -0.42,-3.18 0,-0.12 -0.18,-1.26 -0.06,-0.24 -1.56,0.24 0,0.18 0.18,1.26 0,0.12 1.62,-0.18 z m -0.42,-3.24 -0.06,-0.42 0,0.18 0.06,-1.2 -1.62,-0.12 -0.06,1.26 0.06,0.54 1.62,-0.24 z m 0.12,-3.06 0.06,-1.2 0,-0.42 -1.62,-0.12 0,0.48 -0.06,1.14 1.62,0.12 z m 0.18,-3.24 0.06,-1.62 -1.62,-0.06 -0.06,1.62 1.62,0.06 z m 0.18,-3.24 0.06,-1.62 -1.62,-0.06 -0.06,1.62 1.62,0.06 z m 0.12,-3.24 0.06,-1.62 -1.62,-0.06 -0.06,1.62 1.62,0.06 z m 0.12,-3.24 0.06,-1.62 -1.62,-0.06 -0.06,1.62 1.62,0.06 z m 0.12,-3.24 0.06,-1.62 -1.62,-0.06 -0.06,1.62 1.62,0.06 z m 0.12,-3.24 0,-1.62 -1.62,-0.06 0,1.62 1.62,0.06 z m -1.56,-3.3 1.62,0 0,-1.62 -1.62,0 0,1.62 z m 1.62,0 z m 0.06,-3.24 0.06,-1.62 -1.62,0 -0.06,1.62 1.62,0 z m -1.56,-3.24 1.62,0 0,-1.62 -1.62,0 0,1.62 z m 1.62,0 z m -1.62,-3.24 1.62,0 0,-1.62 -1.62,0 0,1.62 z m 1.62,0 z m -1.62,-3.24 1.62,0 0,-1.62 -1.62,0 0,1.62 z m 1.62,0 z m -1.62,-3.24 1.62,0 0,-1.62 -1.62,0 0,1.62 z m 1.62,0 z m -1.62,-3.24 1.62,0 0,-1.62 -1.62,0 0,1.62 z m 1.62,0 z m 0,-3.24 -0.06,-1.14 0,-0.48 -1.62,0 0,0.48 0.06,1.14 1.62,0 z m -0.06,-3.24 -0.06,-1.62 -1.62,0 0.06,1.62 1.62,0 z m -0.06,-3.24 -0.06,-1.62 -1.62,0 0.06,1.62 1.62,0 z m -0.06,-3.24 -0.06,-1.62 -1.62,0 0.06,1.62 1.62,0 z m -0.06,-3.24 0,-0.42 -0.18,-1.26 -1.56,0.12 0.12,1.26 0,-0.06 0,0.36 1.62,0 z m -0.3,-3.3 -0.12,-1.38 -0.06,-0.24 -1.62,0.12 0.06,0.3 0.12,1.32 1.62,-0.12 z m -0.24,-3.24 -0.12,-1.62 -1.62,0.12 0.12,1.62 1.62,-0.12 z m -0.24,-3.18 -0.06,-1.62 -1.62,0.06 0.06,1.62 1.62,-0.06 z m -0.12,-3.24 0,-0.12 -0.06,-1.5 -1.62,0 0.06,1.5 0,0.18 1.62,-0.06 z m -0.06,-3.24 0,-1.14 0,0.06 0,-0.54 -1.62,0 0,1.62 1.62,0 z m -1.62,-3.24 1.62,0 0,-1.62 -1.62,0 0,1.62 z m 1.62,0 z m 0,-3.24 0.06,-1.62 -1.62,0 -0.06,1.62 1.62,0 z m 0.12,-3.18 0.06,-1.62 -1.62,-0.06 -0.06,1.62 1.62,0.06 z m 0.12,-3.24 0,-0.9 0,0.06 0.06,-0.78 -1.62,-0.12 -0.06,0.78 0,0.9 1.62,0.06 z m 0.12,-3.24 0.12,-1.62 -1.62,-0.12 -0.12,1.62 1.62,0.12 z M -1.74,24 -1.62,22.38 -3.24,22.26 -3.36,23.88 -1.74,24 z m 0.24,-3.24 0.06,-1.62 -1.56,-0.12 -0.12,1.62 1.62,0.12 z m 0.18,-3.24 0.06,-0.6 0.06,-1.02 -1.62,-0.12 -0.06,1.02 -0.06,0.6 1.62,0.12 z m 0.24,-3.24 0.12,-1.62 -1.62,-0.12 -0.12,1.62 1.62,0.12 z m 0.24,-3.24 0.12,-1.56 -1.62,-0.12 -0.12,1.56 1.62,0.12 z M -0.6,7.86 -0.48,6.24 -2.1,6.12 -2.22,7.74 -0.6,7.86 z M -0.36,4.62 -0.24,3 -1.86,2.88 -1.98,4.5 -0.36,4.62 z M -0.12,1.38 0,0 -1.62,-0.12 -1.74,1.26"
         style="fill:#000000;fill-opacity:1;fill-rule:nonzero;stroke:none"
         id="path3613" />
    </g>
    <path
       style="fill:none;stroke:#000000;stroke-width:1.00074756px;stroke-linecap:butt;stroke-linejoin:miter;stroke-opacity:1"
       d="m 283.27325,530.42077 -148.07831,0"
       id="path3800"
       inkscape:connector-curvature="0" />
  </g>
</svg>
