<?xml version="1.0" encoding="UTF-8" standalone="no"?>
<!-- Created with Inkscape (http://www.inkscape.org/) -->

<svg
   xmlns:dc="http://purl.org/dc/elements/1.1/"
   xmlns:cc="http://creativecommons.org/ns#"
   xmlns:rdf="http://www.w3.org/1999/02/22-rdf-syntax-ns#"
   xmlns:svg="http://www.w3.org/2000/svg"
   xmlns="http://www.w3.org/2000/svg"
   xmlns:sodipodi="http://sodipodi.sourceforge.net/DTD/sodipodi-0.dtd"
   xmlns:inkscape="http://www.inkscape.org/namespaces/inkscape"
   width="1077.1758"
   height="520.30487"
   id="svg2"
   version="1.1"
   inkscape:version="0.48.4 r9939"
   sodipodi:docname="New document 1">
  <defs
     id="defs4">
    <marker
       inkscape:stockid="Arrow1Lend"
       orient="auto"
       refY="0"
       refX="0"
       id="Arrow1Lend"
       style="overflow:visible">
      <path
         id="path4549"
         d="M 0,0 5,-5 -12.5,0 5,5 0,0 z"
         style="fill-rule:evenodd;stroke:#000000;stroke-width:1pt"
         transform="matrix(-0.8,0,0,-0.8,-10,0)"
         inkscape:connector-curvature="0" />
    </marker>
    <clipPath
       clipPathUnits="userSpaceOnUse"
       id="clipPath6712">
      <path
         inkscape:connector-curvature="0"
         d="m 588.84,0.11053 -582.72,0 0,841.86 582.72,0 0,-841.86 z"
         clip-rule="evenodd"
         id="path6714" />
    </clipPath>
    <clipPath
       clipPathUnits="userSpaceOnUse"
       id="clipPath6718">
      <path
         inkscape:connector-curvature="0"
         d="m 0,841.98 595.2,0 L 595.2,0 0,0 0,841.98 z"
         id="path6720" />
    </clipPath>
    <clipPath
       clipPathUnits="userSpaceOnUse"
       id="clipPath6818">
      <path
         inkscape:connector-curvature="0"
         d="m 206.88,493.371 265.44,0 0,0.06 -265.44,0 0,-0.06 z"
         id="path6820" />
    </clipPath>
    <clipPath
       clipPathUnits="userSpaceOnUse"
       id="clipPath6832">
      <path
         inkscape:connector-curvature="0"
         d="m 208.26,805.49 264.06,0 0,0.0601 -264.06,0 0,-0.0601 z"
         id="path6834" />
    </clipPath>
    <clipPath
       clipPathUnits="userSpaceOnUse"
       id="clipPath6846">
      <path
         inkscape:connector-curvature="0"
         d="m 224.46,343.851 247.86,0 0,0.06 -247.86,0 0,-0.06 z"
         id="path6848" />
    </clipPath>
    <clipPath
       clipPathUnits="userSpaceOnUse"
       id="clipPath6860">
      <path
         inkscape:connector-curvature="0"
         d="m 225.84,521.751 246.48,0 0,0.06 -246.48,0 0,-0.06 z"
         id="path6862" />
    </clipPath>
    <clipPath
       clipPathUnits="userSpaceOnUse"
       id="clipPath6874">
      <path
         inkscape:connector-curvature="0"
         d="m 225.84,550.131 246.48,0 0,0.06 -246.48,0 0,-0.06 z"
         id="path6876" />
    </clipPath>
    <clipPath
       clipPathUnits="userSpaceOnUse"
       id="clipPath6888">
      <path
         inkscape:connector-curvature="0"
         d="m 225.84,578.51 246.48,0 0,0.0601 -246.48,0 0,-0.0601 z"
         id="path6890" />
    </clipPath>
    <clipPath
       clipPathUnits="userSpaceOnUse"
       id="clipPath6902">
      <path
         inkscape:connector-curvature="0"
         d="m 225.84,606.831 246.48,0 0,0.0599 -246.48,0 0,-0.0599 z"
         id="path6904" />
    </clipPath>
    <clipPath
       clipPathUnits="userSpaceOnUse"
       id="clipPath6916">
      <path
         inkscape:connector-curvature="0"
         d="m 225.84,635.211 246.48,0 0,0.06 -246.48,0 0,-0.06 z"
         id="path6918" />
    </clipPath>
    <clipPath
       clipPathUnits="userSpaceOnUse"
       id="clipPath6930">
      <path
         inkscape:connector-curvature="0"
         d="m 225.84,663.591 246.48,0 0,0.06 -246.48,0 0,-0.06 z"
         id="path6932" />
    </clipPath>
    <clipPath
       clipPathUnits="userSpaceOnUse"
       id="clipPath6944">
      <path
         inkscape:connector-curvature="0"
         d="m 225.84,691.971 246.48,0 0,0.0599 -246.48,0 0,-0.0599 z"
         id="path6946" />
    </clipPath>
    <clipPath
       clipPathUnits="userSpaceOnUse"
       id="clipPath6958">
      <path
         inkscape:connector-curvature="0"
         d="m 225.84,720.351 246.48,0 0,0.06 -246.48,0 0,-0.06 z"
         id="path6960" />
    </clipPath>
    <clipPath
       clipPathUnits="userSpaceOnUse"
       id="clipPath6972">
      <path
         inkscape:connector-curvature="0"
         d="m 225.84,748.73 246.48,0 0,0.0601 -246.48,0 0,-0.0601 z"
         id="path6974" />
    </clipPath>
    <clipPath
       clipPathUnits="userSpaceOnUse"
       id="clipPath6986">
      <path
         inkscape:connector-curvature="0"
         d="m 225.84,777.11 246.48,0 0,0.0601 -246.48,0 0,-0.0601 z"
         id="path6988" />
    </clipPath>
    <clipPath
       clipPathUnits="userSpaceOnUse"
       id="clipPath7000">
      <path
         inkscape:connector-curvature="0"
         d="m 206.88,494.691 0.06,0 0,312.12 -0.06,0 0,-312.12 z"
         id="path7002" />
    </clipPath>
    <clipPath
       clipPathUnits="userSpaceOnUse"
       id="clipPath7014">
      <path
         inkscape:connector-curvature="0"
         d="m 224.46,345.171 0.06,0 0,461.64 -0.06,0 0,-461.64 z"
         id="path7016" />
    </clipPath>
    <clipPath
       clipPathUnits="userSpaceOnUse"
       id="clipPath7028">
      <path
         inkscape:connector-curvature="0"
         d="m 242.1,494.691 0.06,0 0,312.12 -0.06,0 0,-312.12 z"
         id="path7030" />
    </clipPath>
    <clipPath
       clipPathUnits="userSpaceOnUse"
       id="clipPath7042">
      <path
         inkscape:connector-curvature="0"
         d="m 259.68,494.691 0.06,0 0,312.12 -0.06,0 0,-312.12 z"
         id="path7044" />
    </clipPath>
    <clipPath
       clipPathUnits="userSpaceOnUse"
       id="clipPath7056">
      <path
         inkscape:connector-curvature="0"
         d="m 277.32,494.691 0.06,0 0,312.12 -0.06,0 0,-312.12 z"
         id="path7058" />
    </clipPath>
    <clipPath
       clipPathUnits="userSpaceOnUse"
       id="clipPath7070">
      <path
         inkscape:connector-curvature="0"
         d="m 294.9,494.691 0.06,0 0,312.12 -0.06,0 0,-312.12 z"
         id="path7072" />
    </clipPath>
    <clipPath
       clipPathUnits="userSpaceOnUse"
       id="clipPath7084">
      <path
         inkscape:connector-curvature="0"
         d="m 312.54,494.691 0.06,0 0,312.12 -0.06,0 0,-312.12 z"
         id="path7086" />
    </clipPath>
    <clipPath
       clipPathUnits="userSpaceOnUse"
       id="clipPath7098">
      <path
         inkscape:connector-curvature="0"
         d="m 330.12,494.691 0.06,0 0,312.12 -0.06,0 0,-312.12 z"
         id="path7100" />
    </clipPath>
    <clipPath
       clipPathUnits="userSpaceOnUse"
       id="clipPath7112">
      <path
         inkscape:connector-curvature="0"
         d="m 347.7,494.691 0.06,0 0,312.12 -0.06,0 0,-312.12 z"
         id="path7114" />
    </clipPath>
    <clipPath
       clipPathUnits="userSpaceOnUse"
       id="clipPath7126">
      <path
         inkscape:connector-curvature="0"
         d="m 365.34,494.691 0.06,0 0,312.12 -0.06,0 0,-312.12 z"
         id="path7128" />
    </clipPath>
    <clipPath
       clipPathUnits="userSpaceOnUse"
       id="clipPath7140">
      <path
         inkscape:connector-curvature="0"
         d="m 382.92,494.691 0.06,0 0,312.12 -0.06,0 0,-312.12 z"
         id="path7142" />
    </clipPath>
    <clipPath
       clipPathUnits="userSpaceOnUse"
       id="clipPath7154">
      <path
         inkscape:connector-curvature="0"
         d="m 400.56,494.691 0.06,0 0,312.12 -0.06,0 0,-312.12 z"
         id="path7156" />
    </clipPath>
    <clipPath
       clipPathUnits="userSpaceOnUse"
       id="clipPath7168">
      <path
         inkscape:connector-curvature="0"
         d="m 418.14,494.691 0.06,0 0,312.12 -0.06,0 0,-312.12 z"
         id="path7170" />
    </clipPath>
    <clipPath
       clipPathUnits="userSpaceOnUse"
       id="clipPath7182">
      <path
         inkscape:connector-curvature="0"
         d="m 435.72,494.691 0.06,0 0,312.12 -0.06,0 0,-312.12 z"
         id="path7184" />
    </clipPath>
    <clipPath
       clipPathUnits="userSpaceOnUse"
       id="clipPath7196">
      <path
         inkscape:connector-curvature="0"
         d="m 453.36,494.691 0.06,0 0,312.12 -0.06,0 0,-312.12 z"
         id="path7198" />
    </clipPath>
    <clipPath
       clipPathUnits="userSpaceOnUse"
       id="clipPath7210">
      <path
         inkscape:connector-curvature="0"
         d="m 470.94,345.171 0.06,0 0,461.64 -0.06,0 0,-461.64 z"
         id="path7212" />
    </clipPath>
  </defs>
  <sodipodi:namedview
     id="base"
     pagecolor="#ffffff"
     bordercolor="#666666"
     borderopacity="1.0"
     inkscape:pageopacity="0.0"
     inkscape:pageshadow="2"
     inkscape:zoom="0.98994949"
     inkscape:cx="255.59189"
     inkscape:cy="327.79715"
     inkscape:document-units="px"
     inkscape:current-layer="layer1"
     showgrid="false"
     fit-margin-top="10"
     fit-margin-left="10"
     fit-margin-right="10"
     fit-margin-bottom="10"
     inkscape:window-width="954"
     inkscape:window-height="1028"
     inkscape:window-x="0"
     inkscape:window-y="0"
     inkscape:window-maximized="0" />
  <metadata
     id="metadata7">
    <rdf:RDF>
      <cc:Work
         rdf:about="">
        <dc:format>image/svg+xml</dc:format>
        <dc:type
           rdf:resource="http://purl.org/dc/dcmitype/StillImage" />
        <dc:title></dc:title>
      </cc:Work>
    </rdf:RDF>
  </metadata>
  <g
     inkscape:label="Layer 1"
     inkscape:groupmode="layer"
     id="layer1"
     transform="translate(305.149,-253.13718)">
    <text
       id="text6744"
       x="-158.67384"
       y="283.08719"
       style="font-size:15px">
      <tspan
         style="font-size:24.30000114px;font-variant:normal;font-weight:normal;font-stretch:normal;writing-mode:lr-tb;fill:#000000;fill-opacity:1;fill-rule:nonzero;stroke:none;font-family:Courier New;-inkscape-font-specification:CourierNewPSMT"
         x="-158.67384 -144.16673 -129.65964 -115.15253 -100.64543 -86.138329 -71.631233 -57.124134 -42.617027 -28.109936"
         y="283.08719"
         sodipodi:role="line"
         id="tspan6746">A[0]=B[0];</tspan>
      <tspan
         style="font-size:24.30000114px;font-variant:normal;font-weight:normal;font-stretch:normal;writing-mode:lr-tb;fill:#000000;fill-opacity:1;fill-rule:nonzero;stroke:none;font-family:Courier New;-inkscape-font-specification:CourierNewPSMT"
         x="-158.67384 -144.16673 -129.65964 -115.15253 -100.64543 -86.138329 -71.631233 -57.124134 -42.617027 -28.109936 -13.602833 0.90427023"
         y="318.93698"
         sodipodi:role="line"
         id="tspan6748">A[0]=A[0]+1;</tspan>
      <tspan
         style="font-size:24.30000114px;font-variant:normal;font-weight:normal;font-stretch:normal;writing-mode:lr-tb;fill:#000000;fill-opacity:1;fill-rule:nonzero;stroke:none;font-family:Courier New;-inkscape-font-specification:CourierNewPSMT"
         x="-158.67384 -144.16673 -129.65964 -115.15253 -100.64543 -86.138329 -71.631233 -57.124134 -42.617027 -28.109936"
         y="354.78677"
         sodipodi:role="line"
         id="tspan6750">A[1]=B[1];</tspan>
      <tspan
         style="font-size:24.30000114px;font-variant:normal;font-weight:normal;font-stretch:normal;writing-mode:lr-tb;fill:#000000;fill-opacity:1;fill-rule:nonzero;stroke:none;font-family:Courier New;-inkscape-font-specification:CourierNewPSMT"
         x="-158.67384 -144.17645 -129.67908 -115.18169 -100.68431 -86.186928 -71.689552 -57.192177 -42.69479 -28.182835 -13.68545 0.81192595 15.309299 29.806675 44.304073 58.816021 73.313416 87.810791 102.30817"
         y="390.71188"
         sodipodi:role="line"
         id="tspan6752">for(i=0; i&lt;98; i++)</tspan>
      <tspan
         style="font-size:24.30000114px;font-variant:normal;font-weight:normal;font-stretch:normal;writing-mode:lr-tb;fill:#000000;fill-opacity:1;fill-rule:nonzero;stroke:none;font-family:Courier New;-inkscape-font-specification:CourierNewPSMT"
         x="-158.67384"
         y="426.56168"
         id="tspan6754">{</tspan>
      <tspan
         style="font-size:24.30000114px;font-variant:normal;font-weight:normal;font-stretch:normal;writing-mode:lr-tb;fill:#000000;fill-opacity:1;fill-rule:nonzero;stroke:none;font-family:Courier New;-inkscape-font-specification:CourierNewPSMT"
         x="-122.52272 -108.01562 -93.508522 -79.001427 -64.494324 -49.987225 -35.480122 -20.973038 -6.4659252 8.0411758"
         y="462.48679"
         sodipodi:role="line"
         id="tspan6756">C[i]=A[i];</tspan>
      <tspan
         style="font-size:24.30000114px;font-variant:normal;font-weight:normal;font-stretch:normal;writing-mode:lr-tb;fill:#000000;fill-opacity:1;fill-rule:nonzero;stroke:none;font-family:Courier New;-inkscape-font-specification:CourierNewPSMT"
         x="-122.52272 -108.02048 -93.518242 -79.015999 -64.513763 -50.011524 -35.509285 -21.007046 -6.5048065 7.9974403 22.49968 37.001919 51.504162 66.006401 80.508636 95.01088"
         y="498.33658"
         sodipodi:role="line"
         id="tspan6758">A[i+1]=A[i+1]+1;</tspan>
      <tspan
         style="font-size:24.30000114px;font-variant:normal;font-weight:normal;font-stretch:normal;writing-mode:lr-tb;fill:#000000;fill-opacity:1;fill-rule:nonzero;stroke:none;font-family:Courier New;-inkscape-font-specification:CourierNewPSMT"
         x="-122.52272 -108.02291 -93.523102 -79.023293 -64.523483 -50.023674 -35.523865 -21.02405 -6.5242424 7.975563 22.47538 36.975178 51.474995 65.974815"
         y="534.26172"
         sodipodi:role="line"
         id="tspan6760">A[i+2]=B[i+2];</tspan>
      <tspan
         style="font-size:24.30000114px;font-variant:normal;font-weight:normal;font-stretch:normal;writing-mode:lr-tb;fill:#000000;fill-opacity:1;fill-rule:nonzero;stroke:none;font-family:Courier New;-inkscape-font-specification:CourierNewPSMT"
         x="-158.67384"
         y="570.11151"
         id="tspan6762">}</tspan>
      <tspan
         style="font-size:24.30000114px;font-variant:normal;font-weight:normal;font-stretch:normal;writing-mode:lr-tb;fill:#000000;fill-opacity:1;fill-rule:nonzero;stroke:none;font-family:Courier New;-inkscape-font-specification:CourierNewPSMT"
         x="-158.67384 -144.16673 -129.65964 -115.15253 -100.64543 -86.138329 -71.631233 -57.124134 -42.617027 -28.109936"
         y="605.9613"
         sodipodi:role="line"
         id="tspan6764">C[i]=A[i];</tspan>
      <tspan
         style="font-size:24.30000114px;font-variant:normal;font-weight:normal;font-stretch:normal;writing-mode:lr-tb;fill:#000000;fill-opacity:1;fill-rule:nonzero;stroke:none;font-family:Courier New;-inkscape-font-specification:CourierNewPSMT"
         x="-158.67384 -144.16673 -129.65964 -115.15253 -100.64543 -86.138329 -71.631233 -57.124134 -42.617027 -28.109936 -13.602833 0.90427023 15.411362 29.918465 44.425571 58.932674 73.439781"
         y="641.88641"
         sodipodi:role="line"
         id="tspan6766">A[i+1]=A[i+1]+1;</tspan>
      <tspan
         style="font-size:24.30000114px;font-variant:normal;font-weight:normal;font-stretch:normal;writing-mode:lr-tb;fill:#000000;fill-opacity:1;fill-rule:nonzero;stroke:none;font-family:Courier New;-inkscape-font-specification:CourierNewPSMT"
         x="-158.67384 -144.17403 -129.67421 -115.1744 -100.67459 -86.174782 -71.674973 -57.175163 -42.675354 -28.175549 -13.675732 0.82407576 15.323891 29.823689"
         y="677.73621"
         sodipodi:role="line"
         id="tspan6768">C[i+1]=A[i+1];</tspan>
    </text>
    <path
       inkscape:connector-curvature="0"
       d="m 369.70179,397.68718 0,44.25 71.1,0 0,-44.25 -71.1,0 z"
       style="fill:#00ffff;fill-opacity:1;fill-rule:nonzero;stroke:none"
       id="path6770" />
    <path
       inkscape:connector-curvature="0"
       d="m 582.47554,529.76218 0,22.2 35.7,0 0,-22.2 -35.7,0 z"
       style="fill:#00ff00;fill-opacity:1;fill-rule:nonzero;stroke:none"
       id="path6772" />
    <path
       inkscape:connector-curvature="0"
       d="m 582.47554,551.73718 0,22.2 35.7,0 0,-22.2 -35.7,0 z"
       style="fill:#00ff00;fill-opacity:1;fill-rule:nonzero;stroke:none"
       id="path6774" />
    <path
       inkscape:connector-curvature="0"
       d="m 582.47554,573.78718 0,22.2 35.7,0 0,-22.2 -35.7,0 z"
       style="fill:#00ff00;fill-opacity:1;fill-rule:nonzero;stroke:none"
       id="path6776" />
    <path
       inkscape:connector-curvature="0"
       d="m 688.90179,639.78718 0,22.2 71.175,0 0,-22.2 -71.175,0 z"
       style="fill:#00ffff;fill-opacity:1;fill-rule:nonzero;stroke:none"
       id="path6778" />
    <path
       inkscape:connector-curvature="0"
       d="m 688.90179,661.76218 0,22.2 71.175,0 0,-22.2 -71.175,0 z"
       style="fill:#00ffff;fill-opacity:1;fill-rule:nonzero;stroke:none"
       id="path6780" />
    <text
       id="text6782"
       x="373.00116"
       y="370.61218"
       style="font-size:15px">
      <tspan
         style="font-size:17.73287582px;font-variant:normal;font-weight:normal;font-stretch:normal;writing-mode:lr-tb;fill:#000000;fill-opacity:1;fill-rule:nonzero;stroke:none;font-family:Arial;-inkscape-font-specification:ArialMT"
         x="373.00116 384.40164 388.14859 397.68887 407.22916 410.9761 414.72308 424.26337 433.80365 443.34393 448.11053 457.65082 467.1911 476.73138 486.27167 491.03827 494.78522 499.51282 509.0531 514.9032 524.44348 529.24731 532.86481 542.40509"
         y="370.61218"
         sodipodi:role="line"
         id="tspan6784">Pipelined Loop iteration</tspan>
      <tspan
         style="font-size:17.73287582px;font-variant:normal;font-weight:normal;font-stretch:normal;writing-mode:lr-tb;fill:#000000;fill-opacity:1;fill-rule:nonzero;stroke:none;font-family:Arial;-inkscape-font-specification:ArialMT"
         x="186.10019 199.5896 205.43968 209.0696 218.62228 222.25221 231.80492 241.35762 245.10457 249.83214 253.57912 263.13184 272.68451 282.23721 286.96481 290.71176 295.51559 305.0683 310.8439 320.39661 325.20044 328.94739 338.46994 463.11786 498.5907 534.06354 550.26074 554.98834 559.79218 585.74603 621.21887 625.94641 630.75031 666.37915 675.9762 701.84851 711.4455 737.31775 746.84033"
         y="392.58676"
         sodipodi:role="line"
         id="tspan6786">Original loop iteration012...i...979899</tspan>
      <tspan
         style="font-size:17.73287582px;font-variant:normal;font-weight:normal;font-stretch:normal;writing-mode:lr-tb;fill:#000000;fill-opacity:1;fill-rule:nonzero;stroke:none;font-family:Arial;-inkscape-font-specification:ArialMT"
         x="356.80042 372.99762 408.47223 443.94687 550.37427 555.10181 559.9057 621.33411 626.06171 630.86554"
         y="414.56134"
         sodipodi:role="line"
         id="tspan6788">0XYZ......</tspan>
      <tspan
         style="font-size:17.73287582px;font-variant:normal;font-weight:normal;font-stretch:normal;writing-mode:lr-tb;fill:#000000;fill-opacity:1;fill-rule:nonzero;stroke:none;font-family:Arial;-inkscape-font-specification:ArialMT"
         x="356.80042 408.47223 443.94687 479.42148 550.37427 555.10181 559.9057 621.33411 626.06171 630.86554"
         y="436.61218"
         sodipodi:role="line"
         id="tspan6790">1XYZ......</tspan>
      <tspan
         style="font-size:17.73287582px;font-variant:normal;font-weight:normal;font-stretch:normal;writing-mode:lr-tb;fill:#000000;fill-opacity:1;fill-rule:nonzero;stroke:none;font-family:Arial;-inkscape-font-specification:ArialMT"
         x="356.80042 443.94687 479.42148 514.89612 550.37427 555.10181 559.9057 621.33411 626.06171 630.86554"
         y="458.58676"
         sodipodi:role="line"
         id="tspan6792">2XYZ......</tspan>
      <tspan
         style="font-size:17.73287582px;font-variant:normal;font-weight:normal;font-stretch:normal;writing-mode:lr-tb;fill:#000000;fill-opacity:1;fill-rule:nonzero;stroke:none;font-family:Arial;-inkscape-font-specification:ArialMT"
         x="356.80042 479.42325 514.89789 550.3725 555.10004 559.90393 621.33234 626.05994 630.86377"
         y="480.6376"
         sodipodi:role="line"
         id="tspan6794">3XY......</tspan>
      <tspan
         style="font-size:17.73287582px;font-variant:normal;font-weight:normal;font-stretch:normal;writing-mode:lr-tb;fill:#000000;fill-opacity:1;fill-rule:nonzero;stroke:none;font-family:Arial;-inkscape-font-specification:ArialMT"
         x="356.80042 514.89789 550.3725 555.10004 559.90393 621.33234 626.05994 630.86377"
         y="502.61215"
         sodipodi:role="line"
         id="tspan6796">4X......</tspan>
      <tspan
         style="font-size:17.73287582px;font-variant:normal;font-weight:normal;font-stretch:normal;writing-mode:lr-tb;fill:#000000;fill-opacity:1;fill-rule:nonzero;stroke:none;font-family:Arial;-inkscape-font-specification:ArialMT"
         x="352.07462 356.85361 361.63263 550.4115 555.1391 559.91809 621.34656 626.12555 630.90454"
         y="524.66302"
         sodipodi:role="line"
         id="tspan6798">.........</tspan>
      <tspan
         style="font-size:17.73287582px;font-variant:normal;font-weight:normal;font-stretch:normal;writing-mode:lr-tb;fill:#000000;fill-opacity:1;fill-rule:nonzero;stroke:none;font-family:Arial;-inkscape-font-specification:ArialMT"
         x="362.65048 550.3725 555.10004 559.90393 585.85773 621.33588 626.06348 630.86731"
         y="546.63757"
         sodipodi:role="line"
         id="tspan6800">i...Z...</tspan>
      <tspan
         style="font-size:17.73287582px;font-variant:normal;font-weight:normal;font-stretch:normal;writing-mode:lr-tb;fill:#000000;fill-opacity:1;fill-rule:nonzero;stroke:none;font-family:Arial;-inkscape-font-specification:ArialMT"
         x="343.14966 346.93915 356.83942 550.4115 555.1391 559.92163 585.87549 621.3501 626.07764 630.86023"
         y="568.61218"
         sodipodi:role="line"
         id="tspan6802">i+1...Y...</tspan>
      <tspan
         style="font-size:17.73287582px;font-variant:normal;font-weight:normal;font-stretch:normal;writing-mode:lr-tb;fill:#000000;fill-opacity:1;fill-rule:nonzero;stroke:none;font-family:Arial;-inkscape-font-specification:ArialMT"
         x="343.14966 346.93915 356.83942 550.4115 555.1391 559.92163 585.87549 621.3501 626.07764 630.86023"
         y="590.66302"
         sodipodi:role="line"
         id="tspan6804">i+2...X...</tspan>
      <tspan
         style="font-size:17.73287582px;font-variant:normal;font-weight:normal;font-stretch:normal;writing-mode:lr-tb;fill:#000000;fill-opacity:1;fill-rule:nonzero;stroke:none;font-family:Arial;-inkscape-font-specification:ArialMT"
         x="352.07462 356.85361 361.63263 550.4115 555.1391 559.91809 621.34656 626.12555 630.90454"
         y="612.63757"
         sodipodi:role="line"
         id="tspan6806">.........</tspan>
      <tspan
         style="font-size:17.73287582px;font-variant:normal;font-weight:normal;font-stretch:normal;writing-mode:lr-tb;fill:#000000;fill-opacity:1;fill-rule:nonzero;stroke:none;font-family:Arial;-inkscape-font-specification:ArialMT"
         x="347.27432 356.79688 550.36896 555.0965 559.90033 621.3288 626.0564 630.86023 656.73779"
         y="634.68842"
         sodipodi:role="line"
         id="tspan6808">97......Z</tspan>
      <tspan
         style="font-size:17.73287582px;font-variant:normal;font-weight:normal;font-stretch:normal;writing-mode:lr-tb;fill:#000000;fill-opacity:1;fill-rule:nonzero;stroke:none;font-family:Arial;-inkscape-font-specification:ArialMT"
         x="347.27432 356.79688 550.36896 555.0965 559.90033 621.3288 626.0564 630.86023 656.73779 692.2124"
         y="656.66296"
         sodipodi:role="line"
         id="tspan6810">98......YZ</tspan>
      <tspan
         style="font-size:17.73287582px;font-variant:normal;font-weight:normal;font-stretch:normal;writing-mode:lr-tb;fill:#000000;fill-opacity:1;fill-rule:nonzero;stroke:none;font-family:Arial;-inkscape-font-specification:ArialMT"
         x="347.27432 356.79688 550.36896 555.0965 559.90033 621.3288 626.0564 630.86023 656.73779 692.2124 703.46216 727.69055"
         y="678.63757"
         sodipodi:role="line"
         id="tspan6812">99......XY Z</tspan>
    </text>
    <g
       id="g6814"
       transform="matrix(0,1.25,1.25,0,-247.83696,94.237183)">
      <g
         id="g6816"
         clip-path="url(#clipPath6818)">
        <g
           id="g6822"
           transform="translate(206.88,493.37)">
          <path
             inkscape:connector-curvature="0"
             d="M 0,0 265.44,0"
             style="fill:none;stroke:#000000;stroke-width:0.06;stroke-linecap:butt;stroke-linejoin:miter;stroke-miterlimit:10;stroke-opacity:1;stroke-dasharray:none"
             id="path6824" />
        </g>
      </g>
    </g>
    <path
       inkscape:connector-curvature="0"
       d="m 368.87554,352.83718 0,331.8 1.65,0 0,-331.8 -1.65,0 z"
       style="fill:#000000;fill-opacity:1;fill-rule:nonzero;stroke:none"
       id="path6826" />
    <g
       id="g6828"
       transform="matrix(0,1.25,1.25,0,-247.83696,94.237183)">
      <g
         id="g6830"
         clip-path="url(#clipPath6832)">
        <g
           id="g6836"
           transform="translate(208.26,805.49)">
          <path
             inkscape:connector-curvature="0"
             d="M 0,0 264.06,0"
             style="fill:none;stroke:#000000;stroke-width:0.06;stroke-linecap:butt;stroke-linejoin:miter;stroke-miterlimit:10;stroke-opacity:1;stroke-dasharray:none"
             id="path6838" />
        </g>
      </g>
    </g>
    <path
       inkscape:connector-curvature="0"
       d="m 759.02554,354.56218 0,330.075 1.65013,0 0,-330.075 -1.65013,0 z"
       style="fill:#000000;fill-opacity:1;fill-rule:nonzero;stroke:none"
       id="path6840" />
    <g
       id="g6842"
       transform="matrix(0,1.25,1.25,0,-247.83696,94.237183)">
      <g
         id="g6844"
         clip-path="url(#clipPath6846)">
        <g
           id="g6850"
           transform="translate(224.46,343.851)">
          <path
             inkscape:connector-curvature="0"
             d="M 0,0 247.86,0"
             style="fill:none;stroke:#000000;stroke-width:0.06;stroke-linecap:butt;stroke-linejoin:miter;stroke-miterlimit:10;stroke-opacity:1;stroke-dasharray:none"
             id="path6852" />
        </g>
      </g>
    </g>
    <path
       inkscape:connector-curvature="0"
       d="m 181.97679,374.81218 0,309.825 1.65,0 0,-309.825 -1.65,0 z"
       style="fill:#000000;fill-opacity:1;fill-rule:nonzero;stroke:none"
       id="path6854" />
    <g
       id="g6856"
       transform="matrix(0,1.25,1.25,0,-247.83696,94.237183)">
      <g
         id="g6858"
         clip-path="url(#clipPath6860)">
        <g
           id="g6864"
           transform="translate(225.84,521.75)">
          <path
             inkscape:connector-curvature="0"
             d="M 0,0 246.48,0"
             style="fill:none;stroke:#000000;stroke-width:0.06;stroke-linecap:butt;stroke-linejoin:miter;stroke-miterlimit:10;stroke-opacity:1;stroke-dasharray:none"
             id="path6866" />
        </g>
      </g>
    </g>
    <path
       inkscape:connector-curvature="0"
       d="m 404.35054,376.53718 0,308.1 1.65,0 0,-308.1 -1.65,0 z"
       style="fill:#000000;fill-opacity:1;fill-rule:nonzero;stroke:none"
       id="path6868" />
    <g
       id="g6870"
       transform="matrix(0,1.25,1.25,0,-247.83696,94.237183)">
      <g
         id="g6872"
         clip-path="url(#clipPath6874)">
        <g
           id="g6878"
           transform="translate(225.84,550.13)">
          <path
             inkscape:connector-curvature="0"
             d="M 0,0 246.48,0"
             style="fill:none;stroke:#000000;stroke-width:0.06;stroke-linecap:butt;stroke-linejoin:miter;stroke-miterlimit:10;stroke-opacity:1;stroke-dasharray:none"
             id="path6880" />
        </g>
      </g>
    </g>
    <path
       inkscape:connector-curvature="0"
       d="m 439.82554,376.53718 0,308.1 1.65,0 0,-308.1 -1.65,0 z"
       style="fill:#000000;fill-opacity:1;fill-rule:nonzero;stroke:none"
       id="path6882" />
    <g
       id="g6884"
       transform="matrix(0,1.25,1.25,0,-247.83696,94.237183)">
      <g
         id="g6886"
         clip-path="url(#clipPath6888)">
        <g
           id="g6892"
           transform="translate(225.84,578.51)">
          <path
             inkscape:connector-curvature="0"
             d="M 0,0 246.48,0"
             style="fill:none;stroke:#000000;stroke-width:0.06;stroke-linecap:butt;stroke-linejoin:miter;stroke-miterlimit:10;stroke-opacity:1;stroke-dasharray:none"
             id="path6894" />
        </g>
      </g>
    </g>
    <path
       inkscape:connector-curvature="0"
       d="m 475.30054,376.53718 0,308.1 1.65,0 0,-308.1 -1.65,0 z"
       style="fill:#000000;fill-opacity:1;fill-rule:nonzero;stroke:none"
       id="path6896" />
    <g
       id="g6898"
       transform="matrix(0,1.25,1.25,0,-247.83696,94.237183)">
      <g
         id="g6900"
         clip-path="url(#clipPath6902)">
        <g
           id="g6906"
           transform="translate(225.84,606.831)">
          <path
             inkscape:connector-curvature="0"
             d="M 0,0 246.48,0"
             style="fill:none;stroke:#000000;stroke-width:0.06;stroke-linecap:butt;stroke-linejoin:miter;stroke-miterlimit:10;stroke-opacity:1;stroke-dasharray:none"
             id="path6908" />
        </g>
      </g>
    </g>
    <path
       inkscape:connector-curvature="0"
       d="m 510.70179,376.53718 0,308.1 1.725,0 0,-308.1 -1.725,0 z"
       style="fill:#000000;fill-opacity:1;fill-rule:nonzero;stroke:none"
       id="path6910" />
    <g
       id="g6912"
       transform="matrix(0,1.25,1.25,0,-247.83696,94.237183)">
      <g
         id="g6914"
         clip-path="url(#clipPath6916)">
        <g
           id="g6920"
           transform="translate(225.84,635.211)">
          <path
             inkscape:connector-curvature="0"
             d="M 0,0 246.48,0"
             style="fill:none;stroke:#000000;stroke-width:0.06;stroke-linecap:butt;stroke-linejoin:miter;stroke-miterlimit:10;stroke-opacity:1;stroke-dasharray:none"
             id="path6922" />
        </g>
      </g>
    </g>
    <path
       inkscape:connector-curvature="0"
       d="m 546.17679,376.53718 0,308.1 1.725,0 0,-308.1 -1.725,0 z"
       style="fill:#000000;fill-opacity:1;fill-rule:nonzero;stroke:none"
       id="path6924" />
    <g
       id="g6926"
       transform="matrix(0,1.25,1.25,0,-247.83696,94.237183)">
      <g
         id="g6928"
         clip-path="url(#clipPath6930)">
        <g
           id="g6934"
           transform="translate(225.84,663.591)">
          <path
             inkscape:connector-curvature="0"
             d="M 0,0 246.48,0"
             style="fill:none;stroke:#000000;stroke-width:0.06;stroke-linecap:butt;stroke-linejoin:miter;stroke-miterlimit:10;stroke-opacity:1;stroke-dasharray:none"
             id="path6936" />
        </g>
      </g>
    </g>
    <path
       inkscape:connector-curvature="0"
       d="m 581.65179,376.53718 0,308.1 1.65,0 0,-308.1 -1.65,0 z"
       style="fill:#000000;fill-opacity:1;fill-rule:nonzero;stroke:none"
       id="path6938" />
    <g
       id="g6940"
       transform="matrix(0,1.25,1.25,0,-247.83696,94.237183)">
      <g
         id="g6942"
         clip-path="url(#clipPath6944)">
        <g
           id="g6948"
           transform="translate(225.84,691.971)">
          <path
             inkscape:connector-curvature="0"
             d="M 0,0 246.48,0"
             style="fill:none;stroke:#000000;stroke-width:0.06;stroke-linecap:butt;stroke-linejoin:miter;stroke-miterlimit:10;stroke-opacity:1;stroke-dasharray:none"
             id="path6950" />
        </g>
      </g>
    </g>
    <path
       inkscape:connector-curvature="0"
       d="m 617.12679,376.53718 0,308.1 1.65,0 0,-308.1 -1.65,0 z"
       style="fill:#000000;fill-opacity:1;fill-rule:nonzero;stroke:none"
       id="path6952" />
    <g
       id="g6954"
       transform="matrix(0,1.25,1.25,0,-247.83696,94.237183)">
      <g
         id="g6956"
         clip-path="url(#clipPath6958)">
        <g
           id="g6962"
           transform="translate(225.84,720.351)">
          <path
             inkscape:connector-curvature="0"
             d="M 0,0 246.48,0"
             style="fill:none;stroke:#000000;stroke-width:0.06;stroke-linecap:butt;stroke-linejoin:miter;stroke-miterlimit:10;stroke-opacity:1;stroke-dasharray:none"
             id="path6964" />
        </g>
      </g>
    </g>
    <path
       inkscape:connector-curvature="0"
       d="m 652.60179,376.53718 0,308.1 1.65,0 0,-308.1 -1.65,0 z"
       style="fill:#000000;fill-opacity:1;fill-rule:nonzero;stroke:none"
       id="path6966" />
    <g
       id="g6968"
       transform="matrix(0,1.25,1.25,0,-247.83696,94.237183)">
      <g
         id="g6970"
         clip-path="url(#clipPath6972)">
        <g
           id="g6976"
           transform="translate(225.84,748.73)">
          <path
             inkscape:connector-curvature="0"
             d="M 0,0 246.48,0"
             style="fill:none;stroke:#000000;stroke-width:0.06;stroke-linecap:butt;stroke-linejoin:miter;stroke-miterlimit:10;stroke-opacity:1;stroke-dasharray:none"
             id="path6978" />
        </g>
      </g>
    </g>
    <path
       inkscape:connector-curvature="0"
       d="m 688.07554,376.53718 0,308.1 1.65012,0 0,-308.1 -1.65012,0 z"
       style="fill:#000000;fill-opacity:1;fill-rule:nonzero;stroke:none"
       id="path6980" />
    <g
       id="g6982"
       transform="matrix(0,1.25,1.25,0,-247.83696,94.237183)">
      <g
         id="g6984"
         clip-path="url(#clipPath6986)">
        <g
           id="g6990"
           transform="translate(225.84,777.11)">
          <path
             inkscape:connector-curvature="0"
             d="M 0,0 246.48,0"
             style="fill:none;stroke:#000000;stroke-width:0.06;stroke-linecap:butt;stroke-linejoin:miter;stroke-miterlimit:10;stroke-opacity:1;stroke-dasharray:none"
             id="path6992" />
        </g>
      </g>
    </g>
    <path
       inkscape:connector-curvature="0"
       d="m 723.55054,376.53718 0,308.1 1.65013,0 0,-308.1 -1.65013,0 z"
       style="fill:#000000;fill-opacity:1;fill-rule:nonzero;stroke:none"
       id="path6994" />
    <g
       id="g6996"
       transform="matrix(0,1.25,1.25,0,-247.83696,94.237183)">
      <g
         id="g6998"
         clip-path="url(#clipPath7000)">
        <g
           id="g7004"
           transform="translate(206.88,494.69)">
          <path
             inkscape:connector-curvature="0"
             d="M 0,0 0,312.12"
             style="fill:none;stroke:#000000;stroke-width:0.06;stroke-linecap:butt;stroke-linejoin:miter;stroke-miterlimit:10;stroke-opacity:1;stroke-dasharray:none"
             id="path7006" />
        </g>
      </g>
    </g>
    <path
       inkscape:connector-curvature="0"
       d="m 370.52554,352.83718 0,1.725 390.15,0 0,-1.725 -390.15,0 z"
       style="fill:#000000;fill-opacity:1;fill-rule:nonzero;stroke:none"
       id="path7008" />
    <g
       id="g7010"
       transform="matrix(0,1.25,1.25,0,-247.83696,94.237183)">
      <g
         id="g7012"
         clip-path="url(#clipPath7014)">
        <g
           id="g7018"
           transform="translate(224.46,345.171)">
          <path
             inkscape:connector-curvature="0"
             d="M 0,0 0,461.64"
             style="fill:none;stroke:#000000;stroke-width:0.06;stroke-linecap:butt;stroke-linejoin:miter;stroke-miterlimit:10;stroke-opacity:1;stroke-dasharray:none"
             id="path7020" />
        </g>
      </g>
    </g>
    <path
       inkscape:connector-curvature="0"
       d="m 183.62679,374.81218 0,1.725 577.05,0 0,-1.725 -577.05,0 z"
       style="fill:#000000;fill-opacity:1;fill-rule:nonzero;stroke:none"
       id="path7022" />
    <g
       id="g7024"
       transform="matrix(0,1.25,1.25,0,-247.83696,94.237183)">
      <g
         id="g7026"
         clip-path="url(#clipPath7028)">
        <g
           id="g7032"
           transform="translate(242.1,494.69)">
          <path
             inkscape:connector-curvature="0"
             d="M 0,0 0,312.12"
             style="fill:none;stroke:#000000;stroke-width:0.06;stroke-linecap:butt;stroke-linejoin:miter;stroke-miterlimit:10;stroke-opacity:1;stroke-dasharray:none"
             id="path7034" />
        </g>
      </g>
    </g>
    <path
       inkscape:connector-curvature="0"
       d="m 370.52554,396.86218 0,1.725 390.15,0 0,-1.725 -390.15,0 z"
       style="fill:#000000;fill-opacity:1;fill-rule:nonzero;stroke:none"
       id="path7036" />
    <g
       id="g7038"
       transform="matrix(0,1.25,1.25,0,-247.83696,94.237183)">
      <g
         id="g7040"
         clip-path="url(#clipPath7042)">
        <g
           id="g7046"
           transform="translate(259.68,494.69)">
          <path
             inkscape:connector-curvature="0"
             d="M 0,0 0,312.12"
             style="fill:none;stroke:#000000;stroke-width:0.06;stroke-linecap:butt;stroke-linejoin:miter;stroke-miterlimit:10;stroke-opacity:1;stroke-dasharray:none"
             id="path7048" />
        </g>
      </g>
    </g>
    <path
       inkscape:connector-curvature="0"
       d="m 370.52554,418.83718 0,1.725 390.15,0 0,-1.725 -390.15,0 z"
       style="fill:#000000;fill-opacity:1;fill-rule:nonzero;stroke:none"
       id="path7050" />
    <g
       id="g7052"
       transform="matrix(0,1.25,1.25,0,-247.83696,94.237183)">
      <g
         id="g7054"
         clip-path="url(#clipPath7056)">
        <g
           id="g7060"
           transform="translate(277.32,494.69)">
          <path
             inkscape:connector-curvature="0"
             d="M 0,0 0,312.12"
             style="fill:none;stroke:#000000;stroke-width:0.06;stroke-linecap:butt;stroke-linejoin:miter;stroke-miterlimit:10;stroke-opacity:1;stroke-dasharray:none"
             id="path7062" />
        </g>
      </g>
    </g>
    <path
       inkscape:connector-curvature="0"
       d="m 370.52554,440.88718 0,1.65 390.15,0 0,-1.65 -390.15,0 z"
       style="fill:#000000;fill-opacity:1;fill-rule:nonzero;stroke:none"
       id="path7064" />
    <g
       id="g7066"
       transform="matrix(0,1.25,1.25,0,-247.83696,94.237183)">
      <g
         id="g7068"
         clip-path="url(#clipPath7070)">
        <g
           id="g7074"
           transform="translate(294.9,494.69)">
          <path
             inkscape:connector-curvature="0"
             d="M 0,0 0,312.12"
             style="fill:none;stroke:#000000;stroke-width:0.06;stroke-linecap:butt;stroke-linejoin:miter;stroke-miterlimit:10;stroke-opacity:1;stroke-dasharray:none"
             id="path7076" />
        </g>
      </g>
    </g>
    <path
       inkscape:connector-curvature="0"
       d="m 370.52554,462.86218 0,1.725 390.15,0 0,-1.725 -390.15,0 z"
       style="fill:#000000;fill-opacity:1;fill-rule:nonzero;stroke:none"
       id="path7078" />
    <g
       id="g7080"
       transform="matrix(0,1.25,1.25,0,-247.83696,94.237183)">
      <g
         id="g7082"
         clip-path="url(#clipPath7084)">
        <g
           id="g7088"
           transform="translate(312.54,494.69)">
          <path
             inkscape:connector-curvature="0"
             d="M 0,0 0,312.12"
             style="fill:none;stroke:#000000;stroke-width:0.06;stroke-linecap:butt;stroke-linejoin:miter;stroke-miterlimit:10;stroke-opacity:1;stroke-dasharray:none"
             id="path7090" />
        </g>
      </g>
    </g>
    <path
       inkscape:connector-curvature="0"
       d="m 370.52554,484.91218 0,1.65 390.15,0 0,-1.65 -390.15,0 z"
       style="fill:#000000;fill-opacity:1;fill-rule:nonzero;stroke:none"
       id="path7092" />
    <g
       id="g7094"
       transform="matrix(0,1.25,1.25,0,-247.83696,94.237183)">
      <g
         id="g7096"
         clip-path="url(#clipPath7098)">
        <g
           id="g7102"
           transform="translate(330.12,494.69)">
          <path
             inkscape:connector-curvature="0"
             d="M 0,0 0,312.12"
             style="fill:none;stroke:#000000;stroke-width:0.06;stroke-linecap:butt;stroke-linejoin:miter;stroke-miterlimit:10;stroke-opacity:1;stroke-dasharray:none"
             id="path7104" />
        </g>
      </g>
    </g>
    <path
       inkscape:connector-curvature="0"
       d="m 370.52554,506.88718 0,1.725 390.15,0 0,-1.725 -390.15,0 z"
       style="fill:#000000;fill-opacity:1;fill-rule:nonzero;stroke:none"
       id="path7106" />
    <g
       id="g7108"
       transform="matrix(0,1.25,1.25,0,-247.83696,94.237183)">
      <g
         id="g7110"
         clip-path="url(#clipPath7112)">
        <g
           id="g7116"
           transform="translate(347.7,494.69)">
          <path
             inkscape:connector-curvature="0"
             d="M 0,0 0,312.12"
             style="fill:none;stroke:#000000;stroke-width:0.06;stroke-linecap:butt;stroke-linejoin:miter;stroke-miterlimit:10;stroke-opacity:1;stroke-dasharray:none"
             id="path7118" />
        </g>
      </g>
    </g>
    <path
       inkscape:connector-curvature="0"
       d="m 370.52554,528.86218 0,1.725 390.15,0 0,-1.725 -390.15,0 z"
       style="fill:#000000;fill-opacity:1;fill-rule:nonzero;stroke:none"
       id="path7120" />
    <g
       id="g7122"
       transform="matrix(0,1.25,1.25,0,-247.83696,94.237183)">
      <g
         id="g7124"
         clip-path="url(#clipPath7126)">
        <g
           id="g7130"
           transform="translate(365.34,494.69)">
          <path
             inkscape:connector-curvature="0"
             d="M 0,0 0,312.12"
             style="fill:none;stroke:#000000;stroke-width:0.06;stroke-linecap:butt;stroke-linejoin:miter;stroke-miterlimit:10;stroke-opacity:1;stroke-dasharray:none"
             id="path7132" />
        </g>
      </g>
    </g>
    <path
       inkscape:connector-curvature="0"
       d="m 370.52554,550.91218 0,1.725 390.15,0 0,-1.725 -390.15,0 z"
       style="fill:#000000;fill-opacity:1;fill-rule:nonzero;stroke:none"
       id="path7134" />
    <g
       id="g7136"
       transform="matrix(0,1.25,1.25,0,-247.83696,94.237183)">
      <g
         id="g7138"
         clip-path="url(#clipPath7140)">
        <g
           id="g7144"
           transform="translate(382.92,494.69)">
          <path
             inkscape:connector-curvature="0"
             d="M 0,0 0,312.12"
             style="fill:none;stroke:#000000;stroke-width:0.06;stroke-linecap:butt;stroke-linejoin:miter;stroke-miterlimit:10;stroke-opacity:1;stroke-dasharray:none"
             id="path7146" />
        </g>
      </g>
    </g>
    <path
       inkscape:connector-curvature="0"
       d="m 370.52554,572.88718 0,1.725 390.15,0 0,-1.725 -390.15,0 z"
       style="fill:#000000;fill-opacity:1;fill-rule:nonzero;stroke:none"
       id="path7148" />
    <g
       id="g7150"
       transform="matrix(0,1.25,1.25,0,-247.83696,94.237183)">
      <g
         id="g7152"
         clip-path="url(#clipPath7154)">
        <g
           id="g7158"
           transform="translate(400.56,494.69)">
          <path
             inkscape:connector-curvature="0"
             d="M 0,0 0,312.12"
             style="fill:none;stroke:#000000;stroke-width:0.06;stroke-linecap:butt;stroke-linejoin:miter;stroke-miterlimit:10;stroke-opacity:1;stroke-dasharray:none"
             id="path7160" />
        </g>
      </g>
    </g>
    <path
       inkscape:connector-curvature="0"
       d="m 370.52554,594.93718 0,1.65 390.15,0 0,-1.65 -390.15,0 z"
       style="fill:#000000;fill-opacity:1;fill-rule:nonzero;stroke:none"
       id="path7162" />
    <g
       id="g7164"
       transform="matrix(0,1.25,1.25,0,-247.83696,94.237183)">
      <g
         id="g7166"
         clip-path="url(#clipPath7168)">
        <g
           id="g7172"
           transform="translate(418.14,494.69)">
          <path
             inkscape:connector-curvature="0"
             d="M 0,0 0,312.12"
             style="fill:none;stroke:#000000;stroke-width:0.06;stroke-linecap:butt;stroke-linejoin:miter;stroke-miterlimit:10;stroke-opacity:1;stroke-dasharray:none"
             id="path7174" />
        </g>
      </g>
    </g>
    <path
       inkscape:connector-curvature="0"
       d="m 370.52554,616.91218 0,1.725 390.15,0 0,-1.725 -390.15,0 z"
       style="fill:#000000;fill-opacity:1;fill-rule:nonzero;stroke:none"
       id="path7176" />
    <g
       id="g7178"
       transform="matrix(0,1.25,1.25,0,-247.83696,94.237183)">
      <g
         id="g7180"
         clip-path="url(#clipPath7182)">
        <g
           id="g7186"
           transform="translate(435.72,494.69)">
          <path
             inkscape:connector-curvature="0"
             d="M 0,0 0,312.12"
             style="fill:none;stroke:#000000;stroke-width:0.06;stroke-linecap:butt;stroke-linejoin:miter;stroke-miterlimit:10;stroke-opacity:1;stroke-dasharray:none"
             id="path7188" />
        </g>
      </g>
    </g>
    <path
       inkscape:connector-curvature="0"
       d="m 370.52554,638.88718 0,1.725 390.15,0 0,-1.725 -390.15,0 z"
       style="fill:#000000;fill-opacity:1;fill-rule:nonzero;stroke:none"
       id="path7190" />
    <g
       id="g7192"
       transform="matrix(0,1.25,1.25,0,-247.83696,94.237183)">
      <g
         id="g7194"
         clip-path="url(#clipPath7196)">
        <g
           id="g7200"
           transform="translate(453.36,494.69)">
          <path
             inkscape:connector-curvature="0"
             d="M 0,0 0,312.12"
             style="fill:none;stroke:#000000;stroke-width:0.06;stroke-linecap:butt;stroke-linejoin:miter;stroke-miterlimit:10;stroke-opacity:1;stroke-dasharray:none"
             id="path7202" />
        </g>
      </g>
    </g>
    <path
       inkscape:connector-curvature="0"
       d="m 370.52554,660.93718 0,1.725 390.15,0 0,-1.725 -390.15,0 z"
       style="fill:#000000;fill-opacity:1;fill-rule:nonzero;stroke:none"
       id="path7204" />
    <g
       id="g7206"
       transform="matrix(0,1.25,1.25,0,-247.83696,94.237183)">
      <g
         id="g7208"
         clip-path="url(#clipPath7210)">
        <g
           id="g7214"
           transform="translate(470.94,345.171)">
          <path
             inkscape:connector-curvature="0"
             d="M 0,0 0,461.64"
             style="fill:none;stroke:#000000;stroke-width:0.06;stroke-linecap:butt;stroke-linejoin:miter;stroke-miterlimit:10;stroke-opacity:1;stroke-dasharray:none"
             id="path7216" />
        </g>
      </g>
    </g>
    <path
       inkscape:connector-curvature="0"
       d="m 183.62679,682.91218 0,1.725 577.05,0 0,-1.725 -577.05,0 z"
       style="fill:#000000;fill-opacity:1;fill-rule:nonzero;stroke:none"
       id="path7218" />
    <path
       inkscape:connector-curvature="0"
       d="m 180.62679,685.98718 0,-334.5 581.4,0 0,334.5 -581.4,0 z m 0,-334.5 z m 1.35,333.825 -0.675,-0.675 580.05,0 -0.675,0.675 0,-333.15 0.675,0.675 -580.05,0 0.675,-0.675"
       style="fill:#000000;fill-opacity:1;fill-rule:nonzero;stroke:none"
       id="path7220" />
    <text
       id="text7234"
       x="-114.64883"
       y="753.11218"
       style="font-size:15px">
      <tspan
         style="font-size:32.40000153px;font-variant:normal;font-weight:normal;font-stretch:normal;writing-mode:lr-tb;fill:#000000;fill-opacity:1;fill-rule:nonzero;stroke:none;font-family:Times New Roman;-inkscape-font-specification:TimesNewRomanPSMT"
         x="-114.64883 -103.86288 -87.666115 -71.46936 -57.086998 -40.890236 -26.507874 -10.311118 5.8856373 20.268002 36.464756 53.270641 62.274609 78.471359 91.071716 100.07568 110.86164 127.05842 141.44075 150.44472 159.44867 175.64545 191.84219"
         y="753.11218"
         sodipodi:role="line"
         id="tspan7236">Independentinstructions</tspan>
    </text>
    <g
       id="g7238"
       transform="matrix(0,1.25,1.25,0,365.42679,405.41218)">
      <path
         inkscape:connector-curvature="0"
         d="m 0,0 -0.54,0.06 -0.6,0.12 c -12.088,4.38 -12.076,52.508 0,56.82 l 0.6,0.18 1.14,0 c 7.187,-1.449 9.41,-18.615 9.54,-24.3 L 10.2,31.5 10.26,30.06 C 10.48,22.71 9.134,5.232 2.28,0.66 L 1.74,0.36 1.14,0.18 0.6,0.06 0,0 z M 0.48,1.14 0.42,1.08 0.9,1.2 0.84,1.2 1.32,1.38 1.26,1.32 1.74,1.62 1.68,1.56 2.16,1.86 2.1,1.86 2.58,2.22 2.52,2.16 3,2.64 2.94,2.58 3.42,3.12 3.36,3.06 l 0.42,0.6 0,-0.06 0.42,0.66 0,-0.06 0.42,0.66 -0.06,0 0.42,0.72 c 1.356,2.747 2.193,5.59 2.82,8.58 l 0.24,1.2 0,-0.06 0.18,1.26 0,-0.06 0.24,1.26 c 1.208,9.489 1.028,19.28 -1.44,28.56 l -0.3,1.02 0,-0.06 -0.36,1.02 0,-0.06 -0.3,0.96 -0.72,1.68 -0.36,0.78 0,-0.06 -0.42,0.72 0.06,0 -0.42,0.66 -0.42,0.6 -0.42,0.54 0.06,0 -0.48,0.48 0.06,0 -0.48,0.42 0.06,-0.06 -0.48,0.42 0.06,-0.06 -0.48,0.3 0.06,0 -0.48,0.24 0.06,0 -0.48,0.18 0.06,-0.06 -0.48,0.12 0.06,0 -0.48,0 0.06,0 -0.48,0 0.06,0 -0.48,-0.12 0.06,0.06 -0.48,-0.18 0.06,0 -0.48,-0.24 0.06,0 -0.48,-0.3 0,0.06 -0.42,-0.42 0,0.06 -0.42,-0.42 -0.42,-0.48 -0.42,-0.54 0.06,0 -0.42,-0.6 -0.42,-0.66 -0.36,-0.72 0,0.06 -0.42,-0.78 0.06,0 -0.72,-1.68 -0.36,-0.96 0,0.06 -0.3,-1.02 0,0.06 -0.3,-1.02 c -0.534,-1.806 -0.866,-3.79 -1.26,-5.64 l -0.18,-1.26 0,0.06 -0.18,-1.32 C -9.398,31.425 -9.362,24.479 -8.4,17.76 l 0.18,-1.26 0,0.06 0.24,-1.26 0,0.06 0.24,-1.2 c 0.457,-2.375 1.142,-4.797 2.1,-7.02 l 0.36,-0.78 -0.06,0 0.42,-0.78 0.36,-0.72 0.42,-0.66 0,0.06 0.42,-0.66 -0.06,0.06 0.42,-0.6 0,0.06 0.42,-0.54 0,0.06 0.42,-0.48 0,0.06 0.48,-0.36 -0.06,0 0.48,-0.3 -0.06,0.06 0.48,-0.3 -0.06,0.06 0.48,-0.18 -0.06,0 0.48,-0.12 -0.06,0.06 0.48,-0.06 -0.06,0"
         style="fill:#5f5f5f;fill-opacity:1;fill-rule:nonzero;stroke:none"
         id="path7240" />
    </g>
    <g
       id="g7242"
       transform="matrix(0,1.25,1.25,0,-191.57321,296.13718)">
      <path
         inkscape:connector-curvature="0"
         d="M 0,0 -0.66,0 -1.38,0.12 -2.1,0.3 -2.82,0.54 c -7.722,2.686 -13.006,17.388 -15.06,24.42 l -0.9,3.18 -0.9,3.3 c -4.291,17.693 -6.047,35.894 -6.6,54.06 l -0.12,4.86 0,9.72 0.12,4.86 c 0.548,18.167 2.308,36.367 6.6,54.06 l 0.9,3.3 0.9,3.18 c 2.151,7.283 7.219,21.467 15.06,24.48 l 1.44,0.36 0.72,0.12 1.38,0 c 19.66,-3.004 25.307,-66.344 25.44,-80.76 l 0.18,-4.74 0.12,-4.86 0,-4.86 C 26.447,76.339 25.025,56.991 21.3,38.46 l -0.78,-3.6 -0.78,-3.42 C 17.392,22.538 12.765,6.205 4.26,1.14 L 2.88,0.54 2.16,0.3 1.44,0.12 0.72,0 0,0 z m 0.66,1.08 -0.06,0 1.32,0.24 -0.06,0 0.66,0.18 -0.06,0 1.26,0.6 -0.06,0 1.32,0.78 -0.06,0 1.26,1.02 -0.06,0 1.2,1.26 0,-0.06 1.2,1.5 1.14,1.68 0,-0.06 1.14,1.92 1.08,2.1 0,-0.06 1.08,2.28 1.08,2.46 -0.06,0 1.02,2.64 0,-0.06 1.02,2.82 0.9,3 0,-0.06 0.9,3.18 0,-0.06 0.84,3.3 0.84,3.42 0.78,3.6 0,-0.06 0.72,3.72 c 1.222,6.781 2.118,13.487 2.82,20.34 l 0.42,4.44 0,-0.06 0.36,4.5 0.3,4.62 -0.06,-0.06 0.24,4.68 c 0.432,9.55 0.432,19.25 0,28.8 l -0.24,4.68 0.06,0 -0.3,4.56 c -1.372,17.328 -3.694,35.649 -9.6,52.08 l -1.02,2.64 0.06,-0.06 -1.08,2.46 -1.08,2.28 -1.08,2.1 0,-0.06 -1.14,1.92 0,-0.06 -1.14,1.74 0,-0.06 -1.2,1.5 0,-0.06 -1.2,1.26 0.06,0 -1.26,1.02 0.06,0 -1.32,0.84 0.06,-0.06 -1.26,0.6 0.06,0 -0.66,0.18 0.06,0 -0.66,0.18 0,-0.06 -0.66,0.12 0.06,0 -0.66,0 0.06,0 -0.66,0 0.06,0 -0.66,-0.12 0,0.06 -0.66,-0.18 0.06,0 -0.66,-0.18 0.06,0 -1.32,-0.6 0.12,0.06 -1.32,-0.84 0.06,0 -1.26,-1.02 0.06,0 -1.2,-1.26 0,0.06 -1.2,-1.5 0,0.06 -1.14,-1.74 0,0.06 -1.14,-1.92 0,0.06 -1.08,-2.1 -1.08,-2.28 -1.08,-2.46 0,0.06 -0.96,-2.64 c -9.479,-27.126 -11.143,-61.626 -10.08,-90.12 l 0.18,-4.68 0,0.06 0.3,-4.62 0.36,-4.5 0,0.06 0.42,-4.44 c 0.702,-6.853 1.598,-13.559 2.82,-20.34 l 0.72,-3.72 0,0.06 0.78,-3.6 0.84,-3.42 0.84,-3.3 0,0.06 0.9,-3.18 0,0.06 0.9,-3 1.02,-2.82 0,0.06 0.96,-2.64 1.08,-2.46 1.08,-2.28 0,0.06 1.08,-2.1 1.14,-1.92 0,0.06 1.14,-1.68 1.2,-1.5 0,0.06 1.2,-1.26 -0.06,0 1.26,-1.02 -0.06,0 1.32,-0.78 -0.12,0 1.32,-0.6 -0.06,0 0.66,-0.18 -0.06,0 1.32,-0.24 -0.06,0 0.66,0 -0.06,0"
         style="fill:#5f5f5f;fill-opacity:1;fill-rule:nonzero;stroke:none"
         id="path7244" />
    </g>
    <g
       id="g7246"
       transform="matrix(0,1.25,1.25,0,58.451786,313.53718)">
      <path
         inkscape:connector-curvature="0"
         d="M -8,-6.4 66.628732,256.00244 67.244671,254.95432 -6.98,-6.7 z m 3.96,0 -4.92,-5.34 -1.32,7.14"
         style="fill:#5f5f5f;fill-opacity:1;fill-rule:nonzero;stroke:none"
         id="path7248"
         sodipodi:nodetypes="cccccccc" />
    </g>
    <g
       id="g7250"
       transform="matrix(0,1.25,1.25,0,400.52554,429.71218)">
      <path
         inkscape:connector-curvature="0"
         d="m 0,0 -0.54,0 -0.54,0.06 c -12.21,2.433 -12.201,26.548 0,28.98 l 0.54,0.06 0.54,0 C 13.072,28.222 13.63,3.25 1.62,0.18 L 1.08,0.06 0.54,0 0,0 z m 0.48,1.08 -0.06,0 0.54,0.06 -0.06,0 L 1.38,1.2 1.32,1.2 1.8,1.32 2.28,1.5 2.22,1.44 2.7,1.62 l -0.06,0 0.48,0.24 -0.06,0 0.48,0.24 -0.06,0 0.42,0.24 0.42,0.3 0.36,0.3 0.42,0.36 -0.06,0 0.42,0.36 -0.06,0 0.72,0.84 0.3,0.42 0.6,0.96 0.54,1.08 0,-0.06 0.48,1.2 0,-0.06 0.42,1.2 c 0.441,1.6 0.612,2.98 0.72,4.62 l 0,0.72 0,-0.06 0,0.72 L 9.12,15.96 9.06,16.62 9,17.34 9,17.28 8.88,18 l 0,-0.06 -0.12,0.66 -0.3,1.26 -0.42,1.2 -0.48,1.14 0,-0.06 -0.54,1.08 -0.6,0.96 -0.3,0.42 -0.72,0.84 0.06,0 -0.42,0.36 0.06,0 -0.42,0.36 -0.36,0.3 -0.42,0.3 -0.42,0.24 0.06,0 -0.48,0.24 0.06,0 -0.48,0.24 0.06,0 -0.48,0.18 0.06,0 -0.96,0.24 0.06,0 -0.48,0.06 0.06,0 -0.54,0.06 0.06,0 -0.96,0 0.06,0 -0.54,-0.06 0.06,0 -0.48,-0.06 0.06,0 -0.96,-0.24 0.06,0 -0.48,-0.18 0.06,0 -0.48,-0.24 0.06,0 -0.48,-0.24 0.06,0.06 -0.84,-0.6 0.06,0 -0.42,-0.3 c -1.004,-0.962 -1.644,-1.729 -2.34,-2.94 l -0.54,-1.08 0,0.06 -0.48,-1.14 -0.42,-1.2 0.06,0 -0.36,-1.26 -0.12,-0.66 0,0.06 -0.12,-0.72 0,0.06 -0.06,-0.72 -0.06,-0.66 -0.06,-0.72 0,-0.72 0,0.06 0,-0.72 0.06,-0.72 0.06,-0.66 0.06,-0.72 0,0.06 0.12,-0.66 0.12,-0.66 0.36,-1.26 -0.06,0 0.42,-1.2 0,0.06 0.48,-1.2 0,0.06 0.54,-1.08 c 0.696,-1.21 1.336,-1.978 2.34,-2.94 l 0.42,-0.3 -0.06,0 0.42,-0.3 0.84,-0.48 -0.06,0 0.48,-0.24 -0.06,0 0.48,-0.18 -0.06,0.06 0.48,-0.18 0.48,-0.12 -0.06,0 0.48,-0.06 -0.06,0 0.54,-0.06 -0.06,0 0.48,0"
         style="fill:#5f5f5f;fill-opacity:1;fill-rule:nonzero;stroke:none"
         id="path7252" />
    </g>
    <g
       id="g7254"
       transform="matrix(0,1.25,1.25,0,14.126786,349.58718)">
      <path
         inkscape:connector-curvature="0"
         d="m 0,0 63.6,309.87746 1.08,-0.24 L 1.02,-0.18 z m 3.9,0.3 -4.5,-5.64 -1.86,6.96"
         style="fill:#5f5f5f;fill-opacity:1;fill-rule:nonzero;stroke:none"
         id="path7256"
         sodipodi:nodetypes="cccccccc" />
    </g>
    <g
       id="g7258"
       transform="matrix(0,1.25,1.25,0,-177.37321,348.78718)">
      <path
         inkscape:connector-curvature="0"
         d="m 0,0 -0.96,0.12 -0.9,0.3 -0.9,0.48 c -11.363,9.498 -13.64,52.076 -13.86,65.76 l -0.12,7.5 0.12,7.56 0.06,3.66 c 0.489,11.973 1.387,23.959 3.54,35.76 l 0.48,2.64 0.54,2.58 c 1.472,6.01 3.797,15.852 8.34,20.34 l 0.9,0.72 0.9,0.54 0.9,0.3 0.96,0.12 0.96,-0.12 c 11.873,-3.6 15.148,-49.511 15.42,-59.22 l 0.18,-3.66 0.06,-3.66 0.12,-7.56 C 16.687,59.391 15.801,44.599 13.5,30 l -0.48,-2.76 -0.54,-2.7 C 11.014,17.551 8.942,8.181 4.44,2.46 L 3.6,1.62 2.76,0.9 1.86,0.42 0.96,0.12 0,0 z m 0.78,1.14 -0.12,0 0.84,0.24 -0.12,0 L 2.16,1.86 2.1,1.8 2.94,2.46 2.88,2.4 l 0.78,0.78 -0.06,0 0.78,0.96 0.72,1.14 0.72,1.26 0.72,1.5 0,-0.06 0.66,1.62 0.66,1.8 0,-0.06 0.66,1.92 c 5.799,18.777 6.94,41.366 7.14,60.9 l -0.12,7.56 0,-0.06 -0.06,3.72 -0.36,7.2 0,-0.06 -0.18,3.54 -0.3,3.42 -0.24,3.3 -0.36,3.3 0,-0.06 -0.36,3.18 -0.36,3.12 0,-0.06 -0.42,3 -0.48,2.88 -0.48,2.82 0,-0.06 -0.48,2.7 c -1.213,6.006 -2.889,12.674 -5.64,18.18 l -0.72,1.32 0,-0.06 -0.72,1.2 0,-0.06 -0.78,1.02 0.06,-0.06 -0.78,0.84 0.06,-0.06 -0.84,0.66 0.06,-0.06 -0.78,0.48 0.12,-0.06 -0.84,0.3 0.12,-0.06 -0.84,0.12 0.12,0 -0.84,-0.12 0.12,0.06 -0.84,-0.3 0.12,0.06 -0.84,-0.48 0.06,0.06 -0.78,-0.66 0.06,0.06 -0.78,-0.84 0.06,0.06 -0.78,-1.02 0,0.06 -0.72,-1.2 0,0.06 -0.72,-1.32 c -2.865,-5.695 -4.342,-11.974 -5.64,-18.18 l -0.54,-2.7 0.06,0.06 -0.48,-2.82 -0.48,-2.88 -0.42,-3 0,0.06 -0.36,-3.12 -0.36,-3.18 0,0.06 -0.36,-3.3 -0.3,-3.3 -0.24,-3.42 -0.18,-3.54 0,0.06 -0.18,-3.6 -0.18,-3.6 -0.12,-3.72 0,0.06 -0.06,-7.56 c 0.038,-14.587 0.858,-29.573 3.24,-43.98 l 0.48,-2.76 -0.06,0 0.54,-2.64 c 0.788,-3.884 1.658,-7.765 2.94,-11.52 l 0.6,-1.92 0,0.06 0.72,-1.8 0.66,-1.62 0,0.06 0.72,-1.5 0.72,-1.26 0.72,-1.14 0.78,-0.96 -0.06,0 0.78,-0.78 -0.06,0.06 0.78,-0.66 -0.06,0.06 0.84,-0.48 -0.12,0 0.84,-0.24 -0.12,0 0.84,-0.06 -0.12,0"
         style="fill:#5f5f5f;fill-opacity:1;fill-rule:nonzero;stroke:none"
         id="path7260" />
    </g>
    <g
       id="g7262"
       transform="matrix(0,1.25,1.25,0,575.87679,563.28718)">
      <path
         inkscape:connector-curvature="0"
         d="m 0,0 -1.68,0 -1.68,0.06 c -39.389,2.352 -39.369,26.667 0,28.98 l 1.68,0.06 3.36,0 c 8.44,0.047 27.33,-2.946 30.78,-12.24 l 0.24,-0.72 0.12,-0.78 C 33.702,4.889 14.05,0.68 6.54,0.3 L 3.3,0.06 1.68,0 0,0 z m 1.62,1.08 1.68,0.06 -0.06,0 1.62,0.12 0,-0.06 1.62,0.18 1.56,0.12 -0.06,0 1.56,0.18 c 5.458,0.813 10.229,1.933 15.18,4.44 l 0.96,0.54 -0.06,-0.06 0.9,0.6 0,-0.06 0.84,0.6 0.78,0.54 -0.06,0 0.72,0.6 0.66,0.6 -0.06,0 0.6,0.6 0.48,0.66 0,-0.06 0.42,0.66 -0.06,-0.06 0.36,0.72 0,-0.06 0.3,0.66 0.18,0.66 0,-0.06 0.12,0.72 0,-0.06 0,0.72 0,-0.06 0,0.72 0,-0.06 -0.12,0.72 0,-0.06 -0.24,0.72 0.06,-0.06 -0.3,0.66 -0.36,0.66 0.06,-0.06 -0.42,0.66 -0.48,0.66 0,-0.06 -0.6,0.66 0.06,-0.06 -0.66,0.66 0,-0.06 -0.72,0.6 0.06,0 -0.78,0.6 -0.84,0.54 -0.9,0.54 0.06,0 -0.96,0.54 0,-0.06 -1.02,0.54 -1.02,0.48 -1.14,0.48 0,-0.06 -1.14,0.48 c -3.514,1.225 -7.17,2.059 -10.86,2.52 l -1.56,0.18 0.06,0 -1.56,0.18 -1.62,0.12 -1.62,0.06 0.06,0 -1.68,0.06 c -2.981,0.101 -6.695,-0.056 -9.66,-0.42 l -1.56,-0.18 0.06,0 -1.56,-0.18 0.06,0 -1.5,-0.3 -1.44,-0.24 0.06,0 -1.44,-0.3 0.06,0 -1.38,-0.36 -1.32,-0.36 0.06,0 -1.32,-0.36 0.06,0 -1.26,-0.42 0.06,0 -1.2,-0.48 0,0.06 -2.16,-0.96 -1.02,-0.54 0.06,0.06 -0.96,-0.54 -0.9,-0.54 -0.84,-0.54 0.06,0 -0.78,-0.6 -0.72,-0.6 0,0.06 -0.6,-0.66 0,0.06 -0.6,-0.66 0.06,0.06 -0.54,-0.66 0.06,0 -0.42,-0.66 0,0.06 -0.36,-0.66 -0.24,-0.66 0,0.06 -0.24,-0.72 0.06,0.06 -0.12,-0.72 0,0.06 -0.06,-0.72 0,0.06 0.06,-0.72 0,0.06 0.12,-0.72 -0.06,0.06 0.48,-1.32 0,0.06 0.36,-0.72 0,0.06 0.42,-0.66 -0.06,0.06 0.54,-0.66 -0.06,0 1.2,-1.2 0.72,-0.6 0.78,-0.54 -0.06,0 0.84,-0.6 0,0.06 0.9,-0.6 0,0.06 0.96,-0.54 -0.06,0 1.02,-0.48 2.16,-0.96 1.2,-0.42 -0.06,0 1.26,-0.42 -0.06,0 1.32,-0.42 -0.06,0 1.32,-0.36 1.38,-0.3 -0.06,0 1.44,-0.3 -0.06,0 1.44,-0.3 1.5,-0.24 -0.06,0 1.56,-0.24 -0.06,0 1.56,-0.18 1.56,-0.12 1.56,-0.18 0,0.06 1.62,-0.12 1.62,-0.06 1.68,0"
         style="fill:#5f5f5f;fill-opacity:1;fill-rule:nonzero;stroke:none"
         id="path7264" />
    </g>
    <g
       id="g7266"
       transform="matrix(0,1.25,1.25,0,131.42679,506.81218)">
      <path
         inkscape:connector-curvature="0"
         d="M -4.8,-1.5743967 39.84,356.27429 40.86,356.15372 -3.78,-1.6949656 -4.8,-1.5743967 z M -0.96,-0.97155185 -4.98,-7 l -2.4,6.81214641"
         style="fill:#5f5f5f;fill-opacity:1;fill-rule:nonzero;stroke:none"
         id="path7268" />
    </g>
    <g
       id="g7270"
       transform="matrix(0,1.25,1.25,0,-167.37321,494.43718)">
      <path
         inkscape:connector-curvature="0"
         d="M 0,0 -1.44,0 -2.88,0.12 -4.32,0.3 -5.7,0.6 c -9.445,1.957 -17.429,8.931 -23.22,16.32 l -2.28,3.06 -2.16,3.24 c -14.656,23.502 -20.486,53.874 -21.9,81.18 l -0.24,5.88 -0.06,6 0.06,5.94 0.24,5.88 c 1.352,26.296 6.737,54.605 19.8,77.76 l 2.1,3.42 2.16,3.24 c 6.032,8.677 14.779,17.175 25.5,19.38 l 1.38,0.3 1.44,0.18 1.44,0.12 1.44,0.06 1.5,-0.06 1.44,-0.12 c 8.277,-0.87 15.583,-5.565 21.3,-11.4 l 2.4,-2.58 2.34,-2.82 c 15.804,-20.407 23.011,-50.737 25.5,-75.96 l 0.48,-5.7 0.36,-5.82 0.18,-5.88 0.12,-5.94 C 55.527,87.852 50.735,55.83 37.5,30.36 L 35.52,26.7 33.42,23.22 C 27.592,13.985 18.277,3.781 7.2,0.96 L 5.76,0.6 4.32,0.3 2.94,0.12 1.5,0 0,0 z m 1.44,1.08 -0.06,0 1.44,0.12 -0.06,0 1.44,0.18 -0.06,0 1.44,0.24 -0.06,0 2.76,0.72 -0.06,0 1.38,0.48 -0.06,0 1.38,0.54 1.32,0.6 -0.06,0 1.38,0.66 -0.06,0 1.32,0.78 0,-0.06 1.26,0.84 1.32,0.84 -0.06,0 2.52,1.92 1.26,1.08 -0.06,0 1.26,1.14 0,-0.06 1.2,1.2 2.34,2.58 0,-0.06 2.28,2.82 0,-0.06 2.22,3 2.16,3.24 2.04,3.42 0,-0.06 1.98,3.66 1.92,3.84 0,-0.06 1.8,4.02 1.74,4.2 1.62,4.38 0,-0.06 1.56,4.56 -0.06,0 1.44,4.68 1.32,4.86 0,-0.06 1.26,4.98 -0.06,0 1.14,5.16 0,-0.06 0.96,5.28 0.9,5.34 0.72,5.52 0.6,5.58 0.48,5.7 0,-0.06 0.36,5.82 0.24,5.88 0.06,5.94 -0.06,5.94 -0.24,5.88 0,-0.06 -0.36,5.82 -0.48,5.7 0,-0.06 -0.6,5.64 -0.72,5.46 -0.9,5.34 -0.96,5.28 -1.14,5.1 0.06,0 -1.26,4.98 -1.32,4.86 0,-0.06 -1.44,4.74 0.06,-0.06 -1.56,4.56 -1.62,4.38 0,-0.06 -1.74,4.2 -1.8,4.02 -1.92,3.84 0,-0.06 -1.98,3.66 -2.04,3.42 0,-0.06 -2.16,3.24 -2.22,3 -2.28,2.76 -2.34,2.52 -1.2,1.2 -1.26,1.08 0.06,0 -1.26,1.08 -1.26,1.02 0,-0.06 -1.26,0.96 0.06,0 -1.32,0.9 0,-0.06 -1.26,0.84 -1.32,0.72 0.06,0 -1.38,0.66 0.06,0 -1.32,0.6 -1.38,0.54 0.06,0 -1.38,0.48 0.06,0 -1.38,0.42 0,-0.06 -1.38,0.36 0.06,0 -1.44,0.24 0.06,0 -1.44,0.18 0.06,0 -1.44,0.12 0.06,0 -1.44,0.06 0.06,0 -1.44,-0.06 -1.38,-0.12 -1.38,-0.18 -1.38,-0.24 0.06,0 -1.38,-0.36 0,0.06 -1.38,-0.42 0.06,0 -1.38,-0.48 -1.32,-0.54 -1.32,-0.6 -1.32,-0.66 0.06,0 -1.32,-0.72 -1.32,-0.84 0.06,0.06 -1.32,-0.9 0.06,0 -1.32,-0.96 0.06,0.06 -1.26,-1.02 c -4.026,-3.301 -7.513,-7.4 -10.5,-11.64 l -2.16,-3.24 0,0.06 -2.04,-3.42 -2.04,-3.66 0.06,0.06 -1.92,-3.84 -1.8,-4.02 -1.74,-4.2 0,0.06 -1.62,-4.38 -1.56,-4.56 0,0.06 -1.44,-4.74 0.06,0.06 -1.38,-4.86 c -2.151,-8.482 -3.799,-17.476 -4.86,-26.16 l -0.6,-5.64 0,0.06 -0.48,-5.7 -0.36,-5.82 0,0.06 -0.24,-5.88 -0.06,-5.94 0.06,-5.94 0.24,-5.88 0.36,-5.82 0,0.06 0.48,-5.7 0.6,-5.58 0.72,-5.52 0.9,-5.34 0.96,-5.28 0,0.06 1.08,-5.16 1.2,-4.98 0,0.06 1.38,-4.86 -0.06,0 1.44,-4.68 1.56,-4.56 0,0.06 1.62,-4.38 1.74,-4.2 1.8,-4.02 0,0.06 1.92,-3.84 -0.06,0 2.04,-3.66 0,0.06 2.04,-3.42 2.16,-3.24 2.22,-3 0,0.06 2.28,-2.82 0,0.06 2.34,-2.58 1.2,-1.2 0,0.06 1.2,-1.14 1.26,-1.08 1.26,-0.96 -0.06,0 1.32,-0.96 -0.06,0 1.32,-0.84 -0.06,0 1.32,-0.84 0,0.06 1.32,-0.78 -0.06,0 1.32,-0.66 1.32,-0.6 1.32,-0.54 1.38,-0.48 -0.06,0 2.76,-0.72 -0.06,0 1.38,-0.24 1.38,-0.18 1.38,-0.12 1.44,0 -0.06,0"
         style="fill:#5f5f5f;fill-opacity:1;fill-rule:nonzero;stroke:none"
         id="path7272" />
    </g>
    <g
       id="g7274"
       transform="matrix(0,1.25,1.25,0,672.32554,672.56218)">
      <path
         inkscape:connector-curvature="0"
         d="m 0,0 -0.3,0 -0.36,0.06 c -12.811,3.653 -12.767,67.434 0,71.1 l 0.36,0.06 0.6,0 c 7.678,-1.29 9.72,-24.538 9.78,-30.24 l 0.06,-1.8 0.06,-1.8 C 10.466,29.626 9.24,5.126 1.68,0.48 L 1.14,0.18 0.6,0.06 0.3,0 0,0 z m 0.18,1.08 0.24,0 -0.12,0 L 0.84,1.26 0.72,1.2 1.2,1.44 1.14,1.38 1.62,1.68 1.56,1.68 2.04,2.04 2.46,2.46 2.88,3 2.88,2.94 3.3,3.6 3.3,3.54 3.72,4.26 4.14,5.04 4.14,4.98 4.5,5.82 4.92,6.72 5.28,7.68 5.64,8.7 6,9.78 l 0.3,1.2 0,-0.06 0.36,1.26 0,-0.06 0.3,1.32 0,-0.06 0.24,1.38 0,-0.06 0.3,1.38 c 1.019,5.324 1.388,10.554 1.62,15.96 l 0,1.8 0,-0.06 0,1.8 C 9.207,39.174 8.993,42.393 8.7,45.96 l -0.12,1.68 0,-0.06 -0.18,1.62 -0.18,1.56 -0.24,1.5 -0.24,1.44 -0.24,1.44 0,-0.06 -0.3,1.38 0.06,0 -0.3,1.32 -0.3,1.26 -0.36,1.2 -0.3,1.2 0,-0.06 -0.36,1.14 -0.36,1.02 -0.36,0.96 -0.42,0.9 0,-0.06 -0.36,0.9 0,-0.06 -0.42,0.78 -0.42,0.66 -0.42,0.6 -0.42,0.54 0,-0.06 -0.42,0.48 -0.48,0.36 0.06,0 -0.48,0.3 0.06,-0.06 -0.48,0.24 0.12,-0.06 -0.54,0.18 0.12,-0.06 -0.24,0.06 -0.24,0 0.06,0 -0.24,0 0.06,0 -0.3,-0.06 0.12,0.06 -0.54,-0.18 0.12,0.06 -0.48,-0.24 0.06,0.06 -0.48,-0.3 0.06,0 -0.48,-0.36 -0.42,-0.48 0,0.06 -0.42,-0.54 -0.42,-0.6 -0.42,-0.66 -0.42,-0.78 0,0.06 -0.36,-0.9 0,0.06 -0.42,-0.9 -0.36,-0.96 -0.36,-1.02 -0.36,-1.14 0,0.06 -0.3,-1.2 C -7.403,56.642 -7.991,52.913 -8.46,49.2 l -0.18,-1.62 0,0.06 -0.12,-1.68 0,0.06 -0.12,-1.68 C -9.583,35.134 -9.23,25.174 -7.56,16.08 l 0.3,-1.38 -0.06,0 0.3,-1.32 0,0.06 0.3,-1.32 0,0.06 0.36,-1.26 0,0.06 0.3,-1.2 0.36,-1.08 0.36,-1.02 0.36,-0.96 0.42,-0.9 0.36,-0.84 0,0.06 0.42,-0.78 0.42,-0.72 0,0.06 0.42,-0.66 0,0.06 0.42,-0.54 0.42,-0.42 0.48,-0.36 -0.06,0 0.48,-0.3 -0.06,0.06 0.48,-0.24 -0.12,0.06 0.54,-0.18 -0.12,0 0.3,0 -0.06,0 0.24,0 -0.06,0"
         style="fill:#5f5f5f;fill-opacity:1;fill-rule:nonzero;stroke:none"
         id="path7276" />
    </g>
    <g
       id="g7278"
       transform="matrix(0,1.25,1.25,0,-215.97321,660.41218)">
      <path
         inkscape:connector-curvature="0"
         d="m -3.2,0 -0.9,0.06 -0.9,0.12 -0.84,0.24 -0.9,0.3 c -6.549,2.575 -11.193,11.795 -13.74,17.88 l -0.66,1.62 -0.66,1.68 -1.32,3.54 c -3.382,9.983 -5.547,20.318 -7.5,30.66 l -0.84,5.16 -0.78,5.28 c -1.84,13.613 -2.996,27.315 -3.54,41.04 l -0.18,6.3 -0.12,6.42 -0.06,6.54 0.06,6.48 0.12,6.42 0.18,6.3 c 0.544,13.725 1.7,27.427 3.54,41.04 l 0.78,5.28 0.84,5.16 c 1.953,10.342 4.118,20.677 7.5,30.66 l 1.32,3.54 0.66,1.68 0.66,1.62 c 2.547,6.085 7.191,15.305 13.74,17.88 l 0.9,0.3 0.84,0.24 0.9,0.12 0.9,0.06 0.84,-0.06 0.9,-0.12 c 6.918,-1.548 11.272,-9.558 14.16,-15.36 l 0.66,-1.5 0.72,-1.56 c 10.049,-25.133 13.37,-55.906 14.94,-82.74 l 0.3,-6.24 0.18,-6.3 0.12,-6.42 0.06,-6.48 C 29.496,95.023 27.11,59.815 17.86,29.22 L 16.66,25.44 15.4,21.9 C 12.726,15.087 8.051,4.535 1.12,1.08 L 0.28,0.72 -0.56,0.42 -1.46,0.18 -2.36,0.06 -3.2,0 z m 0.78,1.14 -0.06,0 0.84,0.12 -0.06,0 0.84,0.18 -0.06,0 0.84,0.24 -0.06,0 0.84,0.36 -0.06,0 0.84,0.42 -0.06,0 L 2.2,3 2.2,2.94 2.98,3.54 3.76,4.2 3.7,4.14 5.26,5.7 5.98,6.6 5.98,6.54 6.76,7.5 6.7,7.5 7.48,8.52 8.2,9.6 8.92,10.74 9.64,12 l 0,-0.06 0.72,1.32 c 6.027,11.728 9.292,25.257 11.82,38.1 l 0.9,4.98 0,-0.06 0.84,5.16 c 3.102,19.551 4.284,39.088 4.68,58.86 l 0,6.54 0,-0.06 0,6.54 c -0.396,19.772 -1.578,39.309 -4.68,58.86 l -0.84,5.16 0,-0.06 -0.9,4.98 c -2.528,12.843 -5.793,26.372 -11.82,38.1 l -0.72,1.32 0,-0.06 -0.72,1.26 -0.72,1.14 -0.72,1.08 -0.78,1.02 0.06,0 -0.78,0.96 0,-0.06 -0.72,0.9 -1.56,1.56 0.06,-0.06 -0.78,0.66 -0.78,0.6 0,-0.06 -0.78,0.54 0.06,0 -0.84,0.42 0.06,0 -0.84,0.36 0.06,0 -0.84,0.24 0.06,0 -0.84,0.18 0.06,0 -0.84,0.12 0.06,0 -0.84,0.06 0.06,0 -0.84,-0.06 0.06,0 -0.84,-0.12 0.06,0 -0.84,-0.18 0.06,0 -0.84,-0.24 0.06,0 -0.78,-0.36 -0.78,-0.42 -0.78,-0.54 0,0.06 -0.78,-0.6 0.06,0 -0.78,-0.66 0,0.06 -1.56,-1.56 0.06,0 -0.78,-0.9 0,0.06 -0.72,-0.96 -0.78,-1.02 0.06,0 -0.78,-1.08 -0.72,-1.14 -0.72,-1.26 0,0.06 -0.66,-1.32 -0.72,-1.32 -0.72,-1.44 0.06,0 -0.72,-1.5 c -4.73,-10.661 -7.509,-22.442 -9.78,-33.84 l -0.9,-4.98 0,0.06 -0.84,-5.16 c -3.022,-19.466 -4.374,-39.171 -4.62,-58.86 l -0.06,-6.54 0,0.06 0.06,-6.54 c 0.246,-19.689 1.598,-39.394 4.62,-58.86 l 0.84,-5.16 0,0.06 0.9,-4.98 c 2.271,-11.399 5.05,-23.179 9.78,-33.84 l 0.72,-1.5 -0.06,0 0.72,-1.44 0.72,-1.32 0.66,-1.32 0,0.06 0.72,-1.26 0.72,-1.14 0.78,-1.08 -0.06,0 0.78,-1.02 0.72,-0.96 0,0.06 0.78,-0.9 -0.06,0 1.56,-1.56 0,0.06 0.78,-0.66 -0.06,0 0.78,-0.6 0,0.06 0.78,-0.54 0.78,-0.42 0.78,-0.36 -0.06,0 0.84,-0.24 -0.06,0 0.84,-0.18 -0.06,0 0.84,-0.12 -0.06,0 0.84,-0.06 -0.06,0"
         style="fill:#5f5f5f;fill-opacity:1;fill-rule:nonzero;stroke:none"
         id="path7280" />
    </g>
    <g
       id="g7282"
       transform="matrix(0,1.25,1.2554573,0,107.15626,659.91218)">
      <path
         inkscape:connector-curvature="0"
         d="m 0,0 6.42,452.7 1.02,0 L 1.08,0 0,0 z M 3.78,1.02 0.48,-5.4 -2.7,1.08"
         style="fill:#5f5f5f;fill-opacity:1;fill-rule:nonzero;stroke:none"
         id="path7284" />
    </g>
    <g
       id="g7286"
       transform="matrix(0,1.25,1.25,0,681.10179,648.26218)">
      <path
         inkscape:connector-curvature="0"
         d="m 0,0 -0.54,0 -0.54,0.06 c -12.254,2.424 -12.202,26.622 0,28.98 l 0.54,0.06 0.54,0 C 12.873,28.371 13.774,3.26 1.56,0.18 L 1.08,0.06 0.54,0 0,0 z m 0.48,1.08 -0.06,0 0.96,0.12 -0.06,0 0.48,0.12 0.42,0.18 0,-0.06 0.48,0.24 -0.06,-0.06 0.48,0.24 -0.06,0 0.84,0.48 0.42,0.3 -0.06,0 0.42,0.36 0,-0.06 0.72,0.72 0.72,0.84 -0.06,0 0.36,0.48 0,-0.06 0.6,0.96 0.54,1.08 0,-0.06 0.48,1.2 0,-0.06 0.42,1.2 -0.06,0 0.36,1.26 0.12,0.66 0.12,0.66 -0.06,0 0.12,0.66 0.06,0.72 0,-0.06 0.06,0.72 0,0.72 0,-0.06 -0.06,0.72 0,0.72 L 9.06,16.62 8.94,17.34 9,17.28 8.88,18 l 0,-0.06 -0.12,0.66 -0.36,1.26 -0.36,1.2 -0.48,1.14 0,-0.06 -0.54,1.08 -0.6,0.96 -0.36,0.42 0.06,0 -0.72,0.84 -0.72,0.72 -0.42,0.3 0.06,0 -0.84,0.6 0,-0.06 -0.42,0.24 0.06,0 -0.48,0.24 0.06,0 -0.48,0.18 -0.42,0.12 -0.48,0.12 0.06,0 -0.96,0.12 0.06,0 -0.54,0 0.06,0 -0.48,0 -0.48,-0.06 0.06,0 -0.48,-0.06 -0.48,-0.12 0.06,0 -0.48,-0.12 0.06,0 -0.48,-0.18 0.06,0 -0.48,-0.24 0.06,0 -0.48,-0.24 0.06,0.06 -0.48,-0.3 0.06,0 -0.42,-0.3 -0.36,-0.3 -0.42,-0.36 0.06,0 -0.42,-0.36 0.06,0 -0.72,-0.84 -0.3,-0.42 -0.36,-0.48 0.06,0 -0.3,-0.48 -0.6,-1.08 0.06,0.06 -0.48,-1.14 -0.42,-1.2 -0.3,-1.26 -0.12,-0.66 0,0.06 -0.12,-0.72 0,0.06 -0.06,-0.72 -0.06,-0.66 -0.06,-0.72 0,0.06 0,-0.78 0,0.06 0,-0.72 0.06,-0.72 0,0.06 0.06,-0.72 0.06,-0.66 0.12,-0.66 0.12,-0.66 0.3,-1.26 0.42,-1.2 0,0.06 0.48,-1.2 -0.06,0.06 0.6,-1.08 0.3,-0.48 -0.06,0 0.36,-0.48 0,0.06 0.3,-0.48 0.72,-0.84 -0.06,0 0.42,-0.36 -0.06,0 0.42,-0.36 0,0.06 0.36,-0.36 0.42,-0.3 -0.06,0 0.48,-0.24 -0.06,0 0.48,-0.24 -0.06,0 0.48,-0.24 -0.06,0.06 0.48,-0.24 -0.06,0.06 0.48,-0.18 -0.06,0 0.48,-0.12 0.48,-0.06 -0.06,0 0.48,-0.06 0.48,0 -0.06,0"
         style="fill:#5f5f5f;fill-opacity:1;fill-rule:nonzero;stroke:none"
         id="path7288" />
    </g>
    <g
       id="g7290"
       transform="matrix(0,1.25,1.2693108,0,8.2060642,601.56218)">
      <path
         inkscape:connector-curvature="0"
         d="M 0,0 38.46,530.94 39.54,530.88 1.08,-0.06 0,0 z M 3.84,0.78 0.12,-5.4 -2.64,1.26"
         style="fill:#5f5f5f;fill-opacity:1;fill-rule:nonzero;stroke:none"
         id="path7292" />
    </g>
    <g
       id="g7294"
       transform="matrix(0,1.25,1.25,0,-183.57321,599.66218)">
      <path
         inkscape:connector-curvature="0"
         d="m 0,0 -0.96,0.12 -0.9,0.3 c -19.731,11.5 -19.722,136.03 0,147.54 l 0.9,0.3 0.96,0.12 0.96,-0.12 C 12.846,144.872 16.137,98.637 16.44,89.04 l 0.12,-3.6 0.12,-3.72 0.06,-7.56 C 16.744,59.506 15.856,44.478 13.5,30 l -0.48,-2.76 -0.48,-2.7 C 11.105,17.917 8.897,7.822 4.44,2.52 L 3.66,1.62 2.76,0.96 1.92,0.42 0.96,0.12 0,0 z M 0.78,1.14 0.66,1.14 1.5,1.44 1.38,1.38 2.22,1.86 2.16,1.8 2.94,2.46 2.88,2.4 l 0.78,0.84 0,-0.06 0.72,0.96 0.78,1.14 -0.06,0 0.72,1.32 0,-0.06 0.72,1.5 0,-0.06 0.72,1.62 0.66,1.8 0,-0.06 0.66,1.92 0.6,2.04 0.6,2.22 0,-0.06 0.6,2.34 0.54,2.4 c 2.691,12.197 3.81,24.685 4.44,37.14 l 0.24,7.32 c 0.279,16.152 -0.293,32.6 -2.7,48.6 l -0.42,2.88 -0.48,2.82 0,-0.06 -0.54,2.7 -0.54,2.58 0,-0.06 -0.54,2.46 -0.6,2.28 -0.6,2.22 0,-0.06 -0.6,2.1 0,-0.06 -0.66,1.92 -0.66,1.8 0,-0.06 -0.72,1.62 -0.72,1.44 -0.72,1.32 0.06,0 -0.78,1.14 0,-0.06 -0.72,1.02 0,-0.06 -0.78,0.84 0.06,-0.06 -0.78,0.66 0.06,-0.06 -0.84,0.48 0.12,-0.06 -0.84,0.3 0.12,-0.06 -0.84,0.12 0.12,0 -0.84,-0.12 0.12,0.06 -0.78,-0.3 0.06,0.06 -0.78,-0.48 0.06,0.06 -0.78,-0.66 0,0.06 -0.78,-0.84 0.06,0.06 -0.78,-1.02 0.06,0.06 -0.78,-1.14 -0.72,-1.32 0,0.06 -0.72,-1.5 0.06,0 -0.72,-1.62 0,0.06 -0.66,-1.8 -0.66,-1.92 0,0.06 -0.66,-2.1 0,0.06 -0.6,-2.22 -0.54,-2.28 -0.6,-2.46 0,0.06 -0.54,-2.58 -0.48,-2.7 0,0.06 -0.48,-2.82 -0.48,-2.88 c -2.244,-15.928 -3.006,-32.547 -2.64,-48.6 l 0.24,-7.32 c 0.634,-12.486 1.735,-24.902 4.38,-37.14 l 0.6,-2.4 0.54,-2.34 0,0.06 0.6,-2.22 0.66,-2.04 0.66,-1.92 0,0.06 0.66,-1.8 0.72,-1.62 -0.06,0.06 0.72,-1.5 0,0.06 0.72,-1.32 0.78,-1.14 -0.06,0 0.78,-0.96 -0.06,0.06 0.78,-0.84 0,0.06 0.78,-0.66 -0.06,0.06 0.78,-0.48 -0.06,0.06 0.78,-0.3 -0.12,0 0.84,-0.06 -0.12,0"
         style="fill:#5f5f5f;fill-opacity:1;fill-rule:nonzero;stroke:none"
         id="path7296" />
    </g>
    <path
       style="fill:none;stroke:#000000;stroke-width:3;stroke-linecap:butt;stroke-linejoin:miter;stroke-miterlimit:4;stroke-opacity:1;stroke-dasharray:none;marker-end:url(#Arrow1Lend)"
       d="m -166.42857,485.93361 c -180.23306,-0.85314 -169.10595,268.45655 34.28571,262.85714"
       id="path3772"
       inkscape:connector-curvature="0"
       sodipodi:nodetypes="cc" />
  </g>
</svg>
