<?xml version="1.0" encoding="UTF-8" standalone="no"?>
<!-- Created with Inkscape (http://www.inkscape.org/) -->

<svg
   xmlns:dc="http://purl.org/dc/elements/1.1/"
   xmlns:cc="http://creativecommons.org/ns#"
   xmlns:rdf="http://www.w3.org/1999/02/22-rdf-syntax-ns#"
   xmlns:svg="http://www.w3.org/2000/svg"
   xmlns="http://www.w3.org/2000/svg"
   xmlns:sodipodi="http://sodipodi.sourceforge.net/DTD/sodipodi-0.dtd"
   xmlns:inkscape="http://www.inkscape.org/namespaces/inkscape"
   width="423.22977"
   height="279.4848"
   id="svg7883"
   version="1.1"
   inkscape:version="0.48.4 r9939"
   sodipodi:docname="New document 19">
  <defs
     id="defs7885">
    <clipPath
       id="clipPath7911"
       clipPathUnits="userSpaceOnUse">
      <path
         id="path7913"
         d="m 0,841.98 595.2,0 L 595.2,0 0,0 0,841.98 z"
         inkscape:connector-curvature="0" />
    </clipPath>
    <clipPath
       id="clipPath7905"
       clipPathUnits="userSpaceOnUse">
      <path
         id="path7907"
         clip-rule="evenodd"
         d="m 588.84,0.11053 -582.72,0 0,841.86 582.72,0 0,-841.86 z"
         inkscape:connector-curvature="0" />
    </clipPath>
  </defs>
  <sodipodi:namedview
     id="base"
     pagecolor="#ffffff"
     bordercolor="#666666"
     borderopacity="1.0"
     inkscape:pageopacity="0.0"
     inkscape:pageshadow="2"
     inkscape:zoom="0.7"
     inkscape:cx="173.98472"
     inkscape:cy="25.548894"
     inkscape:document-units="px"
     inkscape:current-layer="layer1"
     showgrid="false"
     fit-margin-top="10"
     fit-margin-left="10"
     fit-margin-right="10"
     fit-margin-bottom="10"
     inkscape:window-width="954"
     inkscape:window-height="1028"
     inkscape:window-x="0"
     inkscape:window-y="0"
     inkscape:window-maximized="0" />
  <metadata
     id="metadata7888">
    <rdf:RDF>
      <cc:Work
         rdf:about="">
        <dc:format>image/svg+xml</dc:format>
        <dc:type
           rdf:resource="http://purl.org/dc/dcmitype/StillImage" />
        <dc:title></dc:title>
      </cc:Work>
    </rdf:RDF>
  </metadata>
  <g
     inkscape:label="Layer 1"
     inkscape:groupmode="layer"
     id="layer1"
     transform="translate(-69.797597,-404.64432)">
    <g
       id="g7965"
       transform="matrix(0,1.25,1.25,0,343.07737,501.94433)">
      <path
         inkscape:connector-curvature="0"
         d="M 0,0 -35.34,0 0,14.28"
         style="fill:#6666ff;fill-opacity:1;fill-rule:evenodd;stroke:none"
         id="path7967" />
    </g>
    <g
       id="g7969"
       transform="matrix(0,1.25,1.25,0,145.75237,501.49432)">
      <path
         inkscape:connector-curvature="0"
         d="M 0,0 0,-13.2 -34.26,0"
         style="fill:#fafd00;fill-opacity:1;fill-rule:evenodd;stroke:none"
         id="path7971" />
    </g>
    <g
       id="g7973"
       transform="matrix(0,1.25,1.25,0,146.42737,502.16933)">
      <path
         inkscape:connector-curvature="0"
         d="M 0,0 0,-14.52 -37.68,0 0,0 z m -34.8,-1.02 0.18,1.02 34.26,-13.26 -0.72,-0.48 0,13.2 0.54,-0.48"
         style="fill:#000000;fill-opacity:1;fill-rule:nonzero;stroke:none"
         id="path7975" />
    </g>
    <path
       inkscape:connector-curvature="0"
       d="m 146.80237,581.06933 0,42.15 30,0 0,-42.15001 -30,0 z"
       style="fill:#3333cc;fill-opacity:1;fill-rule:nonzero;stroke:none"
       id="path7977" />
    <g
       id="g7979"
       transform="matrix(0,1.25,1.25,0,145.75237,620.66932)">
      <path
         inkscape:connector-curvature="0"
         d="M 0,0 0,-13.2 -34.26,0"
         style="fill:#fafd00;fill-opacity:1;fill-rule:evenodd;stroke:none"
         id="path7981" />
    </g>
    <g
       id="g7983"
       transform="matrix(0,1.25,1.25,0,146.42737,621.34433)">
      <path
         inkscape:connector-curvature="0"
         d="M 0,0 0,-14.52 -37.68,0 0,0 z m -34.8,-1.02 0.18,1.02 34.26,-13.26 -0.72,-0.48 0,13.2 0.54,-0.48"
         style="fill:#000000;fill-opacity:1;fill-rule:nonzero;stroke:none"
         id="path7985" />
    </g>
    <g
       id="g7987"
       transform="matrix(0,1.25,1.25,0,179.20237,623.21933)">
      <path
         inkscape:connector-curvature="0"
         d="M 0,0 -35.34,0 0,14.28"
         style="fill:#6666ff;fill-opacity:1;fill-rule:evenodd;stroke:none"
         id="path7989" />
    </g>
    <path
       inkscape:connector-curvature="0"
       d="m 195.32737,581.06933 0,42.15 30.075,0 0,-42.15001 -30.075,0 z"
       style="fill:#3333cc;fill-opacity:1;fill-rule:nonzero;stroke:none"
       id="path7991" />
    <g
       id="g7993"
       transform="matrix(0,1.25,1.25,0,194.35237,620.66932)">
      <path
         inkscape:connector-curvature="0"
         d="M 0,0 0,-13.2 -34.26,0"
         style="fill:#fafd00;fill-opacity:1;fill-rule:evenodd;stroke:none"
         id="path7995" />
    </g>
    <g
       id="g7997"
       transform="matrix(0,1.25,1.25,0,195.02737,621.34433)">
      <path
         inkscape:connector-curvature="0"
         d="M 0,0 0,-14.52 -37.68,0 0,0 z m -34.8,-1.08 0.18,1.02 34.26,-13.2 -0.72,-0.48 0,13.2 0.54,-0.54"
         style="fill:#000000;fill-opacity:1;fill-rule:nonzero;stroke:none"
         id="path7999" />
    </g>
    <g
       id="g8001"
       transform="matrix(0,1.25,1.25,0,227.72737,623.21933)">
      <path
         inkscape:connector-curvature="0"
         d="M 0,0 -35.34,0 0,14.28"
         style="fill:#6666ff;fill-opacity:1;fill-rule:evenodd;stroke:none"
         id="path8003" />
    </g>
    <path
       inkscape:connector-curvature="0"
       d="m 245.95237,581.06933 0,42.15 30,0 0,-42.15001 -30,0 z"
       style="fill:#3333cc;fill-opacity:1;fill-rule:nonzero;stroke:none"
       id="path8005" />
    <g
       id="g8007"
       transform="matrix(0,1.25,1.25,0,244.90237,620.66932)">
      <path
         inkscape:connector-curvature="0"
         d="M 0,0 0,-13.2 -34.26,0"
         style="fill:#fafd00;fill-opacity:1;fill-rule:evenodd;stroke:none"
         id="path8009" />
    </g>
    <g
       id="g8011"
       transform="matrix(0,1.25,1.25,0,245.57737,621.34433)">
      <path
         inkscape:connector-curvature="0"
         d="M 0,0 0,-14.52 -37.68,0 0,0 z m -34.8,-1.02 0.18,1.02 34.26,-13.26 -0.72,-0.48 0,13.2 0.54,-0.48"
         style="fill:#000000;fill-opacity:1;fill-rule:nonzero;stroke:none"
         id="path8013" />
    </g>
    <g
       id="g8015"
       transform="matrix(0,1.25,1.25,0,278.35237,623.21933)">
      <path
         inkscape:connector-curvature="0"
         d="M 0,0 -35.34,0 0,14.28"
         style="fill:#6666ff;fill-opacity:1;fill-rule:evenodd;stroke:none"
         id="path8017" />
    </g>
    <path
       inkscape:connector-curvature="0"
       d="m 298.52737,581.06933 0,42.15 30.075,0 0,-42.15001 -30.075,0 z"
       style="fill:#3333cc;fill-opacity:1;fill-rule:nonzero;stroke:none"
       id="path8019" />
    <g
       id="g8021"
       transform="matrix(0,1.25,1.25,0,297.55237,620.66932)">
      <path
         inkscape:connector-curvature="0"
         d="M 0,0 0,-13.2 -34.26,0"
         style="fill:#fafd00;fill-opacity:1;fill-rule:evenodd;stroke:none"
         id="path8023" />
    </g>
    <g
       id="g8025"
       transform="matrix(0,1.25,1.25,0,298.22737,621.34433)">
      <path
         inkscape:connector-curvature="0"
         d="M 0,0 0,-14.52 -37.68,0 0,0 z m -34.8,-1.08 0.18,1.02 34.26,-13.2 -0.72,-0.48 0,13.2 0.54,-0.54"
         style="fill:#000000;fill-opacity:1;fill-rule:nonzero;stroke:none"
         id="path8027" />
    </g>
    <g
       id="g8029"
       transform="matrix(0,1.25,1.25,0,330.92737,623.21933)">
      <path
         inkscape:connector-curvature="0"
         d="M 0,0 -35.34,0 0,14.28"
         style="fill:#6666ff;fill-opacity:1;fill-rule:evenodd;stroke:none"
         id="path8031" />
    </g>
    <path
       inkscape:connector-curvature="0"
       d="m 351.17737,581.06933 0,42.15 30,0 0,-42.15001 -30,0 z"
       style="fill:#3333cc;fill-opacity:1;fill-rule:nonzero;stroke:none"
       id="path8033" />
    <g
       id="g8035"
       transform="matrix(0,1.25,1.25,0,350.12737,620.66932)">
      <path
         inkscape:connector-curvature="0"
         d="M 0,0 0,-13.2 -34.26,0"
         style="fill:#fafd00;fill-opacity:1;fill-rule:evenodd;stroke:none"
         id="path8037" />
    </g>
    <g
       id="g8039"
       transform="matrix(0,1.25,1.25,0,350.80237,621.34433)">
      <path
         inkscape:connector-curvature="0"
         d="M 0,0 0,-14.52 -37.68,0 0,0 z m -34.8,-1.08 0.18,1.08 34.26,-13.26 -0.72,-0.48 0,13.2 0.54,-0.54"
         style="fill:#000000;fill-opacity:1;fill-rule:nonzero;stroke:none"
         id="path8041" />
    </g>
    <g
       id="g8043"
       transform="matrix(0,1.25,1.25,0,383.50237,623.21933)">
      <path
         inkscape:connector-curvature="0"
         d="M 0,0 -35.34,0 0,14.34"
         style="fill:#6666ff;fill-opacity:1;fill-rule:evenodd;stroke:none"
         id="path8045" />
    </g>
    <path
       inkscape:connector-curvature="0"
       d="m 405.77737,581.06933 0,42.15 30,0 0,-42.15001 -30,0 z"
       style="fill:#3333cc;fill-opacity:1;fill-rule:nonzero;stroke:none"
       id="path8047" />
    <g
       id="g8049"
       transform="matrix(0,1.25,1.25,0,404.80112,620.66932)">
      <path
         inkscape:connector-curvature="0"
         d="M 0,0 0,-13.26 -34.26,0"
         style="fill:#fafd00;fill-opacity:1;fill-rule:evenodd;stroke:none"
         id="path8051" />
    </g>
    <g
       id="g8053"
       transform="matrix(0,1.25,1.25,0,405.47737,621.34433)">
      <path
         inkscape:connector-curvature="0"
         d="M 0,0 0,-14.58 -37.68,0 0,0 z m -34.8,-1.08 0.18,1.02 34.26,-13.2 -0.72,-0.54 0,13.26 0.54,-0.54"
         style="fill:#000000;fill-opacity:1;fill-rule:nonzero;stroke:none"
         id="path8055" />
    </g>
    <g
       id="g8057"
       transform="matrix(0,1.25,1.25,0,438.17612,623.21933)">
      <path
         inkscape:connector-curvature="0"
         d="M 0,0 -35.34,0 0,14.28"
         style="fill:#6666ff;fill-opacity:1;fill-rule:evenodd;stroke:none"
         id="path8059" />
    </g>
    <path
       inkscape:connector-curvature="0"
       d="m 148.82737,459.79432 0,42.15001 30,0 0,-42.15001 -30,0 z"
       style="fill:#3333cc;fill-opacity:1;fill-rule:nonzero;stroke:none"
       id="path8061" />
    <path
       inkscape:connector-curvature="0"
       d="m 181.22737,459.79432 0,42.15001 30,0 0,-42.15001 -30,0 z"
       style="fill:#3333cc;fill-opacity:1;fill-rule:nonzero;stroke:none"
       id="path8063" />
    <path
       inkscape:connector-curvature="0"
       d="m 213.55237,459.79432 0,42.15001 30,0 0,-42.15001 -30,0 z"
       style="fill:#3333cc;fill-opacity:1;fill-rule:nonzero;stroke:none"
       id="path8065" />
    <path
       inkscape:connector-curvature="0"
       d="m 245.95237,459.79432 0,42.15001 30,0 0,-42.15001 -30,0 z"
       style="fill:#3333cc;fill-opacity:1;fill-rule:nonzero;stroke:none"
       id="path8067" />
    <path
       inkscape:connector-curvature="0"
       d="m 278.35237,459.79432 0,42.15001 30,0 0,-42.15001 -30,0 z"
       style="fill:#3333cc;fill-opacity:1;fill-rule:nonzero;stroke:none"
       id="path8069" />
    <path
       inkscape:connector-curvature="0"
       d="m 310.67737,459.79432 0,42.15001 30,0 0,-42.15001 -30,0 z"
       style="fill:#3333cc;fill-opacity:1;fill-rule:nonzero;stroke:none"
       id="path8071" />
    <text
       id="text8073"
       x="217.45174"
       y="445.31931"
       style="font-size:15px">
      <tspan
         style="font-size:24.30000114px;font-variant:normal;font-weight:normal;font-stretch:normal;writing-mode:lr-tb;fill:#000000;fill-opacity:1;fill-rule:nonzero;stroke:none;font-family:Arial;-inkscape-font-specification:ArialMT"
         x="217.45174 233.65498 256.58932 263.34229 279.54553 284.93527 298.44119 311.94714 317.33688 322.72662 336.23257"
         y="445.31931"
         sodipodi:role="line"
         id="tspan8075">SW Pipeline</tspan>
      <tspan
         style="font-size:24.30000114px;font-variant:normal;font-weight:normal;font-stretch:normal;writing-mode:lr-tb;fill:#000000;fill-opacity:1;fill-rule:nonzero;stroke:none;font-family:Arial;-inkscape-font-specification:ArialMT"
         x="181.07707 194.57816 208.07922 221.58031 235.08139 241.76146 259.29636 272.79742 280.87961 294.38068 299.76556 305.15045 318.65152"
         y="562.69318"
         sodipodi:role="line"
         id="tspan8077">Loop Unrolled</tspan>
    </text>
    <text
       transform="matrix(0,-1,1,0,0,0)"
       id="text8079"
       x="-594.4859"
       y="97.192032"
       style="font-size:15px">
      <tspan
         style="font-size:24.30000114px;font-variant:normal;font-weight:normal;font-stretch:normal;writing-mode:lr-tb;fill:#000000;fill-opacity:1;fill-rule:nonzero;stroke:none;font-family:Arial;-inkscape-font-specification:ArialMT"
         x="-594.4859 -580.98486 -568.84454 -555.34351 -547.26129 -541.8764 -528.37537 -514.87427 -501.3732 -487.8721 -474.371 -467.69095 -454.18985 -440.68881"
         y="97.192032"
         sodipodi:role="line"
         id="tspan8081">overlapped ops</tspan>
    </text>
    <text
       id="text8083"
       x="239.72675"
       y="673.84436"
       style="font-size:15px">
      <tspan
         style="font-size:24.30000114px;font-style:italic;font-variant:normal;font-weight:normal;font-stretch:normal;writing-mode:lr-tb;fill:#000000;fill-opacity:1;fill-rule:nonzero;stroke:none;font-family:Arial;-inkscape-font-specification:Arial-ItalicMT"
         x="239.72675 254.35535 259.75238 280.00156"
         y="673.84436"
         sodipodi:role="line"
         id="tspan8085">Time</tspan>
    </text>
    <path
       inkscape:connector-curvature="0"
       d="m 133.97737,505.69433 0,-2.70001 332.175,0 0,2.70001 -332.175,0 z m 0,-2.70001 z m 330.74875,-2.7 8.17625,4.05 -8.17625,4.05"
       style="fill:#000000;fill-opacity:1;fill-rule:nonzero;stroke:none"
       id="path8087" />
    <path
       inkscape:connector-curvature="0"
       d="m 129.92737,630.94433 0,-2.70001 346.275,0 0,2.70001 -346.275,0 z m 0,-2.70001 z m 344.925,-2.7 8.175,4.05 -8.175,4.125"
       style="fill:#000000;fill-opacity:1;fill-rule:nonzero;stroke:none"
       id="path8089" />
    <path
       inkscape:connector-curvature="0"
       d="m 126.92737,504.64432 0,-83.25 -2.7,0 0,83.25 2.7,0 z m 2.7,-81.9 -4.05,-8.1 -4.125,8.1"
       style="fill:#000000;fill-opacity:1;fill-rule:nonzero;stroke:none"
       id="path8091" />
    <path
       inkscape:connector-curvature="0"
       d="m 126.92737,629.96932 0,-83.1 -2.7,0 0,83.1 2.7,0 z m 2.7,-81.74999 -4.05,-8.10001 -4.125,8.10001"
       style="fill:#000000;fill-opacity:1;fill-rule:nonzero;stroke:none"
       id="path8093" />
    <text
       id="text8095"
       x="239.72675"
       y="536.36932"
       style="font-size:15px">
      <tspan
         style="font-size:24.30000114px;font-style:italic;font-variant:normal;font-weight:normal;font-stretch:normal;writing-mode:lr-tb;fill:#000000;fill-opacity:1;fill-rule:nonzero;stroke:none;font-family:Arial;-inkscape-font-specification:Arial-ItalicMT"
         x="239.72675 254.35535 259.75238 280.00156"
         y="536.36932"
         sodipodi:role="line"
         id="tspan8097">Time</tspan>
    </text>
  </g>
</svg>
