<?xml version="1.0" encoding="UTF-8" standalone="no"?>
<!-- Created with Inkscape (http://www.inkscape.org/) -->

<svg
   xmlns:dc="http://purl.org/dc/elements/1.1/"
   xmlns:cc="http://creativecommons.org/ns#"
   xmlns:rdf="http://www.w3.org/1999/02/22-rdf-syntax-ns#"
   xmlns:svg="http://www.w3.org/2000/svg"
   xmlns="http://www.w3.org/2000/svg"
   xmlns:sodipodi="http://sodipodi.sourceforge.net/DTD/sodipodi-0.dtd"
   xmlns:inkscape="http://www.inkscape.org/namespaces/inkscape"
   width="853.62378"
   height="405.46515"
   id="svg4189"
   version="1.1"
   inkscape:version="0.48.4 r9939"
   sodipodi:docname="New document 5">
  <defs
     id="defs4191">
    <clipPath
       id="clipPath4217"
       clipPathUnits="userSpaceOnUse">
      <path
         id="path4219"
         d="m 0,841.98 595.2,0 L 595.2,0 0,0 0,841.98 z"
         inkscape:connector-curvature="0" />
    </clipPath>
    <clipPath
       id="clipPath4211"
       clipPathUnits="userSpaceOnUse">
      <path
         id="path4213"
         clip-rule="evenodd"
         d="m 588.84,0.11053 -582.72,0 0,841.86 582.72,0 0,-841.86 z"
         inkscape:connector-curvature="0" />
    </clipPath>
  </defs>
  <sodipodi:namedview
     id="base"
     pagecolor="#ffffff"
     bordercolor="#666666"
     borderopacity="1.0"
     inkscape:pageopacity="0.0"
     inkscape:pageshadow="2"
     inkscape:zoom="0.7"
     inkscape:cx="394.64217"
     inkscape:cy="332.71331"
     inkscape:document-units="px"
     inkscape:current-layer="layer1"
     showgrid="false"
     fit-margin-top="10"
     fit-margin-left="10"
     fit-margin-right="10"
     fit-margin-bottom="10"
     inkscape:window-width="1920"
     inkscape:window-height="1030"
     inkscape:window-x="0"
     inkscape:window-y="0"
     inkscape:window-maximized="1" />
  <metadata
     id="metadata4194">
    <rdf:RDF>
      <cc:Work
         rdf:about="">
        <dc:format>image/svg+xml</dc:format>
        <dc:type
           rdf:resource="http://purl.org/dc/dcmitype/StillImage" />
        <dc:title></dc:title>
      </cc:Work>
    </rdf:RDF>
  </metadata>
  <g
     inkscape:label="Layer 1"
     inkscape:groupmode="layer"
     id="layer1"
     transform="translate(-59.838088,-394.3479)">
    <path
       inkscape:connector-curvature="0"
       d="m 70.288088,496.7479 0,52.275 64.950002,0 0,-52.275 -64.950002,0 z"
       style="fill:#eaeaea;fill-opacity:1;fill-rule:nonzero;stroke:none"
       id="path4243" />
    <path
       inkscape:connector-curvature="0"
       d="m 69.838088,549.4729 0,-53.25 65.925002,0 0,53.25 -65.925002,0 z m 0,-53.25 z m 0.975,52.8 -0.525,-0.525 64.950002,0 -0.525,0.525 0,-52.275 0.525,0.45 -64.950002,0 0.525,-0.45"
       style="fill:#000000;fill-opacity:1;fill-rule:nonzero;stroke:none"
       id="path4245" />
    <text
       id="text4247"
       x="89.337463"
       y="534.77289"
       style="font-size:15px">
      <tspan
         style="font-size:32.40000153px;font-variant:normal;font-weight:normal;font-stretch:normal;writing-mode:lr-tb;fill:#000000;fill-opacity:1;fill-rule:nonzero;stroke:none;font-family:Times New Roman;-inkscape-font-specification:TimesNewRomanPSMT"
         x="89.337463 100.13638"
         y="534.77289"
         sodipodi:role="line"
         id="tspan4249">I$</tspan>
    </text>
    <path
       inkscape:connector-curvature="0"
       d="m 225.46309,457.4479 0,131.025 56.775,0 0,-131.025 -56.775,0 z"
       style="fill:#eaeaea;fill-opacity:1;fill-rule:nonzero;stroke:none"
       id="path4251" />
    <path
       inkscape:connector-curvature="0"
       d="m 224.93809,588.9229 0,-132 57.825,0 0,132 -57.825,0 z m 0,-132 z m 0.975,131.55 -0.45,-0.525 56.775,0 -0.45,0.525 0,-131.025 0.45,0.45 -56.775,0 0.45,-0.45"
       style="fill:#000000;fill-opacity:1;fill-rule:nonzero;stroke:none"
       id="path4253" />
    <text
       id="text4255"
       x="242.18745"
       y="534.8479"
       style="font-size:15px">
      <tspan
         style="font-size:32.40000153px;font-variant:normal;font-weight:normal;font-stretch:normal;writing-mode:lr-tb;fill:#000000;fill-opacity:1;fill-rule:nonzero;stroke:none;font-family:Times New Roman;-inkscape-font-specification:TimesNewRomanPSMT"
         x="242.18745"
         y="534.8479"
         id="tspan4257">D</tspan>
    </text>
    <path
       inkscape:connector-curvature="0"
       d="m 380.56309,457.4479 0,131.025 65.1,0 0,-131.025 -65.1,0 z"
       style="fill:#eaeaea;fill-opacity:1;fill-rule:nonzero;stroke:none"
       id="path4259" />
    <path
       inkscape:connector-curvature="0"
       d="m 380.11309,588.9229 0,-132 66.075,0 0,132 -66.075,0 z m 0,-132 z m 0.975,131.55 -0.525,-0.525 65.1,0 -0.525,0.525 0,-131.025 0.525,0.45 -65.1,0 0.525,-0.45"
       style="fill:#000000;fill-opacity:1;fill-rule:nonzero;stroke:none"
       id="path4261" />
    <text
       id="text4263"
       x="393.38745"
       y="534.8479"
       style="font-size:15px">
      <tspan
         style="font-size:32.40000153px;font-variant:normal;font-weight:normal;font-stretch:normal;writing-mode:lr-tb;fill:#000000;fill-opacity:1;fill-rule:nonzero;stroke:none;font-family:Times New Roman;-inkscape-font-specification:TimesNewRomanPSMT"
         x="393.38745 414.98856"
         y="534.8479"
         sodipodi:role="line"
         id="tspan4265">RF</tspan>
    </text>
    <path
       inkscape:connector-curvature="0"
       d="m 593.03809,424.5229 0,39.15 64.95,0 0,-39.15 -64.95,0 z"
       style="fill:#eaeaea;fill-opacity:1;fill-rule:nonzero;stroke:none"
       id="path4267" />
    <path
       inkscape:connector-curvature="0"
       d="m 592.51309,464.1979 0,-40.125 65.925,0 0,40.125 -65.925,0 z m 0,-40.125 z m 1.05,39.6 -0.525,-0.525 64.94875,0 -0.525,0.525 0,-39.15 0.525,0.525 -64.94875,0 0.525,-0.525"
       style="fill:#000000;fill-opacity:1;fill-rule:nonzero;stroke:none"
       id="path4269" />
    <text
       id="text4271"
       x="613.51245"
       y="449.12289"
       style="font-size:15px">
      <tspan
         style="font-size:13.5px;font-variant:normal;font-weight:normal;font-stretch:normal;writing-mode:lr-tb;fill:#000000;fill-opacity:1;fill-rule:nonzero;stroke:none;font-family:Times New Roman;-inkscape-font-specification:TimesNewRomanPSMT"
         x="613.51245 621.0144 630.75739"
         y="449.12289"
         sodipodi:role="line"
         id="tspan4273">FU1</tspan>
    </text>
    <path
       inkscape:connector-curvature="0"
       d="m 135.61309,525.0229 0,-4.05 79.35,0 0,4.05 -79.35,0 z m 0,-4.05 z m 77.325,-4.05 12.15,6.075 -12.15,6.075"
       style="fill:#000000;fill-opacity:1;fill-rule:nonzero;stroke:none"
       id="path4275" />
    <path
       inkscape:connector-curvature="0"
       d="m 838.06184,588.7729 0,52.275 64.875,0 0,-52.275 -64.875,0 z"
       style="fill:#eaeaea;fill-opacity:1;fill-rule:nonzero;stroke:none"
       id="path4277" />
    <path
       inkscape:connector-curvature="0"
       d="m 837.53684,641.5729 0,-53.25 65.925,0 0,53.25 -65.925,0 z m 0,-53.25 z m 0.975,52.725 -0.45,-0.45 64.87625,0 -0.45,0.45 0,-52.275 0.45,0.525 -64.87625,0 0.45,-0.525"
       style="fill:#000000;fill-opacity:1;fill-rule:nonzero;stroke:none"
       id="path4279" />
    <text
       id="text4281"
       x="850.73749"
       y="626.79791"
       style="font-size:15px">
      <tspan
         style="font-size:32.40000153px;font-variant:normal;font-weight:normal;font-stretch:normal;writing-mode:lr-tb;fill:#000000;fill-opacity:1;fill-rule:nonzero;stroke:none;font-family:Times New Roman;-inkscape-font-specification:TimesNewRomanPSMT"
         x="850.73749 874.13348"
         y="626.79791"
         sodipodi:role="line"
         id="tspan4283">D$</tspan>
    </text>
    <path
       inkscape:connector-curvature="0"
       d="m 85.138088,746.9479 0,-0.97496 100.500002,0 0,0.97496 -100.500002,0 z m 0,-0.975 z m 1.35,4.5 -8.1,-4.05 8.1,-4.05 0,8.1 z m 97.800002,-8.1 8.1,4.05 -8.1,4.05"
       style="fill:#000000;fill-opacity:1;fill-rule:nonzero;stroke:none"
       id="path4285" />
    <path
       inkscape:connector-curvature="0"
       d="m 199.51309,746.9479 0,-0.97496 133.2,0 0,0.97496 -133.2,0 z m 0,-0.975 z m 1.35,4.5 -8.1,-4.05 8.1,-4.05 0,8.1 z m 130.5,-8.1 8.1,4.05 -8.1,4.05"
       style="fill:#000000;fill-opacity:1;fill-rule:nonzero;stroke:none"
       id="path4287" />
    <path
       inkscape:connector-curvature="0"
       d="m 346.51309,746.9479 0,-0.97496 133.2,0 0,0.97496 -133.2,0 z m 0,-0.975 z m 1.35,4.5 -8.1,-4.05 8.1,-4.05 0,8.1 z m 130.5,-8.1 8.1,4.05 -8.1,4.05"
       style="fill:#000000;fill-opacity:1;fill-rule:nonzero;stroke:none"
       id="path4289" />
    <path
       inkscape:connector-curvature="0"
       d="m 493.58809,746.9479 0,-0.97496 263.85,0 0,0.97496 -263.85,0 z m 0,-0.975 z m 1.35,4.5 -8.1,-4.05 8.1,-4.05 0,8.1 z m 261.15,-8.1 8.1,4.05 -8.1,4.05"
       style="fill:#000000;fill-opacity:1;fill-rule:nonzero;stroke:none"
       id="path4291" />
    <path
       inkscape:connector-curvature="0"
       d="m 771.23809,746.9479 0,-0.97496 108.6,0 0,0.97496 -108.6,0 z m 0,-0.975 z m 1.34875,4.5 -8.1,-4.05 8.1,-4.05 0,8.1 z m 105.90125,-8.1 8.1,4.05 -8.1,4.05"
       style="fill:#000000;fill-opacity:1;fill-rule:nonzero;stroke:none"
       id="path4293" />
    <text
       id="text4295"
       x="125.41246"
       y="786.24792"
       style="font-size:15px">
      <tspan
         style="font-size:32.40000153px;font-variant:normal;font-weight:normal;font-stretch:normal;writing-mode:lr-tb;fill:#000000;fill-opacity:1;fill-rule:nonzero;stroke:none;font-family:Times New Roman;-inkscape-font-specification:TimesNewRomanPSMT"
         x="125.41246 136.21138"
         y="786.24792"
         sodipodi:role="line"
         id="tspan4297">IF</tspan>
      <tspan
         style="font-size:32.40000153px;font-variant:normal;font-weight:normal;font-stretch:normal;writing-mode:lr-tb;fill:#000000;fill-opacity:1;fill-rule:nonzero;stroke:none;font-family:Times New Roman;-inkscape-font-specification:TimesNewRomanPSMT"
         x="258.8389 269.63458 388.50369 410.12097 601.82208 621.62494 805.81897 836.41101"
         y="789.32263"
         sodipodi:role="line"
         id="tspan4299">IDRREXWB</tspan>
    </text>
    <path
       inkscape:connector-curvature="0"
       d="m 690.98809,417.9979 0,235.875 40.5,0 0,-235.875 -40.5,0 z"
       style="fill:#eaeaea;fill-opacity:1;fill-rule:nonzero;stroke:none"
       id="path4301" />
    <path
       inkscape:connector-curvature="0"
       d="m 690.53809,654.3979 0,-236.925 41.4,0 0,236.925 -41.4,0 z m 0,-236.925 z m 0.97375,236.4 -0.52375,-0.525 40.49875,0 -0.525,0.525 0,-235.875 0.525,0.45 -40.49875,0 0.52375,-0.45"
       style="fill:#000000;fill-opacity:1;fill-rule:nonzero;stroke:none"
       id="path4303" />
    <g
       id="g4305"
       transform="matrix(0,1.25,1.25,0,696.53809,447.3979)">
      <path
         inkscape:connector-curvature="0"
         d="M 0,0 141.48,24.18 141.66,23.4 0.12,-0.78"
         style="fill:#000000;fill-opacity:1;fill-rule:nonzero;stroke:none"
         id="path4307" />
    </g>
    <g
       id="g4309"
       transform="matrix(0,1.25,1.25,0,726.23809,447.3979)">
      <path
         inkscape:connector-curvature="0"
         d="m 0,0 141.48,-24.66 0.18,0.78 L 0.12,0.78"
         style="fill:#000000;fill-opacity:1;fill-rule:nonzero;stroke:none"
         id="path4311" />
    </g>
    <path
       inkscape:connector-curvature="0"
       d="m 282.61309,477.6229 0,-0.975 90.9,0 0,0.975 -90.9,0 z m 0,-0.975 z m 89.55,-3.525 8.1,4.05 -8.1,4.05"
       style="fill:#000000;fill-opacity:1;fill-rule:nonzero;stroke:none"
       id="path4313" />
    <path
       inkscape:connector-curvature="0"
       d="m 282.61309,510.3979 0,-1.05 90.9,0 0,1.05 -90.9,0 z m 0,-1.05 z m 89.55,-3.525 8.1,4.05 -8.1,4.05"
       style="fill:#000000;fill-opacity:1;fill-rule:nonzero;stroke:none"
       id="path4315" />
    <path
       inkscape:connector-curvature="0"
       d="m 282.61309,543.2479 0,-0.975 90.9,0 0,0.975 -90.9,0 z m 0,-0.975 z m 89.55,-3.6 8.1,4.05 -8.1,4.05"
       style="fill:#000000;fill-opacity:1;fill-rule:nonzero;stroke:none"
       id="path4317" />
    <path
       inkscape:connector-curvature="0"
       d="m 282.61309,576.0979 0,-0.975 90.9,0 0,0.975 -90.9,0 z m 0,-0.975 z m 89.55,-3.525 8.1,4.05 -8.1,4.05"
       style="fill:#000000;fill-opacity:1;fill-rule:nonzero;stroke:none"
       id="path4319" />
    <path
       inkscape:connector-curvature="0"
       d="m 593.03809,608.4979 0,39.15 64.95,0 0,-39.15 -64.95,0 z"
       style="fill:#eaeaea;fill-opacity:1;fill-rule:nonzero;stroke:none"
       id="path4321" />
    <path
       inkscape:connector-curvature="0"
       d="m 592.51309,648.0979 0,-40.05 65.925,0 0,40.05 -65.925,0 z m 0,-40.05 z m 1.05,39.6 -0.525,-0.525 64.94875,0 -0.525,0.525 0,-39.15 0.525,0.525 -64.94875,0 0.525,-0.525"
       style="fill:#000000;fill-opacity:1;fill-rule:nonzero;stroke:none"
       id="path4323" />
    <text
       id="text4325"
       x="595.51245"
       y="624.99792"
       style="font-size:15px">
      <tspan
         style="font-size:13.5px;font-variant:normal;font-weight:normal;font-stretch:normal;writing-mode:lr-tb;fill:#000000;fill-opacity:1;fill-rule:nonzero;stroke:none;font-family:Times New Roman;-inkscape-font-specification:TimesNewRomanPSMT"
         x="595.51245 603.76233 610.51367 616.50903 623.26038 627.01471 634.52203 638.27643 645.02777 649.5246"
         y="624.99792"
         sodipodi:role="line"
         id="tspan4327">Load/Store</tspan>
      <tspan
         style="font-size:13.5px;font-variant:normal;font-weight:normal;font-stretch:normal;writing-mode:lr-tb;fill:#000000;fill-opacity:1;fill-rule:nonzero;stroke:none;font-family:Times New Roman;-inkscape-font-specification:TimesNewRomanPSMT"
         x="616.88702 624.38489"
         y="641.12231"
         sodipodi:role="line"
         id="tspan4329">FU</tspan>
    </text>
    <path
       inkscape:connector-curvature="0"
       d="m 446.03809,477.6229 0,-0.975 66.375,0 0,0.975 -66.375,0 z m 0,-0.975 z m 65.025,-3.525 8.1,4.05 -8.1,4.05"
       style="fill:#000000;fill-opacity:1;fill-rule:nonzero;stroke:none"
       id="path4331" />
    <path
       inkscape:connector-curvature="0"
       d="m 519.53809,417.9979 0,235.875 40.425,0 0,-235.875 -40.425,0 z"
       style="fill:#eaeaea;fill-opacity:1;fill-rule:nonzero;stroke:none"
       id="path4333" />
    <path
       inkscape:connector-curvature="0"
       d="m 519.01309,654.3979 0,-236.925 41.475,0 0,236.925 -41.475,0 z m 0,-236.925 z m 0.975,236.4 -0.45,-0.525 40.425,0 -0.45,0.525 0,-235.875 0.45,0.45 -40.425,0 0.45,-0.45"
       style="fill:#000000;fill-opacity:1;fill-rule:nonzero;stroke:none"
       id="path4335" />
    <g
       id="g4337"
       transform="matrix(0,1.25,1.25,0,525.08809,447.3979)">
      <path
         inkscape:connector-curvature="0"
         d="M 0,0 141.48,24.12 141.66,23.34 0.12,-0.78"
         style="fill:#000000;fill-opacity:1;fill-rule:nonzero;stroke:none"
         id="path4339" />
    </g>
    <g
       id="g4341"
       transform="matrix(0,1.25,1.25,0,554.78809,447.3979)">
      <path
         inkscape:connector-curvature="0"
         d="m 0,0 141.48,-24.72 0.18,0.78 L 0.12,0.78"
         style="fill:#000000;fill-opacity:1;fill-rule:nonzero;stroke:none"
         id="path4343" />
    </g>
    <path
       inkscape:connector-curvature="0"
       d="m 446.03809,510.3979 0,-1.05 66.375,0 0,1.05 -66.375,0 z m 0,-1.05 z m 65.025,-3.525 8.1,4.05 -8.1,4.05"
       style="fill:#000000;fill-opacity:1;fill-rule:nonzero;stroke:none"
       id="path4345" />
    <path
       inkscape:connector-curvature="0"
       d="m 446.03809,543.2479 0,-0.975 66.375,0 0,0.975 -66.375,0 z m 0,-0.975 z m 65.025,-3.6 8.1,4.05 -8.1,4.05"
       style="fill:#000000;fill-opacity:1;fill-rule:nonzero;stroke:none"
       id="path4347" />
    <path
       inkscape:connector-curvature="0"
       d="m 446.03809,576.0979 0,-0.975 66.375,0 0,0.975 -66.375,0 z m 0,-0.975 z m 65.025,-3.525 8.1,4.05 -8.1,4.05"
       style="fill:#000000;fill-opacity:1;fill-rule:nonzero;stroke:none"
       id="path4349" />
    <path
       inkscape:connector-curvature="0"
       d="m 560.33809,444.7729 0,-0.975 25.65,0 0,0.975 -25.65,0 z m 0,-0.975 z m 24.3,-3.6 8.025,4.05 -8.025,4.05"
       style="fill:#000000;fill-opacity:1;fill-rule:nonzero;stroke:none"
       id="path4351" />
    <path
       inkscape:connector-curvature="0"
       d="m 560.33809,503.7979 0,-0.975 25.65,0 0,0.975 -25.65,0 z m 0,-0.975 z m 24.3,-3.6 8.025,4.05 -8.025,4.05"
       style="fill:#000000;fill-opacity:1;fill-rule:nonzero;stroke:none"
       id="path4353" />
    <path
       inkscape:connector-curvature="0"
       d="m 560.33809,569.5729 0,-0.975 25.65,0 0,0.975 -25.65,0 z m 0,-0.975 z m 24.3,-3.6 8.025,4.05 -8.025,4.05"
       style="fill:#000000;fill-opacity:1;fill-rule:nonzero;stroke:none"
       id="path4355" />
    <path
       inkscape:connector-curvature="0"
       d="m 560.33809,628.7479 0,-0.975 25.65,0 0,0.975 -25.65,0 z m 0,-0.975 z m 24.3,-3.6 8.025,4.05 -8.025,4.05"
       style="fill:#000000;fill-opacity:1;fill-rule:nonzero;stroke:none"
       id="path4357" />
    <path
       inkscape:connector-curvature="0"
       d="m 658.28809,451.3729 0,-1.05 25.65,0 0,1.05 -25.65,0 z m 0,-1.05 z m 24.29875,-3.525 8.10125,4.05 -8.10125,4.05"
       style="fill:#000000;fill-opacity:1;fill-rule:nonzero;stroke:none"
       id="path4359" />
    <path
       inkscape:connector-curvature="0"
       d="m 658.28809,510.3979 0,-1.05 25.65,0 0,1.05 -25.65,0 z m 0,-1.05 z m 24.29875,-3.525 8.10125,4.05 -8.10125,4.05"
       style="fill:#000000;fill-opacity:1;fill-rule:nonzero;stroke:none"
       id="path4361" />
    <path
       inkscape:connector-curvature="0"
       d="m 658.28809,576.0979 0,-0.975 25.65,0 0,0.975 -25.65,0 z m 0,-0.975 z m 24.29875,-3.525 8.10125,4.05 -8.10125,4.05"
       style="fill:#000000;fill-opacity:1;fill-rule:nonzero;stroke:none"
       id="path4363" />
    <path
       inkscape:connector-curvature="0"
       d="m 658.28809,628.7479 0,-0.975 25.65,0 0,0.975 -25.65,0 z m 0,-0.975 z m 24.29875,-3.6 8.10125,4.05 -8.10125,4.05"
       style="fill:#000000;fill-opacity:1;fill-rule:nonzero;stroke:none"
       id="path4365" />
    <path
       inkscape:connector-curvature="0"
       d="m 838.06184,431.1229 0,131.025 64.875,0 0,-131.025 -64.875,0 z"
       style="fill:#eaeaea;fill-opacity:1;fill-rule:nonzero;stroke:none"
       id="path4367" />
    <path
       inkscape:connector-curvature="0"
       d="m 837.53684,562.6729 0,-132.075 65.925,0 0,132.075 -65.925,0 z m 0,-132.075 z m 0.975,131.55 -0.45,-0.525 64.87625,0 -0.45,0.525 0,-131.025 0.45,0.525 -64.87625,0 0.45,-0.525"
       style="fill:#000000;fill-opacity:1;fill-rule:nonzero;stroke:none"
       id="path4369" />
    <text
       id="text4371"
       x="850.73749"
       y="508.52289"
       style="font-size:15px">
      <tspan
         style="font-size:32.40000153px;font-variant:normal;font-weight:normal;font-stretch:normal;writing-mode:lr-tb;fill:#000000;fill-opacity:1;fill-rule:nonzero;stroke:none;font-family:Times New Roman;-inkscape-font-specification:TimesNewRomanPSMT"
         x="850.73749 872.33856"
         y="508.52289"
         sodipodi:role="line"
         id="tspan4373">RF</tspan>
    </text>
    <path
       inkscape:connector-curvature="0"
       d="m 731.78809,451.3729 0,-1.05 99.15,0 0,1.05 -99.15,0 z m 0,-1.05 z m 97.8,-3.525 8.1,4.05 -8.1,4.05"
       style="fill:#000000;fill-opacity:1;fill-rule:nonzero;stroke:none"
       id="path4375" />
    <path
       inkscape:connector-curvature="0"
       d="m 731.78809,484.2229 0,-0.975 99.15,0 0,0.975 -99.15,0 z m 0,-0.975 z m 97.8,-3.525 8.1,4.05 -8.1,3.975"
       style="fill:#000000;fill-opacity:1;fill-rule:nonzero;stroke:none"
       id="path4377" />
    <path
       inkscape:connector-curvature="0"
       d="m 731.78809,516.9229 0,-0.975 99.15,0 0,0.975 -99.15,0 z m 0,-0.975 z m 97.8,-3.525 8.1,4.05 -8.1,4.05"
       style="fill:#000000;fill-opacity:1;fill-rule:nonzero;stroke:none"
       id="path4379" />
    <path
       inkscape:connector-curvature="0"
       d="m 731.78809,615.6229 0,-1.05 99.15,0 0,1.05 -99.15,0 z m 0,-1.05 z m 97.8,-3.525 8.1,4.05 -8.1,4.05"
       style="fill:#000000;fill-opacity:1;fill-rule:nonzero;stroke:none"
       id="path4381" />
    <path
       inkscape:connector-curvature="0"
       d="m 731.78809,549.8479 0,-1.05 99.15,0 0,1.05 -99.15,0 z m 0,-1.05 z m 97.8,-3.525 8.1,4.05 -8.1,4.05"
       style="fill:#000000;fill-opacity:1;fill-rule:nonzero;stroke:none"
       id="path4383" />
    <path
       inkscape:connector-curvature="0"
       d="m 626.11184,674.1229 0,-19.725 -1.04996,0 0,19.725 1.04996,0 z m 3.525,-18.375 -4.05,-8.1 -4.04875,8.1"
       style="fill:#000000;fill-opacity:1;fill-rule:nonzero;stroke:none"
       id="path4385" />
    <path
       inkscape:connector-curvature="0"
       d="m 593.03809,483.7729 0,38.925 64.95,0 0,-38.925 -64.95,0 z"
       style="fill:#eaeaea;fill-opacity:1;fill-rule:nonzero;stroke:none"
       id="path4387" />
    <path
       inkscape:connector-curvature="0"
       d="m 592.51309,523.1479 0,-39.9 65.925,0 0,39.9 -65.925,0 z m 0,-39.9 z m 1.05,39.45 -0.525,-0.525 64.94875,0 -0.525,0.525 0,-38.925 0.525,0.45 -64.94875,0 0.525,-0.45"
       style="fill:#000000;fill-opacity:1;fill-rule:nonzero;stroke:none"
       id="path4389" />
    <text
       id="text4391"
       x="613.51245"
       y="508.2229"
       style="font-size:15px">
      <tspan
         style="font-size:13.5px;font-variant:normal;font-weight:normal;font-stretch:normal;writing-mode:lr-tb;fill:#000000;fill-opacity:1;fill-rule:nonzero;stroke:none;font-family:Times New Roman;-inkscape-font-specification:TimesNewRomanPSMT"
         x="613.51245 621.0144 630.75739"
         y="508.2229"
         sodipodi:role="line"
         id="tspan4393">FU2</tspan>
    </text>
    <path
       inkscape:connector-curvature="0"
       d="m 593.03809,674.1229 0,52.275 64.95,0 0,-52.275 -64.95,0 z"
       style="fill:#eaeaea;fill-opacity:1;fill-rule:nonzero;stroke:none"
       id="path4395" />
    <path
       inkscape:connector-curvature="0"
       d="m 592.51309,726.8479 0,-53.25 65.925,0 0,53.25 -65.925,0 z m 0,-53.25 z m 1.05,52.8 -0.525,-0.525 64.94875,0 -0.525,0.525 0,-52.275 0.525,0.45 -64.94875,0 0.525,-0.45"
       style="fill:#000000;fill-opacity:1;fill-rule:nonzero;stroke:none"
       id="path4397" />
    <text
       id="text4399"
       x="605.71246"
       y="712.14789"
       style="font-size:15px">
      <tspan
         style="font-size:32.40000153px;font-variant:normal;font-weight:normal;font-stretch:normal;writing-mode:lr-tb;fill:#000000;fill-opacity:1;fill-rule:nonzero;stroke:none;font-family:Times New Roman;-inkscape-font-specification:TimesNewRomanPSMT"
         x="605.71246 629.10852"
         y="712.14789"
         sodipodi:role="line"
         id="tspan4401">D$</tspan>
    </text>
    <text
       id="text4403"
       x="145.13747"
       y="547.67291"
       style="font-size:15px">
      <tspan
         style="font-size:13.5px;font-variant:normal;font-weight:normal;font-stretch:normal;writing-mode:lr-tb;fill:#000000;fill-opacity:1;fill-rule:nonzero;stroke:none;font-family:Times New Roman;-inkscape-font-specification:TimesNewRomanPSMT"
         x="145.13747 154.14331 160.89465 167.64601 174.39735 178.1517 184.14706"
         y="547.67291"
         sodipodi:role="line"
         id="tspan4405">Bundle</tspan>
      <tspan
         style="font-size:13.5px;font-variant:normal;font-weight:normal;font-stretch:normal;writing-mode:lr-tb;fill:#000000;fill-opacity:1;fill-rule:nonzero;stroke:none;font-family:Times New Roman;-inkscape-font-specification:TimesNewRomanPSMT"
         x="289.66306 299.41275 306.16547 312.16217 316.66037 322.65707 326.41275 330.16846 336.92114"
         y="475.44791"
         sodipodi:role="line"
         id="tspan4407">Operation</tspan>
      <tspan
         style="font-size:13.5px;font-variant:normal;font-weight:normal;font-stretch:normal;writing-mode:lr-tb;fill:#000000;fill-opacity:1;fill-rule:nonzero;stroke:none;font-family:Times New Roman;-inkscape-font-specification:TimesNewRomanPSMT"
         x="289.66306 299.41275 306.16547 312.16217 316.66037 322.65707 326.41275 330.16846 336.92114"
         y="508.22321"
         sodipodi:role="line"
         id="tspan4409">Operation</tspan>
      <tspan
         style="font-size:13.5px;font-variant:normal;font-weight:normal;font-stretch:normal;writing-mode:lr-tb;fill:#000000;fill-opacity:1;fill-rule:nonzero;stroke:none;font-family:Times New Roman;-inkscape-font-specification:TimesNewRomanPSMT"
         x="289.66306 299.41275 306.16547 312.16217 316.66037 322.65707 326.41275 330.16846 336.92114"
         y="541.07275"
         sodipodi:role="line"
         id="tspan4411">Operation</tspan>
      <tspan
         style="font-size:13.5px;font-variant:normal;font-weight:normal;font-stretch:normal;writing-mode:lr-tb;fill:#000000;fill-opacity:1;fill-rule:nonzero;stroke:none;font-family:Times New Roman;-inkscape-font-specification:TimesNewRomanPSMT"
         x="289.66306 299.41275 306.16547 312.16217 316.66037 322.65707 326.41275 330.16846 336.92114"
         y="573.9223"
         sodipodi:role="line"
         id="tspan4413">Operation</tspan>
    </text>
    <text
       id="text4415"
       x="614.93744"
       y="578.7229"
       style="font-size:15px">
      <tspan
         style="font-size:32.40000153px;font-variant:normal;font-weight:normal;font-stretch:normal;writing-mode:lr-tb;fill:#000000;fill-opacity:1;fill-rule:nonzero;stroke:none;font-family:Times New Roman;-inkscape-font-specification:TimesNewRomanPSMT"
         x="614.93744 623.03748 631.13745"
         y="578.7229"
         sodipodi:role="line"
         id="tspan4417">...</tspan>
      <tspan
         style="font-size:32.40000153px;font-variant:normal;font-weight:normal;font-stretch:normal;writing-mode:lr-tb;fill:#000000;fill-opacity:1;fill-rule:nonzero;stroke:none;font-family:Times New Roman;-inkscape-font-specification:TimesNewRomanPSMT"
         x="463.88867 471.98865 480.08865 316.8121 324.91208 333.01212"
         y="559.29907"
         sodipodi:role="line"
         id="tspan4419">......</tspan>
      <tspan
         style="font-size:32.40000153px;font-variant:normal;font-weight:normal;font-stretch:normal;writing-mode:lr-tb;fill:#000000;fill-opacity:1;fill-rule:nonzero;stroke:none;font-family:Times New Roman;-inkscape-font-specification:TimesNewRomanPSMT"
         x="774.31305 782.41309 790.51306"
         y="532.97412"
         sodipodi:role="line"
         id="tspan4421">...</tspan>
    </text>
    <path
       inkscape:connector-curvature="0"
       d="m 192.76309,404.7979 0,229.65 7.875,0 0,-229.65 -7.875,0 z"
       style="fill:#eaeaea;fill-opacity:1;fill-rule:nonzero;stroke:none"
       id="path4423" />
    <path
       inkscape:connector-curvature="0"
       d="m 192.23809,634.9729 0,-230.625 8.925,0 0,230.625 -8.925,0 z m 0,-230.625 z m 0.975,230.1 -0.45,-0.45 7.875,0 -0.45,0.45 0,-229.65 0.45,0.525 -7.875,0 0.45,-0.525"
       style="fill:#000000;fill-opacity:1;fill-rule:nonzero;stroke:none"
       id="path4425" />
    <path
       inkscape:connector-curvature="0"
       d="m 356.11309,404.7979 0,229.65 7.95,0 0,-229.65 -7.95,0 z"
       style="fill:#eaeaea;fill-opacity:1;fill-rule:nonzero;stroke:none"
       id="path4427" />
    <path
       inkscape:connector-curvature="0"
       d="m 355.66309,634.9729 0,-230.625 8.925,0 0,230.625 -8.925,0 z m 0,-230.625 z m 0.975,230.1 -0.525,-0.45 7.95,0 -0.525,0.45 0,-229.65 0.525,0.525 -7.95,0 0.525,-0.525"
       style="fill:#000000;fill-opacity:1;fill-rule:nonzero;stroke:none"
       id="path4429" />
    <path
       inkscape:connector-curvature="0"
       d="m 486.83809,404.7979 0,262.425 7.725,0 0,-262.425 -7.725,0 z"
       style="fill:#eaeaea;fill-opacity:1;fill-rule:nonzero;stroke:none"
       id="path4431" />
    <path
       inkscape:connector-curvature="0"
       d="m 486.31309,667.6729 0,-263.325 8.775,0 0,263.325 -8.775,0 z m 0,-263.325 z m 0.975,262.875 -0.45,-0.525 7.725,0 -0.525,0.525 0,-262.425 0.525,0.525 -7.725,0 0.45,-0.525"
       style="fill:#000000;fill-opacity:1;fill-rule:nonzero;stroke:none"
       id="path4433" />
    <path
       inkscape:connector-curvature="0"
       d="m 748.13809,404.7979 0,262.425 7.8,0 0,-262.425 -7.8,0 z"
       style="fill:#eaeaea;fill-opacity:1;fill-rule:nonzero;stroke:none"
       id="path4435" />
    <path
       inkscape:connector-curvature="0"
       d="m 747.68684,667.6729 0,-263.325 8.7,0 0,263.325 -8.7,0 z m 0,-263.325 z m 0.97625,262.875 -0.525,-0.525 7.8,0 -0.52625,0.525 0,-262.425 0.52625,0.525 -7.8,0 0.525,-0.525"
       style="fill:#000000;fill-opacity:1;fill-rule:nonzero;stroke:none"
       id="path4437" />
  </g>
</svg>
