<?xml version="1.0" encoding="UTF-8" standalone="no"?>
<!-- Created with Inkscape (http://www.inkscape.org/) -->

<svg
   xmlns:dc="http://purl.org/dc/elements/1.1/"
   xmlns:cc="http://creativecommons.org/ns#"
   xmlns:rdf="http://www.w3.org/1999/02/22-rdf-syntax-ns#"
   xmlns:svg="http://www.w3.org/2000/svg"
   xmlns="http://www.w3.org/2000/svg"
   xmlns:sodipodi="http://sodipodi.sourceforge.net/DTD/sodipodi-0.dtd"
   xmlns:inkscape="http://www.inkscape.org/namespaces/inkscape"
   width="132.42625"
   height="199.55"
   id="svg8607"
   version="1.1"
   inkscape:version="0.48.4 r9939"
   sodipodi:docname="New document 22">
  <defs
     id="defs8609">
    <clipPath
       id="clipPath8635"
       clipPathUnits="userSpaceOnUse">
      <path
         id="path8637"
         d="m 0,841.98 595.2,0 L 595.2,0 0,0 0,841.98 z"
         inkscape:connector-curvature="0" />
    </clipPath>
    <clipPath
       id="clipPath8629"
       clipPathUnits="userSpaceOnUse">
      <path
         id="path8631"
         clip-rule="evenodd"
         d="m 588.84,0.11053 -582.72,0 0,841.86 582.72,0 0,-841.86 z"
         inkscape:connector-curvature="0" />
    </clipPath>
  </defs>
  <sodipodi:namedview
     id="base"
     pagecolor="#ffffff"
     bordercolor="#666666"
     borderopacity="1.0"
     inkscape:pageopacity="0.0"
     inkscape:pageshadow="2"
     inkscape:zoom="1.979899"
     inkscape:cx="50.62601"
     inkscape:cy="30.116088"
     inkscape:document-units="px"
     inkscape:current-layer="layer1"
     showgrid="false"
     fit-margin-top="10"
     fit-margin-left="10"
     fit-margin-right="10"
     fit-margin-bottom="10"
     inkscape:window-width="954"
     inkscape:window-height="1028"
     inkscape:window-x="0"
     inkscape:window-y="0"
     inkscape:window-maximized="0" />
  <metadata
     id="metadata8612">
    <rdf:RDF>
      <cc:Work
         rdf:about="">
        <dc:format>image/svg+xml</dc:format>
        <dc:type
           rdf:resource="http://purl.org/dc/dcmitype/StillImage" />
        <dc:title></dc:title>
      </cc:Work>
    </rdf:RDF>
  </metadata>
  <g
     inkscape:label="Layer 1"
     inkscape:groupmode="layer"
     id="layer1"
     transform="translate(-566.73684,-310.26933)">
    <g
       id="g8737"
       transform="matrix(0,1.25,1.25,0,605.01309,327.84433)">
      <path
         inkscape:connector-curvature="0"
         d="M 0,0 46.14,62.04 47.88,60.78 1.74,-1.26"
         style="fill:#000000;fill-opacity:1;fill-rule:nonzero;stroke:none"
         id="path8739" />
    </g>
    <g
       id="g8741"
       transform="matrix(0,1.25,1.25,0,645.73684,359.34433)">
      <path
         inkscape:connector-curvature="0"
         d="m 0,0 57.48,-55.2 1.5,1.56 L 1.5,1.56"
         style="fill:#000000;fill-opacity:1;fill-rule:nonzero;stroke:none"
         id="path8743" />
    </g>
    <g
       id="g8745"
       transform="matrix(0,1.25,1.25,0,611.61309,400.66933)">
      <path
         inkscape:connector-curvature="0"
         d="M 0,0 46.14,62.04 47.88,60.72 1.74,-1.32"
         style="fill:#000000;fill-opacity:1;fill-rule:nonzero;stroke:none"
         id="path8747" />
    </g>
    <g
       id="g8749"
       transform="matrix(0,1.25,1.25,0,645.73684,426.09433)">
      <path
         inkscape:connector-curvature="0"
         d="m 0,0 57.48,-55.2 1.5,1.56 L 1.5,1.56"
         style="fill:#000000;fill-opacity:1;fill-rule:nonzero;stroke:none"
         id="path8751" />
    </g>
    <g
       id="g8753"
       transform="matrix(0,1.25,1.25,0,614.16184,320.26933)">
      <path
         inkscape:connector-curvature="0"
         d="M 0,0 1.62,3.48 C 1.68,3.6 1.74,3.66 1.8,3.78 l 3.24,3.48 -0.18,-0.3 1.62,3.48 -0.12,-0.48 0,3.48 c 0,0.3 0.12,0.54 0.3,0.72 l 3.24,3.48 -0.3,-0.72 0,3.48 c 0,0.12 0,0.3 0.06,0.42 l 3.24,6.96 c 0.12,0.24 0.3,0.42 0.48,0.48 L 16.62,30 16.14,29.52 17.76,33 c 0.18,0.36 0.54,0.6 0.96,0.6 l 3.24,0 -0.48,-0.12 3.24,1.74 3.18,1.74 c 0.18,0.06 0.36,0.12 0.54,0.12 l 6.48,0 c 0.42,0 0.78,-0.24 0.96,-0.6 l 3.24,-6.96 -0.96,0.6 3.18,0 c 0.42,0 0.84,-0.24 1.02,-0.6 l 1.62,-3.48 -0.48,0.48 3.24,-1.68 3.24,-1.74 c 0.18,-0.12 0.36,-0.3 0.42,-0.54 l 1.62,-3.48 -0.96,0.66 3.24,0 c 0.42,0 0.78,-0.24 0.96,-0.66 l 1.62,-3.42 1.62,-3.48 -0.96,0.6 6.42,0 -0.96,-0.6 1.62,3.48 c 0.12,0.18 0.24,0.36 0.48,0.48 l 3.24,1.74 -0.3,-0.24 3.24,3.48 c 0.06,0.06 0.06,0.12 0.12,0.12 l 4.86,3.48 6.6,3.54 -0.42,-0.36 3.24,5.22 c 0.12,0.12 0.24,0.3 0.42,0.36 l 3.24,1.74 c 0.42,0.24 0.96,0.18 1.26,-0.24 L 93.84,31.56 93.6,31.74 96.78,30 c 0.24,-0.12 0.42,-0.24 0.48,-0.48 l 1.62,-3.48 -0.18,0.3 3.24,-3.48 -0.42,0.3 4.86,-1.74 c 0.24,-0.12 0.48,-0.3 0.6,-0.6 l 1.62,-3.42 -0.48,0.48 9.72,-5.22 3.18,-1.74 c 0.12,-0.06 0.24,-0.12 0.3,-0.18 l 3.24,-3.48 -0.3,0.18 3.24,-1.74 c 0.24,-0.06 0.36,-0.24 0.48,-0.48 l 1.62,-3.48 -0.48,0.54 3.24,-1.74 1.68,-0.9 -1.02,-1.92 -1.68,0.9 -3.24,1.74 c -0.24,0.06 -0.36,0.24 -0.48,0.48 l -1.62,3.48 0.48,-0.54 -3.24,1.74 c -0.12,0.06 -0.18,0.18 -0.3,0.24 L 119.76,9.24 120,9 l -3.24,1.74 -3.18,1.74 -6.48,3.48 c -0.24,0.12 -0.36,0.3 -0.48,0.48 l -1.62,3.48 0.6,-0.54 -4.8,1.74 c -0.18,0.06 -0.36,0.12 -0.48,0.24 l -3.18,3.48 c -0.12,0.12 -0.18,0.18 -0.24,0.3 l -1.62,3.48 0.48,-0.54 -3.24,1.74 c -0.06,0.06 -0.18,0.18 -0.24,0.24 l -3.24,3.48 1.32,-0.24 -3.24,-1.74 0.42,0.42 -3.24,-5.22 c -0.12,-0.18 -0.24,-0.3 -0.42,-0.36 l -6.36,-3.42 -4.8,-3.48 0.12,0.12 -3.24,-3.42 c -0.06,-0.12 -0.18,-0.18 -0.24,-0.24 l -3.24,-1.74 0.48,0.48 -1.62,-3.48 c -0.18,-0.36 -0.6,-0.6 -1.02,-0.6 l -6.42,0 c -0.42,0 -0.84,0.24 -1.02,0.6 l -3.24,6.96 1.02,-0.6 -3.24,0 c -0.42,0 -0.78,0.24 -0.96,0.6 l -1.62,3.48 0.42,-0.48 -3.18,1.74 -3.24,1.74 C 42.24,24.72 42.12,24.9 42,25.14 l -1.62,3.48 0.96,-0.66 -3.18,0 c -0.42,0 -0.84,0.24 -1.02,0.66 l -1.62,3.48 -1.62,3.42 1.02,-0.6 -6.48,0 0.54,0.12 -6.48,-3.48 C 22.32,31.5 22.14,31.44 21.96,31.44 l -3.24,0 1.02,0.66 -1.62,-3.48 C 18,28.38 17.88,28.2 17.64,28.08 l -3.24,-1.68 0.48,0.48 -3.24,-6.96 0.12,0.48 0,-3.48 c 0,-0.3 -0.12,-0.54 -0.3,-0.72 l -3.24,-3.48 0.3,0.72 0,-3.48 C 8.52,9.84 8.46,9.66 8.4,9.54 L 6.78,6.06 C 6.78,5.94 6.72,5.82 6.6,5.76 L 3.36,2.28 3.6,2.58 1.98,-0.9 0,0 z m 134.1,2.04 4.2,-5.94 -7.26,0.18"
         style="fill:#6666ff;fill-opacity:1;fill-rule:nonzero;stroke:none"
         id="path8755" />
    </g>
  </g>
</svg>
