<?xml version="1.0" encoding="UTF-8" standalone="no"?>
<!-- Created with Inkscape (http://www.inkscape.org/) -->

<svg
   xmlns:dc="http://purl.org/dc/elements/1.1/"
   xmlns:cc="http://creativecommons.org/ns#"
   xmlns:rdf="http://www.w3.org/1999/02/22-rdf-syntax-ns#"
   xmlns:svg="http://www.w3.org/2000/svg"
   xmlns="http://www.w3.org/2000/svg"
   xmlns:sodipodi="http://sodipodi.sourceforge.net/DTD/sodipodi-0.dtd"
   xmlns:inkscape="http://www.inkscape.org/namespaces/inkscape"
   width="1029.2756"
   height="529.40002"
   id="svg9540"
   version="1.1"
   inkscape:version="0.48.4 r9939"
   sodipodi:docname="New document 26">
  <defs
     id="defs9542">
    <clipPath
       id="clipPath9568"
       clipPathUnits="userSpaceOnUse">
      <path
         id="path9570"
         d="m 0,841.98 595.2,0 L 595.2,0 0,0 0,841.98 z"
         inkscape:connector-curvature="0" />
    </clipPath>
    <clipPath
       id="clipPath9562"
       clipPathUnits="userSpaceOnUse">
      <path
         id="path9564"
         clip-rule="evenodd"
         d="m 588.84,0.11053 -582.72,0 0,841.86 582.72,0 0,-841.86 z"
         inkscape:connector-curvature="0" />
    </clipPath>
  </defs>
  <sodipodi:namedview
     id="base"
     pagecolor="#ffffff"
     bordercolor="#666666"
     borderopacity="1.0"
     inkscape:pageopacity="0.0"
     inkscape:pageshadow="2"
     inkscape:zoom="0.98994949"
     inkscape:cx="365.84709"
     inkscape:cy="290.44893"
     inkscape:document-units="px"
     inkscape:current-layer="layer1"
     showgrid="false"
     fit-margin-top="10"
     fit-margin-left="10"
     fit-margin-right="10"
     fit-margin-bottom="10"
     inkscape:window-width="954"
     inkscape:window-height="1028"
     inkscape:window-x="0"
     inkscape:window-y="0"
     inkscape:window-maximized="0" />
  <metadata
     id="metadata9545">
    <rdf:RDF>
      <cc:Work
         rdf:about="">
        <dc:format>image/svg+xml</dc:format>
        <dc:type
           rdf:resource="http://purl.org/dc/dcmitype/StillImage" />
        <dc:title></dc:title>
      </cc:Work>
    </rdf:RDF>
  </metadata>
  <g
     inkscape:label="Layer 1"
     inkscape:groupmode="layer"
     id="layer1"
     transform="translate(159.2661,-260.70861)">
    <g
       id="g9594"
       transform="matrix(0,1.25,1.25,0,680.90952,271.23361)">
      <path
         inkscape:connector-curvature="0"
         d="m 0,0 c 0.96,-24.84 -0.54,-28.32 4.86,-46.02 1.32,-4.26 2.16,-9.06 3.6,-13.14 0.72,-1.92 1.5,-3.54 2.46,-5.28 0.66,-1.32 2.4,-3.96 2.4,-3.96 l 45.36,-48.24 84.18,-35.04 71.22,-7.02 64.74,14.04 84.18,13.98 c 4.86,0.6 6.6,2.34 10.92,4.44 9.06,4.38 21.84,6.54 25.5,18.36 1.32,4.26 4.02,7.5 4.86,11.88 0.96,5.22 2.4,15.78 2.4,15.78 -0.36,12.24 -0.24,24.54 -1.2,36.84 -0.24,2.76 -1.62,5.22 -2.4,7.86 -0.96,3.06 -4.86,7.92 -4.86,7.92 -9.72,7.02 1.98,-2.22 -6.12,6.54 -5.52,6 -2.4,-1.14 -4.8,6.6 -8.82,6.3 -5.28,3.06 -10.98,9.18 -10.38,3.84 -4.68,2.34 -16.98,3.96 -15.78,-0.72 -43.56,2.04 -54.6,-15.78 -5.16,-3.66 -7.56,-10.38 -13.38,-13.14 -2.28,-1.2 -4.86,-1.74 -7.26,-2.64 -1.26,-0.42 -3.66,-1.32 -3.66,-1.32 -6.06,-0.42 -12.12,-1.02 -18.24,-1.32 -11.28,-0.6 -22.62,-1.32 -33.96,-1.32 -19.14,0 -31.32,3.24 -48.54,7.92 -4.62,1.32 -12.96,2.34 -17.04,5.28 -12.96,9.3 6.78,-5.28 -7.26,6.54 -5.52,4.68 -9.6,5.88 -13.38,11.82 C 131.4,-1.44 121.14,2.76 110.46,6.6 106.44,8.04 102,17.1 102,17.1 c -8.52,6.12 -5.7,2.64 -9.72,9.24 -1.26,0.84 -2.7,1.44 -3.66,2.58 -1.92,2.34 -4.86,7.92 -4.86,7.92 -5.1,3.66 -8.88,7.86 -14.58,10.5 -2.28,1.2 -7.26,2.64 -7.26,2.64 C 46.5,49.26 31.02,53.22 21.84,38.16 16.2,34.08 14.04,26.34 10.92,19.74 7.8,12.84 3.9,6.42 0,0"
         style="fill:#3333cc;fill-opacity:1;fill-rule:evenodd;stroke:none"
         id="path9596" />
    </g>
    <g
       id="g9598"
       transform="matrix(0,1.25,1.25,0,680.68452,271.68361)">
      <path
         inkscape:connector-curvature="0"
         d="m 0,0 0.06,0.18 0,-1.14 c 0.698,-11.856 -0.362,-24.642 2.46,-36.12 l 0.3,-1.32 0,0.06 0.36,-1.38 c 1.259,-4.843 2.798,-9.427 3.9,-14.34 l 0.42,-1.68 0,0.06 0.48,-1.62 0.54,-1.56 0.24,-0.72 0.3,-0.66 -0.06,0 0.6,-1.26 0.66,-1.32 -0.06,0.06 0.72,-1.32 c 0.713,-1.278 1.468,-2.611 2.34,-3.78 l 0.06,-0.12 -0.06,0.06 45.36,-48.24 -0.18,0.06 84.18,-35.04 -0.12,0 71.22,-7.02 -0.12,0 64.8,14.04 84.18,14.04 0.9,0.12 -0.06,0 0.84,0.18 0,-0.06 0.72,0.18 0.72,0.24 -0.06,0 0.66,0.18 0.66,0.24 0.6,0.24 0.6,0.3 -0.06,0 1.2,0.6 c 7.341,4.43 16.155,5.993 23.04,11.22 l 0.78,0.66 -0.06,0 0.78,0.66 0,-0.06 1.32,1.44 c 1.166,1.266 2.033,2.769 2.76,4.32 l 0.42,1.02 0.36,1.08 c 0.574,2.036 1.672,4.011 2.64,5.88 l 0.66,1.44 0.36,0.72 -0.06,-0.06 0.36,0.78 -0.06,-0.06 0.3,0.78 0.24,0.72 0.24,0.78 -0.06,0 0.18,0.78 0.12,0.48 c 0.591,3.52 1.116,7.023 1.62,10.56 l 0.12,0.6 0.06,0.54 c 0.199,1.154 0.394,2.318 0.48,3.48 l 0.06,0.06 0,0.06 0,-0.06 -0.12,4.56 c -0.334,9.955 -0.246,20.006 -0.96,29.94 l -0.18,2.28 0.06,0 -0.12,0.54 0,-0.06 -0.06,0.54 0,-0.06 -0.24,1.02 -0.3,0.96 0.06,0 -0.36,0.96 c -0.983,2.344 -1.504,4.893 -2.94,7.02 l -0.42,0.66 0.06,0 -0.42,0.6 -0.42,0.66 0,-0.06 -0.42,0.6 c -0.461,0.732 -1.083,1.479 -1.62,2.16 l -0.06,0.06 0.12,-0.12 -0.48,0.36 -0.36,0.3 -0.42,0.24 -0.36,0.24 0.06,0 -0.36,0.24 -0.3,0.24 -0.48,0.36 -0.24,0.12 -0.18,0.18 0,-0.06 -0.36,0.24 -0.24,0.18 -0.18,0.12 -0.12,0.06 -0.06,0.06 0.06,0 0.36,0.66 0.12,-0.06 0.06,-0.06 0,0.06 0.24,-0.12 -0.06,0 0.3,-0.12 -0.06,0 0.12,0 -0.06,0 0.12,0 -0.18,0 0.06,0 -0.18,-0.12 0.06,0.06 -0.06,-0.24 0,0.12 0,-0.12 -0.06,0.12 0,-0.06 -0.06,0.24 0,-0.06 -0.18,0.3 0.06,-0.06 -0.24,0.36 0,-0.06 -0.3,0.42 c -0.699,0.856 -1.456,1.664 -2.16,2.52 l -0.54,0.54 0.06,-0.06 -1.2,1.2 0,-0.06 -0.3,0.3 -0.3,0.18 0.06,0 -0.3,0.18 0.06,0 -0.24,0.12 0.06,0 -0.18,0.06 -0.12,0.06 -0.12,0 0.06,0 -0.12,0 0.12,0 -0.18,0 0.06,0 -0.12,0 -0.24,-0.06 -0.18,0.12 -0.12,0.18 -0.06,0.12 -0.06,0.12 0,0.12 -0.12,0.36 c -0.138,0.672 -0.411,1.303 -0.54,1.98 l -0.18,0.6 -0.24,0.66 0.18,-0.18 -0.78,0.54 c -4.451,3.111 -6.23,3.884 -9.72,8.16 l -0.48,0.54 0.12,-0.12 -0.48,0.18 c -2.055,0.797 -4.123,1.555 -6.18,2.34 l -0.6,0.12 0.06,0 -0.54,0.18 -0.54,0.06 -0.3,0.06 0.06,0 -0.36,0.06 c -2.47,0.254 -4.969,0.544 -7.44,0.84 l -0.6,0.06 0.06,0 -1.5,0 c -8.513,-0.27 -17.073,-0.051 -25.56,-1.14 l -1.98,-0.3 0.06,0 -1.98,-0.36 0.06,0.06 -1.92,-0.42 -1.86,-0.42 -1.86,-0.54 -1.8,-0.54 -1.74,-0.66 -1.74,-0.72 0.06,0 -1.68,-0.78 -1.62,-0.9 -0.78,-0.48 0,0.06 -0.78,-0.54 c -2.115,-1.366 -3.754,-2.979 -5.46,-4.8 l -0.6,-0.72 0.06,0 -0.6,-0.78 -0.54,-0.78 -0.54,-0.84 -1.02,-0.78 0.06,0 -0.9,-0.78 -0.84,-0.78 0.06,0 -0.84,-0.9 -0.72,-0.9 -0.78,-0.9 c -3.52,-4.549 -5.654,-7.419 -11.22,-9.36 l -0.96,-0.3 -1.86,-0.6 -0.9,-0.3 c -0.881,-0.249 -1.691,-0.673 -2.58,-0.9 l -0.9,-0.36 c -0.657,-0.09 -0.579,-0.32 -0.96,-0.3 l -0.06,-0.06 -0.06,0 -4.62,-0.36 -9.12,-0.72 c -15.599,-0.785 -31.474,-2.054 -47.1,-1.38 l -3.24,0.24 c -11.756,0.935 -22.397,3.469 -33.72,6.6 l -1.56,0.42 -1.62,0.42 -0.9,0.3 0,-0.06 -0.96,0.24 -1.08,0.24 c -4.491,1.115 -9.28,1.803 -13.38,4.08 l -0.42,0.24 -0.42,0.3 c -1.357,1.108 -2.833,2.035 -4.26,3.06 l -0.12,0.12 -0.12,0.06 0.06,0 -0.12,0.06 -0.06,0 -0.06,0.06 0.3,-0.12 0.24,0.72 0.06,-0.06 -0.06,0.06 0.12,-0.12 0.18,-0.12 0.24,-0.18 0,0.06 0.24,-0.18 c 0.286,-0.226 1.181,-0.801 1.56,-0.96 l 0.12,-0.06 -0.12,0 0.12,0 -0.42,-0.3 0,0.06 0,-0.24 -0.06,0.06 0.06,-0.06 -0.06,0.12 -0.12,0.12 0,-0.06 -0.12,0.18 -0.12,0.12 c -1.818,1.72 -3.861,3.413 -5.76,5.04 l -1.02,0.78 -0.9,0.66 c -3.436,2.448 -7.463,4.963 -9.78,8.58 l -0.72,1.08 0.18,-0.18 -3.96,1.44 -3.96,1.5 -15.72,6 -3.96,1.5 0,-0.06 -3.96,1.5 -0.42,0.12 c -1.671,0.837 -3.128,2.525 -4.26,3.96 l -0.66,0.9 -0.6,0.96 c -0.94,1.415 -1.821,2.866 -2.58,4.38 l -0.12,0.12 -0.06,0.12 0.06,0 -0.06,0.12 -0.06,0.06 0.18,-0.18 -0.78,0.54 c -4.033,2.881 -6.496,3.44 -8.7,8.16 l -0.36,0.6 0.12,-0.12 -0.48,0.3 c -3.967,1.933 -5.161,5.379 -7.38,9 l -0.3,0.48 0.06,0 -0.12,0.18 -0.12,0.18 -0.06,0.18 -0.12,0.12 -0.06,0.12 0,-0.06 0,0.12 -0.06,0.06 0.12,-0.12 -0.96,0.66 c -2.954,2.278 -5.71,4.806 -8.76,6.96 l -0.9,0.66 0,-0.06 -0.9,0.66 0,-0.06 -0.96,0.6 -1.02,0.54 0.06,0 -1.08,0.48 -0.42,0.24 -1.08,0.48 0,-0.06 -0.54,0.24 c -1.27,0.602 -2.664,0.849 -3.96,1.38 l -0.42,0.12 0.06,0 -0.36,0.12 0,-0.06 -0.12,0.06 -0.18,0.06 0.06,0 -0.12,0 -0.06,0.06 -0.06,0 0.12,0 -1.44,-0.06 c -4.712,-0.193 -9.497,0.059 -14.22,0 l -1.38,-0.06 0.06,0 -1.38,-0.06 C 37.9,49.304 33.084,48.356 28.56,45.42 l -1.08,-0.78 0.06,0 -1.08,-0.84 0.06,0 -0.54,-0.48 c -1.612,-1.536 -3.072,-3.363 -4.2,-5.28 l -1.08,-0.84 0.06,0.06 -0.96,-0.9 -0.84,-0.96 0,0.06 -0.84,-1.08 0.06,0.06 -0.78,-1.08 -0.72,-1.14 -0.66,-1.14 -0.6,-1.2 -0.6,-1.26 0,0.06 -0.6,-1.26 C 11.384,20.337 8.299,13.803 4.32,7.26 L 2.88,4.8 0,0 z m 2.22,5.22 1.44,2.4 c 2.326,4.13 4.631,8.126 6.54,12.48 l 0.6,1.2 -0.06,0 0.6,1.26 c 2.173,5.149 4.482,11.503 8.88,15.24 l 1.02,0.84 -0.12,-0.12 0.48,0.72 0.42,0.66 c 7.577,11.013 18.829,10.725 30.9,10.62 l 2.88,-0.06 2.88,0 1.44,0.06 1.5,0.06 0.06,0 0.06,-0.06 0.12,0 0.12,-0.06 0.18,-0.06 0.3,-0.12 0.42,-0.12 0.48,-0.12 1.08,-0.36 0.6,-0.18 c 3.557,-1.222 6.801,-2.824 9.78,-5.16 l 3.48,-2.76 1.74,-1.44 -0.06,0 1.8,-1.44 0.9,-0.66 1.02,-0.78 0.06,-0.06 0,-0.06 0.06,-0.06 0.06,-0.12 0.06,-0.12 0.12,-0.18 0.06,-0.18 0.12,-0.18 0.24,-0.48 0,0.06 0.3,-0.54 0.36,-0.6 0.3,-0.6 0.42,-0.66 0,0.06 0.36,-0.66 c 0.746,-1.111 1.463,-2.481 2.34,-3.48 l 0.36,-0.42 0,0.06 0.42,-0.42 -0.06,0.06 0.48,-0.36 -0.06,0 0.48,-0.3 0.96,-0.54 c 1.647,-0.95 1.024,-0.921 2.1,-2.4 l 0.24,-0.42 0.24,-0.36 c 0.262,-0.586 0.611,-1.04 0.96,-1.56 l 0.12,-0.18 0.3,-0.3 -0.06,0.06 0.3,-0.3 0.36,-0.24 -0.06,0 0.24,-0.12 0.24,-0.18 -0.06,0 0.3,-0.12 c 1.839,-1.311 3.803,-2.441 5.58,-3.84 l 0.06,-0.12 0,0.06 0,-0.12 0.06,-0.12 0.12,-0.12 0.12,-0.24 0.12,-0.24 0.12,-0.3 0,0.06 0.18,-0.36 0.18,-0.3 0.24,-0.36 0.18,-0.42 0.24,-0.42 0,0.06 0.54,-0.9 1.2,-1.8 0.66,-0.9 0.72,-0.9 -0.06,0.06 0.78,-0.84 -0.06,0 0.42,-0.36 -0.06,0 0.42,-0.36 -0.06,0 0.42,-0.36 0,0.06 0.36,-0.36 0,0.06 0.36,-0.3 0.36,-0.24 0,0.06 0.36,-0.24 -0.06,0.06 0.42,-0.18 -0.06,0 4.02,-1.44 3.96,-1.5 7.86,-3 7.8,-3 3.96,-1.44 4.14,-1.5 0.42,-0.66 0.36,-0.54 0,0.06 0.3,-0.54 0.36,-0.42 0.72,-0.9 0.78,-0.78 -0.06,0 0.78,-0.72 0.72,-0.66 c 3.304,-2.693 6.933,-4.817 10.14,-7.74 l 0.54,-0.48 0.54,-0.42 c 1.054,-1.031 2.143,-1.803 3.12,-2.94 l 0.06,-0.24 -0.12,-0.48 -0.48,0 -0.72,0.36 -0.3,0.18 -0.24,0.18 -0.6,0.42 -0.24,0.18 -0.24,0.12 -0.18,0.12 -0.12,0.12 -1.02,0.78 1.32,0 0.12,-0.12 0.06,0 0.18,-0.18 0,0.06 0.12,-0.12 c 1.409,-1.007 2.834,-2.051 4.26,-3.06 l 0.42,-0.3 -0.06,0.06 0.42,-0.3 0,0.06 0.9,-0.54 -0.06,0.06 1.02,-0.48 -0.06,0 1.08,-0.36 -0.06,0 1.14,-0.42 -0.06,0 1.14,-0.36 0,0.06 1.2,-0.36 -0.06,0 1.2,-0.3 c 13.781,-2.929 26.715,-7.601 40.92,-9 l 1.56,-0.18 -0.06,0 1.56,-0.12 c 2.582,-0.344 5.363,-0.398 7.98,-0.54 l 1.74,0 -0.06,0 1.74,-0.06 c 16.287,0.026 33.187,1.03 49.44,2.28 l 4.5,0.36 -0.12,-0.06 0.06,0.06 0.12,0 c 0.792,0.313 1.601,0.585 2.4,0.9 l 0.6,0.18 0.24,0.12 c 2.797,1.01 5.364,1.553 8.04,2.94 l 0.48,0.3 0.96,0.66 0,-0.06 0.9,0.72 0.84,0.78 0.84,0.84 -0.06,-0.06 0.84,0.9 -0.06,0 0.78,0.9 c 2.03,2.405 3.848,5.167 6.3,7.14 l 0.96,0.72 -0.12,-0.06 0.54,0.84 c 10.559,15.388 33.122,14.689 49.68,15 l 1.68,0 -0.06,0 1.62,0.06 1.5,0.06 c 3.556,-0.676 7.749,-0.556 11.1,-1.68 l 0.36,-0.18 0.36,-0.12 0.96,-0.36 0.54,-0.24 0.6,-0.18 0.72,-0.3 0.72,-0.24 0.84,-0.36 0.48,-0.12 0.54,-0.24 0.6,-0.6 0.84,-0.96 c 0.905,-0.93 1.919,-2.191 2.88,-3 l 0.36,-0.3 0.24,-0.12 0.24,-0.18 -0.06,0 0.3,-0.18 0.24,-0.18 c 1.08,-0.69 2.054,-1.446 3.12,-2.16 l 0.66,-0.48 0.72,-0.48 0.9,-0.66 0.24,-0.78 0.24,-0.66 0.12,-0.48 0.12,-0.48 0.12,-0.36 0.12,-0.36 0.12,-0.48 0.06,-0.18 -0.06,0 0.06,-0.12 0.06,-0.06 -0.06,0.06 0.06,-0.06 -0.06,0.06 0.06,-0.06 -0.18,0.12 0.06,0 -0.3,0.06 0.12,0 -0.06,0 0.12,0 0.24,0.06 c 1.665,-0.377 3.509,-2.764 4.62,-3.96 l 0.3,-0.36 0.24,-0.3 0.24,-0.24 c 0.367,-0.524 0.919,-1.032 1.2,-1.56 l 0.12,-0.3 0.06,-0.24 0,-0.3 -0.24,-0.24 -0.24,-0.06 -0.42,0 -0.3,0.18 -0.36,0.18 -0.06,0.06 0,-0.06 -2.82,1.56 0.3,0.6 2.88,-1.44 0.06,-0.06 0.12,-0.06 c 1.177,-0.8 2.353,-1.586 3.48,-2.46 l 0.48,-0.3 0.06,-0.06 0.06,-0.06 0,-0.06 0.12,-0.12 0.06,-0.12 0.12,-0.12 0.24,-0.36 0.36,-0.36 0.36,-0.48 0.36,-0.54 0.84,-1.2 0.84,-1.32 0.36,-0.66 0.36,-0.72 0.36,-0.66 c 1.217,-3.774 3.248,-7.437 3.06,-11.52 l 0.18,-2.34 0.24,-4.56 0.12,-4.62 0.24,-9.24 0.06,-4.62 0.12,-4.56 0.12,-4.62 0,-0.12 c -0.037,-0.251 -0.158,-0.723 -0.12,-0.96 l -0.12,-0.72 -0.06,-0.42 -0.06,-0.48 0,0.06 -0.06,-0.54 -0.12,-0.48 -0.06,-0.54 c -0.478,-3.343 -1.034,-6.739 -1.56,-10.08 l -0.12,-0.54 -0.06,-0.54 c -0.555,-3.172 -1.589,-5.11 -3.06,-7.98 l -0.72,-1.44 -0.66,-1.44 -0.24,-0.78 c -2.926,-10.129 -11.577,-13.568 -20.64,-17.1 l -1.8,-0.72 -1.86,-0.78 0.06,0 -1.74,-0.78 -0.78,-0.42 -1.44,-0.72 0.06,0 -0.66,-0.36 c -2.985,-1.573 -4.798,-2.535 -8.22,-2.94 l -84.18,-14.04 -64.8,-14.04 -71.34,7.02 -84.3,35.16 -45.42,48.3 0,0.06 c -6.105,8.186 -6.765,17.611 -9.9,27.06 l -0.36,1.44 -0.36,1.32 c -3.063,11.77 -2.162,24.367 -2.7,36.48 l -0.06,1.14 -0.06,1.26"
         style="fill:#000000;fill-opacity:1;fill-rule:nonzero;stroke:none"
         id="path9600" />
    </g>
    <g
       id="g9602"
       transform="matrix(0,1.25,1.25,0,307.18452,271.75861)">
      <path
         inkscape:connector-curvature="0"
         d="m 0,0 12.9,-63.18 45.36,-42.06 58.26,-28.08 116.58,14.04 64.74,14.04 51.78,28.08 32.4,49.08 12.9,77.16 -6.42,35.1 -6.48,28.02 -25.92,28.08 -38.88,0 -25.86,-35.1 -6.48,-28.02 0,-35.1 -6.48,-49.08 -6.48,-21.06 -97.14,0 -25.86,21.06 -58.32,21 -25.86,56.16 -51.84,0 L 0,28.02 0,0"
         style="fill:#3333cc;fill-opacity:1;fill-rule:evenodd;stroke:none"
         id="path9604" />
    </g>
    <g
       id="g9606"
       transform="matrix(0,1.25,1.25,0,307.18452,272.20861)">
      <path
         inkscape:connector-curvature="0"
         d="m 0,0 0,0.06 12.96,-63.12 -0.12,0.18 45.3,-42.06 -0.06,0.06 58.26,-28.08 -0.24,0.06 116.58,14.04 -0.06,0 64.74,13.98 -0.06,0 51.78,28.02 -0.18,-0.12 32.4,49.14 -0.06,-0.18 12.96,77.16 0,-0.12 -6.48,35.04 -6.48,28.08 0.12,-0.18 -25.92,28.02 0.3,-0.12 -38.88,0 0.36,0.18 -25.92,-35.1 0.06,0.18 -6.48,-28.08 0.06,0.12 0,-35.1 -6.54,-49.2 -6.54,-21.36 -97.56,0 -26.04,21.18 0.12,-0.12 L 90,13.68 64.02,69.96 l 0.36,-0.24 -51.84,0 0.42,0.3 L 0,27.9 0,28.02 0,0 z m -0.78,28.08 13.08,42.42 52.32,0 25.98,-56.34 -0.18,0.24 58.32,-21.06 25.92,-21.12 -0.24,0.12 97.14,0 -0.36,-0.3 6.48,21.06 -0.06,-0.06 6.48,49.08 0,-0.06 0,35.1 6.54,28.2 26.04,35.28 39.24,0 26.1,-28.26 6.48,-28.14 6.48,-35.16 -12.96,-77.34 -32.46,-49.2 -51.96,-28.14 -64.8,-14.04 -116.7,-14.04 -58.44,28.08 -45.48,42.24 -12.96,63.3"
         style="fill:#000000;fill-opacity:1;fill-rule:nonzero;stroke:none"
         id="path9608" />
    </g>
    <path
       inkscape:connector-curvature="0"
       d="m -61.14048,287.88361 0,81 87.75,0 0,-81 -87.75,0 z"
       style="fill:#00cc99;fill-opacity:1;fill-rule:nonzero;stroke:none"
       id="path9610" />
    <path
       inkscape:connector-curvature="0"
       d="m -61.59048,369.33361 0,-81.9 88.65,0 0,81.9 -88.65,0 z m 0,-81.9 z m 0.975,81.45 -0.525,-0.525 87.75,0 -0.525,0.525 0,-81 0.525,0.525 -87.75,0 0.525,-0.525"
       style="fill:#000000;fill-opacity:1;fill-rule:nonzero;stroke:none"
       id="path9612" />
    <text
       id="text9614"
       x="-28.291105"
       y="341.13361"
       style="font-size:15px">
      <tspan
         style="font-size:32.40000153px;font-variant:normal;font-weight:normal;font-stretch:normal;writing-mode:lr-tb;fill:#000000;fill-opacity:1;fill-rule:nonzero;stroke:none;font-family:Verdana;-inkscape-font-specification:Verdana"
         x="-28.291105"
         y="341.13361"
         id="tspan9616">A</tspan>
    </text>
    <path
       inkscape:connector-curvature="0"
       d="m -140.04048,409.30861 0,80.925 87.675,0 0,-80.925 -87.675,0 z"
       style="fill:#00cc99;fill-opacity:1;fill-rule:nonzero;stroke:none"
       id="path9618" />
    <path
       inkscape:connector-curvature="0"
       d="m -140.49048,490.75861 0,-81.9 88.65,0 0,81.9 -88.65,0 z m 0,-81.9 z m 0.975,81.375 -0.525,-0.45 87.675,0 -0.45,0.45 0,-80.925 0.45,0.525 -87.675,0 0.525,-0.525"
       style="fill:#000000;fill-opacity:1;fill-rule:nonzero;stroke:none"
       id="path9620" />
    <text
       id="text9622"
       x="-107.26611"
       y="462.55862"
       style="font-size:15px">
      <tspan
         style="font-size:32.40000153px;font-variant:normal;font-weight:normal;font-stretch:normal;writing-mode:lr-tb;fill:#000000;fill-opacity:1;fill-rule:nonzero;stroke:none;font-family:Verdana;-inkscape-font-specification:Verdana"
         x="-107.26611"
         y="462.55862"
         id="tspan9624">B</tspan>
    </text>
    <path
       inkscape:connector-curvature="0"
       d="m -52.36548,522.63361 0,80.925 87.675,0 0,-80.925 -87.675,0 z"
       style="fill:#00cc99;fill-opacity:1;fill-rule:nonzero;stroke:none"
       id="path9626" />
    <path
       inkscape:connector-curvature="0"
       d="m -52.81548,604.08361 0,-81.975 88.65,0 0,81.975 -88.65,0 z m 0,-81.975 z m 0.975,81.45 -0.525,-0.45 87.675,0 -0.45,0.45 0,-80.925 0.45,0.525 -87.675,0 0.525,-0.525"
       style="fill:#000000;fill-opacity:1;fill-rule:nonzero;stroke:none"
       id="path9628" />
    <text
       id="text9630"
       x="-18.691105"
       y="575.88361"
       style="font-size:15px">
      <tspan
         style="font-size:32.40000153px;font-variant:normal;font-weight:normal;font-stretch:normal;writing-mode:lr-tb;fill:#000000;fill-opacity:1;fill-rule:nonzero;stroke:none;font-family:Verdana;-inkscape-font-specification:Verdana"
         x="-18.691105"
         y="575.88361"
         id="tspan9632">E</tspan>
    </text>
    <path
       inkscape:connector-curvature="0"
       d="m -148.81598,522.63361 0,80.925 87.675,0 0,-80.925 -87.675,0 z"
       style="fill:#00cc99;fill-opacity:1;fill-rule:nonzero;stroke:none"
       id="path9634" />
    <path
       inkscape:connector-curvature="0"
       d="m -149.2661,604.08361 0,-81.975 88.649995,0 0,81.975 -88.649995,0 z m 0,-81.975 z m 0.975,81.45 -0.52488,-0.45 87.6755,0 -0.45,0.45 0,-80.925 0.45,0.525 -87.6755,0 0.52488,-0.525"
       style="fill:#000000;fill-opacity:1;fill-rule:nonzero;stroke:none"
       id="path9636" />
    <text
       id="text9638"
       x="-117.39111"
       y="575.88361"
       style="font-size:15px">
      <tspan
         style="font-size:32.40000153px;font-variant:normal;font-weight:normal;font-stretch:normal;writing-mode:lr-tb;fill:#000000;fill-opacity:1;fill-rule:nonzero;stroke:none;font-family:Verdana;-inkscape-font-specification:Verdana"
         x="-117.39111"
         y="575.88361"
         id="tspan9640">D</tspan>
    </text>
    <path
       inkscape:connector-curvature="0"
       d="m 9.05952,652.15861 0,80.925 87.675,0 0,-80.925 -87.675,0 z"
       style="fill:#00cc99;fill-opacity:1;fill-rule:nonzero;stroke:none"
       id="path9642" />
    <path
       inkscape:connector-curvature="0"
       d="m 8.53452,733.53361 0,-81.9 88.65,0 0,81.9 -88.65,0 z m 0,-81.9 z m 0.975,81.45 -0.45,-0.525 87.675,0 -0.525,0.525 0,-80.925 0.525,0.45 -87.675,0 0.45,-0.45"
       style="fill:#000000;fill-opacity:1;fill-rule:nonzero;stroke:none"
       id="path9644" />
    <text
       id="text9646"
       x="43.558895"
       y="705.40863"
       style="font-size:15px">
      <tspan
         style="font-size:32.40000153px;font-variant:normal;font-weight:normal;font-stretch:normal;writing-mode:lr-tb;fill:#000000;fill-opacity:1;fill-rule:nonzero;stroke:none;font-family:Verdana;-inkscape-font-specification:Verdana"
         x="43.558895"
         y="705.40863"
         id="tspan9648">F</tspan>
    </text>
    <path
       inkscape:connector-curvature="0"
       d="m 9.05952,409.30861 0,80.925 87.675,0 0,-80.925 -87.675,0 z"
       style="fill:#00cc99;fill-opacity:1;fill-rule:nonzero;stroke:none"
       id="path9650" />
    <path
       inkscape:connector-curvature="0"
       d="m 8.53452,490.75861 0,-81.9 88.65,0 0,81.9 -88.65,0 z m 0,-81.9 z m 0.975,81.375 -0.45,-0.45 87.675,0 -0.525,0.45 0,-80.925 0.525,0.525 -87.675,0 0.45,-0.525"
       style="fill:#000000;fill-opacity:1;fill-rule:nonzero;stroke:none"
       id="path9652" />
    <text
       id="text9654"
       x="41.533894"
       y="462.55862"
       style="font-size:15px">
      <tspan
         style="font-size:32.40000153px;font-variant:normal;font-weight:normal;font-stretch:normal;writing-mode:lr-tb;fill:#000000;fill-opacity:1;fill-rule:nonzero;stroke:none;font-family:Verdana;-inkscape-font-specification:Verdana"
         x="41.533894"
         y="462.55862"
         id="tspan9656">C</tspan>
    </text>
    <g
       id="g9658"
       transform="matrix(0,1.25,1.25,0,-17.49048,368.43361)">
      <path
         inkscape:connector-curvature="0"
         d="M 0,0 29.88,-58.32 30.6,-57.96 0.66,0.36 0,0 z m 26.88,-58.68 5.82,-4.26 -0.06,7.2"
         style="fill:#000000;fill-opacity:1;fill-rule:nonzero;stroke:none"
         id="path9660" />
    </g>
    <g
       id="g9662"
       transform="matrix(0,1.25,1.25,0,-17.04048,368.43361)">
      <path
         inkscape:connector-curvature="0"
         d="M 0,0 29.64,51.48 30.36,51.06 0.66,-0.36 0,0 z m 26.64,51.96 6.06,3.96 -0.42,-7.2"
         style="fill:#000000;fill-opacity:1;fill-rule:nonzero;stroke:none"
         id="path9664" />
    </g>
    <g
       id="g9666"
       transform="matrix(0,1.25,1.25,0,-96.69048,490.15861)">
      <path
         inkscape:connector-curvature="0"
         d="M 0,0 20.64,-5.58 20.88,-4.8 0.18,0.78 0,0 z m 18.9,-8.04 7.08,1.44 -5.4,4.8"
         style="fill:#000000;fill-opacity:1;fill-rule:nonzero;stroke:none"
         id="path9668" />
    </g>
    <g
       id="g9670"
       transform="matrix(0,1.25,1.25,0,-8.19048,603.18361)">
      <path
         inkscape:connector-curvature="0"
         d="M 0,0 35.52,44.88 36.12,44.4 0.6,-0.48 0,0 z m 32.58,45.78 6.6,3.06 -1.5,-7.08"
         style="fill:#000000;fill-opacity:1;fill-rule:nonzero;stroke:none"
         id="path9672" />
    </g>
    <g
       id="g9674"
       transform="matrix(0,1.25,1.25,0,-96.01548,489.78361)">
      <path
         inkscape:connector-curvature="0"
         d="M 0,0 24.06,65.1 24.78,64.8 0.78,-0.24 0,0 z m 21,65.04 5.28,4.98 0.78,-7.2"
         style="fill:#000000;fill-opacity:1;fill-rule:nonzero;stroke:none"
         id="path9676" />
    </g>
    <g
       id="g9678"
       transform="matrix(0,1.25,1.25,0,55.40952,488.58361)">
      <path
         inkscape:connector-curvature="0"
         d="m 0,0 124.38,0.24 0,-0.78 L 0,-0.78 0,0 z m 123.3,3.06 6.48,-3.18 -6.48,-3.24"
         style="fill:#000000;fill-opacity:1;fill-rule:nonzero;stroke:none"
         id="path9680" />
    </g>
    <g
       id="g9682"
       transform="matrix(0,1.25,1.25,0,-104.64048,603.18361)">
      <path
         inkscape:connector-curvature="0"
         d="M 0,0 67.92,86.94 68.52,86.46 0.6,-0.48 0,0 z m 64.98,87.84 6.54,3.12 -1.44,-7.14"
         style="fill:#000000;fill-opacity:1;fill-rule:nonzero;stroke:none"
         id="path9684" />
    </g>
    <path
       inkscape:connector-curvature="0"
       d="m 263.30952,287.88361 0,81 87.675,0 0,-81 -87.675,0 z"
       style="fill:#00cc99;fill-opacity:1;fill-rule:nonzero;stroke:none"
       id="path9696" />
    <path
       inkscape:connector-curvature="0"
       d="m 262.78452,369.33361 0,-81.9 88.725,0 0,81.9 -88.725,0 z m 0,-81.9 z m 1.05,81.45 -0.525,-0.525 87.675,0 -0.45,0.525 0,-81 0.45,0.525 -87.675,0 0.525,-0.525"
       style="fill:#000000;fill-opacity:1;fill-rule:nonzero;stroke:none"
       id="path9698" />
    <text
       id="text9700"
       x="296.15891"
       y="341.13361"
       style="font-size:15px">
      <tspan
         style="font-size:32.40000153px;font-variant:normal;font-weight:normal;font-stretch:normal;writing-mode:lr-tb;fill:#000000;fill-opacity:1;fill-rule:nonzero;stroke:none;font-family:Verdana;-inkscape-font-specification:Verdana"
         x="296.15891"
         y="341.13361"
         id="tspan9702">A</tspan>
    </text>
    <path
       inkscape:connector-curvature="0"
       d="m 156.05952,409.30861 0,80.925 87.675,0 0,-80.925 -87.675,0 z"
       style="fill:#00cc99;fill-opacity:1;fill-rule:nonzero;stroke:none"
       id="path9704" />
    <path
       inkscape:connector-curvature="0"
       d="m 155.60952,490.75861 0,-81.9 88.65,0 0,81.9 -88.65,0 z m 0,-81.9 z m 0.975,81.375 -0.525,-0.45 87.675,0 -0.45,0.45 0,-80.925 0.45,0.525 -87.675,0 0.525,-0.525"
       style="fill:#000000;fill-opacity:1;fill-rule:nonzero;stroke:none"
       id="path9706" />
    <text
       id="text9708"
       x="188.83389"
       y="462.55862"
       style="font-size:15px">
      <tspan
         style="font-size:32.40000153px;font-variant:normal;font-weight:normal;font-stretch:normal;writing-mode:lr-tb;fill:#000000;fill-opacity:1;fill-rule:nonzero;stroke:none;font-family:Verdana;-inkscape-font-specification:Verdana"
         x="188.83389"
         y="462.55862"
         id="tspan9710">B</tspan>
    </text>
    <path
       inkscape:connector-curvature="0"
       d="m 279.50952,521.43361 0,80.925 87.675,0 0,-80.925 -87.675,0 z"
       style="fill:#00cc99;fill-opacity:1;fill-rule:nonzero;stroke:none"
       id="path9712" />
    <path
       inkscape:connector-curvature="0"
       d="m 278.98452,602.88361 0,-81.9 88.725,0 0,81.9 -88.725,0 z m 0,-81.9 z m 1.05,81.375 -0.525,-0.45 87.675,0 -0.525,0.45 0,-80.925 0.525,0.525 -87.675,0 0.525,-0.525"
       style="fill:#000000;fill-opacity:1;fill-rule:nonzero;stroke:none"
       id="path9714" />
    <text
       id="text9716"
       x="313.1839"
       y="574.68359"
       style="font-size:15px">
      <tspan
         style="font-size:32.40000153px;font-variant:normal;font-weight:normal;font-stretch:normal;writing-mode:lr-tb;fill:#000000;fill-opacity:1;fill-rule:nonzero;stroke:none;font-family:Verdana;-inkscape-font-specification:Verdana"
         x="313.1839"
         y="574.68359"
         id="tspan9718">E</tspan>
    </text>
    <path
       inkscape:connector-curvature="0"
       d="m 175.63452,522.63361 0,80.925 87.675,0 0,-80.925 -87.675,0 z"
       style="fill:#00cc99;fill-opacity:1;fill-rule:nonzero;stroke:none"
       id="path9720" />
    <path
       inkscape:connector-curvature="0"
       d="m 175.10952,604.08361 0,-81.975 88.725,0 0,81.975 -88.725,0 z m 0,-81.975 z m 1.05,81.45 -0.525,-0.45 87.675,0 -0.525,0.45 0,-80.925 0.525,0.525 -87.675,0 0.525,-0.525"
       style="fill:#000000;fill-opacity:1;fill-rule:nonzero;stroke:none"
       id="path9722" />
    <text
       id="text9724"
       x="207.05888"
       y="575.88361"
       style="font-size:15px">
      <tspan
         style="font-size:32.40000153px;font-variant:normal;font-weight:normal;font-stretch:normal;writing-mode:lr-tb;fill:#000000;fill-opacity:1;fill-rule:nonzero;stroke:none;font-family:Verdana;-inkscape-font-specification:Verdana"
         x="207.05888"
         y="575.88361"
         id="tspan9726">D</tspan>
    </text>
    <path
       inkscape:connector-curvature="0"
       d="m 309.88452,652.15861 0,80.925 87.675,0 0,-80.925 -87.675,0 z"
       style="fill:#00cc99;fill-opacity:1;fill-rule:nonzero;stroke:none"
       id="path9728" />
    <path
       inkscape:connector-curvature="0"
       d="m 309.35952,733.53361 0,-81.9 88.65,0 0,81.9 -88.65,0 z m 0,-81.9 z m 0.975,81.45 -0.45,-0.525 87.675,0 -0.525,0.525 0,-80.925 0.525,0.45 -87.675,0 0.45,-0.45"
       style="fill:#000000;fill-opacity:1;fill-rule:nonzero;stroke:none"
       id="path9730" />
    <text
       id="text9732"
       x="344.38388"
       y="705.40863"
       style="font-size:15px">
      <tspan
         style="font-size:32.40000153px;font-variant:normal;font-weight:normal;font-stretch:normal;writing-mode:lr-tb;fill:#000000;fill-opacity:1;fill-rule:nonzero;stroke:none;font-family:Verdana;-inkscape-font-specification:Verdana"
         x="344.38388"
         y="705.40863"
         id="tspan9734">F</tspan>
    </text>
    <path
       inkscape:connector-curvature="0"
       d="m 336.13452,416.20861 0,80.925 87.675,0 0,-80.925 -87.675,0 z"
       style="fill:#00cc99;fill-opacity:1;fill-rule:nonzero;stroke:none"
       id="path9736" />
    <path
       inkscape:connector-curvature="0"
       d="m 335.68452,497.65861 0,-81.9 88.65,0 0,81.9 -88.65,0 z m 0,-81.9 z m 0.975,81.375 -0.525,-0.45 87.675,0 -0.45,0.45 0,-80.925 0.45,0.525 -87.675,0 0.525,-0.525"
       style="fill:#000000;fill-opacity:1;fill-rule:nonzero;stroke:none"
       id="path9738" />
    <text
       id="text9740"
       x="368.6839"
       y="469.45862"
       style="font-size:15px">
      <tspan
         style="font-size:32.40000153px;font-variant:normal;font-weight:normal;font-stretch:normal;writing-mode:lr-tb;fill:#000000;fill-opacity:1;fill-rule:nonzero;stroke:none;font-family:Verdana;-inkscape-font-specification:Verdana"
         x="368.6839"
         y="469.45862"
         id="tspan9742">C</tspan>
    </text>
    <g
       id="g9744"
       transform="matrix(0,1.25,1.25,0,306.95952,368.35861)">
      <path
         inkscape:connector-curvature="0"
         d="m 0,0 30.48,-80.7 0.78,0.24 L 0.78,0.3 0,0 z m 27.48,-80.7 5.28,-4.92 0.78,7.2"
         style="fill:#000000;fill-opacity:1;fill-rule:nonzero;stroke:none"
         id="path9746" />
    </g>
    <g
       id="g9748"
       transform="matrix(0,1.25,1.25,0,307.40952,368.43361)">
      <path
         inkscape:connector-curvature="0"
         d="M 0,0 34.98,53.76 35.64,53.34 0.66,-0.42 0,0 z m 31.98,54.42 6.24,3.66 -0.78,-7.2"
         style="fill:#000000;fill-opacity:1;fill-rule:nonzero;stroke:none"
         id="path9750" />
    </g>
    <g
       id="g9752"
       transform="matrix(0,1.25,1.25,0,200.30952,490.00861)">
      <path
         inkscape:connector-curvature="0"
         d="M 0,0 21.3,12.9 21.66,12.18 0.42,-0.66 0,0 z m 18.9,14.76 7.2,0.6 -3.84,-6.12"
         style="fill:#000000;fill-opacity:1;fill-rule:nonzero;stroke:none"
         id="path9754" />
    </g>
    <g
       id="g9756"
       transform="matrix(0,1.25,1.25,0,323.75952,602.13361)">
      <path
         inkscape:connector-curvature="0"
         d="M 0,0 35.16,21.48 35.58,20.82 0.42,-0.66 0,0 z m 32.76,23.34 7.26,0.6 -3.84,-6.12"
         style="fill:#000000;fill-opacity:1;fill-rule:nonzero;stroke:none"
         id="path9758" />
    </g>
    <g
       id="g9760"
       transform="matrix(0,1.25,1.25,0,200.00952,489.78361)">
      <path
         inkscape:connector-curvature="0"
         d="M 0,0 23.64,93.54 24.42,93.36 0.78,-0.18 0,0 z m 20.58,93.18 4.74,5.46 1.56,-7.02"
         style="fill:#000000;fill-opacity:1;fill-rule:nonzero;stroke:none"
         id="path9762" />
    </g>
    <g
       id="g9764"
       transform="matrix(0,1.25,1.25,0,379.48452,497.05861)">
      <path
         inkscape:connector-curvature="0"
         d="m 0,0 118.68,-20.1 0.12,0.78 L 0.18,0.78 0,0 z m 117.12,-22.74 6.96,2.1 -5.88,4.26"
         style="fill:#000000;fill-opacity:1;fill-rule:nonzero;stroke:none"
         id="path9766" />
    </g>
    <g
       id="g9768"
       transform="matrix(0,1.25,1.25,0,219.80952,603.18361)">
      <path
         inkscape:connector-curvature="0"
         d="M 0,0 67.44,68.46 68.04,67.92 0.6,-0.54 0,0 z m 64.68,69.72 6.84,2.34 -2.22,-6.9"
         style="fill:#000000;fill-opacity:1;fill-rule:nonzero;stroke:none"
         id="path9770" />
    </g>
    <path
       inkscape:connector-curvature="0"
       d="m 622.78452,295.98361 0,80.925 87.675,0 0,-80.925 -87.675,0 z"
       style="fill:#00cc99;fill-opacity:1;fill-rule:nonzero;stroke:none"
       id="path9782" />
    <path
       inkscape:connector-curvature="0"
       d="m 622.33452,377.43361 0,-81.9 88.65,0 0,81.9 -88.65,0 z m 0,-81.9 z m 0.975,81.375 -0.525,-0.45 87.675,0 -0.45,0.45 0,-80.925 0.45,0.525 -87.675,0 0.525,-0.525"
       style="fill:#000000;fill-opacity:1;fill-rule:nonzero;stroke:none"
       id="path9784" />
    <text
       id="text9786"
       x="655.63391"
       y="349.23361"
       style="font-size:15px">
      <tspan
         style="font-size:32.40000153px;font-variant:normal;font-weight:normal;font-stretch:normal;writing-mode:lr-tb;fill:#000000;fill-opacity:1;fill-rule:nonzero;stroke:none;font-family:Verdana;-inkscape-font-specification:Verdana"
         x="655.63391"
         y="349.23361"
         id="tspan9788">A</tspan>
    </text>
    <path
       inkscape:connector-curvature="0"
       d="m 516.88327,417.40861 0,80.925 87.75,0 0,-80.925 -87.75,0 z"
       style="fill:#00cc99;fill-opacity:1;fill-rule:nonzero;stroke:none"
       id="path9790" />
    <path
       inkscape:connector-curvature="0"
       d="m 516.43452,498.85861 0,-81.975 88.65,0 0,81.975 -88.65,0 z m 0,-81.975 z m 0.97375,81.45 -0.525,-0.45 87.67625,0 -0.45,0.45 0,-80.925 0.45,0.525 -87.67625,0 0.525,-0.525"
       style="fill:#000000;fill-opacity:1;fill-rule:nonzero;stroke:none"
       id="path9792" />
    <text
       id="text9794"
       x="549.65887"
       y="470.6586"
       style="font-size:15px">
      <tspan
         style="font-size:32.40000153px;font-variant:normal;font-weight:normal;font-stretch:normal;writing-mode:lr-tb;fill:#000000;fill-opacity:1;fill-rule:nonzero;stroke:none;font-family:Verdana;-inkscape-font-specification:Verdana"
         x="549.65887"
         y="470.6586"
         id="tspan9796">B</tspan>
    </text>
    <path
       inkscape:connector-curvature="0"
       d="m 657.88327,538.83361 0,80.925 87.675,0 0,-80.925 -87.675,0 z"
       style="fill:#00cc99;fill-opacity:1;fill-rule:nonzero;stroke:none"
       id="path9798" />
    <path
       inkscape:connector-curvature="0"
       d="m 657.35827,620.28361 0,-81.975 88.725,0 0,81.975 -88.725,0 z m 0,-81.975 z m 1.05125,81.45 -0.52625,-0.525 87.675,0 -0.52375,0.525 0,-80.925 0.52375,0.45 -87.675,0 0.52625,-0.45"
       style="fill:#000000;fill-opacity:1;fill-rule:nonzero;stroke:none"
       id="path9800" />
    <text
       id="text9802"
       x="691.5589"
       y="592.08362"
       style="font-size:15px">
      <tspan
         style="font-size:32.40000153px;font-variant:normal;font-weight:normal;font-stretch:normal;writing-mode:lr-tb;fill:#000000;fill-opacity:1;fill-rule:nonzero;stroke:none;font-family:Verdana;-inkscape-font-specification:Verdana"
         x="691.5589"
         y="592.08362"
         id="tspan9804">E</tspan>
    </text>
    <path
       inkscape:connector-curvature="0"
       d="m 504.13327,530.73361 0,80.925 87.675,0 0,-80.925 -87.675,0 z"
       style="fill:#00cc99;fill-opacity:1;fill-rule:nonzero;stroke:none"
       id="path9806" />
    <path
       inkscape:connector-curvature="0"
       d="m 503.60827,612.18361 0,-81.975 88.65,0 0,81.975 -88.65,0 z m 0,-81.975 z m 0.97625,81.45 -0.45125,-0.525 87.675,0 -0.52375,0.525 0,-80.925 0.52375,0.525 -87.675,0 0.45125,-0.525"
       style="fill:#000000;fill-opacity:1;fill-rule:nonzero;stroke:none"
       id="path9808" />
    <text
       id="text9810"
       x="535.48389"
       y="583.98358"
       style="font-size:15px">
      <tspan
         style="font-size:32.40000153px;font-variant:normal;font-weight:normal;font-stretch:normal;writing-mode:lr-tb;fill:#000000;fill-opacity:1;fill-rule:nonzero;stroke:none;font-family:Verdana;-inkscape-font-specification:Verdana"
         x="535.48389"
         y="583.98358"
         id="tspan9812">D</tspan>
    </text>
    <path
       inkscape:connector-curvature="0"
       d="m 771.88452,684.48361 0,80.925 87.675,0 0,-80.925 -87.675,0 z"
       style="fill:#00cc99;fill-opacity:1;fill-rule:nonzero;stroke:none"
       id="path9814" />
    <path
       inkscape:connector-curvature="0"
       d="m 771.35952,765.93361 0,-81.9 88.65,0 0,81.9 -88.65,0 z m 0,-81.9 z m 0.975,81.375 -0.45,-0.45 87.675,0 -0.525,0.45 0,-80.925 0.525,0.525 -87.675,0 0.45,-0.525"
       style="fill:#000000;fill-opacity:1;fill-rule:nonzero;stroke:none"
       id="path9816" />
    <text
       id="text9818"
       x="802.03387"
       y="737.73358"
       style="font-size:15px">
      <tspan
         style="font-size:32.40000153px;font-variant:normal;font-weight:normal;font-stretch:normal;writing-mode:lr-tb;fill:#000000;fill-opacity:1;fill-rule:nonzero;stroke:none;font-family:Verdana;-inkscape-font-specification:Verdana"
         x="802.03387 820.64447"
         y="737.73358"
         sodipodi:role="line"
         id="tspan9820">F’</tspan>
    </text>
    <path
       inkscape:connector-curvature="0"
       d="m 706.40952,417.40861 0,80.925 87.75,0 0,-80.925 -87.75,0 z"
       style="fill:#00cc99;fill-opacity:1;fill-rule:nonzero;stroke:none"
       id="path9822" />
    <path
       inkscape:connector-curvature="0"
       d="m 705.95952,498.85861 0,-81.975 88.65,0 0,81.975 -88.65,0 z m 0,-81.975 z m 0.97375,81.45 -0.52375,-0.45 87.74875,0 -0.52375,0.45 0,-80.925 0.52375,0.525 -87.74875,0 0.52375,-0.525"
       style="fill:#000000;fill-opacity:1;fill-rule:nonzero;stroke:none"
       id="path9824" />
    <text
       id="text9826"
       x="738.95886"
       y="470.6586"
       style="font-size:15px">
      <tspan
         style="font-size:32.40000153px;font-variant:normal;font-weight:normal;font-stretch:normal;writing-mode:lr-tb;fill:#000000;fill-opacity:1;fill-rule:nonzero;stroke:none;font-family:Verdana;-inkscape-font-specification:Verdana"
         x="738.95886"
         y="470.6586"
         id="tspan9828">C</tspan>
    </text>
    <g
       id="g9830"
       transform="matrix(0,1.25,1.25,0,666.43452,376.45861)">
      <path
         inkscape:connector-curvature="0"
         d="M 0,0 30.48,-79.62 31.2,-79.38 0.78,0.3 0,0 z m 27.42,-79.62 5.34,-4.92 0.72,7.2"
         style="fill:#000000;fill-opacity:1;fill-rule:nonzero;stroke:none"
         id="path9832" />
    </g>
    <g
       id="g9834"
       transform="matrix(0,1.25,1.25,0,666.88327,376.53361)">
      <path
         inkscape:connector-curvature="0"
         d="M 0,0 30,62.04 30.72,61.68 0.66,-0.36 0,0 z m 27,62.28 5.7,4.44 0.12,-7.26"
         style="fill:#000000;fill-opacity:1;fill-rule:nonzero;stroke:none"
         id="path9836" />
    </g>
    <g
       id="g9838"
       transform="matrix(0,1.25,1.25,0,560.30952,498.18361)">
      <path
         inkscape:connector-curvature="0"
         d="m 0,0 20.88,-8.28 0.3,0.72 L 0.3,0.72 0,0 z m 18.84,-10.5 7.2,0.6 -4.86,5.4"
         style="fill:#000000;fill-opacity:1;fill-rule:nonzero;stroke:none"
         id="path9840" />
    </g>
    <g
       id="g9842"
       transform="matrix(0,1.25,1.25,0,701.98452,619.30861)">
      <path
         inkscape:connector-curvature="0"
         d="M 0,0 49.14,86.46 49.86,86.1 0.72,-0.42 0,0 z m 46.14,86.94 6,4.02 -0.36,-7.2"
         style="fill:#000000;fill-opacity:1;fill-rule:nonzero;stroke:none"
         id="path9844" />
    </g>
    <g
       id="g9846"
       transform="matrix(0,1.25,1.25,0,560.90952,497.88361)">
      <path
         inkscape:connector-curvature="0"
         d="M 0,0 30.9,107.58 31.62,107.34 0.78,-0.24 0,0 z m 27.84,107.34 4.92,5.28 1.32,-7.08"
         style="fill:#000000;fill-opacity:1;fill-rule:nonzero;stroke:none"
         id="path9848" />
    </g>
    <g
       id="g9850"
       transform="matrix(0,1.25,1.25,0,750.73452,498.18361)">
      <path
         inkscape:connector-curvature="0"
         d="M 0,0 143.82,50.58 144.12,49.8 0.24,-0.72 0,0 z m 141.9,52.86 7.14,-0.9 L 144,46.8"
         style="fill:#000000;fill-opacity:1;fill-rule:nonzero;stroke:none"
         id="path9852" />
    </g>
    <g
       id="g9854"
       transform="matrix(0,1.25,1.25,0,548.38452,611.35861)">
      <path
         inkscape:connector-curvature="0"
         d="M 0,0 34.32,21.9 34.74,21.24 0.48,-0.66 0,0 z m 31.92,23.7 7.2,0.78 -3.72,-6.24"
         style="fill:#000000;fill-opacity:1;fill-rule:nonzero;stroke:none"
         id="path9856" />
    </g>
    <path
       inkscape:connector-curvature="0"
       d="m 535.10952,660.25861 0,80.925 87.675,0 0,-80.925 -87.675,0 z"
       style="fill:#00cc99;fill-opacity:1;fill-rule:nonzero;stroke:none"
       id="path9868" />
    <path
       inkscape:connector-curvature="0"
       d="m 534.65952,741.63361 0,-81.9 88.65,0 0,81.9 -88.65,0 z m 0,-81.9 z m 0.97375,81.45 -0.52375,-0.525 87.675,0 -0.45,0.525 0,-80.925 0.45,0.45 -87.675,0 0.52375,-0.45"
       style="fill:#000000;fill-opacity:1;fill-rule:nonzero;stroke:none"
       id="path9870" />
    <text
       id="text9872"
       x="569.6839"
       y="713.50861"
       style="font-size:15px">
      <tspan
         style="font-size:32.40000153px;font-variant:normal;font-weight:normal;font-stretch:normal;writing-mode:lr-tb;fill:#000000;fill-opacity:1;fill-rule:nonzero;stroke:none;font-family:Verdana;-inkscape-font-specification:Verdana"
         x="569.6839"
         y="713.50861"
         id="tspan9874">F</tspan>
    </text>
    <flowRoot
       xml:space="preserve"
       id="flowRoot10201"
       style="font-size:20px;font-style:normal;font-variant:normal;font-weight:normal;font-stretch:normal;text-align:center;line-height:125%;letter-spacing:0px;word-spacing:0px;text-anchor:middle;fill:#000000;fill-opacity:1;stroke:none;font-family:TeX Gyre Schola;-inkscape-font-specification:Sans"
       transform="translate(8.0812204,1.0101525)"><flowRegion
         id="flowRegion10203"><rect
           id="rect10205"
           width="47.477169"
           height="31.31473"
           x="201.02036"
           y="365.45847" /></flowRegion><flowPara
         id="flowPara10207"
         style="font-weight:bold;-inkscape-font-specification:TeX Gyre Schola Bold">0.9</flowPara></flowRoot>    <flowRoot
       xml:space="preserve"
       id="flowRoot10209"
       style="font-size:20px;font-style:normal;font-variant:normal;font-weight:normal;font-stretch:normal;text-align:center;line-height:125%;letter-spacing:0px;word-spacing:0px;text-anchor:middle;fill:#000000;fill-opacity:1;stroke:none;font-family:TeX Gyre Schola;-inkscape-font-specification:Sans"
       transform="translate(-5.0507627,6.0609152)"><flowRegion
         id="flowRegion10211"><rect
           id="rect10213"
           width="41.416256"
           height="26.263966"
           x="350.52292"
           y="370.50922" /></flowRegion><flowPara
         id="flowPara10215"
         style="font-weight:bold;-inkscape-font-specification:TeX Gyre Schola Bold">0.1</flowPara></flowRoot>    <flowRoot
       xml:space="preserve"
       id="flowRoot10225"
       style="font-size:20px;font-style:normal;font-variant:normal;font-weight:normal;font-stretch:normal;text-align:center;line-height:125%;letter-spacing:0px;word-spacing:0px;text-anchor:middle;fill:#000000;fill-opacity:1;stroke:none;font-family:TeX Gyre Schola;-inkscape-font-specification:Sans"><flowRegion
         id="flowRegion10227"><rect
           id="rect10229"
           width="39.39595"
           height="32.324883"
           x="156.57364"
           y="492.73767" /></flowRegion><flowPara
         id="flowPara10231"
         style="font-weight:bold">0.9</flowPara></flowRoot>    <flowRoot
       xml:space="preserve"
       id="flowRoot10233"
       style="font-size:20px;font-style:normal;font-variant:normal;font-weight:normal;font-stretch:normal;text-align:center;line-height:125%;letter-spacing:0px;word-spacing:0px;text-anchor:middle;fill:#000000;fill-opacity:1;stroke:none;font-family:TeX Gyre Schola;-inkscape-font-specification:Sans"
       transform="translate(6.0609153,4.0406102)"><flowRegion
         id="flowRegion10235"><rect
           id="rect10237"
           width="50.507626"
           height="28.284271"
           x="260.61935"
           y="483.6463" /></flowRegion><flowPara
         id="flowPara10239"
         style="font-weight:bold">0.1</flowPara></flowRoot>    <flowRoot
       transform="translate(359.3989,11.212223)"
       xml:space="preserve"
       id="flowRoot10201-9"
       style="font-size:20px;font-style:normal;font-variant:normal;font-weight:normal;font-stretch:normal;text-align:center;line-height:125%;letter-spacing:0px;word-spacing:0px;text-anchor:middle;fill:#000000;fill-opacity:1;stroke:none;font-family:TeX Gyre Schola;-inkscape-font-specification:Sans"><flowRegion
         id="flowRegion10203-7"><rect
           id="rect10205-4"
           width="47.477169"
           height="31.31473"
           x="201.02036"
           y="365.45847" /></flowRegion><flowPara
         id="flowPara10207-3"
         style="font-weight:bold;-inkscape-font-specification:TeX Gyre Schola Bold">0.9</flowPara></flowRoot>    <flowRoot
       transform="translate(361.4192,8.1817654)"
       xml:space="preserve"
       id="flowRoot10209-7"
       style="font-size:20px;font-style:normal;font-variant:normal;font-weight:normal;font-stretch:normal;text-align:center;line-height:125%;letter-spacing:0px;word-spacing:0px;text-anchor:middle;fill:#000000;fill-opacity:1;stroke:none;font-family:TeX Gyre Schola;-inkscape-font-specification:Sans"><flowRegion
         id="flowRegion10211-4"><rect
           id="rect10213-0"
           width="41.416256"
           height="26.263966"
           x="350.52292"
           y="370.50922" /></flowRegion><flowPara
         id="flowPara10215-3"
         style="font-weight:bold;-inkscape-font-specification:TeX Gyre Schola Bold">0.1</flowPara></flowRoot>    <flowRoot
       transform="translate(353.33798,11.212223)"
       xml:space="preserve"
       id="flowRoot10225-5"
       style="font-size:20px;font-style:normal;font-variant:normal;font-weight:normal;font-stretch:normal;text-align:center;line-height:125%;letter-spacing:0px;word-spacing:0px;text-anchor:middle;fill:#000000;fill-opacity:1;stroke:none;font-family:TeX Gyre Schola;-inkscape-font-specification:Sans"><flowRegion
         id="flowRegion10227-1"><rect
           id="rect10229-0"
           width="39.39595"
           height="32.324883"
           x="156.57364"
           y="492.73767" /></flowRegion><flowPara
         id="flowPara10231-7"
         style="font-weight:bold">0.9</flowPara></flowRoot>    <flowRoot
       transform="translate(381.62225,17.273138)"
       xml:space="preserve"
       id="flowRoot10233-5"
       style="font-size:20px;font-style:normal;font-variant:normal;font-weight:normal;font-stretch:normal;text-align:center;line-height:125%;letter-spacing:0px;word-spacing:0px;text-anchor:middle;fill:#000000;fill-opacity:1;stroke:none;font-family:TeX Gyre Schola;-inkscape-font-specification:Sans"><flowRegion
         id="flowRegion10235-8"><rect
           id="rect10237-1"
           width="50.507626"
           height="28.284271"
           x="260.61935"
           y="483.6463" /></flowRegion><flowPara
         id="flowPara10239-2"
         style="font-weight:bold">0.1</flowPara></flowRoot>    <flowRoot
       transform="translate(-304.33224,4.202071)"
       xml:space="preserve"
       id="flowRoot10201-7"
       style="font-size:20px;font-style:normal;font-variant:normal;font-weight:normal;font-stretch:normal;text-align:center;line-height:125%;letter-spacing:0px;word-spacing:0px;text-anchor:middle;fill:#000000;fill-opacity:1;stroke:none;font-family:TeX Gyre Schola;-inkscape-font-specification:Sans"><flowRegion
         id="flowRegion10203-1"><rect
           id="rect10205-0"
           width="47.477169"
           height="31.31473"
           x="201.02036"
           y="365.45847" /></flowRegion><flowPara
         id="flowPara10207-9"
         style="font-weight:bold;-inkscape-font-specification:TeX Gyre Schola Bold">0.9</flowPara></flowRoot>    <flowRoot
       transform="translate(-326.5556,-0.84869173)"
       xml:space="preserve"
       id="flowRoot10209-6"
       style="font-size:20px;font-style:normal;font-variant:normal;font-weight:normal;font-stretch:normal;text-align:center;line-height:125%;letter-spacing:0px;word-spacing:0px;text-anchor:middle;fill:#000000;fill-opacity:1;stroke:none;font-family:TeX Gyre Schola;-inkscape-font-specification:Sans"><flowRegion
         id="flowRegion10211-2"><rect
           id="rect10213-2"
           width="41.416256"
           height="26.263966"
           x="350.52292"
           y="370.50922" /></flowRegion><flowPara
         id="flowPara10215-39"
         style="font-weight:bold;-inkscape-font-specification:TeX Gyre Schola Bold">0.1</flowPara></flowRoot>    <flowRoot
       transform="translate(-304.33224,2.1817659)"
       xml:space="preserve"
       id="flowRoot10225-1"
       style="font-size:20px;font-style:normal;font-variant:normal;font-weight:normal;font-stretch:normal;text-align:center;line-height:125%;letter-spacing:0px;word-spacing:0px;text-anchor:middle;fill:#000000;fill-opacity:1;stroke:none;font-family:TeX Gyre Schola;-inkscape-font-specification:Sans"><flowRegion
         id="flowRegion10227-8"><rect
           id="rect10229-7"
           width="39.39595"
           height="32.324883"
           x="156.57364"
           y="492.73767" /></flowRegion><flowPara
         id="flowPara10231-8"
         style="font-weight:bold">0.9</flowPara></flowRoot>    <flowRoot
       transform="translate(-311.40331,5.2122235)"
       xml:space="preserve"
       id="flowRoot10233-0"
       style="font-size:20px;font-style:normal;font-variant:normal;font-weight:normal;font-stretch:normal;text-align:center;line-height:125%;letter-spacing:0px;word-spacing:0px;text-anchor:middle;fill:#000000;fill-opacity:1;stroke:none;font-family:TeX Gyre Schola;-inkscape-font-specification:Sans"><flowRegion
         id="flowRegion10235-0"><rect
           id="rect10237-9"
           width="50.507626"
           height="28.284271"
           x="260.61935"
           y="483.6463" /></flowRegion><flowPara
         id="flowPara10239-8"
         style="font-weight:bold">0.1</flowPara></flowRoot>  </g>
</svg>
